<?xml version="1.0" encoding="UTF-8"?>
<svg id="Layer_1" xmlns="http://www.w3.org/2000/svg" xmlns:xlink="http://www.w3.org/1999/xlink" version="1.1" viewBox="0 0 809.1 314.4">
  <!-- Generator: Adobe Illustrator 30.0.0, SVG Export Plug-In . SVG Version: 2.1.1 Build 123)  -->
  <defs>
    <style>
      .st0 {
        stroke-width: 4px;
      }

      .st0, .st1, .st2 {
        fill: none;
        stroke: #e6e6e6;
        stroke-miterlimit: 10;
      }

      .st3 {
        fill: url(#radial-gradient);
      }

      .st4 {
        fill: url(#radial-gradient1);
      }

      .st2 {
        stroke-width: 2px;
      }
    </style>
    <radialGradient id="radial-gradient" cx="692.5" cy="50.5" fx="692.5" fy="50.5" r="24.1" gradientTransform="translate(39.4 102.6) rotate(14.1) scale(1 -1)" gradientUnits="userSpaceOnUse">
      <stop offset="0" stop-color="#fff"/>
      <stop offset="0" stop-color="#fff" stop-opacity=".8"/>
      <stop offset=".3" stop-color="#fff" stop-opacity=".6"/>
      <stop offset=".4" stop-color="#fff" stop-opacity=".4"/>
      <stop offset=".5" stop-color="#fff" stop-opacity=".3"/>
      <stop offset=".6" stop-color="#fff" stop-opacity=".1"/>
      <stop offset=".8" stop-color="#fff" stop-opacity="0"/>
      <stop offset=".9" stop-color="#fff" stop-opacity="0"/>
      <stop offset="1" stop-color="#fff" stop-opacity="0"/>
    </radialGradient>
    <radialGradient id="radial-gradient1" cx="-3" cy="33.1" fx="-3" fy="33.1" r="24.1" gradientTransform="translate(36.2 255.9) rotate(14.1) scale(1 -1)" gradientUnits="userSpaceOnUse">
      <stop offset="0" stop-color="#fff"/>
      <stop offset="0" stop-color="#fff" stop-opacity=".8"/>
      <stop offset=".3" stop-color="#fff" stop-opacity=".6"/>
      <stop offset=".4" stop-color="#fff" stop-opacity=".4"/>
      <stop offset=".5" stop-color="#fff" stop-opacity=".3"/>
      <stop offset=".6" stop-color="#fff" stop-opacity=".1"/>
      <stop offset=".8" stop-color="#fff" stop-opacity="0"/>
      <stop offset=".9" stop-color="#fff" stop-opacity="0"/>
      <stop offset="1" stop-color="#fff" stop-opacity="0"/>
    </radialGradient>
  </defs>
  <rect class="st1" x="116.1" y="12.5" width="576.9" height="278"/>
  <rect class="st1" y="290.5" width="809.1" height="23.8"/>
  <line class="st0" x1="125.3" y1="10.3" x2="683.8" y2="10.3"/>
  <rect class="st1" x="125.3" y="2.3" width="558.4" height="10.2"/>
  <ellipse class="st3" cx="732.8" cy="229.5" rx="13.9" ry="20.5" transform="translate(-35 241.7) rotate(-18.3)"/>
  <ellipse class="st4" cx="50.9" cy="230.5" rx="13.9" ry="20.5" transform="translate(-76.1 31.5) rotate(-20.1)"/>
  <path class="st1" d="M87.8,282.3c-1.9-.9-3.2-1.8-3.5-3-.3-1.1-.5-3.3-1.3-3.8s-2.8-1.3-3.4-2.3-1.5-4.3-.5-5.8,2-2.6,2-2.6v-3.4s6.1-10.9,8.9-20.2c2.7-9.3,3.1-21.4.8-25.8-1.8-3.5-2.1-3.9-2.1-3.9v-2s-2.5-2.9-2.5-4.5,0-3.7,2.6-6c0,0,.4-2.1,0-3.1s-.8-1.6-.8-1.6h-49.4s-.4.6-.8,1.6c-.4,1,0,3.1,0,3.1,2.5,2.3,2.5,4.4,2.6,6,0,1.6-2.5,4.5-2.5,4.5v2s-.2.4-2,3.9c-2.3,4.4-1.9,16.5.8,25.8s8.9,20.2,8.9,20.2v3.4s1.1,1.1,2,2.6c1,1.5,0,4.8-.5,5.8-.6,1-2.7,1.8-3.4,2.3-.8.5-1,2.6-1.3,3.8-.3,1.1-1.6,2.1-3.5,3s-3.1,1.8-3.6,3.4.6,4.9.6,4.9h55.2s1.1-3.3.6-4.9-1.7-2.6-3.6-3.4h-.3Z"/>
  <line class="st2" x1="37.7" y1="199.1" x2="88.7" y2="199.1"/>
  <path class="st2" d="M37.4,264.7"/>
  <line class="st2" x1="37.8" y1="211.6" x2="88.6" y2="211.6"/>
  <line class="st2" x1="42.1" y1="279.3" x2="84.3" y2="279.3"/>
  <path class="st1" d="M770.5,282.3c-1.9-.9-3.2-1.8-3.5-3-.3-1.1-.5-3.3-1.3-3.8s-2.8-1.3-3.4-2.3c-.6-1-1.5-4.3-.5-5.8s2-2.6,2-2.6v-3.4s6.1-10.9,8.9-20.2c2.7-9.3,3.1-21.4.8-25.8-1.8-3.5-2.1-3.9-2.1-3.9v-2s-2.5-2.9-2.5-4.5,0-3.7,2.6-6c0,0,.4-2.1,0-3.1s-.8-1.6-.8-1.6h-49.4s-.4.6-.8,1.6c-.4,1,0,3.1,0,3.1,2.5,2.3,2.5,4.4,2.6,6,0,1.6-2.5,4.5-2.5,4.5v2s-.2.4-2,3.9c-2.3,4.4-1.9,16.5.8,25.8s8.9,20.2,8.9,20.2v3.4s1.1,1.1,2,2.6c1,1.5,0,4.8-.5,5.8-.6,1-2.7,1.8-3.4,2.3-.8.5-1,2.6-1.3,3.8-.3,1.1-1.6,2.1-3.5,3s-3.1,1.8-3.6,3.4.6,4.9.6,4.9h55.2s1.1-3.3.6-4.9-1.7-2.6-3.6-3.4h-.3Z"/>
  <line class="st2" x1="720.4" y1="199.1" x2="771.5" y2="199.1"/>
  <line class="st2" x1="720.5" y1="211.6" x2="771.3" y2="211.6"/>
  <line class="st2" x1="724.8" y1="279.3" x2="767" y2="279.3"/>
</svg>