<?xml version="1.0" encoding="UTF-8"?>
<svg id="Layer_1" xmlns="http://www.w3.org/2000/svg" xmlns:xlink="http://www.w3.org/1999/xlink" version="1.1" viewBox="0 0 628.5 272.9">
  <!-- Generator: Adobe Illustrator 30.0.0, SVG Export Plug-In . SVG Version: 2.1.1 Build 123)  -->
  <defs>
    <style>
      .st0 {
        fill: #e6e6e6;
      }

      .st1 {
        fill: url(#radial-gradient);
      }

      .st2 {
        isolation: isolate;
      }

      .st3, .st4 {
        fill: none;
        stroke: #e6e6e6;
        stroke-miterlimit: 10;
      }

      .st5 {
        fill: url(#radial-gradient1);
      }

      .st6 {
        display: none;
      }

      .st4 {
        stroke-width: 2px;
      }
    </style>
    <radialGradient id="radial-gradient" cx="-27.8" cy="16" fx="-27.8" fy="16" r="24.1" gradientTransform="translate(42.8 204) rotate(14.1) scale(1 -1)" gradientUnits="userSpaceOnUse">
      <stop offset="0" stop-color="#fff"/>
      <stop offset="0" stop-color="#fff" stop-opacity=".8"/>
      <stop offset=".3" stop-color="#fff" stop-opacity=".6"/>
      <stop offset=".4" stop-color="#fff" stop-opacity=".4"/>
      <stop offset=".5" stop-color="#fff" stop-opacity=".3"/>
      <stop offset=".6" stop-color="#fff" stop-opacity=".1"/>
      <stop offset=".8" stop-color="#fff" stop-opacity="0"/>
      <stop offset=".9" stop-color="#fff" stop-opacity="0"/>
      <stop offset="1" stop-color="#fff" stop-opacity="0"/>
    </radialGradient>
    <radialGradient id="radial-gradient1" cx="510.5" cy="-40.8" fx="510.5" fy="-40.8" r="24.1" gradientTransform="translate(75.8 18) rotate(14.1) scale(1 -1)" gradientUnits="userSpaceOnUse">
      <stop offset="0" stop-color="#fff"/>
      <stop offset="0" stop-color="#fff" stop-opacity=".8"/>
      <stop offset=".3" stop-color="#fff" stop-opacity=".6"/>
      <stop offset=".4" stop-color="#fff" stop-opacity=".4"/>
      <stop offset=".5" stop-color="#fff" stop-opacity=".3"/>
      <stop offset=".6" stop-color="#fff" stop-opacity=".1"/>
      <stop offset=".8" stop-color="#fff" stop-opacity="0"/>
      <stop offset=".9" stop-color="#fff" stop-opacity="0"/>
      <stop offset="1" stop-color="#fff" stop-opacity="0"/>
    </radialGradient>
  </defs>
  <g id="mE4cUA.tif" class="st6">
    <image id="Layer_0" class="st2" width="1702" height="912" transform="translate(-26.3 -16.6) scale(.4)" xlink:href="estate10_overlay-1.png"/>
  </g>
  <rect class="st3" y="249.1" width="628.5" height="23.8"/>
  <path class="st4" d="M-52.4,223.3"/>
  <path class="st4" d="M17.3,223.3"/>
  <ellipse class="st1" cx="29.2" cy="189.1" rx="13.9" ry="20.5" transform="translate(-63.2 21.5) rotate(-20.1)"/>
  <path class="st3" d="M68,240.8c-1.9-.9-3.2-1.8-3.5-3-.3-1.1-.5-3.3-1.3-3.8s-2.8-1.3-3.4-2.3c-.6-1-1.5-4.3-.5-5.8s2-2.6,2-2.6v-3.4s6.1-10.9,8.9-20.2c2.7-9.3,3.1-21.4.8-25.8-1.8-3.5-2.1-3.9-2.1-3.9v-2s-2.5-2.9-2.5-4.5,0-3.7,2.6-6c0,0,.4-2.1,0-3.1s-.8-1.6-.8-1.6H18.7s-.4.6-.8,1.6,0,3.1,0,3.1c2.5,2.3,2.5,4.4,2.6,6,0,1.6-2.5,4.5-2.5,4.5v2s-.2.4-2,3.9c-2.3,4.4-1.9,16.5.8,25.8,2.7,9.3,8.9,20.2,8.9,20.2v3.4s1.1,1.1,2,2.6c1,1.5,0,4.8-.5,5.8-.6,1-2.7,1.8-3.4,2.3-.8.5-1,2.6-1.3,3.8-.3,1.1-1.6,2.1-3.5,3s-3.1,1.8-3.6,3.4.6,4.9.6,4.9h55.2s1.1-3.3.6-4.9-1.7-2.6-3.6-3.4h-.2Z"/>
  <line class="st4" x1="17.9" y1="157.6" x2="69" y2="157.6"/>
  <path class="st4" d="M17.7,223.3"/>
  <line class="st4" x1="18" y1="170.1" x2="68.9" y2="170.1"/>
  <line class="st4" x1="22.4" y1="237.8" x2="64.5" y2="237.8"/>
  <path class="st4" d="M488.9,223.3"/>
  <path class="st4" d="M558.5,223.3"/>
  <ellipse class="st5" cx="570.4" cy="189.1" rx="13.9" ry="20.5" transform="translate(-30.2 207.5) rotate(-20.1)"/>
  <path class="st3" d="M609.3,240.8c-1.9-.9-3.2-1.8-3.5-3-.3-1.1-.5-3.3-1.3-3.8s-2.8-1.3-3.4-2.3c-.6-1-1.5-4.3-.5-5.8s2-2.6,2-2.6v-3.4s6.1-10.9,8.9-20.2c2.7-9.3,3.1-21.4.8-25.8-1.8-3.5-2.1-3.9-2.1-3.9v-2s-2.5-2.9-2.5-4.5,0-3.7,2.6-6c0,0,.4-2.1,0-3.1s-.8-1.6-.8-1.6h-49.4s-.4.6-.8,1.6c-.4,1,0,3.1,0,3.1,2.5,2.3,2.5,4.4,2.6,6,0,1.6-2.5,4.5-2.5,4.5v2s-.2.4-2,3.9c-2.3,4.4-1.9,16.5.8,25.8s8.9,20.2,8.9,20.2v3.4s1.1,1.1,2,2.6c1,1.5,0,4.8-.5,5.8-.6,1-2.7,1.8-3.4,2.3-.8.5-1,2.6-1.3,3.8-.3,1.1-1.6,2.1-3.5,3s-3.1,1.8-3.6,3.4c-.5,1.6.6,4.9.6,4.9h55.2s1.1-3.3.6-4.9c-.5-1.6-1.7-2.6-3.6-3.4h-.3Z"/>
  <line class="st4" x1="559.2" y1="157.6" x2="610.2" y2="157.6"/>
  <path class="st4" d="M558.9,223.3"/>
  <line class="st4" x1="559.3" y1="170.1" x2="610.1" y2="170.1"/>
  <line class="st4" x1="563.6" y1="237.8" x2="605.8" y2="237.8"/>
  <rect class="st3" x="86.3" y="9.4" width="455.8" height="239.7"/>
  <rect class="st3" x="94.1" y=".8" width="440.4" height="8.6"/>
  <rect class="st0" x="94.1" y="5.1" width="440.4" height="4.3"/>
</svg>