<?xml version="1.0" encoding="UTF-8"?>
<svg id="Layer_1" data-name="Layer 1" xmlns="http://www.w3.org/2000/svg" xmlns:xlink="http://www.w3.org/1999/xlink" viewBox="0 0 810.12 313.97">
  <defs>
    <style>
      .cls-1 {
        fill: url(#radial-gradient-2);
      }

      .cls-2 {
        stroke-width: 4px;
      }

      .cls-2, .cls-3, .cls-4 {
        fill: none;
        stroke: #e6e6e6;
        stroke-miterlimit: 10;
      }

      .cls-5 {
        fill: url(#radial-gradient);
      }

      .cls-4 {
        stroke-width: 2px;
      }
    </style>
    <radialGradient id="radial-gradient" cx="38.89" cy="231.22" fx="38.89" fy="231.22" r="12" gradientTransform="translate(57.44 -2.51) rotate(14.08)" gradientUnits="userSpaceOnUse">
      <stop offset="0" stop-color="#e6e6e6"/>
      <stop offset="1" stop-color="#fff" stop-opacity="0"/>
    </radialGradient>
    <radialGradient id="radial-gradient-2" cx="724.79" cy="231.22" fx="724.79" fy="231.22" r="12" gradientTransform="translate(78.06 -169.43) rotate(14.08)" xlink:href="#radial-gradient"/>
  </defs>
  <path class="cls-3" d="M93.97,281.35c-2.56-.88-4.24-1.84-4.64-2.96-.4-1.12-.64-3.28-1.68-3.76-1.04-.48-3.76-1.28-4.56-2.32-.8-1.04-2-4.32-.72-5.84,1.28-1.52,2.72-2.64,2.72-2.64v-3.36s8.16-10.89,11.77-20.17c3.6-9.29,4.08-21.37,1.04-25.78-2.42-3.51-2.76-3.86-2.8-3.86l.08-1.98s-3.44-2.88-3.36-4.48c.08-1.6.08-3.68,3.44-6,0,0,.48-2.08-.08-3.12-.56-1.04-1.04-1.6-1.04-1.6H28.49s-.48.56-1.04,1.6c-.56,1.04-.08,3.12-.08,3.12,3.36,2.32,3.36,4.4,3.44,6,.08,1.6-3.36,4.48-3.36,4.48l.08,1.98s-.38.35-2.8,3.86c-3.04,4.4-2.56,16.49,1.04,25.78,3.6,9.29,11.77,20.17,11.77,20.17v3.36s1.44,1.12,2.72,2.64c1.28,1.52.08,4.8-.72,5.84-.8,1.04-3.52,1.84-4.56,2.32-1.04.48-1.28,2.64-1.68,3.76-.4,1.12-2.08,2.08-4.64,2.96s-4.16,1.84-4.8,3.44.76,4.85.76,4.85h73.41s1.4-3.25.76-4.85-2.24-2.56-4.8-3.44Z"/>
  <path class="cls-3" d="M687.38,26.88c-1.7-1.78-3.09-6.73-3.09-6.73L405.06.5,125.84,20.15s-1.39,4.95-3.09,6.73c-1.7,1.78-6.11,2.63-6.11,2.63h576.86s-4.41-.85-6.11-2.63Z"/>
  <rect class="cls-3" x="116.63" y="29.51" width="576.86" height="260.13"/>
  <rect class="cls-3" x=".5" y="289.64" width="809.12" height="23.83"/>
  <path class="cls-3" d="M780.84,281.35c-2.56-.88-4.24-1.84-4.64-2.96-.4-1.12-.64-3.28-1.68-3.76-1.04-.48-3.76-1.28-4.56-2.32-.8-1.04-2-4.32-.72-5.84,1.28-1.52,2.72-2.64,2.72-2.64v-3.36s8.16-10.89,11.77-20.17c3.6-9.29,4.08-21.37,1.04-25.78-2.42-3.51-2.76-3.86-2.8-3.86l.08-1.98s-3.44-2.88-3.36-4.48c.08-1.6.08-3.68,3.44-6,0,0,.48-2.08-.08-3.12-.56-1.04-1.04-1.6-1.04-1.6h-65.64s-.48.56-1.04,1.6c-.56,1.04-.08,3.12-.08,3.12,3.36,2.32,3.36,4.4,3.44,6,.08,1.6-3.36,4.48-3.36,4.48l.08,1.98s-.38.35-2.8,3.86c-3.04,4.4-2.56,16.49,1.04,25.78,3.6,9.29,11.77,20.17,11.77,20.17v3.36s1.44,1.12,2.72,2.64c1.28,1.52.08,4.8-.72,5.84-.8,1.04-3.52,1.84-4.56,2.32-1.04.48-1.28,2.64-1.68,3.76-.4,1.12-2.08,2.08-4.64,2.96s-4.16,1.84-4.8,3.44.76,4.85.76,4.85h73.41s1.4-3.25.76-4.85-2.24-2.56-4.8-3.44Z"/>
  <line class="cls-4" x1="27.37" y1="198.18" x2="95.25" y2="198.18"/>
  <line class="cls-4" x1="27.52" y1="210.64" x2="95.09" y2="210.64"/>
  <line class="cls-2" x1="125.84" y1="20.15" x2="684.29" y2="20.15"/>
  <line class="cls-4" x1="33.29" y1="278.39" x2="89.33" y2="278.39"/>
  <line class="cls-4" x1="714.24" y1="198.18" x2="782.12" y2="198.18"/>
  <line class="cls-4" x1="714.4" y1="210.64" x2="781.96" y2="210.64"/>
  <line class="cls-4" x1="720.16" y1="278.39" x2="776.2" y2="278.39"/>
  <ellipse class="cls-5" cx="38.89" cy="231.22" rx="9.6" ry="13.98" transform="translate(-55.1 16.42) rotate(-14.08)"/>
  <ellipse class="cls-1" cx="724.79" cy="231.22" rx="9.6" ry="13.98" transform="translate(-34.48 183.34) rotate(-14.08)"/>
</svg>