<?xml version="1.0" encoding="UTF-8"?>
<svg id="Layer_2" data-name="Layer 2" xmlns="http://www.w3.org/2000/svg" viewBox="0 0 809.12 312.97">
  <g id="solid">
    <path d="M773.12,289.14s1.06-3.25.57-4.85c-.48-1.6-1.69-2.56-3.61-3.44-1.93-.88-3.19-1.84-3.49-2.96-.3-1.12-.48-3.28-1.26-3.76-.78-.48-2.83-1.28-3.43-2.32-.6-1.04-1.51-4.32-.54-5.84.96-1.52,2.05-2.64,2.05-2.64v-3.36s6.14-10.89,8.85-20.17c2.71-9.29,3.07-21.37.78-25.78-1.82-3.51-2.08-3.86-2.11-3.86l.06-1.98s-2.59-2.88-2.53-4.48.06-3.68,2.59-6c0,0,.36-2.08-.06-3.12-.42-1.04-.78-1.6-.78-1.6h-49.39s-.36.56-.78,1.6c-.42,1.04-.06,3.12-.06,3.12,2.53,2.32,2.53,4.4,2.59,6,.06,1.6-2.53,4.48-2.53,4.48l.06,1.98s-.28.35-2.11,3.86c-2.29,4.4-1.93,16.49.78,25.78,2.71,9.29,8.85,20.17,8.85,20.17v3.36s1.08,1.12,2.05,2.64c.96,1.52.06,4.8-.54,5.84-.6,1.04-2.65,1.84-3.43,2.32-.78.48-.96,2.64-1.26,3.76s-1.57,2.08-3.49,2.96-3.13,1.84-3.61,3.44.57,4.85.57,4.85h-24.9V29.01s-4.41-.85-6.11-2.63c-1.7-1.78-3.09-6.73-3.09-6.73L404.56,0,125.34,19.65s-1.39,4.95-3.09,6.73c-1.7,1.78-6.11,2.63-6.11,2.63v260.13h-25.72s1.06-3.25.57-4.85-1.69-2.56-3.61-3.44-3.19-1.84-3.49-2.96c-.3-1.12-.48-3.28-1.26-3.76-.78-.48-2.83-1.28-3.43-2.32-.6-1.04-1.51-4.32-.54-5.84.96-1.52,2.05-2.64,2.05-2.64v-3.36s6.14-10.89,8.85-20.17c2.71-9.29,3.07-21.37.78-25.78-1.82-3.51-2.08-3.86-2.11-3.86l.06-1.98s-2.59-2.88-2.53-4.48c.06-1.6.06-3.68,2.59-6,0,0,.36-2.08-.06-3.12-.42-1.04-.78-1.6-.78-1.6h-49.39s-.36.56-.78,1.6c-.42,1.04-.06,3.12-.06,3.12,2.53,2.32,2.53,4.4,2.59,6s-2.53,4.48-2.53,4.48l.06,1.98s-.28.35-2.11,3.86c-2.29,4.4-1.93,16.49.78,25.78,2.71,9.29,8.85,20.17,8.85,20.17v3.36s1.08,1.12,2.05,2.64c.96,1.52.06,4.8-.54,5.84-.6,1.04-2.65,1.84-3.43,2.32s-.96,2.64-1.26,3.76c-.3,1.12-1.57,2.08-3.49,2.96-1.93.88-3.13,1.84-3.61,3.44-.48,1.6.57,4.85.57,4.85H0v23.83h809.12v-23.83h-36Z"/>
  </g>
</svg>