<?xml version="1.0" encoding="UTF-8"?>
<svg id="Layer_1" xmlns="http://www.w3.org/2000/svg" version="1.1" viewBox="0 0 811.12 314.97">
  <!-- Generator: Adobe Illustrator 30.0.0, SVG Export Plug-In . SVG Version: 2.1.1 Build 123)  -->
  <path d="M786.84,289.14c.39-1.24.75-2.99.26-4.22-.88-2.2-3.12-3.23-5.4-4.01l-.16-.05h-.03c-3.03-1.06-3.72-1.89-3.87-2.3-.09-.26-.18-.59-.27-.94-.33-1.26-.73-2.83-1.94-3.39-.27-.13-.66-.28-1.09-.44-.93-.36-2.66-1.02-3.09-1.58-.66-.85-1.59-3.59-.75-4.59,1.19-1.42,2.56-2.48,2.57-2.5l.39-.3v-3.52c1.31-1.77,8.36-11.54,11.7-20.14,3.77-9.74,4.2-21.97.93-26.71-1.4-2.03-2.14-3.1-2.61-3.66l.08-2.06-.38-.32c-1.6-1.34-3.03-3.09-3-3.66v-.15c.08-1.46.16-3.11,3.01-5.08l.32-.22.09-.38c.09-.41.53-2.51-.17-3.82-.6-1.12-1.14-1.75-1.16-1.78l-.3-.35h-66.56l-.3.35s-.56.65-1.16,1.78c-.7,1.31-.27,3.41-.17,3.82l.09.38.32.22c2.85,1.97,2.93,3.62,3,5.08v.15c.04.58-1.4,2.32-3,3.66l-.38.32.08,2.08c-.5.62-1.41,1.89-2.61,3.64-3.22,4.65-2.78,17.14.93,26.71,3.34,8.61,10.39,18.37,11.7,20.14v3.52l.39.3s1.38,1.08,2.57,2.5c.84,1-.09,3.73-.75,4.59-.43.56-2.16,1.22-3.09,1.58-.44.17-.82.32-1.09.44-1.2.56-1.61,2.13-1.94,3.39-.09.35-.17.68-.27.94-.15.41-.86,1.26-4.02,2.35-2.29.79-4.52,1.82-5.4,4.01-.49,1.23-.13,2.98.26,4.22h-15.58V29.01h-.88c-1.2-.24-4.31-1.08-5.49-2.32l-.15-.16c-1.2-1.43-2.35-4.89-2.71-6.15l-.19-.68L405.63,0h-.07S126.27,19.65,126.27,19.65l-.7.05-.19.68c-.37,1.31-1.6,5-2.85,6.31-1.19,1.24-4.29,2.08-5.49,2.32h-.9v260.13h-16.17c.39-1.24.75-2.99.26-4.22-.88-2.2-3.12-3.23-5.4-4.01l-.16-.05h-.02c-3.03-1.06-3.72-1.89-3.87-2.3-.09-.26-.18-.59-.27-.94-.33-1.26-.73-2.84-1.94-3.39-.27-.13-.66-.27-1.09-.44-.93-.36-2.66-1.02-3.09-1.58-.66-.85-1.59-3.59-.75-4.59,1.19-1.42,2.56-2.48,2.57-2.5l.39-.3v-3.52c1.31-1.77,8.36-11.54,11.7-20.14,3.77-9.74,4.2-21.97.93-26.71-1.4-2.03-2.14-3.1-2.61-3.66l.08-2.06-.38-.32c-1.6-1.34-3.03-3.09-3-3.66v-.15c.08-1.46.16-3.11,3.01-5.08l.32-.22.09-.38c.09-.41.53-2.51-.17-3.82-.6-1.12-1.14-1.75-1.16-1.78l-.3-.35H28.53l-.3.35s-.56.65-1.16,1.78c-.7,1.31-.27,3.41-.17,3.82l.09.38.32.22c2.85,1.97,2.93,3.62,3,5.08v.15c.04.58-1.4,2.32-3,3.66l-.38.32.08,2.08c-.49.62-1.4,1.89-2.61,3.64-3.21,4.65-2.78,17.13.93,26.71,3.34,8.61,10.39,18.37,11.7,20.14v3.52s.39.3.39.3c.01.01,1.38,1.08,2.57,2.5.84,1-.09,3.73-.75,4.59-.43.56-2.16,1.22-3.09,1.58-.44.17-.82.32-1.09.44-1.2.56-1.61,2.13-1.93,3.39-.09.35-.17.68-.27.94-.15.41-.87,1.26-4.02,2.35-2.29.79-4.52,1.82-5.4,4.01-.49,1.23-.13,2.98.26,4.22H0v25.83h811.12v-25.83h-24.28Z"/>
</svg>