999
dxfrw 0.6.3
  0
SECTION
  2
HEADER
  9
$ACADVER
  1
AC1021
  9
$DWGCODEPAGE
  3
ANSI_1252
  9
$INSBASE
 10
0
 20
0
 30
0
  9
$EXTMIN
 10
-44.78615784527582
 20
-13.17523824543136
 30
0
  9
$EXTMAX
 10
40.636839
 20
20.36221
 30
0
  9
$LIMMIN
 10
0
 20
0
  9
$LIMMAX
 10
420
 20
297
  9
$ORTHOMODE
 70
    0
  9
$REGENMODE
 70
    1
  9
$FILLMODE
 70
    1
  9
$QTEXTMODE
 70
    0
  9
$MIRRTEXT
 70
    0
  9
$LTSCALE
 40
100
  9
$ATTMODE
 70
    0
  9
$TEXTSIZE
 40
2.5
  9
$TRACEWID
 40
15.68
  9
$TEXTSTYLE
  7
STANDARD
  9
$CLAYER
  8
0
  9
$CELTYPE
  6
BYLAYER
  9
$CECOLOR
 62
  256
  9
$CELTSCALE
 40
1
  9
$DISPSILH
 70
    0
  9
$DIMSCALE
 40
2.5
  9
$DIMASZ
 40
0.1
  9
$DIMEXO
 40
0.025
  9
$DIMDLI
 40
3.75
  9
$DIMRND
 40
0
  9
$DIMDLE
 40
0
  9
$DIMEXE
 40
0.05
  9
$DIMTP
 40
0
  9
$DIMTM
 40
0
  9
$DIMTXT
 40
0.1
  9
$DIMCEN
 40
2.5
  9
$DIMTSZ
 40
0
  9
$DIMTOL
 70
    0
  9
$DIMLIM
 70
    0
  9
$DIMTIH
 70
    0
  9
$DIMTOH
 70
    0
  9
$DIMSE1
 70
    0
  9
$DIMSE2
 70
    0
  9
$DIMTAD
 70
    1
  9
$DIMZIN
 70
    8
  9
$DIMBLK
  1

  9
$DIMASO
 70
    1
  9
$DIMSHO
 70
    1
  9
$DIMPOST
  1

  9
$DIMAPOST
  1

  9
$DIMALT
 70
    0
  9
$DIMALTD
 70
    3
  9
$DIMALTF
 40
0.03937
  9
$DIMLFAC
 40
1
  9
$DIMTOFL
 70
    1
  9
$DIMTVP
 40
0
  9
$DIMTIX
 70
    0
  9
$DIMSOXD
 70
    0
  9
$DIMSAH
 70
    0
  9
$DIMBLK1
  1

  9
$DIMBLK2
  1

  9
$DIMSTYLE
  2
Standard
  9
$DIMCLRD
 70
    0
  9
$DIMCLRE
 70
    0
  9
$DIMCLRT
 70
    0
  9
$DIMTFAC
 40
1
  9
$DIMGAP
 40
0.025
  9
$DIMJUST
 70
    0
  9
$DIMSD1
 70
    0
  9
$DIMSD2
 70
    0
  9
$DIMTOLJ
 70
    0
  9
$DIMTZIN
 70
    8
  9
$DIMALTZ
 70
    0
  9
$DIMALTTZ
 70
    0
  9
$DIMUPT
 70
    0
  9
$DIMDEC
 70
    2
  9
$DIMTDEC
 70
    2
  9
$DIMALTU
 70
    2
  9
$DIMALTTD
 70
    3
  9
$DIMTXSTY
  7
STANDARD
  9
$DIMAUNIT
 70
    0
  9
$DIMADEC
 70
    0
  9
$DIMALTRND
 40
0
  9
$DIMAZIN
 70
    0
  9
$DIMDSEP
 70
   44
  9
$DIMATFIT
 70
    3
  9
$DIMFRAC
 70
    0
  9
$DIMLDRBLK
  1
STANDARD
  9
$DIMLUNIT
 70
    2
  9
$DIMLWD
 70
   -2
  9
$DIMLWE
 70
   -2
  9
$DIMTMOVE
 70
    0
  9
$DIMFXL
 40
1
  9
$DIMFXLON
 70
    0
  9
$DIMJOGANG
 40
0.7854
  9
$DIMTFILL
 70
    0
  9
$DIMTFILLCLR
 70
    0
  9
$DIMARCSYM
 70
    0
  9
$DIMLTYPE
  6

  9
$DIMLTEX1
  6

  9
$DIMLTEX2
  6

  9
$LUNITS
 70
    2
  9
$LUPREC
 70
    4
  9
$SKETCHINC
 40
1
  9
$FILLETRAD
 40
0
  9
$AUNITS
 70
    0
  9
$AUPREC
 70
    2
  9
$MENU
  1
.
  9
$ELEVATION
 40
0
  9
$PELEVATION
 40
0
  9
$THICKNESS
 40
0
  9
$LIMCHECK
 70
    0
  9
$CHAMFERA
 40
0
  9
$CHAMFERB
 40
0
  9
$CHAMFERC
 40
0
  9
$CHAMFERD
 40
0
  9
$SKPOLY
 70
    0
  9
$USRTIMER
 70
    1
  9
$ANGBASE
 50
0
  9
$ANGDIR
 70
    0
  9
$PDMODE
 70
   35
  9
$PDSIZE
 40
80
  9
$PLINEWID
 40
0
  9
$SPLFRAME
 70
    0
  9
$SPLINETYPE
 70
    2
  9
$SPLINESEGS
 70
    8
  9
$HANDSEED
  5
20000
  9
$SURFTAB1
 70
    6
  9
$SURFTAB2
 70
    6
  9
$SURFTYPE
 70
    6
  9
$SURFU
 70
    6
  9
$SURFV
 70
    6
  9
$UCSBASE
  2

  9
$UCSNAME
  2

  9
$UCSORG
 10
0
 20
0
 30
0
  9
$UCSXDIR
 10
1
 20
0
 30
0
  9
$UCSYDIR
 10
0
 20
1
 30
0
  9
$UCSORTHOREF
  2

  9
$UCSORTHOVIEW
 70
    0
  9
$UCSORGTOP
 10
0
 20
0
 30
0
  9
$UCSORGBOTTOM
 10
0
 20
0
 30
0
  9
$UCSORGLEFT
 10
0
 20
0
 30
0
  9
$UCSORGRIGHT
 10
0
 20
0
 30
0
  9
$UCSORGFRONT
 10
0
 20
0
 30
0
  9
$UCSORGBACK
 10
0
 20
0
 30
0
  9
$PUCSBASE
  2

  9
$PUCSNAME
  2

  9
$PUCSORG
 10
0
 20
0
 30
0
  9
$PUCSXDIR
 10
1
 20
0
 30
0
  9
$PUCSYDIR
 10
0
 20
1
 30
0
  9
$PUCSORTHOREF
  2

  9
$PUCSORTHOVIEW
 70
    0
  9
$PUCSORGTOP
 10
0
 20
0
 30
0
  9
$PUCSORGBOTTOM
 10
0
 20
0
 30
0
  9
$PUCSORGLEFT
 10
0
 20
0
 30
0
  9
$PUCSORGRIGHT
 10
0
 20
0
 30
0
  9
$PUCSORGFRONT
 10
0
 20
0
 30
0
  9
$PUCSORGBACK
 10
0
 20
0
 30
0
  9
$USERI1
 70
    0
  9
$USERI2
 70
    0
  9
$USERI3
 70
    0
  9
$USERI4
 70
    0
  9
$USERI5
 70
    0
  9
$USERR1
 40
0
  9
$USERR2
 40
0
  9
$USERR3
 40
0
  9
$USERR4
 40
0
  9
$USERR5
 40
0
  9
$WORLDVIEW
 70
    1
  9
$SHADEDGE
 70
    3
  9
$SHADEDIF
 70
   70
  9
$TILEMODE
 70
    1
  9
$MAXACTVP
 70
   64
  9
$PINSBASE
 10
0
 20
0
 30
0
  9
$PLIMCHECK
 70
    0
  9
$PEXTMIN
 10
0
 20
0
 30
0
  9
$PEXTMAX
 10
0
 20
0
 30
0
  9
$SNAPSTYLE
 70
    0
  9
$PLIMMIN
 10
0
 20
0
  9
$PLIMMAX
 10
0.0005045270181060545
 20
0.0007135453541785627
  9
$UNITMODE
 70
    0
  9
$VISRETAIN
 70
    1
  9
$PLINEGEN
 70
    0
  9
$PSLTSCALE
 70
    1
  9
$TREEDEPTH
 70
 3020
  9
$CMLSTYLE
  2
Standard
  9
$CMLJUST
 70
    0
  9
$CMLSCALE
 40
20
  9
$PROXYGRAPHICS
 70
    1
  9
$MEASUREMENT
 70
    0
  9
$CELWEIGHT
370
   -1
  9
$ENDCAPS
280
    0
  9
$JOINSTYLE
280
    0
  9
$LWDISPLAY
290
    0
  9
$INSUNITS
 70
    1
  9
$HYPERLINKBASE
  1

  9
$STYLESHEET
  1

  9
$XEDIT
290
    1
  9
$CEPSNTYPE
380
    0
  9
$PSTYLEMODE
290
    1
  9
$EXTNAMES
290
    1
  9
$PSVPSCALE
 40
1
  9
$OLESTARTUP
290
    0
  9
$SORTENTS
280
  127
  9
$INDEXCTL
280
    0
  9
$HIDETEXT
280
    1
  9
$XCLIPFRAME
290
    0
  9
$HALOGAP
280
    0
  9
$OBSCOLOR
 70
  257
  9
$OBSLTYPE
280
    0
  9
$INTERSECTIONDISPLAY
280
    0
  9
$INTERSECTIONCOLOR
 70
  257
  9
$DIMASSOC
280
    1
  9
$PROJECTNAME
  1

  9
$CAMERADISPLAY
290
    0
  9
$LENSLENGTH
 40
50
  9
$CAMERAHEIGHT
 40
0
  9
$STEPSPERSEC
 40
2
  9
$STEPSIZE
 40
50
  9
$3DDWFPREC
 40
2
  9
$PSOLWIDTH
 40
5
  9
$PSOLHEIGHT
 40
80
  9
$LOFTANG1
 40
1.570796326794897
  9
$LOFTANG2
 40
1.570796326794897
  9
$LOFTMAG1
 40
0
  9
$LOFTMAG2
 40
0
  9
$LOFTPARAM
 70
    7
  9
$LOFTNORMALS
280
    1
  9
$LATITUDE
 40
1
  9
$LONGITUDE
 40
1
  9
$NORTHDIRECTION
 40
0
  9
$TIMEZONE
 70
-8000
  9
$LIGHTGLYPHDISPLAY
280
    1
  9
$TILEMODELIGHTSYNCH
280
    1
  9
$SOLIDHIST
280
    1
  9
$SHOWHIST
280
    1
  9
$DWFFRAME
280
    2
  9
$DGNFRAME
280
    0
  9
$REALWORLDSCALE
290
    1
  9
$INTERFERECOLOR
 62
    1
  9
$CSHADOW
280
    0
  9
$SHADOWPLANELOCATION
 40
0
  0
ENDSEC
  0
SECTION
  2
CLASSES
  0
ENDSEC
  0
SECTION
  2
TABLES
  0
TABLE
  2
VPORT
  5
8
330
0
100
AcDbSymbolTable
 70
    1
  0
VPORT
  5
31
330
2
100
AcDbSymbolTableRecord
100
AcDbViewportTableRecord
  2
*ACTIVE
 70
    0
 10
0
 20
0
 11
1
 21
1
 12
73.78129755599871
 22
54.44310622491049
 13
0
 23
0
 14
10
 24
10
 15
10
 25
10
 16
0
 26
0
 36
1
 17
0
 27
0
 37
0
 40
128.3986217208289
 41
1.621438263229308
 42
50
 43
0
 44
0
 50
0
 51
0
 71
    0
 72
  100
 73
    1
 74
    3
 75
    0
 76
    1
 77
    0
 78
    0
281
    0
 65
    1
110
0
120
0
130
0
111
1
121
0
131
0
112
0
122
1
132
0
 79
    0
146
0
348
10020
 60
    7
 61
    5
292
1
282
    1
141
0
142
0
 63
  250
421
3358443
  0
ENDTAB
  0
TABLE
  2
LTYPE
  5
5
330
0
100
AcDbSymbolTable
 70
    4
  0
LTYPE
  5
14
330
5
100
AcDbSymbolTableRecord
100
AcDbLinetypeTableRecord
  2
ByBlock
 70
    0
  3

 72
   65
 73
    0
 40
0
  0
LTYPE
  5
15
330
5
100
AcDbSymbolTableRecord
100
AcDbLinetypeTableRecord
  2
ByLayer
 70
    0
  3

 72
   65
 73
    0
 40
0
  0
LTYPE
  5
16
330
5
100
AcDbSymbolTableRecord
100
AcDbLinetypeTableRecord
  2
Continuous
 70
    0
  3
Solid line
 72
   65
 73
    0
 40
0
  0
LTYPE
  5
32
330
5
100
AcDbSymbolTableRecord
100
AcDbLinetypeTableRecord
  2
DOT
 70
    0
  3
Dot . . . . . . . . . . . . . . . . . . . . . .
 72
   65
 73
    2
 40
6.35
 49
0
 74
    0
 49
-6.35
 74
    0
  0
LTYPE
  5
33
330
5
100
AcDbSymbolTableRecord
100
AcDbLinetypeTableRecord
  2
DOTTINY
 70
    0
  3
Dot (.15x) .....................................
 72
   65
 73
    2
 40
0.9525
 49
0
 74
    0
 49
-0.9525
 74
    0
  0
LTYPE
  5
34
330
5
100
AcDbSymbolTableRecord
100
AcDbLinetypeTableRecord
  2
DOT2
 70
    0
  3
Dot (.5x) .....................................
 72
   65
 73
    2
 40
3.175
 49
0
 74
    0
 49
-3.175
 74
    0
  0
LTYPE
  5
35
330
5
100
AcDbSymbolTableRecord
100
AcDbLinetypeTableRecord
  2
DOTX2
 70
    0
  3
Dot (2x) .  .  .  .  .  .  .  .  .  .  .  .  .
 72
   65
 73
    2
 40
12.7
 49
0
 74
    0
 49
-12.7
 74
    0
  0
LTYPE
  5
36
330
5
100
AcDbSymbolTableRecord
100
AcDbLinetypeTableRecord
  2
DASHED
 70
    0
  3
Dashed _ _ _ _ _ _ _ _ _ _ _ _ _ _ _ _ _
 72
   65
 73
    2
 40
19.05
 49
12.7
 74
    0
 49
-6.35
 74
    0
  0
LTYPE
  5
37
330
5
100
AcDbSymbolTableRecord
100
AcDbLinetypeTableRecord
  2
DASHEDTINY
 70
    0
  3
Dashed (.15x) _ _ _ _ _ _ _ _ _ _ _ _ _ _ _ _ _
 72
   65
 73
    2
 40
2.8575
 49
1.905
 74
    0
 49
-0.9525
 74
    0
  0
LTYPE
  5
38
330
5
100
AcDbSymbolTableRecord
100
AcDbLinetypeTableRecord
  2
DASHED2
 70
    0
  3
Dashed (.5x) _ _ _ _ _ _ _ _ _ _ _ _ _ _ _ _ _
 72
   65
 73
    2
 40
9.524999999999999
 49
6.35
 74
    0
 49
-3.175
 74
    0
  0
LTYPE
  5
39
330
5
100
AcDbSymbolTableRecord
100
AcDbLinetypeTableRecord
  2
DASHEDX2
 70
    0
  3
Dashed (2x) ____  ____  ____  ____  ____  ___
 72
   65
 73
    2
 40
38.09999999999999
 49
25.4
 74
    0
 49
-12.7
 74
    0
  0
LTYPE
  5
3A
330
5
100
AcDbSymbolTableRecord
100
AcDbLinetypeTableRecord
  2
DASHDOT
 70
    0
  3
Dash dot __ . __ . __ . __ . __ . __ . __ . __
 72
   65
 73
    4
 40
25.4
 49
12.7
 74
    0
 49
-6.35
 74
    0
 49
0
 74
    0
 49
-6.35
 74
    0
  0
LTYPE
  5
3B
330
5
100
AcDbSymbolTableRecord
100
AcDbLinetypeTableRecord
  2
DASHDOTTINY
 70
    0
  3
Dash dot (.15x) _._._._._._._._._._._._._._._.
 72
   65
 73
    4
 40
3.81
 49
1.905
 74
    0
 49
-0.9525
 74
    0
 49
0
 74
    0
 49
-0.9525
 74
    0
  0
LTYPE
  5
3C
330
5
100
AcDbSymbolTableRecord
100
AcDbLinetypeTableRecord
  2
DASHDOT2
 70
    0
  3
Dash dot (.5x) _._._._._._._._._._._._._._._.
 72
   65
 73
    4
 40
12.7
 49
6.35
 74
    0
 49
-3.175
 74
    0
 49
0
 74
    0
 49
-3.175
 74
    0
  0
LTYPE
  5
3D
330
5
100
AcDbSymbolTableRecord
100
AcDbLinetypeTableRecord
  2
DASHDOTX2
 70
    0
  3
Dash dot (2x) ____  .  ____  .  ____  .  ___
 72
   65
 73
    4
 40
50.8
 49
25.4
 74
    0
 49
-12.7
 74
    0
 49
0
 74
    0
 49
-12.7
 74
    0
  0
LTYPE
  5
3E
330
5
100
AcDbSymbolTableRecord
100
AcDbLinetypeTableRecord
  2
DIVIDE
 70
    0
  3
Divide ____ . . ____ . . ____ . . ____ . . ____
 72
   65
 73
    6
 40
31.75
 49
12.7
 74
    0
 49
-6.35
 74
    0
 49
0
 74
    0
 49
-6.35
 74
    0
 49
0
 74
    0
 49
-6.35
 74
    0
  0
LTYPE
  5
3F
330
5
100
AcDbSymbolTableRecord
100
AcDbLinetypeTableRecord
  2
DIVIDETINY
 70
    0
  3
Divide (.15x) __..__..__..__..__..__..__..__.._
 72
   65
 73
    6
 40
4.7625
 49
1.905
 74
    0
 49
-0.9525
 74
    0
 49
0
 74
    0
 49
-0.9525
 74
    0
 49
0
 74
    0
 49
-0.9525
 74
    0
  0
LTYPE
  5
40
330
5
100
AcDbSymbolTableRecord
100
AcDbLinetypeTableRecord
  2
DIVIDE2
 70
    0
  3
Divide (.5x) __..__..__..__..__..__..__..__.._
 72
   65
 73
    6
 40
15.875
 49
6.35
 74
    0
 49
-3.175
 74
    0
 49
0
 74
    0
 49
-3.175
 74
    0
 49
0
 74
    0
 49
-3.175
 74
    0
  0
LTYPE
  5
41
330
5
100
AcDbSymbolTableRecord
100
AcDbLinetypeTableRecord
  2
DIVIDEX2
 70
    0
  3
Divide (2x) ________  .  .  ________  .  .  _
 72
   65
 73
    6
 40
63.5
 49
25.4
 74
    0
 49
-12.7
 74
    0
 49
0
 74
    0
 49
-12.7
 74
    0
 49
0
 74
    0
 49
-12.7
 74
    0
  0
LTYPE
  5
42
330
5
100
AcDbSymbolTableRecord
100
AcDbLinetypeTableRecord
  2
BORDER
 70
    0
  3
Border __ __ . __ __ . __ __ . __ __ . __ __ .
 72
   65
 73
    6
 40
44.45
 49
12.7
 74
    0
 49
-6.35
 74
    0
 49
12.7
 74
    0
 49
-6.35
 74
    0
 49
0
 74
    0
 49
-6.35
 74
    0
  0
LTYPE
  5
43
330
5
100
AcDbSymbolTableRecord
100
AcDbLinetypeTableRecord
  2
BORDERTINY
 70
    0
  3
Border (.15x) __.__.__.__.__.__.__.__.__.__.__.
 72
   65
 73
    6
 40
6.6675
 49
1.905
 74
    0
 49
-0.9525
 74
    0
 49
1.905
 74
    0
 49
-0.9525
 74
    0
 49
0
 74
    0
 49
-0.9525
 74
    0
  0
LTYPE
  5
44
330
5
100
AcDbSymbolTableRecord
100
AcDbLinetypeTableRecord
  2
BORDER2
 70
    0
  3
Border (.5x) __.__.__.__.__.__.__.__.__.__.__.
 72
   65
 73
    6
 40
22.225
 49
6.35
 74
    0
 49
-3.175
 74
    0
 49
6.35
 74
    0
 49
-3.175
 74
    0
 49
0
 74
    0
 49
-3.175
 74
    0
  0
LTYPE
  5
45
330
5
100
AcDbSymbolTableRecord
100
AcDbLinetypeTableRecord
  2
BORDERX2
 70
    0
  3
Border (2x) ____  ____  .  ____  ____  .  ___
 72
   65
 73
    6
 40
88.89999999999999
 49
25.4
 74
    0
 49
-12.7
 74
    0
 49
25.4
 74
    0
 49
-12.7
 74
    0
 49
0
 74
    0
 49
-12.7
 74
    0
  0
LTYPE
  5
46
330
5
100
AcDbSymbolTableRecord
100
AcDbLinetypeTableRecord
  2
CENTER
 70
    0
  3
Center ____ _ ____ _ ____ _ ____ _ ____ _ ____
 72
   65
 73
    4
 40
50.8
 49
31.75
 74
    0
 49
-6.35
 74
    0
 49
6.35
 74
    0
 49
-6.35
 74
    0
  0
LTYPE
  5
47
330
5
100
AcDbSymbolTableRecord
100
AcDbLinetypeTableRecord
  2
CENTERTINY
 70
    0
  3
Center (.15x) ___ _ ___ _ ___ _ ___ _ ___ _ ___
 72
   65
 73
    4
 40
7.619999999999999
 49
4.7625
 74
    0
 49
-0.9525
 74
    0
 49
0.9525
 74
    0
 49
-0.9525
 74
    0
  0
LTYPE
  5
48
330
5
100
AcDbSymbolTableRecord
100
AcDbLinetypeTableRecord
  2
CENTER2
 70
    0
  3
Center (.5x) ___ _ ___ _ ___ _ ___ _ ___ _ ___
 72
   65
 73
    4
 40
28.575
 49
19.05
 74
    0
 49
-3.175
 74
    0
 49
3.175
 74
    0
 49
-3.175
 74
    0
  0
LTYPE
  5
49
330
5
100
AcDbSymbolTableRecord
100
AcDbLinetypeTableRecord
  2
CENTERX2
 70
    0
  3
Center (2x) ________  __  ________  __  _____
 72
   65
 73
    4
 40
101.6
 49
63.5
 74
    0
 49
-12.7
 74
    0
 49
12.7
 74
    0
 49
-12.7
 74
    0
  0
ENDTAB
  0
TABLE
  2
LAYER
  5
2
330
0
100
AcDbSymbolTable
 70
    1
  0
LAYER
  5
10
330
2
100
AcDbSymbolTableRecord
100
AcDbLayerTableRecord
  2
0
 70
    0
 62
    7
  6
CONTINUOUS
370
   25
390
F
  0
LAYER
  5
4A
330
2
100
AcDbSymbolTableRecord
100
AcDbLayerTableRecord
  2
BLACK
 70
    0
 62
    7
  6
CONTINUOUS
370
   -3
390
F
  0
ENDTAB
  0
TABLE
  2
STYLE
  5
3
330
0
100
AcDbSymbolTable
 70
    3
  0
STYLE
  5
4B
330
2
100
AcDbSymbolTableRecord
100
AcDbTextStyleTableRecord
  2
Standard
 70
    0
 40
0
 41
1
 50
0
 71
    0
 42
1
  3
txt
  4

  0
ENDTAB
  0
TABLE
  2
VIEW
  5
6
330
0
100
AcDbSymbolTable
 70
    0
  0
ENDTAB
  0
TABLE
  2
UCS
  5
7
330
0
100
AcDbSymbolTable
 70
    0
  0
ENDTAB
  0
TABLE
  2
APPID
  5
9
330
0
100
AcDbSymbolTable
 70
    1
  0
APPID
  5
12
330
9
100
AcDbSymbolTableRecord
100
AcDbRegAppTableRecord
  2
ACAD
 70
    0
  0
APPID
  5
4C
330
9
100
AcDbSymbolTableRecord
100
AcDbRegAppTableRecord
  2
LibreCad
 70
    0
  0
ENDTAB
  0
TABLE
  2
DIMSTYLE
  5
A
330
0
100
AcDbSymbolTable
 70
    1
100
AcDbDimStyleTable
 71
    1
  0
DIMSTYLE
105
4D
330
A
100
AcDbSymbolTableRecord
100
AcDbDimStyleTableRecord
  2
Standard
 70
    0
 40
1
 41
0.1
 42
0.025
 43
0.38
 44
0.05
 45
0
 46
0
 47
0
 48
0
 49
1
140
0.1
141
0.09
142
2.5
143
25.4
144
1
145
0
146
1
147
0.025
148
0
 71
    0
 72
    0
 73
    0
 74
    1
 75
    0
 76
    0
 77
    0
 78
    1
 79
    0
170
    0
171
    2
172
    0
173
    0
174
    0
175
    0
176
    0
177
    0
178
    0
179
    0
271
    2
272
    4
273
    2
274
    2
275
    0
276
    0
277
    2
278
    0
279
    0
280
    0
281
    0
282
    0
283
    1
284
    0
285
    0
286
    0
288
    0
289
    3
340
4B
  0
ENDTAB
  0
TABLE
  2
BLOCK_RECORD
  5
1
330
0
100
AcDbSymbolTable
 70
    2
  0
BLOCK_RECORD
  5
1F
330
1
100
AcDbSymbolTableRecord
100
AcDbBlockTableRecord
  2
*Model_Space
 70
    0
280
    1
281
    0
  0
BLOCK_RECORD
  5
1E
330
1
100
AcDbSymbolTableRecord
100
AcDbBlockTableRecord
  2
*Paper_Space
 70
    0
280
    1
281
    0
  0
ENDTAB
  0
ENDSEC
  0
SECTION
  2
BLOCKS
  0
BLOCK
  5
20
330
1F
100
AcDbEntity
  8
0
100
AcDbBlockBegin
  2
*Model_Space
 70
    0
 10
0
 20
0
 30
0
  3
*Model_Space
  1

  0
ENDBLK
  5
21
330
1F
100
AcDbEntity
  8
0
100
AcDbBlockEnd
  0
BLOCK
  5
1C
330
1B
100
AcDbEntity
  8
0
100
AcDbBlockBegin
  2
*Paper_Space
 70
    0
 10
0
 20
0
 30
0
  3
*Paper_Space
  1

  0
ENDBLK
  5
1D
330
1F
100
AcDbEntity
  8
0
100
AcDbBlockEnd
  0
ENDSEC
  0
SECTION
  2
ENTITIES
  0
LWPOLYLINE
  5
4E
100
AcDbEntity
  8
BLACK
  6
ByLayer
 62
    7
370
   -1
100
AcDbPolyline
 90
    2
 70
    0
 43
0
 10
28.636839
 20
-9.637790000000001
 10
28.636839
 20
17.350672
  0
LWPOLYLINE
  5
4F
100
AcDbEntity
  8
BLACK
  6
ByLayer
 62
    7
370
   -1
100
AcDbPolyline
 90
    2
 70
    0
 43
0
 10
-31.363161
 20
-9.637790000000001
 10
-31.363161
 20
17.350672
  0
LWPOLYLINE
  5
50
100
AcDbEntity
  8
BLACK
  6
ByLayer
 62
    7
370
   -1
100
AcDbPolyline
 90
    2
 70
    0
 43
0
 10
28.636839
 20
-9.637790000000001
 10
-31.363161
 20
-9.637790000000001
  0
LWPOLYLINE
  5
51
100
AcDbEntity
  8
BLACK
  6
ByLayer
 62
    7
370
   -1
100
AcDbPolyline
 90
    2
 70
    0
 43
0
 10
-31.363161
 20
17.350672
 10
-31.266131
 20
17.401738
  0
LWPOLYLINE
  5
52
100
AcDbEntity
  8
BLACK
  6
ByLayer
 62
    7
370
   -1
100
AcDbPolyline
 90
    2
 70
    0
 43
0
 10
-31.266131
 20
17.401738
 10
-31.170913
 20
17.459261
  0
LWPOLYLINE
  5
53
100
AcDbEntity
  8
BLACK
  6
ByLayer
 62
    7
370
   -1
100
AcDbPolyline
 90
    2
 70
    0
 43
0
 10
-31.170913
 20
17.459261
 10
-31.077719
 20
17.523111
  0
LWPOLYLINE
  5
54
100
AcDbEntity
  8
BLACK
  6
ByLayer
 62
    7
370
   -1
100
AcDbPolyline
 90
    2
 70
    0
 43
0
 10
-31.077719
 20
17.523111
 10
-30.986759
 20
17.593146
  0
LWPOLYLINE
  5
55
100
AcDbEntity
  8
BLACK
  6
ByLayer
 62
    7
370
   -1
100
AcDbPolyline
 90
    2
 70
    0
 43
0
 10
-30.986759
 20
17.593146
 10
-30.898235
 20
17.669209
  0
LWPOLYLINE
  5
56
100
AcDbEntity
  8
BLACK
  6
ByLayer
 62
    7
370
   -1
100
AcDbPolyline
 90
    2
 70
    0
 43
0
 10
-30.898235
 20
17.669209
 10
-30.812347
 20
17.751129
  0
LWPOLYLINE
  5
57
100
AcDbEntity
  8
BLACK
  6
ByLayer
 62
    7
370
   -1
100
AcDbPolyline
 90
    2
 70
    0
 43
0
 10
-30.812347
 20
17.751129
 10
-30.729286
 20
17.838723
  0
LWPOLYLINE
  5
58
100
AcDbEntity
  8
BLACK
  6
ByLayer
 62
    7
370
   -1
100
AcDbPolyline
 90
    2
 70
    0
 43
0
 10
-30.729286
 20
17.838723
 10
-30.649239
 20
17.931795
  0
LWPOLYLINE
  5
59
100
AcDbEntity
  8
BLACK
  6
ByLayer
 62
    7
370
   -1
100
AcDbPolyline
 90
    2
 70
    0
 43
0
 10
-30.649239
 20
17.931795
 10
-30.572384
 20
18.030136
  0
LWPOLYLINE
  5
5A
100
AcDbEntity
  8
BLACK
  6
ByLayer
 62
    7
370
   -1
100
AcDbPolyline
 90
    2
 70
    0
 43
0
 10
-30.572384
 20
18.030136
 10
-30.498895
 20
18.133527
  0
LWPOLYLINE
  5
5B
100
AcDbEntity
  8
BLACK
  6
ByLayer
 62
    7
370
   -1
100
AcDbPolyline
 90
    2
 70
    0
 43
0
 10
-30.498895
 20
18.133527
 10
-30.428935
 20
18.241735
  0
LWPOLYLINE
  5
5C
100
AcDbEntity
  8
BLACK
  6
ByLayer
 62
    7
370
   -1
100
AcDbPolyline
 90
    2
 70
    0
 43
0
 10
-30.428935
 20
18.241735
 10
-30.362661
 20
18.354518
  0
LWPOLYLINE
  5
5D
100
AcDbEntity
  8
BLACK
  6
ByLayer
 62
    7
370
   -1
100
AcDbPolyline
 90
    2
 70
    0
 43
0
 10
28.53981
 20
17.401738
 10
28.636839
 20
17.350672
  0
LWPOLYLINE
  5
5E
100
AcDbEntity
  8
BLACK
  6
ByLayer
 62
    7
370
   -1
100
AcDbPolyline
 90
    2
 70
    0
 43
0
 10
28.444591
 20
17.459261
 10
28.53981
 20
17.401738
  0
LWPOLYLINE
  5
5F
100
AcDbEntity
  8
BLACK
  6
ByLayer
 62
    7
370
   -1
100
AcDbPolyline
 90
    2
 70
    0
 43
0
 10
28.351398
 20
17.523111
 10
28.444591
 20
17.459261
  0
LWPOLYLINE
  5
60
100
AcDbEntity
  8
BLACK
  6
ByLayer
 62
    7
370
   -1
100
AcDbPolyline
 90
    2
 70
    0
 43
0
 10
28.260437
 20
17.593146
 10
28.351398
 20
17.523111
  0
LWPOLYLINE
  5
61
100
AcDbEntity
  8
BLACK
  6
ByLayer
 62
    7
370
   -1
100
AcDbPolyline
 90
    2
 70
    0
 43
0
 10
28.171913
 20
17.669209
 10
28.260437
 20
17.593146
  0
LWPOLYLINE
  5
62
100
AcDbEntity
  8
BLACK
  6
ByLayer
 62
    7
370
   -1
100
AcDbPolyline
 90
    2
 70
    0
 43
0
 10
28.086025
 20
17.751129
 10
28.171913
 20
17.669209
  0
LWPOLYLINE
  5
63
100
AcDbEntity
  8
BLACK
  6
ByLayer
 62
    7
370
   -1
100
AcDbPolyline
 90
    2
 70
    0
 43
0
 10
28.002964
 20
17.838723
 10
28.086025
 20
17.751129
  0
LWPOLYLINE
  5
64
100
AcDbEntity
  8
BLACK
  6
ByLayer
 62
    7
370
   -1
100
AcDbPolyline
 90
    2
 70
    0
 43
0
 10
27.922917
 20
17.931795
 10
28.002964
 20
17.838723
  0
LWPOLYLINE
  5
65
100
AcDbEntity
  8
BLACK
  6
ByLayer
 62
    7
370
   -1
100
AcDbPolyline
 90
    2
 70
    0
 43
0
 10
27.846063
 20
18.030136
 10
27.922917
 20
17.931795
  0
LWPOLYLINE
  5
66
100
AcDbEntity
  8
BLACK
  6
ByLayer
 62
    7
370
   -1
100
AcDbPolyline
 90
    2
 70
    0
 43
0
 10
27.772573
 20
18.133527
 10
27.846063
 20
18.030136
  0
LWPOLYLINE
  5
67
100
AcDbEntity
  8
BLACK
  6
ByLayer
 62
    7
370
   -1
100
AcDbPolyline
 90
    2
 70
    0
 43
0
 10
27.702613
 20
18.241735
 10
27.772573
 20
18.133527
  0
LWPOLYLINE
  5
68
100
AcDbEntity
  8
BLACK
  6
ByLayer
 62
    7
370
   -1
100
AcDbPolyline
 90
    2
 70
    0
 43
0
 10
27.636339
 20
18.354518
 10
27.702613
 20
18.241735
  0
LWPOLYLINE
  5
69
100
AcDbEntity
  8
BLACK
  6
ByLayer
 62
    7
370
   -1
100
AcDbPolyline
 90
    2
 70
    0
 43
0
 10
28.636839
 20
17.350672
 10
-31.363161
 20
17.350672
  0
LWPOLYLINE
  5
6A
100
AcDbEntity
  8
BLACK
  6
ByLayer
 62
    7
370
   -1
100
AcDbPolyline
 90
    2
 70
    0
 43
0
 10
27.636339
 20
18.354518
 10
-30.362661
 20
18.354518
  0
LWPOLYLINE
  5
6B
100
AcDbEntity
  8
BLACK
  6
ByLayer
 62
    7
370
   -1
100
AcDbPolyline
 90
    2
 70
    0
 43
0
 10
27.636339
 20
18.354518
 10
-1.363161
 20
20.36221
  0
LWPOLYLINE
  5
6C
100
AcDbEntity
  8
BLACK
  6
ByLayer
 62
    7
370
   -1
100
AcDbPolyline
 90
    2
 70
    0
 43
0
 10
-1.363161
 20
20.36221
 10
-30.362661
 20
18.354518
  0
LWPOLYLINE
  5
6D
100
AcDbEntity
  8
BLACK
  6
ByLayer
 62
    7
370
   -1
100
AcDbPolyline
 90
    2
 70
    0
 43
0
 10
-41.165598
 20
-8.873333000000001
 10
-41.148396
 20
-8.848160999999999
  0
LWPOLYLINE
  5
6E
100
AcDbEntity
  8
BLACK
  6
ByLayer
 62
    7
370
   -1
100
AcDbPolyline
 90
    2
 70
    0
 43
0
 10
-33.584856
 20
-8.848160999999999
 10
-33.572357
 20
-8.873333000000001
  0
LWPOLYLINE
  5
6F
100
AcDbEntity
  8
BLACK
  6
ByLayer
 62
    7
370
   -1
100
AcDbPolyline
 90
    2
 70
    0
 43
0
 10
-33.572357
 20
-8.873333000000001
 10
-33.525488
 20
-8.99879
  0
LWPOLYLINE
  5
70
100
AcDbEntity
  8
BLACK
  6
ByLayer
 62
    7
370
   -1
100
AcDbPolyline
 90
    2
 70
    0
 43
0
 10
-41.212468
 20
-8.99879
 10
-41.165598
 20
-8.873333000000001
  0
LWPOLYLINE
  5
71
100
AcDbEntity
  8
BLACK
  6
ByLayer
 62
    7
370
   -1
100
AcDbPolyline
 90
    2
 70
    0
 43
0
 10
-33.525488
 20
-8.99879
 10
-33.498158
 20
-9.137980000000001
  0
LWPOLYLINE
  5
72
100
AcDbEntity
  8
BLACK
  6
ByLayer
 62
    7
370
   -1
100
AcDbPolyline
 90
    2
 70
    0
 43
0
 10
-41.239798
 20
-9.137980000000001
 10
-41.212468
 20
-8.99879
  0
LWPOLYLINE
  5
73
100
AcDbEntity
  8
BLACK
  6
ByLayer
 62
    7
370
   -1
100
AcDbPolyline
 90
    2
 70
    0
 43
0
 10
-33.498158
 20
-9.137980000000001
 10
-33.491943
 20
-9.290290000000001
  0
LWPOLYLINE
  5
74
100
AcDbEntity
  8
BLACK
  6
ByLayer
 62
    7
370
   -1
100
AcDbPolyline
 90
    2
 70
    0
 43
0
 10
-41.246013
 20
-9.290290000000001
 10
-41.239798
 20
-9.137980000000001
  0
LWPOLYLINE
  5
75
100
AcDbEntity
  8
BLACK
  6
ByLayer
 62
    7
370
   -1
100
AcDbPolyline
 90
    2
 70
    0
 43
0
 10
-33.491943
 20
-9.290290000000001
 10
-33.508507
 20
-9.453896
  0
LWPOLYLINE
  5
76
100
AcDbEntity
  8
BLACK
  6
ByLayer
 62
    7
370
   -1
100
AcDbPolyline
 90
    2
 70
    0
 43
0
 10
-41.229448
 20
-9.453896
 10
-41.246013
 20
-9.290290000000001
  0
LWPOLYLINE
  5
77
100
AcDbEntity
  8
BLACK
  6
ByLayer
 62
    7
370
   -1
100
AcDbPolyline
 90
    2
 70
    0
 43
0
 10
-41.229448
 20
-9.453896
 10
-41.18484
 20
-9.637790000000001
  0
LWPOLYLINE
  5
78
100
AcDbEntity
  8
BLACK
  6
ByLayer
 62
    7
370
   -1
100
AcDbPolyline
 90
    2
 70
    0
 43
0
 10
-33.508507
 20
-9.453896
 10
-33.553116
 20
-9.637790000000001
  0
LWPOLYLINE
  5
79
100
AcDbEntity
  8
BLACK
  6
ByLayer
 62
    7
370
   -1
100
AcDbPolyline
 90
    2
 70
    0
 43
0
 10
-41.148396
 20
-8.848160999999999
 10
-40.973491
 20
-8.800464
  0
LWPOLYLINE
  5
7A
100
AcDbEntity
  8
BLACK
  6
ByLayer
 62
    7
370
   -1
100
AcDbPolyline
 90
    2
 70
    0
 43
0
 10
-40.486172
 20
-8.263273999999999
 10
-40.450996
 20
-8.084210000000001
  0
LWPOLYLINE
  5
7B
100
AcDbEntity
  8
BLACK
  6
ByLayer
 62
    7
370
   -1
100
AcDbPolyline
 90
    2
 70
    0
 43
0
 10
-40.450996
 20
-8.084210000000001
 10
-40.449385
 20
-8.084210000000001
  0
LWPOLYLINE
  5
7C
100
AcDbEntity
  8
BLACK
  6
ByLayer
 62
    7
370
   -1
100
AcDbPolyline
 90
    2
 70
    0
 43
0
 10
-33.759979
 20
-8.800464
 10
-33.584856
 20
-8.848160999999999
  0
LWPOLYLINE
  5
7D
100
AcDbEntity
  8
BLACK
  6
ByLayer
 62
    7
370
   -1
100
AcDbPolyline
 90
    2
 70
    0
 43
0
 10
-33.893587
 20
-8.745563000000001
 10
-33.759979
 20
-8.800464
  0
LWPOLYLINE
  5
7E
100
AcDbEntity
  8
BLACK
  6
ByLayer
 62
    7
370
   -1
100
AcDbPolyline
 90
    2
 70
    0
 43
0
 10
-33.999621
 20
-8.681424
 10
-33.893587
 20
-8.745563000000001
  0
LWPOLYLINE
  5
7F
100
AcDbEntity
  8
BLACK
  6
ByLayer
 62
    7
370
   -1
100
AcDbPolyline
 90
    2
 70
    0
 43
0
 10
-34.083986
 20
-8.605114
 10
-33.999621
 20
-8.681424
  0
LWPOLYLINE
  5
80
100
AcDbEntity
  8
BLACK
  6
ByLayer
 62
    7
370
   -1
100
AcDbPolyline
 90
    2
 70
    0
 43
0
 10
-34.152134
 20
-8.510021999999999
 10
-34.083986
 20
-8.605114
  0
LWPOLYLINE
  5
81
100
AcDbEntity
  8
BLACK
  6
ByLayer
 62
    7
370
   -1
100
AcDbPolyline
 90
    2
 70
    0
 43
0
 10
-34.205083
 20
-8.39889
 10
-34.152134
 20
-8.510021999999999
  0
LWPOLYLINE
  5
82
100
AcDbEntity
  8
BLACK
  6
ByLayer
 62
    7
370
   -1
100
AcDbPolyline
 90
    2
 70
    0
 43
0
 10
-34.247904
 20
-8.263273999999999
 10
-34.205083
 20
-8.39889
  0
LWPOLYLINE
  5
83
100
AcDbEntity
  8
BLACK
  6
ByLayer
 62
    7
370
   -1
100
AcDbPolyline
 90
    2
 70
    0
 43
0
 10
-34.283124
 20
-8.084210000000001
 10
-34.247904
 20
-8.263273999999999
  0
LWPOLYLINE
  5
84
100
AcDbEntity
  8
BLACK
  6
ByLayer
 62
    7
370
   -1
100
AcDbPolyline
 90
    2
 70
    0
 43
0
 10
-40.973491
 20
-8.800464
 10
-40.840049
 20
-8.745563000000001
  0
LWPOLYLINE
  5
85
100
AcDbEntity
  8
BLACK
  6
ByLayer
 62
    7
370
   -1
100
AcDbPolyline
 90
    2
 70
    0
 43
0
 10
-40.840049
 20
-8.745563000000001
 10
-40.734147
 20
-8.681424
  0
LWPOLYLINE
  5
86
100
AcDbEntity
  8
BLACK
  6
ByLayer
 62
    7
370
   -1
100
AcDbPolyline
 90
    2
 70
    0
 43
0
 10
-40.734147
 20
-8.681424
 10
-40.649887
 20
-8.605114
  0
LWPOLYLINE
  5
87
100
AcDbEntity
  8
BLACK
  6
ByLayer
 62
    7
370
   -1
100
AcDbPolyline
 90
    2
 70
    0
 43
0
 10
-40.649887
 20
-8.605114
 10
-40.581823
 20
-8.510021999999999
  0
LWPOLYLINE
  5
88
100
AcDbEntity
  8
BLACK
  6
ByLayer
 62
    7
370
   -1
100
AcDbPolyline
 90
    2
 70
    0
 43
0
 10
-40.581823
 20
-8.510021999999999
 10
-40.52894
 20
-8.39889
  0
LWPOLYLINE
  5
89
100
AcDbEntity
  8
BLACK
  6
ByLayer
 62
    7
370
   -1
100
AcDbPolyline
 90
    2
 70
    0
 43
0
 10
-40.52894
 20
-8.39889
 10
-40.486172
 20
-8.263273999999999
  0
LWPOLYLINE
  5
8A
100
AcDbEntity
  8
BLACK
  6
ByLayer
 62
    7
370
   -1
100
AcDbPolyline
 90
    2
 70
    0
 43
0
 10
-34.283124
 20
-8.084210000000001
 10
-34.420524
 20
-8.018317
  0
LWPOLYLINE
  5
8B
100
AcDbEntity
  8
BLACK
  6
ByLayer
 62
    7
370
   -1
100
AcDbPolyline
 90
    2
 70
    0
 43
0
 10
-34.540038
 20
-7.923782
 10
-34.420524
 20
-8.018317
  0
LWPOLYLINE
  5
8C
100
AcDbEntity
  8
BLACK
  6
ByLayer
 62
    7
370
   -1
100
AcDbPolyline
 90
    2
 70
    0
 43
0
 10
-34.740678
 20
-7.367983
 10
-34.738643
 20
-7.520352
  0
LWPOLYLINE
  5
8D
100
AcDbEntity
  8
BLACK
  6
ByLayer
 62
    7
370
   -1
100
AcDbPolyline
 90
    2
 70
    0
 43
0
 10
-34.738643
 20
-7.520352
 10
-34.703101
 20
-7.668532
  0
LWPOLYLINE
  5
8E
100
AcDbEntity
  8
BLACK
  6
ByLayer
 62
    7
370
   -1
100
AcDbPolyline
 90
    2
 70
    0
 43
0
 10
-40.180762
 20
-6.959394
 10
-40.088342
 20
-7.080444
  0
LWPOLYLINE
  5
8F
100
AcDbEntity
  8
BLACK
  6
ByLayer
 62
    7
370
   -1
100
AcDbPolyline
 90
    2
 70
    0
 43
0
 10
-40.088342
 20
-7.080444
 10
-40.024811
 20
-7.218907
  0
LWPOLYLINE
  5
90
100
AcDbEntity
  8
BLACK
  6
ByLayer
 62
    7
370
   -1
100
AcDbPolyline
 90
    2
 70
    0
 43
0
 10
-39.993287
 20
-7.367983
 10
-40.024811
 20
-7.218907
  0
LWPOLYLINE
  5
91
100
AcDbEntity
  8
BLACK
  6
ByLayer
 62
    7
370
   -1
100
AcDbPolyline
 90
    2
 70
    0
 43
0
 10
-39.995319
 20
-7.520352
 10
-39.993287
 20
-7.367983
  0
LWPOLYLINE
  5
92
100
AcDbEntity
  8
BLACK
  6
ByLayer
 62
    7
370
   -1
100
AcDbPolyline
 90
    2
 70
    0
 43
0
 10
-40.098008
 20
-7.805247
 10
-40.030807
 20
-7.668532
  0
LWPOLYLINE
  5
93
100
AcDbEntity
  8
BLACK
  6
ByLayer
 62
    7
370
   -1
100
AcDbPolyline
 90
    2
 70
    0
 43
0
 10
-40.193622
 20
-7.923782
 10
-40.098008
 20
-7.805247
  0
LWPOLYLINE
  5
94
100
AcDbEntity
  8
BLACK
  6
ByLayer
 62
    7
370
   -1
100
AcDbPolyline
 90
    2
 70
    0
 43
0
 10
-34.709106
 20
-7.218907
 10
-34.740678
 20
-7.367983
  0
LWPOLYLINE
  5
95
100
AcDbEntity
  8
BLACK
  6
ByLayer
 62
    7
370
   -1
100
AcDbPolyline
 90
    2
 70
    0
 43
0
 10
-34.645478
 20
-7.080444
 10
-34.709106
 20
-7.218907
  0
LWPOLYLINE
  5
96
100
AcDbEntity
  8
BLACK
  6
ByLayer
 62
    7
370
   -1
100
AcDbPolyline
 90
    2
 70
    0
 43
0
 10
-34.552918
 20
-6.959394
 10
-34.645478
 20
-7.080444
  0
LWPOLYLINE
  5
97
100
AcDbEntity
  8
BLACK
  6
ByLayer
 62
    7
370
   -1
100
AcDbPolyline
 90
    2
 70
    0
 43
0
 10
-34.703101
 20
-7.668532
 10
-34.635798
 20
-7.805247
  0
LWPOLYLINE
  5
98
100
AcDbEntity
  8
BLACK
  6
ByLayer
 62
    7
370
   -1
100
AcDbPolyline
 90
    2
 70
    0
 43
0
 10
-34.635798
 20
-7.805247
 10
-34.540038
 20
-7.923782
  0
LWPOLYLINE
  5
99
100
AcDbEntity
  8
BLACK
  6
ByLayer
 62
    7
370
   -1
100
AcDbPolyline
 90
    2
 70
    0
 43
0
 10
-40.030807
 20
-7.668532
 10
-39.995319
 20
-7.520352
  0
LWPOLYLINE
  5
9A
100
AcDbEntity
  8
BLACK
  6
ByLayer
 62
    7
370
   -1
100
AcDbPolyline
 90
    2
 70
    0
 43
0
 10
-40.193622
 20
-7.923782
 10
-40.312955
 20
-8.018317
  0
LWPOLYLINE
  5
9B
100
AcDbEntity
  8
BLACK
  6
ByLayer
 62
    7
370
   -1
100
AcDbPolyline
 90
    2
 70
    0
 43
0
 10
-40.180762
 20
-6.959394
 10
-40.181749
 20
-6.61984
  0
LWPOLYLINE
  5
9C
100
AcDbEntity
  8
BLACK
  6
ByLayer
 62
    7
370
   -1
100
AcDbPolyline
 90
    2
 70
    0
 43
0
 10
-34.552918
 20
-6.959394
 10
-34.552918
 20
-6.61984
  0
LWPOLYLINE
  5
9D
100
AcDbEntity
  8
BLACK
  6
ByLayer
 62
    7
370
   -1
100
AcDbPolyline
 90
    2
 70
    0
 43
0
 10
-40.99019
 20
-1.484116
 10
-41.067291
 20
-1.628975
  0
LWPOLYLINE
  5
9E
100
AcDbEntity
  8
BLACK
  6
ByLayer
 62
    7
370
   -1
100
AcDbPolyline
 90
    2
 70
    0
 43
0
 10
-41.173636
 20
-1.877137
 10
-41.067291
 20
-1.628975
  0
LWPOLYLINE
  5
9F
100
AcDbEntity
  8
BLACK
  6
ByLayer
 62
    7
370
   -1
100
AcDbPolyline
 90
    2
 70
    0
 43
0
 10
-41.257875
 20
-2.145842
 10
-41.173636
 20
-1.877137
  0
LWPOLYLINE
  5
A0
100
AcDbEntity
  8
BLACK
  6
ByLayer
 62
    7
370
   -1
100
AcDbPolyline
 90
    2
 70
    0
 43
0
 10
-41.318621
 20
-2.435796
 10
-41.257875
 20
-2.145842
  0
LWPOLYLINE
  5
A1
100
AcDbEntity
  8
BLACK
  6
ByLayer
 62
    7
370
   -1
100
AcDbPolyline
 90
    2
 70
    0
 43
0
 10
-41.354137
 20
-2.74652
 10
-41.318621
 20
-2.435796
  0
LWPOLYLINE
  5
A2
100
AcDbEntity
  8
BLACK
  6
ByLayer
 62
    7
370
   -1
100
AcDbPolyline
 90
    2
 70
    0
 43
0
 10
-41.363161
 20
-3.042396
 10
-41.354137
 20
-2.74652
  0
LWPOLYLINE
  5
A3
100
AcDbEntity
  8
BLACK
  6
ByLayer
 62
    7
370
   -1
100
AcDbPolyline
 90
    2
 70
    0
 43
0
 10
-41.34938
 20
-3.353056
 10
-41.363161
 20
-3.042396
  0
LWPOLYLINE
  5
A4
100
AcDbEntity
  8
BLACK
  6
ByLayer
 62
    7
370
   -1
100
AcDbPolyline
 90
    2
 70
    0
 43
0
 10
-41.311797
 20
-3.67697
 10
-41.34938
 20
-3.353056
  0
LWPOLYLINE
  5
A5
100
AcDbEntity
  8
BLACK
  6
ByLayer
 62
    7
370
   -1
100
AcDbPolyline
 90
    2
 70
    0
 43
0
 10
-41.249048
 20
-4.016396
 10
-41.311797
 20
-3.67697
  0
LWPOLYLINE
  5
A6
100
AcDbEntity
  8
BLACK
  6
ByLayer
 62
    7
370
   -1
100
AcDbPolyline
 90
    2
 70
    0
 43
0
 10
-41.150389
 20
-4.406109
 10
-41.249048
 20
-4.016396
  0
LWPOLYLINE
  5
A7
100
AcDbEntity
  8
BLACK
  6
ByLayer
 62
    7
370
   -1
100
AcDbPolyline
 90
    2
 70
    0
 43
0
 10
-41.027305
 20
-4.794146
 10
-41.150389
 20
-4.406109
  0
LWPOLYLINE
  5
A8
100
AcDbEntity
  8
BLACK
  6
ByLayer
 62
    7
370
   -1
100
AcDbPolyline
 90
    2
 70
    0
 43
0
 10
-40.868247
 20
-5.218943
 10
-41.027305
 20
-4.794146
  0
LWPOLYLINE
  5
A9
100
AcDbEntity
  8
BLACK
  6
ByLayer
 62
    7
370
   -1
100
AcDbPolyline
 90
    2
 70
    0
 43
0
 10
-40.6792
 20
-5.65778
 10
-40.868247
 20
-5.218943
  0
LWPOLYLINE
  5
AA
100
AcDbEntity
  8
BLACK
  6
ByLayer
 62
    7
370
   -1
100
AcDbPolyline
 90
    2
 70
    0
 43
0
 10
-40.458998
 20
-6.110161
 10
-40.6792
 20
-5.65778
  0
LWPOLYLINE
  5
AB
100
AcDbEntity
  8
BLACK
  6
ByLayer
 62
    7
370
   -1
100
AcDbPolyline
 90
    2
 70
    0
 43
0
 10
-34.275346
 20
-6.110161
 10
-34.552918
 20
-6.61984
  0
LWPOLYLINE
  5
AC
100
AcDbEntity
  8
BLACK
  6
ByLayer
 62
    7
370
   -1
100
AcDbPolyline
 90
    2
 70
    0
 43
0
 10
-34.054886
 20
-5.65778
 10
-34.275346
 20
-6.110161
  0
LWPOLYLINE
  5
AD
100
AcDbEntity
  8
BLACK
  6
ByLayer
 62
    7
370
   -1
100
AcDbPolyline
 90
    2
 70
    0
 43
0
 10
-33.865618
 20
-5.218943
 10
-34.054886
 20
-5.65778
  0
LWPOLYLINE
  5
AE
100
AcDbEntity
  8
BLACK
  6
ByLayer
 62
    7
370
   -1
100
AcDbPolyline
 90
    2
 70
    0
 43
0
 10
-33.706374
 20
-4.794146
 10
-33.865618
 20
-5.218943
  0
LWPOLYLINE
  5
AF
100
AcDbEntity
  8
BLACK
  6
ByLayer
 62
    7
370
   -1
100
AcDbPolyline
 90
    2
 70
    0
 43
0
 10
-33.583146
 20
-4.406109
 10
-33.706374
 20
-4.794146
  0
LWPOLYLINE
  5
B0
100
AcDbEntity
  8
BLACK
  6
ByLayer
 62
    7
370
   -1
100
AcDbPolyline
 90
    2
 70
    0
 43
0
 10
-33.484372
 20
-4.016396
 10
-33.583146
 20
-4.406109
  0
LWPOLYLINE
  5
B1
100
AcDbEntity
  8
BLACK
  6
ByLayer
 62
    7
370
   -1
100
AcDbPolyline
 90
    2
 70
    0
 43
0
 10
-33.421549
 20
-3.67697
 10
-33.484372
 20
-4.016396
  0
LWPOLYLINE
  5
B2
100
AcDbEntity
  8
BLACK
  6
ByLayer
 62
    7
370
   -1
100
AcDbPolyline
 90
    2
 70
    0
 43
0
 10
-33.383922
 20
-3.353056
 10
-33.421549
 20
-3.67697
  0
LWPOLYLINE
  5
B3
100
AcDbEntity
  8
BLACK
  6
ByLayer
 62
    7
370
   -1
100
AcDbPolyline
 90
    2
 70
    0
 43
0
 10
-33.370125
 20
-3.042396
 10
-33.383922
 20
-3.353056
  0
LWPOLYLINE
  5
B4
100
AcDbEntity
  8
BLACK
  6
ByLayer
 62
    7
370
   -1
100
AcDbPolyline
 90
    2
 70
    0
 43
0
 10
-33.379159
 20
-2.74652
 10
-33.370125
 20
-3.042396
  0
LWPOLYLINE
  5
B5
100
AcDbEntity
  8
BLACK
  6
ByLayer
 62
    7
370
   -1
100
AcDbPolyline
 90
    2
 70
    0
 43
0
 10
-33.414718
 20
-2.435796
 10
-33.379159
 20
-2.74652
  0
LWPOLYLINE
  5
B6
100
AcDbEntity
  8
BLACK
  6
ByLayer
 62
    7
370
   -1
100
AcDbPolyline
 90
    2
 70
    0
 43
0
 10
-33.475535
 20
-2.145842
 10
-33.414718
 20
-2.435796
  0
LWPOLYLINE
  5
B7
100
AcDbEntity
  8
BLACK
  6
ByLayer
 62
    7
370
   -1
100
AcDbPolyline
 90
    2
 70
    0
 43
0
 10
-33.559872
 20
-1.877137
 10
-33.475535
 20
-2.145842
  0
LWPOLYLINE
  5
B8
100
AcDbEntity
  8
BLACK
  6
ByLayer
 62
    7
370
   -1
100
AcDbPolyline
 90
    2
 70
    0
 43
0
 10
-33.666342
 20
-1.628975
 10
-33.559872
 20
-1.877137
  0
LWPOLYLINE
  5
B9
100
AcDbEntity
  8
BLACK
  6
ByLayer
 62
    7
370
   -1
100
AcDbPolyline
 90
    2
 70
    0
 43
0
 10
-33.743532
 20
-1.484116
 10
-33.666342
 20
-1.628975
  0
LWPOLYLINE
  5
BA
100
AcDbEntity
  8
BLACK
  6
ByLayer
 62
    7
370
   -1
100
AcDbPolyline
 90
    2
 70
    0
 43
0
 10
-40.181749
 20
-6.61984
 10
-40.458998
 20
-6.110161
  0
LWPOLYLINE
  5
BB
100
AcDbEntity
  8
BLACK
  6
ByLayer
 62
    7
370
   -1
100
AcDbPolyline
 90
    2
 70
    0
 43
0
 10
-40.99019
 20
-1.484116
 10
-40.962662
 20
-1.250648
  0
LWPOLYLINE
  5
BC
100
AcDbEntity
  8
BLACK
  6
ByLayer
 62
    7
370
   -1
100
AcDbPolyline
 90
    2
 70
    0
 43
0
 10
-33.743532
 20
-1.484116
 10
-33.775294
 20
-1.250648
  0
LWPOLYLINE
  5
BD
100
AcDbEntity
  8
BLACK
  6
ByLayer
 62
    7
370
   -1
100
AcDbPolyline
 90
    2
 70
    0
 43
0
 10
-33.743579
 20
-0.168332
 10
-33.789155
 20
-0.188017
  0
LWPOLYLINE
  5
BE
100
AcDbEntity
  8
BLACK
  6
ByLayer
 62
    7
370
   -1
100
AcDbPolyline
 90
    2
 70
    0
 43
0
 10
-40.994377
 20
-0.168332
 10
-40.948801
 20
-0.188017
  0
LWPOLYLINE
  5
BF
100
AcDbEntity
  8
BLACK
  6
ByLayer
 62
    7
370
   -1
100
AcDbPolyline
 90
    2
 70
    0
 43
0
 10
-33.789155
 20
-0.188017
 10
-33.84301
 20
-0.225415
  0
LWPOLYLINE
  5
C0
100
AcDbEntity
  8
BLACK
  6
ByLayer
 62
    7
370
   -1
100
AcDbPolyline
 90
    2
 70
    0
 43
0
 10
-33.84301
 20
-0.225415
 10
-33.88865
 20
-0.276701
  0
LWPOLYLINE
  5
C1
100
AcDbEntity
  8
BLACK
  6
ByLayer
 62
    7
370
   -1
100
AcDbPolyline
 90
    2
 70
    0
 43
0
 10
-33.88865
 20
-0.276701
 10
-33.931327
 20
-0.353184
  0
LWPOLYLINE
  5
C2
100
AcDbEntity
  8
BLACK
  6
ByLayer
 62
    7
370
   -1
100
AcDbPolyline
 90
    2
 70
    0
 43
0
 10
-33.931327
 20
-0.353184
 10
-33.980965
 20
-0.498439
  0
LWPOLYLINE
  5
C3
100
AcDbEntity
  8
BLACK
  6
ByLayer
 62
    7
370
   -1
100
AcDbPolyline
 90
    2
 70
    0
 43
0
 10
-33.980965
 20
-0.498439
 10
-34.003073
 20
-0.6316349999999999
  0
LWPOLYLINE
  5
C4
100
AcDbEntity
  8
BLACK
  6
ByLayer
 62
    7
370
   -1
100
AcDbPolyline
 90
    2
 70
    0
 43
0
 10
-34.003073
 20
-0.6316349999999999
 10
-34.00493
 20
-0.712001
  0
LWPOLYLINE
  5
C5
100
AcDbEntity
  8
BLACK
  6
ByLayer
 62
    7
370
   -1
100
AcDbPolyline
 90
    2
 70
    0
 43
0
 10
-34.00493
 20
-0.712001
 10
-33.98896
 20
-0.834904
  0
LWPOLYLINE
  5
C6
100
AcDbEntity
  8
BLACK
  6
ByLayer
 62
    7
370
   -1
100
AcDbPolyline
 90
    2
 70
    0
 43
0
 10
-33.98896
 20
-0.834904
 10
-33.948851
 20
-0.961914
  0
LWPOLYLINE
  5
C7
100
AcDbEntity
  8
BLACK
  6
ByLayer
 62
    7
370
   -1
100
AcDbPolyline
 90
    2
 70
    0
 43
0
 10
-33.948851
 20
-0.961914
 10
-33.882389
 20
-1.095608
  0
LWPOLYLINE
  5
C8
100
AcDbEntity
  8
BLACK
  6
ByLayer
 62
    7
370
   -1
100
AcDbPolyline
 90
    2
 70
    0
 43
0
 10
-40.894946
 20
-0.225415
 10
-40.948801
 20
-0.188017
  0
LWPOLYLINE
  5
C9
100
AcDbEntity
  8
BLACK
  6
ByLayer
 62
    7
370
   -1
100
AcDbPolyline
 90
    2
 70
    0
 43
0
 10
-40.849306
 20
-0.276701
 10
-40.894946
 20
-0.225415
  0
LWPOLYLINE
  5
CA
100
AcDbEntity
  8
BLACK
  6
ByLayer
 62
    7
370
   -1
100
AcDbPolyline
 90
    2
 70
    0
 43
0
 10
-40.806629
 20
-0.353184
 10
-40.849306
 20
-0.276701
  0
LWPOLYLINE
  5
CB
100
AcDbEntity
  8
BLACK
  6
ByLayer
 62
    7
370
   -1
100
AcDbPolyline
 90
    2
 70
    0
 43
0
 10
-40.756991
 20
-0.498439
 10
-40.806629
 20
-0.353184
  0
LWPOLYLINE
  5
CC
100
AcDbEntity
  8
BLACK
  6
ByLayer
 62
    7
370
   -1
100
AcDbPolyline
 90
    2
 70
    0
 43
0
 10
-40.734883
 20
-0.6316349999999999
 10
-40.756991
 20
-0.498439
  0
LWPOLYLINE
  5
CD
100
AcDbEntity
  8
BLACK
  6
ByLayer
 62
    7
370
   -1
100
AcDbPolyline
 90
    2
 70
    0
 43
0
 10
-40.733026
 20
-0.712001
 10
-40.734883
 20
-0.6316349999999999
  0
LWPOLYLINE
  5
CE
100
AcDbEntity
  8
BLACK
  6
ByLayer
 62
    7
370
   -1
100
AcDbPolyline
 90
    2
 70
    0
 43
0
 10
-40.748996
 20
-0.834904
 10
-40.733026
 20
-0.712001
  0
LWPOLYLINE
  5
CF
100
AcDbEntity
  8
BLACK
  6
ByLayer
 62
    7
370
   -1
100
AcDbPolyline
 90
    2
 70
    0
 43
0
 10
-40.789105
 20
-0.961914
 10
-40.748996
 20
-0.834904
  0
LWPOLYLINE
  5
D0
100
AcDbEntity
  8
BLACK
  6
ByLayer
 62
    7
370
   -1
100
AcDbPolyline
 90
    2
 70
    0
 43
0
 10
-40.855567
 20
-1.095608
 10
-40.789105
 20
-0.961914
  0
LWPOLYLINE
  5
D1
100
AcDbEntity
  8
BLACK
  6
ByLayer
 62
    7
370
   -1
100
AcDbPolyline
 90
    2
 70
    0
 43
0
 10
-33.882389
 20
-1.095608
 10
-33.775294
 20
-1.250648
  0
LWPOLYLINE
  5
D2
100
AcDbEntity
  8
BLACK
  6
ByLayer
 62
    7
370
   -1
100
AcDbPolyline
 90
    2
 70
    0
 43
0
 10
-40.962662
 20
-1.250648
 10
-40.855567
 20
-1.095608
  0
LWPOLYLINE
  5
D3
100
AcDbEntity
  8
BLACK
  6
ByLayer
 62
    7
370
   -1
100
AcDbPolyline
 90
    2
 70
    0
 43
0
 10
-40.915063
 20
0.362212
 10
-40.954657
 20
0.272101
  0
LWPOLYLINE
  5
D4
100
AcDbEntity
  8
BLACK
  6
ByLayer
 62
    7
370
   -1
100
AcDbPolyline
 90
    2
 70
    0
 43
0
 10
-33.822893
 20
0.362212
 10
-33.783299
 20
0.272101
  0
LWPOLYLINE
  5
D5
100
AcDbEntity
  8
BLACK
  6
ByLayer
 62
    7
370
   -1
100
AcDbPolyline
 90
    2
 70
    0
 43
0
 10
-33.783299
 20
0.272101
 10
-33.744114
 20
0.131124
  0
LWPOLYLINE
  5
D6
100
AcDbEntity
  8
BLACK
  6
ByLayer
 62
    7
370
   -1
100
AcDbPolyline
 90
    2
 70
    0
 43
0
 10
-40.993842
 20
0.131124
 10
-40.954657
 20
0.272101
  0
LWPOLYLINE
  5
D7
100
AcDbEntity
  8
BLACK
  6
ByLayer
 62
    7
370
   -1
100
AcDbPolyline
 90
    2
 70
    0
 43
0
 10
-33.744114
 20
0.131124
 10
-33.730588
 20
-0.016117
  0
LWPOLYLINE
  5
D8
100
AcDbEntity
  8
BLACK
  6
ByLayer
 62
    7
370
   -1
100
AcDbPolyline
 90
    2
 70
    0
 43
0
 10
-41.007368
 20
-0.016117
 10
-40.993842
 20
0.131124
  0
LWPOLYLINE
  5
D9
100
AcDbEntity
  8
BLACK
  6
ByLayer
 62
    7
370
   -1
100
AcDbPolyline
 90
    2
 70
    0
 43
0
 10
-41.007368
 20
-0.016117
 10
-40.994377
 20
-0.168332
  0
LWPOLYLINE
  5
DA
100
AcDbEntity
  8
BLACK
  6
ByLayer
 62
    7
370
   -1
100
AcDbPolyline
 90
    2
 70
    0
 43
0
 10
-33.730588
 20
-0.016117
 10
-33.743579
 20
-0.168332
  0
LWPOLYLINE
  5
DB
100
AcDbEntity
  8
BLACK
  6
ByLayer
 62
    7
370
   -1
100
AcDbPolyline
 90
    2
 70
    0
 43
0
 10
-35.121244
 20
-0.168332
 10
-35.121244
 20
-0.225415
  0
LWPOLYLINE
  5
DC
100
AcDbEntity
  8
BLACK
  6
ByLayer
 62
    7
370
   -1
100
AcDbPolyline
 90
    2
 70
    0
 43
0
 10
-39.616712
 20
-0.168332
 10
-39.616712
 20
-0.225415
  0
LWPOLYLINE
  5
DD
100
AcDbEntity
  8
BLACK
  6
ByLayer
 62
    7
370
   -1
100
AcDbPolyline
 90
    2
 70
    0
 43
0
 10
38.439277
 20
-8.873333000000001
 10
38.422074
 20
-8.848160999999999
  0
LWPOLYLINE
  5
DE
100
AcDbEntity
  8
BLACK
  6
ByLayer
 62
    7
370
   -1
100
AcDbPolyline
 90
    2
 70
    0
 43
0
 10
30.858534
 20
-8.848160999999999
 10
30.846036
 20
-8.873333000000001
  0
LWPOLYLINE
  5
DF
100
AcDbEntity
  8
BLACK
  6
ByLayer
 62
    7
370
   -1
100
AcDbPolyline
 90
    2
 70
    0
 43
0
 10
30.846036
 20
-8.873333000000001
 10
30.799166
 20
-8.99879
  0
LWPOLYLINE
  5
E0
100
AcDbEntity
  8
BLACK
  6
ByLayer
 62
    7
370
   -1
100
AcDbPolyline
 90
    2
 70
    0
 43
0
 10
38.486146
 20
-8.99879
 10
38.439277
 20
-8.873333000000001
  0
LWPOLYLINE
  5
E1
100
AcDbEntity
  8
BLACK
  6
ByLayer
 62
    7
370
   -1
100
AcDbPolyline
 90
    2
 70
    0
 43
0
 10
30.799166
 20
-8.99879
 10
30.771836
 20
-9.137980000000001
  0
LWPOLYLINE
  5
E2
100
AcDbEntity
  8
BLACK
  6
ByLayer
 62
    7
370
   -1
100
AcDbPolyline
 90
    2
 70
    0
 43
0
 10
38.513477
 20
-9.137980000000001
 10
38.486146
 20
-8.99879
  0
LWPOLYLINE
  5
E3
100
AcDbEntity
  8
BLACK
  6
ByLayer
 62
    7
370
   -1
100
AcDbPolyline
 90
    2
 70
    0
 43
0
 10
30.771836
 20
-9.137980000000001
 10
30.765622
 20
-9.290290000000001
  0
LWPOLYLINE
  5
E4
100
AcDbEntity
  8
BLACK
  6
ByLayer
 62
    7
370
   -1
100
AcDbPolyline
 90
    2
 70
    0
 43
0
 10
38.519691
 20
-9.290290000000001
 10
38.513477
 20
-9.137980000000001
  0
LWPOLYLINE
  5
E5
100
AcDbEntity
  8
BLACK
  6
ByLayer
 62
    7
370
   -1
100
AcDbPolyline
 90
    2
 70
    0
 43
0
 10
30.765622
 20
-9.290290000000001
 10
30.782186
 20
-9.453896
  0
LWPOLYLINE
  5
E6
100
AcDbEntity
  8
BLACK
  6
ByLayer
 62
    7
370
   -1
100
AcDbPolyline
 90
    2
 70
    0
 43
0
 10
38.503127
 20
-9.453896
 10
38.519691
 20
-9.290290000000001
  0
LWPOLYLINE
  5
E7
100
AcDbEntity
  8
BLACK
  6
ByLayer
 62
    7
370
   -1
100
AcDbPolyline
 90
    2
 70
    0
 43
0
 10
38.503127
 20
-9.453896
 10
38.458518
 20
-9.637790000000001
  0
LWPOLYLINE
  5
E8
100
AcDbEntity
  8
BLACK
  6
ByLayer
 62
    7
370
   -1
100
AcDbPolyline
 90
    2
 70
    0
 43
0
 10
30.782186
 20
-9.453896
 10
30.826794
 20
-9.637790000000001
  0
LWPOLYLINE
  5
E9
100
AcDbEntity
  8
BLACK
  6
ByLayer
 62
    7
370
   -1
100
AcDbPolyline
 90
    2
 70
    0
 43
0
 10
38.422074
 20
-8.848160999999999
 10
38.247169
 20
-8.800464
  0
LWPOLYLINE
  5
EA
100
AcDbEntity
  8
BLACK
  6
ByLayer
 62
    7
370
   -1
100
AcDbPolyline
 90
    2
 70
    0
 43
0
 10
37.75985
 20
-8.263273999999999
 10
37.724674
 20
-8.084210000000001
  0
LWPOLYLINE
  5
EB
100
AcDbEntity
  8
BLACK
  6
ByLayer
 62
    7
370
   -1
100
AcDbPolyline
 90
    2
 70
    0
 43
0
 10
37.724674
 20
-8.084210000000001
 10
37.723063
 20
-8.084210000000001
  0
LWPOLYLINE
  5
EC
100
AcDbEntity
  8
BLACK
  6
ByLayer
 62
    7
370
   -1
100
AcDbPolyline
 90
    2
 70
    0
 43
0
 10
31.033657
 20
-8.800464
 10
30.858534
 20
-8.848160999999999
  0
LWPOLYLINE
  5
ED
100
AcDbEntity
  8
BLACK
  6
ByLayer
 62
    7
370
   -1
100
AcDbPolyline
 90
    2
 70
    0
 43
0
 10
31.167265
 20
-8.745563000000001
 10
31.033657
 20
-8.800464
  0
LWPOLYLINE
  5
EE
100
AcDbEntity
  8
BLACK
  6
ByLayer
 62
    7
370
   -1
100
AcDbPolyline
 90
    2
 70
    0
 43
0
 10
31.273299
 20
-8.681424
 10
31.167265
 20
-8.745563000000001
  0
LWPOLYLINE
  5
EF
100
AcDbEntity
  8
BLACK
  6
ByLayer
 62
    7
370
   -1
100
AcDbPolyline
 90
    2
 70
    0
 43
0
 10
31.357664
 20
-8.605114
 10
31.273299
 20
-8.681424
  0
LWPOLYLINE
  5
F0
100
AcDbEntity
  8
BLACK
  6
ByLayer
 62
    7
370
   -1
100
AcDbPolyline
 90
    2
 70
    0
 43
0
 10
31.425812
 20
-8.510021999999999
 10
31.357664
 20
-8.605114
  0
LWPOLYLINE
  5
F1
100
AcDbEntity
  8
BLACK
  6
ByLayer
 62
    7
370
   -1
100
AcDbPolyline
 90
    2
 70
    0
 43
0
 10
31.478762
 20
-8.39889
 10
31.425812
 20
-8.510021999999999
  0
LWPOLYLINE
  5
F2
100
AcDbEntity
  8
BLACK
  6
ByLayer
 62
    7
370
   -1
100
AcDbPolyline
 90
    2
 70
    0
 43
0
 10
31.521582
 20
-8.263273999999999
 10
31.478762
 20
-8.39889
  0
LWPOLYLINE
  5
F3
100
AcDbEntity
  8
BLACK
  6
ByLayer
 62
    7
370
   -1
100
AcDbPolyline
 90
    2
 70
    0
 43
0
 10
31.556802
 20
-8.084210000000001
 10
31.521582
 20
-8.263273999999999
  0
LWPOLYLINE
  5
F4
100
AcDbEntity
  8
BLACK
  6
ByLayer
 62
    7
370
   -1
100
AcDbPolyline
 90
    2
 70
    0
 43
0
 10
37.802618
 20
-8.39889
 10
37.75985
 20
-8.263273999999999
  0
LWPOLYLINE
  5
F5
100
AcDbEntity
  8
BLACK
  6
ByLayer
 62
    7
370
   -1
100
AcDbPolyline
 90
    2
 70
    0
 43
0
 10
37.855501
 20
-8.510021999999999
 10
37.802618
 20
-8.39889
  0
LWPOLYLINE
  5
F6
100
AcDbEntity
  8
BLACK
  6
ByLayer
 62
    7
370
   -1
100
AcDbPolyline
 90
    2
 70
    0
 43
0
 10
37.923565
 20
-8.605114
 10
37.855501
 20
-8.510021999999999
  0
LWPOLYLINE
  5
F7
100
AcDbEntity
  8
BLACK
  6
ByLayer
 62
    7
370
   -1
100
AcDbPolyline
 90
    2
 70
    0
 43
0
 10
38.007825
 20
-8.681424
 10
37.923565
 20
-8.605114
  0
LWPOLYLINE
  5
F8
100
AcDbEntity
  8
BLACK
  6
ByLayer
 62
    7
370
   -1
100
AcDbPolyline
 90
    2
 70
    0
 43
0
 10
38.113727
 20
-8.745563000000001
 10
38.007825
 20
-8.681424
  0
LWPOLYLINE
  5
F9
100
AcDbEntity
  8
BLACK
  6
ByLayer
 62
    7
370
   -1
100
AcDbPolyline
 90
    2
 70
    0
 43
0
 10
38.247169
 20
-8.800464
 10
38.113727
 20
-8.745563000000001
  0
LWPOLYLINE
  5
FA
100
AcDbEntity
  8
BLACK
  6
ByLayer
 62
    7
370
   -1
100
AcDbPolyline
 90
    2
 70
    0
 43
0
 10
31.556802
 20
-8.084210000000001
 10
31.694202
 20
-8.018317
  0
LWPOLYLINE
  5
FB
100
AcDbEntity
  8
BLACK
  6
ByLayer
 62
    7
370
   -1
100
AcDbPolyline
 90
    2
 70
    0
 43
0
 10
31.813716
 20
-7.923782
 10
31.694202
 20
-8.018317
  0
LWPOLYLINE
  5
FC
100
AcDbEntity
  8
BLACK
  6
ByLayer
 62
    7
370
   -1
100
AcDbPolyline
 90
    2
 70
    0
 43
0
 10
32.014356
 20
-7.367983
 10
32.012321
 20
-7.520352
  0
LWPOLYLINE
  5
FD
100
AcDbEntity
  8
BLACK
  6
ByLayer
 62
    7
370
   -1
100
AcDbPolyline
 90
    2
 70
    0
 43
0
 10
32.012321
 20
-7.520352
 10
31.976779
 20
-7.668532
  0
LWPOLYLINE
  5
FE
100
AcDbEntity
  8
BLACK
  6
ByLayer
 62
    7
370
   -1
100
AcDbPolyline
 90
    2
 70
    0
 43
0
 10
37.45444
 20
-6.959394
 10
37.36202
 20
-7.080444
  0
LWPOLYLINE
  5
FF
100
AcDbEntity
  8
BLACK
  6
ByLayer
 62
    7
370
   -1
100
AcDbPolyline
 90
    2
 70
    0
 43
0
 10
37.298489
 20
-7.218907
 10
37.36202
 20
-7.080444
  0
LWPOLYLINE
  5
100
100
AcDbEntity
  8
BLACK
  6
ByLayer
 62
    7
370
   -1
100
AcDbPolyline
 90
    2
 70
    0
 43
0
 10
37.268997
 20
-7.520352
 10
37.266965
 20
-7.367983
  0
LWPOLYLINE
  5
101
100
AcDbEntity
  8
BLACK
  6
ByLayer
 62
    7
370
   -1
100
AcDbPolyline
 90
    2
 70
    0
 43
0
 10
37.266965
 20
-7.367983
 10
37.298489
 20
-7.218907
  0
LWPOLYLINE
  5
102
100
AcDbEntity
  8
BLACK
  6
ByLayer
 62
    7
370
   -1
100
AcDbPolyline
 90
    2
 70
    0
 43
0
 10
37.304485
 20
-7.668532
 10
37.268997
 20
-7.520352
  0
LWPOLYLINE
  5
103
100
AcDbEntity
  8
BLACK
  6
ByLayer
 62
    7
370
   -1
100
AcDbPolyline
 90
    2
 70
    0
 43
0
 10
37.467301
 20
-7.923782
 10
37.371686
 20
-7.805247
  0
LWPOLYLINE
  5
104
100
AcDbEntity
  8
BLACK
  6
ByLayer
 62
    7
370
   -1
100
AcDbPolyline
 90
    2
 70
    0
 43
0
 10
37.371686
 20
-7.805247
 10
37.304485
 20
-7.668532
  0
LWPOLYLINE
  5
105
100
AcDbEntity
  8
BLACK
  6
ByLayer
 62
    7
370
   -1
100
AcDbPolyline
 90
    2
 70
    0
 43
0
 10
37.586633
 20
-8.018317
 10
37.467301
 20
-7.923782
  0
LWPOLYLINE
  5
106
100
AcDbEntity
  8
BLACK
  6
ByLayer
 62
    7
370
   -1
100
AcDbPolyline
 90
    2
 70
    0
 43
0
 10
31.982785
 20
-7.218907
 10
32.014356
 20
-7.367983
  0
LWPOLYLINE
  5
107
100
AcDbEntity
  8
BLACK
  6
ByLayer
 62
    7
370
   -1
100
AcDbPolyline
 90
    2
 70
    0
 43
0
 10
31.919156
 20
-7.080444
 10
31.982785
 20
-7.218907
  0
LWPOLYLINE
  5
108
100
AcDbEntity
  8
BLACK
  6
ByLayer
 62
    7
370
   -1
100
AcDbPolyline
 90
    2
 70
    0
 43
0
 10
31.826596
 20
-6.959394
 10
31.919156
 20
-7.080444
  0
LWPOLYLINE
  5
109
100
AcDbEntity
  8
BLACK
  6
ByLayer
 62
    7
370
   -1
100
AcDbPolyline
 90
    2
 70
    0
 43
0
 10
31.976779
 20
-7.668532
 10
31.909476
 20
-7.805247
  0
LWPOLYLINE
  5
10A
100
AcDbEntity
  8
BLACK
  6
ByLayer
 62
    7
370
   -1
100
AcDbPolyline
 90
    2
 70
    0
 43
0
 10
31.909476
 20
-7.805247
 10
31.813716
 20
-7.923782
  0
LWPOLYLINE
  5
10B
100
AcDbEntity
  8
BLACK
  6
ByLayer
 62
    7
370
   -1
100
AcDbPolyline
 90
    2
 70
    0
 43
0
 10
37.45444
 20
-6.959394
 10
37.455428
 20
-6.61984
  0
LWPOLYLINE
  5
10C
100
AcDbEntity
  8
BLACK
  6
ByLayer
 62
    7
370
   -1
100
AcDbPolyline
 90
    2
 70
    0
 43
0
 10
31.826596
 20
-6.959394
 10
31.826596
 20
-6.61984
  0
LWPOLYLINE
  5
10D
100
AcDbEntity
  8
BLACK
  6
ByLayer
 62
    7
370
   -1
100
AcDbPolyline
 90
    2
 70
    0
 43
0
 10
38.263868
 20
-1.484116
 10
38.340969
 20
-1.628975
  0
LWPOLYLINE
  5
10E
100
AcDbEntity
  8
BLACK
  6
ByLayer
 62
    7
370
   -1
100
AcDbPolyline
 90
    2
 70
    0
 43
0
 10
38.447315
 20
-1.877137
 10
38.340969
 20
-1.628975
  0
LWPOLYLINE
  5
10F
100
AcDbEntity
  8
BLACK
  6
ByLayer
 62
    7
370
   -1
100
AcDbPolyline
 90
    2
 70
    0
 43
0
 10
38.531553
 20
-2.145842
 10
38.447315
 20
-1.877137
  0
LWPOLYLINE
  5
110
100
AcDbEntity
  8
BLACK
  6
ByLayer
 62
    7
370
   -1
100
AcDbPolyline
 90
    2
 70
    0
 43
0
 10
38.592299
 20
-2.435796
 10
38.531553
 20
-2.145842
  0
LWPOLYLINE
  5
111
100
AcDbEntity
  8
BLACK
  6
ByLayer
 62
    7
370
   -1
100
AcDbPolyline
 90
    2
 70
    0
 43
0
 10
38.627816
 20
-2.74652
 10
38.592299
 20
-2.435796
  0
LWPOLYLINE
  5
112
100
AcDbEntity
  8
BLACK
  6
ByLayer
 62
    7
370
   -1
100
AcDbPolyline
 90
    2
 70
    0
 43
0
 10
38.636839
 20
-3.042396
 10
38.627816
 20
-2.74652
  0
LWPOLYLINE
  5
113
100
AcDbEntity
  8
BLACK
  6
ByLayer
 62
    7
370
   -1
100
AcDbPolyline
 90
    2
 70
    0
 43
0
 10
38.623058
 20
-3.353056
 10
38.636839
 20
-3.042396
  0
LWPOLYLINE
  5
114
100
AcDbEntity
  8
BLACK
  6
ByLayer
 62
    7
370
   -1
100
AcDbPolyline
 90
    2
 70
    0
 43
0
 10
38.585475
 20
-3.67697
 10
38.623058
 20
-3.353056
  0
LWPOLYLINE
  5
115
100
AcDbEntity
  8
BLACK
  6
ByLayer
 62
    7
370
   -1
100
AcDbPolyline
 90
    2
 70
    0
 43
0
 10
38.522726
 20
-4.016396
 10
38.585475
 20
-3.67697
  0
LWPOLYLINE
  5
116
100
AcDbEntity
  8
BLACK
  6
ByLayer
 62
    7
370
   -1
100
AcDbPolyline
 90
    2
 70
    0
 43
0
 10
38.424068
 20
-4.406109
 10
38.522726
 20
-4.016396
  0
LWPOLYLINE
  5
117
100
AcDbEntity
  8
BLACK
  6
ByLayer
 62
    7
370
   -1
100
AcDbPolyline
 90
    2
 70
    0
 43
0
 10
38.300983
 20
-4.794146
 10
38.424068
 20
-4.406109
  0
LWPOLYLINE
  5
118
100
AcDbEntity
  8
BLACK
  6
ByLayer
 62
    7
370
   -1
100
AcDbPolyline
 90
    2
 70
    0
 43
0
 10
38.141925
 20
-5.218943
 10
38.300983
 20
-4.794146
  0
LWPOLYLINE
  5
119
100
AcDbEntity
  8
BLACK
  6
ByLayer
 62
    7
370
   -1
100
AcDbPolyline
 90
    2
 70
    0
 43
0
 10
37.952878
 20
-5.65778
 10
38.141925
 20
-5.218943
  0
LWPOLYLINE
  5
11A
100
AcDbEntity
  8
BLACK
  6
ByLayer
 62
    7
370
   -1
100
AcDbPolyline
 90
    2
 70
    0
 43
0
 10
37.732676
 20
-6.110161
 10
37.952878
 20
-5.65778
  0
LWPOLYLINE
  5
11B
100
AcDbEntity
  8
BLACK
  6
ByLayer
 62
    7
370
   -1
100
AcDbPolyline
 90
    2
 70
    0
 43
0
 10
31.549024
 20
-6.110161
 10
31.826596
 20
-6.61984
  0
LWPOLYLINE
  5
11C
100
AcDbEntity
  8
BLACK
  6
ByLayer
 62
    7
370
   -1
100
AcDbPolyline
 90
    2
 70
    0
 43
0
 10
31.328564
 20
-5.65778
 10
31.549024
 20
-6.110161
  0
LWPOLYLINE
  5
11D
100
AcDbEntity
  8
BLACK
  6
ByLayer
 62
    7
370
   -1
100
AcDbPolyline
 90
    2
 70
    0
 43
0
 10
31.139296
 20
-5.218943
 10
31.328564
 20
-5.65778
  0
LWPOLYLINE
  5
11E
100
AcDbEntity
  8
BLACK
  6
ByLayer
 62
    7
370
   -1
100
AcDbPolyline
 90
    2
 70
    0
 43
0
 10
30.980052
 20
-4.794146
 10
31.139296
 20
-5.218943
  0
LWPOLYLINE
  5
11F
100
AcDbEntity
  8
BLACK
  6
ByLayer
 62
    7
370
   -1
100
AcDbPolyline
 90
    2
 70
    0
 43
0
 10
30.856824
 20
-4.406109
 10
30.980052
 20
-4.794146
  0
LWPOLYLINE
  5
120
100
AcDbEntity
  8
BLACK
  6
ByLayer
 62
    7
370
   -1
100
AcDbPolyline
 90
    2
 70
    0
 43
0
 10
30.75805
 20
-4.016396
 10
30.856824
 20
-4.406109
  0
LWPOLYLINE
  5
121
100
AcDbEntity
  8
BLACK
  6
ByLayer
 62
    7
370
   -1
100
AcDbPolyline
 90
    2
 70
    0
 43
0
 10
30.695228
 20
-3.67697
 10
30.75805
 20
-4.016396
  0
LWPOLYLINE
  5
122
100
AcDbEntity
  8
BLACK
  6
ByLayer
 62
    7
370
   -1
100
AcDbPolyline
 90
    2
 70
    0
 43
0
 10
30.657601
 20
-3.353056
 10
30.695228
 20
-3.67697
  0
LWPOLYLINE
  5
123
100
AcDbEntity
  8
BLACK
  6
ByLayer
 62
    7
370
   -1
100
AcDbPolyline
 90
    2
 70
    0
 43
0
 10
30.643803
 20
-3.042396
 10
30.657601
 20
-3.353056
  0
LWPOLYLINE
  5
124
100
AcDbEntity
  8
BLACK
  6
ByLayer
 62
    7
370
   -1
100
AcDbPolyline
 90
    2
 70
    0
 43
0
 10
30.652837
 20
-2.74652
 10
30.643803
 20
-3.042396
  0
LWPOLYLINE
  5
125
100
AcDbEntity
  8
BLACK
  6
ByLayer
 62
    7
370
   -1
100
AcDbPolyline
 90
    2
 70
    0
 43
0
 10
30.688396
 20
-2.435796
 10
30.652837
 20
-2.74652
  0
LWPOLYLINE
  5
126
100
AcDbEntity
  8
BLACK
  6
ByLayer
 62
    7
370
   -1
100
AcDbPolyline
 90
    2
 70
    0
 43
0
 10
30.749213
 20
-2.145842
 10
30.688396
 20
-2.435796
  0
LWPOLYLINE
  5
127
100
AcDbEntity
  8
BLACK
  6
ByLayer
 62
    7
370
   -1
100
AcDbPolyline
 90
    2
 70
    0
 43
0
 10
30.83355
 20
-1.877137
 10
30.749213
 20
-2.145842
  0
LWPOLYLINE
  5
128
100
AcDbEntity
  8
BLACK
  6
ByLayer
 62
    7
370
   -1
100
AcDbPolyline
 90
    2
 70
    0
 43
0
 10
30.94002
 20
-1.628975
 10
30.83355
 20
-1.877137
  0
LWPOLYLINE
  5
129
100
AcDbEntity
  8
BLACK
  6
ByLayer
 62
    7
370
   -1
100
AcDbPolyline
 90
    2
 70
    0
 43
0
 10
31.01721
 20
-1.484116
 10
30.94002
 20
-1.628975
  0
LWPOLYLINE
  5
12A
100
AcDbEntity
  8
BLACK
  6
ByLayer
 62
    7
370
   -1
100
AcDbPolyline
 90
    2
 70
    0
 43
0
 10
37.455428
 20
-6.61984
 10
37.732676
 20
-6.110161
  0
LWPOLYLINE
  5
12B
100
AcDbEntity
  8
BLACK
  6
ByLayer
 62
    7
370
   -1
100
AcDbPolyline
 90
    2
 70
    0
 43
0
 10
38.263868
 20
-1.484116
 10
38.23634
 20
-1.250648
  0
LWPOLYLINE
  5
12C
100
AcDbEntity
  8
BLACK
  6
ByLayer
 62
    7
370
   -1
100
AcDbPolyline
 90
    2
 70
    0
 43
0
 10
31.01721
 20
-1.484116
 10
31.048972
 20
-1.250648
  0
LWPOLYLINE
  5
12D
100
AcDbEntity
  8
BLACK
  6
ByLayer
 62
    7
370
   -1
100
AcDbPolyline
 90
    2
 70
    0
 43
0
 10
31.017257
 20
-0.168332
 10
31.062833
 20
-0.188017
  0
LWPOLYLINE
  5
12E
100
AcDbEntity
  8
BLACK
  6
ByLayer
 62
    7
370
   -1
100
AcDbPolyline
 90
    2
 70
    0
 43
0
 10
38.268055
 20
-0.168332
 10
38.222479
 20
-0.188017
  0
LWPOLYLINE
  5
12F
100
AcDbEntity
  8
BLACK
  6
ByLayer
 62
    7
370
   -1
100
AcDbPolyline
 90
    2
 70
    0
 43
0
 10
31.062833
 20
-0.188017
 10
31.116689
 20
-0.225415
  0
LWPOLYLINE
  5
130
100
AcDbEntity
  8
BLACK
  6
ByLayer
 62
    7
370
   -1
100
AcDbPolyline
 90
    2
 70
    0
 43
0
 10
31.116689
 20
-0.225415
 10
31.162328
 20
-0.276701
  0
LWPOLYLINE
  5
131
100
AcDbEntity
  8
BLACK
  6
ByLayer
 62
    7
370
   -1
100
AcDbPolyline
 90
    2
 70
    0
 43
0
 10
31.162328
 20
-0.276701
 10
31.205006
 20
-0.353184
  0
LWPOLYLINE
  5
132
100
AcDbEntity
  8
BLACK
  6
ByLayer
 62
    7
370
   -1
100
AcDbPolyline
 90
    2
 70
    0
 43
0
 10
31.205006
 20
-0.353184
 10
31.254643
 20
-0.498439
  0
LWPOLYLINE
  5
133
100
AcDbEntity
  8
BLACK
  6
ByLayer
 62
    7
370
   -1
100
AcDbPolyline
 90
    2
 70
    0
 43
0
 10
31.254643
 20
-0.498439
 10
31.276751
 20
-0.6316349999999999
  0
LWPOLYLINE
  5
134
100
AcDbEntity
  8
BLACK
  6
ByLayer
 62
    7
370
   -1
100
AcDbPolyline
 90
    2
 70
    0
 43
0
 10
31.276751
 20
-0.6316349999999999
 10
31.278608
 20
-0.712001
  0
LWPOLYLINE
  5
135
100
AcDbEntity
  8
BLACK
  6
ByLayer
 62
    7
370
   -1
100
AcDbPolyline
 90
    2
 70
    0
 43
0
 10
31.278608
 20
-0.712001
 10
31.262638
 20
-0.834904
  0
LWPOLYLINE
  5
136
100
AcDbEntity
  8
BLACK
  6
ByLayer
 62
    7
370
   -1
100
AcDbPolyline
 90
    2
 70
    0
 43
0
 10
31.262638
 20
-0.834904
 10
31.222529
 20
-0.961914
  0
LWPOLYLINE
  5
137
100
AcDbEntity
  8
BLACK
  6
ByLayer
 62
    7
370
   -1
100
AcDbPolyline
 90
    2
 70
    0
 43
0
 10
31.222529
 20
-0.961914
 10
31.156067
 20
-1.095608
  0
LWPOLYLINE
  5
138
100
AcDbEntity
  8
BLACK
  6
ByLayer
 62
    7
370
   -1
100
AcDbPolyline
 90
    2
 70
    0
 43
0
 10
38.168624
 20
-0.225415
 10
38.222479
 20
-0.188017
  0
LWPOLYLINE
  5
139
100
AcDbEntity
  8
BLACK
  6
ByLayer
 62
    7
370
   -1
100
AcDbPolyline
 90
    2
 70
    0
 43
0
 10
38.122984
 20
-0.276701
 10
38.168624
 20
-0.225415
  0
LWPOLYLINE
  5
13A
100
AcDbEntity
  8
BLACK
  6
ByLayer
 62
    7
370
   -1
100
AcDbPolyline
 90
    2
 70
    0
 43
0
 10
38.080307
 20
-0.353184
 10
38.122984
 20
-0.276701
  0
LWPOLYLINE
  5
13B
100
AcDbEntity
  8
BLACK
  6
ByLayer
 62
    7
370
   -1
100
AcDbPolyline
 90
    2
 70
    0
 43
0
 10
38.030669
 20
-0.498439
 10
38.080307
 20
-0.353184
  0
LWPOLYLINE
  5
13C
100
AcDbEntity
  8
BLACK
  6
ByLayer
 62
    7
370
   -1
100
AcDbPolyline
 90
    2
 70
    0
 43
0
 10
38.008562
 20
-0.6316349999999999
 10
38.030669
 20
-0.498439
  0
LWPOLYLINE
  5
13D
100
AcDbEntity
  8
BLACK
  6
ByLayer
 62
    7
370
   -1
100
AcDbPolyline
 90
    2
 70
    0
 43
0
 10
38.006704
 20
-0.712001
 10
38.008562
 20
-0.6316349999999999
  0
LWPOLYLINE
  5
13E
100
AcDbEntity
  8
BLACK
  6
ByLayer
 62
    7
370
   -1
100
AcDbPolyline
 90
    2
 70
    0
 43
0
 10
38.022674
 20
-0.834904
 10
38.006704
 20
-0.712001
  0
LWPOLYLINE
  5
13F
100
AcDbEntity
  8
BLACK
  6
ByLayer
 62
    7
370
   -1
100
AcDbPolyline
 90
    2
 70
    0
 43
0
 10
38.062784
 20
-0.961914
 10
38.022674
 20
-0.834904
  0
LWPOLYLINE
  5
140
100
AcDbEntity
  8
BLACK
  6
ByLayer
 62
    7
370
   -1
100
AcDbPolyline
 90
    2
 70
    0
 43
0
 10
38.129245
 20
-1.095608
 10
38.062784
 20
-0.961914
  0
LWPOLYLINE
  5
141
100
AcDbEntity
  8
BLACK
  6
ByLayer
 62
    7
370
   -1
100
AcDbPolyline
 90
    2
 70
    0
 43
0
 10
31.156067
 20
-1.095608
 10
31.048972
 20
-1.250648
  0
LWPOLYLINE
  5
142
100
AcDbEntity
  8
BLACK
  6
ByLayer
 62
    7
370
   -1
100
AcDbPolyline
 90
    2
 70
    0
 43
0
 10
38.23634
 20
-1.250648
 10
38.129245
 20
-1.095608
  0
LWPOLYLINE
  5
143
100
AcDbEntity
  8
BLACK
  6
ByLayer
 62
    7
370
   -1
100
AcDbPolyline
 90
    2
 70
    0
 43
0
 10
38.188741
 20
0.362212
 10
38.228335
 20
0.272101
  0
LWPOLYLINE
  5
144
100
AcDbEntity
  8
BLACK
  6
ByLayer
 62
    7
370
   -1
100
AcDbPolyline
 90
    2
 70
    0
 43
0
 10
31.096571
 20
0.362212
 10
31.056977
 20
0.272101
  0
LWPOLYLINE
  5
145
100
AcDbEntity
  8
BLACK
  6
ByLayer
 62
    7
370
   -1
100
AcDbPolyline
 90
    2
 70
    0
 43
0
 10
31.056977
 20
0.272101
 10
31.017792
 20
0.131124
  0
LWPOLYLINE
  5
146
100
AcDbEntity
  8
BLACK
  6
ByLayer
 62
    7
370
   -1
100
AcDbPolyline
 90
    2
 70
    0
 43
0
 10
38.267521
 20
0.131124
 10
38.228335
 20
0.272101
  0
LWPOLYLINE
  5
147
100
AcDbEntity
  8
BLACK
  6
ByLayer
 62
    7
370
   -1
100
AcDbPolyline
 90
    2
 70
    0
 43
0
 10
31.017792
 20
0.131124
 10
31.004266
 20
-0.016117
  0
LWPOLYLINE
  5
148
100
AcDbEntity
  8
BLACK
  6
ByLayer
 62
    7
370
   -1
100
AcDbPolyline
 90
    2
 70
    0
 43
0
 10
38.281046
 20
-0.016117
 10
38.267521
 20
0.131124
  0
LWPOLYLINE
  5
149
100
AcDbEntity
  8
BLACK
  6
ByLayer
 62
    7
370
   -1
100
AcDbPolyline
 90
    2
 70
    0
 43
0
 10
38.281046
 20
-0.016117
 10
38.268055
 20
-0.168332
  0
LWPOLYLINE
  5
14A
100
AcDbEntity
  8
BLACK
  6
ByLayer
 62
    7
370
   -1
100
AcDbPolyline
 90
    2
 70
    0
 43
0
 10
31.004266
 20
-0.016117
 10
31.017257
 20
-0.168332
  0
LWPOLYLINE
  5
14B
100
AcDbEntity
  8
BLACK
  6
ByLayer
 62
    7
370
   -1
100
AcDbPolyline
 90
    2
 70
    0
 43
0
 10
32.394922
 20
-0.168332
 10
32.394922
 20
-0.225415
  0
LWPOLYLINE
  5
14C
100
AcDbEntity
  8
BLACK
  6
ByLayer
 62
    7
370
   -1
100
AcDbPolyline
 90
    2
 70
    0
 43
0
 10
36.890391
 20
-0.168332
 10
36.890391
 20
-0.225415
  0
LWPOLYLINE
  5
14D
100
AcDbEntity
  8
BLACK
  6
ByLayer
 62
    7
370
   -1
100
AcDbPolyline
 90
    2
 70
    0
 43
0
 10
36.890391
 20
-1.627838
 10
36.890391
 20
-1.628975
  0
LWPOLYLINE
  5
14E
100
AcDbEntity
  8
BLACK
  6
ByLayer
 62
    7
370
   -1
100
AcDbPolyline
 90
    2
 70
    0
 43
0
 10
-43.363161
 20
-11.63779
 10
-43.363161
 20
-9.637790000000001
  0
LWPOLYLINE
  5
14F
100
AcDbEntity
  8
BLACK
  6
ByLayer
 62
    7
370
   -1
100
AcDbPolyline
 90
    2
 70
    0
 43
0
 10
40.636839
 20
-11.63779
 10
40.636839
 20
-9.637790000000001
  0
LWPOLYLINE
  5
150
100
AcDbEntity
  8
BLACK
  6
ByLayer
 62
    7
370
   -1
100
AcDbPolyline
 90
    2
 70
    0
 43
0
 10
40.636839
 20
-11.63779
 10
-43.363161
 20
-11.63779
  0
LWPOLYLINE
  5
151
100
AcDbEntity
  8
BLACK
  6
ByLayer
 62
    7
370
   -1
100
AcDbPolyline
 90
    2
 70
    0
 43
0
 10
-40.312955
 20
-8.018317
 10
-40.449385
 20
-8.084210000000001
  0
LWPOLYLINE
  5
152
100
AcDbEntity
  8
BLACK
  6
ByLayer
 62
    7
370
   -1
100
AcDbPolyline
 90
    2
 70
    0
 43
0
 10
37.586633
 20
-8.018317
 10
37.723063
 20
-8.084210000000001
  0
LWPOLYLINE
  5
153
100
AcDbEntity
  8
BLACK
  6
ByLayer
 62
    7
370
   -1
100
AcDbPolyline
 90
    2
 70
    0
 43
0
 10
-31.363161
 20
-9.637790000000001
 10
-33.553116
 20
-9.637790000000001
  0
LWPOLYLINE
  5
154
100
AcDbEntity
  8
BLACK
  6
ByLayer
 62
    7
370
   -1
100
AcDbPolyline
 90
    2
 70
    0
 43
0
 10
30.826794
 20
-9.637790000000001
 10
28.636839
 20
-9.637790000000001
  0
LWPOLYLINE
  5
155
100
AcDbEntity
  8
BLACK
  6
ByLayer
 62
    7
370
   -1
100
AcDbPolyline
 90
    2
 70
    0
 43
0
 10
-41.18484
 20
-9.637790000000001
 10
-43.363161
 20
-9.637790000000001
  0
LWPOLYLINE
  5
156
100
AcDbEntity
  8
BLACK
  6
ByLayer
 62
    7
370
   -1
100
AcDbPolyline
 90
    2
 70
    0
 43
0
 10
40.636839
 20
-9.637790000000001
 10
38.458518
 20
-9.637790000000001
  0
LWPOLYLINE
  5
157
100
AcDbEntity
  8
BLACK
  6
ByLayer
 62
    7
370
   -1
100
AcDbPolyline
 90
    2
 70
    0
 43
0
 10
-41.18484
 20
-9.637790000000001
 10
-33.553116
 20
-9.637790000000001
  0
LWPOLYLINE
  5
158
100
AcDbEntity
  8
BLACK
  6
ByLayer
 62
    7
370
   -1
100
AcDbPolyline
 90
    2
 70
    0
 43
0
 10
-33.584856
 20
-8.848160999999999
 10
-41.148396
 20
-8.848160999999999
  0
LWPOLYLINE
  5
159
100
AcDbEntity
  8
BLACK
  6
ByLayer
 62
    7
370
   -1
100
AcDbPolyline
 90
    2
 70
    0
 43
0
 10
-34.283124
 20
-8.084210000000001
 10
-40.449385
 20
-8.084210000000001
  0
LWPOLYLINE
  5
15A
100
AcDbEntity
  8
BLACK
  6
ByLayer
 62
    7
370
   -1
100
AcDbPolyline
 90
    2
 70
    0
 43
0
 10
-34.552918
 20
-6.959394
 10
-40.180762
 20
-6.959394
  0
LWPOLYLINE
  5
15B
100
AcDbEntity
  8
BLACK
  6
ByLayer
 62
    7
370
   -1
100
AcDbPolyline
 90
    2
 70
    0
 43
0
 10
-34.552918
 20
-6.61984
 10
-40.181749
 20
-6.61984
  0
LWPOLYLINE
  5
15C
100
AcDbEntity
  8
BLACK
  6
ByLayer
 62
    7
370
   -1
100
AcDbPolyline
 90
    2
 70
    0
 43
0
 10
-33.743532
 20
-1.484116
 10
-40.99019
 20
-1.484116
  0
LWPOLYLINE
  5
15D
100
AcDbEntity
  8
BLACK
  6
ByLayer
 62
    7
370
   -1
100
AcDbPolyline
 90
    2
 70
    0
 43
0
 10
-33.775294
 20
-1.250648
 10
-40.962662
 20
-1.250648
  0
LWPOLYLINE
  5
15E
100
AcDbEntity
  8
BLACK
  6
ByLayer
 62
    7
370
   -1
100
AcDbPolyline
 90
    2
 70
    0
 43
0
 10
-33.743579
 20
-0.168332
 10
-35.121244
 20
-0.168332
  0
LWPOLYLINE
  5
15F
100
AcDbEntity
  8
BLACK
  6
ByLayer
 62
    7
370
   -1
100
AcDbPolyline
 90
    2
 70
    0
 43
0
 10
-39.616712
 20
-0.168332
 10
-35.121244
 20
-0.168332
  0
LWPOLYLINE
  5
160
100
AcDbEntity
  8
BLACK
  6
ByLayer
 62
    7
370
   -1
100
AcDbPolyline
 90
    2
 70
    0
 43
0
 10
-40.994377
 20
-0.168332
 10
-39.616712
 20
-0.168332
  0
LWPOLYLINE
  5
161
100
AcDbEntity
  8
BLACK
  6
ByLayer
 62
    7
370
   -1
100
AcDbPolyline
 90
    2
 70
    0
 43
0
 10
-40.915063
 20
0.362212
 10
-33.822893
 20
0.362212
  0
LWPOLYLINE
  5
162
100
AcDbEntity
  8
BLACK
  6
ByLayer
 62
    7
370
   -1
100
AcDbPolyline
 90
    2
 70
    0
 43
0
 10
30.858534
 20
-8.848160999999999
 10
38.422074
 20
-8.848160999999999
  0
LWPOLYLINE
  5
163
100
AcDbEntity
  8
BLACK
  6
ByLayer
 62
    7
370
   -1
100
AcDbPolyline
 90
    2
 70
    0
 43
0
 10
38.458518
 20
-9.637790000000001
 10
30.826794
 20
-9.637790000000001
  0
LWPOLYLINE
  5
164
100
AcDbEntity
  8
BLACK
  6
ByLayer
 62
    7
370
   -1
100
AcDbPolyline
 90
    2
 70
    0
 43
0
 10
37.723063
 20
-8.084210000000001
 10
31.556802
 20
-8.084210000000001
  0
LWPOLYLINE
  5
165
100
AcDbEntity
  8
BLACK
  6
ByLayer
 62
    7
370
   -1
100
AcDbPolyline
 90
    2
 70
    0
 43
0
 10
31.826596
 20
-6.959394
 10
37.45444
 20
-6.959394
  0
LWPOLYLINE
  5
166
100
AcDbEntity
  8
BLACK
  6
ByLayer
 62
    7
370
   -1
100
AcDbPolyline
 90
    2
 70
    0
 43
0
 10
31.826596
 20
-6.61984
 10
37.455428
 20
-6.61984
  0
LWPOLYLINE
  5
167
100
AcDbEntity
  8
BLACK
  6
ByLayer
 62
    7
370
   -1
100
AcDbPolyline
 90
    2
 70
    0
 43
0
 10
31.01721
 20
-1.484116
 10
38.263868
 20
-1.484116
  0
LWPOLYLINE
  5
168
100
AcDbEntity
  8
BLACK
  6
ByLayer
 62
    7
370
   -1
100
AcDbPolyline
 90
    2
 70
    0
 43
0
 10
31.048972
 20
-1.250648
 10
38.23634
 20
-1.250648
  0
LWPOLYLINE
  5
169
100
AcDbEntity
  8
BLACK
  6
ByLayer
 62
    7
370
   -1
100
AcDbPolyline
 90
    2
 70
    0
 43
0
 10
38.268055
 20
-0.168332
 10
36.890391
 20
-0.168332
  0
LWPOLYLINE
  5
16A
100
AcDbEntity
  8
BLACK
  6
ByLayer
 62
    7
370
   -1
100
AcDbPolyline
 90
    2
 70
    0
 43
0
 10
32.394922
 20
-0.168332
 10
36.890391
 20
-0.168332
  0
LWPOLYLINE
  5
16B
100
AcDbEntity
  8
BLACK
  6
ByLayer
 62
    7
370
   -1
100
AcDbPolyline
 90
    2
 70
    0
 43
0
 10
31.017257
 20
-0.168332
 10
32.394922
 20
-0.168332
  0
LWPOLYLINE
  5
16C
100
AcDbEntity
  8
BLACK
  6
ByLayer
 62
    7
370
   -1
100
AcDbPolyline
 90
    2
 70
    0
 43
0
 10
31.096571
 20
0.362212
 10
38.188741
 20
0.362212
  0
LWPOLYLINE
  5
16D
100
AcDbEntity
  8
BLACK
  6
ByLayer
 62
    7
370
   -1
100
AcDbPolyline
 90
    2
 70
    0
 43
0
 10
-30.362661
 20
17.350672
 10
-31.363161
 20
17.350672
  0
ENDSEC
  0
SECTION
  2
OBJECTS
  0
DICTIONARY
  5
C
330
0
100
AcDbDictionary
281
    1
  3
ACAD_GROUP
350
D
  0
DICTIONARY
  5
D
330
C
100
AcDbDictionary
281
    1
  0
PLOTSETTINGS
  5
16E
100
AcDbPlotSettings
  6
1x1
 40
0
 41
0
 42
0
 43
0
  0
ENDSEC
  0
EOF
