<?xml version="1.0" encoding="UTF-8"?>
<svg id="Layer_1" xmlns="http://www.w3.org/2000/svg" xmlns:xlink="http://www.w3.org/1999/xlink" version="1.1" viewBox="0 0 628.5 272.9">
  <!-- Generator: Adobe Illustrator 30.0.0, SVG Export Plug-In . SVG Version: 2.1.1 Build 123)  -->
  <defs>
    <style>
      .st0 {
        fill: url(#radial-gradient);
      }

      .st1, .st2 {
        fill: none;
        stroke: #e6e6e6;
        stroke-miterlimit: 10;
      }

      .st3 {
        fill: url(#radial-gradient1);
      }

      .st2 {
        stroke-width: 2px;
      }
    </style>
    <radialGradient id="radial-gradient" cx="551.7" cy="178.6" fx="551.7" fy="178.6" r="24.1" gradientTransform="translate(61.4 -126.2) rotate(14.1)" gradientUnits="userSpaceOnUse">
      <stop offset="0" stop-color="#fff"/>
      <stop offset=".1" stop-color="#fff" stop-opacity=".8"/>
      <stop offset=".3" stop-color="#fff" stop-opacity=".6"/>
      <stop offset=".4" stop-color="#fff" stop-opacity=".4"/>
      <stop offset=".5" stop-color="#fff" stop-opacity=".3"/>
      <stop offset=".6" stop-color="#fff" stop-opacity=".1"/>
      <stop offset=".8" stop-color="#fff" stop-opacity="0"/>
      <stop offset=".9" stop-color="#fff" stop-opacity="0"/>
      <stop offset="1" stop-color="#fff" stop-opacity="0"/>
    </radialGradient>
    <radialGradient id="radial-gradient1" cx="7.2" cy="191.7" fx="7.2" fy="191.7" r="24.1" gradientTransform="translate(48.8 -6) rotate(14.1)" xlink:href="#radial-gradient"/>
  </defs>
  <rect class="st1" x="0" y="248.8" width="628.5" height="23.8"/>
  <path class="st2" d="M-52.4,223.3"/>
  <path class="st2" d="M488.9,223.3"/>
  <ellipse class="st0" cx="562.4" cy="188.7" rx="13.9" ry="20.5" transform="translate(-30.8 185.7) rotate(-18.3)"/>
  <ellipse class="st3" cx="18.4" cy="189" rx="13.9" ry="20.5" transform="translate(-63.9 17.9) rotate(-20.1)"/>
  <path class="st1" d="M74.3,240.8c-2.6-.9-4.2-1.8-4.6-3-.4-1.1-.6-3.3-1.7-3.8-1-.5-3.8-1.3-4.6-2.3-.8-1-2-4.3-.7-5.8,1.3-1.5,2.7-2.6,2.7-2.6v-3.4s8.2-10.9,11.8-20.2c3.6-9.3,4.1-21.4,1-25.8-2.4-3.5-2.8-3.9-2.8-3.9v-2c0,0-3.4-2.9-3.3-4.5,0-1.6,0-3.7,3.4-6,0,0,.5-2.1,0-3.1-.6-1-1-1.6-1-1.6H8.8s-.5.6-1,1.6c-.6,1,0,3.1,0,3.1,3.4,2.3,3.4,4.4,3.4,6,0,1.6-3.4,4.5-3.4,4.5v2s-.3.4-2.7,3.9c-3,4.4-2.6,16.5,1,25.8,3.6,9.3,11.8,20.2,11.8,20.2v3.4s1.4,1.1,2.7,2.6c1.3,1.5,0,4.8-.7,5.8-.8,1-3.5,1.8-4.6,2.3-1,.5-1.3,2.6-1.7,3.8-.4,1.1-2.1,2.1-4.6,3s-4.2,1.8-4.8,3.4.8,4.9.8,4.9h73.4s1.4-3.3.8-4.9-2.2-2.6-4.8-3.4Z"/>
  <path class="st1" d="M619.1,240.8c-2.6-.9-4.2-1.8-4.6-3-.4-1.1-.6-3.3-1.7-3.8-1-.5-3.8-1.3-4.6-2.3-.8-1-2-4.3-.7-5.8,1.3-1.5,2.7-2.6,2.7-2.6v-3.4s8.2-10.9,11.8-20.2c3.6-9.3,4.1-21.4,1-25.8-2.4-3.5-2.8-3.9-2.8-3.9v-2c0,0-3.4-2.9-3.3-4.5,0-1.6,0-3.7,3.4-6,0,0,.5-2.1,0-3.1-.6-1-1-1.6-1-1.6h-65.6s-.5.6-1,1.6c-.6,1,0,3.1,0,3.1,3.4,2.3,3.4,4.4,3.4,6,0,1.6-3.4,4.5-3.4,4.5v2s-.3.4-2.7,3.9c-3,4.4-2.6,16.5,1,25.8,3.6,9.3,11.8,20.2,11.8,20.2v3.4s1.4,1.1,2.7,2.6c1.3,1.5,0,4.8-.7,5.8-.8,1-3.5,1.8-4.6,2.3-1,.5-1.3,2.6-1.7,3.8-.4,1.1-2.1,2.1-4.6,3s-4.2,1.8-4.8,3.4c-.6,1.6.8,4.9.8,4.9h73.4s1.4-3.3.8-4.9c-.6-1.6-2.2-2.6-4.8-3.4Z"/>
  <line class="st2" x1="7.7" y1="157.6" x2="75.6" y2="157.6"/>
  <line class="st2" x1="7.9" y1="170.1" x2="75.5" y2="170.1"/>
  <line class="st2" x1="13.7" y1="237.8" x2="69.7" y2="237.8"/>
  <line class="st2" x1="552.5" y1="157.6" x2="620.4" y2="157.6"/>
  <line class="st2" x1="552.7" y1="170.1" x2="620.2" y2="170.1"/>
  <line class="st2" x1="558.4" y1="237.8" x2="614.5" y2="237.8"/>
  <path class="st1" d="M417.2,6.9C374.8.5,319.6.4,314.7.3h0s-.4,0-.4,0h0c-4.9.1-60.2.2-102.5,6.6-57.6,8.7-126.9,9.2-126.9,9.2v232.7h458.9V16.1s-68.9-.5-126.5-9.2Z"/>
</svg>