<?xml version="1.0" encoding="UTF-8"?>
<svg id="Layer_1" xmlns="http://www.w3.org/2000/svg" xmlns:xlink="http://www.w3.org/1999/xlink" version="1.1" viewBox="0 0 628.5 272.9">
  <!-- Generator: Adobe Illustrator 30.0.0, SVG Export Plug-In . SVG Version: 2.1.1 Build 123)  -->
  <defs>
    <style>
      .st0 {
        fill: url(#radial-gradient);
      }

      .st1 {
        fill: #e6e6e6;
        opacity: .3;
      }

      .st2, .st3 {
        fill: none;
        stroke: #e6e6e6;
        stroke-miterlimit: 10;
      }

      .st4 {
        fill: url(#radial-gradient1);
      }

      .st3 {
        stroke-width: 2px;
      }
    </style>
    <radialGradient id="radial-gradient" cx="487.8" cy="1077.9" fx="487.8" fy="1077.9" r="24.1" gradientTransform="translate(341.2 -982.2) rotate(14.1)" gradientUnits="userSpaceOnUse">
      <stop offset="0" stop-color="#fff"/>
      <stop offset="0" stop-color="#fff" stop-opacity=".8"/>
      <stop offset=".3" stop-color="#fff" stop-opacity=".6"/>
      <stop offset=".4" stop-color="#fff" stop-opacity=".4"/>
      <stop offset=".5" stop-color="#fff" stop-opacity=".3"/>
      <stop offset=".6" stop-color="#fff" stop-opacity=".1"/>
      <stop offset=".8" stop-color="#fff" stop-opacity="0"/>
      <stop offset=".9" stop-color="#fff" stop-opacity="0"/>
      <stop offset="1" stop-color="#fff" stop-opacity="0"/>
    </radialGradient>
    <radialGradient id="radial-gradient1" cx="-81.4" cy="1128.4" fx="-81.4" fy="1128.4" r="24.1" gradientTransform="translate(365.6 -893) rotate(14.1)" gradientUnits="userSpaceOnUse">
      <stop offset="0" stop-color="#fff"/>
      <stop offset="0" stop-color="#fff" stop-opacity=".8"/>
      <stop offset=".3" stop-color="#fff" stop-opacity=".6"/>
      <stop offset=".4" stop-color="#fff" stop-opacity=".4"/>
      <stop offset=".5" stop-color="#fff" stop-opacity=".3"/>
      <stop offset=".6" stop-color="#fff" stop-opacity=".1"/>
      <stop offset=".8" stop-color="#fff" stop-opacity="0"/>
      <stop offset=".9" stop-color="#fff" stop-opacity="0"/>
      <stop offset="1" stop-color="#fff" stop-opacity="0"/>
    </radialGradient>
  </defs>
  <ellipse class="st0" cx="561" cy="189.2" rx="13.9" ry="20.5" transform="translate(-31 185.7) rotate(-18.3)"/>
  <rect class="st2" x="86.4" y="9.4" width="455.8" height="239.7"/>
  <rect class="st2" y="249.1" width="628.5" height="23.8"/>
  <path class="st3" d="M-52.4,223.3"/>
  <path class="st3" d="M488.9,223.3"/>
  <path class="st3" d="M558.5,223.3"/>
  <path class="st3" d="M558.9,223.3"/>
  <ellipse class="st4" cx="21.4" cy="189" rx="13.9" ry="20.5" transform="translate(-63.6 18.8) rotate(-20.1)"/>
  <path class="st2" d="M77.2,240.8c-2.6-.9-4.2-1.8-4.6-3-.4-1.1-.6-3.3-1.7-3.8-1-.5-3.8-1.3-4.6-2.3-.8-1-2-4.3-.7-5.8s2.7-2.6,2.7-2.6v-3.4s8.2-10.9,11.8-20.2c3.6-9.3,4.1-21.4,1-25.8-2.4-3.5-2.8-3.9-2.8-3.9v-2s-3.4-2.9-3.3-4.5c0-1.6,0-3.7,3.4-6,0,0,.5-2.1,0-3.1-.6-1-1-1.6-1-1.6H11.7s-.5.6-1,1.6c-.6,1,0,3.1,0,3.1,3.4,2.3,3.4,4.4,3.4,6s-3.4,4.5-3.4,4.5v2s-.3.4-2.7,3.9c-3,4.4-2.6,16.5,1,25.8,3.6,9.3,11.8,20.2,11.8,20.2v3.4s1.4,1.1,2.7,2.6c1.3,1.5,0,4.8-.7,5.8-.8,1-3.5,1.8-4.6,2.3-1,.5-1.3,2.6-1.7,3.8-.4,1.1-2.1,2.1-4.6,3s-4.2,1.8-4.8,3.4.8,4.9.8,4.9h73.4s1.4-3.3.8-4.9-2.2-2.6-4.8-3.4h-.1Z"/>
  <line class="st3" x1="10.6" y1="157.6" x2="78.5" y2="157.6"/>
  <line class="st3" x1="10.8" y1="170.1" x2="78.3" y2="170.1"/>
  <line class="st3" x1="16.5" y1="237.8" x2="72.6" y2="237.8"/>
  <path class="st2" d="M616.6,240.8c-2.6-.9-4.2-1.8-4.6-3-.4-1.1-.6-3.3-1.7-3.8-1-.5-3.8-1.3-4.6-2.3s-2-4.3-.7-5.8,2.7-2.6,2.7-2.6v-3.4s8.2-10.9,11.8-20.2,4.1-21.4,1-25.8c-2.4-3.5-2.8-3.9-2.8-3.9v-2s-3.4-2.9-3.3-4.5c0-1.6,0-3.7,3.4-6,0,0,.5-2.1,0-3.1-.6-1-1-1.6-1-1.6h-65.6s-.5.6-1,1.6c-.6,1,0,3.1,0,3.1,3.4,2.3,3.4,4.4,3.4,6s-3.4,4.5-3.4,4.5v2s-.3.4-2.7,3.9c-3,4.4-2.6,16.5,1,25.8s11.8,20.2,11.8,20.2v3.4s1.4,1.1,2.7,2.6,0,4.8-.7,5.8c-.8,1-3.5,1.8-4.6,2.3-1,.5-1.3,2.6-1.7,3.8-.4,1.1-2.1,2.1-4.6,3s-4.2,1.8-4.8,3.4c-.6,1.6.8,4.9.8,4.9h73.4s1.4-3.3.8-4.9c-.6-1.6-2.2-2.6-4.8-3.4h-.2Z"/>
  <line class="st3" x1="550" y1="157.6" x2="617.9" y2="157.6"/>
  <line class="st3" x1="550.2" y1="170.1" x2="617.7" y2="170.1"/>
  <line class="st3" x1="555.9" y1="237.8" x2="612" y2="237.8"/>
  <rect class="st2" x="94.1" y=".8" width="440.4" height="8.6"/>
  <rect class="st1" x="94.1" y=".8" width="440.4" height="8.6"/>
</svg>