<?xml version="1.0" encoding="UTF-8"?>
<svg id="Layer_1" xmlns="http://www.w3.org/2000/svg" xmlns:xlink="http://www.w3.org/1999/xlink" version="1.1" viewBox="0 0 628.5 272.9">
  <!-- Generator: Adobe Illustrator 30.0.0, SVG Export Plug-In . SVG Version: 2.1.1 Build 123)  -->
  <defs>
    <style>
      .st0 {
        display: none;
      }
    </style>
  </defs>
  <g id="mE4cUA.tif" class="st0">
    <image id="Layer_0" width="1700" height="910" transform="translate(-26.4 -16.5) scale(.4)" xlink:href="estate10-1.png"/>
  </g>
  <path d="M612.3,249.1s1.1-3.3.6-4.9c-.5-1.6-1.7-2.6-3.6-3.4-1.9-.9-3.2-1.8-3.5-3s-.5-3.3-1.3-3.8-2.8-1.3-3.4-2.3c-.6-1-1.5-4.3-.5-5.8,1-1.5,2-2.6,2-2.6v-3.4s6.1-10.9,8.9-20.2c2.7-9.3,3.1-21.4.8-25.8-1.8-3.5-2.1-3.9-2.1-3.9v-2c0,0-2.5-2.9-2.5-4.5,0-1.6,0-3.7,2.6-6,0,0,.4-2.1,0-3.1-.4-1-.8-1.6-.8-1.6h-49.4s-.4.6-.8,1.6c-.4,1,0,3.1,0,3.1,2.5,2.3,2.5,4.4,2.6,6,0,1.6-2.5,4.5-2.5,4.5v2s-.2.4-2,3.9c-2.3,4.4-1.9,16.5.8,25.8,2.7,9.3,8.9,20.2,8.9,20.2v3.4s1.1,1.1,2,2.6c1,1.5,0,4.8-.5,5.8-.6,1-2.7,1.8-3.4,2.3s-1,2.6-1.3,3.8c-.3,1.1-1.6,2.1-3.5,3-1.9.9-3.1,1.8-3.6,3.4-.5,1.6.6,4.9.6,4.9h-14.9V9.4h-7.7V.8H94.1v8.6h-7.7v239.7h-15.3s1.1-3.3.6-4.9c-.5-1.6-1.7-2.6-3.6-3.4s-3.2-1.8-3.5-3-.5-3.3-1.3-3.8c-.8-.5-2.8-1.3-3.4-2.3-.6-1-1.5-4.3-.5-5.8,1-1.5,2-2.6,2-2.6v-3.4s6.1-10.9,8.9-20.2c2.7-9.3,3.1-21.4.8-25.8-1.8-3.5-2.1-3.9-2.1-3.9v-2c0,0-2.5-2.9-2.5-4.5,0-1.6,0-3.7,2.6-6,0,0,.4-2.1,0-3.1-.4-1-.8-1.6-.8-1.6H18.7s-.4.6-.8,1.6c-.4,1,0,3.1,0,3.1,2.5,2.3,2.5,4.4,2.6,6s-2.5,4.5-2.5,4.5v2s-.2.4-2,3.9c-2.3,4.4-1.9,16.5.8,25.8,2.7,9.3,8.9,20.2,8.9,20.2v3.4s1.1,1.1,2,2.6c1,1.5,0,4.8-.5,5.8-.6,1-2.7,1.8-3.4,2.3-.8.5-1,2.6-1.3,3.8-.3,1.1-1.6,2.1-3.5,3-1.9.9-3.1,1.8-3.6,3.4-.5,1.6.6,4.9.6,4.9H0v23.8h628.5v-23.8h-16.2Z"/>
</svg>