<?xml version="1.0" encoding="UTF-8"?>
<svg id="Layer_1" xmlns="http://www.w3.org/2000/svg" xmlns:xlink="http://www.w3.org/1999/xlink" version="1.1" viewBox="0 0 809.1 297.2">
  <!-- Generator: Adobe Illustrator 30.0.0, SVG Export Plug-In . SVG Version: 2.1.1 Build 123)  -->
  <defs>
    <style>
      .st0 {
        fill: url(#radial-gradient);
      }

      .st1, .st2 {
        fill: none;
        stroke: #e6e6e6;
        stroke-miterlimit: 10;
      }

      .st3 {
        fill: url(#radial-gradient1);
      }

      .st2 {
        stroke-width: 2px;
      }
    </style>
    <radialGradient id="radial-gradient" cx="712.6" cy="208.1" fx="712.6" fy="208.1" r="24.1" gradientTransform="translate(73.6 -169.7) rotate(14.1)" gradientUnits="userSpaceOnUse">
      <stop offset="0" stop-color="#fff"/>
      <stop offset=".1" stop-color="#fff" stop-opacity=".8"/>
      <stop offset=".3" stop-color="#fff" stop-opacity=".6"/>
      <stop offset=".4" stop-color="#fff" stop-opacity=".4"/>
      <stop offset=".5" stop-color="#fff" stop-opacity=".3"/>
      <stop offset=".6" stop-color="#fff" stop-opacity=".1"/>
      <stop offset=".8" stop-color="#fff" stop-opacity="0"/>
      <stop offset=".9" stop-color="#fff" stop-opacity="0"/>
      <stop offset="1" stop-color="#fff" stop-opacity="0"/>
    </radialGradient>
    <radialGradient id="radial-gradient1" cx="25.7" cy="208.5" fx="25.7" fy="208.5" r="24.1" gradientTransform="translate(53 -2.5) rotate(14.1)" xlink:href="#radial-gradient"/>
  </defs>
  <ellipse class="st0" cx="723.4" cy="213" rx="13.9" ry="20.5" transform="translate(-30.3 237.3) rotate(-18.3)"/>
  <ellipse class="st3" cx="36.6" cy="213.3" rx="13.9" ry="20.5" transform="translate(-71.1 25.6) rotate(-20.1)"/>
  <path class="st1" d="M93.5,265.1c-2.6-.9-4.2-1.8-4.6-3-.4-1.1-.6-3.3-1.7-3.8-1-.5-3.8-1.3-4.6-2.3-.8-1-2-4.3-.7-5.8,1.3-1.5,2.7-2.6,2.7-2.6v-3.4s8.2-10.9,11.8-20.2c3.6-9.3,4.1-21.4,1-25.8-2.4-3.5-2.8-3.9-2.8-3.9v-2c0,0-3.4-2.9-3.3-4.5,0-1.6,0-3.7,3.4-6,0,0,.5-2.1,0-3.1-.6-1-1-1.6-1-1.6H28s-.5.6-1,1.6c-.6,1,0,3.1,0,3.1,3.4,2.3,3.4,4.4,3.4,6,0,1.6-3.4,4.5-3.4,4.5v2s-.3.4-2.7,3.9c-3,4.4-2.6,16.5,1,25.8,3.6,9.3,11.8,20.2,11.8,20.2v3.4s1.4,1.1,2.7,2.6c1.3,1.5,0,4.8-.7,5.8-.8,1-3.5,1.8-4.6,2.3-1,.5-1.3,2.6-1.7,3.8-.4,1.1-2.1,2.1-4.6,3s-4.2,1.8-4.8,3.4.8,4.9.8,4.9h73.4s1.4-3.3.8-4.9-2.2-2.6-4.8-3.4Z"/>
  <rect class="st1" x="0" y="273.4" width="809.1" height="23.8"/>
  <path class="st1" d="M780.3,265.1c-2.6-.9-4.2-1.8-4.6-3-.4-1.1-.6-3.3-1.7-3.8-1-.5-3.8-1.3-4.6-2.3-.8-1-2-4.3-.7-5.8,1.3-1.5,2.7-2.6,2.7-2.6v-3.4s8.2-10.9,11.8-20.2c3.6-9.3,4.1-21.4,1-25.8-2.4-3.5-2.8-3.9-2.8-3.9v-2c0,0-3.4-2.9-3.3-4.5,0-1.6,0-3.7,3.4-6,0,0,.5-2.1,0-3.1-.6-1-1-1.6-1-1.6h-65.6s-.5.6-1,1.6c-.6,1,0,3.1,0,3.1,3.4,2.3,3.4,4.4,3.4,6,0,1.6-3.4,4.5-3.4,4.5v2s-.3.4-2.7,3.9c-3,4.4-2.6,16.5,1,25.8,3.6,9.3,11.8,20.2,11.8,20.2v3.4s1.4,1.1,2.7,2.6c1.3,1.5,0,4.8-.7,5.8-.8,1-3.5,1.8-4.6,2.3-1,.5-1.3,2.6-1.7,3.8-.4,1.1-2.1,2.1-4.6,3s-4.2,1.8-4.8,3.4c-.6,1.6.8,4.9.8,4.9h73.4s1.4-3.3.8-4.9c-.6-1.6-2.2-2.6-4.8-3.4Z"/>
  <line class="st2" x1="26.9" y1="181.9" x2="94.8" y2="181.9"/>
  <path class="st2" d="M37,247.6"/>
  <line class="st2" x1="27" y1="194.4" x2="94.6" y2="194.4"/>
  <line class="st2" x1="32.8" y1="262.1" x2="88.8" y2="262.1"/>
  <line class="st2" x1="713.7" y1="181.9" x2="781.6" y2="181.9"/>
  <line class="st2" x1="713.9" y1="194.4" x2="781.5" y2="194.4"/>
  <line class="st2" x1="719.7" y1="262.1" x2="775.7" y2="262.1"/>
  <path class="st1" d="M521.9,8.3C468.2,1.8,410.7.7,404.6.6h0s-.6,0-.6,0h0c-6.2.1-63.6,1.2-117.3,7.7-73,8.8-173.5,12.4-173.5,12.4v252.7h581.7V20.6s-100-3.5-173-12.4Z"/>
</svg>