<?xml version="1.0" encoding="UTF-8"?>
<svg id="Layer_1" xmlns="http://www.w3.org/2000/svg" version="1.1" viewBox="0 0 628.5 272.9">
  <!-- Generator: Adobe Illustrator 30.0.0, SVG Export Plug-In . SVG Version: 2.1.1 Build 123)  -->
  <path d="M620.9,249.1s1.4-3.3.8-4.9c-.6-1.6-2.2-2.6-4.8-3.4h-.2c-2.6-.9-4.2-1.8-4.6-3-.4-1.1-.6-3.3-1.7-3.8-1-.5-3.8-1.3-4.6-2.3s-2-4.3-.7-5.8,2.7-2.6,2.7-2.6v-3.4s8.2-10.9,11.8-20.2,4.1-21.4,1-25.8c-2.4-3.5-2.8-3.9-2.8-3.9v-2s-3.4-2.9-3.3-4.5c0-1.6,0-3.7,3.4-6,0,0,.5-2.1,0-3.1-.6-1-1-1.6-1-1.6h-65.6s-.5.6-1,1.6c-.6,1,0,3.1,0,3.1,3.4,2.3,3.4,4.4,3.4,6s-3.4,4.5-3.4,4.5v2s-.3.4-2.7,3.9c-3,4.4-2.6,16.5,1,25.8s11.8,20.2,11.8,20.2v3.4s1.4,1.1,2.7,2.6,0,4.8-.7,5.8c-.8,1-3.5,1.8-4.6,2.3-1,.5-1.3,2.6-1.7,3.8-.4,1.1-2.1,2.1-4.6,3-2.5.9-4.2,1.8-4.8,3.4-.6,1.6.8,4.9.8,4.9h-5.4V29.9h-.3c-.1,0-.3-.1-.5-.2l-3.2-1.7-1.4-1.7c-1-2.2-1.8-5.7-1.8-5.7L314.2.9,93.6,20.6s-.7,3.3-1.7,5.4l-1.4,2-2.8,1.5c-.6.2-1,.3-1.2.4h-.2c0,0,0,0,0,0,0,0,0,0,0,0v219.1h-5.3s1.4-3.3.8-4.9c-.6-1.6-2.2-2.6-4.8-3.4h0c-2.6-.9-4.2-1.8-4.6-3-.4-1.1-.6-3.3-1.7-3.8-1-.5-3.8-1.3-4.6-2.3s-2-4.3-.7-5.8c1.3-1.5,2.7-2.6,2.7-2.6v-3.4s8.2-10.9,11.8-20.2c3.6-9.3,4.1-21.4,1-25.8-2.4-3.5-2.8-3.9-2.8-3.9v-2s-3.4-2.9-3.3-4.5c0-1.6,0-3.7,3.4-6,0,0,.5-2.1,0-3.1-.6-1-1-1.6-1-1.6H11.4s-.5.6-1,1.6c-.6,1,0,3.1,0,3.1,3.4,2.3,3.4,4.4,3.4,6s-3.4,4.5-3.4,4.5v2s-.3.4-2.7,3.9c-3,4.4-2.6,16.5,1,25.8,3.6,9.3,11.8,20.2,11.8,20.2v3.4s1.4,1.1,2.7,2.6,0,4.8-.7,5.8c-.8,1-3.5,1.8-4.6,2.3-1,.5-1.3,2.6-1.7,3.8-.4,1.1-2.1,2.1-4.6,3-2.5.9-4.2,1.8-4.8,3.4-.6,1.6.8,4.9.8,4.9H0v23.8h628.5v-23.8h-7.6Z"/>
</svg>