  0
SECTION
  2
ENTITIES
  0
POLYLINE
  8
PANEL11.PLT
 62
7
 66
1
 70
1
  0
VERTEX
  8
PANEL11.PLT
 62
7
 10
8.18500000
 20
-1.71900000
  0
VERTEX
  8
PANEL11.PLT
 62
7
 10
8.25589429
 20
-1.71515527
  0
VERTEX
  8
PANEL11.PLT
 62
7
 10
8.32727930
 20
-1.70886719
  0
VERTEX
  8
PANEL11.PLT
 62
7
 10
8.39870825
 20
-1.70012988
  0
VERTEX
  8
PANEL11.PLT
 62
7
 10
8.46973437
 20
-1.68893750
  0
VERTEX
  8
PANEL11.PLT
 62
7
 10
8.53991089
 20
-1.67528418
  0
VERTEX
  8
PANEL11.PLT
 62
7
 10
8.60879102
 20
-1.65916406
  0
VERTEX
  8
PANEL11.PLT
 62
7
 10
8.67592798
 20
-1.64057129
  0
VERTEX
  8
PANEL11.PLT
 62
7
 10
8.74087500
 20
-1.61950000
  0
VERTEX
  8
PANEL11.PLT
 62
7
 10
8.80318530
 20
-1.59594434
  0
VERTEX
  8
PANEL11.PLT
 62
7
 10
8.86241211
 20
-1.56989844
  0
VERTEX
  8
PANEL11.PLT
 62
7
 10
8.91810864
 20
-1.54135645
  0
VERTEX
  8
PANEL11.PLT
 62
7
 10
8.96982812
 20
-1.51031250
  0
VERTEX
  8
PANEL11.PLT
 62
7
 10
9.01712378
 20
-1.47676074
  0
VERTEX
  8
PANEL11.PLT
 62
7
 10
9.05954883
 20
-1.44069531
  0
VERTEX
  8
PANEL11.PLT
 62
7
 10
9.09665649
 20
-1.40211035
  0
VERTEX
  8
PANEL11.PLT
 62
7
 10
9.12800000
 20
-1.36100000
  0
VERTEX
  8
PANEL11.PLT
 62
7
 10
22.90900000
 20
-1.36100000
  0
VERTEX
  8
PANEL11.PLT
 62
7
 10
22.90900000
 20
7.00600000
  0
VERTEX
  8
PANEL11.PLT
 62
7
 10
21.77200000
 20
7.00500000
  0
VERTEX
  8
PANEL11.PLT
 62
7
 10
21.73479297
 20
7.07459766
  0
VERTEX
  8
PANEL11.PLT
 62
7
 10
21.70046875
 20
7.14534375
  0
VERTEX
  8
PANEL11.PLT
 62
7
 10
21.66909766
 20
7.21716797
  0
VERTEX
  8
PANEL11.PLT
 62
7
 10
21.64075000
 20
7.29000000
  0
VERTEX
  8
PANEL11.PLT
 62
7
 10
21.61549609
 20
7.36376953
  0
VERTEX
  8
PANEL11.PLT
 62
7
 10
21.59340625
 20
7.43840625
  0
VERTEX
  8
PANEL11.PLT
 62
7
 10
21.57455078
 20
7.51383984
  0
VERTEX
  8
PANEL11.PLT
 62
7
 10
21.55900000
 20
7.59000000
  0
VERTEX
  8
PANEL11.PLT
 62
7
 10
21.51900000
 20
7.81100000
  0
VERTEX
  8
PANEL11.PLT
 62
7
 10
21.31100000
 20
7.75700000
  0
VERTEX
  8
PANEL11.PLT
 62
7
 10
21.11984863
 20
7.71491943
  0
VERTEX
  8
PANEL11.PLT
 62
7
 10
20.92816406
 20
7.67498047
  0
VERTEX
  8
PANEL11.PLT
 62
7
 10
20.73597559
 20
7.63726221
  0
VERTEX
  8
PANEL11.PLT
 62
7
 10
20.54331250
 20
7.60184375
  0
VERTEX
  8
PANEL11.PLT
 62
7
 10
20.35020410
 20
7.56880420
  0
VERTEX
  8
PANEL11.PLT
 62
7
 10
20.15667969
 20
7.53822266
  0
VERTEX
  8
PANEL11.PLT
 62
7
 10
19.96276855
 20
7.51017822
  0
VERTEX
  8
PANEL11.PLT
 62
7
 10
19.76850000
 20
7.48475000
  0
VERTEX
  8
PANEL11.PLT
 62
7
 10
19.57390332
 20
7.46201709
  0
VERTEX
  8
PANEL11.PLT
 62
7
 10
19.37900781
 20
7.44205859
  0
VERTEX
  8
PANEL11.PLT
 62
7
 10
19.18384277
 20
7.42495361
  0
VERTEX
  8
PANEL11.PLT
 62
7
 10
18.98843750
 20
7.41078125
  0
VERTEX
  8
PANEL11.PLT
 62
7
 10
18.79282129
 20
7.39962061
  0
VERTEX
  8
PANEL11.PLT
 62
7
 10
18.59702344
 20
7.39155078
  0
VERTEX
  8
PANEL11.PLT
 62
7
 10
18.40107324
 20
7.38665088
  0
VERTEX
  8
PANEL11.PLT
 62
7
 10
18.20500000
 20
7.38500000
  0
VERTEX
  8
PANEL11.PLT
 62
7
 10
18.02651562
 20
7.38648438
  0
VERTEX
  8
PANEL11.PLT
 62
7
 10
17.84812500
 20
7.39087500
  0
VERTEX
  8
PANEL11.PLT
 62
7
 10
17.66992188
 20
7.39807812
  0
VERTEX
  8
PANEL11.PLT
 62
7
 10
17.49200000
 20
7.40800000
  0
VERTEX
  8
PANEL11.PLT
 62
7
 10
17.12430518
 20
7.43289990
  0
VERTEX
  8
PANEL11.PLT
 62
7
 10
16.75731641
 20
7.46024609
  0
VERTEX
  8
PANEL11.PLT
 62
7
 10
16.39098975
 20
7.48988330
  0
VERTEX
  8
PANEL11.PLT
 62
7
 10
16.02528125
 20
7.52165625
  0
VERTEX
  8
PANEL11.PLT
 62
7
 10
15.66014697
 20
7.55540967
  0
VERTEX
  8
PANEL11.PLT
 62
7
 10
15.29554297
 20
7.59098828
  0
VERTEX
  8
PANEL11.PLT
 62
7
 10
14.93142529
 20
7.62823682
  0
VERTEX
  8
PANEL11.PLT
 62
7
 10
14.56775000
 20
7.66700000
  0
VERTEX
  8
PANEL11.PLT
 62
7
 10
14.20447314
 20
7.70712256
  0
VERTEX
  8
PANEL11.PLT
 62
7
 10
13.84155078
 20
7.74844922
  0
VERTEX
  8
PANEL11.PLT
 62
7
 10
13.47893896
 20
7.79082471
  0
VERTEX
  8
PANEL11.PLT
 62
7
 10
13.11659375
 20
7.83409375
  0
VERTEX
  8
PANEL11.PLT
 62
7
 10
12.75447119
 20
7.87810107
  0
VERTEX
  8
PANEL11.PLT
 62
7
 10
12.39252734
 20
7.92269141
  0
VERTEX
  8
PANEL11.PLT
 62
7
 10
12.03071826
 20
7.96770947
  0
VERTEX
  8
PANEL11.PLT
 62
7
 10
11.66900000
 20
8.01300000
  0
VERTEX
  8
PANEL11.PLT
 62
7
 10
11.51171875
 20
8.02990625
  0
VERTEX
  8
PANEL11.PLT
 62
7
 10
11.35350000
 20
8.04175000
  0
VERTEX
  8
PANEL11.PLT
 62
7
 10
11.19453125
 20
8.04871875
  0
VERTEX
  8
PANEL11.PLT
 62
7
 10
11.03500000
 20
8.05100000
  0
VERTEX
  8
PANEL11.PLT
 62
7
 10
10.85256689
 20
8.04792114
  0
VERTEX
  8
PANEL11.PLT
 62
7
 10
10.66955078
 20
8.03874414
  0
VERTEX
  8
PANEL11.PLT
 62
7
 10
10.48618896
 20
8.02355835
  0
VERTEX
  8
PANEL11.PLT
 62
7
 10
10.30271875
 20
8.00245313
  0
VERTEX
  8
PANEL11.PLT
 62
7
 10
10.11937744
 20
7.97551782
  0
VERTEX
  8
PANEL11.PLT
 62
7
 10
9.93640234
 20
7.94284180
  0
VERTEX
  8
PANEL11.PLT
 62
7
 10
9.75403076
 20
7.90451440
  0
VERTEX
  8
PANEL11.PLT
 62
7
 10
9.57250000
 20
7.86062500
  0
VERTEX
  8
PANEL11.PLT
 62
7
 10
9.39204736
 20
7.81126294
  0
VERTEX
  8
PANEL11.PLT
 62
7
 10
9.21291016
 20
7.75651758
  0
VERTEX
  8
PANEL11.PLT
 62
7
 10
9.03532568
 20
7.69647827
  0
VERTEX
  8
PANEL11.PLT
 62
7
 10
8.85953125
 20
7.63123438
  0
VERTEX
  8
PANEL11.PLT
 62
7
 10
8.68576416
 20
7.56087524
  0
VERTEX
  8
PANEL11.PLT
 62
7
 10
8.51426172
 20
7.48549023
  0
VERTEX
  8
PANEL11.PLT
 62
7
 10
8.34526123
 20
7.40516870
  0
VERTEX
  8
PANEL11.PLT
 62
7
 10
8.17900000
 20
7.32000000
  0
VERTEX
  8
PANEL11.PLT
 62
7
 10
8.01271631
 20
7.40516870
  0
VERTEX
  8
PANEL11.PLT
 62
7
 10
7.84365234
 20
7.48549023
  0
VERTEX
  8
PANEL11.PLT
 62
7
 10
7.67205127
 20
7.56087524
  0
VERTEX
  8
PANEL11.PLT
 62
7
 10
7.49815625
 20
7.63123438
  0
VERTEX
  8
PANEL11.PLT
 62
7
 10
7.32221045
 20
7.69647827
  0
VERTEX
  8
PANEL11.PLT
 62
7
 10
7.14445703
 20
7.75651758
  0
VERTEX
  8
PANEL11.PLT
 62
7
 10
6.96513916
 20
7.81126294
  0
VERTEX
  8
PANEL11.PLT
 62
7
 10
6.78450000
 20
7.86062500
  0
VERTEX
  8
PANEL11.PLT
 62
7
 10
6.60278271
 20
7.90451440
  0
VERTEX
  8
PANEL11.PLT
 62
7
 10
6.42023047
 20
7.94284180
  0
VERTEX
  8
PANEL11.PLT
 62
7
 10
6.23708643
 20
7.97551782
  0
VERTEX
  8
PANEL11.PLT
 62
7
 10
6.05359375
 20
8.00245313
  0
VERTEX
  8
PANEL11.PLT
 62
7
 10
5.86999561
 20
8.02355835
  0
VERTEX
  8
PANEL11.PLT
 62
7
 10
5.68653516
 20
8.03874414
  0
VERTEX
  8
PANEL11.PLT
 62
7
 10
5.50345557
 20
8.04792114
  0
VERTEX
  8
PANEL11.PLT
 62
7
 10
5.32100000
 20
8.05100000
  0
VERTEX
  8
PANEL11.PLT
 62
7
 10
5.16146875
 20
8.04871875
  0
VERTEX
  8
PANEL11.PLT
 62
7
 10
5.00250000
 20
8.04175000
  0
VERTEX
  8
PANEL11.PLT
 62
7
 10
4.84428125
 20
8.02990625
  0
VERTEX
  8
PANEL11.PLT
 62
7
 10
4.68700000
 20
8.01300000
  0
VERTEX
  8
PANEL11.PLT
 62
7
 10
4.32528174
 20
7.96770947
  0
VERTEX
  8
PANEL11.PLT
 62
7
 10
3.96347266
 20
7.92269141
  0
VERTEX
  8
PANEL11.PLT
 62
7
 10
3.60152881
 20
7.87810107
  0
VERTEX
  8
PANEL11.PLT
 62
7
 10
3.23940625
 20
7.83409375
  0
VERTEX
  8
PANEL11.PLT
 62
7
 10
2.87706104
 20
7.79082471
  0
VERTEX
  8
PANEL11.PLT
 62
7
 10
2.51444922
 20
7.74844922
  0
VERTEX
  8
PANEL11.PLT
 62
7
 10
2.15152686
 20
7.70712256
  0
VERTEX
  8
PANEL11.PLT
 62
7
 10
1.78825000
 20
7.66700000
  0
VERTEX
  8
PANEL11.PLT
 62
7
 10
1.42457471
 20
7.62823682
  0
VERTEX
  8
PANEL11.PLT
 62
7
 10
1.06045703
 20
7.59098828
  0
VERTEX
  8
PANEL11.PLT
 62
7
 10
0.69585303
 20
7.55540967
  0
VERTEX
  8
PANEL11.PLT
 62
7
 10
0.33071875
 20
7.52165625
  0
VERTEX
  8
PANEL11.PLT
 62
7
 10
-.03498975
 20
7.48988330
  0
VERTEX
  8
PANEL11.PLT
 62
7
 10
-0.40131641
 20
7.46024609
  0
VERTEX
  8
PANEL11.PLT
 62
7
 10
-0.76830518
 20
7.43289990
  0
VERTEX
  8
PANEL11.PLT
 62
7
 10
-1.13600000
 20
7.40800000
  0
VERTEX
  8
PANEL11.PLT
 62
7
 10
-1.31392187
 20
7.39807812
  0
VERTEX
  8
PANEL11.PLT
 62
7
 10
-1.49212500
 20
7.39087500
  0
VERTEX
  8
PANEL11.PLT
 62
7
 10
-1.67051562
 20
7.38648438
  0
VERTEX
  8
PANEL11.PLT
 62
7
 10
-1.84900000
 20
7.38500000
  0
VERTEX
  8
PANEL11.PLT
 62
7
 10
-2.04507324
 20
7.38665088
  0
VERTEX
  8
PANEL11.PLT
 62
7
 10
-2.24102344
 20
7.39155078
  0
VERTEX
  8
PANEL11.PLT
 62
7
 10
-2.43682129
 20
7.39962061
  0
VERTEX
  8
PANEL11.PLT
 62
7
 10
-2.63243750
 20
7.41078125
  0
VERTEX
  8
PANEL11.PLT
 62
7
 10
-2.82784277
 20
7.42495361
  0
VERTEX
  8
PANEL11.PLT
 62
7
 10
-3.02300781
 20
7.44205859
  0
VERTEX
  8
PANEL11.PLT
 62
7
 10
-3.21790332
 20
7.46201709
  0
VERTEX
  8
PANEL11.PLT
 62
7
 10
-3.41250000
 20
7.48475000
  0
VERTEX
  8
PANEL11.PLT
 62
7
 10
-3.60676855
 20
7.51017822
  0
VERTEX
  8
PANEL11.PLT
 62
7
 10
-3.80067969
 20
7.53822266
  0
VERTEX
  8
PANEL11.PLT
 62
7
 10
-3.99420410
 20
7.56880420
  0
VERTEX
  8
PANEL11.PLT
 62
7
 10
-4.18731250
 20
7.60184375
  0
VERTEX
  8
PANEL11.PLT
 62
7
 10
-4.37997559
 20
7.63726221
  0
VERTEX
  8
PANEL11.PLT
 62
7
 10
-4.57216406
 20
7.67498047
  0
VERTEX
  8
PANEL11.PLT
 62
7
 10
-4.76384863
 20
7.71491943
  0
VERTEX
  8
PANEL11.PLT
 62
7
 10
-4.95500000
 20
7.75700000
  0
VERTEX
  8
PANEL11.PLT
 62
7
 10
-5.16300000
 20
7.81100000
  0
VERTEX
  8
PANEL11.PLT
 62
7
 10
-5.20300000
 20
7.59000000
  0
VERTEX
  8
PANEL11.PLT
 62
7
 10
-5.21855078
 20
7.51383984
  0
VERTEX
  8
PANEL11.PLT
 62
7
 10
-5.23740625
 20
7.43840625
  0
VERTEX
  8
PANEL11.PLT
 62
7
 10
-5.25949609
 20
7.36376953
  0
VERTEX
  8
PANEL11.PLT
 62
7
 10
-5.28475000
 20
7.29000000
  0
VERTEX
  8
PANEL11.PLT
 62
7
 10
-5.31309766
 20
7.21716797
  0
VERTEX
  8
PANEL11.PLT
 62
7
 10
-5.34446875
 20
7.14534375
  0
VERTEX
  8
PANEL11.PLT
 62
7
 10
-5.37879297
 20
7.07459766
  0
VERTEX
  8
PANEL11.PLT
 62
7
 10
-5.41600000
 20
7.00500000
  0
VERTEX
  8
PANEL11.PLT
 62
7
 10
-6.55300000
 20
7.00600000
  0
VERTEX
  8
PANEL11.PLT
 62
7
 10
-6.55300000
 20
-1.36100000
  0
VERTEX
  8
PANEL11.PLT
 62
7
 10
7.22800000
 20
-1.36100000
  0
VERTEX
  8
PANEL11.PLT
 62
7
 10
7.25950073
 20
-1.40211035
  0
VERTEX
  8
PANEL11.PLT
 62
7
 10
7.29705273
 20
-1.44069531
  0
VERTEX
  8
PANEL11.PLT
 62
7
 10
7.34016821
 20
-1.47676074
  0
VERTEX
  8
PANEL11.PLT
 62
7
 10
7.38835938
 20
-1.51031250
  0
VERTEX
  8
PANEL11.PLT
 62
7
 10
7.44113843
 20
-1.54135645
  0
VERTEX
  8
PANEL11.PLT
 62
7
 10
7.49801758
 20
-1.56989844
  0
VERTEX
  8
PANEL11.PLT
 62
7
 10
7.55850903
 20
-1.59594434
  0
VERTEX
  8
PANEL11.PLT
 62
7
 10
7.62212500
 20
-1.61950000
  0
VERTEX
  8
PANEL11.PLT
 62
7
 10
7.68837769
 20
-1.64057129
  0
VERTEX
  8
PANEL11.PLT
 62
7
 10
7.75677930
 20
-1.65916406
  0
VERTEX
  8
PANEL11.PLT
 62
7
 10
7.82684204
 20
-1.67528418
  0
VERTEX
  8
PANEL11.PLT
 62
7
 10
7.89807812
 20
-1.68893750
  0
VERTEX
  8
PANEL11.PLT
 62
7
 10
7.96999976
 20
-1.70012988
  0
VERTEX
  8
PANEL11.PLT
 62
7
 10
8.04211914
 20
-1.70886719
  0
VERTEX
  8
PANEL11.PLT
 62
7
 10
8.11394849
 20
-1.71515527
  0
SEQEND
  0
POLYLINE
  8
PANEL11.PLT
 62
7
 66
1
 70
1
  0
VERTEX
  8
PANEL11.PLT
 62
7
 10
8.18840819
 20
-1.62860402
  0
VERTEX
  8
PANEL11.PLT
 62
7
 10
8.11182411
 20
-1.62446519
  0
VERTEX
  8
PANEL11.PLT
 62
7
 10
8.03570736
 20
-1.61749438
  0
VERTEX
  8
PANEL11.PLT
 62
7
 10
7.96052525
 20
-1.60777811
  0
VERTEX
  8
PANEL11.PLT
 62
7
 10
7.88674509
 20
-1.59540292
  0
VERTEX
  8
PANEL11.PLT
 62
7
 10
7.81483422
 20
-1.58045533
  0
VERTEX
  8
PANEL11.PLT
 62
7
 10
7.74525995
 20
-1.56302187
  0
VERTEX
  8
PANEL11.PLT
 62
7
 10
7.67848959
 20
-1.54318907
  0
VERTEX
  8
PANEL11.PLT
 62
7
 10
7.61499048
 20
-1.52104344
  0
VERTEX
  8
PANEL11.PLT
 62
7
 10
7.55522992
 20
-1.49667151
  0
VERTEX
  8
PANEL11.PLT
 62
7
 10
7.49967525
 20
-1.47015982
  0
VERTEX
  8
PANEL11.PLT
 62
7
 10
7.44879377
 20
-1.44159489
  0
VERTEX
  8
PANEL11.PLT
 62
7
 10
7.40305282
 20
-1.41106324
  0
VERTEX
  8
PANEL11.PLT
 62
7
 10
7.36291970
 20
-1.37865140
  0
VERTEX
  8
PANEL11.PLT
 62
7
 10
7.32886175
 20
-1.34444589
  0
VERTEX
  8
PANEL11.PLT
 62
7
 10
7.30134627
 20
-1.30853325
  0
VERTEX
  8
PANEL11.PLT
 62
7
 10
7.28084059
 20
-1.27100000
  0
VERTEX
  8
PANEL11.PLT
 62
7
 10
-6.46284974
 20
-1.27100000
  0
VERTEX
  8
PANEL11.PLT
 62
7
 10
-6.46284974
 20
6.91398133
  0
VERTEX
  8
PANEL11.PLT
 62
7
 10
-5.46727559
 20
6.91398133
  0
VERTEX
  8
PANEL11.PLT
 62
7
 10
-5.52390188
 20
6.82912646
  0
VERTEX
  8
PANEL11.PLT
 62
7
 10
-5.58510468
 20
6.74700300
  0
VERTEX
  8
PANEL11.PLT
 62
7
 10
-5.65081954
 20
6.66764839
  0
VERTEX
  8
PANEL11.PLT
 62
7
 10
-5.72098199
 20
6.59110002
  0
VERTEX
  8
PANEL11.PLT
 62
7
 10
-5.79552758
 20
6.51739533
  0
VERTEX
  8
PANEL11.PLT
 62
7
 10
-5.87439185
 20
6.44657172
  0
VERTEX
  8
PANEL11.PLT
 62
7
 10
-5.95751035
 20
6.37866662
  0
VERTEX
  8
PANEL11.PLT
 62
7
 10
-6.04481861
 20
6.31371744
  0
VERTEX
  8
PANEL11.PLT
 62
7
 10
-6.08148801
 20
6.28657785
  0
VERTEX
  8
PANEL11.PLT
 62
7
 10
-6.08148801
 20
6.24028090
  0
VERTEX
  8
PANEL11.PLT
 62
7
 10
-6.08148801
 20
-0.94851780
  0
VERTEX
  8
PANEL11.PLT
 62
7
 10
-5.99348145
 20
-0.94851780
  0
VERTEX
  8
PANEL11.PLT
 62
7
 10
7.51735821
 20
-0.94851780
  0
VERTEX
  8
PANEL11.PLT
 62
7
 10
7.52243561
 20
-0.97455048
  0
VERTEX
  8
PANEL11.PLT
 62
7
 10
7.53159267
 20
-1.00097604
  0
VERTEX
  8
PANEL11.PLT
 62
7
 10
7.54499857
 20
-1.02751384
  0
VERTEX
  8
PANEL11.PLT
 62
7
 10
7.56282253
 20
-1.05388327
  0
VERTEX
  8
PANEL11.PLT
 62
7
 10
7.58523375
 20
-1.07980370
  0
VERTEX
  8
PANEL11.PLT
 62
7
 10
7.61240142
 20
-1.10499451
  0
VERTEX
  8
PANEL11.PLT
 62
7
 10
7.64449475
 20
-1.12917506
  0
VERTEX
  8
PANEL11.PLT
 62
7
 10
7.68168295
 20
-1.15206473
  0
VERTEX
  8
PANEL11.PLT
 62
7
 10
7.72413520
 20
-1.17338291
  0
VERTEX
  8
PANEL11.PLT
 62
7
 10
7.77202073
 20
-1.19284895
  0
VERTEX
  8
PANEL11.PLT
 62
7
 10
7.82550872
 20
-1.21018225
  0
VERTEX
  8
PANEL11.PLT
 62
7
 10
7.88476838
 20
-1.22510216
  0
VERTEX
  8
PANEL11.PLT
 62
7
 10
7.94996892
 20
-1.23732807
  0
VERTEX
  8
PANEL11.PLT
 62
7
 10
8.02127953
 20
-1.24657936
  0
VERTEX
  8
PANEL11.PLT
 62
7
 10
8.09886941
 20
-1.25257539
  0
VERTEX
  8
PANEL11.PLT
 62
7
 10
8.18290778
 20
-1.25503553
  0
VERTEX
  8
PANEL11.PLT
 62
7
 10
8.26684319
 20
-1.25257539
  0
VERTEX
  8
PANEL11.PLT
 62
7
 10
8.34414212
 20
-1.24657936
  0
VERTEX
  8
PANEL11.PLT
 62
7
 10
8.41500063
 20
-1.23732807
  0
VERTEX
  8
PANEL11.PLT
 62
7
 10
8.47961477
 20
-1.22510216
  0
VERTEX
  8
PANEL11.PLT
 62
7
 10
8.53818062
 20
-1.21018225
  0
VERTEX
  8
PANEL11.PLT
 62
7
 10
8.59089422
 20
-1.19284895
  0
VERTEX
  8
PANEL11.PLT
 62
7
 10
8.63795164
 20
-1.17338291
  0
VERTEX
  8
PANEL11.PLT
 62
7
 10
8.67954894
 20
-1.15206473
  0
VERTEX
  8
PANEL11.PLT
 62
7
 10
8.71588217
 20
-1.12917506
  0
VERTEX
  8
PANEL11.PLT
 62
7
 10
8.74714740
 20
-1.10499451
  0
VERTEX
  8
PANEL11.PLT
 62
7
 10
8.77354068
 20
-1.07980370
  0
VERTEX
  8
PANEL11.PLT
 62
7
 10
8.79525808
 20
-1.05388327
  0
VERTEX
  8
PANEL11.PLT
 62
7
 10
8.81249565
 20
-1.02751384
  0
VERTEX
  8
PANEL11.PLT
 62
7
 10
8.82544945
 20
-1.00097604
  0
VERTEX
  8
PANEL11.PLT
 62
7
 10
8.83431555
 20
-0.97455048
  0
VERTEX
  8
PANEL11.PLT
 62
7
 10
8.83929000
 20
-0.94851780
  0
VERTEX
  8
PANEL11.PLT
 62
7
 10
22.35012966
 20
-0.94851780
  0
VERTEX
  8
PANEL11.PLT
 62
7
 10
22.43813621
 20
-0.94851780
  0
VERTEX
  8
PANEL11.PLT
 62
7
 10
22.43813621
 20
6.24028090
  0
VERTEX
  8
PANEL11.PLT
 62
7
 10
22.43813621
 20
6.28657785
  0
VERTEX
  8
PANEL11.PLT
 62
7
 10
22.40146682
 20
6.31371744
  0
VERTEX
  8
PANEL11.PLT
 62
7
 10
22.31415855
 20
6.37866662
  0
VERTEX
  8
PANEL11.PLT
 62
7
 10
22.23104006
 20
6.44657172
  0
VERTEX
  8
PANEL11.PLT
 62
7
 10
22.15217579
 20
6.51739533
  0
VERTEX
  8
PANEL11.PLT
 62
7
 10
22.07763020
 20
6.59110002
  0
VERTEX
  8
PANEL11.PLT
 62
7
 10
22.00746774
 20
6.66764839
  0
VERTEX
  8
PANEL11.PLT
 62
7
 10
21.94175289
 20
6.74700300
  0
VERTEX
  8
PANEL11.PLT
 62
7
 10
21.88055009
 20
6.82912646
  0
VERTEX
  8
PANEL11.PLT
 62
7
 10
21.82392380
 20
6.91398133
  0
VERTEX
  8
PANEL11.PLT
 62
7
 10
22.81949795
 20
6.91398133
  0
VERTEX
  8
PANEL11.PLT
 62
7
 10
22.81949795
 20
-1.27100000
  0
VERTEX
  8
PANEL11.PLT
 62
7
 10
9.07580762
 20
-1.27100000
  0
VERTEX
  8
PANEL11.PLT
 62
7
 10
9.05552844
 20
-1.30853325
  0
VERTEX
  8
PANEL11.PLT
 62
7
 10
9.02865306
 20
-1.34444589
  0
VERTEX
  8
PANEL11.PLT
 62
7
 10
8.99558973
 20
-1.37865140
  0
VERTEX
  8
PANEL11.PLT
 62
7
 10
8.95674667
 20
-1.41106324
  0
VERTEX
  8
PANEL11.PLT
 62
7
 10
8.91253211
 20
-1.44159489
  0
VERTEX
  8
PANEL11.PLT
 62
7
 10
8.86335429
 20
-1.47015982
  0
VERTEX
  8
PANEL11.PLT
 62
7
 10
8.80962145
 20
-1.49667151
  0
VERTEX
  8
PANEL11.PLT
 62
7
 10
8.75174181
 20
-1.52104344
  0
VERTEX
  8
PANEL11.PLT
 62
7
 10
8.69012362
 20
-1.54318907
  0
VERTEX
  8
PANEL11.PLT
 62
7
 10
8.62517509
 20
-1.56302187
  0
VERTEX
  8
PANEL11.PLT
 62
7
 10
8.55730448
 20
-1.58045533
  0
VERTEX
  8
PANEL11.PLT
 62
7
 10
8.48692001
 20
-1.59540292
  0
VERTEX
  8
PANEL11.PLT
 62
7
 10
8.41442991
 20
-1.60777811
  0
VERTEX
  8
PANEL11.PLT
 62
7
 10
8.34024241
 20
-1.61749438
  0
VERTEX
  8
PANEL11.PLT
 62
7
 10
8.26476576
 20
-1.62446519
  0
SEQEND
  0
POLYLINE
  8
PANEL11.PLT
 62
7
 66
1
 70
1
  0
VERTEX
  8
PANEL11.PLT
 62
7
 10
8.17924084
 20
.03199952
  0
VERTEX
  8
PANEL11.PLT
 62
7
 10
8.07881377
 20
.08520058
  0
VERTEX
  8
PANEL11.PLT
 62
7
 10
7.97730266
 20
0.13644165
  0
VERTEX
  8
PANEL11.PLT
 62
7
 10
7.87476224
 20
0.18571776
  0
VERTEX
  8
PANEL11.PLT
 62
7
 10
7.77124723
 20
0.23302394
  0
VERTEX
  8
PANEL11.PLT
 62
7
 10
7.66681236
 20
0.27835521
  0
VERTEX
  8
PANEL11.PLT
 62
7
 10
7.56151233
 20
0.32170662
  0
VERTEX
  8
PANEL11.PLT
 62
7
 10
7.45540189
 20
0.36307319
  0
VERTEX
  8
PANEL11.PLT
 62
7
 10
7.34853574
 20
0.40244994
  0
VERTEX
  8
PANEL11.PLT
 62
7
 10
7.24096861
 20
0.43983192
  0
VERTEX
  8
PANEL11.PLT
 62
7
 10
7.13275522
 20
0.47521415
  0
VERTEX
  8
PANEL11.PLT
 62
7
 10
7.02395030
 20
0.50859166
  0
VERTEX
  8
PANEL11.PLT
 62
7
 10
6.91460856
 20
0.53995949
  0
VERTEX
  8
PANEL11.PLT
 62
7
 10
6.80478473
 20
0.56931266
  0
VERTEX
  8
PANEL11.PLT
 62
7
 10
6.69453353
 20
0.59664620
  0
VERTEX
  8
PANEL11.PLT
 62
7
 10
6.58390969
 20
0.62195515
  0
VERTEX
  8
PANEL11.PLT
 62
7
 10
6.47296792
 20
0.64523454
  0
VERTEX
  8
PANEL11.PLT
 62
7
 10
6.36176294
 20
0.66647939
  0
VERTEX
  8
PANEL11.PLT
 62
7
 10
6.25034949
 20
0.68568473
  0
VERTEX
  8
PANEL11.PLT
 62
7
 10
6.13878228
 20
0.70284561
  0
VERTEX
  8
PANEL11.PLT
 62
7
 10
6.02711602
 20
0.71795704
  0
VERTEX
  8
PANEL11.PLT
 62
7
 10
5.91540546
 20
0.73101406
  0
VERTEX
  8
PANEL11.PLT
 62
7
 10
5.80370530
 20
0.74201170
  0
VERTEX
  8
PANEL11.PLT
 62
7
 10
5.69207027
 20
0.75094499
  0
VERTEX
  8
PANEL11.PLT
 62
7
 10
5.58055509
 20
0.75780896
  0
VERTEX
  8
PANEL11.PLT
 62
7
 10
5.46921449
 20
0.76259864
  0
VERTEX
  8
PANEL11.PLT
 62
7
 10
5.35810318
 20
0.76530906
  0
VERTEX
  8
PANEL11.PLT
 62
7
 10
5.24727589
 20
0.76593526
  0
VERTEX
  8
PANEL11.PLT
 62
7
 10
5.13678734
 20
0.76447225
  0
VERTEX
  8
PANEL11.PLT
 62
7
 10
5.02669225
 20
0.76091508
  0
VERTEX
  8
PANEL11.PLT
 62
7
 10
4.91704535
 20
0.75525878
  0
VERTEX
  8
PANEL11.PLT
 62
7
 10
4.80790135
 20
0.74749837
  0
VERTEX
  8
PANEL11.PLT
 62
7
 10
4.69931498
 20
0.73762888
  0
VERTEX
  8
PANEL11.PLT
 62
7
 10
3.97675595
 20
0.63966880
  0
VERTEX
  8
PANEL11.PLT
 62
7
 10
3.25282182
 20
0.54812569
  0
VERTEX
  8
PANEL11.PLT
 62
7
 10
2.52734070
 20
0.46298083
  0
VERTEX
  8
PANEL11.PLT
 62
7
 10
1.80014071
 20
0.38421553
  0
VERTEX
  8
PANEL11.PLT
 62
7
 10
1.07104994
 20
0.31181107
  0
VERTEX
  8
PANEL11.PLT
 62
7
 10
0.33989653
 20
0.24574874
  0
VERTEX
  8
PANEL11.PLT
 62
7
 10
-0.39349143
 20
0.18600983
  0
VERTEX
  8
PANEL11.PLT
 62
7
 10
-1.12928582
 20
0.13257565
  0
VERTEX
  8
PANEL11.PLT
 62
7
 10
-1.37517669
 20
0.12061555
  0
VERTEX
  8
PANEL11.PLT
 62
7
 10
-1.62118574
 20
0.11344947
  0
VERTEX
  8
PANEL11.PLT
 62
7
 10
-1.86721627
 20
0.11104467
  0
VERTEX
  8
PANEL11.PLT
 62
7
 10
-2.11317160
 20
0.11336840
  0
VERTEX
  8
PANEL11.PLT
 62
7
 10
-2.35895504
 20
0.12038793
  0
VERTEX
  8
PANEL11.PLT
 62
7
 10
-2.60446991
 20
0.13207052
  0
VERTEX
  8
PANEL11.PLT
 62
7
 10
-2.84961952
 20
0.14838343
  0
VERTEX
  8
PANEL11.PLT
 62
7
 10
-3.09430718
 20
0.16929392
  0
VERTEX
  8
PANEL11.PLT
 62
7
 10
-3.33843620
 20
0.19476924
  0
VERTEX
  8
PANEL11.PLT
 62
7
 10
-3.58190990
 20
0.22477667
  0
VERTEX
  8
PANEL11.PLT
 62
7
 10
-3.82463160
 20
0.25928346
  0
VERTEX
  8
PANEL11.PLT
 62
7
 10
-4.06650459
 20
0.29825686
  0
VERTEX
  8
PANEL11.PLT
 62
7
 10
-4.30743220
 20
0.34166415
  0
VERTEX
  8
PANEL11.PLT
 62
7
 10
-4.54731775
 20
0.38947258
  0
VERTEX
  8
PANEL11.PLT
 62
7
 10
-4.78606453
 20
0.44164941
  0
VERTEX
  8
PANEL11.PLT
 62
7
 10
-5.02357588
 20
0.49816190
  0
VERTEX
  8
PANEL11.PLT
 62
7
 10
-5.02357588
 20
7.57361290
  0
VERTEX
  8
PANEL11.PLT
 62
7
 10
-5.02357588
 20
7.68057482
  0
VERTEX
  8
PANEL11.PLT
 62
7
 10
-4.97407219
 20
7.66939969
  0
VERTEX
  8
PANEL11.PLT
 62
7
 10
-4.73907068
 20
7.61438153
  0
VERTEX
  8
PANEL11.PLT
 62
7
 10
-4.50302441
 20
7.56368500
  0
VERTEX
  8
PANEL11.PLT
 62
7
 10
-4.26600590
 20
7.51732880
  0
VERTEX
  8
PANEL11.PLT
 62
7
 10
-4.02808767
 20
7.47533166
  0
VERTEX
  8
PANEL11.PLT
 62
7
 10
-3.78934222
 20
7.43771227
  0
VERTEX
  8
PANEL11.PLT
 62
7
 10
-3.54984208
 20
7.40448934
  0
VERTEX
  8
PANEL11.PLT
 62
7
 10
-3.30965977
 20
7.37568159
  0
VERTEX
  8
PANEL11.PLT
 62
7
 10
-3.06886778
 20
7.35130772
  0
VERTEX
  8
PANEL11.PLT
 62
7
 10
-2.82753865
 20
7.33138644
  0
VERTEX
  8
PANEL11.PLT
 62
7
 10
-2.58574489
 20
7.31593645
  0
VERTEX
  8
PANEL11.PLT
 62
7
 10
-2.34355900
 20
7.30497647
  0
VERTEX
  8
PANEL11.PLT
 62
7
 10
-2.10105351
 20
7.29852521
  0
VERTEX
  8
PANEL11.PLT
 62
7
 10
-1.85830093
 20
7.29660136
  0
VERTEX
  8
PANEL11.PLT
 62
7
 10
-1.61537378
 20
7.29922365
  0
VERTEX
  8
PANEL11.PLT
 62
7
 10
-1.37234457
 20
7.30641078
  0
VERTEX
  8
PANEL11.PLT
 62
7
 10
-1.12928582
 20
7.31818145
  0
VERTEX
  8
PANEL11.PLT
 62
7
 10
-0.39349143
 20
7.37161564
  0
VERTEX
  8
PANEL11.PLT
 62
7
 10
0.33989653
 20
7.43135455
  0
VERTEX
  8
PANEL11.PLT
 62
7
 10
1.07104994
 20
7.49741688
  0
VERTEX
  8
PANEL11.PLT
 62
7
 10
1.80014071
 20
7.56982134
  0
VERTEX
  8
PANEL11.PLT
 62
7
 10
2.52734070
 20
7.64858664
  0
VERTEX
  8
PANEL11.PLT
 62
7
 10
3.25282182
 20
7.73373150
  0
VERTEX
  8
PANEL11.PLT
 62
7
 10
3.97675595
 20
7.82527461
  0
VERTEX
  8
PANEL11.PLT
 62
7
 10
4.69931498
 20
7.92323469
  0
VERTEX
  8
PANEL11.PLT
 62
7
 10
4.80790135
 20
7.93310417
  0
VERTEX
  8
PANEL11.PLT
 62
7
 10
4.91704535
 20
7.94086459
  0
VERTEX
  8
PANEL11.PLT
 62
7
 10
5.02669225
 20
7.94652089
  0
VERTEX
  8
PANEL11.PLT
 62
7
 10
5.13678734
 20
7.95007806
  0
VERTEX
  8
PANEL11.PLT
 62
7
 10
5.24727589
 20
7.95154107
  0
VERTEX
  8
PANEL11.PLT
 62
7
 10
5.35810318
 20
7.95091487
  0
VERTEX
  8
PANEL11.PLT
 62
7
 10
5.46921449
 20
7.94820445
  0
VERTEX
  8
PANEL11.PLT
 62
7
 10
5.58055509
 20
7.94341477
  0
VERTEX
  8
PANEL11.PLT
 62
7
 10
5.69207027
 20
7.93655080
  0
VERTEX
  8
PANEL11.PLT
 62
7
 10
5.80370530
 20
7.92761751
  0
VERTEX
  8
PANEL11.PLT
 62
7
 10
5.91540546
 20
7.91661987
  0
VERTEX
  8
PANEL11.PLT
 62
7
 10
6.02711602
 20
7.90356285
  0
VERTEX
  8
PANEL11.PLT
 62
7
 10
6.13878228
 20
7.88845142
  0
VERTEX
  8
PANEL11.PLT
 62
7
 10
6.25034949
 20
7.87129054
  0
VERTEX
  8
PANEL11.PLT
 62
7
 10
6.36176294
 20
7.85208520
  0
VERTEX
  8
PANEL11.PLT
 62
7
 10
6.47296792
 20
7.83084034
  0
VERTEX
  8
PANEL11.PLT
 62
7
 10
6.58390969
 20
7.80756096
  0
VERTEX
  8
PANEL11.PLT
 62
7
 10
6.69453353
 20
7.78225201
  0
VERTEX
  8
PANEL11.PLT
 62
7
 10
6.80478473
 20
7.75491847
  0
VERTEX
  8
PANEL11.PLT
 62
7
 10
6.91460856
 20
7.72556530
  0
VERTEX
  8
PANEL11.PLT
 62
7
 10
7.02395030
 20
7.69419747
  0
VERTEX
  8
PANEL11.PLT
 62
7
 10
7.13275522
 20
7.66081996
  0
VERTEX
  8
PANEL11.PLT
 62
7
 10
7.24096861
 20
7.62543773
  0
VERTEX
  8
PANEL11.PLT
 62
7
 10
7.34853574
 20
7.58805575
  0
VERTEX
  8
PANEL11.PLT
 62
7
 10
7.45540189
 20
7.54867899
  0
VERTEX
  8
PANEL11.PLT
 62
7
 10
7.56151233
 20
7.50731243
  0
VERTEX
  8
PANEL11.PLT
 62
7
 10
7.66681236
 20
7.46396102
  0
VERTEX
  8
PANEL11.PLT
 62
7
 10
7.77124723
 20
7.41862975
  0
VERTEX
  8
PANEL11.PLT
 62
7
 10
7.87476224
 20
7.37132357
  0
VERTEX
  8
PANEL11.PLT
 62
7
 10
7.97730266
 20
7.32204746
  0
VERTEX
  8
PANEL11.PLT
 62
7
 10
8.07881377
 20
7.27080639
  0
VERTEX
  8
PANEL11.PLT
 62
7
 10
8.17924084
 20
7.21760532
  0
VERTEX
  8
PANEL11.PLT
 62
7
 10
8.27966265
 20
7.27080639
  0
VERTEX
  8
PANEL11.PLT
 62
7
 10
8.38115843
 20
7.32204746
  0
VERTEX
  8
PANEL11.PLT
 62
7
 10
8.48367411
 20
7.37132357
  0
VERTEX
  8
PANEL11.PLT
 62
7
 10
8.58715566
 20
7.41862975
  0
VERTEX
  8
PANEL11.PLT
 62
7
 10
8.69154902
 20
7.46396102
  0
VERTEX
  8
PANEL11.PLT
 62
7
 10
8.79680014
 20
7.50731243
  0
VERTEX
  8
PANEL11.PLT
 62
7
 10
8.90285497
 20
7.54867899
  0
VERTEX
  8
PANEL11.PLT
 62
7
 10
9.00965946
 20
7.58805575
  0
VERTEX
  8
PANEL11.PLT
 62
7
 10
9.11715956
 20
7.62543773
  0
VERTEX
  8
PANEL11.PLT
 62
7
 10
9.22530121
 20
7.66081996
  0
VERTEX
  8
PANEL11.PLT
 62
7
 10
9.33403038
 20
7.69419747
  0
VERTEX
  8
PANEL11.PLT
 62
7
 10
9.44329300
 20
7.72556530
  0
VERTEX
  8
PANEL11.PLT
 62
7
 10
9.55303502
 20
7.75491847
  0
VERTEX
  8
PANEL11.PLT
 62
7
 10
9.66320240
 20
7.78225201
  0
VERTEX
  8
PANEL11.PLT
 62
7
 10
9.77374109
 20
7.80756096
  0
VERTEX
  8
PANEL11.PLT
 62
7
 10
9.88459703
 20
7.83084034
  0
VERTEX
  8
PANEL11.PLT
 62
7
 10
9.99571617
 20
7.85208520
  0
VERTEX
  8
PANEL11.PLT
 62
7
 10
10.10704446
 20
7.87129054
  0
VERTEX
  8
PANEL11.PLT
 62
7
 10
10.21852786
 20
7.88845142
  0
VERTEX
  8
PANEL11.PLT
 62
7
 10
10.33011230
 20
7.90356285
  0
VERTEX
  8
PANEL11.PLT
 62
7
 10
10.44174375
 20
7.91661987
  0
VERTEX
  8
PANEL11.PLT
 62
7
 10
10.55336815
 20
7.92761751
  0
VERTEX
  8
PANEL11.PLT
 62
7
 10
10.66493145
 20
7.93655080
  0
VERTEX
  8
PANEL11.PLT
 62
7
 10
10.77637959
 20
7.94341477
  0
VERTEX
  8
PANEL11.PLT
 62
7
 10
10.88765854
 20
7.94820445
  0
VERTEX
  8
PANEL11.PLT
 62
7
 10
10.99871423
 20
7.95091487
  0
VERTEX
  8
PANEL11.PLT
 62
7
 10
11.10949262
 20
7.95154107
  0
VERTEX
  8
PANEL11.PLT
 62
7
 10
11.21993965
 20
7.95007806
  0
VERTEX
  8
PANEL11.PLT
 62
7
 10
11.33000128
 20
7.94652089
  0
VERTEX
  8
PANEL11.PLT
 62
7
 10
11.43962345
 20
7.94086459
  0
VERTEX
  8
PANEL11.PLT
 62
7
 10
11.54875212
 20
7.93310417
  0
VERTEX
  8
PANEL11.PLT
 62
7
 10
11.65733323
 20
7.92323469
  0
VERTEX
  8
PANEL11.PLT
 62
7
 10
12.37989226
 20
7.82527461
  0
VERTEX
  8
PANEL11.PLT
 62
7
 10
13.10382639
 20
7.73373150
  0
VERTEX
  8
PANEL11.PLT
 62
7
 10
13.82930750
 20
7.64858664
  0
VERTEX
  8
PANEL11.PLT
 62
7
 10
14.55650750
 20
7.56982134
  0
VERTEX
  8
PANEL11.PLT
 62
7
 10
15.28559826
 20
7.49741688
  0
VERTEX
  8
PANEL11.PLT
 62
7
 10
16.01675168
 20
7.43135455
  0
VERTEX
  8
PANEL11.PLT
 62
7
 10
16.75013964
 20
7.37161564
  0
VERTEX
  8
PANEL11.PLT
 62
7
 10
17.48593403
 20
7.31818145
  0
VERTEX
  8
PANEL11.PLT
 62
7
 10
17.72899278
 20
7.30641078
  0
VERTEX
  8
PANEL11.PLT
 62
7
 10
17.97202199
 20
7.29922365
  0
VERTEX
  8
PANEL11.PLT
 62
7
 10
18.21494914
 20
7.29660136
  0
VERTEX
  8
PANEL11.PLT
 62
7
 10
18.45770172
 20
7.29852521
  0
VERTEX
  8
PANEL11.PLT
 62
7
 10
18.70020721
 20
7.30497647
  0
VERTEX
  8
PANEL11.PLT
 62
7
 10
18.94239309
 20
7.31593645
  0
VERTEX
  8
PANEL11.PLT
 62
7
 10
19.18418686
 20
7.33138644
  0
VERTEX
  8
PANEL11.PLT
 62
7
 10
19.42551599
 20
7.35130772
  0
VERTEX
  8
PANEL11.PLT
 62
7
 10
19.66630797
 20
7.37568159
  0
VERTEX
  8
PANEL11.PLT
 62
7
 10
19.90649029
 20
7.40448934
  0
VERTEX
  8
PANEL11.PLT
 62
7
 10
20.14599043
 20
7.43771227
  0
VERTEX
  8
PANEL11.PLT
 62
7
 10
20.38473587
 20
7.47533166
  0
VERTEX
  8
PANEL11.PLT
 62
7
 10
20.62265411
 20
7.51732880
  0
VERTEX
  8
PANEL11.PLT
 62
7
 10
20.85967262
 20
7.56368500
  0
VERTEX
  8
PANEL11.PLT
 62
7
 10
21.09571888
 20
7.61438153
  0
VERTEX
  8
PANEL11.PLT
 62
7
 10
21.33072040
 20
7.66939969
  0
VERTEX
  8
PANEL11.PLT
 62
7
 10
21.38022408
 20
7.68057482
  0
VERTEX
  8
PANEL11.PLT
 62
7
 10
21.38022408
 20
7.57361290
  0
VERTEX
  8
PANEL11.PLT
 62
7
 10
21.38022408
 20
0.49816190
  0
VERTEX
  8
PANEL11.PLT
 62
7
 10
21.14271274
 20
0.44164941
  0
VERTEX
  8
PANEL11.PLT
 62
7
 10
20.90396595
 20
0.38947258
  0
VERTEX
  8
PANEL11.PLT
 62
7
 10
20.66408041
 20
0.34166415
  0
VERTEX
  8
PANEL11.PLT
 62
7
 10
20.42315280
 20
0.29825686
  0
VERTEX
  8
PANEL11.PLT
 62
7
 10
20.18127980
 20
0.25928346
  0
VERTEX
  8
PANEL11.PLT
 62
7
 10
19.93855811
 20
0.22477667
  0
VERTEX
  8
PANEL11.PLT
 62
7
 10
19.69508441
 20
0.19476924
  0
VERTEX
  8
PANEL11.PLT
 62
7
 10
19.45095539
 20
0.16929392
  0
VERTEX
  8
PANEL11.PLT
 62
7
 10
19.20626773
 20
0.14838343
  0
VERTEX
  8
PANEL11.PLT
 62
7
 10
18.96111812
 20
0.13207052
  0
VERTEX
  8
PANEL11.PLT
 62
7
 10
18.71560325
 20
0.12038793
  0
VERTEX
  8
PANEL11.PLT
 62
7
 10
18.46981981
 20
0.11336840
  0
VERTEX
  8
PANEL11.PLT
 62
7
 10
18.22386448
 20
0.11104467
  0
VERTEX
  8
PANEL11.PLT
 62
7
 10
17.97783395
 20
0.11344947
  0
VERTEX
  8
PANEL11.PLT
 62
7
 10
17.73182490
 20
0.12061555
  0
VERTEX
  8
PANEL11.PLT
 62
7
 10
17.48593403
 20
0.13257565
  0
VERTEX
  8
PANEL11.PLT
 62
7
 10
16.75013964
 20
0.18600983
  0
VERTEX
  8
PANEL11.PLT
 62
7
 10
16.01675168
 20
0.24574874
  0
VERTEX
  8
PANEL11.PLT
 62
7
 10
15.28559826
 20
0.31181107
  0
VERTEX
  8
PANEL11.PLT
 62
7
 10
14.55650750
 20
0.38421553
  0
VERTEX
  8
PANEL11.PLT
 62
7
 10
13.82930750
 20
0.46298083
  0
VERTEX
  8
PANEL11.PLT
 62
7
 10
13.10382639
 20
0.54812569
  0
VERTEX
  8
PANEL11.PLT
 62
7
 10
12.37989226
 20
0.63966880
  0
VERTEX
  8
PANEL11.PLT
 62
7
 10
11.65733323
 20
0.73762888
  0
VERTEX
  8
PANEL11.PLT
 62
7
 10
11.54875212
 20
0.74749837
  0
VERTEX
  8
PANEL11.PLT
 62
7
 10
11.43962345
 20
0.75525878
  0
VERTEX
  8
PANEL11.PLT
 62
7
 10
11.33000128
 20
0.76091508
  0
VERTEX
  8
PANEL11.PLT
 62
7
 10
11.21993965
 20
0.76447225
  0
VERTEX
  8
PANEL11.PLT
 62
7
 10
11.10949262
 20
0.76593526
  0
VERTEX
  8
PANEL11.PLT
 62
7
 10
10.99871423
 20
0.76530906
  0
VERTEX
  8
PANEL11.PLT
 62
7
 10
10.88765854
 20
0.76259864
  0
VERTEX
  8
PANEL11.PLT
 62
7
 10
10.77637959
 20
0.75780896
  0
VERTEX
  8
PANEL11.PLT
 62
7
 10
10.66493145
 20
0.75094499
  0
VERTEX
  8
PANEL11.PLT
 62
7
 10
10.55336815
 20
0.74201170
  0
VERTEX
  8
PANEL11.PLT
 62
7
 10
10.44174375
 20
0.73101406
  0
VERTEX
  8
PANEL11.PLT
 62
7
 10
10.33011230
 20
0.71795704
  0
VERTEX
  8
PANEL11.PLT
 62
7
 10
10.21852786
 20
0.70284561
  0
VERTEX
  8
PANEL11.PLT
 62
7
 10
10.10704446
 20
0.68568473
  0
VERTEX
  8
PANEL11.PLT
 62
7
 10
9.99571617
 20
0.66647939
  0
VERTEX
  8
PANEL11.PLT
 62
7
 10
9.88459703
 20
0.64523454
  0
VERTEX
  8
PANEL11.PLT
 62
7
 10
9.77374109
 20
0.62195515
  0
VERTEX
  8
PANEL11.PLT
 62
7
 10
9.66320240
 20
0.59664620
  0
VERTEX
  8
PANEL11.PLT
 62
7
 10
9.55303502
 20
0.56931266
  0
VERTEX
  8
PANEL11.PLT
 62
7
 10
9.44329300
 20
0.53995949
  0
VERTEX
  8
PANEL11.PLT
 62
7
 10
9.33403038
 20
0.50859166
  0
VERTEX
  8
PANEL11.PLT
 62
7
 10
9.22530121
 20
0.47521415
  0
VERTEX
  8
PANEL11.PLT
 62
7
 10
9.11715956
 20
0.43983192
  0
VERTEX
  8
PANEL11.PLT
 62
7
 10
9.00965946
 20
0.40244994
  0
VERTEX
  8
PANEL11.PLT
 62
7
 10
8.90285497
 20
0.36307319
  0
VERTEX
  8
PANEL11.PLT
 62
7
 10
8.79680014
 20
0.32170662
  0
VERTEX
  8
PANEL11.PLT
 62
7
 10
8.69154902
 20
0.27835521
  0
VERTEX
  8
PANEL11.PLT
 62
7
 10
8.58715566
 20
0.23302394
  0
VERTEX
  8
PANEL11.PLT
 62
7
 10
8.48367411
 20
0.18571776
  0
VERTEX
  8
PANEL11.PLT
 62
7
 10
8.38115843
 20
0.13644165
  0
VERTEX
  8
PANEL11.PLT
 62
7
 10
8.27966265
 20
.08520058
  0
SEQEND
  0
POLYLINE
  8
PANEL11.PLT
 62
7
 66
1
 70
1
  0
VERTEX
  8
PANEL11.PLT
 62
7
 10
-5.03800000
 20
0.40700000
  0
VERTEX
  8
PANEL11.PLT
 62
7
 10
-4.84601758
 20
0.36092700
  0
VERTEX
  8
PANEL11.PLT
 62
7
 10
-4.65334375
 20
0.31760352
  0
VERTEX
  8
PANEL11.PLT
 62
7
 10
-4.46001367
 20
0.27706030
  0
VERTEX
  8
PANEL11.PLT
 62
7
 10
-4.26606250
 20
0.23932813
  0
VERTEX
  8
PANEL11.PLT
 62
7
 10
-4.07152539
 20
0.20443774
  0
VERTEX
  8
PANEL11.PLT
 62
7
 10
-3.87643750
 20
0.17241992
  0
VERTEX
  8
PANEL11.PLT
 62
7
 10
-3.68083398
 20
0.14330542
  0
VERTEX
  8
PANEL11.PLT
 62
7
 10
-3.48475000
 20
0.11712500
  0
VERTEX
  8
PANEL11.PLT
 62
7
 10
-3.28822070
 20
.09390942
  0
VERTEX
  8
PANEL11.PLT
 62
7
 10
-3.09128125
 20
.07368945
  0
VERTEX
  8
PANEL11.PLT
 62
7
 10
-2.89396680
 20
.05649585
  0
VERTEX
  8
PANEL11.PLT
 62
7
 10
-2.69631250
 20
.04235937
  0
VERTEX
  8
PANEL11.PLT
 62
7
 10
-2.49835352
 20
.03131079
  0
VERTEX
  8
PANEL11.PLT
 62
7
 10
-2.30012500
 20
.02338086
  0
VERTEX
  8
PANEL11.PLT
 62
7
 10
-2.10166211
 20
.01860034
  0
VERTEX
  8
PANEL11.PLT
 62
7
 10
-1.90300000
 20
.01700000
  0
VERTEX
  8
PANEL11.PLT
 62
7
 10
-1.70857813
 20
.01851563
  0
VERTEX
  8
PANEL11.PLT
 62
7
 10
-1.51387500
 20
.02312500
  0
VERTEX
  8
PANEL11.PLT
 62
7
 10
-1.31898438
 20
.03092188
  0
VERTEX
  8
PANEL11.PLT
 62
7
 10
-1.12400000
 20
.04200000
  0
VERTEX
  8
PANEL11.PLT
 62
7
 10
-0.75519287
 20
.06707568
  0
VERTEX
  8
PANEL11.PLT
 62
7
 10
-0.38712109
 20
.09457422
  0
VERTEX
  8
PANEL11.PLT
 62
7
 10
-.01974658
 20
0.12434033
  0
VERTEX
  8
PANEL11.PLT
 62
7
 10
0.34696875
 20
0.15621875
  0
VERTEX
  8
PANEL11.PLT
 62
7
 10
0.71306299
 20
0.19005420
  0
VERTEX
  8
PANEL11.PLT
 62
7
 10
1.07857422
 20
0.22569141
  0
VERTEX
  8
PANEL11.PLT
 62
7
 10
1.44354053
 20
0.26297510
  0
VERTEX
  8
PANEL11.PLT
 62
7
 10
1.80800000
 20
0.30175000
  0
VERTEX
  8
PANEL11.PLT
 62
7
 10
2.17199072
 20
0.34186084
  0
VERTEX
  8
PANEL11.PLT
 62
7
 10
2.53555078
 20
0.38315234
  0
VERTEX
  8
PANEL11.PLT
 62
7
 10
2.89871826
 20
0.42546924
  0
VERTEX
  8
PANEL11.PLT
 62
7
 10
3.26153125
 20
0.46865625
  0
VERTEX
  8
PANEL11.PLT
 62
7
 10
3.62402783
 20
0.51255811
  0
VERTEX
  8
PANEL11.PLT
 62
7
 10
3.98624609
 20
0.55701953
  0
VERTEX
  8
PANEL11.PLT
 62
7
 10
4.34822412
 20
0.60188525
  0
VERTEX
  8
PANEL11.PLT
 62
7
 10
4.71000000
 20
0.64700000
  0
VERTEX
  8
PANEL11.PLT
 62
7
 10
4.86087500
 20
0.66390625
  0
VERTEX
  8
PANEL11.PLT
 62
7
 10
5.01325000
 20
0.67575000
  0
VERTEX
  8
PANEL11.PLT
 62
7
 10
5.16675000
 20
0.68271875
  0
VERTEX
  8
PANEL11.PLT
 62
7
 10
5.32100000
 20
0.68500000
  0
VERTEX
  8
PANEL11.PLT
 62
7
 10
5.50063184
 20
0.68189819
  0
VERTEX
  8
PANEL11.PLT
 62
7
 10
5.68086719
 20
0.67265430
  0
VERTEX
  8
PANEL11.PLT
 62
7
 10
5.86146582
 20
0.65736060
  0
VERTEX
  8
PANEL11.PLT
 62
7
 10
6.04218750
 20
0.63610937
  0
VERTEX
  8
PANEL11.PLT
 62
7
 10
6.22279199
 20
0.60899292
  0
VERTEX
  8
PANEL11.PLT
 62
7
 10
6.40303906
 20
0.57610352
  0
VERTEX
  8
PANEL11.PLT
 62
7
 10
6.58268848
 20
0.53753345
  0
VERTEX
  8
PANEL11.PLT
 62
7
 10
6.76150000
 20
0.49337500
  0
VERTEX
  8
PANEL11.PLT
 62
7
 10
6.93923340
 20
0.44372046
  0
VERTEX
  8
PANEL11.PLT
 62
7
 10
7.11564844
 20
0.38866211
  0
VERTEX
  8
PANEL11.PLT
 62
7
 10
7.29050488
 20
0.32829224
  0
VERTEX
  8
PANEL11.PLT
 62
7
 10
7.46356250
 20
0.26270312
  0
VERTEX
  8
PANEL11.PLT
 62
7
 10
7.63458105
 20
0.19198706
  0
VERTEX
  8
PANEL11.PLT
 62
7
 10
7.80332031
 20
0.11623633
  0
VERTEX
  8
PANEL11.PLT
 62
7
 10
7.96954004
 20
.03554321
  0
VERTEX
  8
PANEL11.PLT
 62
7
 10
8.13300000
 20
-.05000000
  0
VERTEX
  8
PANEL11.PLT
 62
7
 10
8.07429248
 20
-.07725684
  0
VERTEX
  8
PANEL11.PLT
 62
7
 10
8.01785547
 20
-0.10863281
  0
VERTEX
  8
PANEL11.PLT
 62
7
 10
7.96377979
 20
-0.14391113
  0
VERTEX
  8
PANEL11.PLT
 62
7
 10
7.91215625
 20
-0.18287500
  0
VERTEX
  8
PANEL11.PLT
 62
7
 10
7.86307568
 20
-0.22530762
  0
VERTEX
  8
PANEL11.PLT
 62
7
 10
7.81662891
 20
-0.27099219
  0
VERTEX
  8
PANEL11.PLT
 62
7
 10
7.77290674
 20
-0.31971191
  0
VERTEX
  8
PANEL11.PLT
 62
7
 10
7.73200000
 20
-0.37125000
  0
VERTEX
  8
PANEL11.PLT
 62
7
 10
7.69399951
 20
-0.42538965
  0
VERTEX
  8
PANEL11.PLT
 62
7
 10
7.65899609
 20
-0.48191406
  0
VERTEX
  8
PANEL11.PLT
 62
7
 10
7.62708057
 20
-0.54060645
  0
VERTEX
  8
PANEL11.PLT
 62
7
 10
7.59834375
 20
-0.60125000
  0
VERTEX
  8
PANEL11.PLT
 62
7
 10
7.57287646
 20
-0.66362793
  0
VERTEX
  8
PANEL11.PLT
 62
7
 10
7.55076953
 20
-0.72752344
  0
VERTEX
  8
PANEL11.PLT
 62
7
 10
7.53211377
 20
-0.79271973
  0
VERTEX
  8
PANEL11.PLT
 62
7
 10
7.51700000
 20
-0.85900000
  0
VERTEX
  8
PANEL11.PLT
 62
7
 10
-5.99400000
 20
-0.85900000
  0
VERTEX
  8
PANEL11.PLT
 62
7
 10
-5.90734814
 20
-0.79770581
  0
VERTEX
  8
PANEL11.PLT
 62
7
 10
-5.82405078
 20
-0.73352148
  0
VERTEX
  8
PANEL11.PLT
 62
7
 10
-5.74415771
 20
-0.66655688
  0
VERTEX
  8
PANEL11.PLT
 62
7
 10
-5.66771875
 20
-0.59692188
  0
VERTEX
  8
PANEL11.PLT
 62
7
 10
-5.59478369
 20
-0.52472632
  0
VERTEX
  8
PANEL11.PLT
 62
7
 10
-5.52540234
 20
-0.45008008
  0
VERTEX
  8
PANEL11.PLT
 62
7
 10
-5.45962451
 20
-0.37309302
  0
VERTEX
  8
PANEL11.PLT
 62
7
 10
-5.39750000
 20
-0.29387500
  0
VERTEX
  8
PANEL11.PLT
 62
7
 10
-5.33907861
 20
-0.21253589
  0
VERTEX
  8
PANEL11.PLT
 62
7
 10
-5.28441016
 20
-0.12918555
  0
VERTEX
  8
PANEL11.PLT
 62
7
 10
-5.23354443
 20
-.04393384
  0
VERTEX
  8
PANEL11.PLT
 62
7
 10
-5.18653125
 20
.04310937
  0
VERTEX
  8
PANEL11.PLT
 62
7
 10
-5.14342041
 20
0.13183423
  0
VERTEX
  8
PANEL11.PLT
 62
7
 10
-5.10426172
 20
0.22213086
  0
VERTEX
  8
PANEL11.PLT
 62
7
 10
-5.06910498
 20
0.31388940
  0
SEQEND
  0
POLYLINE
  8
PANEL11.PLT
 62
7
 66
1
 70
1
  0
VERTEX
  8
PANEL11.PLT
 62
7
 10
21.39400000
 20
0.40700000
  0
VERTEX
  8
PANEL11.PLT
 62
7
 10
21.42510498
 20
0.31388940
  0
VERTEX
  8
PANEL11.PLT
 62
7
 10
21.46026172
 20
0.22213086
  0
VERTEX
  8
PANEL11.PLT
 62
7
 10
21.49942041
 20
0.13183423
  0
VERTEX
  8
PANEL11.PLT
 62
7
 10
21.54253125
 20
.04310937
  0
VERTEX
  8
PANEL11.PLT
 62
7
 10
21.58954443
 20
-.04393384
  0
VERTEX
  8
PANEL11.PLT
 62
7
 10
21.64041016
 20
-0.12918555
  0
VERTEX
  8
PANEL11.PLT
 62
7
 10
21.69507861
 20
-0.21253589
  0
VERTEX
  8
PANEL11.PLT
 62
7
 10
21.75350000
 20
-0.29387500
  0
VERTEX
  8
PANEL11.PLT
 62
7
 10
21.81562451
 20
-0.37309302
  0
VERTEX
  8
PANEL11.PLT
 62
7
 10
21.88140234
 20
-0.45008008
  0
VERTEX
  8
PANEL11.PLT
 62
7
 10
21.95078369
 20
-0.52472632
  0
VERTEX
  8
PANEL11.PLT
 62
7
 10
22.02371875
 20
-0.59692188
  0
VERTEX
  8
PANEL11.PLT
 62
7
 10
22.10015771
 20
-0.66655688
  0
VERTEX
  8
PANEL11.PLT
 62
7
 10
22.18005078
 20
-0.73352148
  0
VERTEX
  8
PANEL11.PLT
 62
7
 10
22.26334814
 20
-0.79770581
  0
VERTEX
  8
PANEL11.PLT
 62
7
 10
22.35000000
 20
-0.85900000
  0
VERTEX
  8
PANEL11.PLT
 62
7
 10
8.83900000
 20
-0.85900000
  0
VERTEX
  8
PANEL11.PLT
 62
7
 10
8.82388623
 20
-0.79271973
  0
VERTEX
  8
PANEL11.PLT
 62
7
 10
8.80523047
 20
-0.72752344
  0
VERTEX
  8
PANEL11.PLT
 62
7
 10
8.78312354
 20
-0.66362793
  0
VERTEX
  8
PANEL11.PLT
 62
7
 10
8.75765625
 20
-0.60125000
  0
VERTEX
  8
PANEL11.PLT
 62
7
 10
8.72891943
 20
-0.54060645
  0
VERTEX
  8
PANEL11.PLT
 62
7
 10
8.69700391
 20
-0.48191406
  0
VERTEX
  8
PANEL11.PLT
 62
7
 10
8.66200049
 20
-0.42538965
  0
VERTEX
  8
PANEL11.PLT
 62
7
 10
8.62400000
 20
-0.37125000
  0
VERTEX
  8
PANEL11.PLT
 62
7
 10
8.58309326
 20
-0.31971191
  0
VERTEX
  8
PANEL11.PLT
 62
7
 10
8.53937109
 20
-0.27099219
  0
VERTEX
  8
PANEL11.PLT
 62
7
 10
8.49292432
 20
-0.22530762
  0
VERTEX
  8
PANEL11.PLT
 62
7
 10
8.44384375
 20
-0.18287500
  0
VERTEX
  8
PANEL11.PLT
 62
7
 10
8.39222021
 20
-0.14391113
  0
VERTEX
  8
PANEL11.PLT
 62
7
 10
8.33814453
 20
-0.10863281
  0
VERTEX
  8
PANEL11.PLT
 62
7
 10
8.28170752
 20
-.07725684
  0
VERTEX
  8
PANEL11.PLT
 62
7
 10
8.22300000
 20
-.05000000
  0
VERTEX
  8
PANEL11.PLT
 62
7
 10
8.38645996
 20
.03554321
  0
VERTEX
  8
PANEL11.PLT
 62
7
 10
8.55267969
 20
0.11623633
  0
VERTEX
  8
PANEL11.PLT
 62
7
 10
8.72141895
 20
0.19198706
  0
VERTEX
  8
PANEL11.PLT
 62
7
 10
8.89243750
 20
0.26270312
  0
VERTEX
  8
PANEL11.PLT
 62
7
 10
9.06549512
 20
0.32829224
  0
VERTEX
  8
PANEL11.PLT
 62
7
 10
9.24035156
 20
0.38866211
  0
VERTEX
  8
PANEL11.PLT
 62
7
 10
9.41676660
 20
0.44372046
  0
VERTEX
  8
PANEL11.PLT
 62
7
 10
9.59450000
 20
0.49337500
  0
VERTEX
  8
PANEL11.PLT
 62
7
 10
9.77331152
 20
0.53753345
  0
VERTEX
  8
PANEL11.PLT
 62
7
 10
9.95296094
 20
0.57610352
  0
VERTEX
  8
PANEL11.PLT
 62
7
 10
10.13320801
 20
0.60899292
  0
VERTEX
  8
PANEL11.PLT
 62
7
 10
10.31381250
 20
0.63610937
  0
VERTEX
  8
PANEL11.PLT
 62
7
 10
10.49453418
 20
0.65736060
  0
VERTEX
  8
PANEL11.PLT
 62
7
 10
10.67513281
 20
0.67265430
  0
VERTEX
  8
PANEL11.PLT
 62
7
 10
10.85536816
 20
0.68189819
  0
VERTEX
  8
PANEL11.PLT
 62
7
 10
11.03500000
 20
0.68500000
  0
VERTEX
  8
PANEL11.PLT
 62
7
 10
11.18925000
 20
0.68271875
  0
VERTEX
  8
PANEL11.PLT
 62
7
 10
11.34275000
 20
0.67575000
  0
VERTEX
  8
PANEL11.PLT
 62
7
 10
11.49512500
 20
0.66390625
  0
VERTEX
  8
PANEL11.PLT
 62
7
 10
11.64600000
 20
0.64700000
  0
VERTEX
  8
PANEL11.PLT
 62
7
 10
12.00777588
 20
0.60188525
  0
VERTEX
  8
PANEL11.PLT
 62
7
 10
12.36975391
 20
0.55701953
  0
VERTEX
  8
PANEL11.PLT
 62
7
 10
12.73197217
 20
0.51255811
  0
VERTEX
  8
PANEL11.PLT
 62
7
 10
13.09446875
 20
0.46865625
  0
VERTEX
  8
PANEL11.PLT
 62
7
 10
13.45728174
 20
0.42546924
  0
VERTEX
  8
PANEL11.PLT
 62
7
 10
13.82044922
 20
0.38315234
  0
VERTEX
  8
PANEL11.PLT
 62
7
 10
14.18400928
 20
0.34186084
  0
VERTEX
  8
PANEL11.PLT
 62
7
 10
14.54800000
 20
0.30175000
  0
VERTEX
  8
PANEL11.PLT
 62
7
 10
14.91245947
 20
0.26297510
  0
VERTEX
  8
PANEL11.PLT
 62
7
 10
15.27742578
 20
0.22569141
  0
VERTEX
  8
PANEL11.PLT
 62
7
 10
15.64293701
 20
0.19005420
  0
VERTEX
  8
PANEL11.PLT
 62
7
 10
16.00903125
 20
0.15621875
  0
VERTEX
  8
PANEL11.PLT
 62
7
 10
16.37574658
 20
0.12434033
  0
VERTEX
  8
PANEL11.PLT
 62
7
 10
16.74312109
 20
.09457422
  0
VERTEX
  8
PANEL11.PLT
 62
7
 10
17.11119287
 20
.06707568
  0
VERTEX
  8
PANEL11.PLT
 62
7
 10
17.48000000
 20
.04200000
  0
VERTEX
  8
PANEL11.PLT
 62
7
 10
17.67498438
 20
.03092188
  0
VERTEX
  8
PANEL11.PLT
 62
7
 10
17.86987500
 20
.02312500
  0
VERTEX
  8
PANEL11.PLT
 62
7
 10
18.06457813
 20
.01851563
  0
VERTEX
  8
PANEL11.PLT
 62
7
 10
18.25900000
 20
.01700000
  0
VERTEX
  8
PANEL11.PLT
 62
7
 10
18.45766211
 20
.01860034
  0
VERTEX
  8
PANEL11.PLT
 62
7
 10
18.65612500
 20
.02338086
  0
VERTEX
  8
PANEL11.PLT
 62
7
 10
18.85435352
 20
.03131079
  0
VERTEX
  8
PANEL11.PLT
 62
7
 10
19.05231250
 20
.04235937
  0
VERTEX
  8
PANEL11.PLT
 62
7
 10
19.24996680
 20
.05649585
  0
VERTEX
  8
PANEL11.PLT
 62
7
 10
19.44728125
 20
.07368945
  0
VERTEX
  8
PANEL11.PLT
 62
7
 10
19.64422070
 20
.09390942
  0
VERTEX
  8
PANEL11.PLT
 62
7
 10
19.84075000
 20
0.11712500
  0
VERTEX
  8
PANEL11.PLT
 62
7
 10
20.03683398
 20
0.14330542
  0
VERTEX
  8
PANEL11.PLT
 62
7
 10
20.23243750
 20
0.17241992
  0
VERTEX
  8
PANEL11.PLT
 62
7
 10
20.42752539
 20
0.20443774
  0
VERTEX
  8
PANEL11.PLT
 62
7
 10
20.62206250
 20
0.23932813
  0
VERTEX
  8
PANEL11.PLT
 62
7
 10
20.81601367
 20
0.27706030
  0
VERTEX
  8
PANEL11.PLT
 62
7
 10
21.00934375
 20
0.31760352
  0
VERTEX
  8
PANEL11.PLT
 62
7
 10
21.20201758
 20
0.36092700
  0
SEQEND
  0
POLYLINE
  8
PANEL11.PLT
 62
7
 66
1
 70
1
  0
VERTEX
  8
PANEL11.PLT
 62
7
 10
8.18400000
 20
-1.16500000
  0
VERTEX
  8
PANEL11.PLT
 62
7
 10
8.10368750
 20
-1.16259375
  0
VERTEX
  8
PANEL11.PLT
 62
7
 10
8.03050000
 20
-1.15700000
  0
VERTEX
  8
PANEL11.PLT
 62
7
 10
7.96406250
 20
-1.14840625
  0
VERTEX
  8
PANEL11.PLT
 62
7
 10
7.90400000
 20
-1.13700000
  0
VERTEX
  8
PANEL11.PLT
 62
7
 10
7.86223389
 20
-1.12684009
  0
VERTEX
  8
PANEL11.PLT
 62
7
 10
7.82421484
 20
-1.11553320
  0
VERTEX
  8
PANEL11.PLT
 62
7
 10
7.78979932
 20
-1.10315112
  0
VERTEX
  8
PANEL11.PLT
 62
7
 10
7.75884375
 20
-1.08976563
  0
VERTEX
  8
PANEL11.PLT
 62
7
 10
7.73120459
 20
-1.07544849
  0
VERTEX
  8
PANEL11.PLT
 62
7
 10
7.70673828
 20
-1.06027148
  0
VERTEX
  8
PANEL11.PLT
 62
7
 10
7.68530127
 20
-1.04430640
  0
VERTEX
  8
PANEL11.PLT
 62
7
 10
7.66675000
 20
-1.02762500
  0
VERTEX
  8
PANEL11.PLT
 62
7
 10
7.65094092
 20
-1.01029907
  0
VERTEX
  8
PANEL11.PLT
 62
7
 10
7.63773047
 20
-0.99240039
  0
VERTEX
  8
PANEL11.PLT
 62
7
 10
7.62697510
 20
-0.97400073
  0
VERTEX
  8
PANEL11.PLT
 62
7
 10
7.61853125
 20
-0.95517188
  0
VERTEX
  8
PANEL11.PLT
 62
7
 10
7.61225537
 20
-0.93598560
  0
VERTEX
  8
PANEL11.PLT
 62
7
 10
7.60800391
 20
-0.91651367
  0
VERTEX
  8
PANEL11.PLT
 62
7
 10
7.60563330
 20
-0.89682788
  0
VERTEX
  8
PANEL11.PLT
 62
7
 10
7.60500000
 20
-0.87700000
  0
VERTEX
  8
PANEL11.PLT
 62
7
 10
7.61933423
 20
-0.81509741
  0
VERTEX
  8
PANEL11.PLT
 62
7
 10
7.63712695
 20
-0.75438867
  0
VERTEX
  8
PANEL11.PLT
 62
7
 10
7.65825073
 20
-0.69505981
  0
VERTEX
  8
PANEL11.PLT
 62
7
 10
7.68257813
 20
-0.63729687
  0
VERTEX
  8
PANEL11.PLT
 62
7
 10
7.70998169
 20
-0.58128589
  0
VERTEX
  8
PANEL11.PLT
 62
7
 10
7.74033398
 20
-0.52721289
  0
VERTEX
  8
PANEL11.PLT
 62
7
 10
7.77350757
 20
-0.47526392
  0
VERTEX
  8
PANEL11.PLT
 62
7
 10
7.80937500
 20
-0.42562500
  0
VERTEX
  8
PANEL11.PLT
 62
7
 10
7.84780884
 20
-0.37848218
  0
VERTEX
  8
PANEL11.PLT
 62
7
 10
7.88868164
 20
-0.33402148
  0
VERTEX
  8
PANEL11.PLT
 62
7
 10
7.93186597
 20
-0.29242896
  0
VERTEX
  8
PANEL11.PLT
 62
7
 10
7.97723438
 20
-0.25389062
  0
VERTEX
  8
PANEL11.PLT
 62
7
 10
8.02465942
 20
-0.21859253
  0
VERTEX
  8
PANEL11.PLT
 62
7
 10
8.07401367
 20
-0.18672070
  0
VERTEX
  8
PANEL11.PLT
 62
7
 10
8.12516968
 20
-0.15846118
  0
VERTEX
  8
PANEL11.PLT
 62
7
 10
8.17800000
 20
-0.13400000
  0
VERTEX
  8
PANEL11.PLT
 62
7
 10
8.23083032
 20
-0.15846118
  0
VERTEX
  8
PANEL11.PLT
 62
7
 10
8.28198633
 20
-0.18672070
  0
VERTEX
  8
PANEL11.PLT
 62
7
 10
8.33134058
 20
-0.21859253
  0
VERTEX
  8
PANEL11.PLT
 62
7
 10
8.37876562
 20
-0.25389062
  0
VERTEX
  8
PANEL11.PLT
 62
7
 10
8.42413403
 20
-0.29242896
  0
VERTEX
  8
PANEL11.PLT
 62
7
 10
8.46731836
 20
-0.33402148
  0
VERTEX
  8
PANEL11.PLT
 62
7
 10
8.50819116
 20
-0.37848218
  0
VERTEX
  8
PANEL11.PLT
 62
7
 10
8.54662500
 20
-0.42562500
  0
VERTEX
  8
PANEL11.PLT
 62
7
 10
8.58249243
 20
-0.47526392
  0
VERTEX
  8
PANEL11.PLT
 62
7
 10
8.61566602
 20
-0.52721289
  0
VERTEX
  8
PANEL11.PLT
 62
7
 10
8.64601831
 20
-0.58128589
  0
VERTEX
  8
PANEL11.PLT
 62
7
 10
8.67342188
 20
-0.63729687
  0
VERTEX
  8
PANEL11.PLT
 62
7
 10
8.69774927
 20
-0.69505981
  0
VERTEX
  8
PANEL11.PLT
 62
7
 10
8.71887305
 20
-0.75438867
  0
VERTEX
  8
PANEL11.PLT
 62
7
 10
8.73666577
 20
-0.81509741
  0
VERTEX
  8
PANEL11.PLT
 62
7
 10
8.75100000
 20
-0.87700000
  0
VERTEX
  8
PANEL11.PLT
 62
7
 10
8.75036670
 20
-0.89682788
  0
VERTEX
  8
PANEL11.PLT
 62
7
 10
8.74799609
 20
-0.91651367
  0
VERTEX
  8
PANEL11.PLT
 62
7
 10
8.74374463
 20
-0.93598560
  0
VERTEX
  8
PANEL11.PLT
 62
7
 10
8.73746875
 20
-0.95517188
  0
VERTEX
  8
PANEL11.PLT
 62
7
 10
8.72902490
 20
-0.97400073
  0
VERTEX
  8
PANEL11.PLT
 62
7
 10
8.71826953
 20
-0.99240039
  0
VERTEX
  8
PANEL11.PLT
 62
7
 10
8.70505908
 20
-1.01029907
  0
VERTEX
  8
PANEL11.PLT
 62
7
 10
8.68925000
 20
-1.02762500
  0
VERTEX
  8
PANEL11.PLT
 62
7
 10
8.67069873
 20
-1.04430640
  0
VERTEX
  8
PANEL11.PLT
 62
7
 10
8.64926172
 20
-1.06027148
  0
VERTEX
  8
PANEL11.PLT
 62
7
 10
8.62479541
 20
-1.07544849
  0
VERTEX
  8
PANEL11.PLT
 62
7
 10
8.59715625
 20
-1.08976563
  0
VERTEX
  8
PANEL11.PLT
 62
7
 10
8.56620068
 20
-1.10315112
  0
VERTEX
  8
PANEL11.PLT
 62
7
 10
8.53178516
 20
-1.11553320
  0
VERTEX
  8
PANEL11.PLT
 62
7
 10
8.49376611
 20
-1.12684009
  0
VERTEX
  8
PANEL11.PLT
 62
7
 10
8.45200000
 20
-1.13700000
  0
VERTEX
  8
PANEL11.PLT
 62
7
 10
8.39381250
 20
-1.14840625
  0
VERTEX
  8
PANEL11.PLT
 62
7
 10
8.33150000
 20
-1.15700000
  0
VERTEX
  8
PANEL11.PLT
 62
7
 10
8.26243750
 20
-1.16259375
  0
SEQEND
  0
POLYLINE
  8
PANEL11.PLT
 62
7
 66
1
 70
1
  0
VERTEX
  8
PANEL11.PLT
 62
7
 10
-5.99300000
 20
-0.73747462
  0
VERTEX
  8
PANEL11.PLT
 62
7
 10
-5.99300000
 20
6.24059314
  0
VERTEX
  8
PANEL11.PLT
 62
7
 10
-5.90683497
 20
6.30507656
  0
VERTEX
  8
PANEL11.PLT
 62
7
 10
-5.82441388
 20
6.37271468
  0
VERTEX
  8
PANEL11.PLT
 62
7
 10
-5.74582803
 20
6.44336952
  0
VERTEX
  8
PANEL11.PLT
 62
7
 10
-5.67116874
 20
6.51690311
  0
VERTEX
  8
PANEL11.PLT
 62
7
 10
-5.60052733
 20
6.59317747
  0
VERTEX
  8
PANEL11.PLT
 62
7
 10
-5.53399511
 20
6.67205464
  0
VERTEX
  8
PANEL11.PLT
 62
7
 10
-5.47166340
 20
6.75339663
  0
VERTEX
  8
PANEL11.PLT
 62
7
 10
-5.41362351
 20
6.83706547
  0
VERTEX
  8
PANEL11.PLT
 62
7
 10
-5.35996677
 20
6.92292319
  0
VERTEX
  8
PANEL11.PLT
 62
7
 10
-5.31078447
 20
7.01083181
  0
VERTEX
  8
PANEL11.PLT
 62
7
 10
-5.26616795
 20
7.10065337
  0
VERTEX
  8
PANEL11.PLT
 62
7
 10
-5.22620851
 20
7.19224988
  0
VERTEX
  8
PANEL11.PLT
 62
7
 10
-5.19099747
 20
7.28548337
  0
VERTEX
  8
PANEL11.PLT
 62
7
 10
-5.16062615
 20
7.38021586
  0
VERTEX
  8
PANEL11.PLT
 62
7
 10
-5.13518586
 20
7.47630940
  0
VERTEX
  8
PANEL11.PLT
 62
7
 10
-5.11476792
 20
7.57362599
  0
VERTEX
  8
PANEL11.PLT
 62
7
 10
-5.11476792
 20
0.56682219
  0
VERTEX
  8
PANEL11.PLT
 62
7
 10
-5.13518586
 20
0.46982832
  0
VERTEX
  8
PANEL11.PLT
 62
7
 10
-5.16062615
 20
0.37464682
  0
VERTEX
  8
PANEL11.PLT
 62
7
 10
-5.19099747
 20
0.28133148
  0
VERTEX
  8
PANEL11.PLT
 62
7
 10
-5.22620851
 20
0.18993609
  0
VERTEX
  8
PANEL11.PLT
 62
7
 10
-5.26616795
 20
0.10051442
  0
VERTEX
  8
PANEL11.PLT
 62
7
 10
-5.31078447
 20
.01312028
  0
VERTEX
  8
PANEL11.PLT
 62
7
 10
-5.35996677
 20
-.07219256
  0
VERTEX
  8
PANEL11.PLT
 62
7
 10
-5.41362351
 20
-0.15537031
  0
VERTEX
  8
PANEL11.PLT
 62
7
 10
-5.47166340
 20
-0.23635918
  0
VERTEX
  8
PANEL11.PLT
 62
7
 10
-5.53399511
 20
-0.31510539
  0
VERTEX
  8
PANEL11.PLT
 62
7
 10
-5.60052733
 20
-0.39155514
  0
VERTEX
  8
PANEL11.PLT
 62
7
 10
-5.67116874
 20
-0.46565466
  0
VERTEX
  8
PANEL11.PLT
 62
7
 10
-5.74582803
 20
-0.53735015
  0
VERTEX
  8
PANEL11.PLT
 62
7
 10
-5.82441388
 20
-0.60658783
  0
VERTEX
  8
PANEL11.PLT
 62
7
 10
-5.90683497
 20
-0.67331392
  0
SEQEND
  0
POLYLINE
  8
PANEL11.PLT
 62
7
 66
1
 70
1
  0
VERTEX
  8
PANEL11.PLT
 62
7
 10
22.34900000
 20
-0.73747462
  0
VERTEX
  8
PANEL11.PLT
 62
7
 10
22.26283497
 20
-0.67331392
  0
VERTEX
  8
PANEL11.PLT
 62
7
 10
22.18041388
 20
-0.60658783
  0
VERTEX
  8
PANEL11.PLT
 62
7
 10
22.10182803
 20
-0.53735015
  0
VERTEX
  8
PANEL11.PLT
 62
7
 10
22.02716874
 20
-0.46565466
  0
VERTEX
  8
PANEL11.PLT
 62
7
 10
21.95652733
 20
-0.39155514
  0
VERTEX
  8
PANEL11.PLT
 62
7
 10
21.88999511
 20
-0.31510539
  0
VERTEX
  8
PANEL11.PLT
 62
7
 10
21.82766340
 20
-0.23635918
  0
VERTEX
  8
PANEL11.PLT
 62
7
 10
21.76962351
 20
-0.15537031
  0
VERTEX
  8
PANEL11.PLT
 62
7
 10
21.71596677
 20
-.07219256
  0
VERTEX
  8
PANEL11.PLT
 62
7
 10
21.66678447
 20
.01312028
  0
VERTEX
  8
PANEL11.PLT
 62
7
 10
21.62216795
 20
0.10051442
  0
VERTEX
  8
PANEL11.PLT
 62
7
 10
21.58220851
 20
0.18993609
  0
VERTEX
  8
PANEL11.PLT
 62
7
 10
21.54699747
 20
0.28133148
  0
VERTEX
  8
PANEL11.PLT
 62
7
 10
21.51662615
 20
0.37464682
  0
VERTEX
  8
PANEL11.PLT
 62
7
 10
21.49118586
 20
0.46982832
  0
VERTEX
  8
PANEL11.PLT
 62
7
 10
21.47076792
 20
0.56682219
  0
VERTEX
  8
PANEL11.PLT
 62
7
 10
21.47076792
 20
7.57362599
  0
VERTEX
  8
PANEL11.PLT
 62
7
 10
21.49118586
 20
7.47630940
  0
VERTEX
  8
PANEL11.PLT
 62
7
 10
21.51662615
 20
7.38021586
  0
VERTEX
  8
PANEL11.PLT
 62
7
 10
21.54699747
 20
7.28548337
  0
VERTEX
  8
PANEL11.PLT
 62
7
 10
21.58220851
 20
7.19224988
  0
VERTEX
  8
PANEL11.PLT
 62
7
 10
21.62216795
 20
7.10065337
  0
VERTEX
  8
PANEL11.PLT
 62
7
 10
21.66678447
 20
7.01083181
  0
VERTEX
  8
PANEL11.PLT
 62
7
 10
21.71596677
 20
6.92292319
  0
VERTEX
  8
PANEL11.PLT
 62
7
 10
21.76962351
 20
6.83706547
  0
VERTEX
  8
PANEL11.PLT
 62
7
 10
21.82766340
 20
6.75339663
  0
VERTEX
  8
PANEL11.PLT
 62
7
 10
21.88999511
 20
6.67205464
  0
VERTEX
  8
PANEL11.PLT
 62
7
 10
21.95652733
 20
6.59317747
  0
VERTEX
  8
PANEL11.PLT
 62
7
 10
22.02716874
 20
6.51690311
  0
VERTEX
  8
PANEL11.PLT
 62
7
 10
22.10182803
 20
6.44336952
  0
VERTEX
  8
PANEL11.PLT
 62
7
 10
22.18041388
 20
6.37271468
  0
VERTEX
  8
PANEL11.PLT
 62
7
 10
22.26283497
 20
6.30507656
  0
VERTEX
  8
PANEL11.PLT
 62
7
 10
22.34900000
 20
6.24059314
  0
SEQEND
  0
ENDSEC
  0
EOF
