  0
SECTION
  2
ENTITIES
  0
POLYLINE
  8
PANEL04.PLT
 62
7
 66
1
 70
1
  0
VERTEX
  8
PANEL04.PLT
 62
7
 10
-9.47400000
 20
-0.92200000
  0
VERTEX
  8
PANEL04.PLT
 62
7
 10
16.25400000
 20
-0.92200000
  0
VERTEX
  8
PANEL04.PLT
 62
7
 10
17.93200000
 20
1.87500000
  0
VERTEX
  8
PANEL04.PLT
 62
7
 10
16.25400000
 20
4.67200000
  0
VERTEX
  8
PANEL04.PLT
 62
7
 10
-9.47400000
 20
4.67200000
  0
VERTEX
  8
PANEL04.PLT
 62
7
 10
-11.15200000
 20
1.87500000
  0
SEQEND
  0
POLYLINE
  8
PANEL04.PLT
 62
7
 66
1
 70
1
  0
VERTEX
  8
PANEL04.PLT
 62
7
 10
-9.42051600
 20
-0.83200000
  0
VERTEX
  8
PANEL04.PLT
 62
7
 10
-11.05160800
 20
1.87500000
  0
VERTEX
  8
PANEL04.PLT
 62
7
 10
-9.42051600
 20
4.58200000
  0
VERTEX
  8
PANEL04.PLT
 62
7
 10
16.20238400
 20
4.58200000
  0
VERTEX
  8
PANEL04.PLT
 62
7
 10
17.83347600
 20
1.87500000
  0
VERTEX
  8
PANEL04.PLT
 62
7
 10
16.20238400
 20
-0.83200000
  0
SEQEND
  0
POLYLINE
  8
PANEL04.PLT
 62
7
 66
1
 70
1
  0
VERTEX
  8
PANEL04.PLT
 62
7
 10
-7.16661533
 20
-0.46600000
  0
VERTEX
  8
PANEL04.PLT
 62
7
 10
13.94821133
 20
-0.46600000
  0
VERTEX
  8
PANEL04.PLT
 62
7
 10
13.99260866
 20
-0.46377002
  0
VERTEX
  8
PANEL04.PLT
 62
7
 10
14.03693097
 20
-0.45720703
  0
VERTEX
  8
PANEL04.PLT
 62
7
 10
14.08082626
 20
-0.44650146
  0
VERTEX
  8
PANEL04.PLT
 62
7
 10
14.12394253
 20
-0.43184375
  0
VERTEX
  8
PANEL04.PLT
 62
7
 10
14.16592778
 20
-0.41342432
  0
VERTEX
  8
PANEL04.PLT
 62
7
 10
14.20643002
 20
-0.39143359
  0
VERTEX
  8
PANEL04.PLT
 62
7
 10
14.24509723
 20
-0.36606201
  0
VERTEX
  8
PANEL04.PLT
 62
7
 10
14.28157742
 20
-0.33750000
  0
VERTEX
  8
PANEL04.PLT
 62
7
 10
14.31551858
 20
-0.30593799
  0
VERTEX
  8
PANEL04.PLT
 62
7
 10
14.34656872
 20
-0.27156641
  0
VERTEX
  8
PANEL04.PLT
 62
7
 10
14.37437584
 20
-0.23457568
  0
VERTEX
  8
PANEL04.PLT
 62
7
 10
14.39858793
 20
-0.19515625
  0
VERTEX
  8
PANEL04.PLT
 62
7
 10
14.41885299
 20
-0.15349854
  0
VERTEX
  8
PANEL04.PLT
 62
7
 10
14.43481902
 20
-0.10979297
  0
VERTEX
  8
PANEL04.PLT
 62
7
 10
14.44613403
 20
-.06422998
  0
VERTEX
  8
PANEL04.PLT
 62
7
 10
14.45244600
 20
-.01700000
  0
VERTEX
  8
PANEL04.PLT
 62
7
 10
14.71638133
 20
-.02100000
  0
VERTEX
  8
PANEL04.PLT
 62
7
 10
14.71894344
 20
-.05038086
  0
VERTEX
  8
PANEL04.PLT
 62
7
 10
14.72358293
 20
-.07923437
  0
VERTEX
  8
PANEL04.PLT
 62
7
 10
14.73016131
 20
-0.10750195
  0
VERTEX
  8
PANEL04.PLT
 62
7
 10
14.73854008
 20
-0.13512500
  0
VERTEX
  8
PANEL04.PLT
 62
7
 10
14.74858077
 20
-0.16204492
  0
VERTEX
  8
PANEL04.PLT
 62
7
 10
14.76014486
 20
-0.18820312
  0
VERTEX
  8
PANEL04.PLT
 62
7
 10
14.77309388
 20
-0.21354102
  0
VERTEX
  8
PANEL04.PLT
 62
7
 10
14.78728933
 20
-0.23800000
  0
VERTEX
  8
PANEL04.PLT
 62
7
 10
14.81786533
 20
-0.27987109
  0
VERTEX
  8
PANEL04.PLT
 62
7
 10
14.85315006
 20
-0.31946875
  0
VERTEX
  8
PANEL04.PLT
 62
7
 10
14.89268189
 20
-0.35601953
  0
VERTEX
  8
PANEL04.PLT
 62
7
 10
14.93599917
 20
-0.38875000
  0
VERTEX
  8
PANEL04.PLT
 62
7
 10
14.98264026
 20
-0.41688672
  0
VERTEX
  8
PANEL04.PLT
 62
7
 10
15.03214352
 20
-0.43965625
  0
VERTEX
  8
PANEL04.PLT
 62
7
 10
15.08404732
 20
-0.45628516
  0
VERTEX
  8
PANEL04.PLT
 62
7
 10
15.13789000
 20
-0.46600000
  0
VERTEX
  8
PANEL04.PLT
 62
7
 10
15.99666467
 20
-0.46600000
  0
VERTEX
  8
PANEL04.PLT
 62
7
 10
17.39118867
 20
1.87500000
  0
VERTEX
  8
PANEL04.PLT
 62
7
 10
15.99666467
 20
4.21600000
  0
VERTEX
  8
PANEL04.PLT
 62
7
 10
15.13789000
 20
4.21600000
  0
VERTEX
  8
PANEL04.PLT
 62
7
 10
15.08404732
 20
4.20628516
  0
VERTEX
  8
PANEL04.PLT
 62
7
 10
15.03214352
 20
4.18965625
  0
VERTEX
  8
PANEL04.PLT
 62
7
 10
14.98264026
 20
4.16688672
  0
VERTEX
  8
PANEL04.PLT
 62
7
 10
14.93599917
 20
4.13875000
  0
VERTEX
  8
PANEL04.PLT
 62
7
 10
14.89268189
 20
4.10601953
  0
VERTEX
  8
PANEL04.PLT
 62
7
 10
14.85315006
 20
4.06946875
  0
VERTEX
  8
PANEL04.PLT
 62
7
 10
14.81786533
 20
4.02987109
  0
VERTEX
  8
PANEL04.PLT
 62
7
 10
14.78728933
 20
3.98800000
  0
VERTEX
  8
PANEL04.PLT
 62
7
 10
14.77309388
 20
3.96354102
  0
VERTEX
  8
PANEL04.PLT
 62
7
 10
14.76014486
 20
3.93820312
  0
VERTEX
  8
PANEL04.PLT
 62
7
 10
14.74858077
 20
3.91204492
  0
VERTEX
  8
PANEL04.PLT
 62
7
 10
14.73854008
 20
3.88512500
  0
VERTEX
  8
PANEL04.PLT
 62
7
 10
14.73016131
 20
3.85750195
  0
VERTEX
  8
PANEL04.PLT
 62
7
 10
14.72358293
 20
3.82923437
  0
VERTEX
  8
PANEL04.PLT
 62
7
 10
14.71894344
 20
3.80038086
  0
VERTEX
  8
PANEL04.PLT
 62
7
 10
14.71638133
 20
3.77100000
  0
VERTEX
  8
PANEL04.PLT
 62
7
 10
14.45244600
 20
3.76700000
  0
VERTEX
  8
PANEL04.PLT
 62
7
 10
14.44613403
 20
3.81422998
  0
VERTEX
  8
PANEL04.PLT
 62
7
 10
14.43481902
 20
3.85979297
  0
VERTEX
  8
PANEL04.PLT
 62
7
 10
14.41885299
 20
3.90349854
  0
VERTEX
  8
PANEL04.PLT
 62
7
 10
14.39858793
 20
3.94515625
  0
VERTEX
  8
PANEL04.PLT
 62
7
 10
14.37437584
 20
3.98457568
  0
VERTEX
  8
PANEL04.PLT
 62
7
 10
14.34656872
 20
4.02156641
  0
VERTEX
  8
PANEL04.PLT
 62
7
 10
14.31551858
 20
4.05593799
  0
VERTEX
  8
PANEL04.PLT
 62
7
 10
14.28157742
 20
4.08750000
  0
VERTEX
  8
PANEL04.PLT
 62
7
 10
14.24509723
 20
4.11606201
  0
VERTEX
  8
PANEL04.PLT
 62
7
 10
14.20643002
 20
4.14143359
  0
VERTEX
  8
PANEL04.PLT
 62
7
 10
14.16592778
 20
4.16342432
  0
VERTEX
  8
PANEL04.PLT
 62
7
 10
14.12394253
 20
4.18184375
  0
VERTEX
  8
PANEL04.PLT
 62
7
 10
14.08082626
 20
4.19650146
  0
VERTEX
  8
PANEL04.PLT
 62
7
 10
14.03693097
 20
4.20720703
  0
VERTEX
  8
PANEL04.PLT
 62
7
 10
13.99260866
 20
4.21377002
  0
VERTEX
  8
PANEL04.PLT
 62
7
 10
13.94821133
 20
4.21600000
  0
VERTEX
  8
PANEL04.PLT
 62
7
 10
-7.16661533
 20
4.21600000
  0
VERTEX
  8
PANEL04.PLT
 62
7
 10
-7.21101266
 20
4.21377002
  0
VERTEX
  8
PANEL04.PLT
 62
7
 10
-7.25533497
 20
4.20720703
  0
VERTEX
  8
PANEL04.PLT
 62
7
 10
-7.29923026
 20
4.19650146
  0
VERTEX
  8
PANEL04.PLT
 62
7
 10
-7.34234653
 20
4.18184375
  0
VERTEX
  8
PANEL04.PLT
 62
7
 10
-7.38433178
 20
4.16342432
  0
VERTEX
  8
PANEL04.PLT
 62
7
 10
-7.42483402
 20
4.14143359
  0
VERTEX
  8
PANEL04.PLT
 62
7
 10
-7.46350123
 20
4.11606201
  0
VERTEX
  8
PANEL04.PLT
 62
7
 10
-7.49998142
 20
4.08750000
  0
VERTEX
  8
PANEL04.PLT
 62
7
 10
-7.53392258
 20
4.05593799
  0
VERTEX
  8
PANEL04.PLT
 62
7
 10
-7.56497272
 20
4.02156641
  0
VERTEX
  8
PANEL04.PLT
 62
7
 10
-7.59277984
 20
3.98457568
  0
VERTEX
  8
PANEL04.PLT
 62
7
 10
-7.61699193
 20
3.94515625
  0
VERTEX
  8
PANEL04.PLT
 62
7
 10
-7.63725699
 20
3.90349854
  0
VERTEX
  8
PANEL04.PLT
 62
7
 10
-7.65322302
 20
3.85979297
  0
VERTEX
  8
PANEL04.PLT
 62
7
 10
-7.66453803
 20
3.81422998
  0
VERTEX
  8
PANEL04.PLT
 62
7
 10
-7.67085000
 20
3.76700000
  0
VERTEX
  8
PANEL04.PLT
 62
7
 10
-7.93478533
 20
3.77100000
  0
VERTEX
  8
PANEL04.PLT
 62
7
 10
-7.93734744
 20
3.80038086
  0
VERTEX
  8
PANEL04.PLT
 62
7
 10
-7.94198693
 20
3.82923437
  0
VERTEX
  8
PANEL04.PLT
 62
7
 10
-7.94856531
 20
3.85750195
  0
VERTEX
  8
PANEL04.PLT
 62
7
 10
-7.95694408
 20
3.88512500
  0
VERTEX
  8
PANEL04.PLT
 62
7
 10
-7.96698477
 20
3.91204492
  0
VERTEX
  8
PANEL04.PLT
 62
7
 10
-7.97854886
 20
3.93820312
  0
VERTEX
  8
PANEL04.PLT
 62
7
 10
-7.99149788
 20
3.96354102
  0
VERTEX
  8
PANEL04.PLT
 62
7
 10
-8.00569333
 20
3.98800000
  0
VERTEX
  8
PANEL04.PLT
 62
7
 10
-8.03626933
 20
4.02987109
  0
VERTEX
  8
PANEL04.PLT
 62
7
 10
-8.07155406
 20
4.06946875
  0
VERTEX
  8
PANEL04.PLT
 62
7
 10
-8.11108589
 20
4.10601953
  0
VERTEX
  8
PANEL04.PLT
 62
7
 10
-8.15440317
 20
4.13875000
  0
VERTEX
  8
PANEL04.PLT
 62
7
 10
-8.20104426
 20
4.16688672
  0
VERTEX
  8
PANEL04.PLT
 62
7
 10
-8.25054752
 20
4.18965625
  0
VERTEX
  8
PANEL04.PLT
 62
7
 10
-8.30245132
 20
4.20628516
  0
VERTEX
  8
PANEL04.PLT
 62
7
 10
-8.35629400
 20
4.21600000
  0
VERTEX
  8
PANEL04.PLT
 62
7
 10
-9.21506867
 20
4.21600000
  0
VERTEX
  8
PANEL04.PLT
 62
7
 10
-10.60959267
 20
1.87500000
  0
VERTEX
  8
PANEL04.PLT
 62
7
 10
-9.21506867
 20
-0.46600000
  0
VERTEX
  8
PANEL04.PLT
 62
7
 10
-8.35629400
 20
-0.46600000
  0
VERTEX
  8
PANEL04.PLT
 62
7
 10
-8.30245132
 20
-0.45628516
  0
VERTEX
  8
PANEL04.PLT
 62
7
 10
-8.25054752
 20
-0.43965625
  0
VERTEX
  8
PANEL04.PLT
 62
7
 10
-8.20104426
 20
-0.41688672
  0
VERTEX
  8
PANEL04.PLT
 62
7
 10
-8.15440317
 20
-0.38875000
  0
VERTEX
  8
PANEL04.PLT
 62
7
 10
-8.11108589
 20
-0.35601953
  0
VERTEX
  8
PANEL04.PLT
 62
7
 10
-8.07155406
 20
-0.31946875
  0
VERTEX
  8
PANEL04.PLT
 62
7
 10
-8.03626933
 20
-0.27987109
  0
VERTEX
  8
PANEL04.PLT
 62
7
 10
-8.00569333
 20
-0.23800000
  0
VERTEX
  8
PANEL04.PLT
 62
7
 10
-7.99149788
 20
-0.21354102
  0
VERTEX
  8
PANEL04.PLT
 62
7
 10
-7.97854886
 20
-0.18820312
  0
VERTEX
  8
PANEL04.PLT
 62
7
 10
-7.96698477
 20
-0.16204492
  0
VERTEX
  8
PANEL04.PLT
 62
7
 10
-7.95694408
 20
-0.13512500
  0
VERTEX
  8
PANEL04.PLT
 62
7
 10
-7.94856531
 20
-0.10750195
  0
VERTEX
  8
PANEL04.PLT
 62
7
 10
-7.94198693
 20
-.07923437
  0
VERTEX
  8
PANEL04.PLT
 62
7
 10
-7.93734744
 20
-.05038086
  0
VERTEX
  8
PANEL04.PLT
 62
7
 10
-7.93478533
 20
-.02100000
  0
VERTEX
  8
PANEL04.PLT
 62
7
 10
-7.67085000
 20
-.01700000
  0
VERTEX
  8
PANEL04.PLT
 62
7
 10
-7.66453803
 20
-.06422998
  0
VERTEX
  8
PANEL04.PLT
 62
7
 10
-7.65322302
 20
-0.10979297
  0
VERTEX
  8
PANEL04.PLT
 62
7
 10
-7.63725699
 20
-0.15349854
  0
VERTEX
  8
PANEL04.PLT
 62
7
 10
-7.61699193
 20
-0.19515625
  0
VERTEX
  8
PANEL04.PLT
 62
7
 10
-7.59277984
 20
-0.23457568
  0
VERTEX
  8
PANEL04.PLT
 62
7
 10
-7.56497272
 20
-0.27156641
  0
VERTEX
  8
PANEL04.PLT
 62
7
 10
-7.53392258
 20
-0.30593799
  0
VERTEX
  8
PANEL04.PLT
 62
7
 10
-7.49998142
 20
-0.33750000
  0
VERTEX
  8
PANEL04.PLT
 62
7
 10
-7.46350123
 20
-0.36606201
  0
VERTEX
  8
PANEL04.PLT
 62
7
 10
-7.42483402
 20
-0.39143359
  0
VERTEX
  8
PANEL04.PLT
 62
7
 10
-7.38433178
 20
-0.41342432
  0
VERTEX
  8
PANEL04.PLT
 62
7
 10
-7.34234653
 20
-0.43184375
  0
VERTEX
  8
PANEL04.PLT
 62
7
 10
-7.29923026
 20
-0.44650146
  0
VERTEX
  8
PANEL04.PLT
 62
7
 10
-7.25533497
 20
-0.45720703
  0
VERTEX
  8
PANEL04.PLT
 62
7
 10
-7.21101266
 20
-0.46377002
  0
SEQEND
  0
POLYLINE
  8
PANEL04.PLT
 62
7
 66
1
 70
1
  0
VERTEX
  8
PANEL04.PLT
 62
7
 10
-7.16700000
 20
-0.37600000
  0
VERTEX
  8
PANEL04.PLT
 62
7
 10
-7.20378442
 20
-0.37411987
  0
VERTEX
  8
PANEL04.PLT
 62
7
 10
-7.24044727
 20
-0.36859961
  0
VERTEX
  8
PANEL04.PLT
 62
7
 10
-7.27670288
 20
-0.35961938
  0
VERTEX
  8
PANEL04.PLT
 62
7
 10
-7.31226563
 20
-0.34735938
  0
VERTEX
  8
PANEL04.PLT
 62
7
 10
-7.34684985
 20
-0.33199976
  0
VERTEX
  8
PANEL04.PLT
 62
7
 10
-7.38016992
 20
-0.31372070
  0
VERTEX
  8
PANEL04.PLT
 62
7
 10
-7.41194019
 20
-0.29270239
  0
VERTEX
  8
PANEL04.PLT
 62
7
 10
-7.44187500
 20
-0.26912500
  0
VERTEX
  8
PANEL04.PLT
 62
7
 10
-7.46968872
 20
-0.24316870
  0
VERTEX
  8
PANEL04.PLT
 62
7
 10
-7.49509570
 20
-0.21501367
  0
VERTEX
  8
PANEL04.PLT
 62
7
 10
-7.51781030
 20
-0.18484009
  0
VERTEX
  8
PANEL04.PLT
 62
7
 10
-7.53754688
 20
-0.15282813
  0
VERTEX
  8
PANEL04.PLT
 62
7
 10
-7.55401978
 20
-0.11915796
  0
VERTEX
  8
PANEL04.PLT
 62
7
 10
-7.56694336
 20
-.08400977
  0
VERTEX
  8
PANEL04.PLT
 62
7
 10
-7.57603198
 20
-.04756372
  0
VERTEX
  8
PANEL04.PLT
 62
7
 10
-7.58100000
 20
-.01000000
  0
VERTEX
  8
PANEL04.PLT
 62
7
 10
-7.58800000
 20
.07400000
  0
VERTEX
  8
PANEL04.PLT
 62
7
 10
-7.67200000
 20
.07300000
  0
VERTEX
  8
PANEL04.PLT
 62
7
 10
-7.93600000
 20
.06900000
  0
VERTEX
  8
PANEL04.PLT
 62
7
 10
-8.02000000
 20
.06800000
  0
VERTEX
  8
PANEL04.PLT
 62
7
 10
-8.02500000
 20
-.01700000
  0
VERTEX
  8
PANEL04.PLT
 62
7
 10
-8.03051562
 20
-.06243750
  0
VERTEX
  8
PANEL04.PLT
 62
7
 10
-8.04212500
 20
-0.10675000
  0
VERTEX
  8
PANEL04.PLT
 62
7
 10
-8.05917188
 20
-0.14918750
  0
VERTEX
  8
PANEL04.PLT
 62
7
 10
-8.08100000
 20
-0.18900000
  0
VERTEX
  8
PANEL04.PLT
 62
7
 10
-8.10624023
 20
-0.22402344
  0
VERTEX
  8
PANEL04.PLT
 62
7
 10
-8.13517187
 20
-0.25675000
  0
VERTEX
  8
PANEL04.PLT
 62
7
 10
-8.16736133
 20
-0.28666406
  0
VERTEX
  8
PANEL04.PLT
 62
7
 10
-8.20237500
 20
-0.31325000
  0
VERTEX
  8
PANEL04.PLT
 62
7
 10
-8.23977930
 20
-0.33599219
  0
VERTEX
  8
PANEL04.PLT
 62
7
 10
-8.27914063
 20
-0.35437500
  0
VERTEX
  8
PANEL04.PLT
 62
7
 10
-8.32002539
 20
-0.36788281
  0
VERTEX
  8
PANEL04.PLT
 62
7
 10
-8.36200000
 20
-0.37600000
  0
VERTEX
  8
PANEL04.PLT
 62
7
 10
-9.16500000
 20
-0.37600000
  0
VERTEX
  8
PANEL04.PLT
 62
7
 10
-10.50700000
 20
1.87500000
  0
VERTEX
  8
PANEL04.PLT
 62
7
 10
-9.16500000
 20
4.12600000
  0
VERTEX
  8
PANEL04.PLT
 62
7
 10
-8.36200000
 20
4.12600000
  0
VERTEX
  8
PANEL04.PLT
 62
7
 10
-8.32002539
 20
4.11788281
  0
VERTEX
  8
PANEL04.PLT
 62
7
 10
-8.27914063
 20
4.10437500
  0
VERTEX
  8
PANEL04.PLT
 62
7
 10
-8.23977930
 20
4.08599219
  0
VERTEX
  8
PANEL04.PLT
 62
7
 10
-8.20237500
 20
4.06325000
  0
VERTEX
  8
PANEL04.PLT
 62
7
 10
-8.16736133
 20
4.03666406
  0
VERTEX
  8
PANEL04.PLT
 62
7
 10
-8.13517187
 20
4.00675000
  0
VERTEX
  8
PANEL04.PLT
 62
7
 10
-8.10624023
 20
3.97402344
  0
VERTEX
  8
PANEL04.PLT
 62
7
 10
-8.08100000
 20
3.93900000
  0
VERTEX
  8
PANEL04.PLT
 62
7
 10
-8.05917188
 20
3.89918750
  0
VERTEX
  8
PANEL04.PLT
 62
7
 10
-8.04212500
 20
3.85675000
  0
VERTEX
  8
PANEL04.PLT
 62
7
 10
-8.03051562
 20
3.81243750
  0
VERTEX
  8
PANEL04.PLT
 62
7
 10
-8.02500000
 20
3.76700000
  0
VERTEX
  8
PANEL04.PLT
 62
7
 10
-8.02000000
 20
3.68200000
  0
VERTEX
  8
PANEL04.PLT
 62
7
 10
-7.93600000
 20
3.68100000
  0
VERTEX
  8
PANEL04.PLT
 62
7
 10
-7.67200000
 20
3.67700000
  0
VERTEX
  8
PANEL04.PLT
 62
7
 10
-7.58800000
 20
3.67600000
  0
VERTEX
  8
PANEL04.PLT
 62
7
 10
-7.58100000
 20
3.76000000
  0
VERTEX
  8
PANEL04.PLT
 62
7
 10
-7.57603198
 20
3.79756372
  0
VERTEX
  8
PANEL04.PLT
 62
7
 10
-7.56694336
 20
3.83400977
  0
VERTEX
  8
PANEL04.PLT
 62
7
 10
-7.55401978
 20
3.86915796
  0
VERTEX
  8
PANEL04.PLT
 62
7
 10
-7.53754688
 20
3.90282813
  0
VERTEX
  8
PANEL04.PLT
 62
7
 10
-7.51781030
 20
3.93484009
  0
VERTEX
  8
PANEL04.PLT
 62
7
 10
-7.49509570
 20
3.96501367
  0
VERTEX
  8
PANEL04.PLT
 62
7
 10
-7.46968872
 20
3.99316870
  0
VERTEX
  8
PANEL04.PLT
 62
7
 10
-7.44187500
 20
4.01912500
  0
VERTEX
  8
PANEL04.PLT
 62
7
 10
-7.41194019
 20
4.04270239
  0
VERTEX
  8
PANEL04.PLT
 62
7
 10
-7.38016992
 20
4.06372070
  0
VERTEX
  8
PANEL04.PLT
 62
7
 10
-7.34684985
 20
4.08199976
  0
VERTEX
  8
PANEL04.PLT
 62
7
 10
-7.31226563
 20
4.09735937
  0
VERTEX
  8
PANEL04.PLT
 62
7
 10
-7.27670288
 20
4.10961938
  0
VERTEX
  8
PANEL04.PLT
 62
7
 10
-7.24044727
 20
4.11859961
  0
VERTEX
  8
PANEL04.PLT
 62
7
 10
-7.20378442
 20
4.12411987
  0
VERTEX
  8
PANEL04.PLT
 62
7
 10
-7.16700000
 20
4.12600000
  0
VERTEX
  8
PANEL04.PLT
 62
7
 10
13.94700000
 20
4.12600000
  0
VERTEX
  8
PANEL04.PLT
 62
7
 10
13.98378442
 20
4.12411987
  0
VERTEX
  8
PANEL04.PLT
 62
7
 10
14.02044727
 20
4.11859961
  0
VERTEX
  8
PANEL04.PLT
 62
7
 10
14.05670288
 20
4.10961938
  0
VERTEX
  8
PANEL04.PLT
 62
7
 10
14.09226562
 20
4.09735937
  0
VERTEX
  8
PANEL04.PLT
 62
7
 10
14.12684985
 20
4.08199976
  0
VERTEX
  8
PANEL04.PLT
 62
7
 10
14.16016992
 20
4.06372070
  0
VERTEX
  8
PANEL04.PLT
 62
7
 10
14.19194019
 20
4.04270239
  0
VERTEX
  8
PANEL04.PLT
 62
7
 10
14.22187500
 20
4.01912500
  0
VERTEX
  8
PANEL04.PLT
 62
7
 10
14.24968872
 20
3.99316870
  0
VERTEX
  8
PANEL04.PLT
 62
7
 10
14.27509570
 20
3.96501367
  0
VERTEX
  8
PANEL04.PLT
 62
7
 10
14.29781030
 20
3.93484009
  0
VERTEX
  8
PANEL04.PLT
 62
7
 10
14.31754687
 20
3.90282813
  0
VERTEX
  8
PANEL04.PLT
 62
7
 10
14.33401978
 20
3.86915796
  0
VERTEX
  8
PANEL04.PLT
 62
7
 10
14.34694336
 20
3.83400977
  0
VERTEX
  8
PANEL04.PLT
 62
7
 10
14.35603198
 20
3.79756372
  0
VERTEX
  8
PANEL04.PLT
 62
7
 10
14.36100000
 20
3.76000000
  0
VERTEX
  8
PANEL04.PLT
 62
7
 10
14.36800000
 20
3.67600000
  0
VERTEX
  8
PANEL04.PLT
 62
7
 10
14.45200000
 20
3.67600000
  0
VERTEX
  8
PANEL04.PLT
 62
7
 10
14.71600000
 20
3.68100000
  0
VERTEX
  8
PANEL04.PLT
 62
7
 10
14.80000000
 20
3.68200000
  0
VERTEX
  8
PANEL04.PLT
 62
7
 10
14.80500000
 20
3.76700000
  0
VERTEX
  8
PANEL04.PLT
 62
7
 10
14.81051563
 20
3.81229687
  0
VERTEX
  8
PANEL04.PLT
 62
7
 10
14.82212500
 20
3.85637500
  0
VERTEX
  8
PANEL04.PLT
 62
7
 10
14.83917187
 20
3.89876562
  0
VERTEX
  8
PANEL04.PLT
 62
7
 10
14.86100000
 20
3.93900000
  0
VERTEX
  8
PANEL04.PLT
 62
7
 10
14.88619922
 20
3.97402344
  0
VERTEX
  8
PANEL04.PLT
 62
7
 10
14.91503125
 20
4.00675000
  0
VERTEX
  8
PANEL04.PLT
 62
7
 10
14.94709766
 20
4.03666406
  0
VERTEX
  8
PANEL04.PLT
 62
7
 10
14.98200000
 20
4.06325000
  0
VERTEX
  8
PANEL04.PLT
 62
7
 10
15.01933984
 20
4.08599219
  0
VERTEX
  8
PANEL04.PLT
 62
7
 10
15.05871875
 20
4.10437500
  0
VERTEX
  8
PANEL04.PLT
 62
7
 10
15.09973828
 20
4.11788281
  0
VERTEX
  8
PANEL04.PLT
 62
7
 10
15.14200000
 20
4.12600000
  0
VERTEX
  8
PANEL04.PLT
 62
7
 10
15.94500000
 20
4.12600000
  0
VERTEX
  8
PANEL04.PLT
 62
7
 10
17.28700000
 20
1.87500000
  0
VERTEX
  8
PANEL04.PLT
 62
7
 10
15.94500000
 20
-0.37600000
  0
VERTEX
  8
PANEL04.PLT
 62
7
 10
15.14200000
 20
-0.37600000
  0
VERTEX
  8
PANEL04.PLT
 62
7
 10
15.09973828
 20
-0.36788281
  0
VERTEX
  8
PANEL04.PLT
 62
7
 10
15.05871875
 20
-0.35437500
  0
VERTEX
  8
PANEL04.PLT
 62
7
 10
15.01933984
 20
-0.33599219
  0
VERTEX
  8
PANEL04.PLT
 62
7
 10
14.98200000
 20
-0.31325000
  0
VERTEX
  8
PANEL04.PLT
 62
7
 10
14.94709766
 20
-0.28666406
  0
VERTEX
  8
PANEL04.PLT
 62
7
 10
14.91503125
 20
-0.25675000
  0
VERTEX
  8
PANEL04.PLT
 62
7
 10
14.88619922
 20
-0.22402344
  0
VERTEX
  8
PANEL04.PLT
 62
7
 10
14.86100000
 20
-0.18900000
  0
VERTEX
  8
PANEL04.PLT
 62
7
 10
14.83917187
 20
-0.14876563
  0
VERTEX
  8
PANEL04.PLT
 62
7
 10
14.82212500
 20
-0.10637500
  0
VERTEX
  8
PANEL04.PLT
 62
7
 10
14.81051563
 20
-.06229688
  0
VERTEX
  8
PANEL04.PLT
 62
7
 10
14.80500000
 20
-.01700000
  0
VERTEX
  8
PANEL04.PLT
 62
7
 10
14.80000000
 20
.06800000
  0
VERTEX
  8
PANEL04.PLT
 62
7
 10
14.71600000
 20
.06900000
  0
VERTEX
  8
PANEL04.PLT
 62
7
 10
14.45200000
 20
.07400000
  0
VERTEX
  8
PANEL04.PLT
 62
7
 10
14.36800000
 20
.07400000
  0
VERTEX
  8
PANEL04.PLT
 62
7
 10
14.36100000
 20
-.01000000
  0
VERTEX
  8
PANEL04.PLT
 62
7
 10
14.35603198
 20
-.04756372
  0
VERTEX
  8
PANEL04.PLT
 62
7
 10
14.34694336
 20
-.08400977
  0
VERTEX
  8
PANEL04.PLT
 62
7
 10
14.33401978
 20
-0.11915796
  0
VERTEX
  8
PANEL04.PLT
 62
7
 10
14.31754687
 20
-0.15282813
  0
VERTEX
  8
PANEL04.PLT
 62
7
 10
14.29781030
 20
-0.18484009
  0
VERTEX
  8
PANEL04.PLT
 62
7
 10
14.27509570
 20
-0.21501367
  0
VERTEX
  8
PANEL04.PLT
 62
7
 10
14.24968872
 20
-0.24316870
  0
VERTEX
  8
PANEL04.PLT
 62
7
 10
14.22187500
 20
-0.26912500
  0
VERTEX
  8
PANEL04.PLT
 62
7
 10
14.19194019
 20
-0.29270239
  0
VERTEX
  8
PANEL04.PLT
 62
7
 10
14.16016992
 20
-0.31372070
  0
VERTEX
  8
PANEL04.PLT
 62
7
 10
14.12684985
 20
-0.33199976
  0
VERTEX
  8
PANEL04.PLT
 62
7
 10
14.09226562
 20
-0.34735938
  0
VERTEX
  8
PANEL04.PLT
 62
7
 10
14.05670288
 20
-0.35961938
  0
VERTEX
  8
PANEL04.PLT
 62
7
 10
14.02044727
 20
-0.36859961
  0
VERTEX
  8
PANEL04.PLT
 62
7
 10
13.98378442
 20
-0.37411987
  0
VERTEX
  8
PANEL04.PLT
 62
7
 10
13.94700000
 20
-0.37600000
  0
SEQEND
  0
ENDSEC
  0
EOF
