  0
SECTION
  2
ENTITIES
  0
POLYLINE
  8
PANEL03.PLT
 62
7
 66
1
 70
1
  0
VERTEX
  8
PANEL03.PLT
 62
7
 10
21.36200000
 20
1.11500000
  0
VERTEX
  8
PANEL03.PLT
 62
7
 10
21.36200000
 20
0.45800000
  0
VERTEX
  8
PANEL03.PLT
 62
7
 10
21.36480200
 20
0.41769409
  0
VERTEX
  8
PANEL03.PLT
 62
7
 10
21.37283789
 20
0.38174023
  0
VERTEX
  8
PANEL03.PLT
 62
7
 10
21.38555249
 20
0.34989673
  0
VERTEX
  8
PANEL03.PLT
 62
7
 10
21.40239062
 20
0.32192188
  0
VERTEX
  8
PANEL03.PLT
 62
7
 10
21.42279712
 20
0.29757397
  0
VERTEX
  8
PANEL03.PLT
 62
7
 10
21.44621680
 20
0.27661133
  0
VERTEX
  8
PANEL03.PLT
 62
7
 10
21.47209448
 20
0.25879224
  0
VERTEX
  8
PANEL03.PLT
 62
7
 10
21.49987500
 20
0.24387500
  0
VERTEX
  8
PANEL03.PLT
 62
7
 10
21.52900317
 20
0.23161792
  0
VERTEX
  8
PANEL03.PLT
 62
7
 10
21.55892383
 20
0.22177930
  0
VERTEX
  8
PANEL03.PLT
 62
7
 10
21.58908179
 20
0.21411743
  0
VERTEX
  8
PANEL03.PLT
 62
7
 10
21.61892188
 20
0.20839062
  0
VERTEX
  8
PANEL03.PLT
 62
7
 10
21.64788892
 20
0.20435718
  0
VERTEX
  8
PANEL03.PLT
 62
7
 10
21.67542773
 20
0.20177539
  0
VERTEX
  8
PANEL03.PLT
 62
7
 10
21.70098315
 20
0.20040356
  0
VERTEX
  8
PANEL03.PLT
 62
7
 10
21.72400000
 20
0.20000000
  0
VERTEX
  8
PANEL03.PLT
 62
7
 10
21.77914063
 20
0.20200781
  0
VERTEX
  8
PANEL03.PLT
 62
7
 10
21.83550000
 20
0.20762500
  0
VERTEX
  8
PANEL03.PLT
 62
7
 10
21.89260937
 20
0.21624219
  0
VERTEX
  8
PANEL03.PLT
 62
7
 10
21.95000000
 20
0.22725000
  0
VERTEX
  8
PANEL03.PLT
 62
7
 10
22.00720313
 20
0.24003906
  0
VERTEX
  8
PANEL03.PLT
 62
7
 10
22.06375000
 20
0.25400000
  0
VERTEX
  8
PANEL03.PLT
 62
7
 10
22.11917187
 20
0.26852344
  0
VERTEX
  8
PANEL03.PLT
 62
7
 10
22.17300000
 20
0.28300000
  0
VERTEX
  8
PANEL03.PLT
 62
7
 10
22.24196875
 20
0.30181250
  0
VERTEX
  8
PANEL03.PLT
 62
7
 10
22.30775000
 20
0.31875000
  0
VERTEX
  8
PANEL03.PLT
 62
7
 10
22.37015625
 20
0.33306250
  0
VERTEX
  8
PANEL03.PLT
 62
7
 10
22.42900000
 20
0.34400000
  0
VERTEX
  8
PANEL03.PLT
 62
7
 10
22.46500000
 20
0.35000000
  0
VERTEX
  8
PANEL03.PLT
 62
7
 10
22.53850000
 20
0.36165039
  0
VERTEX
  8
PANEL03.PLT
 62
7
 10
22.61331250
 20
0.37307812
  0
VERTEX
  8
PANEL03.PLT
 62
7
 10
22.68915625
 20
0.38387305
  0
VERTEX
  8
PANEL03.PLT
 62
7
 10
22.76575000
 20
0.39362500
  0
VERTEX
  8
PANEL03.PLT
 62
7
 10
22.84281250
 20
0.40192383
  0
VERTEX
  8
PANEL03.PLT
 62
7
 10
22.92006250
 20
0.40835938
  0
VERTEX
  8
PANEL03.PLT
 62
7
 10
22.99721875
 20
0.41252148
  0
VERTEX
  8
PANEL03.PLT
 62
7
 10
23.07400000
 20
0.41400000
  0
VERTEX
  8
PANEL03.PLT
 62
7
 10
23.13463477
 20
0.41298438
  0
VERTEX
  8
PANEL03.PLT
 62
7
 10
23.19420313
 20
0.40981250
  0
VERTEX
  8
PANEL03.PLT
 62
7
 10
23.25257617
 20
0.40429688
  0
VERTEX
  8
PANEL03.PLT
 62
7
 10
23.30962500
 20
0.39625000
  0
VERTEX
  8
PANEL03.PLT
 62
7
 10
23.36522070
 20
0.38548437
  0
VERTEX
  8
PANEL03.PLT
 62
7
 10
23.41923437
 20
0.37181250
  0
VERTEX
  8
PANEL03.PLT
 62
7
 10
23.47153711
 20
0.35504687
  0
VERTEX
  8
PANEL03.PLT
 62
7
 10
23.52200000
 20
0.33500000
  0
VERTEX
  8
PANEL03.PLT
 62
7
 10
23.56027734
 20
0.31596875
  0
VERTEX
  8
PANEL03.PLT
 62
7
 10
23.60284375
 20
0.29018750
  0
VERTEX
  8
PANEL03.PLT
 62
7
 10
23.64817578
 20
0.25850000
  0
VERTEX
  8
PANEL03.PLT
 62
7
 10
23.69475000
 20
0.22175000
  0
VERTEX
  8
PANEL03.PLT
 62
7
 10
23.74104297
 20
0.18078125
  0
VERTEX
  8
PANEL03.PLT
 62
7
 10
23.78553125
 20
0.13643750
  0
VERTEX
  8
PANEL03.PLT
 62
7
 10
23.82669141
 20
.08956250
  0
VERTEX
  8
PANEL03.PLT
 62
7
 10
23.86300000
 20
.04100000
  0
VERTEX
  8
PANEL03.PLT
 62
7
 10
23.89939062
 20
0.10939844
  0
VERTEX
  8
PANEL03.PLT
 62
7
 10
23.93062500
 20
0.18543750
  0
VERTEX
  8
PANEL03.PLT
 62
7
 10
23.95679687
 20
0.26663281
  0
VERTEX
  8
PANEL03.PLT
 62
7
 10
23.97800000
 20
0.35050000
  0
VERTEX
  8
PANEL03.PLT
 62
7
 10
23.99432812
 20
0.43455469
  0
VERTEX
  8
PANEL03.PLT
 62
7
 10
24.00587500
 20
0.51631250
  0
VERTEX
  8
PANEL03.PLT
 62
7
 10
24.01273438
 20
0.59328906
  0
VERTEX
  8
PANEL03.PLT
 62
7
 10
24.01500000
 20
0.66300000
  0
VERTEX
  8
PANEL03.PLT
 62
7
 10
24.01138037
 20
0.77382373
  0
VERTEX
  8
PANEL03.PLT
 62
7
 10
24.00076172
 20
0.88649609
  0
VERTEX
  8
PANEL03.PLT
 62
7
 10
23.98350439
 20
1.00038135
  0
VERTEX
  8
PANEL03.PLT
 62
7
 10
23.95996875
 20
1.11484375
  0
VERTEX
  8
PANEL03.PLT
 62
7
 10
23.93051514
 20
1.22924756
  0
VERTEX
  8
PANEL03.PLT
 62
7
 10
23.89550391
 20
1.34295703
  0
VERTEX
  8
PANEL03.PLT
 62
7
 10
23.85529541
 20
1.45533643
  0
VERTEX
  8
PANEL03.PLT
 62
7
 10
23.81025000
 20
1.56575000
  0
VERTEX
  8
PANEL03.PLT
 62
7
 10
23.76072803
 20
1.67356201
  0
VERTEX
  8
PANEL03.PLT
 62
7
 10
23.70708984
 20
1.77813672
  0
VERTEX
  8
PANEL03.PLT
 62
7
 10
23.64969580
 20
1.87883838
  0
VERTEX
  8
PANEL03.PLT
 62
7
 10
23.58890625
 20
1.97503125
  0
VERTEX
  8
PANEL03.PLT
 62
7
 10
23.52508154
 20
2.06607959
  0
VERTEX
  8
PANEL03.PLT
 62
7
 10
23.45858203
 20
2.15134766
  0
VERTEX
  8
PANEL03.PLT
 62
7
 10
23.38976807
 20
2.23019971
  0
VERTEX
  8
PANEL03.PLT
 62
7
 10
23.31900000
 20
2.30200000
  0
VERTEX
  8
PANEL03.PLT
 62
7
 10
23.40434155
 20
2.41218140
  0
VERTEX
  8
PANEL03.PLT
 62
7
 10
23.48174805
 20
2.51862305
  0
VERTEX
  8
PANEL03.PLT
 62
7
 10
23.55160474
 20
2.62154614
  0
VERTEX
  8
PANEL03.PLT
 62
7
 10
23.61429688
 20
2.72117188
  0
VERTEX
  8
PANEL03.PLT
 62
7
 10
23.67020972
 20
2.81772144
  0
VERTEX
  8
PANEL03.PLT
 62
7
 10
23.71972852
 20
2.91141602
  0
VERTEX
  8
PANEL03.PLT
 62
7
 10
23.76323853
 20
3.00247681
  0
VERTEX
  8
PANEL03.PLT
 62
7
 10
23.80112500
 20
3.09112500
  0
VERTEX
  8
PANEL03.PLT
 62
7
 10
23.83377319
 20
3.17758179
  0
VERTEX
  8
PANEL03.PLT
 62
7
 10
23.86156836
 20
3.26206836
  0
VERTEX
  8
PANEL03.PLT
 62
7
 10
23.88489575
 20
3.34480591
  0
VERTEX
  8
PANEL03.PLT
 62
7
 10
23.90414063
 20
3.42601562
  0
VERTEX
  8
PANEL03.PLT
 62
7
 10
23.91968823
 20
3.50591870
  0
VERTEX
  8
PANEL03.PLT
 62
7
 10
23.93192383
 20
3.58473633
  0
VERTEX
  8
PANEL03.PLT
 62
7
 10
23.94123267
 20
3.66268970
  0
VERTEX
  8
PANEL03.PLT
 62
7
 10
23.94800000
 20
3.74000000
  0
VERTEX
  8
PANEL03.PLT
 62
7
 10
23.95306250
 20
3.83331250
  0
VERTEX
  8
PANEL03.PLT
 62
7
 10
23.95700000
 20
3.94650000
  0
VERTEX
  8
PANEL03.PLT
 62
7
 10
23.95868750
 20
4.06343750
  0
VERTEX
  8
PANEL03.PLT
 62
7
 10
23.95700000
 20
4.16800000
  0
VERTEX
  8
PANEL03.PLT
 62
7
 10
23.92914258
 20
4.15639063
  0
VERTEX
  8
PANEL03.PLT
 62
7
 10
23.90026562
 20
4.14693750
  0
VERTEX
  8
PANEL03.PLT
 62
7
 10
23.87141211
 20
4.13945313
  0
VERTEX
  8
PANEL03.PLT
 62
7
 10
23.84362500
 20
4.13375000
  0
VERTEX
  8
PANEL03.PLT
 62
7
 10
23.81794727
 20
4.12964063
  0
VERTEX
  8
PANEL03.PLT
 62
7
 10
23.79542187
 20
4.12693750
  0
VERTEX
  8
PANEL03.PLT
 62
7
 10
23.77709180
 20
4.12545312
  0
VERTEX
  8
PANEL03.PLT
 62
7
 10
23.76400000
 20
4.12500000
  0
VERTEX
  8
PANEL03.PLT
 62
7
 10
23.71471680
 20
4.12843945
  0
VERTEX
  8
PANEL03.PLT
 62
7
 10
23.66429688
 20
4.13826562
  0
VERTEX
  8
PANEL03.PLT
 62
7
 10
23.61263477
 20
4.15374023
  0
VERTEX
  8
PANEL03.PLT
 62
7
 10
23.55962500
 20
4.17412500
  0
VERTEX
  8
PANEL03.PLT
 62
7
 10
23.50516211
 20
4.19868164
  0
VERTEX
  8
PANEL03.PLT
 62
7
 10
23.44914062
 20
4.22667188
  0
VERTEX
  8
PANEL03.PLT
 62
7
 10
23.39145508
 20
4.25735742
  0
VERTEX
  8
PANEL03.PLT
 62
7
 10
23.33200000
 20
4.29000000
  0
VERTEX
  8
PANEL03.PLT
 62
7
 10
23.22700000
 20
4.34800000
  0
VERTEX
  8
PANEL03.PLT
 62
7
 10
23.18109961
 20
4.37058594
  0
VERTEX
  8
PANEL03.PLT
 62
7
 10
23.13485938
 20
4.39031250
  0
VERTEX
  8
PANEL03.PLT
 62
7
 10
23.08822070
 20
4.40713281
  0
VERTEX
  8
PANEL03.PLT
 62
7
 10
23.04112500
 20
4.42100000
  0
VERTEX
  8
PANEL03.PLT
 62
7
 10
22.99351367
 20
4.43186719
  0
VERTEX
  8
PANEL03.PLT
 62
7
 10
22.94532812
 20
4.43968750
  0
VERTEX
  8
PANEL03.PLT
 62
7
 10
22.89650977
 20
4.44441406
  0
VERTEX
  8
PANEL03.PLT
 62
7
 10
22.84700000
 20
4.44600000
  0
VERTEX
  8
PANEL03.PLT
 62
7
 10
22.80489648
 20
4.44483398
  0
VERTEX
  8
PANEL03.PLT
 62
7
 10
22.76254688
 20
4.44135938
  0
VERTEX
  8
PANEL03.PLT
 62
7
 10
22.71989258
 20
4.43561133
  0
VERTEX
  8
PANEL03.PLT
 62
7
 10
22.67687500
 20
4.42762500
  0
VERTEX
  8
PANEL03.PLT
 62
7
 10
22.63343555
 20
4.41743555
  0
VERTEX
  8
PANEL03.PLT
 62
7
 10
22.58951563
 20
4.40507813
  0
VERTEX
  8
PANEL03.PLT
 62
7
 10
22.54505664
 20
4.39058789
  0
VERTEX
  8
PANEL03.PLT
 62
7
 10
22.50000000
 20
4.37400000
  0
VERTEX
  8
PANEL03.PLT
 62
7
 10
22.50000000
 20
4.54400000
  0
VERTEX
  8
PANEL03.PLT
 62
7
 10
22.49675610
 20
4.60215479
  0
VERTEX
  8
PANEL03.PLT
 62
7
 10
22.48726758
 20
4.65730078
  0
VERTEX
  8
PANEL03.PLT
 62
7
 10
22.47189917
 20
4.70933545
  0
VERTEX
  8
PANEL03.PLT
 62
7
 10
22.45101563
 20
4.75815625
  0
VERTEX
  8
PANEL03.PLT
 62
7
 10
22.42498169
 20
4.80366064
  0
VERTEX
  8
PANEL03.PLT
 62
7
 10
22.39416211
 20
4.84574609
  0
VERTEX
  8
PANEL03.PLT
 62
7
 10
22.35892163
 20
4.88431006
  0
VERTEX
  8
PANEL03.PLT
 62
7
 10
22.31962500
 20
4.91925000
  0
VERTEX
  8
PANEL03.PLT
 62
7
 10
22.27663696
 20
4.95046338
  0
VERTEX
  8
PANEL03.PLT
 62
7
 10
22.23032227
 20
4.97784766
  0
VERTEX
  8
PANEL03.PLT
 62
7
 10
22.18104565
 20
5.00130029
  0
VERTEX
  8
PANEL03.PLT
 62
7
 10
22.12917188
 20
5.02071875
  0
VERTEX
  8
PANEL03.PLT
 62
7
 10
22.07506567
 20
5.03600049
  0
VERTEX
  8
PANEL03.PLT
 62
7
 10
22.01909180
 20
5.04704297
  0
VERTEX
  8
PANEL03.PLT
 62
7
 10
21.96161499
 20
5.05374365
  0
VERTEX
  8
PANEL03.PLT
 62
7
 10
21.90300000
 20
5.05600000
  0
VERTEX
  8
PANEL03.PLT
 62
7
 10
2.06500000
 20
5.05600000
  0
VERTEX
  8
PANEL03.PLT
 62
7
 10
2.00638501
 20
5.05374365
  0
VERTEX
  8
PANEL03.PLT
 62
7
 10
1.94890820
 20
5.04704297
  0
VERTEX
  8
PANEL03.PLT
 62
7
 10
1.89293433
 20
5.03600049
  0
VERTEX
  8
PANEL03.PLT
 62
7
 10
1.83882813
 20
5.02071875
  0
VERTEX
  8
PANEL03.PLT
 62
7
 10
1.78695435
 20
5.00130029
  0
VERTEX
  8
PANEL03.PLT
 62
7
 10
1.73767773
 20
4.97784766
  0
VERTEX
  8
PANEL03.PLT
 62
7
 10
1.69136304
 20
4.95046338
  0
VERTEX
  8
PANEL03.PLT
 62
7
 10
1.64837500
 20
4.91925000
  0
VERTEX
  8
PANEL03.PLT
 62
7
 10
1.60907837
 20
4.88431006
  0
VERTEX
  8
PANEL03.PLT
 62
7
 10
1.57383789
 20
4.84574609
  0
VERTEX
  8
PANEL03.PLT
 62
7
 10
1.54301831
 20
4.80366064
  0
VERTEX
  8
PANEL03.PLT
 62
7
 10
1.51698438
 20
4.75815625
  0
VERTEX
  8
PANEL03.PLT
 62
7
 10
1.49610083
 20
4.70933545
  0
VERTEX
  8
PANEL03.PLT
 62
7
 10
1.48073242
 20
4.65730078
  0
VERTEX
  8
PANEL03.PLT
 62
7
 10
1.47124390
 20
4.60215479
  0
VERTEX
  8
PANEL03.PLT
 62
7
 10
1.46800000
 20
4.54400000
  0
VERTEX
  8
PANEL03.PLT
 62
7
 10
1.46800000
 20
4.37400000
  0
VERTEX
  8
PANEL03.PLT
 62
7
 10
1.42294336
 20
4.39058789
  0
VERTEX
  8
PANEL03.PLT
 62
7
 10
1.37848437
 20
4.40507813
  0
VERTEX
  8
PANEL03.PLT
 62
7
 10
1.33456445
 20
4.41743555
  0
VERTEX
  8
PANEL03.PLT
 62
7
 10
1.29112500
 20
4.42762500
  0
VERTEX
  8
PANEL03.PLT
 62
7
 10
1.24810742
 20
4.43561133
  0
VERTEX
  8
PANEL03.PLT
 62
7
 10
1.20545313
 20
4.44135938
  0
VERTEX
  8
PANEL03.PLT
 62
7
 10
1.16310352
 20
4.44483398
  0
VERTEX
  8
PANEL03.PLT
 62
7
 10
1.12100000
 20
4.44600000
  0
VERTEX
  8
PANEL03.PLT
 62
7
 10
1.07149023
 20
4.44441406
  0
VERTEX
  8
PANEL03.PLT
 62
7
 10
1.02267187
 20
4.43968750
  0
VERTEX
  8
PANEL03.PLT
 62
7
 10
0.97448633
 20
4.43186719
  0
VERTEX
  8
PANEL03.PLT
 62
7
 10
0.92687500
 20
4.42100000
  0
VERTEX
  8
PANEL03.PLT
 62
7
 10
0.87977930
 20
4.40713281
  0
VERTEX
  8
PANEL03.PLT
 62
7
 10
0.83314062
 20
4.39031250
  0
VERTEX
  8
PANEL03.PLT
 62
7
 10
0.78690039
 20
4.37058594
  0
VERTEX
  8
PANEL03.PLT
 62
7
 10
0.74100000
 20
4.34800000
  0
VERTEX
  8
PANEL03.PLT
 62
7
 10
0.63600000
 20
4.29000000
  0
VERTEX
  8
PANEL03.PLT
 62
7
 10
0.57654492
 20
4.25735742
  0
VERTEX
  8
PANEL03.PLT
 62
7
 10
0.51885938
 20
4.22667188
  0
VERTEX
  8
PANEL03.PLT
 62
7
 10
0.46283789
 20
4.19868164
  0
VERTEX
  8
PANEL03.PLT
 62
7
 10
0.40837500
 20
4.17412500
  0
VERTEX
  8
PANEL03.PLT
 62
7
 10
0.35536523
 20
4.15374023
  0
VERTEX
  8
PANEL03.PLT
 62
7
 10
0.30370313
 20
4.13826562
  0
VERTEX
  8
PANEL03.PLT
 62
7
 10
0.25328320
 20
4.12843945
  0
VERTEX
  8
PANEL03.PLT
 62
7
 10
0.20400000
 20
4.12500000
  0
VERTEX
  8
PANEL03.PLT
 62
7
 10
0.19090820
 20
4.12545312
  0
VERTEX
  8
PANEL03.PLT
 62
7
 10
0.17257812
 20
4.12693750
  0
VERTEX
  8
PANEL03.PLT
 62
7
 10
0.15005273
 20
4.12964063
  0
VERTEX
  8
PANEL03.PLT
 62
7
 10
0.12437500
 20
4.13375000
  0
VERTEX
  8
PANEL03.PLT
 62
7
 10
.09658789
 20
4.13945313
  0
VERTEX
  8
PANEL03.PLT
 62
7
 10
.06773437
 20
4.14693750
  0
VERTEX
  8
PANEL03.PLT
 62
7
 10
.03885742
 20
4.15639063
  0
VERTEX
  8
PANEL03.PLT
 62
7
 10
.01100000
 20
4.16800000
  0
VERTEX
  8
PANEL03.PLT
 62
7
 10
.00931250
 20
4.06343750
  0
VERTEX
  8
PANEL03.PLT
 62
7
 10
.01100000
 20
3.94650000
  0
VERTEX
  8
PANEL03.PLT
 62
7
 10
.01493750
 20
3.83331250
  0
VERTEX
  8
PANEL03.PLT
 62
7
 10
.02000000
 20
3.74000000
  0
VERTEX
  8
PANEL03.PLT
 62
7
 10
.02676733
 20
3.66268970
  0
VERTEX
  8
PANEL03.PLT
 62
7
 10
.03607617
 20
3.58473633
  0
VERTEX
  8
PANEL03.PLT
 62
7
 10
.04831177
 20
3.50591870
  0
VERTEX
  8
PANEL03.PLT
 62
7
 10
.06385937
 20
3.42601562
  0
VERTEX
  8
PANEL03.PLT
 62
7
 10
.08310425
 20
3.34480591
  0
VERTEX
  8
PANEL03.PLT
 62
7
 10
0.10643164
 20
3.26206836
  0
VERTEX
  8
PANEL03.PLT
 62
7
 10
0.13422681
 20
3.17758179
  0
VERTEX
  8
PANEL03.PLT
 62
7
 10
0.16687500
 20
3.09112500
  0
VERTEX
  8
PANEL03.PLT
 62
7
 10
0.20476147
 20
3.00247681
  0
VERTEX
  8
PANEL03.PLT
 62
7
 10
0.24827148
 20
2.91141602
  0
VERTEX
  8
PANEL03.PLT
 62
7
 10
0.29779028
 20
2.81772144
  0
VERTEX
  8
PANEL03.PLT
 62
7
 10
0.35370313
 20
2.72117188
  0
VERTEX
  8
PANEL03.PLT
 62
7
 10
0.41639526
 20
2.62154614
  0
VERTEX
  8
PANEL03.PLT
 62
7
 10
0.48625195
 20
2.51862305
  0
VERTEX
  8
PANEL03.PLT
 62
7
 10
0.56365845
 20
2.41218140
  0
VERTEX
  8
PANEL03.PLT
 62
7
 10
0.64900000
 20
2.30200000
  0
VERTEX
  8
PANEL03.PLT
 62
7
 10
0.57823193
 20
2.23019971
  0
VERTEX
  8
PANEL03.PLT
 62
7
 10
0.50941797
 20
2.15134766
  0
VERTEX
  8
PANEL03.PLT
 62
7
 10
0.44291846
 20
2.06607959
  0
VERTEX
  8
PANEL03.PLT
 62
7
 10
0.37909375
 20
1.97503125
  0
VERTEX
  8
PANEL03.PLT
 62
7
 10
0.31830420
 20
1.87883838
  0
VERTEX
  8
PANEL03.PLT
 62
7
 10
0.26091016
 20
1.77813672
  0
VERTEX
  8
PANEL03.PLT
 62
7
 10
0.20727197
 20
1.67356201
  0
VERTEX
  8
PANEL03.PLT
 62
7
 10
0.15775000
 20
1.56575000
  0
VERTEX
  8
PANEL03.PLT
 62
7
 10
0.11270459
 20
1.45533643
  0
VERTEX
  8
PANEL03.PLT
 62
7
 10
.07249609
 20
1.34295703
  0
VERTEX
  8
PANEL03.PLT
 62
7
 10
.03748486
 20
1.22924756
  0
VERTEX
  8
PANEL03.PLT
 62
7
 10
.00803125
 20
1.11484375
  0
VERTEX
  8
PANEL03.PLT
 62
7
 10
-.01550439
 20
1.00038135
  0
VERTEX
  8
PANEL03.PLT
 62
7
 10
-.03276172
 20
0.88649609
  0
VERTEX
  8
PANEL03.PLT
 62
7
 10
-.04338037
 20
0.77382373
  0
VERTEX
  8
PANEL03.PLT
 62
7
 10
-.04700000
 20
0.66300000
  0
VERTEX
  8
PANEL03.PLT
 62
7
 10
-.04473437
 20
0.59328906
  0
VERTEX
  8
PANEL03.PLT
 62
7
 10
-.03787500
 20
0.51631250
  0
VERTEX
  8
PANEL03.PLT
 62
7
 10
-.02632813
 20
0.43455469
  0
VERTEX
  8
PANEL03.PLT
 62
7
 10
-.01000000
 20
0.35050000
  0
VERTEX
  8
PANEL03.PLT
 62
7
 10
.01120312
 20
0.26663281
  0
VERTEX
  8
PANEL03.PLT
 62
7
 10
.03737500
 20
0.18543750
  0
VERTEX
  8
PANEL03.PLT
 62
7
 10
.06860938
 20
0.10939844
  0
VERTEX
  8
PANEL03.PLT
 62
7
 10
0.10500000
 20
.04100000
  0
VERTEX
  8
PANEL03.PLT
 62
7
 10
0.14130859
 20
.08956250
  0
VERTEX
  8
PANEL03.PLT
 62
7
 10
0.18246875
 20
0.13643750
  0
VERTEX
  8
PANEL03.PLT
 62
7
 10
0.22695703
 20
0.18078125
  0
VERTEX
  8
PANEL03.PLT
 62
7
 10
0.27325000
 20
0.22175000
  0
VERTEX
  8
PANEL03.PLT
 62
7
 10
0.31982422
 20
0.25850000
  0
VERTEX
  8
PANEL03.PLT
 62
7
 10
0.36515625
 20
0.29018750
  0
VERTEX
  8
PANEL03.PLT
 62
7
 10
0.40772266
 20
0.31596875
  0
VERTEX
  8
PANEL03.PLT
 62
7
 10
0.44600000
 20
0.33500000
  0
VERTEX
  8
PANEL03.PLT
 62
7
 10
0.49646289
 20
0.35504687
  0
VERTEX
  8
PANEL03.PLT
 62
7
 10
0.54876563
 20
0.37181250
  0
VERTEX
  8
PANEL03.PLT
 62
7
 10
0.60277930
 20
0.38548437
  0
VERTEX
  8
PANEL03.PLT
 62
7
 10
0.65837500
 20
0.39625000
  0
VERTEX
  8
PANEL03.PLT
 62
7
 10
0.71542383
 20
0.40429688
  0
VERTEX
  8
PANEL03.PLT
 62
7
 10
0.77379688
 20
0.40981250
  0
VERTEX
  8
PANEL03.PLT
 62
7
 10
0.83336523
 20
0.41298438
  0
VERTEX
  8
PANEL03.PLT
 62
7
 10
0.89400000
 20
0.41400000
  0
VERTEX
  8
PANEL03.PLT
 62
7
 10
0.97078125
 20
0.41252148
  0
VERTEX
  8
PANEL03.PLT
 62
7
 10
1.04793750
 20
0.40835938
  0
VERTEX
  8
PANEL03.PLT
 62
7
 10
1.12518750
 20
0.40192383
  0
VERTEX
  8
PANEL03.PLT
 62
7
 10
1.20225000
 20
0.39362500
  0
VERTEX
  8
PANEL03.PLT
 62
7
 10
1.27884375
 20
0.38387305
  0
VERTEX
  8
PANEL03.PLT
 62
7
 10
1.35468750
 20
0.37307812
  0
VERTEX
  8
PANEL03.PLT
 62
7
 10
1.42950000
 20
0.36165039
  0
VERTEX
  8
PANEL03.PLT
 62
7
 10
1.50300000
 20
0.35000000
  0
VERTEX
  8
PANEL03.PLT
 62
7
 10
1.53900000
 20
0.34400000
  0
VERTEX
  8
PANEL03.PLT
 62
7
 10
1.59784375
 20
0.33306250
  0
VERTEX
  8
PANEL03.PLT
 62
7
 10
1.66025000
 20
0.31875000
  0
VERTEX
  8
PANEL03.PLT
 62
7
 10
1.72603125
 20
0.30181250
  0
VERTEX
  8
PANEL03.PLT
 62
7
 10
1.79500000
 20
0.28300000
  0
VERTEX
  8
PANEL03.PLT
 62
7
 10
1.84882813
 20
0.26852344
  0
VERTEX
  8
PANEL03.PLT
 62
7
 10
1.90425000
 20
0.25400000
  0
VERTEX
  8
PANEL03.PLT
 62
7
 10
1.96079687
 20
0.24003906
  0
VERTEX
  8
PANEL03.PLT
 62
7
 10
2.01800000
 20
0.22725000
  0
VERTEX
  8
PANEL03.PLT
 62
7
 10
2.07539062
 20
0.21624219
  0
VERTEX
  8
PANEL03.PLT
 62
7
 10
2.13250000
 20
0.20762500
  0
VERTEX
  8
PANEL03.PLT
 62
7
 10
2.18885937
 20
0.20200781
  0
VERTEX
  8
PANEL03.PLT
 62
7
 10
2.24400000
 20
0.20000000
  0
VERTEX
  8
PANEL03.PLT
 62
7
 10
2.26701685
 20
0.20040356
  0
VERTEX
  8
PANEL03.PLT
 62
7
 10
2.29257227
 20
0.20177539
  0
VERTEX
  8
PANEL03.PLT
 62
7
 10
2.32011108
 20
0.20435718
  0
VERTEX
  8
PANEL03.PLT
 62
7
 10
2.34907813
 20
0.20839062
  0
VERTEX
  8
PANEL03.PLT
 62
7
 10
2.37891821
 20
0.21411743
  0
VERTEX
  8
PANEL03.PLT
 62
7
 10
2.40907617
 20
0.22177930
  0
VERTEX
  8
PANEL03.PLT
 62
7
 10
2.43899683
 20
0.23161792
  0
VERTEX
  8
PANEL03.PLT
 62
7
 10
2.46812500
 20
0.24387500
  0
VERTEX
  8
PANEL03.PLT
 62
7
 10
2.49590552
 20
0.25879224
  0
VERTEX
  8
PANEL03.PLT
 62
7
 10
2.52178320
 20
0.27661133
  0
VERTEX
  8
PANEL03.PLT
 62
7
 10
2.54520288
 20
0.29757397
  0
VERTEX
  8
PANEL03.PLT
 62
7
 10
2.56560938
 20
0.32192188
  0
VERTEX
  8
PANEL03.PLT
 62
7
 10
2.58244751
 20
0.34989673
  0
VERTEX
  8
PANEL03.PLT
 62
7
 10
2.59516211
 20
0.38174023
  0
VERTEX
  8
PANEL03.PLT
 62
7
 10
2.60319800
 20
0.41769409
  0
VERTEX
  8
PANEL03.PLT
 62
7
 10
2.60600000
 20
0.45800000
  0
VERTEX
  8
PANEL03.PLT
 62
7
 10
2.60600000
 20
1.11500000
  0
SEQEND
  0
POLYLINE
  8
PANEL03.PLT
 62
7
 66
1
 70
1
  0
VERTEX
  8
PANEL03.PLT
 62
7
 10
22.07900000
 20
1.20500000
  0
VERTEX
  8
PANEL03.PLT
 62
7
 10
1.88900000
 20
1.20500000
  0
VERTEX
  8
PANEL03.PLT
 62
7
 10
1.85094727
 20
1.20330273
  0
VERTEX
  8
PANEL03.PLT
 62
7
 10
1.80732812
 20
1.19817188
  0
VERTEX
  8
PANEL03.PLT
 62
7
 10
1.76045117
 20
1.18954883
  0
VERTEX
  8
PANEL03.PLT
 62
7
 10
1.71262500
 20
1.17737500
  0
VERTEX
  8
PANEL03.PLT
 62
7
 10
1.66615820
 20
1.16159180
  0
VERTEX
  8
PANEL03.PLT
 62
7
 10
1.62335937
 20
1.14214062
  0
VERTEX
  8
PANEL03.PLT
 62
7
 10
1.58653711
 20
1.11896289
  0
VERTEX
  8
PANEL03.PLT
 62
7
 10
1.55800000
 20
1.09200000
  0
VERTEX
  8
PANEL03.PLT
 62
7
 10
1.55500000
 20
4.55100000
  0
VERTEX
  8
PANEL03.PLT
 62
7
 10
1.55755249
 20
4.59554102
  0
VERTEX
  8
PANEL03.PLT
 62
7
 10
1.56538867
 20
4.63831250
  0
VERTEX
  8
PANEL03.PLT
 62
7
 10
1.57821411
 20
4.67916211
  0
VERTEX
  8
PANEL03.PLT
 62
7
 10
1.59573437
 20
4.71793750
  0
VERTEX
  8
PANEL03.PLT
 62
7
 10
1.61765503
 20
4.75448633
  0
VERTEX
  8
PANEL03.PLT
 62
7
 10
1.64368164
 20
4.78865625
  0
VERTEX
  8
PANEL03.PLT
 62
7
 10
1.67351978
 20
4.82029492
  0
VERTEX
  8
PANEL03.PLT
 62
7
 10
1.70687500
 20
4.84925000
  0
VERTEX
  8
PANEL03.PLT
 62
7
 10
1.74345288
 20
4.87536914
  0
VERTEX
  8
PANEL03.PLT
 62
7
 10
1.78295898
 20
4.89850000
  0
VERTEX
  8
PANEL03.PLT
 62
7
 10
1.82509888
 20
4.91849023
  0
VERTEX
  8
PANEL03.PLT
 62
7
 10
1.86957813
 20
4.93518750
  0
VERTEX
  8
PANEL03.PLT
 62
7
 10
1.91610229
 20
4.94843945
  0
VERTEX
  8
PANEL03.PLT
 62
7
 10
1.96437695
 20
4.95809375
  0
VERTEX
  8
PANEL03.PLT
 62
7
 10
2.01410767
 20
4.96399805
  0
VERTEX
  8
PANEL03.PLT
 62
7
 10
2.06500000
 20
4.96600000
  0
VERTEX
  8
PANEL03.PLT
 62
7
 10
21.90300000
 20
4.96600000
  0
VERTEX
  8
PANEL03.PLT
 62
7
 10
21.95389233
 20
4.96399805
  0
VERTEX
  8
PANEL03.PLT
 62
7
 10
22.00362305
 20
4.95809375
  0
VERTEX
  8
PANEL03.PLT
 62
7
 10
22.05189771
 20
4.94843945
  0
VERTEX
  8
PANEL03.PLT
 62
7
 10
22.09842187
 20
4.93518750
  0
VERTEX
  8
PANEL03.PLT
 62
7
 10
22.14290112
 20
4.91849023
  0
VERTEX
  8
PANEL03.PLT
 62
7
 10
22.18504102
 20
4.89850000
  0
VERTEX
  8
PANEL03.PLT
 62
7
 10
22.22454712
 20
4.87536914
  0
VERTEX
  8
PANEL03.PLT
 62
7
 10
22.26112500
 20
4.84925000
  0
VERTEX
  8
PANEL03.PLT
 62
7
 10
22.29448022
 20
4.82029492
  0
VERTEX
  8
PANEL03.PLT
 62
7
 10
22.32431836
 20
4.78865625
  0
VERTEX
  8
PANEL03.PLT
 62
7
 10
22.35034497
 20
4.75448633
  0
VERTEX
  8
PANEL03.PLT
 62
7
 10
22.37226563
 20
4.71793750
  0
VERTEX
  8
PANEL03.PLT
 62
7
 10
22.38978589
 20
4.67916211
  0
VERTEX
  8
PANEL03.PLT
 62
7
 10
22.40261133
 20
4.63831250
  0
VERTEX
  8
PANEL03.PLT
 62
7
 10
22.41044751
 20
4.59554102
  0
VERTEX
  8
PANEL03.PLT
 62
7
 10
22.41300000
 20
4.55100000
  0
VERTEX
  8
PANEL03.PLT
 62
7
 10
22.41000000
 20
1.09200000
  0
VERTEX
  8
PANEL03.PLT
 62
7
 10
22.38146289
 20
1.11896289
  0
VERTEX
  8
PANEL03.PLT
 62
7
 10
22.34464063
 20
1.14214062
  0
VERTEX
  8
PANEL03.PLT
 62
7
 10
22.30184180
 20
1.16159180
  0
VERTEX
  8
PANEL03.PLT
 62
7
 10
22.25537500
 20
1.17737500
  0
VERTEX
  8
PANEL03.PLT
 62
7
 10
22.20754883
 20
1.18954883
  0
VERTEX
  8
PANEL03.PLT
 62
7
 10
22.16067187
 20
1.19817188
  0
VERTEX
  8
PANEL03.PLT
 62
7
 10
22.11705273
 20
1.20330273
  0
SEQEND
  0
POLYLINE
  8
PANEL03.PLT
 62
7
 66
1
 70
1
  0
VERTEX
  8
PANEL03.PLT
 62
7
 10
1.47300000
 20
4.28100000
  0
VERTEX
  8
PANEL03.PLT
 62
7
 10
1.46800000
 20
1.09200000
  0
VERTEX
  8
PANEL03.PLT
 62
7
 10
1.46862305
 20
1.06011719
  0
VERTEX
  8
PANEL03.PLT
 62
7
 10
1.47054687
 20
1.02781250
  0
VERTEX
  8
PANEL03.PLT
 62
7
 10
1.47385352
 20
0.99560156
  0
VERTEX
  8
PANEL03.PLT
 62
7
 10
1.47862500
 20
0.96400000
  0
VERTEX
  8
PANEL03.PLT
 62
7
 10
1.48494336
 20
0.93352344
  0
VERTEX
  8
PANEL03.PLT
 62
7
 10
1.49289063
 20
0.90468750
  0
VERTEX
  8
PANEL03.PLT
 62
7
 10
1.50254883
 20
0.87800781
  0
VERTEX
  8
PANEL03.PLT
 62
7
 10
1.51400000
 20
0.85400000
  0
VERTEX
  8
PANEL03.PLT
 62
7
 10
1.53451953
 20
0.82527344
  0
VERTEX
  8
PANEL03.PLT
 62
7
 10
1.55909375
 20
0.80175000
  0
VERTEX
  8
PANEL03.PLT
 62
7
 10
1.58624609
 20
0.78291406
  0
VERTEX
  8
PANEL03.PLT
 62
7
 10
1.61450000
 20
0.76825000
  0
VERTEX
  8
PANEL03.PLT
 62
7
 10
1.64237891
 20
0.75724219
  0
VERTEX
  8
PANEL03.PLT
 62
7
 10
1.66840625
 20
0.74937500
  0
VERTEX
  8
PANEL03.PLT
 62
7
 10
1.69110547
 20
0.74413281
  0
VERTEX
  8
PANEL03.PLT
 62
7
 10
1.70900000
 20
0.74100000
  0
VERTEX
  8
PANEL03.PLT
 62
7
 10
1.83337500
 20
0.72687500
  0
VERTEX
  8
PANEL03.PLT
 62
7
 10
1.96000000
 20
0.71800000
  0
VERTEX
  8
PANEL03.PLT
 62
7
 10
2.12500000
 20
0.70500000
  0
VERTEX
  8
PANEL03.PLT
 62
7
 10
2.17095313
 20
0.70000977
  0
VERTEX
  8
PANEL03.PLT
 62
7
 10
2.21943750
 20
0.69264063
  0
VERTEX
  8
PANEL03.PLT
 62
7
 10
2.26914062
 20
0.68191992
  0
VERTEX
  8
PANEL03.PLT
 62
7
 10
2.31875000
 20
0.66687500
  0
VERTEX
  8
PANEL03.PLT
 62
7
 10
2.36695313
 20
0.64653320
  0
VERTEX
  8
PANEL03.PLT
 62
7
 10
2.41243750
 20
0.61992187
  0
VERTEX
  8
PANEL03.PLT
 62
7
 10
2.45389063
 20
0.58606836
  0
VERTEX
  8
PANEL03.PLT
 62
7
 10
2.49000000
 20
0.54400000
  0
VERTEX
  8
PANEL03.PLT
 62
7
 10
2.50022852
 20
0.52547656
  0
VERTEX
  8
PANEL03.PLT
 62
7
 10
2.50770312
 20
0.50437500
  0
VERTEX
  8
PANEL03.PLT
 62
7
 10
2.51248242
 20
0.48177344
  0
VERTEX
  8
PANEL03.PLT
 62
7
 10
2.51462500
 20
0.45875000
  0
VERTEX
  8
PANEL03.PLT
 62
7
 10
2.51418945
 20
0.43638281
  0
VERTEX
  8
PANEL03.PLT
 62
7
 10
2.51123437
 20
0.41575000
  0
VERTEX
  8
PANEL03.PLT
 62
7
 10
2.50581836
 20
0.39792969
  0
VERTEX
  8
PANEL03.PLT
 62
7
 10
2.49800000
 20
0.38400000
  0
VERTEX
  8
PANEL03.PLT
 62
7
 10
2.47371484
 20
0.35798047
  0
VERTEX
  8
PANEL03.PLT
 62
7
 10
2.44603125
 20
0.33671875
  0
VERTEX
  8
PANEL03.PLT
 62
7
 10
2.41520703
 20
0.31991016
  0
VERTEX
  8
PANEL03.PLT
 62
7
 10
2.38150000
 20
0.30725000
  0
VERTEX
  8
PANEL03.PLT
 62
7
 10
2.34516797
 20
0.29843359
  0
VERTEX
  8
PANEL03.PLT
 62
7
 10
2.30646875
 20
0.29315625
  0
VERTEX
  8
PANEL03.PLT
 62
7
 10
2.26566016
 20
0.29111328
  0
VERTEX
  8
PANEL03.PLT
 62
7
 10
2.22300000
 20
0.29200000
  0
VERTEX
  8
PANEL03.PLT
 62
7
 10
2.14257227
 20
0.29994531
  0
VERTEX
  8
PANEL03.PLT
 62
7
 10
2.05826563
 20
0.31431250
  0
VERTEX
  8
PANEL03.PLT
 62
7
 10
1.97154492
 20
0.33327344
  0
VERTEX
  8
PANEL03.PLT
 62
7
 10
1.88387500
 20
0.35500000
  0
VERTEX
  8
PANEL03.PLT
 62
7
 10
1.79672070
 20
0.37766406
  0
VERTEX
  8
PANEL03.PLT
 62
7
 10
1.71154688
 20
0.39943750
  0
VERTEX
  8
PANEL03.PLT
 62
7
 10
1.62981836
 20
0.41849219
  0
VERTEX
  8
PANEL03.PLT
 62
7
 10
1.55300000
 20
0.43300000
  0
VERTEX
  8
PANEL03.PLT
 62
7
 10
1.50905341
 20
0.43984720
  0
VERTEX
  8
PANEL03.PLT
 62
7
 10
1.46426709
 20
0.44682056
  0
VERTEX
  8
PANEL03.PLT
 62
7
 10
1.41872125
 20
0.45381772
  0
VERTEX
  8
PANEL03.PLT
 62
7
 10
1.37249609
 20
0.46073633
  0
VERTEX
  8
PANEL03.PLT
 62
7
 10
1.32567181
 20
0.46747403
  0
VERTEX
  8
PANEL03.PLT
 62
7
 10
1.27832861
 20
0.47392847
  0
VERTEX
  8
PANEL03.PLT
 62
7
 10
1.23054669
 20
0.47999728
  0
VERTEX
  8
PANEL03.PLT
 62
7
 10
1.18240625
 20
0.48557813
  0
VERTEX
  8
PANEL03.PLT
 62
7
 10
1.13398749
 20
0.49056863
  0
VERTEX
  8
PANEL03.PLT
 62
7
 10
1.08537061
 20
0.49486646
  0
VERTEX
  8
PANEL03.PLT
 62
7
 10
1.03663580
 20
0.49836923
  0
VERTEX
  8
PANEL03.PLT
 62
7
 10
0.98786328
 20
0.50097461
  0
VERTEX
  8
PANEL03.PLT
 62
7
 10
0.93913324
 20
0.50258023
  0
VERTEX
  8
PANEL03.PLT
 62
7
 10
0.89052588
 20
0.50308374
  0
VERTEX
  8
PANEL03.PLT
 62
7
 10
0.84212140
 20
0.50238278
  0
VERTEX
  8
PANEL03.PLT
 62
7
 10
0.79400000
 20
0.50037500
  0
VERTEX
  8
PANEL03.PLT
 62
7
 10
0.74624188
 20
0.49695804
  0
VERTEX
  8
PANEL03.PLT
 62
7
 10
0.69892725
 20
0.49202954
  0
VERTEX
  8
PANEL03.PLT
 62
7
 10
0.65213629
 20
0.48548715
  0
VERTEX
  8
PANEL03.PLT
 62
7
 10
0.60594922
 20
0.47722852
  0
VERTEX
  8
PANEL03.PLT
 62
7
 10
0.56044623
 20
0.46715128
  0
VERTEX
  8
PANEL03.PLT
 62
7
 10
0.51570752
 20
0.45515308
  0
VERTEX
  8
PANEL03.PLT
 62
7
 10
0.47181329
 20
0.44113156
  0
VERTEX
  8
PANEL03.PLT
 62
7
 10
0.42884375
 20
0.42498438
  0
VERTEX
  8
PANEL03.PLT
 62
7
 10
0.38687909
 20
0.40660916
  0
VERTEX
  8
PANEL03.PLT
 62
7
 10
0.34599951
 20
0.38590356
  0
VERTEX
  8
PANEL03.PLT
 62
7
 10
0.30628522
 20
0.36276523
  0
VERTEX
  8
PANEL03.PLT
 62
7
 10
0.26781641
 20
0.33709180
  0
VERTEX
  8
PANEL03.PLT
 62
7
 10
0.23067328
 20
0.30878091
  0
VERTEX
  8
PANEL03.PLT
 62
7
 10
0.19493604
 20
0.27773022
  0
VERTEX
  8
PANEL03.PLT
 62
7
 10
0.16068488
 20
0.24383737
  0
VERTEX
  8
PANEL03.PLT
 62
7
 10
0.12800000
 20
0.20700000
  0
VERTEX
  8
PANEL03.PLT
 62
7
 10
0.10468170
 20
0.26679501
  0
VERTEX
  8
PANEL03.PLT
 62
7
 10
.08527783
 20
0.32886401
  0
VERTEX
  8
PANEL03.PLT
 62
7
 10
.06967743
 20
0.39301419
  0
VERTEX
  8
PANEL03.PLT
 62
7
 10
.05776953
 20
0.45905273
  0
VERTEX
  8
PANEL03.PLT
 62
7
 10
.04944318
 20
0.52678683
  0
VERTEX
  8
PANEL03.PLT
 62
7
 10
.04458740
 20
0.59602368
  0
VERTEX
  8
PANEL03.PLT
 62
7
 10
.04309125
 20
0.66657047
  0
VERTEX
  8
PANEL03.PLT
 62
7
 10
.04484375
 20
0.73823437
  0
VERTEX
  8
PANEL03.PLT
 62
7
 10
.04973395
 20
0.81082260
  0
VERTEX
  8
PANEL03.PLT
 62
7
 10
.05765088
 20
0.88414233
  0
VERTEX
  8
PANEL03.PLT
 62
7
 10
.06848358
 20
0.95800076
  0
VERTEX
  8
PANEL03.PLT
 62
7
 10
.08212109
 20
1.03220508
  0
VERTEX
  8
PANEL03.PLT
 62
7
 10
.09845245
 20
1.10656247
  0
VERTEX
  8
PANEL03.PLT
 62
7
 10
0.11736670
 20
1.18088013
  0
VERTEX
  8
PANEL03.PLT
 62
7
 10
0.13875287
 20
1.25496524
  0
VERTEX
  8
PANEL03.PLT
 62
7
 10
0.16250000
 20
1.32862500
  0
VERTEX
  8
PANEL03.PLT
 62
7
 10
0.18849713
 20
1.40166660
  0
VERTEX
  8
PANEL03.PLT
 62
7
 10
0.21663330
 20
1.47389722
  0
VERTEX
  8
PANEL03.PLT
 62
7
 10
0.24679755
 20
1.54512405
  0
VERTEX
  8
PANEL03.PLT
 62
7
 10
0.27887891
 20
1.61515430
  0
VERTEX
  8
PANEL03.PLT
 62
7
 10
0.31276642
 20
1.68379514
  0
VERTEX
  8
PANEL03.PLT
 62
7
 10
0.34834912
 20
1.75085376
  0
VERTEX
  8
PANEL03.PLT
 62
7
 10
0.38551605
 20
1.81613736
  0
VERTEX
  8
PANEL03.PLT
 62
7
 10
0.42415625
 20
1.87945312
  0
VERTEX
  8
PANEL03.PLT
 62
7
 10
0.46415875
 20
1.94060825
  0
VERTEX
  8
PANEL03.PLT
 62
7
 10
0.50541260
 20
1.99940991
  0
VERTEX
  8
PANEL03.PLT
 62
7
 10
0.54780682
 20
2.05566531
  0
VERTEX
  8
PANEL03.PLT
 62
7
 10
0.59123047
 20
2.10918164
  0
VERTEX
  8
PANEL03.PLT
 62
7
 10
0.63557257
 20
2.15976608
  0
VERTEX
  8
PANEL03.PLT
 62
7
 10
0.68072217
 20
2.20722583
  0
VERTEX
  8
PANEL03.PLT
 62
7
 10
0.72656830
 20
2.25136807
  0
VERTEX
  8
PANEL03.PLT
 62
7
 10
0.77300000
 20
2.29200000
  0
VERTEX
  8
PANEL03.PLT
 62
7
 10
0.66113794
 20
2.43248267
  0
VERTEX
  8
PANEL03.PLT
 62
7
 10
0.56238477
 20
2.56662695
  0
VERTEX
  8
PANEL03.PLT
 62
7
 10
0.47592749
 20
2.69491479
  0
VERTEX
  8
PANEL03.PLT
 62
7
 10
0.40095313
 20
2.81782813
  0
VERTEX
  8
PANEL03.PLT
 62
7
 10
0.33664868
 20
2.93584888
  0
VERTEX
  8
PANEL03.PLT
 62
7
 10
0.28220117
 20
3.04945898
  0
VERTEX
  8
PANEL03.PLT
 62
7
 10
0.23679761
 20
3.15914038
  0
VERTEX
  8
PANEL03.PLT
 62
7
 10
0.19962500
 20
3.26537500
  0
VERTEX
  8
PANEL03.PLT
 62
7
 10
0.16987036
 20
3.36864478
  0
VERTEX
  8
PANEL03.PLT
 62
7
 10
0.14672070
 20
3.46943164
  0
VERTEX
  8
PANEL03.PLT
 62
7
 10
0.12936304
 20
3.56821753
  0
VERTEX
  8
PANEL03.PLT
 62
7
 10
0.11698438
 20
3.66548438
  0
VERTEX
  8
PANEL03.PLT
 62
7
 10
0.10877173
 20
3.76171411
  0
VERTEX
  8
PANEL03.PLT
 62
7
 10
0.10391211
 20
3.85738867
  0
VERTEX
  8
PANEL03.PLT
 62
7
 10
0.10159253
 20
3.95298999
  0
VERTEX
  8
PANEL03.PLT
 62
7
 10
0.10100000
 20
4.04900000
  0
VERTEX
  8
PANEL03.PLT
 62
7
 10
0.14351880
 20
4.03982495
  0
VERTEX
  8
PANEL03.PLT
 62
7
 10
0.18629102
 20
4.03564648
  0
VERTEX
  8
PANEL03.PLT
 62
7
 10
0.22926538
 20
4.03604712
  0
VERTEX
  8
PANEL03.PLT
 62
7
 10
0.27239062
 20
4.04060937
  0
VERTEX
  8
PANEL03.PLT
 62
7
 10
0.31561548
 20
4.04891577
  0
VERTEX
  8
PANEL03.PLT
 62
7
 10
0.35888867
 20
4.06054883
  0
VERTEX
  8
PANEL03.PLT
 62
7
 10
0.40215894
 20
4.07509106
  0
VERTEX
  8
PANEL03.PLT
 62
7
 10
0.44537500
 20
4.09212500
  0
VERTEX
  8
PANEL03.PLT
 62
7
 10
0.48848560
 20
4.11123315
  0
VERTEX
  8
PANEL03.PLT
 62
7
 10
0.53143945
 20
4.13199805
  0
VERTEX
  8
PANEL03.PLT
 62
7
 10
0.57418530
 20
4.15400220
  0
VERTEX
  8
PANEL03.PLT
 62
7
 10
0.61667187
 20
4.17682813
  0
VERTEX
  8
PANEL03.PLT
 62
7
 10
0.65884790
 20
4.20005835
  0
VERTEX
  8
PANEL03.PLT
 62
7
 10
0.70066211
 20
4.22327539
  0
VERTEX
  8
PANEL03.PLT
 62
7
 10
0.74206323
 20
4.24606177
  0
VERTEX
  8
PANEL03.PLT
 62
7
 10
0.78300000
 20
4.26800000
  0
VERTEX
  8
PANEL03.PLT
 62
7
 10
0.82297192
 20
4.28781152
  0
VERTEX
  8
PANEL03.PLT
 62
7
 10
0.86305664
 20
4.30522656
  0
VERTEX
  8
PANEL03.PLT
 62
7
 10
0.90332007
 20
4.32021582
  0
VERTEX
  8
PANEL03.PLT
 62
7
 10
0.94382813
 20
4.33275000
  0
VERTEX
  8
PANEL03.PLT
 62
7
 10
0.98464673
 20
4.34279980
  0
VERTEX
  8
PANEL03.PLT
 62
7
 10
1.02584180
 20
4.35033594
  0
VERTEX
  8
PANEL03.PLT
 62
7
 10
1.06747925
 20
4.35532910
  0
VERTEX
  8
PANEL03.PLT
 62
7
 10
1.10962500
 20
4.35775000
  0
VERTEX
  8
PANEL03.PLT
 62
7
 10
1.15234497
 20
4.35756934
  0
VERTEX
  8
PANEL03.PLT
 62
7
 10
1.19570508
 20
4.35475781
  0
VERTEX
  8
PANEL03.PLT
 62
7
 10
1.23977124
 20
4.34928613
  0
VERTEX
  8
PANEL03.PLT
 62
7
 10
1.28460938
 20
4.34112500
  0
VERTEX
  8
PANEL03.PLT
 62
7
 10
1.33028540
 20
4.33024512
  0
VERTEX
  8
PANEL03.PLT
 62
7
 10
1.37686523
 20
4.31661719
  0
VERTEX
  8
PANEL03.PLT
 62
7
 10
1.42441479
 20
4.30021191
  0
SEQEND
  0
POLYLINE
  8
PANEL03.PLT
 62
7
 66
1
 70
1
  0
VERTEX
  8
PANEL03.PLT
 62
7
 10
22.49500000
 20
4.28100000
  0
VERTEX
  8
PANEL03.PLT
 62
7
 10
22.54358521
 20
4.30021191
  0
VERTEX
  8
PANEL03.PLT
 62
7
 10
22.59113477
 20
4.31661719
  0
VERTEX
  8
PANEL03.PLT
 62
7
 10
22.63771460
 20
4.33024512
  0
VERTEX
  8
PANEL03.PLT
 62
7
 10
22.68339063
 20
4.34112500
  0
VERTEX
  8
PANEL03.PLT
 62
7
 10
22.72822876
 20
4.34928613
  0
VERTEX
  8
PANEL03.PLT
 62
7
 10
22.77229492
 20
4.35475781
  0
VERTEX
  8
PANEL03.PLT
 62
7
 10
22.81565503
 20
4.35756934
  0
VERTEX
  8
PANEL03.PLT
 62
7
 10
22.85837500
 20
4.35775000
  0
VERTEX
  8
PANEL03.PLT
 62
7
 10
22.90052075
 20
4.35532910
  0
VERTEX
  8
PANEL03.PLT
 62
7
 10
22.94215820
 20
4.35033594
  0
VERTEX
  8
PANEL03.PLT
 62
7
 10
22.98335327
 20
4.34279980
  0
VERTEX
  8
PANEL03.PLT
 62
7
 10
23.02417188
 20
4.33275000
  0
VERTEX
  8
PANEL03.PLT
 62
7
 10
23.06467993
 20
4.32021582
  0
VERTEX
  8
PANEL03.PLT
 62
7
 10
23.10494336
 20
4.30522656
  0
VERTEX
  8
PANEL03.PLT
 62
7
 10
23.14502808
 20
4.28781152
  0
VERTEX
  8
PANEL03.PLT
 62
7
 10
23.18500000
 20
4.26800000
  0
VERTEX
  8
PANEL03.PLT
 62
7
 10
23.22593677
 20
4.24606177
  0
VERTEX
  8
PANEL03.PLT
 62
7
 10
23.26733789
 20
4.22327539
  0
VERTEX
  8
PANEL03.PLT
 62
7
 10
23.30915210
 20
4.20005835
  0
VERTEX
  8
PANEL03.PLT
 62
7
 10
23.35132812
 20
4.17682813
  0
VERTEX
  8
PANEL03.PLT
 62
7
 10
23.39381470
 20
4.15400220
  0
VERTEX
  8
PANEL03.PLT
 62
7
 10
23.43656055
 20
4.13199805
  0
VERTEX
  8
PANEL03.PLT
 62
7
 10
23.47951440
 20
4.11123315
  0
VERTEX
  8
PANEL03.PLT
 62
7
 10
23.52262500
 20
4.09212500
  0
VERTEX
  8
PANEL03.PLT
 62
7
 10
23.56584106
 20
4.07509106
  0
VERTEX
  8
PANEL03.PLT
 62
7
 10
23.60911133
 20
4.06054883
  0
VERTEX
  8
PANEL03.PLT
 62
7
 10
23.65238452
 20
4.04891577
  0
VERTEX
  8
PANEL03.PLT
 62
7
 10
23.69560938
 20
4.04060937
  0
VERTEX
  8
PANEL03.PLT
 62
7
 10
23.73873462
 20
4.03604712
  0
VERTEX
  8
PANEL03.PLT
 62
7
 10
23.78170898
 20
4.03564648
  0
VERTEX
  8
PANEL03.PLT
 62
7
 10
23.82448120
 20
4.03982495
  0
VERTEX
  8
PANEL03.PLT
 62
7
 10
23.86700000
 20
4.04900000
  0
VERTEX
  8
PANEL03.PLT
 62
7
 10
23.86640747
 20
3.95298999
  0
VERTEX
  8
PANEL03.PLT
 62
7
 10
23.86408789
 20
3.85738867
  0
VERTEX
  8
PANEL03.PLT
 62
7
 10
23.85922827
 20
3.76171411
  0
VERTEX
  8
PANEL03.PLT
 62
7
 10
23.85101562
 20
3.66548438
  0
VERTEX
  8
PANEL03.PLT
 62
7
 10
23.83863696
 20
3.56821753
  0
VERTEX
  8
PANEL03.PLT
 62
7
 10
23.82127930
 20
3.46943164
  0
VERTEX
  8
PANEL03.PLT
 62
7
 10
23.79812964
 20
3.36864478
  0
VERTEX
  8
PANEL03.PLT
 62
7
 10
23.76837500
 20
3.26537500
  0
VERTEX
  8
PANEL03.PLT
 62
7
 10
23.73120239
 20
3.15914038
  0
VERTEX
  8
PANEL03.PLT
 62
7
 10
23.68579883
 20
3.04945898
  0
VERTEX
  8
PANEL03.PLT
 62
7
 10
23.63135132
 20
2.93584888
  0
VERTEX
  8
PANEL03.PLT
 62
7
 10
23.56704687
 20
2.81782813
  0
VERTEX
  8
PANEL03.PLT
 62
7
 10
23.49207251
 20
2.69491479
  0
VERTEX
  8
PANEL03.PLT
 62
7
 10
23.40561523
 20
2.56662695
  0
VERTEX
  8
PANEL03.PLT
 62
7
 10
23.30686206
 20
2.43248267
  0
VERTEX
  8
PANEL03.PLT
 62
7
 10
23.19500000
 20
2.29200000
  0
VERTEX
  8
PANEL03.PLT
 62
7
 10
23.24143170
 20
2.25136807
  0
VERTEX
  8
PANEL03.PLT
 62
7
 10
23.28727783
 20
2.20722583
  0
VERTEX
  8
PANEL03.PLT
 62
7
 10
23.33242743
 20
2.15976608
  0
VERTEX
  8
PANEL03.PLT
 62
7
 10
23.37676953
 20
2.10918164
  0
VERTEX
  8
PANEL03.PLT
 62
7
 10
23.42019318
 20
2.05566531
  0
VERTEX
  8
PANEL03.PLT
 62
7
 10
23.46258740
 20
1.99940991
  0
VERTEX
  8
PANEL03.PLT
 62
7
 10
23.50384125
 20
1.94060825
  0
VERTEX
  8
PANEL03.PLT
 62
7
 10
23.54384375
 20
1.87945312
  0
VERTEX
  8
PANEL03.PLT
 62
7
 10
23.58248395
 20
1.81613736
  0
VERTEX
  8
PANEL03.PLT
 62
7
 10
23.61965088
 20
1.75085376
  0
VERTEX
  8
PANEL03.PLT
 62
7
 10
23.65523358
 20
1.68379514
  0
VERTEX
  8
PANEL03.PLT
 62
7
 10
23.68912109
 20
1.61515430
  0
VERTEX
  8
PANEL03.PLT
 62
7
 10
23.72120245
 20
1.54512405
  0
VERTEX
  8
PANEL03.PLT
 62
7
 10
23.75136670
 20
1.47389722
  0
VERTEX
  8
PANEL03.PLT
 62
7
 10
23.77950287
 20
1.40166660
  0
VERTEX
  8
PANEL03.PLT
 62
7
 10
23.80550000
 20
1.32862500
  0
VERTEX
  8
PANEL03.PLT
 62
7
 10
23.82924713
 20
1.25496524
  0
VERTEX
  8
PANEL03.PLT
 62
7
 10
23.85063330
 20
1.18088013
  0
VERTEX
  8
PANEL03.PLT
 62
7
 10
23.86954755
 20
1.10656247
  0
VERTEX
  8
PANEL03.PLT
 62
7
 10
23.88587891
 20
1.03220508
  0
VERTEX
  8
PANEL03.PLT
 62
7
 10
23.89951642
 20
0.95800076
  0
VERTEX
  8
PANEL03.PLT
 62
7
 10
23.91034912
 20
0.88414233
  0
VERTEX
  8
PANEL03.PLT
 62
7
 10
23.91826605
 20
0.81082260
  0
VERTEX
  8
PANEL03.PLT
 62
7
 10
23.92315625
 20
0.73823437
  0
VERTEX
  8
PANEL03.PLT
 62
7
 10
23.92490875
 20
0.66657047
  0
VERTEX
  8
PANEL03.PLT
 62
7
 10
23.92341260
 20
0.59602368
  0
VERTEX
  8
PANEL03.PLT
 62
7
 10
23.91855682
 20
0.52678683
  0
VERTEX
  8
PANEL03.PLT
 62
7
 10
23.91023047
 20
0.45905273
  0
VERTEX
  8
PANEL03.PLT
 62
7
 10
23.89832257
 20
0.39301419
  0
VERTEX
  8
PANEL03.PLT
 62
7
 10
23.88272217
 20
0.32886401
  0
VERTEX
  8
PANEL03.PLT
 62
7
 10
23.86331830
 20
0.26679501
  0
VERTEX
  8
PANEL03.PLT
 62
7
 10
23.84000000
 20
0.20700000
  0
VERTEX
  8
PANEL03.PLT
 62
7
 10
23.80731512
 20
0.24383737
  0
VERTEX
  8
PANEL03.PLT
 62
7
 10
23.77306396
 20
0.27773022
  0
VERTEX
  8
PANEL03.PLT
 62
7
 10
23.73732672
 20
0.30878091
  0
VERTEX
  8
PANEL03.PLT
 62
7
 10
23.70018359
 20
0.33709180
  0
VERTEX
  8
PANEL03.PLT
 62
7
 10
23.66171478
 20
0.36276523
  0
VERTEX
  8
PANEL03.PLT
 62
7
 10
23.62200049
 20
0.38590356
  0
VERTEX
  8
PANEL03.PLT
 62
7
 10
23.58112091
 20
0.40660916
  0
VERTEX
  8
PANEL03.PLT
 62
7
 10
23.53915625
 20
0.42498438
  0
VERTEX
  8
PANEL03.PLT
 62
7
 10
23.49618671
 20
0.44113156
  0
VERTEX
  8
PANEL03.PLT
 62
7
 10
23.45229248
 20
0.45515308
  0
VERTEX
  8
PANEL03.PLT
 62
7
 10
23.40755377
 20
0.46715128
  0
VERTEX
  8
PANEL03.PLT
 62
7
 10
23.36205078
 20
0.47722852
  0
VERTEX
  8
PANEL03.PLT
 62
7
 10
23.31586371
 20
0.48548715
  0
VERTEX
  8
PANEL03.PLT
 62
7
 10
23.26907275
 20
0.49202954
  0
VERTEX
  8
PANEL03.PLT
 62
7
 10
23.22175812
 20
0.49695804
  0
VERTEX
  8
PANEL03.PLT
 62
7
 10
23.17400000
 20
0.50037500
  0
VERTEX
  8
PANEL03.PLT
 62
7
 10
23.12587860
 20
0.50238278
  0
VERTEX
  8
PANEL03.PLT
 62
7
 10
23.07747412
 20
0.50308374
  0
VERTEX
  8
PANEL03.PLT
 62
7
 10
23.02886676
 20
0.50258023
  0
VERTEX
  8
PANEL03.PLT
 62
7
 10
22.98013672
 20
0.50097461
  0
VERTEX
  8
PANEL03.PLT
 62
7
 10
22.93136420
 20
0.49836923
  0
VERTEX
  8
PANEL03.PLT
 62
7
 10
22.88262939
 20
0.49486646
  0
VERTEX
  8
PANEL03.PLT
 62
7
 10
22.83401251
 20
0.49056863
  0
VERTEX
  8
PANEL03.PLT
 62
7
 10
22.78559375
 20
0.48557813
  0
VERTEX
  8
PANEL03.PLT
 62
7
 10
22.73745331
 20
0.47999728
  0
VERTEX
  8
PANEL03.PLT
 62
7
 10
22.68967139
 20
0.47392847
  0
VERTEX
  8
PANEL03.PLT
 62
7
 10
22.64232819
 20
0.46747403
  0
VERTEX
  8
PANEL03.PLT
 62
7
 10
22.59550391
 20
0.46073633
  0
VERTEX
  8
PANEL03.PLT
 62
7
 10
22.54927875
 20
0.45381772
  0
VERTEX
  8
PANEL03.PLT
 62
7
 10
22.50373291
 20
0.44682056
  0
VERTEX
  8
PANEL03.PLT
 62
7
 10
22.45894659
 20
0.43984720
  0
VERTEX
  8
PANEL03.PLT
 62
7
 10
22.41500000
 20
0.43300000
  0
VERTEX
  8
PANEL03.PLT
 62
7
 10
22.33818164
 20
0.41849219
  0
VERTEX
  8
PANEL03.PLT
 62
7
 10
22.25645313
 20
0.39943750
  0
VERTEX
  8
PANEL03.PLT
 62
7
 10
22.17127930
 20
0.37766406
  0
VERTEX
  8
PANEL03.PLT
 62
7
 10
22.08412500
 20
0.35500000
  0
VERTEX
  8
PANEL03.PLT
 62
7
 10
21.99645508
 20
0.33327344
  0
VERTEX
  8
PANEL03.PLT
 62
7
 10
21.90973437
 20
0.31431250
  0
VERTEX
  8
PANEL03.PLT
 62
7
 10
21.82542773
 20
0.29994531
  0
VERTEX
  8
PANEL03.PLT
 62
7
 10
21.74500000
 20
0.29200000
  0
VERTEX
  8
PANEL03.PLT
 62
7
 10
21.70233984
 20
0.29111328
  0
VERTEX
  8
PANEL03.PLT
 62
7
 10
21.66153125
 20
0.29315625
  0
VERTEX
  8
PANEL03.PLT
 62
7
 10
21.62283203
 20
0.29843359
  0
VERTEX
  8
PANEL03.PLT
 62
7
 10
21.58650000
 20
0.30725000
  0
VERTEX
  8
PANEL03.PLT
 62
7
 10
21.55279297
 20
0.31991016
  0
VERTEX
  8
PANEL03.PLT
 62
7
 10
21.52196875
 20
0.33671875
  0
VERTEX
  8
PANEL03.PLT
 62
7
 10
21.49428516
 20
0.35798047
  0
VERTEX
  8
PANEL03.PLT
 62
7
 10
21.47000000
 20
0.38400000
  0
VERTEX
  8
PANEL03.PLT
 62
7
 10
21.46218164
 20
0.39792969
  0
VERTEX
  8
PANEL03.PLT
 62
7
 10
21.45676562
 20
0.41575000
  0
VERTEX
  8
PANEL03.PLT
 62
7
 10
21.45381055
 20
0.43638281
  0
VERTEX
  8
PANEL03.PLT
 62
7
 10
21.45337500
 20
0.45875000
  0
VERTEX
  8
PANEL03.PLT
 62
7
 10
21.45551758
 20
0.48177344
  0
VERTEX
  8
PANEL03.PLT
 62
7
 10
21.46029688
 20
0.50437500
  0
VERTEX
  8
PANEL03.PLT
 62
7
 10
21.46777148
 20
0.52547656
  0
VERTEX
  8
PANEL03.PLT
 62
7
 10
21.47800000
 20
0.54400000
  0
VERTEX
  8
PANEL03.PLT
 62
7
 10
21.51410938
 20
0.58606836
  0
VERTEX
  8
PANEL03.PLT
 62
7
 10
21.55556250
 20
0.61992187
  0
VERTEX
  8
PANEL03.PLT
 62
7
 10
21.60104688
 20
0.64653320
  0
VERTEX
  8
PANEL03.PLT
 62
7
 10
21.64925000
 20
0.66687500
  0
VERTEX
  8
PANEL03.PLT
 62
7
 10
21.69885938
 20
0.68191992
  0
VERTEX
  8
PANEL03.PLT
 62
7
 10
21.74856250
 20
0.69264063
  0
VERTEX
  8
PANEL03.PLT
 62
7
 10
21.79704687
 20
0.70000977
  0
VERTEX
  8
PANEL03.PLT
 62
7
 10
21.84300000
 20
0.70500000
  0
VERTEX
  8
PANEL03.PLT
 62
7
 10
22.00800000
 20
0.71800000
  0
VERTEX
  8
PANEL03.PLT
 62
7
 10
22.13462500
 20
0.72687500
  0
VERTEX
  8
PANEL03.PLT
 62
7
 10
22.25900000
 20
0.74100000
  0
VERTEX
  8
PANEL03.PLT
 62
7
 10
22.27689453
 20
0.74413281
  0
VERTEX
  8
PANEL03.PLT
 62
7
 10
22.29959375
 20
0.74937500
  0
VERTEX
  8
PANEL03.PLT
 62
7
 10
22.32562109
 20
0.75724219
  0
VERTEX
  8
PANEL03.PLT
 62
7
 10
22.35350000
 20
0.76825000
  0
VERTEX
  8
PANEL03.PLT
 62
7
 10
22.38175391
 20
0.78291406
  0
VERTEX
  8
PANEL03.PLT
 62
7
 10
22.40890625
 20
0.80175000
  0
VERTEX
  8
PANEL03.PLT
 62
7
 10
22.43348047
 20
0.82527344
  0
VERTEX
  8
PANEL03.PLT
 62
7
 10
22.45400000
 20
0.85400000
  0
VERTEX
  8
PANEL03.PLT
 62
7
 10
22.46545117
 20
0.87800781
  0
VERTEX
  8
PANEL03.PLT
 62
7
 10
22.47510937
 20
0.90468750
  0
VERTEX
  8
PANEL03.PLT
 62
7
 10
22.48305664
 20
0.93352344
  0
VERTEX
  8
PANEL03.PLT
 62
7
 10
22.48937500
 20
0.96400000
  0
VERTEX
  8
PANEL03.PLT
 62
7
 10
22.49414648
 20
0.99560156
  0
VERTEX
  8
PANEL03.PLT
 62
7
 10
22.49745312
 20
1.02781250
  0
VERTEX
  8
PANEL03.PLT
 62
7
 10
22.49937695
 20
1.06011719
  0
VERTEX
  8
PANEL03.PLT
 62
7
 10
22.50000000
 20
1.09200000
  0
SEQEND
  0
POLYLINE
  8
PANEL03.PLT
 62
7
 66
1
 70
1
  0
VERTEX
  8
PANEL03.PLT
 62
7
 10
2.51564578
 20
0.64900000
  0
VERTEX
  8
PANEL03.PLT
 62
7
 10
2.48588308
 20
0.68041912
  0
VERTEX
  8
PANEL03.PLT
 62
7
 10
2.45110404
 20
0.70703643
  0
VERTEX
  8
PANEL03.PLT
 62
7
 10
2.41181954
 20
0.72930673
  0
VERTEX
  8
PANEL03.PLT
 62
7
 10
2.36854044
 20
0.74768484
  0
VERTEX
  8
PANEL03.PLT
 62
7
 10
2.32177761
 20
0.76262557
  0
VERTEX
  8
PANEL03.PLT
 62
7
 10
2.27204192
 20
0.77458372
  0
VERTEX
  8
PANEL03.PLT
 62
7
 10
2.21984423
 20
0.78401412
  0
VERTEX
  8
PANEL03.PLT
 62
7
 10
2.16569543
 20
0.79137156
  0
VERTEX
  8
PANEL03.PLT
 62
7
 10
2.11010637
 20
0.79711086
  0
VERTEX
  8
PANEL03.PLT
 62
7
 10
2.05358793
 20
0.80168682
  0
VERTEX
  8
PANEL03.PLT
 62
7
 10
1.99665097
 20
0.80555427
  0
VERTEX
  8
PANEL03.PLT
 62
7
 10
1.93980637
 20
0.80916800
  0
VERTEX
  8
PANEL03.PLT
 62
7
 10
1.88356499
 20
0.81298283
  0
VERTEX
  8
PANEL03.PLT
 62
7
 10
1.82843770
 20
0.81745358
  0
VERTEX
  8
PANEL03.PLT
 62
7
 10
1.77493537
 20
0.82303503
  0
VERTEX
  8
PANEL03.PLT
 62
7
 10
1.72356888
 20
0.83018202
  0
VERTEX
  8
PANEL03.PLT
 62
7
 10
1.70093555
 20
0.83429831
  0
VERTEX
  8
PANEL03.PLT
 62
7
 10
1.67769900
 20
0.84028996
  0
VERTEX
  8
PANEL03.PLT
 62
7
 10
1.65486459
 20
0.84849836
  0
VERTEX
  8
PANEL03.PLT
 62
7
 10
1.63343771
 20
0.85926493
  0
VERTEX
  8
PANEL03.PLT
 62
7
 10
1.61442372
 20
0.87293106
  0
VERTEX
  8
PANEL03.PLT
 62
7
 10
1.59882799
 20
0.88983815
  0
VERTEX
  8
PANEL03.PLT
 62
7
 10
1.58765589
 20
0.91032760
  0
VERTEX
  8
PANEL03.PLT
 62
7
 10
1.58191281
 20
0.93474081
  0
VERTEX
  8
PANEL03.PLT
 62
7
 10
1.58185046
 20
0.95741721
  0
VERTEX
  8
PANEL03.PLT
 62
7
 10
1.58618369
 20
0.97846962
  0
VERTEX
  8
PANEL03.PLT
 62
7
 10
1.59451035
 20
0.99792026
  0
VERTEX
  8
PANEL03.PLT
 62
7
 10
1.60642828
 20
1.01579133
  0
VERTEX
  8
PANEL03.PLT
 62
7
 10
1.62153536
 20
1.03210507
  0
VERTEX
  8
PANEL03.PLT
 62
7
 10
1.63942941
 20
1.04688367
  0
VERTEX
  8
PANEL03.PLT
 62
7
 10
1.65970830
 20
1.06014935
  0
VERTEX
  8
PANEL03.PLT
 62
7
 10
1.68196988
 20
1.07192434
  0
VERTEX
  8
PANEL03.PLT
 62
7
 10
1.70581199
 20
1.08223084
  0
VERTEX
  8
PANEL03.PLT
 62
7
 10
1.73083249
 20
1.09109106
  0
VERTEX
  8
PANEL03.PLT
 62
7
 10
1.75662923
 20
1.09852723
  0
VERTEX
  8
PANEL03.PLT
 62
7
 10
1.78280007
 20
1.10456155
  0
VERTEX
  8
PANEL03.PLT
 62
7
 10
1.80894285
 20
1.10921624
  0
VERTEX
  8
PANEL03.PLT
 62
7
 10
1.83465542
 20
1.11251351
  0
VERTEX
  8
PANEL03.PLT
 62
7
 10
1.85953564
 20
1.11447559
  0
VERTEX
  8
PANEL03.PLT
 62
7
 10
1.88318135
 20
1.11512468
  0
VERTEX
  8
PANEL03.PLT
 62
7
 10
2.51564578
 20
1.11512468
  0
SEQEND
  0
POLYLINE
  8
PANEL03.PLT
 62
7
 66
1
 70
1
  0
VERTEX
  8
PANEL03.PLT
 62
7
 10
21.45235422
 20
0.64900000
  0
VERTEX
  8
PANEL03.PLT
 62
7
 10
21.45235422
 20
1.11512468
  0
VERTEX
  8
PANEL03.PLT
 62
7
 10
22.08481865
 20
1.11512468
  0
VERTEX
  8
PANEL03.PLT
 62
7
 10
22.10846436
 20
1.11447559
  0
VERTEX
  8
PANEL03.PLT
 62
7
 10
22.13334458
 20
1.11251351
  0
VERTEX
  8
PANEL03.PLT
 62
7
 10
22.15905715
 20
1.10921624
  0
VERTEX
  8
PANEL03.PLT
 62
7
 10
22.18519993
 20
1.10456155
  0
VERTEX
  8
PANEL03.PLT
 62
7
 10
22.21137077
 20
1.09852723
  0
VERTEX
  8
PANEL03.PLT
 62
7
 10
22.23716751
 20
1.09109106
  0
VERTEX
  8
PANEL03.PLT
 62
7
 10
22.26218801
 20
1.08223084
  0
VERTEX
  8
PANEL03.PLT
 62
7
 10
22.28603012
 20
1.07192434
  0
VERTEX
  8
PANEL03.PLT
 62
7
 10
22.30829170
 20
1.06014935
  0
VERTEX
  8
PANEL03.PLT
 62
7
 10
22.32857059
 20
1.04688367
  0
VERTEX
  8
PANEL03.PLT
 62
7
 10
22.34646464
 20
1.03210507
  0
VERTEX
  8
PANEL03.PLT
 62
7
 10
22.36157172
 20
1.01579133
  0
VERTEX
  8
PANEL03.PLT
 62
7
 10
22.37348965
 20
0.99792026
  0
VERTEX
  8
PANEL03.PLT
 62
7
 10
22.38181631
 20
0.97846962
  0
VERTEX
  8
PANEL03.PLT
 62
7
 10
22.38614954
 20
0.95741721
  0
VERTEX
  8
PANEL03.PLT
 62
7
 10
22.38608719
 20
0.93474081
  0
VERTEX
  8
PANEL03.PLT
 62
7
 10
22.38034411
 20
0.91032760
  0
VERTEX
  8
PANEL03.PLT
 62
7
 10
22.36917201
 20
0.88983815
  0
VERTEX
  8
PANEL03.PLT
 62
7
 10
22.35357628
 20
0.87293106
  0
VERTEX
  8
PANEL03.PLT
 62
7
 10
22.33456229
 20
0.85926493
  0
VERTEX
  8
PANEL03.PLT
 62
7
 10
22.31313541
 20
0.84849836
  0
VERTEX
  8
PANEL03.PLT
 62
7
 10
22.29030100
 20
0.84028996
  0
VERTEX
  8
PANEL03.PLT
 62
7
 10
22.26706445
 20
0.83429831
  0
VERTEX
  8
PANEL03.PLT
 62
7
 10
22.24443112
 20
0.83018202
  0
VERTEX
  8
PANEL03.PLT
 62
7
 10
22.19306463
 20
0.82303503
  0
VERTEX
  8
PANEL03.PLT
 62
7
 10
22.13956230
 20
0.81745358
  0
VERTEX
  8
PANEL03.PLT
 62
7
 10
22.08443501
 20
0.81298283
  0
VERTEX
  8
PANEL03.PLT
 62
7
 10
22.02819363
 20
0.80916800
  0
VERTEX
  8
PANEL03.PLT
 62
7
 10
21.97134903
 20
0.80555427
  0
VERTEX
  8
PANEL03.PLT
 62
7
 10
21.91441207
 20
0.80168682
  0
VERTEX
  8
PANEL03.PLT
 62
7
 10
21.85789363
 20
0.79711086
  0
VERTEX
  8
PANEL03.PLT
 62
7
 10
21.80230457
 20
0.79137156
  0
VERTEX
  8
PANEL03.PLT
 62
7
 10
21.74815577
 20
0.78401412
  0
VERTEX
  8
PANEL03.PLT
 62
7
 10
21.69595808
 20
0.77458372
  0
VERTEX
  8
PANEL03.PLT
 62
7
 10
21.64622239
 20
0.76262557
  0
VERTEX
  8
PANEL03.PLT
 62
7
 10
21.59945956
 20
0.74768484
  0
VERTEX
  8
PANEL03.PLT
 62
7
 10
21.55618046
 20
0.72930673
  0
VERTEX
  8
PANEL03.PLT
 62
7
 10
21.51689596
 20
0.70703643
  0
VERTEX
  8
PANEL03.PLT
 62
7
 10
21.48211692
 20
0.68041912
  0
SEQEND
  0
ENDSEC
  0
EOF
