<?xml version="1.0" encoding="UTF-8"?>
<svg id="Layer_1" xmlns="http://www.w3.org/2000/svg" xmlns:xlink="http://www.w3.org/1999/xlink" version="1.1" viewBox="0 0 628.5 272.9">
  <!-- Generator: Adobe Illustrator 30.0.0, SVG Export Plug-In . SVG Version: 2.1.1 Build 123)  -->
  <defs>
    <style>
      .st0 {
        display: none;
      }
    </style>
  </defs>
  <g id="mE4cUA.tif" class="st0">
    <image id="Layer_0" width="1700" height="910" transform="translate(-26.4 -16.5) scale(.4)" xlink:href="estate9-1.png"/>
  </g>
  <path d="M620.6,249.1s1.4-3.3.8-4.9-2.2-2.6-4.8-3.4-4.2-1.8-4.6-3-.6-3.3-1.7-3.8c-1-.5-3.8-1.3-4.6-2.3-.8-1-2-4.3-.7-5.8,1.3-1.5,2.7-2.6,2.7-2.6v-3.4s8.2-10.9,11.8-20.2c3.6-9.3,4.1-21.4,1-25.8-2.4-3.5-2.8-3.9-2.8-3.9v-2c0,0-3.4-2.9-3.3-4.5,0-1.6,0-3.7,3.4-6,0,0,.5-2.1,0-3.1-.6-1-1-1.6-1-1.6h-65.6s-.5.6-1,1.6c-.6,1,0,3.1,0,3.1,3.4,2.3,3.4,4.4,3.4,6s-3.4,4.5-3.4,4.5v2s-.3.4-2.7,3.9c-1.4,2.1-2.1,5.9-2,10.2,0,.7,0,1.4,0,2.2.3,4.4,1.3,9.2,2.9,13.4,3.6,9.3,11.8,20.2,11.8,20.2v3.4s1.4,1.1,2.7,2.6c1.3,1.5,0,4.8-.7,5.8-.8,1-3.5,1.8-4.6,2.3-1,.5-1.3,2.6-1.7,3.8-.4,1.1-2.1,2.1-4.6,3s-4.2,1.8-4.8,3.4.8,4.9.8,4.9h-5V9.4h-7.7V.8H94.1v8.6h-7.7v239.7h-5.1s1.4-3.3.8-4.9-2.2-2.6-4.8-3.4-4.2-1.8-4.6-3c-.4-1.1-.6-3.3-1.7-3.8-1-.5-3.8-1.3-4.6-2.3-.8-1-2-4.3-.7-5.8,1.3-1.5,2.7-2.6,2.7-2.6v-3.4s8.2-10.9,11.8-20.2c3.6-9.3,4.1-21.4,1-25.8-2.4-3.5-2.8-3.9-2.8-3.9v-2c0,0-3.4-2.9-3.3-4.5,0-1.6,0-3.7,3.4-6,0,0,.5-2.1,0-3.1-.6-1-1-1.6-1-1.6H11.7s-.5.6-1,1.6c-.6,1,0,3.1,0,3.1,3.4,2.3,3.4,4.4,3.4,6,0,1.6-3.4,4.5-3.4,4.5v2s-.3.4-2.7,3.9c-3,4.4-2.6,16.5,1,25.8,3.6,9.3,11.8,20.2,11.8,20.2v3.4s1.4,1.1,2.7,2.6c1.3,1.5,0,4.8-.7,5.8-.8,1-3.5,1.8-4.6,2.3-1,.5-1.3,2.6-1.7,3.8-.4,1.1-2.1,2.1-4.6,3s-4.2,1.8-4.8,3.4.8,4.9.8,4.9H0v23.8h628.5v-23.8h-7.9Z"/>
</svg>