<?xml version="1.0" encoding="UTF-8"?>
<svg id="Layer_1" xmlns="http://www.w3.org/2000/svg" version="1.1" viewBox="0 0 628.5 272.9">
  <!-- Generator: Adobe Illustrator 30.0.0, SVG Export Plug-In . SVG Version: 2.1.1 Build 123)  -->
  <path d="M623.3,248.8c.3-.8,1.2-3.2.6-4.6-.6-1.6-2.2-2.6-4.8-3.4s-4.2-1.8-4.6-3c-.4-1.1-.6-3.3-1.7-3.8s-3.8-1.3-4.6-2.3c-.8-1-2-4.3-.7-5.8,1.3-1.5,2.7-2.6,2.7-2.6v-3.4s8.2-10.9,11.8-20.2c3.6-9.3,4.1-21.4,1-25.8-2.4-3.5-2.8-3.9-2.8-3.9v-2c0,0-3.4-2.9-3.3-4.5s0-3.7,3.4-6c0,0,.5-2.1,0-3.1-.6-1-1-1.6-1-1.6h-65.6s-.5.6-1,1.6c-.6,1,0,3.1,0,3.1,3.4,2.3,3.4,4.4,3.4,6s-3.4,4.5-3.4,4.5v2s-.3.4-2.7,3.9c-3,4.4-2.6,16.5,1,25.8,3.6,9.3,11.8,20.2,11.8,20.2v3.4s1.4,1.1,2.7,2.6c1.3,1.5,0,4.8-.7,5.8-.8,1-3.5,1.8-4.6,2.3s-1.3,2.6-1.7,3.8c-.4,1.1-2.1,2.1-4.6,3s-4.2,1.8-4.8,3.4c-.5,1.3.3,3.7.6,4.6h-6V16.1s-68.9-.5-126.5-9.2C374.8.5,319.6.4,314.7.3h0s-.4,0-.4,0h0c-4.9.1-60.2.2-102.5,6.6-57.6,8.7-126.9,9.2-126.9,9.2v232.7h-6.3c.3-.8,1.2-3.2.6-4.6-.6-1.6-2.2-2.6-4.8-3.4s-4.2-1.8-4.6-3c-.4-1.1-.6-3.3-1.7-3.8-1-.5-3.8-1.3-4.6-2.3-.8-1-2-4.3-.7-5.8,1.3-1.5,2.7-2.6,2.7-2.6v-3.4s8.2-10.9,11.8-20.2c3.6-9.3,4.1-21.4,1-25.8-2.4-3.5-2.8-3.9-2.8-3.9v-2c0,0-3.4-2.9-3.3-4.5,0-1.6,0-3.7,3.4-6,0,0,.5-2.1,0-3.1-.6-1-1-1.6-1-1.6H8.8s-.5.6-1,1.6c-.6,1,0,3.1,0,3.1,3.4,2.3,3.4,4.4,3.4,6,0,1.6-3.4,4.5-3.4,4.5v2s-.3.4-2.7,3.9c-3,4.4-2.6,16.5,1,25.8,3.6,9.3,11.8,20.2,11.8,20.2v3.4s1.4,1.1,2.7,2.6c1.3,1.5,0,4.8-.7,5.8-.8,1-3.5,1.8-4.6,2.3-1,.5-1.3,2.6-1.7,3.8-.4,1.1-2.1,2.1-4.6,3s-4.2,1.8-4.8,3.4c-.5,1.3.3,3.7.6,4.6H0v23.8h628.5v-23.8h-5.2Z"/>
</svg>