<?xml version="1.0" encoding="UTF-8"?>
<svg id="Layer_1" xmlns="http://www.w3.org/2000/svg" xmlns:xlink="http://www.w3.org/1999/xlink" version="1.1" viewBox="0 0 810.12 313.97">
  <!-- Generator: Adobe Illustrator 30.0.0, SVG Export Plug-In . SVG Version: 2.1.1 Build 123)  -->
  <defs>
    <style>
      .st0 {
        fill: #e6e6e6;
      }

      .st1 {
        fill: url(#radial-gradient);
      }

      .st2 {
        fill: url(#radial-gradient1);
      }
    </style>
    <radialGradient id="radial-gradient" cx="683.83" cy="52.34" fx="683.83" fy="52.34" r="24.14" gradientTransform="translate(38.6 106.31) rotate(14.08) scale(1 -1)" gradientUnits="userSpaceOnUse">
      <stop offset=".02" stop-color="#fff"/>
      <stop offset=".13" stop-color="#fff" stop-opacity=".8"/>
      <stop offset=".25" stop-color="#fff" stop-opacity=".59"/>
      <stop offset=".38" stop-color="#fff" stop-opacity=".41"/>
      <stop offset=".51" stop-color="#fff" stop-opacity=".26"/>
      <stop offset=".63" stop-color="#fff" stop-opacity=".15"/>
      <stop offset=".76" stop-color="#fff" stop-opacity=".07"/>
      <stop offset=".88" stop-color="#fff" stop-opacity=".02"/>
      <stop offset="1" stop-color="#fff" stop-opacity="0"/>
    </radialGradient>
    <radialGradient id="radial-gradient1" cx="-16.99" cy="35.18" fx="-16.99" fy="35.18" r="24.14" gradientTransform="translate(35.65 260.49) rotate(14.08) scale(1 -1)" gradientUnits="userSpaceOnUse">
      <stop offset=".02" stop-color="#fff"/>
      <stop offset=".13" stop-color="#fff" stop-opacity=".8"/>
      <stop offset=".25" stop-color="#fff" stop-opacity=".59"/>
      <stop offset=".38" stop-color="#fff" stop-opacity=".41"/>
      <stop offset=".51" stop-color="#fff" stop-opacity=".26"/>
      <stop offset=".63" stop-color="#fff" stop-opacity=".15"/>
      <stop offset=".76" stop-color="#fff" stop-opacity=".07"/>
      <stop offset=".88" stop-color="#fff" stop-opacity=".02"/>
      <stop offset="1" stop-color="#fff" stop-opacity="0"/>
    </radialGradient>
  </defs>
  <ellipse class="st1" cx="723.93" cy="229.29" rx="13.86" ry="20.46" transform="translate(-35.39 238.24) rotate(-18.25)"/>
  <ellipse class="st2" cx="37.07" cy="229.57" rx="13.86" ry="20.46" transform="translate(-76.67 26.74) rotate(-20.11)"/>
  <path class="st0" d="M693.99,289.14V29.01h-.44c-.43-.09-4.31-.92-5.8-2.48l-.15-.15h0c-1.53-1.79-2.82-6.32-2.83-6.37l-.1-.34-.39-.03v-1.5h-21.3L405.02,0,147.14,18.15h-21.3v1.5h-.04s-.35.03-.35.03l-.1.34s-1.38,4.85-2.97,6.52c-1.49,1.56-5.36,2.39-5.8,2.48h-.46v260.13H0v24.83h810.12v-24.83h-116.13ZM405.02,1l243.73,17.15H161.37L405.02,1ZM123.11,27.23c1.17-1.22,2.17-3.77,2.73-5.42v.34h558.45v-.34c.56,1.65,1.56,4.19,2.73,5.41l.16.15h0c.72.68,1.79,1.22,2.83,1.63H120.13c1.12-.44,2.26-1.03,2.98-1.78ZM117.13,30.01h575.86v259.13H117.13V30.01ZM809.12,312.97H1v-22.83h808.12v22.83Z"/>
  <path class="st0" d="M94.15,280.88l-.1-.03c-2.51-.87-3.94-1.75-4.25-2.63-.1-.28-.19-.62-.28-.98-.32-1.22-.67-2.61-1.66-3.06-.27-.12-.64-.27-1.06-.43-1.11-.43-2.79-1.07-3.31-1.74-.73-.94-1.78-3.97-.73-5.21,1.23-1.46,2.63-2.56,2.64-2.57l.19-.15v-3.44c.95-1.29,8.36-11.47,11.74-20.15,3.66-9.44,4.12-21.7.99-26.25-1.62-2.35-2.33-3.35-2.7-3.77l.08-2.01-.19-.16c-1.35-1.13-3.23-3.14-3.18-4.07v-.15c.08-1.43.16-3.03,2.47-4.9h.46v-.35c.1-.07.19-.14.29-.21l.16-.11.04-.19c.05-.23.5-2.3-.13-3.47-.58-1.08-1.08-1.66-1.1-1.69l-.15-.17H28.26l-.15.17s-.52.61-1.1,1.69c-.63,1.17-.18,3.24-.13,3.47l.04.19.16.11c.1.07.19.14.28.21v.36h.47c2.31,1.86,2.39,3.47,2.46,4.9v.15c.05.93-1.83,2.94-3.17,4.07l-.19.16.08,2.03c-.28.34-.99,1.27-2.7,3.75-3.14,4.54-2.67,16.8.98,26.25,3.37,8.69,10.79,18.87,11.74,20.15v3.44l.19.15s1.42,1.11,2.64,2.57c1.05,1.24,0,4.27-.73,5.21-.51.67-2.2,1.31-3.31,1.74-.42.16-.8.31-1.06.43-.99.46-1.34,1.84-1.66,3.06-.09.37-.18.71-.28.99-.32.88-1.77,1.78-4.33,2.66-2.97,1.02-4.45,2.1-5.1,3.73-.7,1.74.61,4.88.77,5.23l.13.3h74.07l.13-.3c.15-.35,1.46-3.49.77-5.23-.65-1.62-2.13-2.7-5.1-3.73ZM27.89,195.32c.35-.65.67-1.11.84-1.34h65.16c.17.23.49.69.84,1.34.24.45.24,1.22.17,1.86H27.72c-.06-.64-.07-1.41.17-1.86ZM31.31,204.17v-.14c-.07-1.31-.15-3-1.98-4.85h63.96c-1.82,1.85-1.91,3.55-1.97,4.85v.14c-.09,1.62,2.46,3.97,3.34,4.73l-.03.74H27.99l-.03-.74c.88-.76,3.43-3.11,3.35-4.73ZM35.19,275.08c.25-.12.6-.25,1-.4,1.36-.52,3.06-1.17,3.74-2.07.81-1.05,2.25-4.63.71-6.47-1.04-1.23-2.16-2.19-2.6-2.56v-3.29l-.1-.13c-.08-.11-8.17-10.93-11.7-20.05-3.5-9.02-4.02-21.09-1.09-25.32,1.31-1.91,2.02-2.87,2.38-3.34v.18h67.57v-.22c.33.43,1,1.36,2.4,3.39,2.92,4.24,2.4,16.3-1.09,25.31-3.54,9.11-11.62,19.94-11.7,20.05l-.1.13v3.29c-.44.36-1.57,1.33-2.6,2.56-1.54,1.83-.1,5.42.71,6.47.69.89,2.38,1.54,3.74,2.07.4.15.75.29,1,.4.54.25.85,1.41,1.09,2.31h-54.42c.23-.89.55-2.06,1.09-2.31ZM97.69,289.14H24.96c-.4-1.03-1.05-3.13-.63-4.16.53-1.32,1.83-2.24,4.5-3.15,2.28-.78,3.72-1.58,4.47-2.47v.03h56.04v-.05c.74.89,2.19,1.69,4.48,2.48l.1.03c2.61.91,3.9,1.82,4.42,3.13.41,1.04-.23,3.13-.63,4.16Z"/>
  <path class="st0" d="M781.03,280.88l-.11-.03c-2.51-.87-3.94-1.75-4.25-2.63-.1-.28-.19-.62-.28-.98-.32-1.22-.67-2.61-1.66-3.06-.27-.12-.64-.27-1.07-.43-1.11-.43-2.79-1.07-3.31-1.74-.73-.94-1.78-3.97-.73-5.21,1.23-1.46,2.63-2.56,2.64-2.57l.19-.15v-3.44c.95-1.29,8.36-11.47,11.74-20.15,3.66-9.44,4.12-21.7.99-26.25-1.62-2.35-2.33-3.35-2.7-3.77l.08-2.01-.19-.16c-1.35-1.13-3.23-3.14-3.18-4.07v-.15c.08-1.43.16-3.03,2.47-4.9h.46v-.35c.1-.07.19-.14.29-.21l.16-.11.04-.19c.05-.23.5-2.3-.13-3.47-.58-1.08-1.08-1.66-1.1-1.69l-.15-.17h-66.1l-.15.17s-.52.61-1.1,1.69c-.63,1.17-.18,3.24-.13,3.47l.04.19.16.11c.1.07.18.13.27.2v.37h.48c2.31,1.86,2.39,3.47,2.46,4.9v.15c.05.93-1.83,2.94-3.17,4.07l-.19.16.08,2.03c-.28.34-.99,1.27-2.7,3.75-3.14,4.54-2.67,16.8.99,26.25,3.37,8.69,10.79,18.87,11.74,20.15v3.44l.19.15s1.42,1.11,2.64,2.57c1.05,1.24,0,4.27-.73,5.21-.51.67-2.2,1.31-3.31,1.74-.42.16-.8.31-1.06.43-.99.46-1.34,1.84-1.66,3.06-.09.36-.18.71-.28.98-.31.88-1.77,1.78-4.33,2.66-2.97,1.02-4.45,2.1-5.1,3.73-.7,1.74.61,4.88.76,5.23l.13.3h74.07l.13-.3c.15-.35,1.46-3.49.76-5.23-.65-1.62-2.13-2.7-5.1-3.73ZM714.77,195.32c.35-.65.67-1.11.84-1.34h65.16c.17.23.49.69.84,1.34.24.45.24,1.22.17,1.86h-67.19c-.06-.64-.07-1.41.17-1.86ZM718.19,204.17v-.14c-.07-1.31-.15-3-1.97-4.85h63.95c-1.82,1.85-1.9,3.55-1.97,4.85v.14c-.09,1.62,2.46,3.97,3.34,4.73l-.03.74h-66.64l-.03-.74c.88-.76,3.43-3.11,3.35-4.73ZM722.07,275.08c.25-.12.6-.25,1-.4,1.36-.52,3.06-1.17,3.74-2.07.81-1.05,2.25-4.63.71-6.47-1.04-1.23-2.16-2.19-2.6-2.56v-3.29l-.1-.13c-.08-.11-8.17-10.93-11.7-20.05-3.5-9.02-4.02-21.08-1.09-25.32,1.31-1.91,2.02-2.87,2.38-3.34v.18h67.56v-.22c.33.43,1,1.36,2.4,3.39,2.92,4.23,2.4,16.3-1.09,25.31-3.54,9.11-11.62,19.94-11.71,20.05l-.1.13v3.29c-.44.36-1.57,1.33-2.6,2.56-1.54,1.83-.1,5.42.71,6.47.69.89,2.38,1.54,3.74,2.07.4.15.75.29,1,.4.54.25.85,1.41,1.09,2.31h-54.41c.23-.89.55-2.06,1.09-2.31ZM784.57,289.14h-72.74c-.4-1.03-1.05-3.13-.63-4.16.53-1.32,1.83-2.24,4.5-3.15,2.27-.78,3.71-1.57,4.46-2.45v.02h56.04v-.05c.74.89,2.19,1.69,4.48,2.48l.11.03c2.61.91,3.9,1.82,4.42,3.13.41,1.04-.23,3.13-.63,4.16Z"/>
</svg>