<?xml version="1.0" encoding="UTF-8"?>
<svg xmlns="http://www.w3.org/2000/svg" xmlns:xlink="http://www.w3.org/1999/xlink" version="1.1" viewBox="0 0 809.1 314.4">
  <!-- Generator: Adobe Illustrator 30.0.0, SVG Export Plug-In . SVG Version: 2.1.1 Build 123)  -->
  <defs>
    <style>
      .st0 {
        fill: #e6e6e6;
      }

      .st1 {
        stroke-width: 4px;
      }

      .st1, .st2, .st3 {
        fill: none;
        stroke: #e6e6e6;
        stroke-miterlimit: 10;
      }

      .st4 {
        fill: url(#radial-gradient);
      }

      .st5 {
        fill: url(#radial-gradient1);
      }

      .st6 {
        fill: url(#radial-gradient2);
      }

      .st7 {
        display: none;
      }

      .st3 {
        stroke-width: 2px;
      }
    </style>
    <radialGradient id="radial-gradient" cx="721.6" cy="225.2" fx="721.6" fy="225.2" r="24.1" gradientTransform="translate(78 -172) rotate(14.1)" gradientUnits="userSpaceOnUse">
      <stop offset="0" stop-color="#fff"/>
      <stop offset=".1" stop-color="#fff" stop-opacity=".8"/>
      <stop offset=".3" stop-color="#fff" stop-opacity=".6"/>
      <stop offset=".4" stop-color="#fff" stop-opacity=".4"/>
      <stop offset=".5" stop-color="#fff" stop-opacity=".3"/>
      <stop offset=".6" stop-color="#fff" stop-opacity=".1"/>
      <stop offset=".8" stop-color="#fff" stop-opacity="0"/>
      <stop offset=".9" stop-color="#fff" stop-opacity="0"/>
      <stop offset="1" stop-color="#fff" stop-opacity="0"/>
    </radialGradient>
    <radialGradient id="radial-gradient1" cx="38.7" cy="226.3" fx="38.7" fy="226.3" r="24.1" gradientTransform="translate(57.7 -6.5) rotate(14.1)" xlink:href="#radial-gradient"/>
    <radialGradient id="radial-gradient2" cx="37.7" cy="226.2" fx="37.7" fy="226.2" r="24.1" gradientTransform="translate(57.7 -6.1) rotate(14.1)" xlink:href="#radial-gradient"/>
  </defs>
  <g id="solid" class="st7">
    <g id="RU9EcT.tif" class="st7">
      <image id="Layer_0" width="1668" height="756" transform="translate(-11.4 -16.8) scale(.5)" xlink:href="estate2_overlay-1.png"/>
    </g>
    <path d="M773.1,290.5s1.1-3.3.6-4.9c-.5-1.6-1.7-2.6-3.6-3.4-1.9-.9-3.2-1.8-3.5-3-.3-1.1-.5-3.3-1.3-3.8-.8-.5-2.8-1.3-3.4-2.3-.6-1-1.5-4.3-.5-5.8,1-1.5,2-2.6,2-2.6v-3.4s6.1-10.9,8.9-20.2c2.7-9.3,3.1-21.4.8-25.8-1.8-3.5-2.1-3.9-2.1-3.9v-2c0,0-2.5-2.9-2.5-4.5s0-3.7,2.6-6c0,0,.4-2.1,0-3.1-.4-1-.8-1.6-.8-1.6h-49.4s-.4.6-.8,1.6c-.4,1,0,3.1,0,3.1,2.5,2.3,2.5,4.4,2.6,6,0,1.6-2.5,4.5-2.5,4.5v2s-.2.4-2,3.9c-2.3,4.4-1.9,16.5.8,25.8,2.7,9.3,8.9,20.2,8.9,20.2v3.4s1.1,1.1,2,2.6c1,1.5,0,4.8-.5,5.8-.6,1-2.7,1.8-3.4,2.3-.8.5-1,2.6-1.3,3.8s-1.6,2.1-3.5,3-3.1,1.8-3.6,3.4.6,4.9.6,4.9h-24.9V30.4s-4.4-.9-6.1-2.6c-1.7-1.8-3.1-6.7-3.1-6.7L404.6,1.4,125.3,21.1s-1.4,5-3.1,6.7c-1.7,1.8-6.1,2.6-6.1,2.6v260.1h-25.7s1.1-3.3.6-4.9-1.7-2.6-3.6-3.4-3.2-1.8-3.5-3c-.3-1.1-.5-3.3-1.3-3.8-.8-.5-2.8-1.3-3.4-2.3-.6-1-1.5-4.3-.5-5.8,1-1.5,2-2.6,2-2.6v-3.4s6.1-10.9,8.9-20.2c2.7-9.3,3.1-21.4.8-25.8-1.8-3.5-2.1-3.9-2.1-3.9v-2c0,0-2.5-2.9-2.5-4.5,0-1.6,0-3.7,2.6-6,0,0,.4-2.1,0-3.1-.4-1-.8-1.6-.8-1.6h-49.4s-.4.6-.8,1.6c-.4,1,0,3.1,0,3.1,2.5,2.3,2.5,4.4,2.6,6s-2.5,4.5-2.5,4.5v2s-.2.4-2,3.9c-2.3,4.4-1.9,16.5.8,25.8,2.7,9.3,8.9,20.2,8.9,20.2v3.4s1.1,1.1,2,2.6c1,1.5,0,4.8-.5,5.8-.6,1-2.7,1.8-3.4,2.3s-1,2.6-1.3,3.8c-.3,1.1-1.6,2.1-3.5,3-1.9.9-3.1,1.8-3.6,3.4-.5,1.6.6,4.9.6,4.9H0v23.8h809.1v-23.8h-36Z"/>
  </g>
  <g id="outline">
    <ellipse class="st4" cx="732.4" cy="229.4" rx="13.9" ry="20.5" transform="translate(-35 241) rotate(-18.3)"/>
    <ellipse class="st5" cx="49.6" cy="229.8" rx="13.9" ry="20.5" transform="translate(-76 31) rotate(-20.1)"/>
    <path class="st0" d="M809.6,314.2H-.5v-24.8h810.1v24.8ZM.5,313.2h808.1v-22.8H.5v22.8Z"/>
    <path class="st3" d="M37,264"/>
    <path class="st0" d="M693,29.2c-.4,0-4.3-.9-5.8-2.5-1.6-1.7-3-6.5-3-6.5v-.3c0,0-.5,0-.5,0v-1.5h-21.3L404.5.2,146.6,18.4h-21.3v1.5h0s-.4,0-.4,0v.3c-.1,0-1.5,4.9-3.1,6.5-1.5,1.6-5.4,2.4-5.8,2.5h-.5v261.1h577.9V29.2h-.5ZM404.5,1.2l243.7,17.2H160.9L404.5,1.2ZM122.6,27.4c1.2-1.2,2.2-3.8,2.7-5.4v.3h558.4v-.3c.6,1.6,1.6,4.2,2.7,5.4.7.8,1.9,1.3,3,1.8H119.6c1.1-.4,2.3-1,3-1.8ZM692.5,289.3H116.6V30.2h575.9v259.1Z"/>
    <path class="st0" d="M87.6,281.1c-1.9-.9-3-1.8-3.2-2.6,0-.3-.1-.6-.2-1-.2-1.3-.5-2.6-1.3-3.1-.2-.1-.5-.3-.8-.4-.8-.4-2.1-1.1-2.4-1.7-.6-1-1.4-4-.6-5.3.9-1.5,2-2.5,2-2.6h.1v-3.6c.7-1.2,6.3-11.4,8.8-20.2,2.7-9.4,3.1-21.6.7-26.1-1.2-2.3-1.7-3.3-2-3.8v-2c0,0,0-.1,0-.1-.9-1.1-2.4-3.1-2.4-4.1h0c0-1.5.1-3.2,1.8-5h.3v-.3c.1-.1.2-.2.3-.3h.1c0-.1,0-.3,0-.3,0-.2.4-2.3,0-3.4-.4-1.1-.8-1.7-.8-1.7v-.2h-50.1v.2c-.2,0-.5.6-1,1.7-.5,1.1-.1,3.2,0,3.4v.2s.2.1.2.1c.1.1.2.2.3.3v.3h.3c1.7,1.9,1.8,3.5,1.8,4.9h0c0,1.2-1.5,3.2-2.4,4.3h-.1c0,.1,0,2.2,0,2.2-.3.4-.8,1.5-2,3.8-2.3,4.5-2,16.7.7,26.1,2.5,8.7,8.2,19,8.8,20.2v3.4h.1c0,.2,1.1,1.2,2,2.7.8,1.3,0,4.4-.6,5.3-.4.7-1.6,1.3-2.4,1.7-.3.2-.6.3-.8.4-.8.5-1,1.8-1.3,3.1,0,.4-.1.7-.2,1-.2.9-1.3,1.8-3.2,2.6-1.6.7-3.3,1.7-3.9,3.8-.5,1.7.5,5,.6,5.2v.3h56.1v-.3c.2-.1,1.2-3.4.7-5.2-.6-2-2.3-3-3.9-3.8ZM37.8,195.4c.2-.6.5-1,.6-1.3h48.8c.1.2.4.7.6,1.3.2.5.2,1.3.1,1.9h-50.3c0-.7,0-1.5.1-1.9ZM40.3,204.4h0c0-1.4-.1-3.1-1.5-5h47.9c-1.4,1.9-1.5,3.5-1.5,4.8h0c0,1.7,1.9,4.2,2.5,4.8v.8h-49.9v-.8c.6-.7,2.6-3.1,2.5-4.7ZM43.2,275.3c.2-.1.4-.2.7-.4,1-.5,2.3-1.2,2.9-2.1.6-1,1.7-4.6.5-6.4-.8-1.2-1.6-2.2-2-2.6v-3.3h0c0-.2-6.1-11.1-8.8-20.2-2.6-9-3-21.2-.8-25.4.9-1.7,1.4-2.6,1.7-3.1h0s50.8,0,50.8,0h0c.3.5.8,1.4,1.7,3.1,2.2,4.3,1.8,16.4-.8,25.4-2.7,9.1-8.7,20-8.8,20.1h0v3.4c-.3.4-1.2,1.3-2,2.6-1.1,1.8,0,5.3.5,6.4.5.9,1.9,1.6,2.9,2.1.3.2.6.3.7.4.4.2.6,1.5.8,2.3h-40.7c.2-.8.4-2.1.8-2.3ZM90,289.3h-54.5c-.3-1.1-.8-3.2-.5-4.2.4-1.3,1.4-2.2,3.3-3.1,1.7-.8,2.8-1.6,3.4-2.4h42c.6.9,1.7,1.6,3.4,2.4h0c2,.9,2.9,1.8,3.3,3.1.3,1.1-.2,3.1-.5,4.2Z"/>
    <path class="st0" d="M770.3,281.1c-1.9-.9-3-1.8-3.2-2.6,0-.3-.1-.6-.2-1-.2-1.3-.5-2.6-1.3-3.1-.2-.1-.5-.3-.8-.4-.8-.4-2.1-1.1-2.4-1.7-.6-1-1.4-4-.6-5.3.9-1.5,2-2.5,2-2.6h.1v-3.6c.7-1.2,6.3-11.4,8.8-20.2,2.7-9.4,3.1-21.6.7-26.1-1.2-2.3-1.7-3.3-2-3.8v-2c0,0,0-.1,0-.1-.9-1.1-2.4-3.1-2.4-4.1h0c0-1.5.1-3.2,1.8-5h.3v-.3c.1-.1.2-.2.3-.3h.1c0-.1,0-.3,0-.3,0-.2.4-2.3,0-3.4-.4-1.1-.8-1.7-.8-1.7v-.2h-50.1v.2c-.2,0-.5.6-1,1.7-.5,1.1-.1,3.2,0,3.4v.2s.2.1.2.1c.1.1.2.2.3.3v.3h.3c1.7,1.9,1.8,3.5,1.8,4.9h0c0,1.2-1.5,3.2-2.4,4.3h-.1c0,.1,0,2.2,0,2.2-.3.4-.8,1.5-2,3.8-2.3,4.5-2,16.7.7,26.1,2.5,8.7,8.2,19,8.8,20.2v3.4h.1c0,.2,1.1,1.2,2,2.7.8,1.3,0,4.4-.6,5.3-.4.7-1.6,1.3-2.4,1.7-.3.2-.6.3-.8.4-.8.5-1,1.8-1.3,3.1,0,.4-.1.7-.2,1-.2.9-1.3,1.8-3.2,2.6-1.6.7-3.3,1.7-3.9,3.8-.5,1.7.5,5,.6,5.1v.3h56.1v-.3c.2-.1,1.2-3.4.7-5.1-.6-2-2.3-3-3.9-3.8ZM720.5,195.4c.2-.6.5-1,.6-1.3h48.8c.1.2.4.7.6,1.3.2.5.2,1.3.1,1.9h-50.3c0-.7,0-1.5.1-1.9ZM723.1,204.4h0c0-1.4-.1-3.1-1.5-5h47.9c-1.4,1.9-1.5,3.5-1.5,4.8h0c0,1.7,1.9,4.2,2.5,4.8v.8h-49.9v-.8c.6-.7,2.6-3.1,2.5-4.7ZM725.9,275.3c.2-.1.4-.2.7-.4,1-.5,2.3-1.2,2.9-2.1.6-1,1.7-4.6.5-6.4-.8-1.2-1.6-2.2-2-2.6v-3.3h0c0-.2-6.1-11.1-8.8-20.2-2.6-9-3-21.2-.8-25.4.9-1.7,1.4-2.6,1.7-3.1h0s50.8,0,50.8,0h0c.3.5.8,1.4,1.7,3.1,2.2,4.3,1.8,16.4-.8,25.4-2.7,9.1-8.7,20-8.8,20.1h0v3.4c-.3.4-1.2,1.3-2,2.6-1.1,1.8,0,5.3.5,6.4.5.9,1.9,1.6,2.9,2.1.3.2.6.3.7.4.4.2.6,1.5.8,2.3h-40.7c.2-.8.4-2.1.8-2.3ZM772.8,289.3h-54.5c-.3-1.1-.8-3.2-.5-4.2.4-1.3,1.4-2.2,3.3-3.1,1.7-.8,2.8-1.6,3.4-2.4h42c.6.9,1.7,1.6,3.4,2.4,2,.9,2.9,1.8,3.3,3.1.3,1.1-.2,3.1-.5,4.2Z"/>
  </g>
  <g id="origin" class="st7">
    <ellipse class="st4" cx="732.4" cy="229.4" rx="13.9" ry="20.5" transform="translate(-35 241) rotate(-18.3)"/>
    <ellipse class="st6" cx="48.6" cy="229.8" rx="13.9" ry="20.5" transform="translate(-76 30.7) rotate(-20.1)"/>
    <path class="st2" d="M87.4,281.6c-1.9-.9-3.2-1.8-3.5-3-.3-1.1-.5-3.3-1.3-3.8-.8-.5-2.8-1.3-3.4-2.3-.6-1-1.5-4.3-.5-5.8,1-1.5,2-2.6,2-2.6v-3.4s6.1-10.9,8.9-20.2c2.7-9.3,3.1-21.4.8-25.8-1.8-3.5-2.1-3.9-2.1-3.9v-2c0,0-2.5-2.9-2.5-4.5,0-1.6,0-3.7,2.6-6,0,0,.4-2.1,0-3.1-.4-1-.8-1.6-.8-1.6h-49.4s-.4.6-.8,1.6c-.4,1,0,3.1,0,3.1,2.5,2.3,2.5,4.4,2.6,6,0,1.6-2.5,4.5-2.5,4.5v2s-.2.4-2,3.9c-2.3,4.4-1.9,16.5.8,25.8,2.7,9.3,8.9,20.2,8.9,20.2v3.4s1.1,1.1,2,2.6c1,1.5,0,4.8-.5,5.8-.6,1-2.7,1.8-3.4,2.3-.8.5-1,2.6-1.3,3.8-.3,1.1-1.6,2.1-3.5,3s-3.1,1.8-3.6,3.4.6,4.9.6,4.9h55.2s1.1-3.3.6-4.9-1.7-2.6-3.6-3.4Z"/>
    <path class="st2" d="M686.9,27.1c-1.7-1.8-3.1-6.7-3.1-6.7L404.6.7,125.3,20.4s-1.4,5-3.1,6.7c-1.7,1.8-6.1,2.6-6.1,2.6h576.9s-4.4-.9-6.1-2.6Z"/>
    <rect class="st2" x="116.1" y="29.7" width="576.9" height="260.1"/>
    <rect class="st2" y="289.8" width="809.1" height="23.8"/>
    <line class="st3" x1="37.3" y1="198.4" x2="88.3" y2="198.4"/>
    <path class="st3" d="M37,264"/>
    <line class="st3" x1="37.4" y1="210.8" x2="88.2" y2="210.8"/>
    <line class="st1" x1="125.3" y1="20.4" x2="683.8" y2="20.4"/>
    <line class="st3" x1="41.7" y1="278.6" x2="83.9" y2="278.6"/>
    <path class="st2" d="M770.1,281.6c-1.9-.9-3.2-1.8-3.5-3-.3-1.1-.5-3.3-1.3-3.8-.8-.5-2.8-1.3-3.4-2.3-.6-1-1.5-4.3-.5-5.8,1-1.5,2-2.6,2-2.6v-3.4s6.1-10.9,8.9-20.2c2.7-9.3,3.1-21.4.8-25.8-1.8-3.5-2.1-3.9-2.1-3.9v-2c0,0-2.5-2.9-2.5-4.5,0-1.6,0-3.7,2.6-6,0,0,.4-2.1,0-3.1-.4-1-.8-1.6-.8-1.6h-49.4s-.4.6-.8,1.6c-.4,1,0,3.1,0,3.1,2.5,2.3,2.5,4.4,2.6,6,0,1.6-2.5,4.5-2.5,4.5v2s-.2.4-2,3.9c-2.3,4.4-1.9,16.5.8,25.8,2.7,9.3,8.9,20.2,8.9,20.2v3.4s1.1,1.1,2,2.6c1,1.5,0,4.8-.5,5.8-.6,1-2.7,1.8-3.4,2.3-.8.5-1,2.6-1.3,3.8-.3,1.1-1.6,2.1-3.5,3s-3.1,1.8-3.6,3.4.6,4.9.6,4.9h55.2s1.1-3.3.6-4.9-1.7-2.6-3.6-3.4Z"/>
    <line class="st3" x1="720" y1="198.4" x2="771" y2="198.4"/>
    <line class="st3" x1="720.1" y1="210.8" x2="770.9" y2="210.8"/>
    <line class="st3" x1="724.4" y1="278.6" x2="766.6" y2="278.6"/>
  </g>
</svg>