<?xml version="1.0" encoding="UTF-8"?>
<svg id="Layer_1" xmlns="http://www.w3.org/2000/svg" version="1.1" viewBox="0 0 809.1 297.2">
  <!-- Generator: Adobe Illustrator 30.0.0, SVG Export Plug-In . SVG Version: 2.1.1 Build 123)  -->
  <path d="M93.5,265.1c-2.6-.9-4.2-1.8-4.6-3-.4-1.1-.6-3.3-1.7-3.8-1-.5-3.8-1.3-4.6-2.3-.8-1-2-4.3-.7-5.8,1.3-1.5,2.7-2.6,2.7-2.6v-3.4s8.2-10.9,11.8-20.2c3.6-9.3,4.1-21.4,1-25.8-2.4-3.5-2.8-3.9-2.8-3.9v-2c0,0-3.4-2.9-3.3-4.5,0-1.6,0-3.7,3.4-6,0,0,.5-2.1,0-3.1-.6-1-1-1.6-1-1.6H28s-.5.6-1,1.6c-.6,1,0,3.1,0,3.1,3.4,2.3,3.4,4.4,3.4,6,0,1.6-3.4,4.5-3.4,4.5v2s-.3.4-2.7,3.9c-3,4.4-2.6,16.5,1,25.8,3.6,9.3,11.8,20.2,11.8,20.2v3.4s1.4,1.1,2.7,2.6c1.3,1.5,0,4.8-.7,5.8-.8,1-3.5,1.8-4.6,2.3-1,.5-1.3,2.6-1.7,3.8-.4,1.1-2.1,2.1-4.6,3s-4.2,1.8-4.8,3.4.8,4.9.8,4.9h73.4s1.4-3.3.8-4.9-2.2-2.6-4.8-3.4Z"/>
  <rect x="0" y="273.4" width="809.1" height="23.8"/>
  <path d="M780.3,265.1c-2.6-.9-4.2-1.8-4.6-3-.4-1.1-.6-3.3-1.7-3.8-1-.5-3.8-1.3-4.6-2.3-.8-1-2-4.3-.7-5.8,1.3-1.5,2.7-2.6,2.7-2.6v-3.4s8.2-10.9,11.8-20.2c3.6-9.3,4.1-21.4,1-25.8-2.4-3.5-2.8-3.9-2.8-3.9v-2c0,0-3.4-2.9-3.3-4.5,0-1.6,0-3.7,3.4-6,0,0,.5-2.1,0-3.1-.6-1-1-1.6-1-1.6h-65.6s-.5.6-1,1.6c-.6,1,0,3.1,0,3.1,3.4,2.3,3.4,4.4,3.4,6,0,1.6-3.4,4.5-3.4,4.5v2s-.3.4-2.7,3.9c-3,4.4-2.6,16.5,1,25.8,3.6,9.3,11.8,20.2,11.8,20.2v3.4s1.4,1.1,2.7,2.6c1.3,1.5,0,4.8-.7,5.8-.8,1-3.5,1.8-4.6,2.3-1,.5-1.3,2.6-1.7,3.8-.4,1.1-2.1,2.1-4.6,3s-4.2,1.8-4.8,3.4c-.6,1.6.8,4.9.8,4.9h73.4s1.4-3.3.8-4.9c-.6-1.6-2.2-2.6-4.8-3.4Z"/>
  <line x1="26.9" y1="181.9" x2="94.8" y2="181.9"/>
  <path d="M37,247.6"/>
  <line x1="27" y1="194.4" x2="94.6" y2="194.4"/>
  <line x1="32.8" y1="262.1" x2="88.8" y2="262.1"/>
  <line x1="713.7" y1="181.9" x2="781.6" y2="181.9"/>
  <line x1="713.9" y1="194.4" x2="781.5" y2="194.4"/>
  <line x1="719.7" y1="262.1" x2="775.7" y2="262.1"/>
  <path d="M521.9,8.3C468.2,1.8,410.7.7,404.6.6h0s-.6,0-.6,0h0c-6.2.1-63.6,1.2-117.3,7.7-73,8.8-173.5,12.4-173.5,12.4v252.7h581.7V20.6s-100-3.5-173-12.4Z"/>
</svg>