<?xml version="1.0" encoding="UTF-8"?>
<svg id="Layer_1" xmlns="http://www.w3.org/2000/svg" xmlns:xlink="http://www.w3.org/1999/xlink" version="1.1" viewBox="0 0 628.5 272.9">
  <!-- Generator: Adobe Illustrator 30.0.0, SVG Export Plug-In . SVG Version: 2.1.1 Build 123)  -->
  <defs>
    <style>
      .st0 {
        display: none;
      }
    </style>
  </defs>
  <g id="mE4cUA.tif" class="st0">
    <image id="Layer_0" width="1700" height="910" transform="translate(-26.4 -16.5) scale(.4)" xlink:href="estate7-1.png"/>
  </g>
  <path d="M537.3,27.3c-1.3-1.8-2.4-6.7-2.4-6.7L314.2.9,93.6,20.6s-1.1,5-2.4,6.7c-1.2,1.6-4,2.4-4.7,2.6s0,0,0,0h455.3c0,0,0,0,0,0-.9-.3-3.4-1.1-4.5-2.5Z"/>
  <rect x="86.3" y="29.9" width="455.8" height="219.2"/>
  <rect y="249.1" width="628.5" height="23.8"/>
  <path d="M-52.4,223.3"/>
  <line x1="93.6" y1="20.6" x2="534.9" y2="20.6"/>
  <polygon points="541.6 29.9 87 29.9 90.5 28 92 25.9 536.4 25.9 538.1 28 541.6 29.9"/>
  <path d="M17.3,223.3"/>
  <path d="M68,240.8c-1.9-.9-3.2-1.8-3.5-3-.3-1.1-.5-3.3-1.3-3.8-.8-.5-2.8-1.3-3.4-2.3-.6-1-1.5-4.3-.5-5.8,1-1.5,2-2.6,2-2.6v-3.4s6.1-10.9,8.9-20.2c2.7-9.3,3.1-21.4.8-25.8-1.8-3.5-2.1-3.9-2.1-3.9v-2c0,0-2.5-2.9-2.5-4.5,0-1.6,0-3.7,2.6-6,0,0,.4-2.1,0-3.1-.4-1-.8-1.6-.8-1.6H18.7s-.4.6-.8,1.6c-.4,1,0,3.1,0,3.1,2.5,2.3,2.5,4.4,2.6,6,0,1.6-2.5,4.5-2.5,4.5v2s-.2.4-2,3.9c-2.3,4.4-1.9,16.5.8,25.8,2.7,9.3,8.9,20.2,8.9,20.2v3.4s1.1,1.1,2,2.6c1,1.5,0,4.8-.5,5.8-.6,1-2.7,1.8-3.4,2.3-.8.5-1,2.6-1.3,3.8-.3,1.1-1.6,2.1-3.5,3s-3.1,1.8-3.6,3.4.6,4.9.6,4.9h55.2s1.1-3.3.6-4.9-1.7-2.6-3.6-3.4Z"/>
  <line x1="17.9" y1="157.6" x2="69" y2="157.6"/>
  <path d="M17.7,223.3"/>
  <line x1="18" y1="170.1" x2="68.9" y2="170.1"/>
  <line x1="22.4" y1="237.8" x2="64.5" y2="237.8"/>
  <path d="M488.9,223.3"/>
  <path d="M558.5,223.3"/>
  <path d="M609.3,240.8c-1.9-.9-3.2-1.8-3.5-3-.3-1.1-.5-3.3-1.3-3.8-.8-.5-2.8-1.3-3.4-2.3-.6-1-1.5-4.3-.5-5.8,1-1.5,2-2.6,2-2.6v-3.4s6.1-10.9,8.9-20.2c2.7-9.3,3.1-21.4.8-25.8-1.8-3.5-2.1-3.9-2.1-3.9v-2c0,0-2.5-2.9-2.5-4.5,0-1.6,0-3.7,2.6-6,0,0,.4-2.1,0-3.1-.4-1-.8-1.6-.8-1.6h-49.4s-.4.6-.8,1.6c-.4,1,0,3.1,0,3.1,2.5,2.3,2.5,4.4,2.6,6,0,1.6-2.5,4.5-2.5,4.5v2s-.2.4-2,3.9c-2.3,4.4-1.9,16.5.8,25.8,2.7,9.3,8.9,20.2,8.9,20.2v3.4s1.1,1.1,2,2.6c1,1.5,0,4.8-.5,5.8-.6,1-2.7,1.8-3.4,2.3-.8.5-1,2.6-1.3,3.8-.3,1.1-1.6,2.1-3.5,3s-3.1,1.8-3.6,3.4.6,4.9.6,4.9h55.2s1.1-3.3.6-4.9-1.7-2.6-3.6-3.4Z"/>
  <line x1="559.2" y1="157.6" x2="610.2" y2="157.6"/>
  <path d="M558.9,223.3"/>
  <line x1="559.3" y1="170.1" x2="610.1" y2="170.1"/>
  <line x1="563.6" y1="237.8" x2="605.8" y2="237.8"/>
</svg>