<?xml version="1.0" encoding="UTF-8"?>
<svg id="Layer_1" xmlns="http://www.w3.org/2000/svg" xmlns:xlink="http://www.w3.org/1999/xlink" version="1.1" viewBox="0 0 809.1 297.2">
  <!-- Generator: Adobe Illustrator 30.0.0, SVG Export Plug-In . SVG Version: 2.1.1 Build 123)  -->
  <defs>
    <style>
      .st0 {
        fill: url(#radial-gradient);
      }

      .st1, .st2 {
        fill: none;
        stroke: #e6e6e6;
        stroke-miterlimit: 10;
      }

      .st3 {
        fill: url(#radial-gradient1);
      }

      .st2 {
        stroke-width: 2px;
      }
    </style>
    <radialGradient id="radial-gradient" cx="722" cy="208.8" fx="722" fy="208.8" r="24.1" gradientTransform="translate(74.1 -172.6) rotate(14.1)" gradientUnits="userSpaceOnUse">
      <stop offset="0" stop-color="#fff"/>
      <stop offset=".1" stop-color="#fff" stop-opacity=".8"/>
      <stop offset=".3" stop-color="#fff" stop-opacity=".6"/>
      <stop offset=".4" stop-color="#fff" stop-opacity=".4"/>
      <stop offset=".5" stop-color="#fff" stop-opacity=".3"/>
      <stop offset=".6" stop-color="#fff" stop-opacity=".1"/>
      <stop offset=".8" stop-color="#fff" stop-opacity="0"/>
      <stop offset=".9" stop-color="#fff" stop-opacity="0"/>
      <stop offset="1" stop-color="#fff" stop-opacity="0"/>
    </radialGradient>
    <radialGradient id="radial-gradient1" cx="38" cy="209.8" fx="38" fy="209.8" r="24.1" gradientTransform="translate(53.8 -6.8) rotate(14.1)" xlink:href="#radial-gradient"/>
  </defs>
  <rect class="st1" x="0" y="273.4" width="809.1" height="23.8"/>
  <path class="st2" d="M37,247.6"/>
  <path class="st1" d="M521.9,8.3C468.2,1.8,410.7.7,404.6.6h0s-.6,0-.6,0h0c-6.2.1-63.6,1.2-117.3,7.7-73,8.8-173.5,12.4-173.5,12.4v252.7h581.7V20.6s-100-3.5-173-12.4Z"/>
  <ellipse class="st0" cx="732.8" cy="213" rx="13.9" ry="20.5" transform="translate(-29.8 240.3) rotate(-18.3)"/>
  <ellipse class="st3" cx="49" cy="213.3" rx="13.9" ry="20.5" transform="translate(-70.4 29.8) rotate(-20.1)"/>
  <path class="st1" d="M87.8,265.1c-1.9-.9-3.2-1.8-3.5-3-.3-1.1-.5-3.3-1.3-3.8-.8-.5-2.8-1.3-3.4-2.3-.6-1-1.5-4.3-.5-5.8,1-1.5,2-2.6,2-2.6v-3.4s6.1-10.9,8.9-20.2c2.7-9.3,3.1-21.4.8-25.8-1.8-3.5-2.1-3.9-2.1-3.9v-2c0,0-2.5-2.9-2.5-4.5,0-1.6,0-3.7,2.6-6,0,0,.4-2.1,0-3.1-.4-1-.8-1.6-.8-1.6h-49.4s-.4.6-.8,1.6c-.4,1,0,3.1,0,3.1,2.5,2.3,2.5,4.4,2.6,6,0,1.6-2.5,4.5-2.5,4.5v2s-.2.4-2,3.9c-2.3,4.4-1.9,16.5.8,25.8,2.7,9.3,8.9,20.2,8.9,20.2v3.4s1.1,1.1,2,2.6c1,1.5,0,4.8-.5,5.8-.6,1-2.7,1.8-3.4,2.3-.8.5-1,2.6-1.3,3.8-.3,1.1-1.6,2.1-3.5,3s-3.1,1.8-3.6,3.4.6,4.9.6,4.9h55.2s1.1-3.3.6-4.9-1.7-2.6-3.6-3.4Z"/>
  <line class="st2" x1="37.7" y1="181.9" x2="88.7" y2="181.9"/>
  <path class="st2" d="M37.4,247.6"/>
  <line class="st2" x1="37.8" y1="194.4" x2="88.6" y2="194.4"/>
  <line class="st2" x1="42.1" y1="262.1" x2="84.3" y2="262.1"/>
  <path class="st1" d="M770.5,265.1c-1.9-.9-3.2-1.8-3.5-3-.3-1.1-.5-3.3-1.3-3.8-.8-.5-2.8-1.3-3.4-2.3-.6-1-1.5-4.3-.5-5.8,1-1.5,2-2.6,2-2.6v-3.4s6.1-10.9,8.9-20.2c2.7-9.3,3.1-21.4.8-25.8-1.8-3.5-2.1-3.9-2.1-3.9v-2c0,0-2.5-2.9-2.5-4.5,0-1.6,0-3.7,2.6-6,0,0,.4-2.1,0-3.1-.4-1-.8-1.6-.8-1.6h-49.4s-.4.6-.8,1.6c-.4,1,0,3.1,0,3.1,2.5,2.3,2.5,4.4,2.6,6,0,1.6-2.5,4.5-2.5,4.5v2s-.2.4-2,3.9c-2.3,4.4-1.9,16.5.8,25.8,2.7,9.3,8.9,20.2,8.9,20.2v3.4s1.1,1.1,2,2.6c1,1.5,0,4.8-.5,5.8-.6,1-2.7,1.8-3.4,2.3-.8.5-1,2.6-1.3,3.8-.3,1.1-1.6,2.1-3.5,3s-3.1,1.8-3.6,3.4c-.5,1.6.6,4.9.6,4.9h55.2s1.1-3.3.6-4.9c-.5-1.6-1.7-2.6-3.6-3.4Z"/>
  <line class="st2" x1="720.4" y1="181.9" x2="771.5" y2="181.9"/>
  <line class="st2" x1="720.5" y1="194.4" x2="771.3" y2="194.4"/>
  <line class="st2" x1="724.8" y1="262.1" x2="767" y2="262.1"/>
</svg>