<?xml version="1.0" encoding="UTF-8"?>
<svg id="Layer_1" xmlns="http://www.w3.org/2000/svg" version="1.1" viewBox="0 0 809.1 314.4">
  <!-- Generator: Adobe Illustrator 30.0.0, SVG Export Plug-In . SVG Version: 2.1.1 Build 123)  -->
  <path d="M784.5,290.5c.2-.5,1.3-3.4.8-4.8-.6-1.6-2.2-2.6-4.8-3.4h-.2c-2.6-.9-4.2-1.8-4.6-3-.4-1.1-.6-3.3-1.7-3.8-1-.5-3.8-1.3-4.6-2.3s-2-4.3-.7-5.8,2.7-2.6,2.7-2.6v-3.4s8.2-10.9,11.8-20.2c3.6-9.3,4.1-21.4,1-25.8-2.4-3.5-2.8-3.9-2.8-3.9v-2s-3.4-2.9-3.3-4.5c0-1.6,0-3.7,3.4-6,0,0,.5-2.1,0-3.1-.6-1-1-1.6-1-1.6h-65.6s-.5.6-1,1.6c-.6,1,0,3.1,0,3.1,3.4,2.3,3.4,4.4,3.4,6s-3.4,4.5-3.4,4.5v2s0,0-.4.6c-4.6,4.1-6.2,12.6-3.5,21.3.5,2.7,1.2,5.4,2.2,7.8,3.6,9.3,11.8,20.2,11.8,20.2v3.4s1.4,1.1,2.7,2.6,0,4.8-.7,5.8c-.8,1-3.5,1.8-4.6,2.3-1,.5-1.3,2.6-1.7,3.8-.4,1.1-2.1,2.1-4.6,3-2.5.9-4.2,1.8-4.8,3.4-.5,1.4.5,4.3.8,4.8h-18.1V12.5h-9.3V2.3H125.3v10.2h-9.2v278h-18.5c.2-.5,1.3-3.4.8-4.8-.6-1.6-2.2-2.6-4.8-3.4h0c-2.6-.9-4.2-1.8-4.6-3-.4-1.1-.6-3.3-1.7-3.8-1-.5-3.8-1.3-4.6-2.3-.8-1-2-4.3-.7-5.8s2.7-2.6,2.7-2.6v-3.4s8.2-10.9,11.8-20.2c3.6-9.3,4.1-21.4,1-25.8-2.4-3.5-2.8-3.9-2.8-3.9v-2s-3.4-2.9-3.3-4.5c0-1.6,0-3.7,3.4-6,0,0,.5-2.1,0-3.1-.6-1-1-1.6-1-1.6H28s-.5.6-1,1.6c-.6,1,0,3.1,0,3.1,3.4,2.3,3.4,4.4,3.4,6s-3.4,4.5-3.4,4.5v2s-.3.4-2.7,3.9c-.4.6-.8,1.4-1,2.3-2,4.6-2.1,11,.2,17.4.5,2.1,1.1,4.2,1.8,6.1,3.6,9.3,11.8,20.2,11.8,20.2v3.4s1.4,1.1,2.7,2.6,0,4.8-.7,5.8c-.8,1-3.5,1.8-4.6,2.3-1,.5-1.3,2.6-1.7,3.8-.4,1.1-2.1,2.1-4.6,3-2.5.9-4.2,1.8-4.8,3.4-.5,1.4.5,4.3.8,4.8H0v23.8h809.1v-23.8h-24.6Z"/>
</svg>