<svg width="662" height="634" viewBox="0 0 662 634" fill="none" xmlns="http://www.w3.org/2000/svg">
<g clip-path="url(#clip0_175_110)">
<path d="M316.509 251.303C312.509 243.403 303.909 237.103 296.709 232.303C288.709 226.903 280.009 222.703 271.009 219.403C271.709 220.303 272.409 221.203 273.109 222.103C272.809 218.503 278.409 215.803 280.809 214.003C283.409 212.103 286.009 210.303 288.609 208.403C293.409 204.903 298.209 201.303 303.209 198.003C305.909 196.203 308.809 194.603 312.109 194.503C315.309 194.503 318.509 195.703 321.709 196.203C326.709 196.903 330.809 195.103 335.609 194.403C338.909 193.903 340.909 195.503 343.709 196.803C345.909 197.803 347.609 197.803 350.009 197.703C351.709 197.603 354.909 196.803 354.909 200.203C354.909 201.103 353.209 202.703 352.809 203.403C351.409 205.503 350.109 207.703 348.809 210.003C346.209 214.603 344.009 219.503 342.209 224.403C340.409 229.103 338.209 234.603 338.409 239.703C338.409 241.103 340.509 241.803 341.109 240.403C344.309 233.803 345.409 226.303 348.409 219.603C349.909 216.203 351.709 213.003 353.609 209.803C355.309 207.003 357.909 204.303 359.009 201.203C360.409 197.403 357.809 194.303 354.209 193.503C350.809 192.703 347.809 193.803 344.409 192.303C341.909 191.103 340.209 189.903 337.209 189.903C334.109 189.903 331.209 191.003 328.209 191.503C324.009 192.203 320.209 190.803 316.109 190.003C309.109 188.603 303.909 191.103 298.309 195.003C291.509 199.703 284.809 204.603 278.009 209.403C273.509 212.603 267.109 215.803 267.509 222.203C267.609 223.503 268.309 224.403 269.609 224.903C278.109 228.203 286.509 231.803 294.209 236.803C301.709 241.603 307.509 248.303 314.609 253.503C315.809 254.203 317.109 252.403 316.509 251.303Z" fill="black"/>
<path d="M277.709 222.803C270.609 217.003 262.509 225.203 262.909 232.903C263.109 236.303 265.209 239.103 263.209 242.403C261.609 245.003 259.709 247.303 258.409 250.103C256.309 254.703 255.109 260.003 255.909 265.103C256.909 271.103 261.409 275.303 263.109 281.003C264.409 285.303 267.709 289.603 271.809 291.503C276.309 293.603 279.509 289.203 282.409 286.403C287.509 281.403 293.509 277.603 298.809 272.803C299.809 271.903 298.809 269.803 297.409 270.403C293.709 271.803 290.609 274.003 287.509 276.403C283.709 279.303 280.609 283.103 276.809 285.903C273.509 288.303 272.309 286.703 270.009 284.103C268.509 282.303 268.009 280.403 267.409 278.303C266.209 274.303 263.309 271.703 261.609 268.103C259.409 263.503 260.109 258.103 261.909 253.503C263.309 249.903 266.109 247.103 267.709 243.603C269.109 240.503 268.609 238.403 267.809 235.203C266.309 228.703 269.709 222.903 277.009 224.003C277.709 224.003 278.309 223.303 277.709 222.803Z" fill="black"/>
<path d="M297.609 270.703C288.209 275.203 277.009 285.603 276.109 296.703C275.809 301.003 277.509 305.003 281.609 306.703C284.609 307.903 288.009 307.303 290.509 309.503C292.609 311.303 293.309 313.003 296.209 313.403C299.609 313.803 302.409 312.703 305.809 313.903C309.009 315.103 311.909 317.103 315.209 318.103C321.209 319.903 327.309 318.203 332.709 315.303C336.809 313.103 344.009 309.503 343.709 303.903C343.509 300.703 342.109 297.403 341.309 294.303C340.209 290.003 338.909 285.703 337.209 281.603C336.709 280.403 334.609 280.403 334.709 281.903C335.209 287.103 336.209 292.203 337.409 297.303C338.309 301.303 339.409 304.203 335.809 307.203C333.909 308.803 331.409 310.103 329.309 311.203C323.309 314.303 318.309 314.303 312.309 311.503C308.609 309.803 305.009 307.903 300.809 308.103C297.909 308.303 296.209 308.403 294.109 306.203C293.009 305.103 291.909 304.303 290.509 303.803C285.809 302.003 279.609 303.203 280.709 295.903C282.009 286.303 291.709 277.803 298.509 271.703C299.209 271.203 298.309 270.303 297.609 270.703Z" fill="black"/>
<path d="M343.209 229.303C347.509 221.703 352.109 215.503 360.209 211.603C362.009 210.803 364.509 209.603 366.509 209.503C370.509 209.303 371.809 211.303 373.909 214.003C377.009 218.003 380.009 222.003 382.809 226.203C385.209 230.003 387.409 233.903 389.209 238.103C390.509 241.203 394.009 249.103 391.909 252.103C390.609 253.903 387.409 253.703 385.209 254.003C382.609 254.403 380.009 254.803 377.409 255.203C371.909 256.003 366.309 256.503 361.109 258.403C359.709 258.903 359.909 260.903 361.409 261.003C369.109 261.503 377.109 259.703 384.709 258.703C388.509 258.203 395.009 258.603 396.809 254.203C398.509 249.903 395.909 242.903 394.409 238.903C392.309 233.103 389.209 227.803 385.609 222.703C382.209 217.903 378.509 213.103 374.509 208.703C370.609 204.503 366.209 205.303 361.309 207.303C352.409 210.803 343.709 219.203 342.009 228.903C341.909 229.503 342.809 230.003 343.209 229.303Z" fill="black"/>
<path d="M342.009 257.203C352.509 259.403 363.709 261.103 373.809 265.103C376.309 266.103 379.209 267.103 381.409 268.803C384.609 271.303 383.609 272.703 382.009 275.403C380.909 277.203 380.109 279.103 379.709 281.103C379.209 283.303 379.609 282.903 378.409 285.203C377.209 287.503 377.209 287.103 375.009 287.503C371.209 288.203 368.309 289.703 365.509 292.503C361.709 296.503 356.609 305.103 350.309 300.003C342.109 293.203 337.109 281.803 331.809 272.803C331.109 271.703 329.309 272.403 329.709 273.703C331.609 280.403 334.809 286.603 338.509 292.403C341.409 297.003 345.109 303.703 350.309 306.003C356.109 308.603 361.509 304.803 365.309 300.703C367.709 298.103 369.609 295.003 372.909 293.403C375.309 292.303 378.109 292.503 380.409 291.303C382.109 290.403 383.309 288.903 383.809 287.003C384.309 285.303 384.109 283.403 384.509 281.703C385.109 279.103 386.409 277.403 387.809 275.203C390.909 270.503 387.809 267.503 383.609 265.003C371.409 257.603 355.909 257.503 342.209 255.803C341.409 255.703 341.209 257.003 342.009 257.203Z" fill="black"/>
<path d="M279.609 251.803C287.309 251.703 295.009 252.403 302.609 253.703C306.209 254.403 309.809 255.103 313.309 256.203C316.209 257.103 318.409 258.203 321.509 257.503C322.509 257.303 323.209 255.803 322.509 255.003C318.709 249.903 309.209 249.503 303.309 248.903C295.209 248.103 287.309 249.003 279.509 250.903C278.909 251.003 279.009 251.803 279.609 251.803Z" fill="black"/>
<path d="M297.409 212.903C303.909 218.303 310.009 225.803 311.609 234.403C312.509 239.303 312.509 244.403 313.209 249.303C313.709 253.103 314.109 259.003 317.109 261.803C321.009 265.503 326.509 260.003 323.809 255.803C323.109 254.703 321.209 254.503 320.609 255.803C321.109 256.903 321.609 257.203 321.909 256.803C321.809 256.603 321.709 256.403 321.609 256.103C321.709 255.603 321.009 254.203 320.809 253.603C320.309 251.703 319.909 249.803 319.409 247.903C318.409 243.703 317.709 239.503 316.809 235.403C314.609 225.303 307.009 216.803 297.809 212.403C297.409 212.203 297.009 212.603 297.409 212.903Z" fill="black"/>
<path d="M328.609 203.603C322.909 211.603 320.609 221.003 319.609 230.603C318.709 240.103 318.209 251.703 320.909 261.003C321.709 263.703 325.309 263.503 326.209 261.003C326.309 260.603 326.509 260.103 326.609 259.703C327.109 258.203 325.509 256.803 324.109 257.203C323.709 257.303 323.209 257.503 322.809 257.603C324.009 258.503 325.109 259.403 326.309 260.203C326.709 251.003 324.209 241.503 324.209 232.203C324.209 222.403 326.109 213.103 329.809 204.103C330.209 203.403 329.009 203.003 328.609 203.603Z" fill="black"/>
<path d="M365.109 232.703C351.409 241.003 336.509 247.103 321.009 251.003C316.609 252.103 317.409 259.803 322.109 259.203C325.209 258.803 327.709 257.403 327.609 253.903C327.609 252.803 326.609 251.603 325.409 251.703C325.009 251.603 324.609 251.503 324.209 251.403C323.909 253.903 323.509 256.503 323.209 259.003C339.009 253.303 353.409 244.903 366.009 233.803C366.509 233.203 365.809 232.303 365.109 232.703Z" fill="black"/>
<path d="M335.209 254.303C330.209 255.703 325.109 256.203 320.109 257.303C317.509 257.903 318.009 262.303 320.709 262.003C326.309 261.503 331.409 258.703 335.709 255.303C336.309 254.903 335.709 254.103 335.209 254.303Z" fill="black"/>
<path d="M301.409 301.103C304.909 293.803 307.009 286.203 311.409 279.203C313.609 275.703 316.009 272.503 318.709 269.403C321.009 266.803 324.609 264.703 324.109 261.003C323.909 259.703 323.209 258.803 321.809 258.703C317.909 258.403 316.209 262.003 314.209 264.903C311.609 268.703 309.309 272.703 307.309 276.803C303.909 284.103 300.309 292.703 300.609 300.803C300.509 301.303 301.209 301.503 301.409 301.103Z" fill="black"/>
<path d="M315.109 297.703C318.009 292.603 319.309 286.703 320.909 281.103C322.609 274.903 324.309 268.703 326.109 262.503C327.009 259.503 323.909 256.203 320.809 257.203C320.409 257.303 316.809 258.403 317.609 256.703C318.409 255.003 317.509 252.703 315.309 252.803C310.709 253.003 308.309 257.803 310.209 261.903C312.809 267.503 319.309 267.203 324.109 265.203C321.909 264.003 319.809 262.703 317.609 261.503C316.809 267.903 315.809 274.203 314.909 280.603C314.109 286.103 313.009 291.903 313.609 297.503C313.709 298.003 314.709 298.403 315.109 297.703Z" fill="black"/>
<path d="M350.609 281.003C345.009 270.903 336.009 258.703 324.409 255.403C322.909 255.003 320.909 255.403 319.809 256.603C318.909 257.703 318.309 258.503 318.409 260.003C318.509 261.603 319.209 263.403 320.709 264.103C325.809 266.503 331.409 267.703 336.309 270.403C341.509 273.303 345.909 277.103 349.709 281.703C350.209 282.103 350.909 281.503 350.609 281.003Z" fill="black"/>
<path d="M338.009 261.903C337.409 259.003 334.109 257.303 331.509 256.703C330.009 256.303 328.309 256.203 326.809 256.403C325.809 256.503 324.909 256.703 324.009 257.003C323.709 257.103 323.409 257.303 323.109 257.403C321.709 257.703 321.609 258.503 322.709 259.803C322.309 255.803 316.309 254.303 315.209 258.803C314.009 263.903 318.909 267.203 323.409 265.703C325.809 264.903 327.609 262.903 330.209 262.503C332.609 262.103 334.709 263.203 337.009 263.303C337.709 263.303 338.209 262.603 338.009 261.903Z" fill="black"/>
<path d="M292.209 263.003C297.009 262.503 301.709 261.703 306.509 261.803C311.609 261.903 316.709 263.003 321.709 264.203C328.309 265.803 329.509 255.103 322.909 255.203C312.809 255.403 301.109 257.403 292.009 261.903C291.409 262.203 291.609 263.003 292.209 263.003Z" fill="black"/>
<path d="M339.709 217.303C337.309 216.803 335.609 217.403 333.909 219.003C332.109 220.703 333.209 223.303 335.209 224.103C338.409 225.403 341.709 223.403 342.409 220.103C342.609 219.003 342.509 217.703 341.609 217.003C334.609 211.003 331.009 223.103 329.709 227.803C328.309 232.903 326.909 237.903 325.709 243.103C324.509 248.203 322.809 253.703 323.009 258.903C323.009 259.903 324.309 260.003 324.709 259.103C327.109 253.203 327.809 246.403 329.909 240.303C331.009 237.203 332.209 234.103 333.509 231.003C334.209 229.503 338.509 222.903 337.009 221.503C336.709 220.503 336.409 219.403 336.209 218.403C336.409 218.303 336.609 218.303 336.909 218.203C337.609 219.203 338.409 220.203 339.109 221.103C339.509 220.503 339.909 219.803 340.209 219.203C340.909 218.703 340.509 217.503 339.709 217.303Z" fill="black"/>
<path d="M258.609 201.303C258.109 200.903 257.709 200.603 257.209 200.203C257.909 199.603 258.709 199.103 259.409 198.503C259.609 198.903 259.709 199.203 259.909 199.603C258.909 199.703 257.809 199.903 256.809 200.003C264.009 203.303 270.909 207.503 276.909 212.603C283.309 218.003 288.409 224.503 293.709 230.903C303.709 242.803 315.209 254.703 328.309 263.203C329.009 263.603 329.709 262.603 329.209 262.103C316.709 250.103 304.609 238.703 294.009 224.803C284.409 212.203 274.009 201.903 259.309 195.603C258.309 195.203 257.009 195.103 256.209 196.003C253.709 198.703 255.209 203.303 259.309 203.003C260.209 202.903 261.309 202.403 261.509 201.303C262.009 198.503 259.309 194.703 256.209 197.103C254.109 198.703 255.109 202.403 257.809 202.203C258.309 202.203 258.709 201.803 258.609 201.303Z" fill="black"/>
<path d="M367.609 158.303C383.509 167.903 402.409 156.003 419.109 162.303C428.009 165.703 434.909 172.803 441.409 179.403C447.409 185.403 453.909 193.303 462.309 196.003C463.209 196.303 463.709 195.103 463.209 194.503C460.109 191.003 456.409 187.903 453.109 184.503C449.809 181.003 446.809 177.203 443.609 173.603C437.609 166.903 430.909 160.803 422.509 157.303C404.809 150.003 386.409 162.103 368.909 155.303C367.109 154.703 366.109 157.403 367.609 158.303Z" fill="black"/>
<path d="M457.809 193.803C450.309 184.903 439.609 196.903 433.609 201.203C428.309 204.903 421.809 206.503 415.509 206.003C408.409 205.403 403.409 201.703 397.209 198.703C385.709 193.103 371.909 197.203 361.009 190.103C352.509 184.603 346.109 175.703 335.509 174.003C335.909 175.703 336.409 177.303 336.809 179.003C341.409 174.603 346.509 170.903 352.109 167.903C357.809 164.903 363.909 163.103 369.709 160.703C371.409 160.003 371.409 157.203 369.209 157.303C355.709 157.603 342.209 166.103 332.409 174.803C330.809 176.203 331.509 179.403 333.709 179.803C344.309 181.803 350.509 191.403 359.509 196.503C370.709 202.803 384.209 198.903 395.409 204.803C400.509 207.403 404.909 210.503 410.709 211.503C415.709 212.403 421.009 212.203 425.909 210.803C430.809 209.403 435.309 206.903 439.009 203.503C444.209 198.803 448.809 192.703 456.709 195.503C457.809 195.703 458.309 194.403 457.809 193.803Z" fill="black"/>
<path d="M396.309 183.803C396.809 176.403 394.309 169.203 389.309 163.703C385.209 159.203 376.909 152.903 370.409 155.203C368.909 155.703 368.809 157.503 370.009 158.403C372.209 160.003 375.209 160.503 377.709 161.703C380.709 163.103 383.509 164.903 385.809 167.203C390.509 171.903 393.609 177.503 395.009 184.003C395.109 184.803 396.209 184.603 396.309 183.803Z" fill="black"/>
<path d="M410.109 178.103C409.109 173.003 406.109 168.903 402.509 165.303C399.309 162.103 394.809 158.303 390.109 158.103C388.809 158.003 388.209 159.803 389.009 160.703C392.109 163.903 396.609 165.703 399.909 168.803C403.209 171.903 405.909 175.603 408.809 179.003C409.309 179.503 410.209 178.803 410.109 178.103Z" fill="black"/>
<path d="M338.009 168.003C333.409 169.003 335.109 159.303 334.809 157.303C334.509 155.303 333.709 153.503 332.609 151.803C330.109 147.803 326.409 144.903 323.709 141.103C319.109 134.603 323.209 129.803 327.409 124.403C330.809 119.903 333.409 115.103 331.709 109.403C330.909 110.503 330.109 111.603 329.209 112.603C340.409 113.203 350.809 118.203 358.309 126.503C362.309 130.903 365.209 136.203 367.109 141.903C369.109 147.603 369.809 153.703 372.109 159.303C372.809 161.103 375.509 161.003 375.609 158.803C376.309 132.403 355.209 109.303 329.209 107.503C327.509 107.403 326.309 109.203 326.709 110.703C329.109 119.203 317.309 125.003 316.209 133.303C315.509 138.803 318.509 143.203 322.009 147.003C324.209 149.403 326.709 151.503 328.609 154.203C330.909 157.503 330.409 160.503 330.709 164.403C331.109 168.603 334.709 172.703 338.809 169.503C339.509 168.903 338.709 167.903 338.009 168.003Z" fill="black"/>
<path d="M333.609 136.003C341.209 136.403 348.009 137.203 354.509 141.503C357.509 143.503 360.109 146.003 362.209 149.003C363.809 151.203 364.709 154.503 367.709 155.003C368.509 155.103 369.109 154.903 369.609 154.203C373.709 148.103 361.109 138.703 356.709 136.303C349.809 132.403 340.509 130.503 333.009 134.003C332.009 134.503 332.609 135.903 333.609 136.003Z" fill="black"/>
<path d="M343.009 148.103C347.109 147.403 351.309 147.503 355.309 148.403C358.609 149.203 361.509 151.203 364.709 152.003C365.909 152.303 366.609 150.903 365.809 150.003C360.609 143.903 349.409 144.103 342.409 146.303C341.409 146.803 341.909 148.303 343.009 148.103Z" fill="black"/>
<path d="M337.209 110.203C341.809 108.803 346.509 109.003 351.209 109.203C355.709 109.403 360.109 109.003 364.609 108.703C372.309 108.103 381.709 107.603 387.709 113.403C394.209 119.803 391.409 129.903 388.109 137.203C384.609 145.003 379.709 151.403 374.309 158.003C373.109 159.403 374.609 161.603 376.309 160.703C384.809 156.203 390.109 146.703 393.509 137.903C396.609 129.903 398.309 119.703 392.709 112.303C387.209 105.103 377.509 103.503 369.009 104.203C363.009 104.703 357.109 105.803 351.109 105.903C345.809 106.003 341.009 105.903 336.409 108.703C335.709 109.103 336.309 110.503 337.209 110.203Z" fill="black"/>
<path d="M374.709 124.703C381.309 134.203 377.309 145.003 373.509 154.803C372.209 158.103 377.709 159.703 378.909 156.303C382.609 145.803 386.209 131.903 376.309 123.403C375.509 122.703 374.009 123.703 374.709 124.703Z" fill="black"/>
<path d="M390.409 115.203C405.309 122.603 417.509 134.303 424.709 149.403C425.109 148.303 425.609 147.203 426.009 146.103C418.409 147.403 410.809 149.103 403.409 151.303C397.709 152.903 388.609 154.203 384.609 158.803C383.809 159.703 384.409 160.903 385.509 161.003C388.809 161.403 391.809 159.803 394.909 158.803C398.409 157.603 402.009 156.503 405.609 155.503C412.809 153.503 420.009 151.903 427.309 150.503C428.809 150.203 429.209 148.403 428.609 147.203C421.009 131.403 407.909 119.003 391.509 112.803C390.009 112.203 389.009 114.503 390.409 115.203Z" fill="black"/>
<path d="M423.209 147.803C429.809 152.803 435.509 157.003 439.709 164.503C443.809 171.703 445.009 180.203 449.109 187.303C450.009 188.903 453.009 188.303 452.909 186.303C452.109 177.303 447.109 166.903 441.909 159.603C437.709 153.603 431.309 147.103 423.609 146.203C422.709 146.103 422.609 147.303 423.209 147.803Z" fill="black"/>
<path d="M405.909 132.603C400.509 135.603 396.109 140.603 391.109 144.203C388.609 146.003 386.009 147.603 383.309 149.103C380.809 150.503 378.609 151.003 377.109 153.503C376.509 154.403 377.009 156.103 378.209 156.303C383.909 157.103 390.309 151.203 394.509 147.903C399.209 144.203 404.909 139.303 406.909 133.403C407.209 132.803 406.409 132.303 405.909 132.603Z" fill="black"/>
<path d="M461.509 118.303C463.709 112.603 456.709 110.203 452.209 111.003C443.709 112.303 434.909 117.503 427.609 121.703C412.109 130.703 396.509 143.303 385.009 157.103C384.409 157.803 385.209 159.103 386.109 158.503C398.409 149.903 409.009 139.103 421.709 131.003C428.109 126.903 434.809 123.203 442.009 120.803C445.209 119.803 457.209 115.403 458.909 118.603C459.509 119.803 461.009 119.303 461.509 118.303Z" fill="black"/>
<path d="M420.809 86.0034H420.909C420.909 85.1034 420.909 84.2034 420.909 83.4034C418.909 86.2034 418.609 89.2034 417.909 92.5034C417.209 95.6034 416.009 98.8034 414.809 101.803C412.109 108.603 409.209 115.403 406.109 122.003C403.409 127.903 400.409 133.803 397.209 139.503C395.409 142.603 393.609 145.703 391.709 148.703C390.109 151.303 388.009 153.603 387.209 156.603C387.009 157.203 387.709 157.803 388.209 157.403C391.309 155.303 393.009 151.703 394.909 148.603C397.109 145.103 399.209 141.503 401.209 137.803C405.309 130.203 409.109 122.403 412.509 114.503C416.009 106.503 419.409 98.8034 423.609 91.2034C425.509 87.7034 427.109 79.4034 420.109 81.9034C418.109 82.6034 418.309 86.2034 420.809 86.0034Z" fill="black"/>
<path d="M401.109 201.403C391.709 202.703 384.309 207.803 377.409 214.003C374.809 216.403 378.809 220.503 381.309 217.903C387.109 211.803 393.809 206.403 401.609 203.103C402.709 202.703 402.309 201.303 401.109 201.403Z" fill="black"/>
<path d="M343.709 180.503C343.509 182.303 343.809 184.003 343.409 185.703C342.909 187.603 341.909 189.303 341.009 191.003C339.409 193.703 343.809 195.703 345.009 192.703C346.509 189.003 347.909 183.903 345.309 180.303C344.909 179.803 343.809 179.703 343.709 180.503Z" fill="black"/>
<path d="M353.709 195.603C354.009 194.603 354.309 193.603 354.609 192.603C354.909 191.603 355.309 190.503 355.309 189.403C355.209 187.503 352.809 186.803 351.709 188.403C351.109 189.303 351.009 190.403 350.709 191.503C350.409 192.503 350.209 193.503 349.909 194.603C349.209 197.003 353.009 198.103 353.709 195.603Z" fill="black"/>
<path d="M353.309 213.703C355.109 210.203 357.309 206.803 359.509 203.503C361.409 200.703 365.109 197.903 365.809 194.503C366.009 193.703 365.309 192.903 364.509 193.203C361.209 194.203 359.009 198.603 357.309 201.403C355.009 205.103 353.609 209.103 352.509 213.303C352.209 213.903 353.109 214.303 353.309 213.703Z" fill="black"/>
<path d="M374.409 212.003C377.209 209.903 379.909 207.603 382.709 205.503C385.809 203.103 389.109 201.103 392.309 198.803C395.009 196.803 392.709 193.003 389.709 194.303C382.909 197.403 377.109 203.403 371.709 208.403C369.709 210.103 372.309 213.603 374.409 212.003Z" fill="black"/>
<path d="M228.609 141.003C240.009 139.303 251.609 138.003 263.109 137.503C273.809 137.103 284.709 137.503 294.709 141.903C302.709 145.403 309.809 150.803 316.209 156.803C322.609 162.703 327.909 170.403 334.909 175.503C336.209 176.403 338.309 174.903 337.709 173.403C334.209 165.103 326.809 157.703 320.309 151.603C313.309 145.103 305.309 139.803 296.209 136.503C285.909 132.703 275.009 132.703 264.209 133.603C252.009 134.603 240.209 136.803 228.609 140.503C228.109 140.603 228.209 141.103 228.609 141.003Z" fill="black"/>
<path d="M231.009 141.003C241.309 140.003 251.509 142.603 261.309 145.403C269.709 147.803 278.009 151.003 285.809 155.003C300.809 162.803 317.809 175.103 324.009 191.403C324.809 193.403 328.009 193.303 328.009 190.903C328.009 181.403 320.009 174.103 313.509 168.103C306.309 161.603 298.309 155.903 289.709 151.503C281.309 147.103 272.409 143.903 263.209 141.703C252.609 139.103 241.509 136.603 230.809 139.503C229.909 139.603 230.109 141.103 231.009 141.003Z" fill="black"/>
<path d="M226.309 140.403C240.109 148.403 247.509 162.703 256.509 175.203C260.809 181.203 265.509 186.903 271.309 191.503C274.609 194.103 278.109 196.403 281.809 198.403C285.609 200.503 289.609 203.303 293.909 204.103C296.209 204.603 298.409 201.703 296.409 199.903C293.309 197.103 289.209 195.603 285.609 193.603C281.209 191.103 276.909 188.403 272.909 185.103C266.809 180.103 262.009 173.803 257.409 167.403C249.009 156.003 240.509 144.403 227.009 138.903C226.109 138.603 225.509 140.003 226.309 140.403Z" fill="black"/>
<path d="M194.309 272.703C210.409 239.403 243.009 215.003 280.309 212.003C283.909 211.703 283.909 206.103 280.309 206.403C241.809 209.503 205.709 235.203 192.809 272.103C192.609 273.003 193.909 273.503 194.309 272.703Z" fill="black"/>
<path d="M193.209 274.203C213.309 255.303 238.609 242.703 265.609 237.403C268.709 236.803 267.409 232.103 264.309 232.703C236.609 238.303 211.609 252.703 192.609 273.603C192.309 274.003 192.809 274.503 193.209 274.203Z" fill="black"/>
<path d="M194.709 272.903C199.609 269.403 204.909 268.003 210.909 267.703C216.509 267.403 222.909 266.803 228.109 268.803C238.109 272.503 249.709 279.703 260.909 275.603C262.809 274.903 263.209 271.803 260.909 271.403C254.209 270.003 247.309 270.703 240.509 268.703C234.609 266.903 229.409 263.603 223.109 263.403C213.509 263.003 200.409 264.103 193.709 271.903C193.309 272.403 194.009 273.503 194.709 272.903Z" fill="black"/>
<path d="M470.109 301.003C469.809 292.603 465.409 283.803 461.409 276.603C456.709 268.403 450.809 260.803 443.709 254.603C430.109 242.703 410.809 232.803 392.409 233.303C390.309 233.403 389.809 236.503 391.909 237.003C400.709 239.103 409.509 240.703 417.909 244.303C426.209 247.903 434.009 252.703 440.709 258.703C447.309 264.503 453.209 271.203 457.909 278.703C462.509 285.903 464.909 293.903 468.809 301.403C469.109 301.903 470.109 301.603 470.109 301.003Z" fill="black"/>
<path d="M468.909 299.303C460.109 283.403 443.709 274.803 426.409 270.803C418.209 268.903 409.909 268.403 401.609 267.103C392.509 265.703 385.409 262.703 378.509 256.503C377.309 255.403 375.109 256.503 375.709 258.103C380.909 273.103 402.609 272.603 415.409 274.103C434.809 276.403 455.309 283.803 467.109 300.203C468.009 301.303 469.609 300.403 468.909 299.303Z" fill="black"/>
<path d="M469.709 298.703C470.709 273.403 462.809 246.603 443.309 229.603C434.509 221.903 424.009 216.203 412.609 213.503C401.709 210.903 387.709 210.003 378.609 217.503C376.609 219.103 379.109 221.703 381.209 220.803C402.109 211.203 427.009 220.403 442.809 235.503C460.009 252.003 468.109 275.203 468.209 298.603C468.209 299.603 469.609 299.603 469.709 298.703Z" fill="black"/>
<path d="M416.209 367.703C404.909 357.903 396.009 345.703 388.109 333.103C384.309 327.103 380.509 321.103 376.809 315.103C372.709 308.403 370.309 302.103 368.609 294.503C367.809 291.203 362.909 292.003 362.809 295.303C362.509 302.303 366.209 309.503 369.709 315.403C373.909 322.503 378.809 329.103 383.709 335.703C393.009 348.003 403.009 359.403 415.509 368.503C416.009 368.803 416.609 368.103 416.209 367.703Z" fill="black"/>
<path d="M416.709 366.603C407.909 363.603 398.909 361.303 389.909 359.003C380.509 356.603 372.809 353.003 365.309 346.603C358.809 341.103 351.909 335.303 347.009 328.303C344.609 324.903 342.809 321.103 342.009 317.103C341.009 312.503 342.209 308.403 342.209 303.803C342.209 302.603 340.709 302.003 339.909 302.803C334.509 308.403 336.709 318.703 339.609 325.003C343.809 334.203 351.709 341.203 359.209 347.803C366.709 354.503 374.609 359.603 384.409 362.103C394.909 364.803 405.709 366.903 416.509 368.303C417.509 368.503 417.609 366.903 416.709 366.603Z" fill="black"/>
<path d="M416.009 367.003C414.609 348.003 417.209 328.203 412.609 309.603C408.809 294.603 397.509 278.303 381.009 276.103C379.309 275.903 377.309 278.003 379.009 279.503C385.509 284.803 393.409 287.103 399.009 293.803C404.009 299.803 406.709 307.303 408.509 314.803C412.509 332.103 409.509 350.303 414.809 367.303C415.009 367.803 416.109 367.703 416.009 367.003Z" fill="black"/>
<path d="M243.009 270.203C230.109 275.103 220.209 288.903 213.909 300.603C206.409 314.503 200.809 331.303 199.909 347.103C199.809 348.503 201.909 348.703 202.309 347.403C207.209 332.503 209.509 317.303 216.809 303.203C220.009 296.903 224.009 291.003 228.709 285.703C233.409 280.503 238.909 276.603 244.009 272.003C244.809 271.303 244.009 269.803 243.009 270.203Z" fill="black"/>
<path d="M202.309 347.603C213.209 331.303 232.109 327.903 250.209 325.803C256.309 325.103 295.709 320.703 287.509 307.703C286.909 306.703 285.709 306.703 284.809 307.403C281.409 310.203 279.609 312.903 275.209 314.503C270.809 316.103 266.209 317.203 261.609 318.103C252.409 319.903 243.109 320.803 234.009 323.103C220.709 326.503 206.109 333.403 200.709 346.903C200.509 347.803 201.809 348.303 202.309 347.603Z" fill="black"/>
<path d="M215.809 322.703C220.409 319.903 224.309 315.503 228.409 312.003C232.909 308.203 237.409 304.503 242.209 301.003C246.309 298.003 250.709 295.303 255.109 292.803C260.009 290.103 266.009 288.903 270.509 285.803C272.209 284.603 271.709 281.603 269.409 281.603C264.409 281.703 259.109 284.903 254.909 287.303C250.009 290.003 245.509 293.303 241.209 296.803C236.809 300.403 232.609 304.203 228.509 308.203C224.209 312.503 218.609 317.003 215.609 322.403C215.509 322.603 215.709 322.803 215.809 322.703Z" fill="black"/>
<path d="M234.809 272.003C227.609 268.303 217.409 274.903 210.809 278.303C202.509 282.603 194.809 287.903 187.509 293.903C172.509 306.303 160.109 321.403 149.309 337.503C137.809 354.703 127.709 372.803 116.509 390.203C110.809 398.903 104.409 407.403 94.9093 412.203C85.9093 416.803 75.3094 416.803 67.2094 410.303C59.1094 403.803 56.8093 393.603 60.6093 384.003C62.5093 379.303 66.5094 373.703 71.8094 372.803C75.7094 372.203 80.4094 376.203 83.8094 377.803C87.9094 379.803 91.7094 377.303 92.2094 373.003C92.8094 367.403 89.2093 362.603 83.9093 360.803C78.5093 359.003 72.6094 361.003 68.0094 363.803C59.8094 368.803 53.5094 377.003 52.0094 386.603C49.1094 405.703 65.5093 423.503 84.9093 421.303C107.709 418.803 120.209 395.503 131.309 378.203C144.609 357.403 158.509 336.803 175.309 318.603C183.909 309.303 193.409 300.803 203.809 293.703C209.209 290.003 214.809 286.803 220.609 284.003C225.909 281.503 232.609 280.803 235.609 275.503C236.409 274.403 236.109 272.703 234.809 272.003Z" fill="black"/>
<path d="M177.909 310.303C135.309 343.003 122.009 399.903 110.909 449.403C105.009 475.903 98.5093 502.503 86.5093 527.003C75.8093 548.803 59.9093 571.403 37.4093 582.103C23.5093 588.703 9.00931 580.503 5.70931 565.703C4.00931 558.103 6.20927 547.403 15.1093 545.603C21.6093 544.303 29.2093 549.403 25.1093 556.403C22.5093 560.903 29.0093 564.503 32.0093 560.403C39.4093 550.403 29.2093 536.803 17.7093 538.103C4.4093 539.603 -1.19069 554.803 0.209305 566.403C1.60931 578.303 10.0093 589.403 21.9093 592.403C37.1093 596.203 50.8093 588.003 62.0093 578.603C112.009 536.103 119.709 463.803 133.909 404.003C142.009 369.803 154.509 337.603 178.809 311.603C179.509 310.903 178.709 309.703 177.909 310.303Z" fill="black"/>
<path d="M228.009 429.403C227.609 429.403 227.209 429.403 226.709 429.303C227.309 430.003 227.309 429.903 226.709 429.203C225.709 428.503 225.009 427.603 223.909 427.003C224.309 430.203 224.709 433.503 225.109 436.703C232.609 430.903 240.209 432.603 248.309 436.003C257.709 439.903 262.309 453.003 263.809 462.203C267.309 483.203 255.509 504.303 239.109 516.803C223.009 529.103 200.909 534.203 181.109 529.503C163.809 525.403 147.409 513.903 138.009 498.803C132.409 489.803 129.009 479.303 127.909 468.803C127.309 462.603 127.009 456.303 127.309 450.103C127.709 443.303 129.309 436.403 129.009 429.603C129.009 428.503 127.309 427.803 126.709 429.003C124.009 434.803 122.909 441.203 121.609 447.403C120.109 454.403 118.709 461.603 118.609 468.803C118.509 480.703 121.609 492.003 127.609 502.303C138.809 521.603 157.709 534.803 179.909 537.603C203.209 540.503 226.709 533.503 244.509 518.203C262.309 502.903 271.809 479.503 267.109 456.103C265.909 450.003 263.509 444.303 260.409 438.903C257.509 434.003 253.709 427.803 249.009 424.503C238.709 417.203 222.509 417.903 215.209 429.103C213.009 432.503 215.209 437.103 218.909 438.203C223.709 439.603 228.409 436.703 229.609 431.803C230.209 430.703 229.309 429.303 228.009 429.403Z" fill="black"/>
<path d="M104.709 618.203C102.809 609.303 100.609 600.903 99.4093 591.903C98.2093 583.303 97.3093 574.703 96.9093 566.103C96.5093 557.803 96.8093 549.403 97.6093 541.103C98.0093 536.603 98.6093 532.203 99.2093 527.703C99.8093 523.403 101.009 519.203 100.609 514.803C100.509 513.703 99.2093 513.403 98.6093 514.303C93.7093 521.003 92.5093 531.303 91.4093 539.303C90.2093 548.503 89.8093 557.703 90.2093 566.903C90.6093 575.703 91.8093 584.803 94.2093 593.303C96.6093 601.703 99.7093 610.803 104.009 618.403C104.309 618.803 104.709 618.603 104.709 618.203Z" fill="black"/>
<path d="M108.809 632.303C99.1093 622.703 90.5093 611.403 87.2093 598.003C85.3093 590.603 85.1093 582.603 86.8093 575.103C87.6093 571.703 88.8093 568.503 90.5093 565.403C92.0093 562.703 94.4093 560.303 94.9093 557.103C95.0093 556.403 94.6093 555.503 93.7093 555.603C86.7093 556.303 83.4093 566.103 81.8093 571.903C79.7093 579.703 79.9093 587.903 81.8093 595.803C85.5093 611.103 95.6093 623.903 107.909 633.303C108.609 633.803 109.309 632.803 108.809 632.303Z" fill="black"/>
<path d="M109.609 630.403C108.909 621.503 112.309 611.803 114.409 603.203C116.609 594.703 118.809 586.103 119.109 577.303C119.309 570.603 118.309 564.203 112.709 559.903C107.609 555.903 100.209 554.203 93.9093 554.903C91.4093 555.203 90.8093 558.503 93.3093 559.303C99.1093 561.203 106.709 561.203 111.009 566.103C116.309 572.203 113.509 584.403 112.109 591.503C110.609 599.303 108.309 606.903 107.309 614.703C106.809 618.703 104.409 628.403 108.709 630.903C109.109 631.103 109.709 630.803 109.609 630.403Z" fill="black"/>
<path d="M62.8092 486.603C72.9092 487.503 82.9092 485.103 92.1092 480.903C96.5092 478.903 100.709 476.503 104.509 473.503C108.109 470.703 113.009 467.203 114.309 462.603C114.709 461.303 113.309 460.503 112.209 461.003C108.409 462.703 105.609 466.603 102.509 469.203C98.7092 472.303 94.5092 475.103 90.1092 477.403C81.6092 481.903 72.2092 484.103 62.7092 485.503C62.0092 485.603 62.3092 486.603 62.8092 486.603Z" fill="black"/>
<path d="M44.4093 491.103C50.6093 484.103 58.5093 479.303 67.0093 475.503C71.7093 473.403 76.7093 471.703 82.0093 472.003C86.7093 472.203 90.4093 474.403 94.3093 476.803C96.1093 477.903 98.5093 475.703 97.3093 473.803C91.2093 465.003 78.1093 466.003 69.4093 469.503C59.8093 473.403 48.2093 480.703 43.6093 490.303C43.3093 490.903 44.0093 491.603 44.4093 491.103Z" fill="black"/>
<path d="M43.8092 490.003C52.0092 499.703 68.0092 503.903 79.8092 499.003C89.5092 495.003 99.9092 482.003 95.1092 471.103C94.1092 468.803 91.0092 470.303 90.8092 472.303C90.3092 477.103 90.4092 481.203 87.7092 485.503C84.9092 489.903 80.6092 493.303 75.7092 495.003C64.6092 498.903 54.4092 493.903 44.7092 488.903C43.9092 488.303 43.2092 489.303 43.8092 490.003Z" fill="black"/>
<path d="M171.509 419.403C169.309 413.303 165.609 407.603 163.109 401.603C160.009 394.403 157.509 387.003 155.809 379.403C154.209 372.103 153.509 364.603 153.809 357.103C154.109 349.603 156.409 342.703 157.409 335.403C157.709 333.103 154.209 332.403 153.209 334.303C149.709 340.603 149.109 349.103 149.009 356.203C148.909 363.803 149.809 371.403 151.609 378.703C153.309 386.003 155.909 393.103 159.009 399.903C162.109 406.703 165.409 414.403 170.409 420.103C170.809 420.603 171.809 420.103 171.509 419.403Z" fill="black"/>
<path d="M181.309 439.903C169.509 432.303 158.809 422.703 152.809 409.703C149.609 402.703 148.209 395.103 148.409 387.503C148.609 379.603 152.009 373.103 153.309 365.603C153.509 364.203 152.109 363.303 150.909 364.203C145.009 369.203 143.409 378.503 143.009 385.903C142.509 394.203 144.209 402.603 147.609 410.103C153.909 424.403 166.209 435.703 180.809 441.003C181.509 441.303 181.909 440.303 181.309 439.903Z" fill="black"/>
<path d="M182.809 440.303C177.109 420.903 191.309 401.603 184.809 381.903C182.209 374.103 177.209 366.203 169.809 362.303C163.609 359.003 153.509 358.903 149.909 366.003C148.709 368.303 151.109 370.903 153.509 369.603C157.109 367.603 160.209 365.803 164.509 367.003C168.909 368.203 172.409 371.803 174.909 375.403C179.509 382.003 181.209 389.703 180.909 397.603C180.409 412.203 174.609 426.703 180.509 441.003C181.009 442.403 183.309 441.903 182.809 440.303Z" fill="black"/>
<path d="M166.309 205.603C173.509 200.903 180.109 195.503 187.609 191.403C195.009 187.403 202.709 184.003 210.709 181.503C218.709 179.003 227.009 177.903 235.309 177.203C239.609 176.803 243.909 176.703 248.209 176.803C251.809 176.903 255.509 177.603 258.809 175.803C259.809 175.303 260.109 173.603 259.209 172.903C253.709 168.303 242.009 170.403 235.409 171.103C226.609 172.003 218.009 174.403 209.609 177.103C193.809 182.303 175.909 191.003 165.409 204.403C164.809 205.003 165.409 206.203 166.309 205.603Z" fill="black"/>
<path d="M167.209 204.803C173.509 206.503 180.209 206.703 186.709 208.103C193.609 209.603 199.509 212.503 205.309 216.503C213.809 222.303 226.709 232.003 237.209 225.103C239.109 223.803 238.609 220.003 235.909 220.303C228.809 221.103 223.009 220.603 216.609 217.103C211.209 214.103 206.409 210.303 200.809 207.603C190.909 202.903 178.009 201.003 167.209 202.803C166.109 203.003 166.209 204.603 167.209 204.803Z" fill="black"/>
<path d="M193.709 199.303C210.009 196.303 226.509 194.903 243.109 195.103C251.109 195.203 259.309 194.903 267.009 197.303C274.309 199.603 280.809 203.803 288.209 205.903C290.209 206.503 291.809 203.803 290.309 202.403C278.109 190.703 261.409 187.403 245.009 188.703C227.509 190.103 210.309 193.503 193.509 198.203C192.709 198.403 193.009 199.403 193.709 199.303Z" fill="black"/>
<path d="M124.709 241.003C124.809 241.003 124.809 240.903 124.709 240.903V241.003Z" fill="black"/>
<path d="M124.609 240.303C125.009 240.303 125.009 239.703 124.609 239.703C124.209 239.803 124.209 240.303 124.609 240.303Z" fill="black"/>
<path d="M154.009 260.703C149.509 260.303 144.809 258.103 141.909 254.703C137.809 250.003 137.309 244.903 140.009 239.303C145.409 228.303 158.509 223.503 170.109 224.303C181.809 225.103 192.409 230.403 203.809 232.603C214.109 234.703 225.609 232.903 233.909 226.403C235.509 225.203 234.209 222.203 232.209 222.403C217.109 224.003 203.109 227.403 187.909 223.803C174.509 220.603 161.609 217.803 148.809 224.803C138.809 230.303 132.209 240.503 132.909 252.103C133.509 262.703 145.709 271.903 155.409 265.903C157.909 264.403 156.709 260.903 154.009 260.703Z" fill="black"/>
<path d="M484.909 296.203C487.109 296.703 487.109 291.203 488.409 289.503C491.209 285.903 497.409 284.803 501.609 285.603C511.209 287.403 514.909 297.303 516.509 305.803C518.109 314.303 517.209 322.803 511.309 329.403C506.809 334.503 501.009 338.603 494.809 341.303C479.709 348.003 460.509 347.503 448.509 335.003C443.009 329.303 439.209 322.103 435.909 314.903C432.309 306.903 428.709 299.003 424.809 291.203C420.809 283.103 414.909 276.303 406.909 271.903C400.709 268.403 388.209 264.703 383.109 271.403C381.209 273.803 381.309 276.903 384.009 278.703C388.309 281.503 393.009 280.003 397.709 281.603C402.609 283.303 406.809 286.203 410.509 289.803C414.809 294.003 418.409 298.003 421.209 303.303C423.909 308.503 426.209 313.803 428.809 319.003C433.309 328.303 438.509 337.703 446.709 344.403C455.009 351.203 465.509 353.903 476.109 353.603C493.509 353.103 512.209 344.803 519.409 328.003C526.309 311.903 522.609 285.303 503.009 280.103C493.909 277.703 482.909 281.903 476.709 288.903C473.109 293.003 472.109 300.503 477.109 303.903C481.309 306.903 487.009 304.603 487.309 299.403C487.509 298.103 486.309 296.503 484.909 296.203Z" fill="black"/>
<path d="M520.809 411.303C520.709 411.303 520.609 411.303 520.509 411.303C518.109 411.303 516.609 413.203 516.409 415.403C515.509 423.903 525.909 424.103 531.109 420.703C536.709 417.103 539.509 410.503 539.309 404.003C538.809 388.703 525.509 375.603 513.209 368.403C506.309 364.403 498.809 361.803 491.009 360.403C483.009 359.003 474.809 358.503 467.009 356.303C459.109 354.103 452.809 349.503 447.709 343.203C442.409 336.703 439.809 329.403 436.009 322.103C435.309 320.703 433.509 321.803 433.709 323.103C435.309 334.003 443.909 346.303 452.109 353.303C462.309 362.003 475.509 362.603 488.109 364.803C502.409 367.303 515.609 374.003 524.909 385.403C529.809 391.403 534.009 399.203 530.309 406.903C529.109 409.303 527.409 411.503 525.109 412.903C524.809 414.503 524.509 414.503 524.109 413.103C523.909 412.803 523.709 412.503 523.509 412.303C522.809 411.803 521.809 411.303 520.809 411.303Z" fill="black"/>
<path d="M488.609 386.303C486.309 379.903 483.209 375.203 478.709 370.103C474.309 365.203 469.309 357.203 463.009 354.803C462.409 354.603 461.809 355.303 462.009 355.803C463.709 361.503 470.209 366.203 474.309 370.303C479.009 375.303 485.109 380.303 488.609 386.303C488.609 386.403 488.509 386.403 488.609 386.303Z" fill="black"/>
<path d="M497.109 398.803C489.309 395.403 481.209 393.103 475.509 386.303C472.809 383.003 471.009 378.903 470.509 374.603C470.009 370.803 471.209 367.403 471.409 363.603C471.509 362.503 470.009 362.103 469.309 362.703C462.809 368.603 466.509 380.303 470.909 386.403C476.609 394.203 487.109 399.403 496.709 399.903C497.409 399.903 497.709 399.003 497.109 398.803Z" fill="black"/>
<path d="M471.009 369.203C479.409 363.903 486.909 372.003 489.809 379.303C492.409 385.803 493.409 393.703 497.509 399.503C498.009 400.103 498.909 399.903 499.009 399.103C499.309 393.703 497.409 387.503 495.809 382.403C494.409 378.003 492.809 373.503 489.709 370.003C484.709 364.103 475.509 361.403 469.509 367.303C468.409 368.203 469.809 370.003 471.009 369.203Z" fill="black"/>
<path d="M389.809 209.103C406.809 213.203 424.009 215.503 441.409 213.603C456.409 212.003 469.609 207.203 482.709 199.703C509.409 184.603 527.809 160.103 542.509 133.803C550.409 119.703 556.809 104.903 562.509 89.8034C568.009 75.2034 572.209 60.1034 578.209 45.7034C583.809 32.2034 591.709 17.9034 604.909 10.5034C615.409 4.70337 629.709 2.30336 640.709 8.10336C652.709 14.4034 658.009 31.4034 649.309 42.7034C646.009 47.0034 639.109 49.8034 633.809 49.7034C629.909 49.6034 623.109 47.7034 621.109 44.0034C620.209 42.4034 617.609 42.3034 616.809 44.0034C614.209 49.3034 615.009 55.4034 619.309 59.5034C624.209 64.1034 632.209 65.4034 638.709 64.2034C645.809 62.9034 651.009 59.4034 654.509 53.0034C657.709 47.1034 660.309 41.1034 661.109 34.3034C662.509 21.6034 656.309 9.40337 644.809 3.80337C633.709 -1.59663 620.109 -0.896636 608.909 3.70336C578.509 16.1034 570.209 53.2034 559.609 80.7034C546.609 114.403 530.109 147.103 502.409 171.103C495.309 177.203 487.809 183.103 479.809 188.003C472.009 192.803 463.709 196.103 455.209 199.203C434.409 206.803 412.509 207.103 390.609 205.203C388.209 205.203 387.809 208.603 389.809 209.103Z" fill="black"/>
<path d="M382.909 217.203C390.809 214.403 398.209 211.403 406.409 209.603C409.109 209.003 407.909 205.103 405.309 205.603C400.909 206.403 395.309 206.403 391.509 208.803C390.609 209.403 390.609 211.003 391.809 211.303C396.409 212.303 401.809 210.403 406.409 209.703C406.009 208.403 405.709 207.003 405.309 205.703C397.309 207.403 388.709 210.303 381.909 214.803C380.609 215.503 381.309 217.803 382.909 217.203Z" fill="black"/>
<path d="M579.009 158.003C567.409 154.203 554.509 153.603 542.409 154.903C531.809 156.003 517.909 158.603 509.709 166.103C508.409 167.303 509.809 169.103 511.309 168.803C516.809 167.703 522.009 165.003 527.309 163.203C532.709 161.503 538.309 160.203 543.809 159.203C555.509 157.303 567.009 158.003 578.709 159.503C579.809 159.703 579.809 158.203 579.009 158.003Z" fill="black"/>
<path d="M600.909 164.703C592.109 155.003 581.709 144.303 568.009 142.703C558.109 141.603 544.909 145.403 541.509 155.803C540.709 158.203 544.209 160.403 545.909 158.403C548.909 154.803 551.509 151.703 556.109 150.003C560.509 148.403 565.309 148.003 569.909 148.703C581.609 150.703 591.009 158.503 600.109 165.503C600.609 166.103 601.509 165.303 600.909 164.703Z" fill="black"/>
<path d="M600.909 165.703C595.409 165.403 591.009 167.303 586.109 169.703C579.209 173.003 572.709 175.703 565.009 175.503C558.809 175.303 551.209 173.603 546.809 168.803C544.609 166.403 543.409 163.103 544.209 159.803C544.809 157.603 546.609 156.303 546.509 153.903C546.509 153.203 546.009 152.603 545.409 152.403C539.809 151.103 538.109 159.603 538.609 163.703C539.509 170.603 545.009 175.503 551.209 177.903C559.009 181.003 568.109 180.903 576.009 178.403C584.809 175.603 592.109 169.703 601.109 167.503C602.109 167.203 601.909 165.703 600.909 165.703Z" fill="black"/>
<path d="M514.109 80.0034C509.109 77.9034 502.909 76.0034 501.609 70.0034C499.709 62.0034 503.209 54.4034 508.809 48.8034C521.709 35.8034 544.309 36.9034 550.809 55.8034C561.309 86.5034 539.409 116.503 529.009 143.903C528.609 145.003 530.209 145.503 530.809 144.703C549.409 119.803 567.109 87.2034 554.509 55.6034C549.409 42.9034 537.709 35.1034 523.809 37.2034C516.809 38.3034 510.309 41.5034 504.809 45.9034C499.109 50.4034 493.009 56.9034 491.209 64.0034C489.309 71.7034 492.409 79.6033 498.909 84.0033C503.809 87.3033 512.909 88.7033 515.109 81.5033C515.209 80.9033 514.709 80.3034 514.109 80.0034Z" fill="black"/>
<path d="M481.209 113.603C491.209 119.703 499.409 128.403 500.009 140.703C500.309 146.203 498.809 152.103 496.209 156.903C493.709 161.403 489.909 164.903 486.809 169.003C485.809 170.303 487.409 171.903 488.809 171.503C501.709 168.303 507.709 151.003 506.209 139.203C504.609 126.803 494.909 113.903 482.009 111.803C481.009 111.703 480.309 113.003 481.209 113.603Z" fill="black"/>
<path d="M480.009 114.803C470.909 127.103 463.209 146.403 469.309 161.603C471.709 167.503 476.309 171.803 482.409 173.803C487.109 175.303 494.409 175.303 496.509 169.903C496.809 169.103 496.009 168.303 495.209 168.203C490.209 168.003 486.409 169.903 481.509 167.203C475.909 164.203 473.009 158.403 472.309 152.303C470.909 139.903 476.209 126.603 481.309 115.603C481.809 114.703 480.609 114.003 480.009 114.803Z" fill="black"/>
<path d="M485.509 124.503C477.009 143.603 482.709 167.403 496.109 182.703C497.909 184.703 501.109 183.503 501.809 181.203C502.609 178.803 502.409 177.003 501.109 174.903C500.109 173.403 497.409 173.403 497.009 175.403C497.009 176.303 496.709 177.103 496.109 177.803C497.709 177.803 499.309 177.803 500.909 177.803C487.509 163.003 483.709 144.203 486.509 124.903C486.709 124.403 485.809 123.803 485.509 124.503Z" fill="black"/>
</g>
<defs>
<clipPath id="clip0_175_110">
<rect width="661.305" height="633.44" fill="white"/>
</clipPath>
</defs>
</svg>
