<svg width="427" height="399" viewBox="0 0 427 399" fill="none" xmlns="http://www.w3.org/2000/svg">
<g clip-path="url(#clip0_175_7)">
<path d="M231.865 212.515C233.265 209.815 233.565 206.615 234.565 203.815C235.565 200.715 236.765 197.715 238.065 194.815C240.765 189.015 244.165 183.515 248.165 178.615C256.265 168.615 266.665 160.615 278.265 154.915C289.365 149.415 301.465 146.315 312.965 141.515C322.765 137.515 336.665 131.315 341.165 121.015C341.465 120.215 340.765 119.215 339.865 119.715C334.265 123.215 329.565 127.815 323.665 131.015C317.865 134.115 311.565 136.415 305.365 138.715C293.265 143.115 280.865 146.715 269.765 153.415C258.965 159.815 249.565 168.415 242.265 178.615C238.765 183.515 235.765 188.815 233.465 194.415C231.365 199.615 228.665 206.615 229.565 212.215C229.565 213.415 231.365 213.515 231.865 212.515Z" fill="black"/>
<path d="M336.265 121.615C332.665 150.015 324.365 177.315 303.165 197.715C293.665 206.815 281.965 214.115 269.265 217.615C262.165 219.515 254.665 220.115 247.565 217.815C244.565 216.815 241.665 215.615 239.065 213.815C236.565 212.115 234.765 209.615 232.165 208.015C231.365 207.515 230.265 208.115 230.365 209.115C230.765 214.815 237.065 219.715 241.765 222.215C247.965 225.415 255.365 226.115 262.265 225.315C277.265 223.715 291.465 216.015 302.865 206.315C326.765 185.915 339.765 152.915 338.565 121.715C338.465 120.015 336.365 120.115 336.265 121.615Z" fill="black"/>
<path d="M236.365 214.315C220.265 208.815 204.965 228.615 197.065 239.815C186.965 254.015 177.565 272.515 177.265 290.415C177.265 292.115 179.465 292.215 180.065 290.815C182.865 283.015 184.765 274.915 187.865 267.215C190.865 259.715 194.565 252.515 198.965 245.715C203.365 239.015 208.265 232.515 214.065 227.015C220.665 220.715 227.465 217.315 236.465 215.915C237.165 215.715 237.065 214.515 236.365 214.315Z" fill="black"/>
<path d="M208.765 224.615C182.565 214.815 161.865 240.715 154.565 262.815C150.365 275.315 149.065 288.715 150.565 301.715C151.965 313.815 155.365 327.515 163.865 336.715C164.665 337.515 166.065 336.715 165.765 335.615C162.765 324.515 158.265 314.115 156.865 302.515C155.565 291.115 156.365 279.415 159.465 268.315C165.765 245.915 182.965 224.415 208.565 227.015C209.865 227.115 209.965 225.015 208.765 224.615Z" fill="black"/>
<path d="M165.265 335.315C169.565 330.015 172.065 322.815 175.565 317.015C179.265 310.715 183.465 304.715 188.065 299.015C197.265 287.615 208.065 277.915 219.865 269.215C230.865 261.115 239.665 252.515 242.565 238.715C244.865 227.815 244.265 213.615 232.165 209.115C229.165 208.015 228.065 212.215 230.165 213.815C240.665 221.915 237.565 238.715 231.765 248.715C225.465 259.615 212.465 266.215 203.365 274.615C194.365 282.915 186.365 292.415 179.565 302.615C175.965 308.015 172.765 313.515 169.865 319.315C167.565 324.015 164.565 329.615 164.065 334.915C163.965 335.415 164.865 335.815 165.265 335.315Z" fill="black"/>
<path d="M335.265 126.115C324.565 147.515 308.865 166.515 290.265 181.515C280.965 189.015 270.765 195.415 259.965 200.715C254.365 203.415 248.665 206.015 242.865 208.115C237.565 210.015 231.965 211.315 226.865 213.715C224.965 214.615 225.965 217.615 227.865 217.515C239.265 216.915 251.365 211.215 261.465 206.115C272.565 200.515 282.865 193.515 292.365 185.615C311.565 169.615 326.465 149.615 336.265 126.615C336.465 126.015 335.565 125.415 335.265 126.115Z" fill="black"/>
<path d="M256.665 224.715C272.565 224.815 280.965 239.615 289.265 250.915C296.965 261.315 306.465 269.815 317.465 276.515C317.465 274.915 317.465 273.415 317.465 271.815C310.265 276.315 301.365 276.915 293.065 277.815C284.865 278.715 276.565 279.215 268.365 278.215C260.965 277.315 253.665 275.115 247.365 271.115C240.865 267.015 236.765 261.415 232.365 255.315C231.065 253.515 228.465 254.615 228.865 256.815C231.465 272.615 250.665 281.515 264.765 283.715C274.765 285.215 284.865 284.615 294.965 283.315C303.665 282.215 312.665 281.315 320.165 276.515C321.865 275.415 321.965 272.915 320.165 271.815C306.965 263.915 297.065 253.415 287.765 241.415C280.065 231.515 270.265 221.115 256.565 222.515C255.265 222.615 255.165 224.715 256.665 224.715Z" fill="black"/>
<path d="M237.465 219.015C245.365 231.215 254.565 242.715 265.565 252.215C270.465 256.515 275.865 259.515 281.965 261.915C289.665 264.915 297.865 268.315 305.965 269.615C307.165 269.815 307.965 268.215 306.865 267.515C293.965 259.815 278.765 258.415 267.265 248.115C256.965 238.915 247.465 228.715 238.765 218.015C238.165 217.315 236.965 218.215 237.465 219.015Z" fill="black"/>
<path d="M201.465 220.215C195.565 214.915 186.265 213.115 178.665 212.115C170.165 210.915 161.565 211.015 153.065 212.215C136.065 214.615 118.165 221.015 104.665 231.715C102.965 233.115 105.165 235.215 106.865 234.515C121.965 227.915 136.365 220.515 152.865 217.915C160.865 216.615 168.965 216.315 176.965 217.115C185.065 217.915 192.765 221.115 200.865 221.815C201.665 222.015 202.065 220.815 201.465 220.215Z" fill="black"/>
<path d="M198.365 215.815C192.365 205.515 179.765 200.715 168.565 199.315C155.665 197.715 142.265 199.715 130.065 204.115C100.365 214.915 81.165 242.515 66.565 269.115C65.165 271.615 68.465 274.215 70.565 272.215C78.265 264.915 87.065 258.915 96.865 254.815C107.665 250.215 119.065 248.615 130.665 247.415C147.865 245.715 173.065 244.315 183.465 228.015C184.365 226.615 182.565 224.615 181.065 225.615C172.465 231.615 164.465 236.415 154.165 238.915C143.065 241.515 131.665 241.915 120.365 243.415C100.165 246.215 81.765 254.415 66.965 268.715C68.265 269.715 69.565 270.715 70.965 271.815C84.565 247.015 102.265 220.415 129.765 209.615C140.865 205.315 153.065 202.915 164.965 203.615C177.565 204.315 187.665 208.815 196.865 217.215C197.565 217.915 199.065 216.915 198.365 215.815Z" fill="black"/>
<path d="M196.565 225.015C196.765 225.015 196.765 224.615 196.565 224.615C196.365 224.615 196.365 225.015 196.565 225.015Z" fill="black"/>
<path d="M199.165 225.815C212.065 221.515 222.265 208.415 229.365 197.415C237.665 184.615 243.665 170.715 250.465 157.115C257.765 142.515 265.565 128.515 276.065 115.915C286.865 103.015 299.265 91.5153 312.165 80.7153C319.465 74.6153 326.865 68.7153 334.465 63.1153C341.865 57.6153 350.665 52.4153 356.865 45.4153C357.865 44.3153 356.865 42.3153 355.265 42.7153C347.665 45.0153 340.465 49.7153 333.865 53.9153C326.665 58.4153 319.565 63.0153 312.665 68.0153C299.065 77.8153 286.265 88.7153 274.865 101.015C263.665 113.015 253.765 126.415 245.965 140.915C238.765 154.315 233.265 168.715 226.665 182.415C223.065 189.715 219.165 196.815 214.465 203.515C209.465 210.715 202.965 216.015 197.065 222.415C195.865 223.815 197.165 226.515 199.165 225.815Z" fill="black"/>
<path d="M238.265 164.915C232.565 176.415 228.665 188.215 225.065 200.515C223.165 206.915 220.265 210.915 214.265 213.815C210.165 215.815 202.665 217.515 201.765 222.815C201.565 223.715 201.865 224.715 202.765 225.215C207.565 228.015 214.165 223.215 218.465 221.015C224.065 218.115 227.965 214.515 230.065 208.315C232.165 201.915 232.365 194.715 233.765 188.115C235.265 180.415 237.165 172.815 239.565 165.415C239.665 164.715 238.565 164.215 238.265 164.915Z" fill="black"/>
<path d="M220.965 77.6153C217.765 79.0153 209.665 75.9153 207.665 73.3153C201.965 66.0153 213.965 54.7153 219.265 51.3153C233.465 42.2153 255.765 43.9153 261.165 62.1153C266.065 78.6153 261.865 94.9153 256.365 110.815C250.965 126.415 241.865 142.815 243.365 159.715C243.565 161.715 246.465 162.415 247.065 160.215C249.465 151.315 251.865 142.415 255.265 133.815C258.565 125.415 262.665 117.315 266.065 108.915C272.165 93.8153 275.865 74.4153 268.465 59.1153C261.465 44.7153 246.265 40.0153 231.165 42.9153C217.565 45.6153 203.465 55.2153 201.565 69.8153C200.565 76.9153 202.065 84.6153 209.365 87.6153C216.265 90.5153 223.065 88.1152 225.865 81.2152C227.065 78.3152 223.265 76.6153 220.965 77.6153Z" fill="black"/>
<path d="M296.265 98.0153C300.765 92.6153 305.065 88.7153 312.065 86.8153C319.765 84.7153 327.865 85.4153 335.665 86.1153C352.265 87.6153 368.665 90.1153 384.965 93.3153C384.765 91.7153 384.565 90.1153 384.365 88.5153C369.765 96.2153 355.265 105.415 339.665 111.015C331.265 114.015 322.565 115.415 314.365 111.015C307.365 107.215 301.265 101.915 300.565 93.6153C300.465 92.2153 298.465 91.3153 297.665 92.8153C294.065 99.7153 299.665 106.915 304.865 111.115C312.065 116.915 320.265 120.215 329.565 119.115C339.265 118.015 348.265 113.415 356.765 108.915C366.865 103.615 376.865 98.3153 386.865 92.9153C388.765 91.9153 388.465 88.6153 386.265 88.1153C367.765 84.6153 348.865 82.1153 330.065 81.3153C318.165 80.8153 298.165 82.5153 294.865 97.1153C294.765 97.9153 295.765 98.6153 296.265 98.0153Z" fill="black"/>
<path d="M366.065 96.1153C350.265 94.7153 334.465 93.0153 318.665 91.7153C306.565 90.7153 291.965 88.6153 282.065 97.1153C280.665 98.3153 282.165 100.315 283.665 99.9153C289.965 98.5153 296.265 97.1153 302.765 96.8153C309.365 96.5153 316.065 96.8153 322.665 96.8153C337.165 96.9153 351.665 96.7153 366.165 96.8153C366.565 96.8153 366.565 96.1153 366.065 96.1153Z" fill="black"/>
<path d="M318.665 12.6153C307.965 21.4153 301.265 33.4153 297.865 46.7153C294.065 61.6153 293.865 79.2153 298.065 94.0153C298.765 96.3153 302.465 96.0153 302.365 93.4153C301.865 78.3153 299.665 63.9153 302.265 48.8153C304.465 35.7153 310.065 22.9153 318.965 12.9153C319.165 12.7153 318.865 12.4153 318.665 12.6153Z" fill="black"/>
<path d="M317.765 14.9153C318.165 22.4153 320.065 29.2153 318.965 36.8153C317.865 44.0153 314.865 50.5153 311.165 56.7153C307.965 62.1153 304.465 67.2153 301.465 72.7153C299.065 77.1153 295.865 82.8153 297.265 87.9153C297.465 88.8153 298.765 89.3153 299.465 88.5153C303.265 83.9153 304.765 77.1153 307.765 71.9153C311.265 65.8153 315.365 60.0153 318.265 53.7153C323.365 42.7153 326.265 25.3153 318.665 14.7153C318.465 14.2153 317.665 14.3153 317.765 14.9153Z" fill="black"/>
<path d="M324.365 63.2153C323.565 63.9153 322.765 64.6153 322.065 65.4153C320.865 66.7153 322.865 68.6153 323.965 67.3153C328.365 62.0153 331.565 55.8153 336.165 50.5153C340.865 45.0153 346.165 40.0153 351.865 35.4153C364.165 25.4153 378.465 18.0153 393.265 12.6153C400.465 10.0153 407.765 7.71529 415.165 6.01529C417.365 5.51529 420.665 4.71529 420.165 7.71529C419.965 9.21529 417.865 11.2153 416.965 12.4153C414.165 15.9153 411.265 19.3153 408.265 22.6153C397.565 34.3153 386.365 46.9153 372.665 55.1153C357.165 64.3153 340.465 66.3153 322.865 65.6153C320.165 65.5153 319.565 69.8153 322.265 70.4153C339.065 74.2153 357.865 70.0153 372.865 61.9153C389.365 52.9153 402.565 37.8153 414.765 23.8153C418.565 19.4153 427.965 11.1153 426.065 4.41529C424.065 -2.58471 415.165 0.515281 410.465 1.81528C392.265 6.71528 374.465 13.8153 358.765 24.4153C350.965 29.6153 343.765 35.7153 337.465 42.6153C331.565 49.1153 324.265 57.4153 321.965 66.1153C322.865 66.3153 323.665 66.6153 324.565 66.8153C324.865 65.3153 324.865 64.9153 324.965 63.4153C324.765 63.2153 324.465 63.1153 324.365 63.2153Z" fill="black"/>
<path d="M395.265 18.9153C395.465 18.9153 395.465 18.6153 395.265 18.6153C395.065 18.7153 395.065 18.9153 395.265 18.9153Z" fill="black"/>
<path d="M392.365 21.8153C377.565 29.3153 363.265 37.4153 349.465 46.5153C342.665 51.0153 336.065 55.6153 329.465 60.4153C323.665 64.6153 316.165 68.8153 311.965 74.7153C311.065 76.0153 312.565 77.9153 314.065 77.4153C320.965 74.8153 326.965 68.8153 332.865 64.5153C339.465 59.7153 346.065 55.1153 352.665 50.4153C365.965 41.1153 379.265 31.8153 392.765 22.7153C393.365 22.2153 392.865 21.5153 392.365 21.8153Z" fill="black"/>
<path d="M145.565 153.515C158.365 144.015 156.365 126.415 164.365 113.915C169.565 105.715 179.065 101.315 187.765 97.6153C195.665 94.3153 205.965 91.2153 211.465 84.4153C211.965 83.8153 211.565 82.6153 210.565 82.9153C206.165 84.4153 202.065 86.7153 197.765 88.3153C193.065 90.0153 188.265 91.5153 183.565 93.3153C175.465 96.5153 167.565 100.515 161.965 107.415C151.465 120.115 154.865 139.015 143.565 151.215C142.465 152.215 144.065 154.615 145.565 153.515Z" fill="black"/>
<path d="M208.065 87.1153C197.365 90.4153 204.265 104.315 205.865 111.215C207.165 117.215 206.165 123.715 203.165 129.115C200.065 134.715 195.165 137.615 190.665 141.715C181.965 149.615 180.865 162.915 171.065 169.815C163.065 175.515 153.065 177.915 147.765 186.815C149.565 187.015 151.365 187.315 153.265 187.515C150.965 181.715 149.365 175.715 148.765 169.515C148.165 163.615 148.765 157.815 148.665 152.015C148.665 150.015 145.965 149.815 145.265 151.515C140.865 163.215 143.365 177.715 147.565 189.115C148.465 191.515 151.565 192.115 153.065 189.815C158.465 181.315 169.565 179.215 177.065 172.915C185.665 165.715 186.965 153.415 195.165 145.915C199.165 142.315 203.565 139.615 206.665 135.115C209.365 131.215 211.065 126.515 211.765 121.715C212.465 116.915 212.065 112.015 210.465 107.515C208.265 101.115 203.965 94.8153 209.165 88.6153C209.465 88.0153 208.965 86.8153 208.065 87.1153Z" fill="black"/>
<path d="M177.965 137.215C171.565 134.015 164.165 133.715 157.565 136.315C152.165 138.415 143.965 143.415 143.865 150.015C143.865 151.315 145.365 152.215 146.465 151.515C151.165 148.815 153.665 143.715 158.865 141.215C164.665 138.415 171.065 137.415 177.365 138.515C178.165 138.615 178.765 137.615 177.965 137.215Z" fill="black"/>
<path d="M177.865 123.215C169.965 121.715 157.165 125.715 153.265 133.415C152.565 134.815 153.965 136.015 155.365 135.515C159.065 133.915 161.965 130.915 165.665 129.215C169.565 127.315 173.765 126.215 177.865 124.815C178.565 124.515 178.665 123.315 177.865 123.215Z" fill="black"/>
<path d="M143.765 182.215C142.965 186.415 135.865 181.815 133.565 181.315C131.965 180.915 130.265 181.015 128.665 181.215C123.465 181.815 119.065 184.815 113.965 185.615C106.665 186.715 104.565 179.415 101.165 174.415C98.4651 170.415 95.165 167.715 90.365 167.215C91.065 168.515 91.865 169.815 92.565 171.115C96.865 161.815 104.365 154.515 113.865 150.715C119.065 148.615 124.465 147.815 129.965 148.015C136.065 148.115 142.065 149.815 148.265 149.815C149.865 149.815 150.865 147.215 149.165 146.515C126.465 136.815 98.865 146.315 88.065 168.615C87.165 170.515 88.2651 172.215 90.2651 172.515C97.5651 173.215 99.165 184.515 104.365 188.515C109.065 192.115 114.565 191.215 119.765 189.215C122.665 188.115 125.465 186.615 128.465 185.915C132.765 184.915 135.665 187.615 139.665 188.015C143.065 188.315 146.365 186.015 145.265 182.315C145.165 181.515 143.965 181.415 143.765 182.215Z" fill="black"/>
<path d="M114.465 175.215C118.365 167.215 122.665 160.015 131.165 156.315C133.265 155.415 135.465 154.815 137.665 154.415C139.165 154.115 141.065 154.115 142.265 153.115C143.765 151.715 143.365 149.615 141.665 148.615C139.165 147.115 134.565 148.715 132.065 149.615C128.565 150.915 125.365 152.715 122.465 155.115C116.865 159.715 111.865 167.215 112.365 174.715C112.465 175.615 113.965 176.215 114.465 175.215Z" fill="black"/>
<path d="M128.365 171.215C129.165 167.615 130.565 164.115 132.665 161.015C134.565 158.115 137.665 156.215 139.465 153.415C140.065 152.515 139.065 151.415 138.165 151.715C134.665 152.615 131.865 156.515 130.065 159.515C127.865 163.015 126.865 166.915 126.665 171.015C126.465 172.015 128.065 172.215 128.365 171.215Z" fill="black"/>
<path d="M93.365 162.815C94.165 154.915 98.865 147.515 101.165 140.015C103.365 133.115 105.765 124.715 112.465 120.815C127.765 112.115 141.865 137.115 147.665 147.415C148.465 148.815 150.965 148.315 150.765 146.515C149.865 137.415 143.565 129.415 137.065 123.315C130.665 117.315 121.465 112.015 112.565 115.615C104.565 118.815 100.565 126.915 98.365 134.715C96.965 139.815 95.665 144.915 93.765 149.915C92.065 154.315 90.665 158.115 91.465 162.915C91.765 164.115 93.265 163.715 93.365 162.815Z" fill="black"/>
<path d="M119.165 135.415C129.565 133.215 137.365 140.115 144.365 146.815C146.965 149.315 151.065 145.215 148.365 142.815C140.265 135.715 129.365 127.615 118.365 133.515C117.165 134.015 117.965 135.715 119.165 135.415Z" fill="black"/>
<path d="M116.365 118.315C127.865 108.115 142.165 101.615 157.565 100.615C156.865 99.6153 156.165 98.7153 155.365 97.7153C153.865 104.715 152.765 111.815 151.965 119.015C151.365 124.915 149.265 133.215 151.965 138.715C152.365 139.615 153.765 139.515 154.265 138.715C156.965 133.715 155.865 126.415 156.365 120.915C157.065 113.515 158.265 106.215 159.765 98.9153C160.065 97.6153 159.165 95.9153 157.565 96.0153C141.065 97.2153 125.665 104.015 114.465 116.315C113.265 117.715 115.065 119.515 116.365 118.315Z" fill="black"/>
<path d="M155.865 101.315C162.165 97.6153 167.565 94.2153 174.965 93.0153C183.165 91.6153 191.465 93.7153 199.565 92.5153C201.665 92.2153 201.265 89.1153 199.565 88.6153C191.365 86.1153 180.465 86.9153 172.265 89.0153C165.765 90.6153 157.965 94.0153 154.765 100.215C154.265 100.915 155.065 101.815 155.865 101.315Z" fill="black"/>
<path d="M136.565 110.915C137.265 116.315 139.665 121.515 141.065 126.715C141.865 129.615 142.465 132.615 142.865 135.715C143.265 138.515 142.965 140.815 144.565 143.215C145.365 144.315 147.065 144.515 147.765 143.215C150.265 138.615 147.565 131.015 146.165 126.315C144.565 120.815 142.265 114.315 137.765 110.515C137.465 110.015 136.565 110.215 136.565 110.915Z" fill="black"/>
<path d="M143.765 57.7152C139.665 54.0152 135.165 58.0152 133.865 62.4152C131.765 70.0152 133.365 79.5153 134.365 87.1153C136.665 104.215 142.265 122.715 150.665 137.815C151.165 138.715 152.465 138.115 152.265 137.115C149.365 123.915 143.865 111.415 141.165 98.1153C139.765 91.4153 138.765 84.4152 139.065 77.5152C139.165 74.8152 139.065 60.7153 143.165 60.1153C144.265 59.9153 144.565 58.4152 143.765 57.7152Z" fill="black"/>
<path d="M101.565 81.6153C101.365 81.7153 101.265 81.8153 101.065 81.9153C100.265 81.5153 99.565 81.0153 98.765 80.6153C101.965 85.7153 108.365 88.4153 112.765 92.4153C117.665 97.0153 122.465 101.815 127.065 106.715C131.465 111.415 135.765 116.215 139.765 121.215C143.365 125.715 146.465 132.315 151.065 135.715C151.565 136.115 152.265 135.415 152.065 134.915C151.265 131.415 148.665 128.615 146.565 125.815C144.465 122.915 142.165 120.015 139.965 117.215C134.565 110.615 128.865 104.415 122.965 98.4153C117.165 92.4153 111.765 86.6152 106.365 80.2152C103.565 76.9152 97.665 74.7153 97.465 81.0153C97.365 83.6153 100.865 83.8153 101.565 81.6153Z" fill="black"/>
<path d="M195.665 139.915C192.465 152.615 197.665 164.615 203.165 175.815C206.265 182.115 209.465 188.415 211.465 195.315C212.565 199.015 213.265 202.915 213.365 206.815C213.365 210.015 212.765 212.915 213.565 216.015C213.865 217.215 215.565 217.715 216.365 216.715C220.265 212.515 219.665 206.015 218.765 200.715C217.765 194.115 215.265 187.915 212.565 181.915C206.265 168.415 198.065 155.515 197.465 140.115C197.365 139.215 195.865 138.915 195.665 139.915Z" fill="black"/>
<path d="M156.665 181.815C163.065 184.815 166.265 189.815 170.565 195.115C174.765 200.215 180.065 204.715 185.665 208.315C189.965 211.215 214.365 225.315 216.365 214.915C216.565 214.015 216.165 213.315 215.265 213.015C212.565 212.115 209.665 212.615 206.865 211.815C203.865 210.915 200.865 209.915 198.065 208.715C191.965 206.115 186.165 202.615 180.965 198.315C176.565 194.615 172.865 190.315 168.865 186.215C165.665 183.015 161.765 179.815 156.965 180.215C156.365 180.315 155.865 181.415 156.665 181.815Z" fill="black"/>
<path d="M197.765 200.615C192.965 195.415 187.865 190.415 182.565 185.815C178.365 182.215 173.265 176.415 167.865 174.915C166.765 174.615 165.665 175.915 166.365 176.915C167.865 179.415 170.165 180.615 172.465 182.415C175.365 184.615 178.165 186.815 181.065 189.015C186.465 193.115 191.865 197.315 197.265 201.415C197.565 201.715 198.065 201.015 197.765 200.615Z" fill="black"/>
<path d="M197.565 211.215C200.265 209.315 201.665 205.615 203.965 203.215C206.765 200.315 210.265 198.315 214.065 197.015C217.065 196.015 215.865 191.415 212.765 192.215C208.165 193.415 204.165 196.015 201.065 199.615C198.665 202.215 195.265 206.915 196.465 210.715C196.565 211.215 197.165 211.515 197.565 211.215Z" fill="black"/>
<path d="M188.865 184.915C186.265 181.915 183.865 178.615 181.765 175.215C180.165 172.715 179.065 168.815 176.465 167.315C175.965 167.015 174.965 167.215 174.865 167.915C174.365 171.415 177.665 175.015 179.765 177.615C182.165 180.815 185.065 183.315 188.265 185.615C188.765 186.115 189.265 185.315 188.865 184.915Z" fill="black"/>
<path d="M206.065 197.315C203.465 188.715 198.565 180.915 195.865 172.315C193.065 163.515 191.665 154.615 189.665 145.715C189.065 142.915 184.365 143.515 184.565 146.415C185.265 155.915 188.465 165.515 192.165 174.315C195.465 182.215 199.365 191.615 205.765 197.615C205.865 197.615 206.165 197.515 206.065 197.315Z" fill="black"/>
<path d="M198.265 161.615C201.365 157.315 201.965 152.815 207.965 151.515C211.965 150.715 216.165 150.815 219.765 148.815C223.365 146.715 225.065 142.515 229.065 141.015C233.865 139.215 237.465 141.115 241.665 143.415C243.865 144.615 246.265 142.215 245.065 140.015C242.665 135.815 237.465 134.015 232.765 134.115C226.465 134.215 223.065 137.515 219.065 141.815C214.465 146.815 206.865 144.815 201.565 148.715C197.465 151.615 195.765 156.615 196.565 161.415C196.665 162.315 197.865 162.215 198.265 161.615Z" fill="black"/>
<path d="M211.065 159.415C210.565 167.115 210.965 174.915 212.165 182.615C212.765 186.315 213.465 190.015 214.265 193.715C215.065 197.215 215.365 200.915 217.965 203.515C218.965 204.515 220.865 204.115 221.165 202.715C221.865 199.615 220.865 197.315 219.965 194.215C218.865 190.315 217.965 186.315 217.165 182.315C215.665 174.615 214.465 167.015 213.065 159.315C212.865 157.915 211.165 158.315 211.065 159.415Z" fill="black"/>
<path d="M220.265 166.315C218.865 173.515 218.365 180.815 217.765 188.015C217.465 191.915 217.165 195.815 216.865 199.715C216.665 202.315 216.165 204.815 217.565 207.115C218.865 209.315 222.165 209.415 223.465 207.115C223.565 206.915 223.665 206.715 223.765 206.515C224.265 205.515 224.265 204.315 223.365 203.515C223.265 203.415 223.165 203.415 223.165 203.315C222.465 202.715 221.465 202.515 220.665 203.015C220.765 202.915 220.965 202.815 221.065 202.715C221.965 203.615 222.965 204.615 223.865 205.515C222.265 192.715 223.365 179.415 222.065 166.515C221.965 165.615 220.465 165.215 220.265 166.315Z" fill="black"/>
<path d="M172.165 237.115C163.665 239.315 155.365 245.515 148.465 250.915C141.265 256.515 134.665 262.915 128.765 269.815C116.665 283.815 107.665 300.215 101.965 317.815C96.865 333.615 90.865 356.715 102.965 370.915C114.265 384.215 136.165 382.815 144.765 367.415C148.765 360.215 150.465 348.515 141.165 344.815C131.365 340.915 123.265 349.015 121.265 358.115C119.765 364.715 129.565 367.415 131.365 360.915C132.165 358.215 133.365 355.315 136.065 353.915C140.965 351.415 143.165 356.415 141.865 360.915C139.865 367.915 133.465 373.215 126.365 374.115C108.465 376.315 104.365 356.315 105.865 342.815C108.865 316.315 122.265 290.015 139.365 269.815C144.265 264.015 149.665 258.715 155.265 253.615C160.965 248.415 167.765 244.415 173.265 239.115C174.065 238.215 173.265 236.815 172.165 237.115Z" fill="black"/>
<path d="M19.465 382.515C43.565 378.015 65.665 365.815 83.065 348.515C100.965 330.615 114.365 308.315 125.365 285.615C126.065 284.215 124.165 283.115 123.265 284.415C109.265 304.315 96.965 325.415 79.965 343.015C63.065 360.515 42.165 373.515 19.465 382.315C19.165 382.315 19.265 382.615 19.465 382.515Z" fill="black"/>
<path d="M2.36503 393.215C10.165 382.515 16.365 370.615 26.565 362.015C35.765 354.215 50.2651 351.315 56.2651 364.215C57.5651 367.015 61.565 364.915 60.965 362.215C57.965 348.815 40.4651 347.915 30.7651 353.515C17.0651 361.415 7.26506 378.415 0.765055 392.315C0.365055 393.415 1.66503 394.115 2.36503 393.215Z" fill="black"/>
<path d="M0.465014 394.815C13.965 401.115 33.365 399.915 46.065 392.115C51.465 388.715 56.365 383.915 58.765 377.815C60.465 373.515 61.665 365.115 55.965 363.315C55.265 363.115 54.265 363.615 54.165 364.315C53.665 366.315 54.365 367.915 54.565 370.015C54.765 372.915 53.865 375.815 52.465 378.315C49.665 383.415 44.665 387.115 39.465 389.615C33.765 392.315 27.465 393.315 21.265 393.615C14.565 393.915 7.76503 392.515 1.16503 393.115C0.065026 393.115 -0.434986 394.415 0.465014 394.815Z" fill="black"/>
<path d="M14.265 323.015C21.165 323.515 28.365 320.615 35.065 318.915C42.265 317.115 49.565 315.215 57.065 315.315C62.765 315.415 68.765 316.615 73.865 319.215C76.365 320.515 78.665 322.115 80.465 324.115C82.365 326.215 83.465 328.615 85.765 330.215C87.165 331.115 88.665 329.915 88.765 328.515C89.365 323.015 83.165 318.115 78.965 315.415C73.665 312.015 67.265 310.215 60.965 309.715C53.265 309.115 45.365 310.715 37.965 312.915C30.065 315.315 21.065 317.615 13.765 321.715C13.365 322.115 13.665 322.915 14.265 323.015Z" fill="black"/>
<path d="M12.565 324.315C23.465 337.015 39.365 345.415 56.265 346.315C68.965 346.915 87.765 340.615 90.365 326.215C90.665 324.715 88.665 323.115 87.465 324.515C83.465 329.115 79.865 333.715 74.365 336.615C68.265 339.815 61.265 340.915 54.465 340.415C39.765 339.415 25.565 331.615 14.165 322.815C13.065 321.915 11.665 323.215 12.565 324.315Z" fill="black"/>
<path d="M15.565 322.915C17.765 325.415 21.165 325.915 24.265 326.715C28.465 327.915 32.665 328.615 36.965 329.215C45.465 330.415 54.065 330.715 62.665 331.015C70.465 331.215 78.265 331.315 85.965 330.315C92.065 329.515 101.865 328.315 105.865 323.115C106.865 321.915 106.365 319.515 104.465 319.715C100.965 320.015 97.965 321.815 94.565 322.915C91.065 324.015 87.465 324.715 83.865 325.115C76.465 326.015 68.965 326.015 61.565 326.115C53.465 326.215 45.365 326.215 37.265 325.515C33.065 325.115 28.965 324.615 24.865 323.815C21.765 323.215 18.665 321.815 15.465 322.515C15.565 322.615 15.465 322.815 15.565 322.915Z" fill="black"/>
</g>
<defs>
<clipPath id="clip0_175_7">
<rect width="426.316" height="398.854" fill="white"/>
</clipPath>
</defs>
</svg>
