<svg width="666" height="147" viewBox="0 0 666 147" fill="none" xmlns="http://www.w3.org/2000/svg">
<g clip-path="url(#clip0_175_278)">
<path d="M323.58 68.875C320.88 59.975 313.18 51.875 306.68 45.575C299.48 38.575 291.28 32.575 282.68 27.475C283.18 28.275 283.58 29.075 284.08 29.875C284.38 26.675 290.58 24.775 292.88 23.675C295.98 22.175 299.18 20.675 302.28 19.175C307.98 16.475 313.58 13.675 319.28 11.075C323.28 9.275 326.98 8.175 331.28 9.475C333.88 10.275 336.38 11.575 338.98 12.475C343.98 14.275 348.48 13.275 353.68 13.375C359.08 13.475 361.88 18.275 367.08 19.275C368.48 19.575 370.38 19.075 371.58 19.975C373.78 21.575 372.28 23.375 370.98 25.075C369.18 27.475 366.88 29.575 364.88 31.875C361.48 36.075 358.28 40.475 355.58 45.175C352.78 49.775 349.38 55.175 348.48 60.575C348.18 62.175 350.18 63.075 351.18 61.675C355.58 55.475 358.18 47.975 362.58 41.575C364.98 38.075 367.68 34.775 370.48 31.575C372.48 29.375 375.68 27.075 377.08 24.375C379.28 20.175 375.78 16.575 371.78 15.475C370.68 15.175 369.48 15.175 368.38 15.075C365.58 14.675 363.98 13.175 361.88 11.475C359.78 9.875 357.68 9.075 355.08 8.775C351.88 8.475 348.58 9.175 345.38 8.875C341.58 8.575 338.28 6.575 334.78 5.175C327.78 2.375 321.68 4.175 315.08 7.175C307.08 10.875 299.08 14.675 291.08 18.375C285.68 20.875 279.28 22.975 278.68 29.675C278.58 30.675 279.28 31.575 280.08 32.075C288.28 37.075 296.28 42.375 303.28 48.875C310.18 55.275 314.98 63.175 321.28 70.075C322.18 71.375 324.08 70.275 323.58 68.875Z" fill="black"/>
<path d="M288.78 31.975C282.28 24.575 272.38 32.275 271.78 40.375C271.48 44.875 272.88 46.575 269.38 50.675C267.78 52.575 265.88 54.175 264.38 56.275C261.08 60.675 258.78 65.975 258.58 71.575C258.38 78.075 262.48 83.175 263.08 89.375C263.48 93.975 266.08 99.275 269.98 101.975C274.68 105.175 279.08 100.575 282.88 97.975C288.78 94.075 295.28 91.475 301.18 87.775C302.58 86.875 301.68 84.775 300.08 85.075C295.88 85.875 291.98 87.775 288.28 89.775C284.18 91.875 280.48 95.175 276.38 97.075C269.58 100.275 268.38 90.575 267.58 85.975C266.88 81.475 263.78 77.975 263.28 73.475C262.78 68.675 264.68 63.775 267.38 59.875C269.68 56.575 273.18 54.175 275.28 50.675C277.18 47.475 276.18 44.575 276.18 41.175C276.28 34.575 282.08 31.075 288.18 33.275C288.78 33.375 289.18 32.475 288.78 31.975Z" fill="black"/>
<path d="M300.48 85.175C289.68 88.175 274.78 97.675 273.08 109.875C272.38 114.875 274.88 118.475 279.38 120.475C280.78 121.075 282.48 121.375 283.78 122.075C285.48 123.075 285.98 124.375 287.18 125.975C288.58 127.975 289.98 128.875 292.38 129.275C296.38 129.975 299.08 130.075 302.68 132.575C305.08 134.175 307.18 136.175 309.78 137.475C316.18 140.775 323.38 139.775 329.88 137.375C334.58 135.675 341.28 133.675 341.88 127.875C342.28 123.875 341.28 119.175 340.98 115.175C340.68 111.375 340.18 107.575 339.38 103.875C339.08 102.375 336.98 102.875 336.88 104.175C336.38 109.975 336.68 115.775 336.88 121.575C337.08 125.075 337.38 127.675 334.48 129.875C332.38 131.575 328.58 132.375 325.98 133.275C319.58 135.275 314.18 134.675 308.68 130.875C305.18 128.475 301.98 125.675 297.68 124.875C294.88 124.375 292.78 124.675 290.58 122.275C289.58 121.075 289.08 119.875 287.68 118.975C283.78 116.175 276.18 116.675 277.68 109.775C279.78 99.475 292.78 91.675 301.08 86.675C301.78 86.175 301.38 84.975 300.48 85.175Z" fill="black"/>
<path d="M355.18 51.075C360.98 43.875 366.98 38.275 376.18 35.875C378.28 35.375 380.68 34.675 382.78 34.875C386.38 35.175 387.88 37.175 389.38 40.175C391.78 44.675 394.08 49.175 396.08 53.875C398.08 58.575 399.78 63.375 400.98 68.375C401.78 71.975 404.38 82.875 399.88 84.675C397.78 85.475 393.88 84.475 391.58 84.475C388.98 84.375 386.48 84.275 383.88 84.275C378.58 84.075 373.38 83.775 368.08 84.575C366.78 84.775 366.88 86.775 368.08 87.075C375.38 88.875 383.18 88.575 390.58 88.875C394.68 89.075 402.78 91.075 405.78 86.875C408.58 82.875 407.08 74.975 406.28 70.475C405.18 63.575 402.58 57.075 399.58 50.775C396.98 45.375 394.18 37.875 389.98 33.575C386.88 30.275 381.98 31.075 377.98 31.875C368.08 33.875 357.68 40.875 354.08 50.575C353.98 50.975 354.88 51.475 355.18 51.075Z" fill="black"/>
<path d="M348.98 79.575C359.48 83.875 370.78 87.775 380.48 93.775C382.88 95.275 385.58 96.975 387.48 98.975C388.68 100.375 390.28 101.775 389.18 103.575C388.68 104.375 387.28 105.375 386.58 106.075C385.18 107.675 384.08 109.475 383.28 111.475C382.08 114.375 382.08 116.575 378.68 117.175C376.68 117.475 374.68 116.975 372.58 117.475C370.38 117.975 368.48 119.075 366.58 120.375C362.38 123.375 357.18 129.975 351.48 127.275C346.98 125.175 344.08 116.775 342.18 112.475C339.48 106.375 337.48 99.975 335.18 93.775C334.78 92.575 332.78 92.675 332.88 94.075C333.68 101.975 336.08 109.375 339.18 116.675C341.38 121.875 343.78 129.375 349.28 132.075C354.48 134.675 360.18 131.975 364.38 128.775C367.28 126.575 370.18 123.375 373.88 122.475C376.88 121.775 379.88 122.775 382.78 121.375C384.98 120.375 386.08 118.475 386.78 116.175C387.98 112.375 389.48 109.775 392.38 106.775C396.98 102.075 393.58 98.275 389.38 94.675C378.18 85.375 362.78 82.275 349.28 78.075C348.48 77.975 348.18 79.275 348.98 79.575Z" fill="black"/>
<path d="M285.38 62.275C292.88 63.475 300.28 65.375 307.48 67.975C311.18 69.275 314.78 70.775 318.28 72.475C321.28 73.975 323.98 76.175 327.48 75.975C328.88 75.875 329.58 74.575 328.98 73.375C326.18 67.875 315.18 65.075 309.68 63.575C301.78 61.475 293.78 60.875 285.58 61.375C284.98 61.375 284.78 62.175 285.38 62.275Z" fill="black"/>
<path d="M311.08 25.475C316.78 32.275 321.78 41.275 321.78 50.375C321.78 55.375 320.98 60.475 320.68 65.475C320.48 69.475 319.88 75.475 322.08 79.075C325.18 84.075 331.58 79.875 330.28 74.875C329.98 73.575 328.08 72.975 327.18 74.075C327.18 74.075 327.78 77.275 327.88 74.775C327.88 74.275 327.68 73.275 327.58 72.775C327.38 70.575 327.28 68.275 327.18 66.075C326.98 61.675 326.98 57.175 326.88 52.775C326.48 41.675 320.38 31.475 311.58 25.075C311.18 24.775 310.88 25.175 311.08 25.475Z" fill="black"/>
<path d="M345.08 21.675C337.78 28.875 333.58 38.075 330.88 47.775C328.18 57.375 325.58 69.175 326.48 79.175C326.68 81.775 330.08 83.075 331.58 80.575C331.88 80.175 332.08 79.675 332.38 79.275C333.08 78.075 332.18 76.075 330.68 76.275C330.18 76.375 329.78 76.375 329.28 76.475C330.18 77.675 331.08 78.775 331.88 79.975C334.08 70.475 333.28 60.275 334.98 50.575C336.88 40.475 340.48 31.075 346.18 22.475C346.58 21.875 345.68 21.175 345.08 21.675Z" fill="black"/>
<path d="M377.38 58.675C361.78 64.675 345.38 68.375 328.68 69.475C324.28 69.775 322.68 76.875 327.58 77.675C331.08 78.175 334.08 76.975 334.48 73.175C334.58 71.975 333.38 70.975 332.28 70.975C332.08 70.875 331.88 70.875 331.68 70.775C331.08 73.075 330.48 75.375 329.88 77.775C346.98 74.875 363.18 68.975 377.98 60.075C378.58 59.475 378.08 58.375 377.38 58.675Z" fill="black"/>
<path d="M342.38 75.375C337.08 75.875 331.78 75.575 326.38 75.775C323.28 75.875 323.28 80.375 326.38 80.575C331.98 80.975 337.68 79.075 342.68 76.575C343.28 76.275 342.98 75.275 342.38 75.375Z" fill="black"/>
<path d="M298.68 117.275C303.88 109.975 307.58 102.175 313.78 95.575C316.68 92.475 319.88 89.575 323.18 86.975C325.98 84.775 329.38 83.675 329.38 79.675C329.38 78.675 328.68 77.775 327.68 77.475C323.78 76.275 321.18 79.875 318.58 82.375C315.38 85.475 312.48 88.975 309.88 92.575C304.68 99.575 299.08 108.175 297.78 116.875C297.78 117.475 298.38 117.675 298.68 117.275Z" fill="black"/>
<path d="M313.38 116.375C317.28 111.675 319.68 105.875 322.28 100.375C325.18 94.275 327.98 88.275 331.08 82.275C332.88 78.675 329.88 75.375 326.18 75.975C324.78 76.175 322.38 75.975 323.88 73.975C325.18 72.175 323.38 70.175 321.58 70.075C316.78 69.575 313.98 74.875 315.48 79.075C317.48 84.375 323.48 85.575 328.38 84.375C326.58 82.575 324.88 80.875 323.08 79.075C321.08 85.475 318.88 91.775 316.68 98.175C314.68 103.975 312.38 109.875 311.88 115.975C311.98 116.475 312.98 116.975 313.38 116.375Z" fill="black"/>
<path d="M353.28 105.875C349.48 94.675 342.38 80.275 331.18 74.875C329.78 74.175 327.78 73.875 326.38 74.875C319.28 80.175 329.98 85.575 334.18 87.875C341.98 92.275 347.98 98.375 352.38 106.275C352.58 106.775 353.48 106.375 353.28 105.875Z" fill="black"/>
<path d="M343.78 83.875C343.68 80.675 340.48 78.375 337.78 77.275C336.08 76.575 334.28 76.075 332.48 76.075C331.68 76.075 330.88 76.175 330.08 76.375C329.48 76.475 328.98 76.575 328.48 76.775C326.98 76.875 326.98 77.275 328.28 77.975C328.58 74.375 322.68 72.675 321.18 76.075C318.98 81.075 322.98 85.575 328.28 84.775C330.78 84.375 332.88 82.775 335.48 82.775C338.18 82.775 340.08 84.475 342.58 84.975C343.08 85.075 343.78 84.575 343.78 83.875Z" fill="black"/>
<path d="M296.38 76.175C301.68 76.575 306.78 76.575 312.08 77.675C316.98 78.775 321.78 80.575 326.38 82.575C332.88 85.475 335.98 75.275 329.88 74.175C319.18 72.375 306.78 71.975 296.28 74.975C295.58 75.275 295.78 76.175 296.38 76.175Z" fill="black"/>
<path d="M353.78 37.975C351.68 37.075 349.88 37.375 347.98 38.675C346.08 39.975 345.98 42.675 347.98 43.975C351.48 46.175 354.98 44.375 356.38 40.875C356.88 39.775 356.18 38.575 355.58 37.775C349.38 30.175 342.88 44.975 341.08 48.675C338.68 53.475 336.48 58.375 334.38 63.275C332.38 67.875 329.78 72.875 329.08 77.775C328.98 78.675 330.08 79.275 330.58 78.475C334.38 72.575 336.38 65.475 339.88 59.375C341.68 56.275 343.48 53.175 345.48 50.275C346.78 48.475 354.28 40.475 350.98 38.775C351.48 39.975 351.88 41.075 352.38 42.275C352.88 41.575 353.48 40.875 353.98 40.275C354.98 39.575 354.58 38.275 353.78 37.975Z" fill="black"/>
<path d="M273.08 6.275C272.78 5.775 272.38 5.175 272.08 4.675C272.88 4.375 273.78 3.975 274.58 3.675C274.58 4.075 274.48 4.375 274.48 4.775C273.58 4.775 272.78 4.775 271.88 4.775C278.78 9.575 285.18 15.475 290.48 21.975C295.78 28.475 299.58 35.975 303.78 43.275C311.88 57.475 321.48 71.975 333.38 83.275C333.98 83.775 334.98 83.075 334.48 82.375C323.78 67.675 313.38 53.675 305.08 37.375C297.48 22.375 288.48 9.775 274.38 0.375C273.68 -0.125 272.58 -0.125 271.78 0.375C268.28 2.675 269.58 7.975 273.78 8.175C274.88 8.175 275.58 7.475 275.98 6.475C276.98 3.775 274.28 -0.0250008 271.18 1.675C268.88 2.975 269.28 6.675 271.88 7.075C272.58 7.075 273.18 6.775 273.08 6.275Z" fill="black"/>
<path d="M176.18 40.975C184.68 39.975 191.58 35.475 199.28 31.975C207.78 28.075 216.68 26.775 225.98 26.675C243.98 26.475 260.68 30.575 276.78 38.675C278.38 39.475 280.08 37.475 278.78 36.075C266.28 23.175 246.88 16.575 229.08 18.175C220.48 18.975 212.08 21.675 204.18 25.175C194.58 29.375 186.38 37.175 176.28 40.075C175.58 40.175 175.58 41.075 176.18 40.975Z" fill="black"/>
<path d="M176.08 41.175C178.18 47.775 185.98 53.775 191.38 57.775C198.38 62.975 206.18 66.975 214.38 69.975C222.38 72.875 230.68 74.675 239.18 75.375C246.68 75.975 256.38 76.675 261.48 70.175C262.68 68.675 261.18 66.675 259.48 67.475C253.08 70.375 242.88 68.875 236.08 67.975C228.88 67.075 221.68 65.275 214.78 62.675C207.88 60.175 201.28 56.775 195.18 52.775C191.88 50.575 188.58 48.375 185.48 45.875C182.98 43.875 180.58 41.275 177.68 39.975C176.88 39.675 175.78 40.275 176.08 41.175Z" fill="black"/>
<path d="M191.18 42.675C204.68 44.075 218.28 42.975 231.88 44.675C245.38 46.375 258.68 49.475 272.18 50.975C274.78 51.275 274.98 47.375 272.78 46.675C259.78 42.375 245.48 41.275 231.98 40.975C218.68 40.575 204.28 39.475 191.28 42.475C191.08 42.575 191.08 42.675 191.18 42.675Z" fill="black"/>
<path d="M182.68 142.175C197.98 134.375 207.48 118.675 217.08 105.275C222.48 97.775 228.38 90.475 236.08 85.275C243.88 79.775 251.78 78.875 260.78 76.875C262.78 76.375 262.38 73.775 260.78 73.175C253.18 70.175 243.88 73.575 237.08 77.375C228.98 81.775 222.48 88.375 216.88 95.575C204.98 110.875 196.88 128.475 181.78 141.175C181.28 141.575 182.08 142.475 182.68 142.175Z" fill="black"/>
<path d="M182.48 141.475C189.08 147.875 200.78 145.775 208.98 145.275C219.88 144.675 230.98 143.375 241.28 139.575C255.88 134.075 274.48 120.575 272.78 102.875C272.68 101.975 271.28 101.275 270.78 102.375C267.48 109.475 264.08 116.375 258.58 122.075C252.88 127.975 245.88 132.175 238.18 134.975C229.38 138.175 220.08 139.675 210.88 140.675C201.58 141.575 192.38 142.475 183.08 140.675C182.58 140.475 182.08 141.075 182.48 141.475Z" fill="black"/>
<path d="M207.18 130.875C218.48 126.475 229.38 121.075 239.68 114.575C244.78 111.375 249.58 107.975 254.18 104.175C258.58 100.575 263.98 96.775 267.08 91.875C268.28 90.075 265.98 87.775 264.08 88.875C259.58 91.575 255.98 95.975 251.88 99.475C246.98 103.675 241.98 107.775 236.88 111.575C227.48 118.675 217.38 124.875 206.88 130.275C206.78 130.575 206.88 130.975 207.18 130.875Z" fill="black"/>
<path d="M45.1803 77.375C36.9803 75.575 28.5803 77.875 20.2803 76.375C11.6803 74.875 4.2803 68.475 6.0803 58.975C10.7803 34.275 42.8803 37.775 60.7803 42.175C82.5803 47.475 102.18 58.175 122.08 68.075C140.68 77.375 160.68 84.775 181.38 87.475C192.08 88.875 202.88 89.075 213.58 87.275C223.48 85.575 235.38 81.775 241.98 73.775C242.88 72.675 242.08 70.875 240.48 71.275C235.48 72.575 230.78 74.775 225.78 76.175C220.08 77.775 214.38 79.075 208.48 79.675C197.08 80.875 185.58 79.975 174.38 77.775C151.38 73.275 129.98 63.175 108.38 54.575C86.4803 45.875 63.2803 35.875 39.3803 35.075C20.5803 34.475 1.7803 43.575 0.0802975 64.175C-1.8197 86.975 30.4803 93.875 45.8803 83.675C48.3803 82.175 48.2803 78.075 45.1803 77.375Z" fill="black"/>
<path d="M115.58 16.375C107.38 14.575 97.3803 15.375 92.8803 23.675C89.2803 30.275 91.4804 39.875 95.4804 45.775C100.78 53.475 108.88 58.275 116.98 62.575C126.18 67.375 136.58 72.375 146.98 73.575C147.98 73.675 148.48 71.975 147.48 71.575C133.08 65.075 117.68 61.275 105.28 50.975C99.8803 46.375 94.8804 39.475 97.4804 32.075C100.28 24.075 107.08 23.375 114.58 23.775C118.68 23.775 119.58 17.175 115.58 16.375Z" fill="black"/>
<path d="M147.28 110.975C159.48 99.675 172.28 91.875 188.78 88.875C191.98 88.275 190.68 83.075 187.38 83.875C171.78 87.975 155.98 97.175 146.38 110.275C146.08 110.775 146.88 111.375 147.28 110.975Z" fill="black"/>
<path d="M122.48 133.275C125.38 128.975 127.08 123.675 129.58 119.075C132.28 114.075 135.28 109.175 139.18 105.075C142.78 101.275 147.08 97.975 151.98 96.075C157.18 93.975 162.08 94.175 167.58 94.475C170.18 94.575 170.18 91.175 168.18 90.375C157.98 86.275 145.48 92.675 138.28 99.875C133.88 104.275 130.48 109.675 127.98 115.275C125.48 120.775 122.68 127.075 121.88 133.075C121.68 133.375 122.18 133.675 122.48 133.275Z" fill="black"/>
<path d="M123.08 133.875C134.48 125.375 148.68 123.675 161.28 117.775C169.48 113.875 184.78 100.075 172.78 91.375C170.98 90.075 168.78 92.575 169.78 94.375C177.58 107.075 156.78 114.875 147.88 118.175C138.58 121.675 128.78 124.875 122.18 132.675C121.48 133.275 122.28 134.475 123.08 133.875Z" fill="black"/>
<path d="M144.68 36.275C146.68 38.375 149.78 35.975 149.18 33.375C148.18 28.975 141.68 30.475 139.18 32.175C128.88 39.475 138.38 54.575 149.58 50.275C151.18 49.675 151.58 47.975 150.58 46.675C148.98 44.675 146.28 44.675 144.58 46.575C142.58 48.875 143.58 52.675 144.78 55.075C148.28 62.175 157.18 63.975 163.58 59.575C162.68 58.475 161.78 57.275 160.88 56.175C157.58 59.275 157.58 64.075 160.18 67.675C163.58 72.575 169.98 72.875 175.38 72.675C174.68 71.675 173.88 70.675 173.18 69.775C172.38 75.175 173.88 80.775 178.58 83.975C182.88 86.975 189.38 87.575 193.08 83.375C193.78 82.575 193.38 80.975 192.08 81.075C188.78 81.375 185.28 82.175 182.18 80.575C178.38 78.575 177.08 74.375 177.58 70.375C177.78 69.175 176.38 67.975 175.28 68.075C172.58 68.175 169.68 68.375 167.08 67.375C163.98 66.175 160.58 62.375 163.98 59.175C165.78 57.475 163.38 54.275 161.28 55.775C158.78 57.475 155.78 58.375 152.78 57.075C151.38 56.475 150.28 55.675 149.38 54.375C148.38 53.075 148.38 50.875 147.38 49.675C147.68 48.475 147.98 47.275 148.38 46.075C144.68 47.575 140.08 46.175 138.88 42.075C138.28 40.075 138.58 38.375 139.68 36.575C140.18 35.575 140.98 34.775 141.88 34.075C143.48 32.675 144.58 32.975 145.38 35.275C144.88 35.075 144.28 35.875 144.68 36.275Z" fill="black"/>
<path d="M489.88 40.075C479.98 37.175 472.08 29.675 462.68 25.475C454.58 21.875 445.98 18.975 437.08 18.175C419.28 16.575 399.78 23.175 387.38 36.075C386.08 37.475 387.68 39.475 389.38 38.675C405.38 30.575 422.18 26.475 440.18 26.675C448.98 26.775 457.48 27.975 465.68 31.475C473.78 34.975 480.88 39.875 489.88 40.975C490.28 41.075 490.38 40.175 489.88 40.075Z" fill="black"/>
<path d="M488.28 39.975C485.28 41.275 482.98 43.875 480.48 45.875C477.38 48.375 474.08 50.575 470.78 52.775C464.68 56.775 458.08 60.175 451.18 62.675C444.38 65.175 437.18 66.975 429.88 67.975C423.08 68.875 412.88 70.375 406.48 67.475C404.68 66.675 403.18 68.575 404.48 70.175C409.48 76.475 418.78 75.875 426.08 75.375C434.78 74.775 443.38 72.975 451.58 69.975C459.48 67.075 467.08 63.175 473.98 58.175C479.58 54.075 487.68 47.975 489.88 41.175C490.08 40.175 488.98 39.675 488.28 39.975Z" fill="black"/>
<path d="M474.68 42.475C461.68 39.475 447.28 40.575 433.98 40.975C420.38 41.375 406.08 42.475 393.18 46.675C390.98 47.375 391.18 51.275 393.78 50.975C407.28 49.475 420.58 46.375 434.08 44.675C447.58 42.975 461.28 44.075 474.78 42.675C474.78 42.675 474.78 42.575 474.68 42.475Z" fill="black"/>
<path d="M483.98 141.075C468.98 128.275 460.88 110.775 448.88 95.475C443.38 88.475 437.18 82.075 429.38 77.675C422.48 73.775 412.88 70.075 404.98 73.075C403.38 73.675 402.98 76.375 404.98 76.775C413.98 78.775 421.88 79.775 429.68 85.175C437.28 90.475 443.28 97.775 448.68 105.175C458.28 118.675 467.78 134.375 483.08 142.075C483.78 142.475 484.68 141.575 483.98 141.075Z" fill="black"/>
<path d="M482.78 140.575C472.88 142.875 462.28 141.475 452.28 140.375C441.48 139.175 430.48 136.975 420.68 131.975C412.88 127.975 405.88 122.075 400.88 114.775C395.48 106.875 393.58 98.075 392.88 88.675C392.78 87.375 391.18 87.275 390.78 88.375C382.88 107.875 401.18 128.075 417.28 136.375C427.78 141.775 439.68 143.875 451.38 144.875C460.88 145.675 475.48 148.575 483.28 141.475C483.78 141.075 483.28 140.475 482.78 140.575Z" fill="black"/>
<path d="M458.88 130.475C448.38 125.075 438.28 118.875 428.88 111.775C423.98 108.075 419.18 104.175 414.48 100.175C410.28 96.575 406.38 91.875 401.68 89.075C399.88 87.975 397.58 90.175 398.68 92.075C401.78 96.975 407.18 100.775 411.58 104.375C416.28 108.175 421.08 111.575 426.08 114.775C436.38 121.275 447.28 126.575 458.58 131.075C458.98 130.975 459.08 130.575 458.88 130.475Z" fill="black"/>
<path d="M619.78 83.775C627.48 88.875 638.28 89.175 647.08 87.175C655.68 85.175 662.88 79.175 665.08 70.375C667.08 62.375 663.68 53.475 658.68 47.275C652.78 39.875 643.48 36.475 634.28 35.575C610.88 33.175 586.78 43.275 565.48 51.575C543.58 60.075 522.08 70.475 499.28 76.175C487.08 79.275 474.48 80.875 461.88 80.175C455.38 79.775 449.18 78.675 442.88 76.975C436.88 75.375 431.18 72.775 425.18 71.275C423.68 70.875 422.78 72.675 423.68 73.775C429.48 80.875 439.58 84.575 448.28 86.575C457.68 88.675 467.48 89.075 477.08 88.275C497.58 86.675 516.98 80.075 535.58 71.875C555.98 62.875 574.88 50.975 596.38 44.475C614.28 39.075 646.08 31.575 657.28 52.475C662.48 62.175 658.88 72.375 648.38 75.675C639.28 78.475 629.68 75.375 620.48 77.375C617.58 78.075 617.48 82.175 619.78 83.775Z" fill="black"/>
<path d="M551.28 23.575C558.58 23.275 564.98 23.775 568.18 31.275C571.28 38.775 566.08 46.075 560.58 50.775C548.28 61.175 532.78 64.975 518.38 71.375C517.38 71.775 517.88 73.475 518.88 73.375C528.98 72.275 539.08 67.475 548.08 62.875C556.48 58.575 564.88 53.675 570.28 45.675C574.28 39.875 576.38 30.675 573.08 24.075C568.78 15.375 558.58 14.475 550.18 16.275C546.28 17.175 547.18 23.775 551.28 23.575Z" fill="black"/>
<path d="M519.48 110.275C509.88 97.175 494.08 87.875 478.48 83.875C475.28 83.075 473.88 88.275 477.08 88.875C493.58 91.975 506.38 99.775 518.58 110.975C518.98 111.375 519.88 110.775 519.48 110.275Z" fill="black"/>
<path d="M544.18 132.875C543.38 126.875 540.48 120.575 538.08 115.075C535.58 109.475 532.08 104.075 527.78 99.675C520.68 92.475 508.08 86.175 497.88 90.175C495.88 90.975 495.88 94.475 498.48 94.275C503.68 93.975 508.38 93.775 513.38 95.675C518.58 97.575 523.08 100.975 526.88 104.975C530.58 108.875 533.48 113.575 536.08 118.275C538.78 123.075 540.48 128.675 543.58 133.275C543.68 133.675 544.18 133.375 544.18 132.875Z" fill="black"/>
<path d="M543.78 132.675C537.18 124.875 527.38 121.675 518.08 118.175C509.18 114.875 488.38 107.075 496.18 94.375C497.28 92.575 494.98 90.175 493.18 91.375C481.18 100.075 496.38 113.875 504.68 117.775C517.28 123.775 531.48 125.475 542.88 133.875C543.58 134.475 544.38 133.275 543.78 132.675Z" fill="black"/>
<path d="M520.48 35.475C521.18 33.275 522.38 32.875 523.98 34.275C524.58 34.975 525.28 35.575 525.88 36.275C527.18 38.075 527.68 40.075 526.98 42.275C525.78 46.375 521.18 47.775 517.48 46.275C517.78 47.475 518.08 48.675 518.48 49.875C517.78 50.775 517.78 52.575 517.18 53.675C516.28 55.275 514.88 56.575 513.18 57.175C510.18 58.375 507.28 57.675 504.68 55.875C502.58 54.475 500.18 57.675 501.98 59.275C505.18 62.275 501.98 66.375 498.88 67.475C496.28 68.375 493.38 68.275 490.68 68.175C489.58 68.075 488.18 69.275 488.38 70.475C488.88 74.475 487.58 78.675 483.78 80.675C480.78 82.275 477.18 81.475 473.88 81.175C472.58 81.075 472.18 82.675 472.88 83.475C476.58 87.675 482.98 86.975 487.38 84.075C492.08 80.875 493.68 75.275 492.78 69.875C492.08 70.875 491.28 71.875 490.58 72.775C495.98 72.875 502.38 72.575 505.78 67.775C508.28 64.075 508.38 59.375 505.08 56.275C504.18 57.375 503.28 58.575 502.38 59.675C508.78 64.075 517.58 62.275 521.18 55.175C522.38 52.775 523.38 48.975 521.38 46.675C519.68 44.675 516.88 44.775 515.38 46.775C514.38 48.075 514.68 49.775 516.38 50.375C527.58 54.675 537.18 39.575 526.78 32.275C524.28 30.475 517.78 29.075 516.78 33.475C516.18 36.075 519.28 38.475 521.28 36.375C521.58 35.875 521.08 35.075 520.48 35.475Z" fill="black"/>
</g>
<defs>
<clipPath id="clip0_175_278">
<rect width="665.663" height="146.141" fill="white"/>
</clipPath>
</defs>
</svg>
