  0
SECTION
  2
ENTITIES
  0
POLYLINE
  8
ACANTHS.PLT
 62
7
 66
1
 70
1
  0
VERTEX
  8
ACANTHS.PLT
 62
7
 10
17.08410000
 20
3.00080000
  0
VERTEX
  8
ACANTHS.PLT
 62
7
 10
0.88440000
 20
3.00080000
  0
VERTEX
  8
ACANTHS.PLT
 62
7
 10
0.00000000
 20
0.00000000
  0
VERTEX
  8
ACANTHS.PLT
 62
7
 10
13.78740000
 20
0.00000000
  0
SEQEND
  0
POLYLINE
  8
ACANTHS.PLT
 62
7
 66
1
 70
1
  0
VERTEX
  8
ACANTHS.PLT
 62
7
 10
13.75260000
 20
.08800000
  0
VERTEX
  8
ACANTHS.PLT
 62
7
 10
0.11700000
 20
.08800000
  0
VERTEX
  8
ACANTHS.PLT
 62
7
 10
0.94970000
 20
2.91280000
  0
VERTEX
  8
ACANTHS.PLT
 62
7
 10
16.85570000
 20
2.91280000
  0
SEQEND
  0
POLYLINE
  8
ACANTHS.PLT
 62
7
 66
1
 70
1
  0
VERTEX
  8
ACANTHS.PLT
 62
7
 10
16.41250000
 20
2.74060000
  0
VERTEX
  8
ACANTHS.PLT
 62
7
 10
1.07740000
 20
2.74060000
  0
VERTEX
  8
ACANTHS.PLT
 62
7
 10
0.34700000
 20
0.25900000
  0
VERTEX
  8
ACANTHS.PLT
 62
7
 10
13.68670000
 20
0.25900000
  0
SEQEND
  0
POLYLINE
  8
ACANTHS.PLT
 62
7
 66
1
 70
1
  0
VERTEX
  8
ACANTHS.PLT
 62
7
 10
7.29120000
 20
2.65260000
  0
VERTEX
  8
ACANTHS.PLT
 62
7
 10
16.18470000
 20
2.65260000
  0
VERTEX
  8
ACANTHS.PLT
 62
7
 10
13.65250000
 20
0.34700000
  0
VERTEX
  8
ACANTHS.PLT
 62
7
 10
12.64050000
 20
0.34700000
  0
VERTEX
  8
ACANTHS.PLT
 62
7
 10
12.66602344
 20
0.39954219
  0
VERTEX
  8
ACANTHS.PLT
 62
7
 10
12.68628750
 20
0.45466250
  0
VERTEX
  8
ACANTHS.PLT
 62
7
 10
12.70098281
 20
0.51205156
  0
VERTEX
  8
ACANTHS.PLT
 62
7
 10
12.70980000
 20
0.57140000
  0
VERTEX
  8
ACANTHS.PLT
 62
7
 10
12.76405879
 20
0.53621719
  0
VERTEX
  8
ACANTHS.PLT
 62
7
 10
12.82108906
 20
0.50505625
  0
VERTEX
  8
ACANTHS.PLT
 62
7
 10
12.88067168
 20
0.47812344
  0
VERTEX
  8
ACANTHS.PLT
 62
7
 10
12.94258750
 20
0.45562500
  0
VERTEX
  8
ACANTHS.PLT
 62
7
 10
13.00661738
 20
0.43776719
  0
VERTEX
  8
ACANTHS.PLT
 62
7
 10
13.07254219
 20
0.42475625
  0
VERTEX
  8
ACANTHS.PLT
 62
7
 10
13.14014277
 20
0.41679844
  0
VERTEX
  8
ACANTHS.PLT
 62
7
 10
13.20920000
 20
0.41410000
  0
VERTEX
  8
ACANTHS.PLT
 62
7
 10
13.29309219
 20
0.41798438
  0
VERTEX
  8
ACANTHS.PLT
 62
7
 10
13.37461250
 20
0.42950000
  0
VERTEX
  8
ACANTHS.PLT
 62
7
 10
13.45345156
 20
0.44844063
  0
VERTEX
  8
ACANTHS.PLT
 62
7
 10
13.52930000
 20
0.47460000
  0
VERTEX
  8
ACANTHS.PLT
 62
7
 10
13.55083594
 20
0.49445156
  0
VERTEX
  8
ACANTHS.PLT
 62
7
 10
13.56711250
 20
0.51873750
  0
VERTEX
  8
ACANTHS.PLT
 62
7
 10
13.57740781
 20
0.54652969
  0
VERTEX
  8
ACANTHS.PLT
 62
7
 10
13.58100000
 20
0.57690000
  0
VERTEX
  8
ACANTHS.PLT
 62
7
 10
13.57838750
 20
0.60412500
  0
VERTEX
  8
ACANTHS.PLT
 62
7
 10
13.57000000
 20
0.62970000
  0
VERTEX
  8
ACANTHS.PLT
 62
7
 10
13.61034336
 20
0.63165454
  0
VERTEX
  8
ACANTHS.PLT
 62
7
 10
13.64957812
 20
0.63739570
  0
VERTEX
  8
ACANTHS.PLT
 62
7
 10
13.68752383
 20
0.64673979
  0
VERTEX
  8
ACANTHS.PLT
 62
7
 10
13.72400000
 20
0.65950312
  0
VERTEX
  8
ACANTHS.PLT
 62
7
 10
13.75882617
 20
0.67550200
  0
VERTEX
  8
ACANTHS.PLT
 62
7
 10
13.79182188
 20
0.69455273
  0
VERTEX
  8
ACANTHS.PLT
 62
7
 10
13.82280664
 20
0.71647163
  0
VERTEX
  8
ACANTHS.PLT
 62
7
 10
13.85160000
 20
0.74107500
  0
VERTEX
  8
ACANTHS.PLT
 62
7
 10
13.87802148
 20
0.76817915
  0
VERTEX
  8
ACANTHS.PLT
 62
7
 10
13.90189063
 20
0.79760039
  0
VERTEX
  8
ACANTHS.PLT
 62
7
 10
13.92302695
 20
0.82915503
  0
VERTEX
  8
ACANTHS.PLT
 62
7
 10
13.94125000
 20
0.86265937
  0
VERTEX
  8
ACANTHS.PLT
 62
7
 10
13.95637930
 20
0.89792974
  0
VERTEX
  8
ACANTHS.PLT
 62
7
 10
13.96823437
 20
0.93478242
  0
VERTEX
  8
ACANTHS.PLT
 62
7
 10
13.97663477
 20
0.97303374
  0
VERTEX
  8
ACANTHS.PLT
 62
7
 10
13.98140000
 20
1.01250000
  0
VERTEX
  8
ACANTHS.PLT
 62
7
 10
13.90508750
 20
1.02752187
  0
VERTEX
  8
ACANTHS.PLT
 62
7
 10
13.83125000
 20
1.04770000
  0
VERTEX
  8
ACANTHS.PLT
 62
7
 10
13.75988750
 20
1.07282812
  0
VERTEX
  8
ACANTHS.PLT
 62
7
 10
13.69100000
 20
1.10270000
  0
VERTEX
  8
ACANTHS.PLT
 62
7
 10
13.64174063
 20
1.09403750
  0
VERTEX
  8
ACANTHS.PLT
 62
7
 10
13.59145000
 20
1.08785000
  0
VERTEX
  8
ACANTHS.PLT
 62
7
 10
13.54033438
 20
1.08413750
  0
VERTEX
  8
ACANTHS.PLT
 62
7
 10
13.48860000
 20
1.08290000
  0
VERTEX
  8
ACANTHS.PLT
 62
7
 10
13.42250466
 20
1.08498049
  0
VERTEX
  8
ACANTHS.PLT
 62
7
 10
13.35753887
 20
1.09113926
  0
VERTEX
  8
ACANTHS.PLT
 62
7
 10
13.29382668
 20
1.10125222
  0
VERTEX
  8
ACANTHS.PLT
 62
7
 10
13.23149219
 20
1.11519531
  0
VERTEX
  8
ACANTHS.PLT
 62
7
 10
13.17065945
 20
1.13284446
  0
VERTEX
  8
ACANTHS.PLT
 62
7
 10
13.11145254
 20
1.15407559
  0
VERTEX
  8
ACANTHS.PLT
 62
7
 10
13.05399553
 20
1.17876462
  0
VERTEX
  8
ACANTHS.PLT
 62
7
 10
12.99841250
 20
1.20678750
  0
VERTEX
  8
ACANTHS.PLT
 62
7
 10
12.94482751
 20
1.23802014
  0
VERTEX
  8
ACANTHS.PLT
 62
7
 10
12.89336465
 20
1.27233848
  0
VERTEX
  8
ACANTHS.PLT
 62
7
 10
12.84414797
 20
1.30961843
  0
VERTEX
  8
ACANTHS.PLT
 62
7
 10
12.79730156
 20
1.34973594
  0
VERTEX
  8
ACANTHS.PLT
 62
7
 10
12.75294949
 20
1.39256692
  0
VERTEX
  8
ACANTHS.PLT
 62
7
 10
12.71121582
 20
1.43798730
  0
VERTEX
  8
ACANTHS.PLT
 62
7
 10
12.67222463
 20
1.48587302
  0
VERTEX
  8
ACANTHS.PLT
 62
7
 10
12.63610000
 20
1.53610000
  0
VERTEX
  8
ACANTHS.PLT
 62
7
 10
12.59163809
 20
1.58669355
  0
VERTEX
  8
ACANTHS.PLT
 62
7
 10
12.54337344
 20
1.63353594
  0
VERTEX
  8
ACANTHS.PLT
 62
7
 10
12.49152520
 20
1.67638223
  0
VERTEX
  8
ACANTHS.PLT
 62
7
 10
12.43631250
 20
1.71498750
  0
VERTEX
  8
ACANTHS.PLT
 62
7
 10
12.37795449
 20
1.74910684
  0
VERTEX
  8
ACANTHS.PLT
 62
7
 10
12.31667031
 20
1.77849531
  0
VERTEX
  8
ACANTHS.PLT
 62
7
 10
12.25267910
 20
1.80290801
  0
VERTEX
  8
ACANTHS.PLT
 62
7
 10
12.18620000
 20
1.82210000
  0
VERTEX
  8
ACANTHS.PLT
 62
7
 10
12.36110000
 20
1.83090000
  0
VERTEX
  8
ACANTHS.PLT
 62
7
 10
12.41418789
 20
1.79725117
  0
VERTEX
  8
ACANTHS.PLT
 62
7
 10
12.46529062
 20
1.76074063
  0
VERTEX
  8
ACANTHS.PLT
 62
7
 10
12.51427930
 20
1.72149727
  0
VERTEX
  8
ACANTHS.PLT
 62
7
 10
12.56102500
 20
1.67965000
  0
VERTEX
  8
ACANTHS.PLT
 62
7
 10
12.60539883
 20
1.63532773
  0
VERTEX
  8
ACANTHS.PLT
 62
7
 10
12.64727187
 20
1.58865937
  0
VERTEX
  8
ACANTHS.PLT
 62
7
 10
12.68651523
 20
1.53977383
  0
VERTEX
  8
ACANTHS.PLT
 62
7
 10
12.72300000
 20
1.48880000
  0
VERTEX
  8
ACANTHS.PLT
 62
7
 10
12.75375542
 20
1.45069719
  0
VERTEX
  8
ACANTHS.PLT
 62
7
 10
12.78656367
 20
1.41441035
  0
VERTEX
  8
ACANTHS.PLT
 62
7
 10
12.82133774
 20
1.38002810
  0
VERTEX
  8
ACANTHS.PLT
 62
7
 10
12.85799063
 20
1.34763906
  0
VERTEX
  8
ACANTHS.PLT
 62
7
 10
12.89643530
 20
1.31733186
  0
VERTEX
  8
ACANTHS.PLT
 62
7
 10
12.93658477
 20
1.28919512
  0
VERTEX
  8
ACANTHS.PLT
 62
7
 10
12.97835200
 20
1.26331746
  0
VERTEX
  8
ACANTHS.PLT
 62
7
 10
13.02165000
 20
1.23978750
  0
VERTEX
  8
ACANTHS.PLT
 62
7
 10
13.06639175
 20
1.21869387
  0
VERTEX
  8
ACANTHS.PLT
 62
7
 10
13.11249023
 20
1.20012520
  0
VERTEX
  8
ACANTHS.PLT
 62
7
 10
13.15985845
 20
1.18417009
  0
VERTEX
  8
ACANTHS.PLT
 62
7
 10
13.20840938
 20
1.17091719
  0
VERTEX
  8
ACANTHS.PLT
 62
7
 10
13.25805601
 20
1.16045510
  0
VERTEX
  8
ACANTHS.PLT
 62
7
 10
13.30871133
 20
1.15287246
  0
VERTEX
  8
ACANTHS.PLT
 62
7
 10
13.36028833
 20
1.14825789
  0
VERTEX
  8
ACANTHS.PLT
 62
7
 10
13.41270000
 20
1.14670000
  0
VERTEX
  8
ACANTHS.PLT
 62
7
 10
13.48232656
 20
1.14953594
  0
VERTEX
  8
ACANTHS.PLT
 62
7
 10
13.55061250
 20
1.15783750
  0
VERTEX
  8
ACANTHS.PLT
 62
7
 10
13.61704219
 20
1.17129531
  0
VERTEX
  8
ACANTHS.PLT
 62
7
 10
13.68110000
 20
1.18960000
  0
VERTEX
  8
ACANTHS.PLT
 62
7
 10
13.69940469
 20
1.23140000
  0
VERTEX
  8
ACANTHS.PLT
 62
7
 10
13.71286250
 20
1.27567500
  0
VERTEX
  8
ACANTHS.PLT
 62
7
 10
13.72116406
 20
1.32201250
  0
VERTEX
  8
ACANTHS.PLT
 62
7
 10
13.72400000
 20
1.37000000
  0
VERTEX
  8
ACANTHS.PLT
 62
7
 10
13.72056250
 20
1.42336719
  0
VERTEX
  8
ACANTHS.PLT
 62
7
 10
13.71052500
 20
1.47436250
  0
VERTEX
  8
ACANTHS.PLT
 62
7
 10
13.69430000
 20
1.52267656
  0
VERTEX
  8
ACANTHS.PLT
 62
7
 10
13.67230000
 20
1.56800000
  0
VERTEX
  8
ACANTHS.PLT
 62
7
 10
13.64510508
 20
1.54287188
  0
VERTEX
  8
ACANTHS.PLT
 62
7
 10
13.61561563
 20
1.52042500
  0
VERTEX
  8
ACANTHS.PLT
 62
7
 10
13.58401211
 20
1.50086563
  0
VERTEX
  8
ACANTHS.PLT
 62
7
 10
13.55047500
 20
1.48440000
  0
VERTEX
  8
ACANTHS.PLT
 62
7
 10
13.51518477
 20
1.47123438
  0
VERTEX
  8
ACANTHS.PLT
 62
7
 10
13.47832188
 20
1.46157500
  0
VERTEX
  8
ACANTHS.PLT
 62
7
 10
13.44006680
 20
1.45562813
  0
VERTEX
  8
ACANTHS.PLT
 62
7
 10
13.40060000
 20
1.45360000
  0
VERTEX
  8
ACANTHS.PLT
 62
7
 10
13.36587480
 20
1.45517695
  0
VERTEX
  8
ACANTHS.PLT
 62
7
 10
13.33193594
 20
1.45982188
  0
VERTEX
  8
ACANTHS.PLT
 62
7
 10
13.29895098
 20
1.46740586
  0
VERTEX
  8
ACANTHS.PLT
 62
7
 10
13.26708750
 20
1.47780000
  0
VERTEX
  8
ACANTHS.PLT
 62
7
 10
13.23651309
 20
1.49087539
  0
VERTEX
  8
ACANTHS.PLT
 62
7
 10
13.20739531
 20
1.50650313
  0
VERTEX
  8
ACANTHS.PLT
 62
7
 10
13.17990176
 20
1.52455430
  0
VERTEX
  8
ACANTHS.PLT
 62
7
 10
13.15420000
 20
1.54490000
  0
VERTEX
  8
ACANTHS.PLT
 62
7
 10
13.02797500
 20
1.59751094
  0
VERTEX
  8
ACANTHS.PLT
 62
7
 10
12.90505000
 20
1.65476250
  0
VERTEX
  8
ACANTHS.PLT
 62
7
 10
12.78542500
 20
1.71675781
  0
VERTEX
  8
ACANTHS.PLT
 62
7
 10
12.66910000
 20
1.78360000
  0
VERTEX
  8
ACANTHS.PLT
 62
7
 10
12.57229141
 20
1.85544590
  0
VERTEX
  8
ACANTHS.PLT
 62
7
 10
12.47171875
 20
1.92235469
  0
VERTEX
  8
ACANTHS.PLT
 62
7
 10
12.36753672
 20
1.98413301
  0
VERTEX
  8
ACANTHS.PLT
 62
7
 10
12.25990000
 20
2.04058750
  0
VERTEX
  8
ACANTHS.PLT
 62
7
 10
12.14896328
 20
2.09152480
  0
VERTEX
  8
ACANTHS.PLT
 62
7
 10
12.03488125
 20
2.13675156
  0
VERTEX
  8
ACANTHS.PLT
 62
7
 10
11.91780859
 20
2.17607441
  0
VERTEX
  8
ACANTHS.PLT
 62
7
 10
11.79790000
 20
2.20930000
  0
VERTEX
  8
ACANTHS.PLT
 62
7
 10
11.94671367
 20
2.17325996
  0
VERTEX
  8
ACANTHS.PLT
 62
7
 10
12.09369687
 20
2.13527344
  0
VERTEX
  8
ACANTHS.PLT
 62
7
 10
12.23887539
 20
2.09535332
  0
VERTEX
  8
ACANTHS.PLT
 62
7
 10
12.38227500
 20
2.05351250
  0
VERTEX
  8
ACANTHS.PLT
 62
7
 10
12.52392148
 20
2.00976387
  0
VERTEX
  8
ACANTHS.PLT
 62
7
 10
12.66384062
 20
1.96412031
  0
VERTEX
  8
ACANTHS.PLT
 62
7
 10
12.80205820
 20
1.91659473
  0
VERTEX
  8
ACANTHS.PLT
 62
7
 10
12.93860000
 20
1.86720000
  0
VERTEX
  8
ACANTHS.PLT
 62
7
 10
13.15909844
 20
1.78633281
  0
VERTEX
  8
ACANTHS.PLT
 62
7
 10
13.38671250
 20
1.70866250
  0
VERTEX
  8
ACANTHS.PLT
 62
7
 10
13.62154531
 20
1.63408594
  0
VERTEX
  8
ACANTHS.PLT
 62
7
 10
13.86370000
 20
1.56250000
  0
VERTEX
  8
ACANTHS.PLT
 62
7
 10
13.95620313
 20
1.53778438
  0
VERTEX
  8
ACANTHS.PLT
 62
7
 10
14.05180000
 20
1.51987500
  0
VERTEX
  8
ACANTHS.PLT
 62
7
 10
14.14987188
 20
1.50897813
  0
VERTEX
  8
ACANTHS.PLT
 62
7
 10
14.24980000
 20
1.50530000
  0
VERTEX
  8
ACANTHS.PLT
 62
7
 10
14.33083691
 20
1.50770195
  0
VERTEX
  8
ACANTHS.PLT
 62
7
 10
14.41052031
 20
1.51482188
  0
VERTEX
  8
ACANTHS.PLT
 62
7
 10
14.48873418
 20
1.52653086
  0
VERTEX
  8
ACANTHS.PLT
 62
7
 10
14.56536250
 20
1.54270000
  0
VERTEX
  8
ACANTHS.PLT
 62
7
 10
14.64028926
 20
1.56320039
  0
VERTEX
  8
ACANTHS.PLT
 62
7
 10
14.71339844
 20
1.58790313
  0
VERTEX
  8
ACANTHS.PLT
 62
7
 10
14.78457402
 20
1.61667930
  0
VERTEX
  8
ACANTHS.PLT
 62
7
 10
14.85370000
 20
1.64940000
  0
VERTEX
  8
ACANTHS.PLT
 62
7
 10
14.94581641
 20
1.69923516
  0
VERTEX
  8
ACANTHS.PLT
 62
7
 10
15.03478750
 20
1.75376250
  0
VERTEX
  8
ACANTHS.PLT
 62
7
 10
15.12045859
 20
1.81282734
  0
VERTEX
  8
ACANTHS.PLT
 62
7
 10
15.20267500
 20
1.87627500
  0
VERTEX
  8
ACANTHS.PLT
 62
7
 10
15.28128203
 20
1.94395078
  0
VERTEX
  8
ACANTHS.PLT
 62
7
 10
15.35612500
 20
2.01570000
  0
VERTEX
  8
ACANTHS.PLT
 62
7
 10
15.42704922
 20
2.09136797
  0
VERTEX
  8
ACANTHS.PLT
 62
7
 10
15.49390000
 20
2.17080000
  0
VERTEX
  8
ACANTHS.PLT
 62
7
 10
15.53724902
 20
2.22250215
  0
VERTEX
  8
ACANTHS.PLT
 62
7
 10
15.58308594
 20
2.27194844
  0
VERTEX
  8
ACANTHS.PLT
 62
7
 10
15.63132051
 20
2.31904863
  0
VERTEX
  8
ACANTHS.PLT
 62
7
 10
15.68186250
 20
2.36371250
  0
VERTEX
  8
ACANTHS.PLT
 62
7
 10
15.73462168
 20
2.40584980
  0
VERTEX
  8
ACANTHS.PLT
 62
7
 10
15.78950781
 20
2.44537031
  0
VERTEX
  8
ACANTHS.PLT
 62
7
 10
15.84643066
 20
2.48218379
  0
VERTEX
  8
ACANTHS.PLT
 62
7
 10
15.90530000
 20
2.51620000
  0
VERTEX
  8
ACANTHS.PLT
 62
7
 10
15.89050801
 20
2.54475273
  0
VERTEX
  8
ACANTHS.PLT
 62
7
 10
15.87193906
 20
2.57075312
  0
VERTEX
  8
ACANTHS.PLT
 62
7
 10
15.84994121
 20
2.59381445
  0
VERTEX
  8
ACANTHS.PLT
 62
7
 10
15.82486250
 20
2.61355000
  0
VERTEX
  8
ACANTHS.PLT
 62
7
 10
15.79705098
 20
2.62957305
  0
VERTEX
  8
ACANTHS.PLT
 62
7
 10
15.76685469
 20
2.64149688
  0
VERTEX
  8
ACANTHS.PLT
 62
7
 10
15.73462168
 20
2.64893477
  0
VERTEX
  8
ACANTHS.PLT
 62
7
 10
15.70070000
 20
2.65150000
  0
VERTEX
  8
ACANTHS.PLT
 62
7
 10
15.67650000
 20
2.65040000
  0
VERTEX
  8
ACANTHS.PLT
 62
7
 10
15.62687109
 20
2.64171172
  0
VERTEX
  8
ACANTHS.PLT
 62
7
 10
15.57976875
 20
2.62668125
  0
VERTEX
  8
ACANTHS.PLT
 62
7
 10
15.53565703
 20
2.60577266
  0
VERTEX
  8
ACANTHS.PLT
 62
7
 10
15.49500000
 20
2.57945000
  0
VERTEX
  8
ACANTHS.PLT
 62
7
 10
15.45826172
 20
2.54817734
  0
VERTEX
  8
ACANTHS.PLT
 62
7
 10
15.42590625
 20
2.51241875
  0
VERTEX
  8
ACANTHS.PLT
 62
7
 10
15.39839766
 20
2.47263828
  0
VERTEX
  8
ACANTHS.PLT
 62
7
 10
15.37620000
 20
2.42930000
  0
VERTEX
  8
ACANTHS.PLT
 62
7
 10
15.32175000
 20
2.29977500
  0
VERTEX
  8
ACANTHS.PLT
 62
7
 10
15.27390000
 20
2.16860000
  0
VERTEX
  8
ACANTHS.PLT
 62
7
 10
15.26235000
 20
2.14672031
  0
VERTEX
  8
ACANTHS.PLT
 62
7
 10
15.24502500
 20
2.12968750
  0
VERTEX
  8
ACANTHS.PLT
 62
7
 10
15.22316250
 20
2.11863594
  0
VERTEX
  8
ACANTHS.PLT
 62
7
 10
15.19800000
 20
2.11470000
  0
VERTEX
  8
ACANTHS.PLT
 62
7
 10
15.17380000
 20
2.11800000
  0
VERTEX
  8
ACANTHS.PLT
 62
7
 10
15.18122500
 20
2.17822500
  0
VERTEX
  8
ACANTHS.PLT
 62
7
 10
15.18370000
 20
2.24010000
  0
VERTEX
  8
ACANTHS.PLT
 62
7
 10
15.17971250
 20
2.31682500
  0
VERTEX
  8
ACANTHS.PLT
 62
7
 10
15.16830000
 20
2.39190000
  0
VERTEX
  8
ACANTHS.PLT
 62
7
 10
15.16236011
 20
2.41524197
  0
VERTEX
  8
ACANTHS.PLT
 62
7
 10
15.15450273
 20
2.43776699
  0
VERTEX
  8
ACANTHS.PLT
 62
7
 10
15.14482134
 20
2.45938000
  0
VERTEX
  8
ACANTHS.PLT
 62
7
 10
15.13340938
 20
2.47998594
  0
VERTEX
  8
ACANTHS.PLT
 62
7
 10
15.12036030
 20
2.49948972
  0
VERTEX
  8
ACANTHS.PLT
 62
7
 10
15.10576758
 20
2.51779629
  0
VERTEX
  8
ACANTHS.PLT
 62
7
 10
15.08972466
 20
2.53481057
  0
VERTEX
  8
ACANTHS.PLT
 62
7
 10
15.07232500
 20
2.55043750
  0
VERTEX
  8
ACANTHS.PLT
 62
7
 10
15.05366206
 20
2.56458201
  0
VERTEX
  8
ACANTHS.PLT
 62
7
 10
15.03382930
 20
2.57714902
  0
VERTEX
  8
ACANTHS.PLT
 62
7
 10
15.01292017
 20
2.58804348
  0
VERTEX
  8
ACANTHS.PLT
 62
7
 10
14.99102813
 20
2.59717031
  0
VERTEX
  8
ACANTHS.PLT
 62
7
 10
14.96824663
 20
2.60443445
  0
VERTEX
  8
ACANTHS.PLT
 62
7
 10
14.94466914
 20
2.60974082
  0
VERTEX
  8
ACANTHS.PLT
 62
7
 10
14.92038911
 20
2.61299436
  0
VERTEX
  8
ACANTHS.PLT
 62
7
 10
14.89550000
 20
2.61410000
  0
VERTEX
  8
ACANTHS.PLT
 62
7
 10
14.85421992
 20
2.61102988
  0
VERTEX
  8
ACANTHS.PLT
 62
7
 10
14.81482188
 20
2.60212031
  0
VERTEX
  8
ACANTHS.PLT
 62
7
 10
14.77774414
 20
2.58782246
  0
VERTEX
  8
ACANTHS.PLT
 62
7
 10
14.74342500
 20
2.56858750
  0
VERTEX
  8
ACANTHS.PLT
 62
7
 10
14.71230273
 20
2.54486660
  0
VERTEX
  8
ACANTHS.PLT
 62
7
 10
14.68481562
 20
2.51711094
  0
VERTEX
  8
ACANTHS.PLT
 62
7
 10
14.66140195
 20
2.48577168
  0
VERTEX
  8
ACANTHS.PLT
 62
7
 10
14.64250000
 20
2.45130000
  0
VERTEX
  8
ACANTHS.PLT
 62
7
 10
14.65020000
 20
2.45130000
  0
VERTEX
  8
ACANTHS.PLT
 62
7
 10
14.67035745
 20
2.45028513
  0
VERTEX
  8
ACANTHS.PLT
 62
7
 10
14.68992676
 20
2.44730605
  0
VERTEX
  8
ACANTHS.PLT
 62
7
 10
14.70880964
 20
2.44246106
  0
VERTEX
  8
ACANTHS.PLT
 62
7
 10
14.72690781
 20
2.43584844
  0
VERTEX
  8
ACANTHS.PLT
 62
7
 10
14.74412297
 20
2.42756648
  0
VERTEX
  8
ACANTHS.PLT
 62
7
 10
14.76035684
 20
2.41771348
  0
VERTEX
  8
ACANTHS.PLT
 62
7
 10
14.77551111
 20
2.40638772
  0
VERTEX
  8
ACANTHS.PLT
 62
7
 10
14.78948750
 20
2.39368750
  0
VERTEX
  8
ACANTHS.PLT
 62
7
 10
14.80218772
 20
2.37971111
  0
VERTEX
  8
ACANTHS.PLT
 62
7
 10
14.81351348
 20
2.36455684
  0
VERTEX
  8
ACANTHS.PLT
 62
7
 10
14.82336648
 20
2.34832297
  0
VERTEX
  8
ACANTHS.PLT
 62
7
 10
14.83164844
 20
2.33110781
  0
VERTEX
  8
ACANTHS.PLT
 62
7
 10
14.83826106
 20
2.31300964
  0
VERTEX
  8
ACANTHS.PLT
 62
7
 10
14.84310605
 20
2.29412676
  0
VERTEX
  8
ACANTHS.PLT
 62
7
 10
14.84608513
 20
2.27455745
  0
VERTEX
  8
ACANTHS.PLT
 62
7
 10
14.84710000
 20
2.25440000
  0
VERTEX
  8
ACANTHS.PLT
 62
7
 10
14.84478398
 20
2.22404043
  0
VERTEX
  8
ACANTHS.PLT
 62
7
 10
14.83805938
 20
2.19508594
  0
VERTEX
  8
ACANTHS.PLT
 62
7
 10
14.82726133
 20
2.16791035
  0
VERTEX
  8
ACANTHS.PLT
 62
7
 10
14.81272500
 20
2.14288750
  0
VERTEX
  8
ACANTHS.PLT
 62
7
 10
14.79478555
 20
2.12039121
  0
VERTEX
  8
ACANTHS.PLT
 62
7
 10
14.77377813
 20
2.10079531
  0
VERTEX
  8
ACANTHS.PLT
 62
7
 10
14.75003789
 20
2.08447363
  0
VERTEX
  8
ACANTHS.PLT
 62
7
 10
14.72390000
 20
2.07180000
  0
VERTEX
  8
ACANTHS.PLT
 62
7
 10
14.65424980
 20
2.04572441
  0
VERTEX
  8
ACANTHS.PLT
 62
7
 10
14.58311719
 20
2.02283281
  0
VERTEX
  8
ACANTHS.PLT
 62
7
 10
14.51056660
 20
2.00321543
  0
VERTEX
  8
ACANTHS.PLT
 62
7
 10
14.43666250
 20
1.98696250
  0
VERTEX
  8
ACANTHS.PLT
 62
7
 10
14.36146934
 20
1.97416426
  0
VERTEX
  8
ACANTHS.PLT
 62
7
 10
14.28505156
 20
1.96491094
  0
VERTEX
  8
ACANTHS.PLT
 62
7
 10
14.20747363
 20
1.95929277
  0
VERTEX
  8
ACANTHS.PLT
 62
7
 10
14.12880000
 20
1.95740000
  0
VERTEX
  8
ACANTHS.PLT
 62
7
 10
14.02966250
 20
1.96056250
  0
VERTEX
  8
ACANTHS.PLT
 62
7
 10
13.93300000
 20
1.96950000
  0
VERTEX
  8
ACANTHS.PLT
 62
7
 10
13.68883438
 20
2.00207031
  0
VERTEX
  8
ACANTHS.PLT
 62
7
 10
13.44982500
 20
2.04031250
  0
VERTEX
  8
ACANTHS.PLT
 62
7
 10
13.21617813
 20
2.08412344
  0
VERTEX
  8
ACANTHS.PLT
 62
7
 10
12.98810000
 20
2.13340000
  0
VERTEX
  8
ACANTHS.PLT
 62
7
 10
12.85568965
 20
2.17387871
  0
VERTEX
  8
ACANTHS.PLT
 62
7
 10
12.72164219
 20
2.21199844
  0
VERTEX
  8
ACANTHS.PLT
 62
7
 10
12.58597051
 20
2.24777207
  0
VERTEX
  8
ACANTHS.PLT
 62
7
 10
12.44868750
 20
2.28121250
  0
VERTEX
  8
ACANTHS.PLT
 62
7
 10
12.30980605
 20
2.31233262
  0
VERTEX
  8
ACANTHS.PLT
 62
7
 10
12.16933906
 20
2.34114531
  0
VERTEX
  8
ACANTHS.PLT
 62
7
 10
12.02729941
 20
2.36766348
  0
VERTEX
  8
ACANTHS.PLT
 62
7
 10
11.88370000
 20
2.39190000
  0
VERTEX
  8
ACANTHS.PLT
 62
7
 10
11.72779219
 20
2.41515039
  0
VERTEX
  8
ACANTHS.PLT
 62
7
 10
11.57033750
 20
2.43538437
  0
VERTEX
  8
ACANTHS.PLT
 62
7
 10
11.41143906
 20
2.45257617
  0
VERTEX
  8
ACANTHS.PLT
 62
7
 10
11.25120000
 20
2.46670000
  0
VERTEX
  8
ACANTHS.PLT
 62
7
 10
11.08972344
 20
2.47773008
  0
VERTEX
  8
ACANTHS.PLT
 62
7
 10
10.92711250
 20
2.48564062
  0
VERTEX
  8
ACANTHS.PLT
 62
7
 10
10.76347031
 20
2.49040586
  0
VERTEX
  8
ACANTHS.PLT
 62
7
 10
10.59890000
 20
2.49200000
  0
VERTEX
  8
ACANTHS.PLT
 62
7
 10
10.52960000
 20
2.49200000
  0
VERTEX
  8
ACANTHS.PLT
 62
7
 10
10.40852158
 20
2.48850959
  0
VERTEX
  8
ACANTHS.PLT
 62
7
 10
10.28872578
 20
2.48016426
  0
VERTEX
  8
ACANTHS.PLT
 62
7
 10
10.17030928
 20
2.46705906
  0
VERTEX
  8
ACANTHS.PLT
 62
7
 10
10.05336875
 20
2.44928906
  0
VERTEX
  8
ACANTHS.PLT
 62
7
 10
9.93800088
 20
2.42694934
  0
VERTEX
  8
ACANTHS.PLT
 62
7
 10
9.82430234
 20
2.40013496
  0
VERTEX
  8
ACANTHS.PLT
 62
7
 10
9.71236982
 20
2.36894099
  0
VERTEX
  8
ACANTHS.PLT
 62
7
 10
9.60230000
 20
2.33346250
  0
VERTEX
  8
ACANTHS.PLT
 62
7
 10
9.49418955
 20
2.29379456
  0
VERTEX
  8
ACANTHS.PLT
 62
7
 10
9.38813516
 20
2.25003223
  0
VERTEX
  8
ACANTHS.PLT
 62
7
 10
9.28423350
 20
2.20227058
  0
VERTEX
  8
ACANTHS.PLT
 62
7
 10
9.18258125
 20
2.15060469
  0
VERTEX
  8
ACANTHS.PLT
 62
7
 10
9.08327510
 20
2.09512961
  0
VERTEX
  8
ACANTHS.PLT
 62
7
 10
8.98641172
 20
2.03594043
  0
VERTEX
  8
ACANTHS.PLT
 62
7
 10
8.89208779
 20
1.97313220
  0
VERTEX
  8
ACANTHS.PLT
 62
7
 10
8.80040000
 20
1.90680000
  0
VERTEX
  8
ACANTHS.PLT
 62
7
 10
8.93721250
 20
1.77150000
  0
VERTEX
  8
ACANTHS.PLT
 62
7
 10
9.06660000
 20
1.62960000
  0
VERTEX
  8
ACANTHS.PLT
 62
7
 10
9.12455625
 20
1.66773906
  0
VERTEX
  8
ACANTHS.PLT
 62
7
 10
9.18457500
 20
1.70288750
  0
VERTEX
  8
ACANTHS.PLT
 62
7
 10
9.24665625
 20
1.73494219
  0
VERTEX
  8
ACANTHS.PLT
 62
7
 10
9.31080000
 20
1.76380000
  0
VERTEX
  8
ACANTHS.PLT
 62
7
 10
9.39348691
 20
1.79611035
  0
VERTEX
  8
ACANTHS.PLT
 62
7
 10
9.47812031
 20
1.82448906
  0
VERTEX
  8
ACANTHS.PLT
 62
7
 10
9.56458418
 20
1.84882012
  0
VERTEX
  8
ACANTHS.PLT
 62
7
 10
9.65276250
 20
1.86898750
  0
VERTEX
  8
ACANTHS.PLT
 62
7
 10
9.74253926
 20
1.88487520
  0
VERTEX
  8
ACANTHS.PLT
 62
7
 10
9.83379844
 20
1.89636719
  0
VERTEX
  8
ACANTHS.PLT
 62
7
 10
9.92642402
 20
1.90334746
  0
VERTEX
  8
ACANTHS.PLT
 62
7
 10
10.02030000
 20
1.90570000
  0
VERTEX
  8
ACANTHS.PLT
 62
7
 10
10.11618691
 20
1.90324648
  0
VERTEX
  8
ACANTHS.PLT
 62
7
 10
10.21072031
 20
1.89597188
  0
VERTEX
  8
ACANTHS.PLT
 62
7
 10
10.30378418
 20
1.88400508
  0
VERTEX
  8
ACANTHS.PLT
 62
7
 10
10.39526250
 20
1.86747500
  0
VERTEX
  8
ACANTHS.PLT
 62
7
 10
10.48503926
 20
1.84651055
  0
VERTEX
  8
ACANTHS.PLT
 62
7
 10
10.57299844
 20
1.82124063
  0
VERTEX
  8
ACANTHS.PLT
 62
7
 10
10.65902402
 20
1.79179414
  0
VERTEX
  8
ACANTHS.PLT
 62
7
 10
10.74300000
 20
1.75830000
  0
VERTEX
  8
ACANTHS.PLT
 62
7
 10
10.80102930
 20
1.74322656
  0
VERTEX
  8
ACANTHS.PLT
 62
7
 10
10.85702188
 20
1.72371875
  0
VERTEX
  8
ACANTHS.PLT
 62
7
 10
10.91079727
 20
1.69998281
  0
VERTEX
  8
ACANTHS.PLT
 62
7
 10
10.96217500
 20
1.67222500
  0
VERTEX
  8
ACANTHS.PLT
 62
7
 10
11.01097461
 20
1.64065156
  0
VERTEX
  8
ACANTHS.PLT
 62
7
 10
11.05701563
 20
1.60546875
  0
VERTEX
  8
ACANTHS.PLT
 62
7
 10
11.10011758
 20
1.56688281
  0
VERTEX
  8
ACANTHS.PLT
 62
7
 10
11.14010000
 20
1.52510000
  0
VERTEX
  8
ACANTHS.PLT
 62
7
 10
11.16353945
 20
1.48866895
  0
VERTEX
  8
ACANTHS.PLT
 62
7
 10
11.18427188
 20
1.45042031
  0
VERTEX
  8
ACANTHS.PLT
 62
7
 10
11.20216836
 20
1.41049590
  0
VERTEX
  8
ACANTHS.PLT
 62
7
 10
11.21710000
 20
1.36903750
  0
VERTEX
  8
ACANTHS.PLT
 62
7
 10
11.22893789
 20
1.32618691
  0
VERTEX
  8
ACANTHS.PLT
 62
7
 10
11.23755312
 20
1.28208594
  0
VERTEX
  8
ACANTHS.PLT
 62
7
 10
11.24281680
 20
1.23687637
  0
VERTEX
  8
ACANTHS.PLT
 62
7
 10
11.24460000
 20
1.19070000
  0
VERTEX
  8
ACANTHS.PLT
 62
7
 10
11.24271797
 20
1.14333770
  0
VERTEX
  8
ACANTHS.PLT
 62
7
 10
11.23717500
 20
1.09704531
  0
VERTEX
  8
ACANTHS.PLT
 62
7
 10
11.22812578
 20
1.05196465
  0
VERTEX
  8
ACANTHS.PLT
 62
7
 10
11.21572500
 20
1.00823750
  0
VERTEX
  8
ACANTHS.PLT
 62
7
 10
11.20012734
 20
0.96600566
  0
VERTEX
  8
ACANTHS.PLT
 62
7
 10
11.18148750
 20
0.92541094
  0
VERTEX
  8
ACANTHS.PLT
 62
7
 10
11.15996016
 20
0.88659512
  0
VERTEX
  8
ACANTHS.PLT
 62
7
 10
11.13570000
 20
0.84970000
  0
VERTEX
  8
ACANTHS.PLT
 62
7
 10
11.09968145
 20
0.80481055
  0
VERTEX
  8
ACANTHS.PLT
 62
7
 10
11.05875156
 20
0.76448437
  0
VERTEX
  8
ACANTHS.PLT
 62
7
 10
11.01336152
 20
0.72915977
  0
VERTEX
  8
ACANTHS.PLT
 62
7
 10
10.96396250
 20
0.69927500
  0
VERTEX
  8
ACANTHS.PLT
 62
7
 10
10.91100566
 20
0.67526836
  0
VERTEX
  8
ACANTHS.PLT
 62
7
 10
10.85494219
 20
0.65757812
  0
VERTEX
  8
ACANTHS.PLT
 62
7
 10
10.79622324
 20
0.64664258
  0
VERTEX
  8
ACANTHS.PLT
 62
7
 10
10.73530000
 20
0.64290000
  0
VERTEX
  8
ACANTHS.PLT
 62
7
 10
10.70006562
 20
0.64429219
  0
VERTEX
  8
ACANTHS.PLT
 62
7
 10
10.66545000
 20
0.64826250
  0
VERTEX
  8
ACANTHS.PLT
 62
7
 10
10.63165937
 20
0.65450156
  0
VERTEX
  8
ACANTHS.PLT
 62
7
 10
10.59890000
 20
0.66270000
  0
VERTEX
  8
ACANTHS.PLT
 62
7
 10
10.55558965
 20
0.67893574
  0
VERTEX
  8
ACANTHS.PLT
 62
7
 10
10.51600469
 20
0.70162969
  0
VERTEX
  8
ACANTHS.PLT
 62
7
 10
10.48077676
 20
0.73012441
  0
VERTEX
  8
ACANTHS.PLT
 62
7
 10
10.45053750
 20
0.76376250
  0
VERTEX
  8
ACANTHS.PLT
 62
7
 10
10.42591855
 20
0.80188652
  0
VERTEX
  8
ACANTHS.PLT
 62
7
 10
10.40755156
 20
0.84383906
  0
VERTEX
  8
ACANTHS.PLT
 62
7
 10
10.39606816
 20
0.88896270
  0
VERTEX
  8
ACANTHS.PLT
 62
7
 10
10.39210000
 20
0.93660000
  0
VERTEX
  8
ACANTHS.PLT
 62
7
 10
10.39514219
 20
0.97925938
  0
VERTEX
  8
ACANTHS.PLT
 62
7
 10
10.40406250
 20
1.01965000
  0
VERTEX
  8
ACANTHS.PLT
 62
7
 10
10.41855156
 20
1.05756563
  0
VERTEX
  8
ACANTHS.PLT
 62
7
 10
10.43830000
 20
1.09280000
  0
VERTEX
  8
ACANTHS.PLT
 62
7
 10
10.45316289
 20
1.11292441
  0
VERTEX
  8
ACANTHS.PLT
 62
7
 10
10.47037187
 20
1.13107656
  0
VERTEX
  8
ACANTHS.PLT
 62
7
 10
10.48969492
 20
1.14703730
  0
VERTEX
  8
ACANTHS.PLT
 62
7
 10
10.51090000
 20
1.16058750
  0
VERTEX
  8
ACANTHS.PLT
 62
7
 10
10.53375508
 20
1.17150801
  0
VERTEX
  8
ACANTHS.PLT
 62
7
 10
10.55802812
 20
1.17957969
  0
VERTEX
  8
ACANTHS.PLT
 62
7
 10
10.58348711
 20
1.18458340
  0
VERTEX
  8
ACANTHS.PLT
 62
7
 10
10.60990000
 20
1.18630000
  0
VERTEX
  8
ACANTHS.PLT
 62
7
 10
10.63086902
 20
1.18523491
  0
VERTEX
  8
ACANTHS.PLT
 62
7
 10
10.65122090
 20
1.18211055
  0
VERTEX
  8
ACANTHS.PLT
 62
7
 10
10.67085413
 20
1.17703325
  0
VERTEX
  8
ACANTHS.PLT
 62
7
 10
10.68966719
 20
1.17010938
  0
VERTEX
  8
ACANTHS.PLT
 62
7
 10
10.70755857
 20
1.16144526
  0
VERTEX
  8
ACANTHS.PLT
 62
7
 10
10.72442676
 20
1.15114727
  0
VERTEX
  8
ACANTHS.PLT
 62
7
 10
10.74017024
 20
1.13932173
  0
VERTEX
  8
ACANTHS.PLT
 62
7
 10
10.75468750
 20
1.12607500
  0
VERTEX
  8
ACANTHS.PLT
 62
7
 10
10.76787703
 20
1.11151343
  0
VERTEX
  8
ACANTHS.PLT
 62
7
 10
10.77963730
 20
1.09574336
  0
VERTEX
  8
ACANTHS.PLT
 62
7
 10
10.78986682
 20
1.07887114
  0
VERTEX
  8
ACANTHS.PLT
 62
7
 10
10.79846406
 20
1.06100313
  0
VERTEX
  8
ACANTHS.PLT
 62
7
 10
10.80532751
 20
1.04224565
  0
VERTEX
  8
ACANTHS.PLT
 62
7
 10
10.81035566
 20
1.02270508
  0
VERTEX
  8
ACANTHS.PLT
 62
7
 10
10.81344700
 20
1.00248774
  0
VERTEX
  8
ACANTHS.PLT
 62
7
 10
10.81450000
 20
0.98170000
  0
VERTEX
  8
ACANTHS.PLT
 62
7
 10
10.81340000
 20
0.96080000
  0
VERTEX
  8
ACANTHS.PLT
 62
7
 10
10.84847109
 20
0.97044648
  0
VERTEX
  8
ACANTHS.PLT
 62
7
 10
10.88070625
 20
0.98579063
  0
VERTEX
  8
ACANTHS.PLT
 62
7
 10
10.90953828
 20
1.00623945
  0
VERTEX
  8
ACANTHS.PLT
 62
7
 10
10.93440000
 20
1.03120000
  0
VERTEX
  8
ACANTHS.PLT
 62
7
 10
10.95472422
 20
1.06007930
  0
VERTEX
  8
ACANTHS.PLT
 62
7
 10
10.96994375
 20
1.09228437
  0
VERTEX
  8
ACANTHS.PLT
 62
7
 10
10.97949141
 20
1.12722227
  0
VERTEX
  8
ACANTHS.PLT
 62
7
 10
10.98280000
 20
1.16430000
  0
VERTEX
  8
ACANTHS.PLT
 62
7
 10
10.98056562
 20
1.19563281
  0
VERTEX
  8
ACANTHS.PLT
 62
7
 10
10.97400000
 20
1.22521250
  0
VERTEX
  8
ACANTHS.PLT
 62
7
 10
10.96330937
 20
1.25293594
  0
VERTEX
  8
ACANTHS.PLT
 62
7
 10
10.94870000
 20
1.27870000
  0
VERTEX
  8
ACANTHS.PLT
 62
7
 10
10.93103796
 20
1.30372285
  0
VERTEX
  8
ACANTHS.PLT
 62
7
 10
10.91192090
 20
1.32759844
  0
VERTEX
  8
ACANTHS.PLT
 62
7
 10
10.89141487
 20
1.35026230
  0
VERTEX
  8
ACANTHS.PLT
 62
7
 10
10.86958594
 20
1.37165000
  0
VERTEX
  8
ACANTHS.PLT
 62
7
 10
10.84650017
 20
1.39169707
  0
VERTEX
  8
ACANTHS.PLT
 62
7
 10
10.82222363
 20
1.41033906
  0
VERTEX
  8
ACANTHS.PLT
 62
7
 10
10.79682239
 20
1.42751152
  0
VERTEX
  8
ACANTHS.PLT
 62
7
 10
10.77036250
 20
1.44315000
  0
VERTEX
  8
ACANTHS.PLT
 62
7
 10
10.74291003
 20
1.45719004
  0
VERTEX
  8
ACANTHS.PLT
 62
7
 10
10.71453105
 20
1.46956719
  0
VERTEX
  8
ACANTHS.PLT
 62
7
 10
10.68529163
 20
1.48021699
  0
VERTEX
  8
ACANTHS.PLT
 62
7
 10
10.65525781
 20
1.48907500
  0
VERTEX
  8
ACANTHS.PLT
 62
7
 10
10.62449568
 20
1.49607676
  0
VERTEX
  8
ACANTHS.PLT
 62
7
 10
10.59307129
 20
1.50115781
  0
VERTEX
  8
ACANTHS.PLT
 62
7
 10
10.56105071
 20
1.50425371
  0
VERTEX
  8
ACANTHS.PLT
 62
7
 10
10.52850000
 20
1.50530000
  0
VERTEX
  8
ACANTHS.PLT
 62
7
 10
10.48521543
 20
1.50346953
  0
VERTEX
  8
ACANTHS.PLT
 62
7
 10
10.44292344
 20
1.49808125
  0
VERTEX
  8
ACANTHS.PLT
 62
7
 10
10.40179160
 20
1.48928984
  0
VERTEX
  8
ACANTHS.PLT
 62
7
 10
10.36198750
 20
1.47725000
  0
VERTEX
  8
ACANTHS.PLT
 62
7
 10
10.32367871
 20
1.46211641
  0
VERTEX
  8
ACANTHS.PLT
 62
7
 10
10.28703281
 20
1.44404375
  0
VERTEX
  8
ACANTHS.PLT
 62
7
 10
10.25221738
 20
1.42318672
  0
VERTEX
  8
ACANTHS.PLT
 62
7
 10
10.21940000
 20
1.39970000
  0
VERTEX
  8
ACANTHS.PLT
 62
7
 10
10.19986990
 20
1.43371943
  0
VERTEX
  8
ACANTHS.PLT
 62
7
 10
10.17845293
 20
1.46643047
  0
VERTEX
  8
ACANTHS.PLT
 62
7
 10
10.15522161
 20
1.49776221
  0
VERTEX
  8
ACANTHS.PLT
 62
7
 10
10.13024844
 20
1.52764375
  0
VERTEX
  8
ACANTHS.PLT
 62
7
 10
10.10360593
 20
1.55600420
  0
VERTEX
  8
ACANTHS.PLT
 62
7
 10
10.07536660
 20
1.58277266
  0
VERTEX
  8
ACANTHS.PLT
 62
7
 10
10.04560295
 20
1.60787822
  0
VERTEX
  8
ACANTHS.PLT
 62
7
 10
10.01438750
 20
1.63125000
  0
VERTEX
  8
ACANTHS.PLT
 62
7
 10
9.98179275
 20
1.65281709
  0
VERTEX
  8
ACANTHS.PLT
 62
7
 10
9.94789121
 20
1.67250859
  0
VERTEX
  8
ACANTHS.PLT
 62
7
 10
9.91275540
 20
1.69025361
  0
VERTEX
  8
ACANTHS.PLT
 62
7
 10
9.87645781
 20
1.70598125
  0
VERTEX
  8
ACANTHS.PLT
 62
7
 10
9.83907097
 20
1.71962061
  0
VERTEX
  8
ACANTHS.PLT
 62
7
 10
9.80066738
 20
1.73110078
  0
VERTEX
  8
ACANTHS.PLT
 62
7
 10
9.76131956
 20
1.74035088
  0
VERTEX
  8
ACANTHS.PLT
 62
7
 10
9.72110000
 20
1.74730000
  0
VERTEX
  8
ACANTHS.PLT
 62
7
 10
9.68810000
 20
1.74950000
  0
VERTEX
  8
ACANTHS.PLT
 62
7
 10
9.66447712
 20
1.74833259
  0
VERTEX
  8
ACANTHS.PLT
 62
7
 10
9.64153262
 20
1.74490449
  0
VERTEX
  8
ACANTHS.PLT
 62
7
 10
9.61937766
 20
1.73932688
  0
VERTEX
  8
ACANTHS.PLT
 62
7
 10
9.59812344
 20
1.73171094
  0
VERTEX
  8
ACANTHS.PLT
 62
7
 10
9.57788113
 20
1.72216785
  0
VERTEX
  8
ACANTHS.PLT
 62
7
 10
9.55876191
 20
1.71080879
  0
VERTEX
  8
ACANTHS.PLT
 62
7
 10
9.54087698
 20
1.69774495
  0
VERTEX
  8
ACANTHS.PLT
 62
7
 10
9.52433750
 20
1.68308750
  0
VERTEX
  8
ACANTHS.PLT
 62
7
 10
9.50925466
 20
1.66694763
  0
VERTEX
  8
ACANTHS.PLT
 62
7
 10
9.49573965
 20
1.64943652
  0
VERTEX
  8
ACANTHS.PLT
 62
7
 10
9.48390364
 20
1.63066536
  0
VERTEX
  8
ACANTHS.PLT
 62
7
 10
9.47385781
 20
1.61074531
  0
VERTEX
  8
ACANTHS.PLT
 62
7
 10
9.46571335
 20
1.58978757
  0
VERTEX
  8
ACANTHS.PLT
 62
7
 10
9.45958145
 20
1.56790332
  0
VERTEX
  8
ACANTHS.PLT
 62
7
 10
9.45557327
 20
1.54520374
  0
VERTEX
  8
ACANTHS.PLT
 62
7
 10
9.45380000
 20
1.52180000
  0
VERTEX
  8
ACANTHS.PLT
 62
7
 10
9.48253750
 20
1.52578750
  0
VERTEX
  8
ACANTHS.PLT
 62
7
 10
9.51210000
 20
1.52730000
  0
VERTEX
  8
ACANTHS.PLT
 62
7
 10
9.54349297
 20
1.52585195
  0
VERTEX
  8
ACANTHS.PLT
 62
7
 10
9.57406094
 20
1.52159375
  0
VERTEX
  8
ACANTHS.PLT
 62
7
 10
9.60367500
 20
1.51465430
  0
VERTEX
  8
ACANTHS.PLT
 62
7
 10
9.63220625
 20
1.50516250
  0
VERTEX
  8
ACANTHS.PLT
 62
7
 10
9.65952578
 20
1.49324727
  0
VERTEX
  8
ACANTHS.PLT
 62
7
 10
9.68550469
 20
1.47903750
  0
VERTEX
  8
ACANTHS.PLT
 62
7
 10
9.71001406
 20
1.46266211
  0
VERTEX
  8
ACANTHS.PLT
 62
7
 10
9.73292500
 20
1.44425000
  0
VERTEX
  8
ACANTHS.PLT
 62
7
 10
9.75410859
 20
1.42393008
  0
VERTEX
  8
ACANTHS.PLT
 62
7
 10
9.77343594
 20
1.40183125
  0
VERTEX
  8
ACANTHS.PLT
 62
7
 10
9.79077813
 20
1.37808242
  0
VERTEX
  8
ACANTHS.PLT
 62
7
 10
9.80600625
 20
1.35281250
  0
VERTEX
  8
ACANTHS.PLT
 62
7
 10
9.81899141
 20
1.32615039
  0
VERTEX
  8
ACANTHS.PLT
 62
7
 10
9.82960469
 20
1.29822500
  0
VERTEX
  8
ACANTHS.PLT
 62
7
 10
9.83771719
 20
1.26916523
  0
VERTEX
  8
ACANTHS.PLT
 62
7
 10
9.84320000
 20
1.23910000
  0
VERTEX
  8
ACANTHS.PLT
 62
7
 10
9.85417583
 20
1.17475698
  0
VERTEX
  8
ACANTHS.PLT
 62
7
 10
9.86887383
 20
1.11174492
  0
VERTEX
  8
ACANTHS.PLT
 62
7
 10
9.88717476
 20
1.05018306
  0
VERTEX
  8
ACANTHS.PLT
 62
7
 10
9.90895938
 20
0.99019062
  0
VERTEX
  8
ACANTHS.PLT
 62
7
 10
9.93410845
 20
0.93188687
  0
VERTEX
  8
ACANTHS.PLT
 62
7
 10
9.96250273
 20
0.87539102
  0
VERTEX
  8
ACANTHS.PLT
 62
7
 10
9.99402300
 20
0.82082231
  0
VERTEX
  8
ACANTHS.PLT
 62
7
 10
10.02855000
 20
0.76830000
  0
VERTEX
  8
ACANTHS.PLT
 62
7
 10
10.06596450
 20
0.71794331
  0
VERTEX
  8
ACANTHS.PLT
 62
7
 10
10.10614727
 20
0.66987148
  0
VERTEX
  8
ACANTHS.PLT
 62
7
 10
10.14897905
 20
0.62420376
  0
VERTEX
  8
ACANTHS.PLT
 62
7
 10
10.19434063
 20
0.58105937
  0
VERTEX
  8
ACANTHS.PLT
 62
7
 10
10.24211274
 20
0.54055757
  0
VERTEX
  8
ACANTHS.PLT
 62
7
 10
10.29217617
 20
0.50281758
  0
VERTEX
  8
ACANTHS.PLT
 62
7
 10
10.34441167
 20
0.46795864
  0
VERTEX
  8
ACANTHS.PLT
 62
7
 10
10.39870000
 20
0.43610000
  0
VERTEX
  8
ACANTHS.PLT
 62
7
 10
10.45971563
 20
0.40562656
  0
VERTEX
  8
ACANTHS.PLT
 62
7
 10
10.52382500
 20
0.38041250
  0
VERTEX
  8
ACANTHS.PLT
 62
7
 10
10.59082187
 20
0.36076719
  0
VERTEX
  8
ACANTHS.PLT
 62
7
 10
10.66050000
 20
0.34700000
  0
VERTEX
  8
ACANTHS.PLT
 62
7
 10
8.24820000
 20
0.34700000
  0
VERTEX
  8
ACANTHS.PLT
 62
7
 10
8.28357188
 20
0.38226875
  0
VERTEX
  8
ACANTHS.PLT
 62
7
 10
8.31523125
 20
0.42104375
  0
VERTEX
  8
ACANTHS.PLT
 62
7
 10
8.34286875
 20
0.46301563
  0
VERTEX
  8
ACANTHS.PLT
 62
7
 10
8.36617500
 20
0.50787500
  0
VERTEX
  8
ACANTHS.PLT
 62
7
 10
8.38484063
 20
0.55531250
  0
VERTEX
  8
ACANTHS.PLT
 62
7
 10
8.39855625
 20
0.60501875
  0
VERTEX
  8
ACANTHS.PLT
 62
7
 10
8.40701250
 20
0.65668438
  0
VERTEX
  8
ACANTHS.PLT
 62
7
 10
8.40990000
 20
0.71000000
  0
VERTEX
  8
ACANTHS.PLT
 62
7
 10
8.40785469
 20
0.75556406
  0
VERTEX
  8
ACANTHS.PLT
 62
7
 10
8.40178750
 20
0.79978750
  0
VERTEX
  8
ACANTHS.PLT
 62
7
 10
8.39180156
 20
0.84256719
  0
VERTEX
  8
ACANTHS.PLT
 62
7
 10
8.37800000
 20
0.88380000
  0
VERTEX
  8
ACANTHS.PLT
 62
7
 10
8.36784272
 20
0.90767344
  0
VERTEX
  8
ACANTHS.PLT
 62
7
 10
8.35598711
 20
0.93056719
  0
VERTEX
  8
ACANTHS.PLT
 62
7
 10
8.34251372
 20
0.95240391
  0
VERTEX
  8
ACANTHS.PLT
 62
7
 10
8.32750312
 20
0.97310625
  0
VERTEX
  8
ACANTHS.PLT
 62
7
 10
8.31103589
 20
0.99259688
  0
VERTEX
  8
ACANTHS.PLT
 62
7
 10
8.29319258
 20
1.01079844
  0
VERTEX
  8
ACANTHS.PLT
 62
7
 10
8.27405376
 20
1.02763359
  0
VERTEX
  8
ACANTHS.PLT
 62
7
 10
8.25370000
 20
1.04302500
  0
VERTEX
  8
ACANTHS.PLT
 62
7
 10
8.23221187
 20
1.05689531
  0
VERTEX
  8
ACANTHS.PLT
 62
7
 10
8.20966992
 20
1.06916719
  0
VERTEX
  8
ACANTHS.PLT
 62
7
 10
8.18615474
 20
1.07976328
  0
VERTEX
  8
ACANTHS.PLT
 62
7
 10
8.16174688
 20
1.08860625
  0
VERTEX
  8
ACANTHS.PLT
 62
7
 10
8.13652690
 20
1.09561875
  0
VERTEX
  8
ACANTHS.PLT
 62
7
 10
8.11057539
 20
1.10072344
  0
VERTEX
  8
ACANTHS.PLT
 62
7
 10
8.08397290
 20
1.10384297
  0
VERTEX
  8
ACANTHS.PLT
 62
7
 10
8.05680000
 20
1.10490000
  0
VERTEX
  8
ACANTHS.PLT
 62
7
 10
8.01534160
 20
1.10242070
  0
VERTEX
  8
ACANTHS.PLT
 62
7
 10
7.97531406
 20
1.09517187
  0
VERTEX
  8
ACANTHS.PLT
 62
7
 10
7.93701387
 20
1.08343711
  0
VERTEX
  8
ACANTHS.PLT
 62
7
 10
7.90073750
 20
1.06750000
  0
VERTEX
  8
ACANTHS.PLT
 62
7
 10
7.86678145
 20
1.04764414
  0
VERTEX
  8
ACANTHS.PLT
 62
7
 10
7.83544219
 20
1.02415312
  0
VERTEX
  8
ACANTHS.PLT
 62
7
 10
7.80701621
 20
0.99731055
  0
VERTEX
  8
ACANTHS.PLT
 62
7
 10
7.78180000
 20
0.96740000
  0
VERTEX
  8
ACANTHS.PLT
 62
7
 10
7.82354844
 20
0.93606719
  0
VERTEX
  8
ACANTHS.PLT
 62
7
 10
7.86106875
 20
0.90009375
  0
VERTEX
  8
ACANTHS.PLT
 62
7
 10
7.89394844
 20
0.85989219
  0
VERTEX
  8
ACANTHS.PLT
 62
7
 10
7.92177500
 20
0.81587500
  0
VERTEX
  8
ACANTHS.PLT
 62
7
 10
7.94413594
 20
0.76845469
  0
VERTEX
  8
ACANTHS.PLT
 62
7
 10
7.96061875
 20
0.71804375
  0
VERTEX
  8
ACANTHS.PLT
 62
7
 10
7.97081094
 20
0.66505469
  0
VERTEX
  8
ACANTHS.PLT
 62
7
 10
7.97430000
 20
0.60990000
  0
VERTEX
  8
ACANTHS.PLT
 62
7
 10
7.97277031
 20
0.57315742
  0
VERTEX
  8
ACANTHS.PLT
 62
7
 10
7.96825000
 20
0.53726562
  0
VERTEX
  8
ACANTHS.PLT
 62
7
 10
7.96084219
 20
0.50235352
  0
VERTEX
  8
ACANTHS.PLT
 62
7
 10
7.95065000
 20
0.46855000
  0
VERTEX
  8
ACANTHS.PLT
 62
7
 10
7.93777656
 20
0.43598398
  0
VERTEX
  8
ACANTHS.PLT
 62
7
 10
7.92232500
 20
0.40478437
  0
VERTEX
  8
ACANTHS.PLT
 62
7
 10
7.90439844
 20
0.37508008
  0
VERTEX
  8
ACANTHS.PLT
 62
7
 10
7.88410000
 20
0.34700000
  0
VERTEX
  8
ACANTHS.PLT
 62
7
 10
7.76090000
 20
0.34700000
  0
VERTEX
  8
ACANTHS.PLT
 62
7
 10
7.78807988
 20
0.37196699
  0
VERTEX
  8
ACANTHS.PLT
 62
7
 10
7.81251406
 20
0.39967969
  0
VERTEX
  8
ACANTHS.PLT
 62
7
 10
7.83393184
 20
0.42989316
  0
VERTEX
  8
ACANTHS.PLT
 62
7
 10
7.85206250
 20
0.46236250
  0
VERTEX
  8
ACANTHS.PLT
 62
7
 10
7.86663535
 20
0.49684277
  0
VERTEX
  8
ACANTHS.PLT
 62
7
 10
7.87737969
 20
0.53308906
  0
VERTEX
  8
ACANTHS.PLT
 62
7
 10
7.88402480
 20
0.57085645
  0
VERTEX
  8
ACANTHS.PLT
 62
7
 10
7.88630000
 20
0.60990000
  0
VERTEX
  8
ACANTHS.PLT
 62
7
 10
7.88492930
 20
0.64050664
  0
VERTEX
  8
ACANTHS.PLT
 62
7
 10
7.88090313
 20
0.67036563
  0
VERTEX
  8
ACANTHS.PLT
 62
7
 10
7.87435039
 20
0.69934805
  0
VERTEX
  8
ACANTHS.PLT
 62
7
 10
7.86540000
 20
0.72732500
  0
VERTEX
  8
ACANTHS.PLT
 62
7
 10
7.85418086
 20
0.75416758
  0
VERTEX
  8
ACANTHS.PLT
 62
7
 10
7.84082188
 20
0.77974688
  0
VERTEX
  8
ACANTHS.PLT
 62
7
 10
7.82545195
 20
0.80393398
  0
VERTEX
  8
ACANTHS.PLT
 62
7
 10
7.80820000
 20
0.82660000
  0
VERTEX
  8
ACANTHS.PLT
 62
7
 10
7.78840000
 20
0.82660000
  0
VERTEX
  8
ACANTHS.PLT
 62
7
 10
7.72449285
 20
0.82846458
  0
VERTEX
  8
ACANTHS.PLT
 62
7
 10
7.66154121
 20
0.83398848
  0
VERTEX
  8
ACANTHS.PLT
 62
7
 10
7.59964983
 20
0.84306697
  0
VERTEX
  8
ACANTHS.PLT
 62
7
 10
7.53892344
 20
0.85559531
  0
VERTEX
  8
ACANTHS.PLT
 62
7
 10
7.47946677
 20
0.87146877
  0
VERTEX
  8
ACANTHS.PLT
 62
7
 10
7.42138457
 20
0.89058262
  0
VERTEX
  8
ACANTHS.PLT
 62
7
 10
7.36478157
 20
0.91283210
  0
VERTEX
  8
ACANTHS.PLT
 62
7
 10
7.30976250
 20
0.93811250
  0
VERTEX
  8
ACANTHS.PLT
 62
7
 10
7.25643210
 20
0.96631907
  0
VERTEX
  8
ACANTHS.PLT
 62
7
 10
7.20489512
 20
0.99734707
  0
VERTEX
  8
ACANTHS.PLT
 62
7
 10
7.15525627
 20
1.03109177
  0
VERTEX
  8
ACANTHS.PLT
 62
7
 10
7.10762031
 20
1.06744844
  0
VERTEX
  8
ACANTHS.PLT
 62
7
 10
7.06209197
 20
1.10631233
  0
VERTEX
  8
ACANTHS.PLT
 62
7
 10
7.01877598
 20
1.14757871
  0
VERTEX
  8
ACANTHS.PLT
 62
7
 10
6.97777708
 20
1.19114285
  0
VERTEX
  8
ACANTHS.PLT
 62
7
 10
6.93920000
 20
1.23690000
  0
VERTEX
  8
ACANTHS.PLT
 62
7
 10
6.89665933
 20
1.27491633
  0
VERTEX
  8
ACANTHS.PLT
 62
7
 10
6.85240742
 20
1.31095879
  0
VERTEX
  8
ACANTHS.PLT
 62
7
 10
6.80651196
 20
1.34496130
  0
VERTEX
  8
ACANTHS.PLT
 62
7
 10
6.75904062
 20
1.37685781
  0
VERTEX
  8
ACANTHS.PLT
 62
7
 10
6.71006108
 20
1.40658225
  0
VERTEX
  8
ACANTHS.PLT
 62
7
 10
6.65964102
 20
1.43406855
  0
VERTEX
  8
ACANTHS.PLT
 62
7
 10
6.60784810
 20
1.45925066
  0
VERTEX
  8
ACANTHS.PLT
 62
7
 10
6.55475000
 20
1.48206250
  0
VERTEX
  8
ACANTHS.PLT
 62
7
 10
6.50041440
 20
1.50243801
  0
VERTEX
  8
ACANTHS.PLT
 62
7
 10
6.44490898
 20
1.52031113
  0
VERTEX
  8
ACANTHS.PLT
 62
7
 10
6.38830142
 20
1.53561580
  0
VERTEX
  8
ACANTHS.PLT
 62
7
 10
6.33065937
 20
1.54828594
  0
VERTEX
  8
ACANTHS.PLT
 62
7
 10
6.27205054
 20
1.55825549
  0
VERTEX
  8
ACANTHS.PLT
 62
7
 10
6.21254258
 20
1.56545840
  0
VERTEX
  8
ACANTHS.PLT
 62
7
 10
6.15220317
 20
1.56982859
  0
VERTEX
  8
ACANTHS.PLT
 62
7
 10
6.09110000
 20
1.57130000
  0
VERTEX
  8
ACANTHS.PLT
 62
7
 10
6.02840000
 20
1.57020000
  0
VERTEX
  8
ACANTHS.PLT
 62
7
 10
6.13400000
 20
1.65930000
  0
VERTEX
  8
ACANTHS.PLT
 62
7
 10
6.19632805
 20
1.65580449
  0
VERTEX
  8
ACANTHS.PLT
 62
7
 10
6.25786816
 20
1.64948594
  0
VERTEX
  8
ACANTHS.PLT
 62
7
 10
6.31855427
 20
1.64040879
  0
VERTEX
  8
ACANTHS.PLT
 62
7
 10
6.37832031
 20
1.62863750
  0
VERTEX
  8
ACANTHS.PLT
 62
7
 10
6.43710022
 20
1.61423652
  0
VERTEX
  8
ACANTHS.PLT
 62
7
 10
6.49482793
 20
1.59727031
  0
VERTEX
  8
ACANTHS.PLT
 62
7
 10
6.55143738
 20
1.57780332
  0
VERTEX
  8
ACANTHS.PLT
 62
7
 10
6.60686250
 20
1.55590000
  0
VERTEX
  8
ACANTHS.PLT
 62
7
 10
6.66103723
 20
1.53162480
  0
VERTEX
  8
ACANTHS.PLT
 62
7
 10
6.71389551
 20
1.50504219
  0
VERTEX
  8
ACANTHS.PLT
 62
7
 10
6.76537126
 20
1.47621660
  0
VERTEX
  8
ACANTHS.PLT
 62
7
 10
6.81539844
 20
1.44521250
  0
VERTEX
  8
ACANTHS.PLT
 62
7
 10
6.86391096
 20
1.41209434
  0
VERTEX
  8
ACANTHS.PLT
 62
7
 10
6.91084277
 20
1.37692656
  0
VERTEX
  8
ACANTHS.PLT
 62
7
 10
6.95612781
 20
1.33977363
  0
VERTEX
  8
ACANTHS.PLT
 62
7
 10
6.99970000
 20
1.30070000
  0
VERTEX
  8
ACANTHS.PLT
 62
7
 10
7.03026636
 20
1.26368833
  0
VERTEX
  8
ACANTHS.PLT
 62
7
 10
7.06252461
 20
1.22818164
  0
VERTEX
  8
ACANTHS.PLT
 62
7
 10
7.09641353
 20
1.19424116
  0
VERTEX
  8
ACANTHS.PLT
 62
7
 10
7.13187188
 20
1.16192812
  0
VERTEX
  8
ACANTHS.PLT
 62
7
 10
7.16883843
 20
1.13130376
  0
VERTEX
  8
ACANTHS.PLT
 62
7
 10
7.20725195
 20
1.10242930
  0
VERTEX
  8
ACANTHS.PLT
 62
7
 10
7.24705122
 20
1.07536597
  0
VERTEX
  8
ACANTHS.PLT
 62
7
 10
7.28817500
 20
1.05017500
  0
VERTEX
  8
ACANTHS.PLT
 62
7
 10
7.33056206
 20
1.02691763
  0
VERTEX
  8
ACANTHS.PLT
 62
7
 10
7.37415117
 20
1.00565508
  0
VERTEX
  8
ACANTHS.PLT
 62
7
 10
7.41888110
 20
0.98644858
  0
VERTEX
  8
ACANTHS.PLT
 62
7
 10
7.46469063
 20
0.96935937
  0
VERTEX
  8
ACANTHS.PLT
 62
7
 10
7.51151851
 20
0.95444868
  0
VERTEX
  8
ACANTHS.PLT
 62
7
 10
7.55930352
 20
0.94177773
  0
VERTEX
  8
ACANTHS.PLT
 62
7
 10
7.60798442
 20
0.93140776
  0
VERTEX
  8
ACANTHS.PLT
 62
7
 10
7.65750000
 20
0.92340000
  0
VERTEX
  8
ACANTHS.PLT
 62
7
 10
7.67001599
 20
0.95134553
  0
VERTEX
  8
ACANTHS.PLT
 62
7
 10
7.68440918
 20
0.97820020
  0
VERTEX
  8
ACANTHS.PLT
 62
7
 10
7.70059739
 20
1.00387859
  0
VERTEX
  8
ACANTHS.PLT
 62
7
 10
7.71849844
 20
1.02829531
  0
VERTEX
  8
ACANTHS.PLT
 62
7
 10
7.73803015
 20
1.05136497
  0
VERTEX
  8
ACANTHS.PLT
 62
7
 10
7.75911035
 20
1.07300215
  0
VERTEX
  8
ACANTHS.PLT
 62
7
 10
7.78165686
 20
1.09312146
  0
VERTEX
  8
ACANTHS.PLT
 62
7
 10
7.80558750
 20
1.11163750
  0
VERTEX
  8
ACANTHS.PLT
 62
7
 10
7.83082009
 20
1.12846487
  0
VERTEX
  8
ACANTHS.PLT
 62
7
 10
7.85727246
 20
1.14351816
  0
VERTEX
  8
ACANTHS.PLT
 62
7
 10
7.88486243
 20
1.15671199
  0
VERTEX
  8
ACANTHS.PLT
 62
7
 10
7.91350781
 20
1.16796094
  0
VERTEX
  8
ACANTHS.PLT
 62
7
 10
7.94312644
 20
1.17717961
  0
VERTEX
  8
ACANTHS.PLT
 62
7
 10
7.97363613
 20
1.18428262
  0
VERTEX
  8
ACANTHS.PLT
 62
7
 10
8.00495471
 20
1.18918455
  0
VERTEX
  8
ACANTHS.PLT
 62
7
 10
8.03700000
 20
1.19180000
  0
VERTEX
  8
ACANTHS.PLT
 62
7
 10
8.01139707
 20
1.20858789
  0
VERTEX
  8
ACANTHS.PLT
 62
7
 10
7.98748281
 20
1.22751563
  0
VERTEX
  8
ACANTHS.PLT
 62
7
 10
7.96539902
 20
1.24845430
  0
VERTEX
  8
ACANTHS.PLT
 62
7
 10
7.94528750
 20
1.27127500
  0
VERTEX
  8
ACANTHS.PLT
 62
7
 10
7.92729004
 20
1.29584883
  0
VERTEX
  8
ACANTHS.PLT
 62
7
 10
7.91154844
 20
1.32204688
  0
VERTEX
  8
ACANTHS.PLT
 62
7
 10
7.89820449
 20
1.34974023
  0
VERTEX
  8
ACANTHS.PLT
 62
7
 10
7.88740000
 20
1.37880000
  0
VERTEX
  8
ACANTHS.PLT
 62
7
 10
7.90110059
 20
1.39755371
  0
VERTEX
  8
ACANTHS.PLT
 62
7
 10
7.91326719
 20
1.41745469
  0
VERTEX
  8
ACANTHS.PLT
 62
7
 10
7.92380957
 20
1.43841270
  0
VERTEX
  8
ACANTHS.PLT
 62
7
 10
7.93263750
 20
1.46033750
  0
VERTEX
  8
ACANTHS.PLT
 62
7
 10
7.93966074
 20
1.48313887
  0
VERTEX
  8
ACANTHS.PLT
 62
7
 10
7.94478906
 20
1.50672656
  0
VERTEX
  8
ACANTHS.PLT
 62
7
 10
7.94793223
 20
1.53101035
  0
VERTEX
  8
ACANTHS.PLT
 62
7
 10
7.94900000
 20
1.55590000
  0
VERTEX
  8
ACANTHS.PLT
 62
7
 10
7.94770503
 20
1.58301516
  0
VERTEX
  8
ACANTHS.PLT
 62
7
 10
7.94389961
 20
1.60941973
  0
VERTEX
  8
ACANTHS.PLT
 62
7
 10
7.93770298
 20
1.63499607
  0
VERTEX
  8
ACANTHS.PLT
 62
7
 10
7.92923438
 20
1.65962656
  0
VERTEX
  8
ACANTHS.PLT
 62
7
 10
7.91861304
 20
1.68319358
  0
VERTEX
  8
ACANTHS.PLT
 62
7
 10
7.90595820
 20
1.70557949
  0
VERTEX
  8
ACANTHS.PLT
 62
7
 10
7.89138911
 20
1.72666667
  0
VERTEX
  8
ACANTHS.PLT
 62
7
 10
7.87502500
 20
1.74633750
  0
VERTEX
  8
ACANTHS.PLT
 62
7
 10
7.85698511
 20
1.76447434
  0
VERTEX
  8
ACANTHS.PLT
 62
7
 10
7.83738867
 20
1.78095957
  0
VERTEX
  8
ACANTHS.PLT
 62
7
 10
7.81635493
 20
1.79567556
  0
VERTEX
  8
ACANTHS.PLT
 62
7
 10
7.79400313
 20
1.80850469
  0
VERTEX
  8
ACANTHS.PLT
 62
7
 10
7.77045249
 20
1.81932932
  0
VERTEX
  8
ACANTHS.PLT
 62
7
 10
7.74582227
 20
1.82803184
  0
VERTEX
  8
ACANTHS.PLT
 62
7
 10
7.72023169
 20
1.83449460
  0
VERTEX
  8
ACANTHS.PLT
 62
7
 10
7.69380000
 20
1.83860000
  0
VERTEX
  8
ACANTHS.PLT
 62
7
 10
7.70921719
 20
1.80855625
  0
VERTEX
  8
ACANTHS.PLT
 62
7
 10
7.72061250
 20
1.77645000
  0
VERTEX
  8
ACANTHS.PLT
 62
7
 10
7.72767656
 20
1.74269375
  0
VERTEX
  8
ACANTHS.PLT
 62
7
 10
7.73010000
 20
1.70770000
  0
VERTEX
  8
ACANTHS.PLT
 62
7
 10
7.72876824
 20
1.68142488
  0
VERTEX
  8
ACANTHS.PLT
 62
7
 10
7.72485996
 20
1.65589902
  0
VERTEX
  8
ACANTHS.PLT
 62
7
 10
7.71850569
 20
1.63125295
  0
VERTEX
  8
ACANTHS.PLT
 62
7
 10
7.70983594
 20
1.60761719
  0
VERTEX
  8
ACANTHS.PLT
 62
7
 10
7.69898123
 20
1.58512224
  0
VERTEX
  8
ACANTHS.PLT
 62
7
 10
7.68607207
 20
1.56389863
  0
VERTEX
  8
ACANTHS.PLT
 62
7
 10
7.67123899
 20
1.54407688
  0
VERTEX
  8
ACANTHS.PLT
 62
7
 10
7.65461250
 20
1.52578750
  0
VERTEX
  8
ACANTHS.PLT
 62
7
 10
7.63632312
 20
1.50916101
  0
VERTEX
  8
ACANTHS.PLT
 62
7
 10
7.61650137
 20
1.49432793
  0
VERTEX
  8
ACANTHS.PLT
 62
7
 10
7.59527776
 20
1.48141877
  0
VERTEX
  8
ACANTHS.PLT
 62
7
 10
7.57278281
 20
1.47056406
  0
VERTEX
  8
ACANTHS.PLT
 62
7
 10
7.54914705
 20
1.46189431
  0
VERTEX
  8
ACANTHS.PLT
 62
7
 10
7.52450098
 20
1.45554004
  0
VERTEX
  8
ACANTHS.PLT
 62
7
 10
7.49897512
 20
1.45163176
  0
VERTEX
  8
ACANTHS.PLT
 62
7
 10
7.47270000
 20
1.45030000
  0
VERTEX
  8
ACANTHS.PLT
 62
7
 10
7.44899844
 20
1.45133125
  0
VERTEX
  8
ACANTHS.PLT
 62
7
 10
7.42581250
 20
1.45442500
  0
VERTEX
  8
ACANTHS.PLT
 62
7
 10
7.40324531
 20
1.45958125
  0
VERTEX
  8
ACANTHS.PLT
 62
7
 10
7.38140000
 20
1.46680000
  0
VERTEX
  8
ACANTHS.PLT
 62
7
 10
7.22501094
 20
1.52721406
  0
VERTEX
  8
ACANTHS.PLT
 62
7
 10
7.07243750
 20
1.59123750
  0
VERTEX
  8
ACANTHS.PLT
 62
7
 10
6.92337031
 20
1.65876719
  0
VERTEX
  8
ACANTHS.PLT
 62
7
 10
6.77750000
 20
1.72970000
  0
VERTEX
  8
ACANTHS.PLT
 62
7
 10
6.71074563
 20
1.76177993
  0
VERTEX
  8
ACANTHS.PLT
 62
7
 10
6.64291973
 20
1.79200039
  0
VERTEX
  8
ACANTHS.PLT
 62
7
 10
6.57405935
 20
1.82033237
  0
VERTEX
  8
ACANTHS.PLT
 62
7
 10
6.50420156
 20
1.84674688
  0
VERTEX
  8
ACANTHS.PLT
 62
7
 10
6.43338342
 20
1.87121489
  0
VERTEX
  8
ACANTHS.PLT
 62
7
 10
6.36164199
 20
1.89370742
  0
VERTEX
  8
ACANTHS.PLT
 62
7
 10
6.28901433
 20
1.91419546
  0
VERTEX
  8
ACANTHS.PLT
 62
7
 10
6.21553750
 20
1.93265000
  0
VERTEX
  8
ACANTHS.PLT
 62
7
 10
6.14124856
 20
1.94904204
  0
VERTEX
  8
ACANTHS.PLT
 62
7
 10
6.06618457
 20
1.96334258
  0
VERTEX
  8
ACANTHS.PLT
 62
7
 10
5.99038259
 20
1.97552261
  0
VERTEX
  8
ACANTHS.PLT
 62
7
 10
5.91387969
 20
1.98555313
  0
VERTEX
  8
ACANTHS.PLT
 62
7
 10
5.83671292
 20
1.99340513
  0
VERTEX
  8
ACANTHS.PLT
 62
7
 10
5.75891934
 20
1.99904961
  0
VERTEX
  8
ACANTHS.PLT
 62
7
 10
5.68053601
 20
2.00245757
  0
VERTEX
  8
ACANTHS.PLT
 62
7
 10
5.60160000
 20
2.00360000
  0
VERTEX
  8
ACANTHS.PLT
 62
7
 10
5.47318789
 20
2.00057715
  0
VERTEX
  8
ACANTHS.PLT
 62
7
 10
5.34629688
 20
1.99158594
  0
VERTEX
  8
ACANTHS.PLT
 62
7
 10
5.22110742
 20
1.97674238
  0
VERTEX
  8
ACANTHS.PLT
 62
7
 10
5.09780000
 20
1.95616250
  0
VERTEX
  8
ACANTHS.PLT
 62
7
 10
4.97655508
 20
1.92996230
  0
VERTEX
  8
ACANTHS.PLT
 62
7
 10
4.85755313
 20
1.89825781
  0
VERTEX
  8
ACANTHS.PLT
 62
7
 10
4.74097461
 20
1.86116504
  0
VERTEX
  8
ACANTHS.PLT
 62
7
 10
4.62700000
 20
1.81880000
  0
VERTEX
  8
ACANTHS.PLT
 62
7
 10
4.73008230
 20
1.86294636
  0
VERTEX
  8
ACANTHS.PLT
 62
7
 10
4.83430059
 20
1.90503184
  0
VERTEX
  8
ACANTHS.PLT
 62
7
 10
4.93963069
 20
1.94503225
  0
VERTEX
  8
ACANTHS.PLT
 62
7
 10
5.04604844
 20
1.98292344
  0
VERTEX
  8
ACANTHS.PLT
 62
7
 10
5.15352966
 20
2.01868123
  0
VERTEX
  8
ACANTHS.PLT
 62
7
 10
5.26205020
 20
2.05228145
  0
VERTEX
  8
ACANTHS.PLT
 62
7
 10
5.37158586
 20
2.08369993
  0
VERTEX
  8
ACANTHS.PLT
 62
7
 10
5.48211250
 20
2.11291250
  0
VERTEX
  8
ACANTHS.PLT
 62
7
 10
5.59360593
 20
2.13989500
  0
VERTEX
  8
ACANTHS.PLT
 62
7
 10
5.70604199
 20
2.16462324
  0
VERTEX
  8
ACANTHS.PLT
 62
7
 10
5.81939651
 20
2.18707307
  0
VERTEX
  8
ACANTHS.PLT
 62
7
 10
5.93364531
 20
2.20722031
  0
VERTEX
  8
ACANTHS.PLT
 62
7
 10
6.04876423
 20
2.22504080
  0
VERTEX
  8
ACANTHS.PLT
 62
7
 10
6.16472910
 20
2.24051035
  0
VERTEX
  8
ACANTHS.PLT
 62
7
 10
6.28151575
 20
2.25360481
  0
VERTEX
  8
ACANTHS.PLT
 62
7
 10
6.39910000
 20
2.26430000
  0
VERTEX
  8
ACANTHS.PLT
 62
7
 10
6.49411250
 20
2.27021250
  0
VERTEX
  8
ACANTHS.PLT
 62
7
 10
6.59160000
 20
2.27200000
  0
VERTEX
  8
ACANTHS.PLT
 62
7
 10
6.69360164
 20
2.26986123
  0
VERTEX
  8
ACANTHS.PLT
 62
7
 10
6.79453496
 20
2.26350078
  0
VERTEX
  8
ACANTHS.PLT
 62
7
 10
6.89431135
 20
2.25300244
  0
VERTEX
  8
ACANTHS.PLT
 62
7
 10
6.99284219
 20
2.23845000
  0
VERTEX
  8
ACANTHS.PLT
 62
7
 10
7.09003884
 20
2.21992725
  0
VERTEX
  8
ACANTHS.PLT
 62
7
 10
7.18581270
 20
2.19751797
  0
VERTEX
  8
ACANTHS.PLT
 62
7
 10
7.28007512
 20
2.17130596
  0
VERTEX
  8
ACANTHS.PLT
 62
7
 10
7.37273750
 20
2.14137500
  0
VERTEX
  8
ACANTHS.PLT
 62
7
 10
7.46371121
 20
2.10780889
  0
VERTEX
  8
ACANTHS.PLT
 62
7
 10
7.55290762
 20
2.07069141
  0
VERTEX
  8
ACANTHS.PLT
 62
7
 10
7.64023811
 20
2.03010635
  0
VERTEX
  8
ACANTHS.PLT
 62
7
 10
7.72561406
 20
1.98613750
  0
VERTEX
  8
ACANTHS.PLT
 62
7
 10
7.80894685
 20
1.93886865
  0
VERTEX
  8
ACANTHS.PLT
 62
7
 10
7.89014785
 20
1.88838359
  0
VERTEX
  8
ACANTHS.PLT
 62
7
 10
7.96912844
 20
1.83476611
  0
VERTEX
  8
ACANTHS.PLT
 62
7
 10
8.04580000
 20
1.77810000
  0
VERTEX
  8
ACANTHS.PLT
 62
7
 10
8.17982383
 20
1.67959844
  0
VERTEX
  8
ACANTHS.PLT
 62
7
 10
8.30866562
 20
1.57480625
  0
VERTEX
  8
ACANTHS.PLT
 62
7
 10
8.43209336
 20
1.46392969
  0
VERTEX
  8
ACANTHS.PLT
 62
7
 10
8.54987500
 20
1.34717500
  0
VERTEX
  8
ACANTHS.PLT
 62
7
 10
8.66177852
 20
1.22474844
  0
VERTEX
  8
ACANTHS.PLT
 62
7
 10
8.76757187
 20
1.09685625
  0
VERTEX
  8
ACANTHS.PLT
 62
7
 10
8.86702305
 20
0.96370469
  0
VERTEX
  8
ACANTHS.PLT
 62
7
 10
8.95990000
 20
0.82550000
  0
VERTEX
  8
ACANTHS.PLT
 62
7
 10
8.97531719
 20
0.80037188
  0
VERTEX
  8
ACANTHS.PLT
 62
7
 10
8.98671250
 20
0.77297500
  0
VERTEX
  8
ACANTHS.PLT
 62
7
 10
8.99377656
 20
0.74351563
  0
VERTEX
  8
ACANTHS.PLT
 62
7
 10
8.99620000
 20
0.71220000
  0
VERTEX
  8
ACANTHS.PLT
 62
7
 10
8.99225762
 20
0.67324668
  0
VERTEX
  8
ACANTHS.PLT
 62
7
 10
8.98095469
 20
0.63693594
  0
VERTEX
  8
ACANTHS.PLT
 62
7
 10
8.96307754
 20
0.60405410
  0
VERTEX
  8
ACANTHS.PLT
 62
7
 10
8.93941250
 20
0.57538750
  0
VERTEX
  8
ACANTHS.PLT
 62
7
 10
8.91074590
 20
0.55172246
  0
VERTEX
  8
ACANTHS.PLT
 62
7
 10
8.87786406
 20
0.53384531
  0
VERTEX
  8
ACANTHS.PLT
 62
7
 10
8.84155332
 20
0.52254238
  0
VERTEX
  8
ACANTHS.PLT
 62
7
 10
8.80260000
 20
0.51860000
  0
VERTEX
  8
ACANTHS.PLT
 62
7
 10
8.76822500
 20
0.52176250
  0
VERTEX
  8
ACANTHS.PLT
 62
7
 10
8.73550000
 20
0.53070000
  0
VERTEX
  8
ACANTHS.PLT
 62
7
 10
8.71363965
 20
0.54096309
  0
VERTEX
  8
ACANTHS.PLT
 62
7
 10
8.69364844
 20
0.55422969
  0
VERTEX
  8
ACANTHS.PLT
 62
7
 10
8.67584863
 20
0.57020332
  0
VERTEX
  8
ACANTHS.PLT
 62
7
 10
8.66056250
 20
0.58858750
  0
VERTEX
  8
ACANTHS.PLT
 62
7
 10
8.64811230
 20
0.60908574
  0
VERTEX
  8
ACANTHS.PLT
 62
7
 10
8.63882031
 20
0.63140156
  0
VERTEX
  8
ACANTHS.PLT
 62
7
 10
8.63300879
 20
0.65523848
  0
VERTEX
  8
ACANTHS.PLT
 62
7
 10
8.63100000
 20
0.68030000
  0
VERTEX
  8
ACANTHS.PLT
 62
7
 10
8.63424629
 20
0.71241914
  0
VERTEX
  8
ACANTHS.PLT
 62
7
 10
8.64356406
 20
0.74234687
  0
VERTEX
  8
ACANTHS.PLT
 62
7
 10
8.65832168
 20
0.76943867
  0
VERTEX
  8
ACANTHS.PLT
 62
7
 10
8.67788750
 20
0.79305000
  0
VERTEX
  8
ACANTHS.PLT
 62
7
 10
8.70162988
 20
0.81253633
  0
VERTEX
  8
ACANTHS.PLT
 62
7
 10
8.72891719
 20
0.82725312
  0
VERTEX
  8
ACANTHS.PLT
 62
7
 10
8.75911777
 20
0.83655586
  0
VERTEX
  8
ACANTHS.PLT
 62
7
 10
8.79160000
 20
0.83980000
  0
VERTEX
  8
ACANTHS.PLT
 62
7
 10
8.81511250
 20
0.83815000
  0
VERTEX
  8
ACANTHS.PLT
 62
7
 10
8.83780000
 20
0.83320000
  0
VERTEX
  8
ACANTHS.PLT
 62
7
 10
8.80820313
 20
0.85023281
  0
VERTEX
  8
ACANTHS.PLT
 62
7
 10
8.77592500
 20
0.86303750
  0
VERTEX
  8
ACANTHS.PLT
 62
7
 10
8.74158437
 20
0.87109844
  0
VERTEX
  8
ACANTHS.PLT
 62
7
 10
8.70580000
 20
0.87390000
  0
VERTEX
  8
ACANTHS.PLT
 62
7
 10
8.68157234
 20
0.87267002
  0
VERTEX
  8
ACANTHS.PLT
 62
7
 10
8.65805527
 20
0.86906172
  0
VERTEX
  8
ACANTHS.PLT
 62
7
 10
8.63536643
 20
0.86319756
  0
VERTEX
  8
ACANTHS.PLT
 62
7
 10
8.61362344
 20
0.85520000
  0
VERTEX
  8
ACANTHS.PLT
 62
7
 10
8.59294392
 20
0.84519150
  0
VERTEX
  8
ACANTHS.PLT
 62
7
 10
8.57344551
 20
0.83329453
  0
VERTEX
  8
ACANTHS.PLT
 62
7
 10
8.55524583
 20
0.81963154
  0
VERTEX
  8
ACANTHS.PLT
 62
7
 10
8.53846250
 20
0.80432500
  0
VERTEX
  8
ACANTHS.PLT
 62
7
 10
8.52321316
 20
0.78749736
  0
VERTEX
  8
ACANTHS.PLT
 62
7
 10
8.50961543
 20
0.76927109
  0
VERTEX
  8
ACANTHS.PLT
 62
7
 10
8.49778694
 20
0.74976865
  0
VERTEX
  8
ACANTHS.PLT
 62
7
 10
8.48784531
 20
0.72911250
  0
VERTEX
  8
ACANTHS.PLT
 62
7
 10
8.47990818
 20
0.70742510
  0
VERTEX
  8
ACANTHS.PLT
 62
7
 10
8.47409316
 20
0.68482891
  0
VERTEX
  8
ACANTHS.PLT
 62
7
 10
8.47051790
 20
0.66144639
  0
VERTEX
  8
ACANTHS.PLT
 62
7
 10
8.46930000
 20
0.63740000
  0
VERTEX
  8
ACANTHS.PLT
 62
7
 10
8.47082109
 20
0.61015352
  0
VERTEX
  8
ACANTHS.PLT
 62
7
 10
8.47528125
 20
0.58380938
  0
VERTEX
  8
ACANTHS.PLT
 62
7
 10
8.48252578
 20
0.55854805
  0
VERTEX
  8
ACANTHS.PLT
 62
7
 10
8.49240000
 20
0.53455000
  0
VERTEX
  8
ACANTHS.PLT
 62
7
 10
8.50474922
 20
0.51199570
  0
VERTEX
  8
ACANTHS.PLT
 62
7
 10
8.51941875
 20
0.49106563
  0
VERTEX
  8
ACANTHS.PLT
 62
7
 10
8.53625391
 20
0.47194023
  0
VERTEX
  8
ACANTHS.PLT
 62
7
 10
8.55510000
 20
0.45480000
  0
VERTEX
  8
ACANTHS.PLT
 62
7
 10
8.58286641
 20
0.43368086
  0
VERTEX
  8
ACANTHS.PLT
 62
7
 10
8.61243750
 20
0.41495938
  0
VERTEX
  8
ACANTHS.PLT
 62
7
 10
8.64365859
 20
0.39876445
  0
VERTEX
  8
ACANTHS.PLT
 62
7
 10
8.67637500
 20
0.38522500
  0
VERTEX
  8
ACANTHS.PLT
 62
7
 10
8.71043203
 20
0.37446992
  0
VERTEX
  8
ACANTHS.PLT
 62
7
 10
8.74567500
 20
0.36662813
  0
VERTEX
  8
ACANTHS.PLT
 62
7
 10
8.78194922
 20
0.36182852
  0
VERTEX
  8
ACANTHS.PLT
 62
7
 10
8.81910000
 20
0.36020000
  0
VERTEX
  8
ACANTHS.PLT
 62
7
 10
8.86126899
 20
0.36231863
  0
VERTEX
  8
ACANTHS.PLT
 62
7
 10
8.90224883
 20
0.36853809
  0
VERTEX
  8
ACANTHS.PLT
 62
7
 10
8.94183003
 20
0.37865374
  0
VERTEX
  8
ACANTHS.PLT
 62
7
 10
8.97980313
 20
0.39246094
  0
VERTEX
  8
ACANTHS.PLT
 62
7
 10
9.01595864
 20
0.40975505
  0
VERTEX
  8
ACANTHS.PLT
 62
7
 10
9.05008711
 20
0.43033145
  0
VERTEX
  8
ACANTHS.PLT
 62
7
 10
9.08197905
 20
0.45398547
  0
VERTEX
  8
ACANTHS.PLT
 62
7
 10
9.11142500
 20
0.48051250
  0
VERTEX
  8
ACANTHS.PLT
 62
7
 10
9.13821548
 20
0.50970789
  0
VERTEX
  8
ACANTHS.PLT
 62
7
 10
9.16214102
 20
0.54136699
  0
VERTEX
  8
ACANTHS.PLT
 62
7
 10
9.18299214
 20
0.57528518
  0
VERTEX
  8
ACANTHS.PLT
 62
7
 10
9.20055938
 20
0.61125781
  0
VERTEX
  8
ACANTHS.PLT
 62
7
 10
9.21463325
 20
0.64908025
  0
VERTEX
  8
ACANTHS.PLT
 62
7
 10
9.22500430
 20
0.68854785
  0
VERTEX
  8
ACANTHS.PLT
 62
7
 10
9.23146304
 20
0.72945598
  0
VERTEX
  8
ACANTHS.PLT
 62
7
 10
9.23380000
 20
0.77160000
  0
VERTEX
  8
ACANTHS.PLT
 62
7
 10
9.39811250
 20
0.62007500
  0
VERTEX
  8
ACANTHS.PLT
 62
7
 10
9.55830000
 20
0.46360000
  0
VERTEX
  8
ACANTHS.PLT
 62
7
 10
9.58420586
 20
0.43970293
  0
VERTEX
  8
ACANTHS.PLT
 62
7
 10
9.61230312
 20
0.41844844
  0
VERTEX
  8
ACANTHS.PLT
 62
7
 10
9.64241133
 20
0.40000410
  0
VERTEX
  8
ACANTHS.PLT
 62
7
 10
9.67435000
 20
0.38453750
  0
VERTEX
  8
ACANTHS.PLT
 62
7
 10
9.70793867
 20
0.37221621
  0
VERTEX
  8
ACANTHS.PLT
 62
7
 10
9.74299687
 20
0.36320781
  0
VERTEX
  8
ACANTHS.PLT
 62
7
 10
9.77934414
 20
0.35767988
  0
VERTEX
  8
ACANTHS.PLT
 62
7
 10
9.81680000
 20
0.35580000
  0
VERTEX
  8
ACANTHS.PLT
 62
7
 10
9.85826699
 20
0.35812891
  0
VERTEX
  8
ACANTHS.PLT
 62
7
 10
9.89835469
 20
0.36494375
  0
VERTEX
  8
ACANTHS.PLT
 62
7
 10
9.93681816
 20
0.37598672
  0
VERTEX
  8
ACANTHS.PLT
 62
7
 10
9.97341250
 20
0.39100000
  0
VERTEX
  8
ACANTHS.PLT
 62
7
 10
10.00789277
 20
0.40972578
  0
VERTEX
  8
ACANTHS.PLT
 62
7
 10
10.04001406
 20
0.43190625
  0
VERTEX
  8
ACANTHS.PLT
 62
7
 10
10.06953145
 20
0.45728359
  0
VERTEX
  8
ACANTHS.PLT
 62
7
 10
10.09620000
 20
0.48560000
  0
VERTEX
  8
ACANTHS.PLT
 62
7
 10
10.03880610
 20
0.51035537
  0
VERTEX
  8
ACANTHS.PLT
 62
7
 10
9.98256914
 20
0.53715391
  0
VERTEX
  8
ACANTHS.PLT
 62
7
 10
9.92753745
 20
0.56595049
  0
VERTEX
  8
ACANTHS.PLT
 62
7
 10
9.87375938
 20
0.59670000
  0
VERTEX
  8
ACANTHS.PLT
 62
7
 10
9.82128325
 20
0.62935732
  0
VERTEX
  8
ACANTHS.PLT
 62
7
 10
9.77015742
 20
0.66387734
  0
VERTEX
  8
ACANTHS.PLT
 62
7
 10
9.72043022
 20
0.70021494
  0
VERTEX
  8
ACANTHS.PLT
 62
7
 10
9.67215000
 20
0.73832500
  0
VERTEX
  8
ACANTHS.PLT
 62
7
 10
9.62536509
 20
0.77816240
  0
VERTEX
  8
ACANTHS.PLT
 62
7
 10
9.58012383
 20
0.81968203
  0
VERTEX
  8
ACANTHS.PLT
 62
7
 10
9.53647456
 20
0.86283877
  0
VERTEX
  8
ACANTHS.PLT
 62
7
 10
9.49446563
 20
0.90758750
  0
VERTEX
  8
ACANTHS.PLT
 62
7
 10
9.45414536
 20
0.95388311
  0
VERTEX
  8
ACANTHS.PLT
 62
7
 10
9.41556211
 20
1.00168047
  0
VERTEX
  8
ACANTHS.PLT
 62
7
 10
9.37876421
 20
1.05093447
  0
VERTEX
  8
ACANTHS.PLT
 62
7
 10
9.34380000
 20
1.10160000
  0
VERTEX
  8
ACANTHS.PLT
 62
7
 10
9.28334028
 20
1.19690308
  0
VERTEX
  8
ACANTHS.PLT
 62
7
 10
9.21997695
 20
1.29013398
  0
VERTEX
  8
ACANTHS.PLT
 62
7
 10
9.15377124
 20
1.38123149
  0
VERTEX
  8
ACANTHS.PLT
 62
7
 10
9.08478437
 20
1.47013437
  0
VERTEX
  8
ACANTHS.PLT
 62
7
 10
9.01307759
 20
1.55678140
  0
VERTEX
  8
ACANTHS.PLT
 62
7
 10
8.93871211
 20
1.64111133
  0
VERTEX
  8
ACANTHS.PLT
 62
7
 10
8.86174917
 20
1.72306294
  0
VERTEX
  8
ACANTHS.PLT
 62
7
 10
8.78225000
 20
1.80257500
  0
VERTEX
  8
ACANTHS.PLT
 62
7
 10
8.70027583
 20
1.87958628
  0
VERTEX
  8
ACANTHS.PLT
 62
7
 10
8.61588789
 20
1.95403555
  0
VERTEX
  8
ACANTHS.PLT
 62
7
 10
8.52914741
 20
2.02586157
  0
VERTEX
  8
ACANTHS.PLT
 62
7
 10
8.44011562
 20
2.09500313
  0
VERTEX
  8
ACANTHS.PLT
 62
7
 10
8.34885376
 20
2.16139897
  0
VERTEX
  8
ACANTHS.PLT
 62
7
 10
8.25542305
 20
2.22498789
  0
VERTEX
  8
ACANTHS.PLT
 62
7
 10
8.15988472
 20
2.28570864
  0
VERTEX
  8
ACANTHS.PLT
 62
7
 10
8.06230000
 20
2.34350000
  0
VERTEX
  8
ACANTHS.PLT
 62
7
 10
7.97258984
 20
2.39319121
  0
VERTEX
  8
ACANTHS.PLT
 62
7
 10
7.88086875
 20
2.43990469
  0
VERTEX
  8
ACANTHS.PLT
 62
7
 10
7.78718828
 20
2.48355020
  0
VERTEX
  8
ACANTHS.PLT
 62
7
 10
7.69160000
 20
2.52403750
  0
VERTEX
  8
ACANTHS.PLT
 62
7
 10
7.59415547
 20
2.56127637
  0
VERTEX
  8
ACANTHS.PLT
 62
7
 10
7.49490625
 20
2.59517656
  0
VERTEX
  8
ACANTHS.PLT
 62
7
 10
7.39390391
 20
2.62564785
  0
SEQEND
  0
POLYLINE
  8
ACANTHS.PLT
 62
7
 66
1
 70
1
  0
VERTEX
  8
ACANTHS.PLT
 62
7
 10
7.32240000
 20
0.34710000
  0
VERTEX
  8
ACANTHS.PLT
 62
7
 10
7.26422031
 20
0.36875625
  0
VERTEX
  8
ACANTHS.PLT
 62
7
 10
7.20841250
 20
0.39412500
  0
VERTEX
  8
ACANTHS.PLT
 62
7
 10
7.15487344
 20
0.42320625
  0
VERTEX
  8
ACANTHS.PLT
 62
7
 10
7.10350000
 20
0.45600000
  0
VERTEX
  8
ACANTHS.PLT
 62
7
 10
7.07139375
 20
0.47447656
  0
VERTEX
  8
ACANTHS.PLT
 62
7
 10
7.03640000
 20
0.48831250
  0
VERTEX
  8
ACANTHS.PLT
 62
7
 10
6.99893125
 20
0.49699219
  0
VERTEX
  8
ACANTHS.PLT
 62
7
 10
6.95940000
 20
0.50000000
  0
VERTEX
  8
ACANTHS.PLT
 62
7
 10
6.93038750
 20
0.49835000
  0
VERTEX
  8
ACANTHS.PLT
 62
7
 10
6.90220000
 20
0.49340000
  0
VERTEX
  8
ACANTHS.PLT
 62
7
 10
6.88748965
 20
0.48885176
  0
VERTEX
  8
ACANTHS.PLT
 62
7
 10
6.87402969
 20
0.48197031
  0
VERTEX
  8
ACANTHS.PLT
 62
7
 10
6.86203926
 20
0.47300059
  0
VERTEX
  8
ACANTHS.PLT
 62
7
 10
6.85173750
 20
0.46218750
  0
VERTEX
  8
ACANTHS.PLT
 62
7
 10
6.84334355
 20
0.44977598
  0
VERTEX
  8
ACANTHS.PLT
 62
7
 10
6.83707656
 20
0.43601094
  0
VERTEX
  8
ACANTHS.PLT
 62
7
 10
6.83315566
 20
0.42113730
  0
VERTEX
  8
ACANTHS.PLT
 62
7
 10
6.83180000
 20
0.40540000
  0
VERTEX
  8
ACANTHS.PLT
 62
7
 10
6.83281406
 20
0.39097969
  0
VERTEX
  8
ACANTHS.PLT
 62
7
 10
6.83578750
 20
0.37748750
  0
VERTEX
  8
ACANTHS.PLT
 62
7
 10
6.84061719
 20
0.36502656
  0
VERTEX
  8
ACANTHS.PLT
 62
7
 10
6.84720000
 20
0.35370000
  0
VERTEX
  8
ACANTHS.PLT
 62
7
 10
6.81516250
 20
0.34820000
  0
VERTEX
  8
ACANTHS.PLT
 62
7
 10
6.78230000
 20
0.34600000
  0
VERTEX
  8
ACANTHS.PLT
 62
7
 10
6.75617527
 20
0.34716929
  0
VERTEX
  8
ACANTHS.PLT
 62
7
 10
6.73067090
 20
0.35061055
  0
VERTEX
  8
ACANTHS.PLT
 62
7
 10
6.70589163
 20
0.35622388
  0
VERTEX
  8
ACANTHS.PLT
 62
7
 10
6.68194219
 20
0.36390937
  0
VERTEX
  8
ACANTHS.PLT
 62
7
 10
6.65892732
 20
0.37356714
  0
VERTEX
  8
ACANTHS.PLT
 62
7
 10
6.63695176
 20
0.38509727
  0
VERTEX
  8
ACANTHS.PLT
 62
7
 10
6.61612024
 20
0.39839985
  0
VERTEX
  8
ACANTHS.PLT
 62
7
 10
6.59653750
 20
0.41337500
  0
VERTEX
  8
ACANTHS.PLT
 62
7
 10
6.57830828
 20
0.42992280
  0
VERTEX
  8
ACANTHS.PLT
 62
7
 10
6.56153730
 20
0.44794336
  0
VERTEX
  8
ACANTHS.PLT
 62
7
 10
6.54632932
 20
0.46733677
  0
VERTEX
  8
ACANTHS.PLT
 62
7
 10
6.53278906
 20
0.48800312
  0
VERTEX
  8
ACANTHS.PLT
 62
7
 10
6.52102126
 20
0.50984253
  0
VERTEX
  8
ACANTHS.PLT
 62
7
 10
6.51113066
 20
0.53275508
  0
VERTEX
  8
ACANTHS.PLT
 62
7
 10
6.50322200
 20
0.55664087
  0
VERTEX
  8
ACANTHS.PLT
 62
7
 10
6.49740000
 20
0.58140000
  0
VERTEX
  8
ACANTHS.PLT
 62
7
 10
6.48716672
 20
0.55609705
  0
VERTEX
  8
ACANTHS.PLT
 62
7
 10
6.47508848
 20
0.53180762
  0
VERTEX
  8
ACANTHS.PLT
 62
7
 10
6.46125388
 20
0.50861711
  0
VERTEX
  8
ACANTHS.PLT
 62
7
 10
6.44575156
 20
0.48661094
  0
VERTEX
  8
ACANTHS.PLT
 62
7
 10
6.42867014
 20
0.46587449
  0
VERTEX
  8
ACANTHS.PLT
 62
7
 10
6.41009824
 20
0.44649316
  0
VERTEX
  8
ACANTHS.PLT
 62
7
 10
6.39012449
 20
0.42855237
  0
VERTEX
  8
ACANTHS.PLT
 62
7
 10
6.36883750
 20
0.41213750
  0
VERTEX
  8
ACANTHS.PLT
 62
7
 10
6.34632590
 20
0.39733396
  0
VERTEX
  8
ACANTHS.PLT
 62
7
 10
6.32267832
 20
0.38422715
  0
VERTEX
  8
ACANTHS.PLT
 62
7
 10
6.29798337
 20
0.37290247
  0
VERTEX
  8
ACANTHS.PLT
 62
7
 10
6.27232969
 20
0.36344531
  0
VERTEX
  8
ACANTHS.PLT
 62
7
 10
6.24580588
 20
0.35594109
  0
VERTEX
  8
ACANTHS.PLT
 62
7
 10
6.21850059
 20
0.35047520
  0
VERTEX
  8
ACANTHS.PLT
 62
7
 10
6.19050242
 20
0.34713303
  0
VERTEX
  8
ACANTHS.PLT
 62
7
 10
6.16190000
 20
0.34600000
  0
VERTEX
  8
ACANTHS.PLT
 62
7
 10
6.12207656
 20
0.34817852
  0
VERTEX
  8
ACANTHS.PLT
 62
7
 10
6.08359375
 20
0.35455938
  0
VERTEX
  8
ACANTHS.PLT
 62
7
 10
6.04665781
 20
0.36491055
  0
VERTEX
  8
ACANTHS.PLT
 62
7
 10
6.01147500
 20
0.37900000
  0
VERTEX
  8
ACANTHS.PLT
 62
7
 10
5.97825156
 20
0.39659570
  0
VERTEX
  8
ACANTHS.PLT
 62
7
 10
5.94719375
 20
0.41746562
  0
VERTEX
  8
ACANTHS.PLT
 62
7
 10
5.91850781
 20
0.44137773
  0
VERTEX
  8
ACANTHS.PLT
 62
7
 10
5.89240000
 20
0.46810000
  0
VERTEX
  8
ACANTHS.PLT
 62
7
 10
5.92458359
 20
0.50110645
  0
VERTEX
  8
ACANTHS.PLT
 62
7
 10
5.95331250
 20
0.53724531
  0
VERTEX
  8
ACANTHS.PLT
 62
7
 10
5.97832891
 20
0.57624590
  0
VERTEX
  8
ACANTHS.PLT
 62
7
 10
5.99937500
 20
0.61783750
  0
VERTEX
  8
ACANTHS.PLT
 62
7
 10
6.01619297
 20
0.66174941
  0
VERTEX
  8
ACANTHS.PLT
 62
7
 10
6.02852500
 20
0.70771094
  0
VERTEX
  8
ACANTHS.PLT
 62
7
 10
6.03611328
 20
0.75545137
  0
VERTEX
  8
ACANTHS.PLT
 62
7
 10
6.03870000
 20
0.80470000
  0
VERTEX
  8
ACANTHS.PLT
 62
7
 10
6.03636250
 20
0.85153379
  0
VERTEX
  8
ACANTHS.PLT
 62
7
 10
6.02948750
 20
0.89701406
  0
VERTEX
  8
ACANTHS.PLT
 62
7
 10
6.01828125
 20
0.94092168
  0
VERTEX
  8
ACANTHS.PLT
 62
7
 10
6.00295000
 20
0.98303750
  0
VERTEX
  8
ACANTHS.PLT
 62
7
 10
5.98370000
 20
1.02314238
  0
VERTEX
  8
ACANTHS.PLT
 62
7
 10
5.96073750
 20
1.06101719
  0
VERTEX
  8
ACANTHS.PLT
 62
7
 10
5.93426875
 20
1.09644277
  0
VERTEX
  8
ACANTHS.PLT
 62
7
 10
5.90450000
 20
1.12920000
  0
VERTEX
  8
ACANTHS.PLT
 62
7
 10
5.86998616
 20
1.16229534
  0
VERTEX
  8
ACANTHS.PLT
 62
7
 10
5.83412363
 20
1.19390020
  0
VERTEX
  8
ACANTHS.PLT
 62
7
 10
5.79695593
 20
1.22396785
  0
VERTEX
  8
ACANTHS.PLT
 62
7
 10
5.75852656
 20
1.25245156
  0
VERTEX
  8
ACANTHS.PLT
 62
7
 10
5.71887903
 20
1.27930461
  0
VERTEX
  8
ACANTHS.PLT
 62
7
 10
5.67805684
 20
1.30448027
  0
VERTEX
  8
ACANTHS.PLT
 62
7
 10
5.63610349
 20
1.32793181
  0
VERTEX
  8
ACANTHS.PLT
 62
7
 10
5.59306250
 20
1.34961250
  0
VERTEX
  8
ACANTHS.PLT
 62
7
 10
5.54897737
 20
1.36947561
  0
VERTEX
  8
ACANTHS.PLT
 62
7
 10
5.50389160
 20
1.38747441
  0
VERTEX
  8
ACANTHS.PLT
 62
7
 10
5.45784871
 20
1.40356218
  0
VERTEX
  8
ACANTHS.PLT
 62
7
 10
5.41089219
 20
1.41769219
  0
VERTEX
  8
ACANTHS.PLT
 62
7
 10
5.36306555
 20
1.42981770
  0
VERTEX
  8
ACANTHS.PLT
 62
7
 10
5.31441230
 20
1.43989199
  0
VERTEX
  8
ACANTHS.PLT
 62
7
 10
5.26497595
 20
1.44786833
  0
VERTEX
  8
ACANTHS.PLT
 62
7
 10
5.21480000
 20
1.45370000
  0
VERTEX
  8
ACANTHS.PLT
 62
7
 10
5.13408750
 20
1.45810000
  0
VERTEX
  8
ACANTHS.PLT
 62
7
 10
5.05090000
 20
1.45920000
  0
VERTEX
  8
ACANTHS.PLT
 62
7
 10
4.93919844
 20
1.45651875
  0
VERTEX
  8
ACANTHS.PLT
 62
7
 10
4.82883750
 20
1.44847500
  0
VERTEX
  8
ACANTHS.PLT
 62
7
 10
4.72033281
 20
1.43506875
  0
VERTEX
  8
ACANTHS.PLT
 62
7
 10
4.61420000
 20
1.41630000
  0
VERTEX
  8
ACANTHS.PLT
 62
7
 10
4.36247832
 20
1.36309824
  0
VERTEX
  8
ACANTHS.PLT
 62
7
 10
4.11388906
 20
1.30418594
  0
VERTEX
  8
ACANTHS.PLT
 62
7
 10
3.86847090
 20
1.23962754
  0
VERTEX
  8
ACANTHS.PLT
 62
7
 10
3.62626250
 20
1.16948750
  0
VERTEX
  8
ACANTHS.PLT
 62
7
 10
3.38730254
 20
1.09383027
  0
VERTEX
  8
ACANTHS.PLT
 62
7
 10
3.15162969
 20
1.01272031
  0
VERTEX
  8
ACANTHS.PLT
 62
7
 10
2.91928262
 20
0.92622207
  0
VERTEX
  8
ACANTHS.PLT
 62
7
 10
2.69030000
 20
0.83440000
  0
VERTEX
  8
ACANTHS.PLT
 62
7
 10
2.71150937
 20
0.82637344
  0
VERTEX
  8
ACANTHS.PLT
 62
7
 10
2.73375000
 20
0.82051250
  0
VERTEX
  8
ACANTHS.PLT
 62
7
 10
2.75681563
 20
0.81692031
  0
VERTEX
  8
ACANTHS.PLT
 62
7
 10
2.78050000
 20
0.81570000
  0
VERTEX
  8
ACANTHS.PLT
 62
7
 10
2.80810313
 20
0.81733281
  0
VERTEX
  8
ACANTHS.PLT
 62
7
 10
2.83467500
 20
0.82216250
  0
VERTEX
  8
ACANTHS.PLT
 62
7
 10
2.86000938
 20
0.83008594
  0
VERTEX
  8
ACANTHS.PLT
 62
7
 10
2.88390000
 20
0.84100000
  0
VERTEX
  8
ACANTHS.PLT
 62
7
 10
2.95524531
 20
0.87565000
  0
VERTEX
  8
ACANTHS.PLT
 62
7
 10
3.02896250
 20
0.90700000
  0
VERTEX
  8
ACANTHS.PLT
 62
7
 10
3.10494844
 20
0.93505000
  0
VERTEX
  8
ACANTHS.PLT
 62
7
 10
3.18310000
 20
0.95980000
  0
VERTEX
  8
ACANTHS.PLT
 62
7
 10
3.46832656
 20
1.04168125
  0
VERTEX
  8
ACANTHS.PLT
 62
7
 10
3.76128750
 20
1.11737500
  0
VERTEX
  8
ACANTHS.PLT
 62
7
 10
4.06187969
 20
1.18688125
  0
VERTEX
  8
ACANTHS.PLT
 62
7
 10
4.37000000
 20
1.25020000
  0
VERTEX
  8
ACANTHS.PLT
 62
7
 10
4.44108750
 20
1.26255781
  0
VERTEX
  8
ACANTHS.PLT
 62
7
 10
4.51382500
 20
1.27151250
  0
VERTEX
  8
ACANTHS.PLT
 62
7
 10
4.58780000
 20
1.27696094
  0
VERTEX
  8
ACANTHS.PLT
 62
7
 10
4.66260000
 20
1.27880000
  0
VERTEX
  8
ACANTHS.PLT
 62
7
 10
4.76254531
 20
1.27553438
  0
VERTEX
  8
ACANTHS.PLT
 62
7
 10
4.86073750
 20
1.26587500
  0
VERTEX
  8
ACANTHS.PLT
 62
7
 10
4.95666094
 20
1.25002812
  0
VERTEX
  8
ACANTHS.PLT
 62
7
 10
5.04980000
 20
1.22820000
  0
VERTEX
  8
ACANTHS.PLT
 62
7
 10
5.09124766
 20
1.21485176
  0
VERTEX
  8
ACANTHS.PLT
 62
7
 10
5.12934375
 20
1.19504531
  0
VERTEX
  8
ACANTHS.PLT
 62
7
 10
5.16341797
 20
1.16943809
  0
VERTEX
  8
ACANTHS.PLT
 62
7
 10
5.19280000
 20
1.13868750
  0
VERTEX
  8
ACANTHS.PLT
 62
7
 10
5.21681953
 20
1.10345098
  0
VERTEX
  8
ACANTHS.PLT
 62
7
 10
5.23480625
 20
1.06438594
  0
VERTEX
  8
ACANTHS.PLT
 62
7
 10
5.24608984
 20
1.02214980
  0
VERTEX
  8
ACANTHS.PLT
 62
7
 10
5.25000000
 20
0.97740000
  0
VERTEX
  8
ACANTHS.PLT
 62
7
 10
5.24670000
 20
0.93780000
  0
VERTEX
  8
ACANTHS.PLT
 62
7
 10
5.24450000
 20
0.91360000
  0
VERTEX
  8
ACANTHS.PLT
 62
7
 10
5.24728438
 20
0.88443281
  0
VERTEX
  8
ACANTHS.PLT
 62
7
 10
5.25522500
 20
0.85681250
  0
VERTEX
  8
ACANTHS.PLT
 62
7
 10
5.26770312
 20
0.83146094
  0
VERTEX
  8
ACANTHS.PLT
 62
7
 10
5.28410000
 20
0.80910000
  0
VERTEX
  8
ACANTHS.PLT
 62
7
 10
5.30726660
 20
0.78510840
  0
VERTEX
  8
ACANTHS.PLT
 62
7
 10
5.33289531
 20
0.76360469
  0
VERTEX
  8
ACANTHS.PLT
 62
7
 10
5.36076699
 20
0.74480801
  0
VERTEX
  8
ACANTHS.PLT
 62
7
 10
5.39066250
 20
0.72893750
  0
VERTEX
  8
ACANTHS.PLT
 62
7
 10
5.42236270
 20
0.71621230
  0
VERTEX
  8
ACANTHS.PLT
 62
7
 10
5.45564844
 20
0.70685156
  0
VERTEX
  8
ACANTHS.PLT
 62
7
 10
5.49030059
 20
0.70107441
  0
VERTEX
  8
ACANTHS.PLT
 62
7
 10
5.52610000
 20
0.69910000
  0
VERTEX
  8
ACANTHS.PLT
 62
7
 10
5.57227422
 20
0.70237852
  0
VERTEX
  8
ACANTHS.PLT
 62
7
 10
5.61643750
 20
0.71192188
  0
VERTEX
  8
ACANTHS.PLT
 62
7
 10
5.65812578
 20
0.72729180
  0
VERTEX
  8
ACANTHS.PLT
 62
7
 10
5.69687500
 20
0.74805000
  0
VERTEX
  8
ACANTHS.PLT
 62
7
 10
5.73222109
 20
0.77375820
  0
VERTEX
  8
ACANTHS.PLT
 62
7
 10
5.76370000
 20
0.80397812
  0
VERTEX
  8
ACANTHS.PLT
 62
7
 10
5.79084766
 20
0.83827148
  0
VERTEX
  8
ACANTHS.PLT
 62
7
 10
5.81320000
 20
0.87620000
  0
VERTEX
  8
ACANTHS.PLT
 62
7
 10
5.82203438
 20
0.84608750
  0
VERTEX
  8
ACANTHS.PLT
 62
7
 10
5.82860000
 20
0.81515000
  0
VERTEX
  8
ACANTHS.PLT
 62
7
 10
5.83269063
 20
0.78338750
  0
VERTEX
  8
ACANTHS.PLT
 62
7
 10
5.83410000
 20
0.75080000
  0
VERTEX
  8
ACANTHS.PLT
 62
7
 10
5.83204529
 20
0.71027913
  0
VERTEX
  8
ACANTHS.PLT
 62
7
 10
5.82601543
 20
0.67093613
  0
VERTEX
  8
ACANTHS.PLT
 62
7
 10
5.81621184
 20
0.63296921
  0
VERTEX
  8
ACANTHS.PLT
 62
7
 10
5.80283594
 20
0.59657656
  0
VERTEX
  8
ACANTHS.PLT
 62
7
 10
5.78608914
 20
0.56195637
  0
VERTEX
  8
ACANTHS.PLT
 62
7
 10
5.76617285
 20
0.52930684
  0
VERTEX
  8
ACANTHS.PLT
 62
7
 10
5.74328850
 20
0.49882615
  0
VERTEX
  8
ACANTHS.PLT
 62
7
 10
5.71763750
 20
0.47071250
  0
VERTEX
  8
ACANTHS.PLT
 62
7
 10
5.68942126
 20
0.44516409
  0
VERTEX
  8
ACANTHS.PLT
 62
7
 10
5.65884121
 20
0.42237910
  0
VERTEX
  8
ACANTHS.PLT
 62
7
 10
5.62609875
 20
0.40255574
  0
VERTEX
  8
ACANTHS.PLT
 62
7
 10
5.59139531
 20
0.38589219
  0
VERTEX
  8
ACANTHS.PLT
 62
7
 10
5.55493230
 20
0.37258665
  0
VERTEX
  8
ACANTHS.PLT
 62
7
 10
5.51691113
 20
0.36283730
  0
VERTEX
  8
ACANTHS.PLT
 62
7
 10
5.47753323
 20
0.35684236
  0
VERTEX
  8
ACANTHS.PLT
 62
7
 10
5.43700000
 20
0.35480000
  0
VERTEX
  8
ACANTHS.PLT
 62
7
 10
5.38268320
 20
0.35848457
  0
VERTEX
  8
ACANTHS.PLT
 62
7
 10
5.33060938
 20
0.36922031
  0
VERTEX
  8
ACANTHS.PLT
 62
7
 10
5.28126836
 20
0.38653027
  0
VERTEX
  8
ACANTHS.PLT
 62
7
 10
5.23515000
 20
0.40993750
  0
VERTEX
  8
ACANTHS.PLT
 62
7
 10
5.19274414
 20
0.43896504
  0
VERTEX
  8
ACANTHS.PLT
 62
7
 10
5.15454063
 20
0.47313594
  0
VERTEX
  8
ACANTHS.PLT
 62
7
 10
5.12102930
 20
0.51197324
  0
VERTEX
  8
ACANTHS.PLT
 62
7
 10
5.09270000
 20
0.55500000
  0
VERTEX
  8
ACANTHS.PLT
 62
7
 10
5.07711094
 20
0.51806621
  0
VERTEX
  8
ACANTHS.PLT
 62
7
 10
5.05626250
 20
0.48434219
  0
VERTEX
  8
ACANTHS.PLT
 62
7
 10
5.03067031
 20
0.45435645
  0
VERTEX
  8
ACANTHS.PLT
 62
7
 10
5.00085000
 20
0.42863750
  0
VERTEX
  8
ACANTHS.PLT
 62
7
 10
4.96731719
 20
0.40771387
  0
VERTEX
  8
ACANTHS.PLT
 62
7
 10
4.93058750
 20
0.39211406
  0
VERTEX
  8
ACANTHS.PLT
 62
7
 10
4.89117656
 20
0.38236660
  0
VERTEX
  8
ACANTHS.PLT
 62
7
 10
4.84960000
 20
0.37900000
  0
VERTEX
  8
ACANTHS.PLT
 62
7
 10
4.80860781
 20
0.38221406
  0
VERTEX
  8
ACANTHS.PLT
 62
7
 10
4.76998750
 20
0.39151250
  0
VERTEX
  8
ACANTHS.PLT
 62
7
 10
4.73404844
 20
0.40637969
  0
VERTEX
  8
ACANTHS.PLT
 62
7
 10
4.70110000
 20
0.42630000
  0
VERTEX
  8
ACANTHS.PLT
 62
7
 10
4.72487031
 20
0.43945488
  0
VERTEX
  8
ACANTHS.PLT
 62
7
 10
4.74647500
 20
0.45563906
  0
VERTEX
  8
ACANTHS.PLT
 62
7
 10
4.76560469
 20
0.47458184
  0
VERTEX
  8
ACANTHS.PLT
 62
7
 10
4.78195000
 20
0.49601250
  0
VERTEX
  8
ACANTHS.PLT
 62
7
 10
4.79520156
 20
0.51966035
  0
VERTEX
  8
ACANTHS.PLT
 62
7
 10
4.80505000
 20
0.54525469
  0
VERTEX
  8
ACANTHS.PLT
 62
7
 10
4.81118594
 20
0.57252480
  0
VERTEX
  8
ACANTHS.PLT
 62
7
 10
4.81330000
 20
0.60120000
  0
VERTEX
  8
ACANTHS.PLT
 62
7
 10
4.80984961
 20
0.63744199
  0
VERTEX
  8
ACANTHS.PLT
 62
7
 10
4.79992813
 20
0.67147969
  0
VERTEX
  8
ACANTHS.PLT
 62
7
 10
4.78418008
 20
0.70265566
  0
VERTEX
  8
ACANTHS.PLT
 62
7
 10
4.76325000
 20
0.73031250
  0
VERTEX
  8
ACANTHS.PLT
 62
7
 10
4.73778242
 20
0.75379277
  0
VERTEX
  8
ACANTHS.PLT
 62
7
 10
4.70842187
 20
0.77243906
  0
VERTEX
  8
ACANTHS.PLT
 62
7
 10
4.67581289
 20
0.78559395
  0
VERTEX
  8
ACANTHS.PLT
 62
7
 10
4.64060000
 20
0.79260000
  0
VERTEX
  8
ACANTHS.PLT
 62
7
 10
4.53610000
 20
0.80098750
  0
VERTEX
  8
ACANTHS.PLT
 62
7
 10
4.42830000
 20
0.80360000
  0
VERTEX
  8
ACANTHS.PLT
 62
7
 10
4.34641875
 20
0.80196719
  0
VERTEX
  8
ACANTHS.PLT
 62
7
 10
4.26577500
 20
0.79713750
  0
VERTEX
  8
ACANTHS.PLT
 62
7
 10
4.18636875
 20
0.78921406
  0
VERTEX
  8
ACANTHS.PLT
 62
7
 10
4.10820000
 20
0.77830000
  0
VERTEX
  8
ACANTHS.PLT
 62
7
 10
3.93671172
 20
0.74963770
  0
VERTEX
  8
ACANTHS.PLT
 62
7
 10
3.76713125
 20
0.71730156
  0
VERTEX
  8
ACANTHS.PLT
 62
7
 10
3.59951016
 20
0.68133027
  0
VERTEX
  8
ACANTHS.PLT
 62
7
 10
3.43390000
 20
0.64176250
  0
VERTEX
  8
ACANTHS.PLT
 62
7
 10
3.27035234
 20
0.59863691
  0
VERTEX
  8
ACANTHS.PLT
 62
7
 10
3.10891875
 20
0.55199219
  0
VERTEX
  8
ACANTHS.PLT
 62
7
 10
2.94965078
 20
0.50186699
  0
VERTEX
  8
ACANTHS.PLT
 62
7
 10
2.79260000
 20
0.44830000
  0
VERTEX
  8
ACANTHS.PLT
 62
7
 10
2.72176602
 20
0.42500234
  0
VERTEX
  8
ACANTHS.PLT
 62
7
 10
2.64956563
 20
0.40464375
  0
VERTEX
  8
ACANTHS.PLT
 62
7
 10
2.57607617
 20
0.38727578
  0
VERTEX
  8
ACANTHS.PLT
 62
7
 10
2.50137500
 20
0.37295000
  0
VERTEX
  8
ACANTHS.PLT
 62
7
 10
2.42553945
 20
0.36171797
  0
VERTEX
  8
ACANTHS.PLT
 62
7
 10
2.34864688
 20
0.35363125
  0
VERTEX
  8
ACANTHS.PLT
 62
7
 10
2.27077461
 20
0.34874141
  0
VERTEX
  8
ACANTHS.PLT
 62
7
 10
2.19200000
 20
0.34710000
  0
VERTEX
  8
ACANTHS.PLT
 62
7
 10
2.09697031
 20
0.34954063
  0
VERTEX
  8
ACANTHS.PLT
 62
7
 10
2.00348750
 20
0.35672500
  0
VERTEX
  8
ACANTHS.PLT
 62
7
 10
1.91186094
 20
0.36844688
  0
VERTEX
  8
ACANTHS.PLT
 62
7
 10
1.82240000
 20
0.38450000
  0
VERTEX
  8
ACANTHS.PLT
 62
7
 10
1.77398013
 20
0.39578171
  0
VERTEX
  8
ACANTHS.PLT
 62
7
 10
1.72652383
 20
0.40937246
  0
VERTEX
  8
ACANTHS.PLT
 62
7
 10
1.68009233
 20
0.42520940
  0
VERTEX
  8
ACANTHS.PLT
 62
7
 10
1.63474688
 20
0.44322969
  0
VERTEX
  8
ACANTHS.PLT
 62
7
 10
1.59054868
 20
0.46337048
  0
VERTEX
  8
ACANTHS.PLT
 62
7
 10
1.54755898
 20
0.48556895
  0
VERTEX
  8
ACANTHS.PLT
 62
7
 10
1.50583901
 20
0.50976223
  0
VERTEX
  8
ACANTHS.PLT
 62
7
 10
1.46545000
 20
0.53588750
  0
VERTEX
  8
ACANTHS.PLT
 62
7
 10
1.42645317
 20
0.56388191
  0
VERTEX
  8
ACANTHS.PLT
 62
7
 10
1.38890977
 20
0.59368262
  0
VERTEX
  8
ACANTHS.PLT
 62
7
 10
1.35288101
 20
0.62522678
  0
VERTEX
  8
ACANTHS.PLT
 62
7
 10
1.31842813
 20
0.65845156
  0
VERTEX
  8
ACANTHS.PLT
 62
7
 10
1.28561235
 20
0.69329412
  0
VERTEX
  8
ACANTHS.PLT
 62
7
 10
1.25449492
 20
0.72969160
  0
VERTEX
  8
ACANTHS.PLT
 62
7
 10
1.22513706
 20
0.76758118
  0
VERTEX
  8
ACANTHS.PLT
 62
7
 10
1.19760000
 20
0.80690000
  0
VERTEX
  8
ACANTHS.PLT
 62
7
 10
1.19349219
 20
0.76531270
  0
VERTEX
  8
ACANTHS.PLT
 62
7
 10
1.18618750
 20
0.72479531
  0
VERTEX
  8
ACANTHS.PLT
 62
7
 10
1.17578906
 20
0.68548965
  0
VERTEX
  8
ACANTHS.PLT
 62
7
 10
1.16240000
 20
0.64753750
  0
VERTEX
  8
ACANTHS.PLT
 62
7
 10
1.14612344
 20
0.61108066
  0
VERTEX
  8
ACANTHS.PLT
 62
7
 10
1.12706250
 20
0.57626094
  0
VERTEX
  8
ACANTHS.PLT
 62
7
 10
1.10532031
 20
0.54322012
  0
VERTEX
  8
ACANTHS.PLT
 62
7
 10
1.08100000
 20
0.51210000
  0
VERTEX
  8
ACANTHS.PLT
 62
7
 10
1.05736934
 20
0.48692461
  0
VERTEX
  8
ACANTHS.PLT
 62
7
 10
1.03117344
 20
0.46435312
  0
VERTEX
  8
ACANTHS.PLT
 62
7
 10
1.00263145
 20
0.44461758
  0
VERTEX
  8
ACANTHS.PLT
 62
7
 10
0.97196250
 20
0.42795000
  0
VERTEX
  8
ACANTHS.PLT
 62
7
 10
0.93938574
 20
0.41458242
  0
VERTEX
  8
ACANTHS.PLT
 62
7
 10
0.90512031
 20
0.40474687
  0
VERTEX
  8
ACANTHS.PLT
 62
7
 10
0.86938535
 20
0.39867539
  0
VERTEX
  8
ACANTHS.PLT
 62
7
 10
0.83240000
 20
0.39660000
  0
VERTEX
  8
ACANTHS.PLT
 62
7
 10
0.78386250
 20
0.40022441
  0
VERTEX
  8
ACANTHS.PLT
 62
7
 10
0.73759375
 20
0.41074531
  0
VERTEX
  8
ACANTHS.PLT
 62
7
 10
0.69410938
 20
0.42763418
  0
VERTEX
  8
ACANTHS.PLT
 62
7
 10
0.65392500
 20
0.45036250
  0
VERTEX
  8
ACANTHS.PLT
 62
7
 10
0.61755625
 20
0.47840176
  0
VERTEX
  8
ACANTHS.PLT
 62
7
 10
0.58551875
 20
0.51122344
  0
VERTEX
  8
ACANTHS.PLT
 62
7
 10
0.55832812
 20
0.54829902
  0
VERTEX
  8
ACANTHS.PLT
 62
7
 10
0.53650000
 20
0.58910000
  0
VERTEX
  8
ACANTHS.PLT
 62
7
 10
0.54530000
 20
0.61990000
  0
VERTEX
  8
ACANTHS.PLT
 62
7
 10
0.87640000
 20
1.74520000
  0
VERTEX
  8
ACANTHS.PLT
 62
7
 10
0.86900938
 20
1.69300156
  0
VERTEX
  8
ACANTHS.PLT
 62
7
 10
0.86347500
 20
1.64028750
  0
VERTEX
  8
ACANTHS.PLT
 62
7
 10
0.86000312
 20
1.58695469
  0
VERTEX
  8
ACANTHS.PLT
 62
7
 10
0.85880000
 20
1.53290000
  0
VERTEX
  8
ACANTHS.PLT
 62
7
 10
0.86127500
 20
1.45383750
  0
VERTEX
  8
ACANTHS.PLT
 62
7
 10
0.86870000
 20
1.37560000
  0
VERTEX
  8
ACANTHS.PLT
 62
7
 10
0.87516250
 20
1.30107500
  0
VERTEX
  8
ACANTHS.PLT
 62
7
 10
0.87750000
 20
1.22490000
  0
VERTEX
  8
ACANTHS.PLT
 62
7
 10
0.87611426
 20
1.16499727
  0
VERTEX
  8
ACANTHS.PLT
 62
7
 10
0.87198281
 20
1.10579063
  0
VERTEX
  8
ACANTHS.PLT
 62
7
 10
0.86514434
 20
1.04735742
  0
VERTEX
  8
ACANTHS.PLT
 62
7
 10
0.85563750
 20
0.98977500
  0
VERTEX
  8
ACANTHS.PLT
 62
7
 10
0.84350098
 20
0.93312070
  0
VERTEX
  8
ACANTHS.PLT
 62
7
 10
0.82877344
 20
0.87747188
  0
VERTEX
  8
ACANTHS.PLT
 62
7
 10
0.81149355
 20
0.82290586
  0
VERTEX
  8
ACANTHS.PLT
 62
7
 10
0.79170000
 20
0.76950000
  0
VERTEX
  8
ACANTHS.PLT
 62
7
 10
0.77651484
 20
0.73775898
  0
VERTEX
  8
ACANTHS.PLT
 62
7
 10
0.75684375
 20
0.70882813
  0
VERTEX
  8
ACANTHS.PLT
 62
7
 10
0.73315078
 20
0.68314570
  0
VERTEX
  8
ACANTHS.PLT
 62
7
 10
0.70590000
 20
0.66115000
  0
VERTEX
  8
ACANTHS.PLT
 62
7
 10
0.67555547
 20
0.64327930
  0
VERTEX
  8
ACANTHS.PLT
 62
7
 10
0.64258125
 20
0.62997188
  0
VERTEX
  8
ACANTHS.PLT
 62
7
 10
0.60744141
 20
0.62166602
  0
VERTEX
  8
ACANTHS.PLT
 62
7
 10
0.57060000
 20
0.61880000
  0
VERTEX
  8
ACANTHS.PLT
 62
7
 10
0.54530000
 20
0.61990000
  0
VERTEX
  8
ACANTHS.PLT
 62
7
 10
0.53650000
 20
0.58910000
  0
VERTEX
  8
ACANTHS.PLT
 62
7
 10
0.46500000
 20
0.34710000
  0
SEQEND
  0
POLYLINE
  8
ACANTHS.PLT
 62
7
 66
1
 70
1
  0
VERTEX
  8
ACANTHS.PLT
 62
7
 10
5.86160000
 20
2.65290000
  0
VERTEX
  8
ACANTHS.PLT
 62
7
 10
5.71844531
 20
2.61414219
  0
VERTEX
  8
ACANTHS.PLT
 62
7
 10
5.57931250
 20
2.56888750
  0
VERTEX
  8
ACANTHS.PLT
 62
7
 10
5.44409844
 20
2.51723906
  0
VERTEX
  8
ACANTHS.PLT
 62
7
 10
5.31270000
 20
2.45930000
  0
VERTEX
  8
ACANTHS.PLT
 62
7
 10
5.08271406
 20
2.35638125
  0
VERTEX
  8
ACANTHS.PLT
 62
7
 10
4.86128750
 20
2.25222500
  0
VERTEX
  8
ACANTHS.PLT
 62
7
 10
4.64831719
 20
2.14683125
  0
VERTEX
  8
ACANTHS.PLT
 62
7
 10
4.44370000
 20
2.04020000
  0
VERTEX
  8
ACANTHS.PLT
 62
7
 10
4.07961719
 20
1.85828750
  0
VERTEX
  8
ACANTHS.PLT
 62
7
 10
3.72306250
 20
1.67060000
  0
VERTEX
  8
ACANTHS.PLT
 62
7
 10
3.37372656
 20
1.47713750
  0
VERTEX
  8
ACANTHS.PLT
 62
7
 10
3.03130000
 20
1.27790000
  0
VERTEX
  8
ACANTHS.PLT
 62
7
 10
2.96200645
 20
1.23866953
  0
VERTEX
  8
ACANTHS.PLT
 62
7
 10
2.89110156
 20
1.20186250
  0
VERTEX
  8
ACANTHS.PLT
 62
7
 10
2.81862402
 20
1.16753047
  0
VERTEX
  8
ACANTHS.PLT
 62
7
 10
2.74461250
 20
1.13572500
  0
VERTEX
  8
ACANTHS.PLT
 62
7
 10
2.66910566
 20
1.10649766
  0
VERTEX
  8
ACANTHS.PLT
 62
7
 10
2.59214219
 20
1.07990000
  0
VERTEX
  8
ACANTHS.PLT
 62
7
 10
2.51376074
 20
1.05598359
  0
VERTEX
  8
ACANTHS.PLT
 62
7
 10
2.43400000
 20
1.03480000
  0
VERTEX
  8
ACANTHS.PLT
 62
7
 10
2.33096094
 20
1.01216406
  0
VERTEX
  8
ACANTHS.PLT
 62
7
 10
2.22513750
 20
0.99561250
  0
VERTEX
  8
ACANTHS.PLT
 62
7
 10
2.11704531
 20
0.98545469
  0
VERTEX
  8
ACANTHS.PLT
 62
7
 10
2.00720000
 20
0.98200000
  0
VERTEX
  8
ACANTHS.PLT
 62
7
 10
1.93131074
 20
0.98358984
  0
VERTEX
  8
ACANTHS.PLT
 62
7
 10
1.85631094
 20
0.98832500
  0
VERTEX
  8
ACANTHS.PLT
 62
7
 10
1.78226504
 20
0.99615391
  0
VERTEX
  8
ACANTHS.PLT
 62
7
 10
1.70923750
 20
1.00702500
  0
VERTEX
  8
ACANTHS.PLT
 62
7
 10
1.63729277
 20
1.02088672
  0
VERTEX
  8
ACANTHS.PLT
 62
7
 10
1.56649531
 20
1.03768750
  0
VERTEX
  8
ACANTHS.PLT
 62
7
 10
1.49690957
 20
1.05737578
  0
VERTEX
  8
ACANTHS.PLT
 62
7
 10
1.42860000
 20
1.07990000
  0
VERTEX
  8
ACANTHS.PLT
 62
7
 10
1.40000000
 20
1.18990000
  0
VERTEX
  8
ACANTHS.PLT
 62
7
 10
1.47072227
 20
1.15918379
  0
VERTEX
  8
ACANTHS.PLT
 62
7
 10
1.54337813
 20
1.13227031
  0
VERTEX
  8
ACANTHS.PLT
 62
7
 10
1.61783867
 20
1.10924980
  0
VERTEX
  8
ACANTHS.PLT
 62
7
 10
1.69397500
 20
1.09021250
  0
VERTEX
  8
ACANTHS.PLT
 62
7
 10
1.77165820
 20
1.07524863
  0
VERTEX
  8
ACANTHS.PLT
 62
7
 10
1.85075938
 20
1.06444844
  0
VERTEX
  8
ACANTHS.PLT
 62
7
 10
1.93114961
 20
1.05790215
  0
VERTEX
  8
ACANTHS.PLT
 62
7
 10
2.01270000
 20
1.05570000
  0
VERTEX
  8
ACANTHS.PLT
 62
7
 10
2.11692285
 20
1.05932227
  0
VERTEX
  8
ACANTHS.PLT
 62
7
 10
2.21907031
 20
1.07003437
  0
VERTEX
  8
ACANTHS.PLT
 62
7
 10
2.31892324
 20
1.08760430
  0
VERTEX
  8
ACANTHS.PLT
 62
7
 10
2.41626250
 20
1.11180000
  0
VERTEX
  8
ACANTHS.PLT
 62
7
 10
2.51086895
 20
1.14238945
  0
VERTEX
  8
ACANTHS.PLT
 62
7
 10
2.60252344
 20
1.17914063
  0
VERTEX
  8
ACANTHS.PLT
 62
7
 10
2.69100684
 20
1.22182148
  0
VERTEX
  8
ACANTHS.PLT
 62
7
 10
2.77610000
 20
1.27020000
  0
VERTEX
  8
ACANTHS.PLT
 62
7
 10
2.92563125
 20
1.36528125
  0
VERTEX
  8
ACANTHS.PLT
 62
7
 10
3.07062500
 20
1.46572500
  0
VERTEX
  8
ACANTHS.PLT
 62
7
 10
3.21108125
 20
1.57153125
  0
VERTEX
  8
ACANTHS.PLT
 62
7
 10
3.34700000
 20
1.68270000
  0
VERTEX
  8
ACANTHS.PLT
 62
7
 10
3.49895469
 20
1.81636719
  0
VERTEX
  8
ACANTHS.PLT
 62
7
 10
3.64606250
 20
1.95508750
  0
VERTEX
  8
ACANTHS.PLT
 62
7
 10
3.78801406
 20
2.09896406
  0
VERTEX
  8
ACANTHS.PLT
 62
7
 10
3.92450000
 20
2.24810000
  0
VERTEX
  8
ACANTHS.PLT
 62
7
 10
3.95060566
 20
2.27441191
  0
VERTEX
  8
ACANTHS.PLT
 62
7
 10
3.97927656
 20
2.29792656
  0
VERTEX
  8
ACANTHS.PLT
 62
7
 10
4.01029355
 20
2.31842480
  0
VERTEX
  8
ACANTHS.PLT
 62
7
 10
4.04343750
 20
2.33568750
  0
VERTEX
  8
ACANTHS.PLT
 62
7
 10
4.07848926
 20
2.34949551
  0
VERTEX
  8
ACANTHS.PLT
 62
7
 10
4.11522969
 20
2.35962969
  0
VERTEX
  8
ACANTHS.PLT
 62
7
 10
4.15343965
 20
2.36587090
  0
VERTEX
  8
ACANTHS.PLT
 62
7
 10
4.19290000
 20
2.36800000
  0
VERTEX
  8
ACANTHS.PLT
 62
7
 10
4.21270000
 20
2.36800000
  0
VERTEX
  8
ACANTHS.PLT
 62
7
 10
4.24733926
 20
2.36502871
  0
VERTEX
  8
ACANTHS.PLT
 62
7
 10
4.28108906
 20
2.35949219
  0
VERTEX
  8
ACANTHS.PLT
 62
7
 10
4.31388496
 20
2.35150645
  0
VERTEX
  8
ACANTHS.PLT
 62
7
 10
4.34566250
 20
2.34118750
  0
VERTEX
  8
ACANTHS.PLT
 62
7
 10
4.37635723
 20
2.32865137
  0
VERTEX
  8
ACANTHS.PLT
 62
7
 10
4.40590469
 20
2.31401406
  0
VERTEX
  8
ACANTHS.PLT
 62
7
 10
4.43424043
 20
2.29739160
  0
VERTEX
  8
ACANTHS.PLT
 62
7
 10
4.46130000
 20
2.27890000
  0
VERTEX
  8
ACANTHS.PLT
 62
7
 10
4.46872500
 20
2.31767500
  0
VERTEX
  8
ACANTHS.PLT
 62
7
 10
4.47120000
 20
2.35810000
  0
VERTEX
  8
ACANTHS.PLT
 62
7
 10
4.46752402
 20
2.40668047
  0
VERTEX
  8
ACANTHS.PLT
 62
7
 10
4.45684844
 20
2.45304375
  0
VERTEX
  8
ACANTHS.PLT
 62
7
 10
4.43970176
 20
2.49662266
  0
VERTEX
  8
ACANTHS.PLT
 62
7
 10
4.41661250
 20
2.53685000
  0
VERTEX
  8
ACANTHS.PLT
 62
7
 10
4.38810918
 20
2.57315859
  0
VERTEX
  8
ACANTHS.PLT
 62
7
 10
4.35472031
 20
2.60498125
  0
VERTEX
  8
ACANTHS.PLT
 62
7
 10
4.31697441
 20
2.63175078
  0
VERTEX
  8
ACANTHS.PLT
 62
7
 10
4.27540000
 20
2.65290000
  0
SEQEND
  0
POLYLINE
  8
ACANTHS.PLT
 62
7
 66
1
 70
1
  0
VERTEX
  8
ACANTHS.PLT
 62
7
 10
12.51310000
 20
0.34700000
  0
VERTEX
  8
ACANTHS.PLT
 62
7
 10
10.89940000
 20
0.34700000
  0
VERTEX
  8
ACANTHS.PLT
 62
7
 10
10.94110332
 20
0.35430898
  0
VERTEX
  8
ACANTHS.PLT
 62
7
 10
10.98202031
 20
0.36380938
  0
VERTEX
  8
ACANTHS.PLT
 62
7
 10
11.02208652
 20
0.37542383
  0
VERTEX
  8
ACANTHS.PLT
 62
7
 10
11.06123750
 20
0.38907500
  0
VERTEX
  8
ACANTHS.PLT
 62
7
 10
11.09940879
 20
0.40468555
  0
VERTEX
  8
ACANTHS.PLT
 62
7
 10
11.13653594
 20
0.42217813
  0
VERTEX
  8
ACANTHS.PLT
 62
7
 10
11.17255449
 20
0.44147539
  0
VERTEX
  8
ACANTHS.PLT
 62
7
 10
11.20740000
 20
0.46250000
  0
VERTEX
  8
ACANTHS.PLT
 62
7
 10
11.24937939
 20
0.49161455
  0
VERTEX
  8
ACANTHS.PLT
 62
7
 10
11.28944453
 20
0.52319766
  0
VERTEX
  8
ACANTHS.PLT
 62
7
 10
11.32748584
 20
0.55713975
  0
VERTEX
  8
ACANTHS.PLT
 62
7
 10
11.36339375
 20
0.59333125
  0
VERTEX
  8
ACANTHS.PLT
 62
7
 10
11.39705869
 20
0.63166260
  0
VERTEX
  8
ACANTHS.PLT
 62
7
 10
11.42837109
 20
0.67202422
  0
VERTEX
  8
ACANTHS.PLT
 62
7
 10
11.45722139
 20
0.71430654
  0
VERTEX
  8
ACANTHS.PLT
 62
7
 10
11.48350000
 20
0.75840000
  0
VERTEX
  8
ACANTHS.PLT
 62
7
 10
11.50709736
 20
0.80419502
  0
VERTEX
  8
ACANTHS.PLT
 62
7
 10
11.52790391
 20
0.85158203
  0
VERTEX
  8
ACANTHS.PLT
 62
7
 10
11.54581006
 20
0.90045146
  0
VERTEX
  8
ACANTHS.PLT
 62
7
 10
11.56070625
 20
0.95069375
  0
VERTEX
  8
ACANTHS.PLT
 62
7
 10
11.57248291
 20
1.00219932
  0
VERTEX
  8
ACANTHS.PLT
 62
7
 10
11.58103047
 20
1.05485859
  0
VERTEX
  8
ACANTHS.PLT
 62
7
 10
11.58623936
 20
1.10856201
  0
VERTEX
  8
ACANTHS.PLT
 62
7
 10
11.58800000
 20
1.16320000
  0
VERTEX
  8
ACANTHS.PLT
 62
7
 10
11.58800000
 20
1.18190000
  0
VERTEX
  8
ACANTHS.PLT
 62
7
 10
11.58800000
 20
1.18740000
  0
VERTEX
  8
ACANTHS.PLT
 62
7
 10
11.58419727
 20
1.25776992
  0
VERTEX
  8
ACANTHS.PLT
 62
7
 10
11.57304687
 20
1.32589688
  0
VERTEX
  8
ACANTHS.PLT
 62
7
 10
11.55493555
 20
1.39139414
  0
VERTEX
  8
ACANTHS.PLT
 62
7
 10
11.53025000
 20
1.45387500
  0
VERTEX
  8
ACANTHS.PLT
 62
7
 10
11.49937695
 20
1.51295273
  0
VERTEX
  8
ACANTHS.PLT
 62
7
 10
11.46270313
 20
1.56824062
  0
VERTEX
  8
ACANTHS.PLT
 62
7
 10
11.42061523
 20
1.61935195
  0
VERTEX
  8
ACANTHS.PLT
 62
7
 10
11.37350000
 20
1.66590000
  0
VERTEX
  8
ACANTHS.PLT
 62
7
 10
11.33782788
 20
1.70350571
  0
VERTEX
  8
ACANTHS.PLT
 62
7
 10
11.30056055
 20
1.73956133
  0
VERTEX
  8
ACANTHS.PLT
 62
7
 10
11.26175278
 20
1.77401206
  0
VERTEX
  8
ACANTHS.PLT
 62
7
 10
11.22145938
 20
1.80680313
  0
VERTEX
  8
ACANTHS.PLT
 62
7
 10
11.17973511
 20
1.83787974
  0
VERTEX
  8
ACANTHS.PLT
 62
7
 10
11.13663477
 20
1.86718711
  0
VERTEX
  8
ACANTHS.PLT
 62
7
 10
11.09221313
 20
1.89467046
  0
VERTEX
  8
ACANTHS.PLT
 62
7
 10
11.04652500
 20
1.92027500
  0
VERTEX
  8
ACANTHS.PLT
 62
7
 10
10.99962515
 20
1.94394595
  0
VERTEX
  8
ACANTHS.PLT
 62
7
 10
10.95156836
 20
1.96562852
  0
VERTEX
  8
ACANTHS.PLT
 62
7
 10
10.90240942
 20
1.98526792
  0
VERTEX
  8
ACANTHS.PLT
 62
7
 10
10.85220313
 20
2.00280938
  0
VERTEX
  8
ACANTHS.PLT
 62
7
 10
10.80100425
 20
2.01819810
  0
VERTEX
  8
ACANTHS.PLT
 62
7
 10
10.74886758
 20
2.03137930
  0
VERTEX
  8
ACANTHS.PLT
 62
7
 10
10.69584790
 20
2.04229819
  0
VERTEX
  8
ACANTHS.PLT
 62
7
 10
10.64200000
 20
2.05090000
  0
VERTEX
  8
ACANTHS.PLT
 62
7
 10
10.72326250
 20
2.05983750
  0
VERTEX
  8
ACANTHS.PLT
 62
7
 10
10.80700000
 20
2.06300000
  0
VERTEX
  8
ACANTHS.PLT
 62
7
 10
10.86825491
 20
2.06133818
  0
VERTEX
  8
ACANTHS.PLT
 62
7
 10
10.92862520
 20
2.05640859
  0
VERTEX
  8
ACANTHS.PLT
 62
7
 10
10.98802546
 20
2.04829502
  0
VERTEX
  8
ACANTHS.PLT
 62
7
 10
11.04637031
 20
2.03708125
  0
VERTEX
  8
ACANTHS.PLT
 62
7
 10
11.10357434
 20
2.02285107
  0
VERTEX
  8
ACANTHS.PLT
 62
7
 10
11.15955215
 20
2.00568828
  0
VERTEX
  8
ACANTHS.PLT
 62
7
 10
11.21421833
 20
1.98567666
  0
VERTEX
  8
ACANTHS.PLT
 62
7
 10
11.26748750
 20
1.96290000
  0
VERTEX
  8
ACANTHS.PLT
 62
7
 10
11.31927424
 20
1.93744209
  0
VERTEX
  8
ACANTHS.PLT
 62
7
 10
11.36949316
 20
1.90938672
  0
VERTEX
  8
ACANTHS.PLT
 62
7
 10
11.41805886
 20
1.87881768
  0
VERTEX
  8
ACANTHS.PLT
 62
7
 10
11.46488594
 20
1.84581875
  0
VERTEX
  8
ACANTHS.PLT
 62
7
 10
11.50988899
 20
1.81047373
  0
VERTEX
  8
ACANTHS.PLT
 62
7
 10
11.55298262
 20
1.77286641
  0
VERTEX
  8
ACANTHS.PLT
 62
7
 10
11.59408142
 20
1.73308057
  0
VERTEX
  8
ACANTHS.PLT
 62
7
 10
11.63310000
 20
1.69120000
  0
VERTEX
  8
ACANTHS.PLT
 62
7
 10
11.67186533
 20
1.65057788
  0
VERTEX
  8
ACANTHS.PLT
 62
7
 10
11.70892266
 20
1.60836055
  0
VERTEX
  8
ACANTHS.PLT
 62
7
 10
11.74421396
 20
1.56460278
  0
VERTEX
  8
ACANTHS.PLT
 62
7
 10
11.77768125
 20
1.51935938
  0
VERTEX
  8
ACANTHS.PLT
 62
7
 10
11.80926650
 20
1.47268511
  0
VERTEX
  8
ACANTHS.PLT
 62
7
 10
11.83891172
 20
1.42463477
  0
VERTEX
  8
ACANTHS.PLT
 62
7
 10
11.86655889
 20
1.37526313
  0
VERTEX
  8
ACANTHS.PLT
 62
7
 10
11.89215000
 20
1.32462500
  0
VERTEX
  8
ACANTHS.PLT
 62
7
 10
11.91562705
 20
1.27277515
  0
VERTEX
  8
ACANTHS.PLT
 62
7
 10
11.93693203
 20
1.21976836
  0
VERTEX
  8
ACANTHS.PLT
 62
7
 10
11.95600693
 20
1.16565942
  0
VERTEX
  8
ACANTHS.PLT
 62
7
 10
11.97279375
 20
1.11050312
  0
VERTEX
  8
ACANTHS.PLT
 62
7
 10
11.98723447
 20
1.05435425
  0
VERTEX
  8
ACANTHS.PLT
 62
7
 10
11.99927109
 20
0.99726758
  0
VERTEX
  8
ACANTHS.PLT
 62
7
 10
12.00884561
 20
0.93929790
  0
VERTEX
  8
ACANTHS.PLT
 62
7
 10
12.01590000
 20
0.88050000
  0
VERTEX
  8
ACANTHS.PLT
 62
7
 10
12.01700000
 20
0.85300000
  0
VERTEX
  8
ACANTHS.PLT
 62
7
 10
12.01339062
 20
0.80855312
  0
VERTEX
  8
ACANTHS.PLT
 62
7
 10
12.00297500
 20
0.76637500
  0
VERTEX
  8
ACANTHS.PLT
 62
7
 10
11.98637187
 20
0.72708438
  0
VERTEX
  8
ACANTHS.PLT
 62
7
 10
11.96420000
 20
0.69130000
  0
VERTEX
  8
ACANTHS.PLT
 62
7
 10
11.94649473
 20
0.67003906
  0
VERTEX
  8
ACANTHS.PLT
 62
7
 10
11.92650781
 20
0.65094375
  0
VERTEX
  8
ACANTHS.PLT
 62
7
 10
11.90443262
 20
0.63422031
  0
VERTEX
  8
ACANTHS.PLT
 62
7
 10
11.88046250
 20
0.62007500
  0
VERTEX
  8
ACANTHS.PLT
 62
7
 10
11.85479082
 20
0.60871406
  0
VERTEX
  8
ACANTHS.PLT
 62
7
 10
11.82761094
 20
0.60034375
  0
VERTEX
  8
ACANTHS.PLT
 62
7
 10
11.79911621
 20
0.59517031
  0
VERTEX
  8
ACANTHS.PLT
 62
7
 10
11.76950000
 20
0.59340000
  0
VERTEX
  8
ACANTHS.PLT
 62
7
 10
11.74179375
 20
0.59501777
  0
VERTEX
  8
ACANTHS.PLT
 62
7
 10
11.71491250
 20
0.59974219
  0
VERTEX
  8
ACANTHS.PLT
 62
7
 10
11.68906250
 20
0.60737988
  0
VERTEX
  8
ACANTHS.PLT
 62
7
 10
11.66445000
 20
0.61773750
  0
VERTEX
  8
ACANTHS.PLT
 62
7
 10
11.64128125
 20
0.63062168
  0
VERTEX
  8
ACANTHS.PLT
 62
7
 10
11.61976250
 20
0.64583906
  0
VERTEX
  8
ACANTHS.PLT
 62
7
 10
11.60010000
 20
0.66319629
  0
VERTEX
  8
ACANTHS.PLT
 62
7
 10
11.58250000
 20
0.68250000
  0
VERTEX
  8
ACANTHS.PLT
 62
7
 10
11.59094685
 20
0.64861995
  0
VERTEX
  8
ACANTHS.PLT
 62
7
 10
11.60217324
 20
0.61595645
  0
VERTEX
  8
ACANTHS.PLT
 62
7
 10
11.61604543
 20
0.58464324
  0
VERTEX
  8
ACANTHS.PLT
 62
7
 10
11.63242969
 20
0.55481406
  0
VERTEX
  8
ACANTHS.PLT
 62
7
 10
11.65119226
 20
0.52660266
  0
VERTEX
  8
ACANTHS.PLT
 62
7
 10
11.67219941
 20
0.50014277
  0
VERTEX
  8
ACANTHS.PLT
 62
7
 10
11.69531741
 20
0.47556814
  0
VERTEX
  8
ACANTHS.PLT
 62
7
 10
11.72041250
 20
0.45301250
  0
VERTEX
  8
ACANTHS.PLT
 62
7
 10
11.74735095
 20
0.43260959
  0
VERTEX
  8
ACANTHS.PLT
 62
7
 10
11.77599902
 20
0.41449316
  0
VERTEX
  8
ACANTHS.PLT
 62
7
 10
11.80622297
 20
0.39879695
  0
VERTEX
  8
ACANTHS.PLT
 62
7
 10
11.83788906
 20
0.38565469
  0
VERTEX
  8
ACANTHS.PLT
 62
7
 10
11.87086355
 20
0.37520012
  0
VERTEX
  8
ACANTHS.PLT
 62
7
 10
11.90501270
 20
0.36756699
  0
VERTEX
  8
ACANTHS.PLT
 62
7
 10
11.94020276
 20
0.36288904
  0
VERTEX
  8
ACANTHS.PLT
 62
7
 10
11.97630000
 20
0.36130000
  0
VERTEX
  8
ACANTHS.PLT
 62
7
 10
12.00533076
 20
0.36233232
  0
VERTEX
  8
ACANTHS.PLT
 62
7
 10
12.03380078
 20
0.36538203
  0
VERTEX
  8
ACANTHS.PLT
 62
7
 10
12.06163916
 20
0.37037822
  0
VERTEX
  8
ACANTHS.PLT
 62
7
 10
12.08877500
 20
0.37725000
  0
VERTEX
  8
ACANTHS.PLT
 62
7
 10
12.11513740
 20
0.38592646
  0
VERTEX
  8
ACANTHS.PLT
 62
7
 10
12.14065547
 20
0.39633672
  0
VERTEX
  8
ACANTHS.PLT
 62
7
 10
12.16525830
 20
0.40840986
  0
VERTEX
  8
ACANTHS.PLT
 62
7
 10
12.18887500
 20
0.42207500
  0
VERTEX
  8
ACANTHS.PLT
 62
7
 10
12.21143467
 20
0.43726123
  0
VERTEX
  8
ACANTHS.PLT
 62
7
 10
12.23286641
 20
0.45389766
  0
VERTEX
  8
ACANTHS.PLT
 62
7
 10
12.25309932
 20
0.47191338
  0
VERTEX
  8
ACANTHS.PLT
 62
7
 10
12.27206250
 20
0.49123750
  0
VERTEX
  8
ACANTHS.PLT
 62
7
 10
12.28968506
 20
0.51179912
  0
VERTEX
  8
ACANTHS.PLT
 62
7
 10
12.30589609
 20
0.53352734
  0
VERTEX
  8
ACANTHS.PLT
 62
7
 10
12.32062471
 20
0.55635127
  0
VERTEX
  8
ACANTHS.PLT
 62
7
 10
12.33380000
 20
0.58020000
  0
VERTEX
  8
ACANTHS.PLT
 62
7
 10
12.42097500
 20
0.46153750
  0
SEQEND
  0
POLYLINE
  8
ACANTHS.PLT
 62
7
 66
1
 70
1
  0
VERTEX
  8
ACANTHS.PLT
 62
7
 10
1.14380000
 20
2.65230000
  0
VERTEX
  8
ACANTHS.PLT
 62
7
 10
2.62550000
 20
2.65230000
  0
VERTEX
  8
ACANTHS.PLT
 62
7
 10
2.58064063
 20
2.63755312
  0
VERTEX
  8
ACANTHS.PLT
 62
7
 10
2.53887500
 20
2.61682500
  0
VERTEX
  8
ACANTHS.PLT
 62
7
 10
2.50082188
 20
2.59073437
  0
VERTEX
  8
ACANTHS.PLT
 62
7
 10
2.46710000
 20
2.55990000
  0
VERTEX
  8
ACANTHS.PLT
 62
7
 10
2.49959941
 20
2.51884336
  0
VERTEX
  8
ACANTHS.PLT
 62
7
 10
2.52847656
 20
2.47502813
  0
VERTEX
  8
ACANTHS.PLT
 62
7
 10
2.55351230
 20
2.42868633
  0
VERTEX
  8
ACANTHS.PLT
 62
7
 10
2.57448750
 20
2.38005000
  0
VERTEX
  8
ACANTHS.PLT
 62
7
 10
2.59118301
 20
2.32935117
  0
VERTEX
  8
ACANTHS.PLT
 62
7
 10
2.60337969
 20
2.27682187
  0
VERTEX
  8
ACANTHS.PLT
 62
7
 10
2.61085840
 20
2.22269414
  0
VERTEX
  8
ACANTHS.PLT
 62
7
 10
2.61340000
 20
2.16720000
  0
VERTEX
  8
ACANTHS.PLT
 62
7
 10
2.61035781
 20
2.10650664
  0
VERTEX
  8
ACANTHS.PLT
 62
7
 10
2.60143750
 20
2.04754062
  0
VERTEX
  8
ACANTHS.PLT
 62
7
 10
2.58694844
 20
1.99058555
  0
VERTEX
  8
ACANTHS.PLT
 62
7
 10
2.56720000
 20
1.93592500
  0
VERTEX
  8
ACANTHS.PLT
 62
7
 10
2.54250156
 20
1.88384258
  0
VERTEX
  8
ACANTHS.PLT
 62
7
 10
2.51316250
 20
1.83462188
  0
VERTEX
  8
ACANTHS.PLT
 62
7
 10
2.47949219
 20
1.78854648
  0
VERTEX
  8
ACANTHS.PLT
 62
7
 10
2.44180000
 20
1.74590000
  0
VERTEX
  8
ACANTHS.PLT
 62
7
 10
2.39546035
 20
1.68052734
  0
VERTEX
  8
ACANTHS.PLT
 62
7
 10
2.34333281
 20
1.61995000
  0
VERTEX
  8
ACANTHS.PLT
 62
7
 10
2.28581699
 20
1.56452891
  0
VERTEX
  8
ACANTHS.PLT
 62
7
 10
2.22331250
 20
1.51462500
  0
VERTEX
  8
ACANTHS.PLT
 62
7
 10
2.15621895
 20
1.47059922
  0
VERTEX
  8
ACANTHS.PLT
 62
7
 10
2.08493594
 20
1.43281250
  0
VERTEX
  8
ACANTHS.PLT
 62
7
 10
2.00986309
 20
1.40162578
  0
VERTEX
  8
ACANTHS.PLT
 62
7
 10
1.93140000
 20
1.37740000
  0
VERTEX
  8
ACANTHS.PLT
 62
7
 10
1.89391406
 20
1.36134687
  0
VERTEX
  8
ACANTHS.PLT
 62
7
 10
1.85426250
 20
1.34962500
  0
VERTEX
  8
ACANTHS.PLT
 62
7
 10
1.81275469
 20
1.34244063
  0
VERTEX
  8
ACANTHS.PLT
 62
7
 10
1.76970000
 20
1.34000000
  0
VERTEX
  8
ACANTHS.PLT
 62
7
 10
1.71903984
 20
1.34348047
  0
VERTEX
  8
ACANTHS.PLT
 62
7
 10
1.67049375
 20
1.35361250
  0
VERTEX
  8
ACANTHS.PLT
 62
7
 10
1.62452578
 20
1.36993203
  0
VERTEX
  8
ACANTHS.PLT
 62
7
 10
1.58160000
 20
1.39197500
  0
VERTEX
  8
ACANTHS.PLT
 62
7
 10
1.54218047
 20
1.41927734
  0
VERTEX
  8
ACANTHS.PLT
 62
7
 10
1.50673125
 20
1.45137500
  0
VERTEX
  8
ACANTHS.PLT
 62
7
 10
1.47571641
 20
1.48780391
  0
VERTEX
  8
ACANTHS.PLT
 62
7
 10
1.44960000
 20
1.52810000
  0
VERTEX
  8
ACANTHS.PLT
 62
7
 10
1.43280566
 20
1.56046621
  0
VERTEX
  8
ACANTHS.PLT
 62
7
 10
1.41795781
 20
1.59397969
  0
VERTEX
  8
ACANTHS.PLT
 62
7
 10
1.40514668
 20
1.62855020
  0
VERTEX
  8
ACANTHS.PLT
 62
7
 10
1.39446250
 20
1.66408750
  0
VERTEX
  8
ACANTHS.PLT
 62
7
 10
1.38599551
 20
1.70050137
  0
VERTEX
  8
ACANTHS.PLT
 62
7
 10
1.37983594
 20
1.73770156
  0
VERTEX
  8
ACANTHS.PLT
 62
7
 10
1.37607402
 20
1.77559785
  0
VERTEX
  8
ACANTHS.PLT
 62
7
 10
1.37480000
 20
1.81410000
  0
VERTEX
  8
ACANTHS.PLT
 62
7
 10
1.37612559
 20
1.85378809
  0
VERTEX
  8
ACANTHS.PLT
 62
7
 10
1.38004219
 20
1.89276719
  0
VERTEX
  8
ACANTHS.PLT
 62
7
 10
1.38645957
 20
1.93094707
  0
VERTEX
  8
ACANTHS.PLT
 62
7
 10
1.39528750
 20
1.96823750
  0
VERTEX
  8
ACANTHS.PLT
 62
7
 10
1.40643574
 20
2.00454824
  0
VERTEX
  8
ACANTHS.PLT
 62
7
 10
1.41981406
 20
2.03978906
  0
VERTEX
  8
ACANTHS.PLT
 62
7
 10
1.43533223
 20
2.07386973
  0
VERTEX
  8
ACANTHS.PLT
 62
7
 10
1.45290000
 20
2.10670000
  0
VERTEX
  8
ACANTHS.PLT
 62
7
 10
1.47259043
 20
2.13670508
  0
VERTEX
  8
ACANTHS.PLT
 62
7
 10
1.49595469
 20
2.16379688
  0
VERTEX
  8
ACANTHS.PLT
 62
7
 10
1.52264473
 20
2.18764023
  0
VERTEX
  8
ACANTHS.PLT
 62
7
 10
1.55231250
 20
2.20790000
  0
VERTEX
  8
ACANTHS.PLT
 62
7
 10
1.58460996
 20
2.22424102
  0
VERTEX
  8
ACANTHS.PLT
 62
7
 10
1.61918906
 20
2.23632813
  0
VERTEX
  8
ACANTHS.PLT
 62
7
 10
1.65570176
 20
2.24382617
  0
VERTEX
  8
ACANTHS.PLT
 62
7
 10
1.69380000
 20
2.24640000
  0
VERTEX
  8
ACANTHS.PLT
 62
7
 10
1.72393398
 20
2.24473066
  0
VERTEX
  8
ACANTHS.PLT
 62
7
 10
1.75316563
 20
2.23985156
  0
VERTEX
  8
ACANTHS.PLT
 62
7
 10
1.78131445
 20
2.23195605
  0
VERTEX
  8
ACANTHS.PLT
 62
7
 10
1.80820000
 20
2.22123750
  0
VERTEX
  8
ACANTHS.PLT
 62
7
 10
1.83364180
 20
2.20788926
  0
VERTEX
  8
ACANTHS.PLT
 62
7
 10
1.85745937
 20
2.19210469
  0
VERTEX
  8
ACANTHS.PLT
 62
7
 10
1.87947227
 20
2.17407715
  0
VERTEX
  8
ACANTHS.PLT
 62
7
 10
1.89950000
 20
2.15400000
  0
VERTEX
  8
ACANTHS.PLT
 62
7
 10
1.91797656
 20
2.12931875
  0
VERTEX
  8
ACANTHS.PLT
 62
7
 10
1.93181250
 20
2.10175000
  0
VERTEX
  8
ACANTHS.PLT
 62
7
 10
1.94049219
 20
2.07170625
  0
VERTEX
  8
ACANTHS.PLT
 62
7
 10
1.94350000
 20
2.03960000
  0
VERTEX
  8
ACANTHS.PLT
 62
7
 10
1.94030313
 20
2.00605000
  0
VERTEX
  8
ACANTHS.PLT
 62
7
 10
1.93112500
 20
1.97497500
  0
VERTEX
  8
ACANTHS.PLT
 62
7
 10
1.91658438
 20
1.94678750
  0
VERTEX
  8
ACANTHS.PLT
 62
7
 10
1.89730000
 20
1.92190000
  0
VERTEX
  8
ACANTHS.PLT
 62
7
 10
1.87469844
 20
1.90197969
  0
VERTEX
  8
ACANTHS.PLT
 62
7
 10
1.84848750
 20
1.88711250
  0
VERTEX
  8
ACANTHS.PLT
 62
7
 10
1.81918281
 20
1.87781406
  0
VERTEX
  8
ACANTHS.PLT
 62
7
 10
1.78730000
 20
1.87460000
  0
VERTEX
  8
ACANTHS.PLT
 62
7
 10
1.76627969
 20
1.87602656
  0
VERTEX
  8
ACANTHS.PLT
 62
7
 10
1.74618750
 20
1.88023750
  0
VERTEX
  8
ACANTHS.PLT
 62
7
 10
1.72712656
 20
1.88712969
  0
VERTEX
  8
ACANTHS.PLT
 62
7
 10
1.70920000
 20
1.89660000
  0
VERTEX
  8
ACANTHS.PLT
 62
7
 10
1.69340039
 20
1.90786641
  0
VERTEX
  8
ACANTHS.PLT
 62
7
 10
1.67912188
 20
1.92093750
  0
VERTEX
  8
ACANTHS.PLT
 62
7
 10
1.66654492
 20
1.93565859
  0
VERTEX
  8
ACANTHS.PLT
 62
7
 10
1.65585000
 20
1.95187500
  0
VERTEX
  8
ACANTHS.PLT
 62
7
 10
1.64721758
 20
1.96943203
  0
VERTEX
  8
ACANTHS.PLT
 62
7
 10
1.64082812
 20
1.98817500
  0
VERTEX
  8
ACANTHS.PLT
 62
7
 10
1.63686211
 20
2.00794922
  0
VERTEX
  8
ACANTHS.PLT
 62
7
 10
1.63550000
 20
2.02860000
  0
VERTEX
  8
ACANTHS.PLT
 62
7
 10
1.63694375
 20
2.05108125
  0
VERTEX
  8
ACANTHS.PLT
 62
7
 10
1.64127500
 20
2.07232500
  0
VERTEX
  8
ACANTHS.PLT
 62
7
 10
1.64849375
 20
2.09233125
  0
VERTEX
  8
ACANTHS.PLT
 62
7
 10
1.65860000
 20
2.11110000
  0
VERTEX
  8
ACANTHS.PLT
 62
7
 10
1.62267598
 20
2.08620605
  0
VERTEX
  8
ACANTHS.PLT
 62
7
 10
1.59024531
 20
2.05714844
  0
VERTEX
  8
ACANTHS.PLT
 62
7
 10
1.56170762
 20
2.02430098
  0
VERTEX
  8
ACANTHS.PLT
 62
7
 10
1.53746250
 20
1.98803750
  0
VERTEX
  8
ACANTHS.PLT
 62
7
 10
1.51790957
 20
1.94873184
  0
VERTEX
  8
ACANTHS.PLT
 62
7
 10
1.50344844
 20
1.90675781
  0
VERTEX
  8
ACANTHS.PLT
 62
7
 10
1.49447871
 20
1.86248926
  0
VERTEX
  8
ACANTHS.PLT
 62
7
 10
1.49140000
 20
1.81630000
  0
VERTEX
  8
ACANTHS.PLT
 62
7
 10
1.49403184
 20
1.77329473
  0
VERTEX
  8
ACANTHS.PLT
 62
7
 10
1.50172969
 20
1.73192656
  0
VERTEX
  8
ACANTHS.PLT
 62
7
 10
1.51419707
 20
1.69249199
  0
VERTEX
  8
ACANTHS.PLT
 62
7
 10
1.53113750
 20
1.65528750
  0
VERTEX
  8
ACANTHS.PLT
 62
7
 10
1.55225449
 20
1.62060957
  0
VERTEX
  8
ACANTHS.PLT
 62
7
 10
1.57725156
 20
1.58875469
  0
VERTEX
  8
ACANTHS.PLT
 62
7
 10
1.60583223
 20
1.56001934
  0
VERTEX
  8
ACANTHS.PLT
 62
7
 10
1.63770000
 20
1.53470000
  0
VERTEX
  8
ACANTHS.PLT
 62
7
 10
1.66053145
 20
1.51986289
  0
VERTEX
  8
ACANTHS.PLT
 62
7
 10
1.68443281
 20
1.50675313
  0
VERTEX
  8
ACANTHS.PLT
 62
7
 10
1.70933965
 20
1.49544805
  0
VERTEX
  8
ACANTHS.PLT
 62
7
 10
1.73518750
 20
1.48602500
  0
VERTEX
  8
ACANTHS.PLT
 62
7
 10
1.76191191
 20
1.47856133
  0
VERTEX
  8
ACANTHS.PLT
 62
7
 10
1.78944844
 20
1.47313438
  0
VERTEX
  8
ACANTHS.PLT
 62
7
 10
1.81773262
 20
1.46982148
  0
VERTEX
  8
ACANTHS.PLT
 62
7
 10
1.84670000
 20
1.46870000
  0
VERTEX
  8
ACANTHS.PLT
 62
7
 10
1.87731309
 20
1.46997402
  0
VERTEX
  8
ACANTHS.PLT
 62
7
 10
1.90721719
 20
1.47373594
  0
VERTEX
  8
ACANTHS.PLT
 62
7
 10
1.93632207
 20
1.47989551
  0
VERTEX
  8
ACANTHS.PLT
 62
7
 10
1.96453750
 20
1.48836250
  0
VERTEX
  8
ACANTHS.PLT
 62
7
 10
1.99177324
 20
1.49904668
  0
VERTEX
  8
ACANTHS.PLT
 62
7
 10
2.01793906
 20
1.51185781
  0
VERTEX
  8
ACANTHS.PLT
 62
7
 10
2.04294473
 20
1.52670566
  0
VERTEX
  8
ACANTHS.PLT
 62
7
 10
2.06670000
 20
1.54350000
  0
VERTEX
  8
ACANTHS.PLT
 62
7
 10
2.09794768
 20
1.56871460
  0
VERTEX
  8
ACANTHS.PLT
 62
7
 10
2.12770488
 20
1.59563398
  0
VERTEX
  8
ACANTHS.PLT
 62
7
 10
2.15589910
 20
1.62418403
  0
VERTEX
  8
ACANTHS.PLT
 62
7
 10
2.18245781
 20
1.65429062
  0
VERTEX
  8
ACANTHS.PLT
 62
7
 10
2.20730852
 20
1.68587964
  0
VERTEX
  8
ACANTHS.PLT
 62
7
 10
2.23037871
 20
1.71887695
  0
VERTEX
  8
ACANTHS.PLT
 62
7
 10
2.25159587
 20
1.75320845
  0
VERTEX
  8
ACANTHS.PLT
 62
7
 10
2.27088750
 20
1.78880000
  0
VERTEX
  8
ACANTHS.PLT
 62
7
 10
2.28818108
 20
1.82557749
  0
VERTEX
  8
ACANTHS.PLT
 62
7
 10
2.30340410
 20
1.86346680
  0
VERTEX
  8
ACANTHS.PLT
 62
7
 10
2.31648406
 20
1.90239380
  0
VERTEX
  8
ACANTHS.PLT
 62
7
 10
2.32734844
 20
1.94228437
  0
VERTEX
  8
ACANTHS.PLT
 62
7
 10
2.33592473
 20
1.98306440
  0
VERTEX
  8
ACANTHS.PLT
 62
7
 10
2.34214043
 20
2.02465977
  0
VERTEX
  8
ACANTHS.PLT
 62
7
 10
2.34592302
 20
2.06699634
  0
VERTEX
  8
ACANTHS.PLT
 62
7
 10
2.34720000
 20
2.11000000
  0
VERTEX
  8
ACANTHS.PLT
 62
7
 10
2.34458750
 20
2.17352500
  0
VERTEX
  8
ACANTHS.PLT
 62
7
 10
2.33620000
 20
2.23540000
  0
VERTEX
  8
ACANTHS.PLT
 62
7
 10
2.32703530
 20
2.27704934
  0
VERTEX
  8
ACANTHS.PLT
 62
7
 10
2.31449648
 20
2.31733066
  0
VERTEX
  8
ACANTHS.PLT
 62
7
 10
2.29874146
 20
2.35608767
  0
VERTEX
  8
ACANTHS.PLT
 62
7
 10
2.27992813
 20
2.39316406
  0
VERTEX
  8
ACANTHS.PLT
 62
7
 10
2.25821440
 20
2.42840354
  0
VERTEX
  8
ACANTHS.PLT
 62
7
 10
2.23375820
 20
2.46164980
  0
VERTEX
  8
ACANTHS.PLT
 62
7
 10
2.20671743
 20
2.49274656
  0
VERTEX
  8
ACANTHS.PLT
 62
7
 10
2.17725000
 20
2.52153750
  0
VERTEX
  8
ACANTHS.PLT
 62
7
 10
2.14551382
 20
2.54786633
  0
VERTEX
  8
ACANTHS.PLT
 62
7
 10
2.11166680
 20
2.57157676
  0
VERTEX
  8
ACANTHS.PLT
 62
7
 10
2.07586685
 20
2.59251248
  0
VERTEX
  8
ACANTHS.PLT
 62
7
 10
2.03827187
 20
2.61051719
  0
VERTEX
  8
ACANTHS.PLT
 62
7
 10
1.99903979
 20
2.62543459
  0
VERTEX
  8
ACANTHS.PLT
 62
7
 10
1.95832852
 20
2.63710840
  0
VERTEX
  8
ACANTHS.PLT
 62
7
 10
1.91629595
 20
2.64538230
  0
VERTEX
  8
ACANTHS.PLT
 62
7
 10
1.87310000
 20
2.65010000
  0
VERTEX
  8
ACANTHS.PLT
 62
7
 10
1.81040000
 20
2.65230000
  0
VERTEX
  8
ACANTHS.PLT
 62
7
 10
1.72923203
 20
2.64884102
  0
VERTEX
  8
ACANTHS.PLT
 62
7
 10
1.65007500
 20
2.63865313
  0
VERTEX
  8
ACANTHS.PLT
 62
7
 10
1.57318672
 20
2.62201992
  0
VERTEX
  8
ACANTHS.PLT
 62
7
 10
1.49882500
 20
2.59922500
  0
VERTEX
  8
ACANTHS.PLT
 62
7
 10
1.42724766
 20
2.57055195
  0
VERTEX
  8
ACANTHS.PLT
 62
7
 10
1.35871250
 20
2.53628438
  0
VERTEX
  8
ACANTHS.PLT
 62
7
 10
1.29347734
 20
2.49670586
  0
VERTEX
  8
ACANTHS.PLT
 62
7
 10
1.23180000
 20
2.45210000
  0
VERTEX
  8
ACANTHS.PLT
 62
7
 10
1.19190137
 20
2.40910977
  0
VERTEX
  8
ACANTHS.PLT
 62
7
 10
1.15392344
 20
2.36434063
  0
VERTEX
  8
ACANTHS.PLT
 62
7
 10
1.11793066
 20
2.31786992
  0
VERTEX
  8
ACANTHS.PLT
 62
7
 10
1.08398750
 20
2.26977500
  0
VERTEX
  8
ACANTHS.PLT
 62
7
 10
1.05215840
 20
2.22013320
  0
VERTEX
  8
ACANTHS.PLT
 62
7
 10
1.02250781
 20
2.16902188
  0
VERTEX
  8
ACANTHS.PLT
 62
7
 10
0.99510020
 20
2.11651836
  0
VERTEX
  8
ACANTHS.PLT
 62
7
 10
0.97000000
 20
2.06270000
  0
SEQEND
  0
POLYLINE
  8
ACANTHS.PLT
 62
7
 66
1
 70
1
  0
VERTEX
  8
ACANTHS.PLT
 62
7
 10
3.49300000
 20
2.65320000
  0
VERTEX
  8
ACANTHS.PLT
 62
7
 10
4.00780000
 20
2.65320000
  0
VERTEX
  8
ACANTHS.PLT
 62
7
 10
3.94300313
 20
2.63322813
  0
VERTEX
  8
ACANTHS.PLT
 62
7
 10
3.88047500
 20
2.60975000
  0
VERTEX
  8
ACANTHS.PLT
 62
7
 10
3.82000938
 20
2.58297188
  0
VERTEX
  8
ACANTHS.PLT
 62
7
 10
3.76140000
 20
2.55310000
  0
VERTEX
  8
ACANTHS.PLT
 62
7
 10
3.67491250
 20
2.46592500
  0
VERTEX
  8
ACANTHS.PLT
 62
7
 10
3.59420000
 20
2.37380000
  0
VERTEX
  8
ACANTHS.PLT
 62
7
 10
3.55904941
 20
2.32911035
  0
VERTEX
  8
ACANTHS.PLT
 62
7
 10
3.52625781
 20
2.28255156
  0
VERTEX
  8
ACANTHS.PLT
 62
7
 10
3.49591543
 20
2.23421387
  0
VERTEX
  8
ACANTHS.PLT
 62
7
 10
3.46811250
 20
2.18418750
  0
VERTEX
  8
ACANTHS.PLT
 62
7
 10
3.44293926
 20
2.13256270
  0
VERTEX
  8
ACANTHS.PLT
 62
7
 10
3.42048594
 20
2.07942969
  0
VERTEX
  8
ACANTHS.PLT
 62
7
 10
3.40084277
 20
2.02487871
  0
VERTEX
  8
ACANTHS.PLT
 62
7
 10
3.38410000
 20
1.96900000
  0
VERTEX
  8
ACANTHS.PLT
 62
7
 10
3.38300000
 20
2.00640000
  0
VERTEX
  8
ACANTHS.PLT
 62
7
 10
3.38411101
 20
2.04510061
  0
VERTEX
  8
ACANTHS.PLT
 62
7
 10
3.38740215
 20
2.08320020
  0
VERTEX
  8
ACANTHS.PLT
 62
7
 10
3.39281057
 20
2.12063914
  0
VERTEX
  8
ACANTHS.PLT
 62
7
 10
3.40027344
 20
2.15735781
  0
VERTEX
  8
ACANTHS.PLT
 62
7
 10
3.40972791
 20
2.19329661
  0
VERTEX
  8
ACANTHS.PLT
 62
7
 10
3.42111113
 20
2.22839590
  0
VERTEX
  8
ACANTHS.PLT
 62
7
 10
3.43436028
 20
2.26259607
  0
VERTEX
  8
ACANTHS.PLT
 62
7
 10
3.44941250
 20
2.29583750
  0
VERTEX
  8
ACANTHS.PLT
 62
7
 10
3.46620496
 20
2.32806057
  0
VERTEX
  8
ACANTHS.PLT
 62
7
 10
3.48467480
 20
2.35920566
  0
VERTEX
  8
ACANTHS.PLT
 62
7
 10
3.50475920
 20
2.38921316
  0
VERTEX
  8
ACANTHS.PLT
 62
7
 10
3.52639531
 20
2.41802344
  0
VERTEX
  8
ACANTHS.PLT
 62
7
 10
3.54952029
 20
2.44557688
  0
VERTEX
  8
ACANTHS.PLT
 62
7
 10
3.57407129
 20
2.47181387
  0
VERTEX
  8
ACANTHS.PLT
 62
7
 10
3.59998547
 20
2.49667478
  0
VERTEX
  8
ACANTHS.PLT
 62
7
 10
3.62720000
 20
2.52010000
  0
VERTEX
  8
ACANTHS.PLT
 62
7
 10
3.60112656
 20
2.56023281
  0
VERTEX
  8
ACANTHS.PLT
 62
7
 10
3.56958750
 20
2.59613750
  0
VERTEX
  8
ACANTHS.PLT
 62
7
 10
3.53330469
 20
2.62729844
  0
SEQEND
  0
POLYLINE
  8
ACANTHS.PLT
 62
7
 66
1
 70
1
  0
VERTEX
  8
ACANTHS.PLT
 62
7
 10
13.97850000
 20
0.76400000
  0
VERTEX
  8
ACANTHS.PLT
 62
7
 10
14.05266406
 20
0.82250625
  0
VERTEX
  8
ACANTHS.PLT
 62
7
 10
14.12136250
 20
0.88720000
  0
VERTEX
  8
ACANTHS.PLT
 62
7
 10
14.18407969
 20
0.95766875
  0
VERTEX
  8
ACANTHS.PLT
 62
7
 10
14.24030000
 20
1.03350000
  0
VERTEX
  8
ACANTHS.PLT
 62
7
 10
14.26022031
 20
1.06825313
  0
VERTEX
  8
ACANTHS.PLT
 62
7
 10
14.27508750
 20
1.10610000
  0
VERTEX
  8
ACANTHS.PLT
 62
7
 10
14.28438594
 20
1.14642187
  0
VERTEX
  8
ACANTHS.PLT
 62
7
 10
14.28760000
 20
1.18860000
  0
VERTEX
  8
ACANTHS.PLT
 62
7
 10
14.28482637
 20
1.22792715
  0
VERTEX
  8
ACANTHS.PLT
 62
7
 10
14.27675469
 20
1.26561719
  0
VERTEX
  8
ACANTHS.PLT
 62
7
 10
14.26375879
 20
1.30127051
  0
VERTEX
  8
ACANTHS.PLT
 62
7
 10
14.24621250
 20
1.33448750
  0
VERTEX
  8
ACANTHS.PLT
 62
7
 10
14.22448965
 20
1.36486855
  0
VERTEX
  8
ACANTHS.PLT
 62
7
 10
14.19896406
 20
1.39201406
  0
VERTEX
  8
ACANTHS.PLT
 62
7
 10
14.17000957
 20
1.41552441
  0
VERTEX
  8
ACANTHS.PLT
 62
7
 10
14.13800000
 20
1.43500000
  0
VERTEX
  8
ACANTHS.PLT
 62
7
 10
14.11228750
 20
1.44672187
  0
VERTEX
  8
ACANTHS.PLT
 62
7
 10
14.08492500
 20
1.45535000
  0
VERTEX
  8
ACANTHS.PLT
 62
7
 10
14.05632500
 20
1.46067812
  0
VERTEX
  8
ACANTHS.PLT
 62
7
 10
14.02690000
 20
1.46250000
  0
VERTEX
  8
ACANTHS.PLT
 62
7
 10
14.00226038
 20
1.46125686
  0
VERTEX
  8
ACANTHS.PLT
 62
7
 10
13.97833457
 20
1.45760801
  0
VERTEX
  8
ACANTHS.PLT
 62
7
 10
13.95524343
 20
1.45167429
  0
VERTEX
  8
ACANTHS.PLT
 62
7
 10
13.93310781
 20
1.44357656
  0
VERTEX
  8
ACANTHS.PLT
 62
7
 10
13.91204856
 20
1.43343567
  0
VERTEX
  8
ACANTHS.PLT
 62
7
 10
13.89218652
 20
1.42137246
  0
VERTEX
  8
ACANTHS.PLT
 62
7
 10
13.87364255
 20
1.40750779
  0
VERTEX
  8
ACANTHS.PLT
 62
7
 10
13.85653750
 20
1.39196250
  0
VERTEX
  8
ACANTHS.PLT
 62
7
 10
13.84099221
 20
1.37485745
  0
VERTEX
  8
ACANTHS.PLT
 62
7
 10
13.82712754
 20
1.35631348
  0
VERTEX
  8
ACANTHS.PLT
 62
7
 10
13.81506433
 20
1.33645144
  0
VERTEX
  8
ACANTHS.PLT
 62
7
 10
13.80492344
 20
1.31539219
  0
VERTEX
  8
ACANTHS.PLT
 62
7
 10
13.79682571
 20
1.29325657
  0
VERTEX
  8
ACANTHS.PLT
 62
7
 10
13.79089199
 20
1.27016543
  0
VERTEX
  8
ACANTHS.PLT
 62
7
 10
13.78724314
 20
1.24623962
  0
VERTEX
  8
ACANTHS.PLT
 62
7
 10
13.78600000
 20
1.22160000
  0
VERTEX
  8
ACANTHS.PLT
 62
7
 10
13.78703125
 20
1.19889531
  0
VERTEX
  8
ACANTHS.PLT
 62
7
 10
13.79012500
 20
1.17691250
  0
VERTEX
  8
ACANTHS.PLT
 62
7
 10
13.79528125
 20
1.15554844
  0
VERTEX
  8
ACANTHS.PLT
 62
7
 10
13.80250000
 20
1.13470000
  0
VERTEX
  8
ACANTHS.PLT
 62
7
 10
13.80140000
 20
1.15450000
  0
VERTEX
  8
ACANTHS.PLT
 62
7
 10
13.80454746
 20
1.18584570
  0
VERTEX
  8
ACANTHS.PLT
 62
7
 10
13.81358594
 20
1.21510313
  0
VERTEX
  8
ACANTHS.PLT
 62
7
 10
13.82790957
 20
1.24162773
  0
VERTEX
  8
ACANTHS.PLT
 62
7
 10
13.84691250
 20
1.26477500
  0
VERTEX
  8
ACANTHS.PLT
 62
7
 10
13.86998887
 20
1.28390039
  0
VERTEX
  8
ACANTHS.PLT
 62
7
 10
13.89653281
 20
1.29835937
  0
VERTEX
  8
ACANTHS.PLT
 62
7
 10
13.92593848
 20
1.30750742
  0
VERTEX
  8
ACANTHS.PLT
 62
7
 10
13.95760000
 20
1.31070000
  0
VERTEX
  8
ACANTHS.PLT
 62
7
 10
13.98889844
 20
1.30750742
  0
VERTEX
  8
ACANTHS.PLT
 62
7
 10
14.01803125
 20
1.29835937
  0
VERTEX
  8
ACANTHS.PLT
 62
7
 10
14.04437969
 20
1.28390039
  0
VERTEX
  8
ACANTHS.PLT
 62
7
 10
14.06732500
 20
1.26477500
  0
VERTEX
  8
ACANTHS.PLT
 62
7
 10
14.08624844
 20
1.24162773
  0
VERTEX
  8
ACANTHS.PLT
 62
7
 10
14.10053125
 20
1.21510313
  0
VERTEX
  8
ACANTHS.PLT
 62
7
 10
14.10955469
 20
1.18584570
  0
VERTEX
  8
ACANTHS.PLT
 62
7
 10
14.11270000
 20
1.15450000
  0
VERTEX
  8
ACANTHS.PLT
 62
7
 10
14.11160000
 20
1.13250000
  0
VERTEX
  8
ACANTHS.PLT
 62
7
 10
14.10330918
 20
1.08296348
  0
VERTEX
  8
ACANTHS.PLT
 62
7
 10
14.09250469
 20
1.03423906
  0
VERTEX
  8
ACANTHS.PLT
 62
7
 10
14.07925098
 20
0.98641699
  0
VERTEX
  8
ACANTHS.PLT
 62
7
 10
14.06361250
 20
0.93958750
  0
VERTEX
  8
ACANTHS.PLT
 62
7
 10
14.04565371
 20
0.89384082
  0
VERTEX
  8
ACANTHS.PLT
 62
7
 10
14.02543906
 20
0.84926719
  0
VERTEX
  8
ACANTHS.PLT
 62
7
 10
14.00303301
 20
0.80595684
  0
SEQEND
  0
POLYLINE
  8
ACANTHS.PLT
 62
7
 66
1
 70
1
  0
VERTEX
  8
ACANTHS.PLT
 62
7
 10
2.78410000
 20
2.65250000
  0
VERTEX
  8
ACANTHS.PLT
 62
7
 10
3.16580000
 20
2.65250000
  0
VERTEX
  8
ACANTHS.PLT
 62
7
 10
3.13795625
 20
2.63543281
  0
VERTEX
  8
ACANTHS.PLT
 62
7
 10
3.11217500
 20
2.61578750
  0
VERTEX
  8
ACANTHS.PLT
 62
7
 10
3.08845625
 20
2.59387344
  0
VERTEX
  8
ACANTHS.PLT
 62
7
 10
3.06680000
 20
2.57000000
  0
VERTEX
  8
ACANTHS.PLT
 62
7
 10
3.06320056
 20
2.51218286
  0
VERTEX
  8
ACANTHS.PLT
 62
7
 10
3.05697949
 20
2.45509727
  0
VERTEX
  8
ACANTHS.PLT
 62
7
 10
3.04819641
 20
2.39880444
  0
VERTEX
  8
ACANTHS.PLT
 62
7
 10
3.03691094
 20
2.34336563
  0
VERTEX
  8
ACANTHS.PLT
 62
7
 10
3.02318269
 20
2.28884204
  0
VERTEX
  8
ACANTHS.PLT
 62
7
 10
3.00707129
 20
2.23529492
  0
VERTEX
  8
ACANTHS.PLT
 62
7
 10
2.98863635
 20
2.18278550
  0
VERTEX
  8
ACANTHS.PLT
 62
7
 10
2.96793750
 20
2.13137500
  0
VERTEX
  8
ACANTHS.PLT
 62
7
 10
2.94503435
 20
2.08112466
  0
VERTEX
  8
ACANTHS.PLT
 62
7
 10
2.91998652
 20
2.03209570
  0
VERTEX
  8
ACANTHS.PLT
 62
7
 10
2.89285364
 20
1.98434937
  0
VERTEX
  8
ACANTHS.PLT
 62
7
 10
2.86369531
 20
1.93794688
  0
VERTEX
  8
ACANTHS.PLT
 62
7
 10
2.83257117
 20
1.89294946
  0
VERTEX
  8
ACANTHS.PLT
 62
7
 10
2.79954082
 20
1.84941836
  0
VERTEX
  8
ACANTHS.PLT
 62
7
 10
2.76466389
 20
1.80741479
  0
VERTEX
  8
ACANTHS.PLT
 62
7
 10
2.72800000
 20
1.76700000
  0
VERTEX
  8
ACANTHS.PLT
 62
7
 10
2.77756230
 20
1.85337793
  0
VERTEX
  8
ACANTHS.PLT
 62
7
 10
2.82131094
 20
1.94322344
  0
VERTEX
  8
ACANTHS.PLT
 62
7
 10
2.85900098
 20
2.03629160
  0
VERTEX
  8
ACANTHS.PLT
 62
7
 10
2.89038750
 20
2.13233750
  0
VERTEX
  8
ACANTHS.PLT
 62
7
 10
2.91522559
 20
2.23111621
  0
VERTEX
  8
ACANTHS.PLT
 62
7
 10
2.93327031
 20
2.33238281
  0
VERTEX
  8
ACANTHS.PLT
 62
7
 10
2.94427676
 20
2.43589238
  0
VERTEX
  8
ACANTHS.PLT
 62
7
 10
2.94800000
 20
2.54140000
  0
VERTEX
  8
ACANTHS.PLT
 62
7
 10
2.94800000
 20
2.55460000
  0
VERTEX
  8
ACANTHS.PLT
 62
7
 10
2.91326406
 20
2.58768594
  0
VERTEX
  8
ACANTHS.PLT
 62
7
 10
2.87388750
 20
2.61551250
  0
VERTEX
  8
ACANTHS.PLT
 62
7
 10
2.83059219
 20
2.63735781
  0
SEQEND
  0
POLYLINE
  8
ACANTHS.PLT
 62
7
 66
1
 70
1
  0
VERTEX
  8
ACANTHS.PLT
 62
7
 10
8.64200000
 20
2.42290000
  0
VERTEX
  8
ACANTHS.PLT
 62
7
 10
8.64534512
 20
2.38964434
  0
VERTEX
  8
ACANTHS.PLT
 62
7
 10
8.65494219
 20
2.35877344
  0
VERTEX
  8
ACANTHS.PLT
 62
7
 10
8.67013379
 20
2.33091895
  0
VERTEX
  8
ACANTHS.PLT
 62
7
 10
8.69026250
 20
2.30671250
  0
VERTEX
  8
ACANTHS.PLT
 62
7
 10
8.71467090
 20
2.28678574
  0
VERTEX
  8
ACANTHS.PLT
 62
7
 10
8.74270156
 20
2.27177031
  0
VERTEX
  8
ACANTHS.PLT
 62
7
 10
8.77369707
 20
2.26229785
  0
VERTEX
  8
ACANTHS.PLT
 62
7
 10
8.80700000
 20
2.25900000
  0
VERTEX
  8
ACANTHS.PLT
 62
7
 10
8.83993984
 20
2.26229785
  0
VERTEX
  8
ACANTHS.PLT
 62
7
 10
8.87066250
 20
2.27177031
  0
VERTEX
  8
ACANTHS.PLT
 62
7
 10
8.89849766
 20
2.28678574
  0
VERTEX
  8
ACANTHS.PLT
 62
7
 10
8.92277500
 20
2.30671250
  0
VERTEX
  8
ACANTHS.PLT
 62
7
 10
8.94282422
 20
2.33091895
  0
VERTEX
  8
ACANTHS.PLT
 62
7
 10
8.95797500
 20
2.35877344
  0
VERTEX
  8
ACANTHS.PLT
 62
7
 10
8.96755703
 20
2.38964434
  0
VERTEX
  8
ACANTHS.PLT
 62
7
 10
8.97090000
 20
2.42290000
  0
VERTEX
  8
ACANTHS.PLT
 62
7
 10
8.96755703
 20
2.45620293
  0
VERTEX
  8
ACANTHS.PLT
 62
7
 10
8.95797500
 20
2.48719844
  0
VERTEX
  8
ACANTHS.PLT
 62
7
 10
8.94282422
 20
2.51522910
  0
VERTEX
  8
ACANTHS.PLT
 62
7
 10
8.92277500
 20
2.53963750
  0
VERTEX
  8
ACANTHS.PLT
 62
7
 10
8.89849766
 20
2.55976621
  0
VERTEX
  8
ACANTHS.PLT
 62
7
 10
8.87066250
 20
2.57495781
  0
VERTEX
  8
ACANTHS.PLT
 62
7
 10
8.83993984
 20
2.58455488
  0
VERTEX
  8
ACANTHS.PLT
 62
7
 10
8.80700000
 20
2.58790000
  0
VERTEX
  8
ACANTHS.PLT
 62
7
 10
8.77369707
 20
2.58455488
  0
VERTEX
  8
ACANTHS.PLT
 62
7
 10
8.74270156
 20
2.57495781
  0
VERTEX
  8
ACANTHS.PLT
 62
7
 10
8.71467090
 20
2.55976621
  0
VERTEX
  8
ACANTHS.PLT
 62
7
 10
8.69026250
 20
2.53963750
  0
VERTEX
  8
ACANTHS.PLT
 62
7
 10
8.67013379
 20
2.51522910
  0
VERTEX
  8
ACANTHS.PLT
 62
7
 10
8.65494219
 20
2.48719844
  0
VERTEX
  8
ACANTHS.PLT
 62
7
 10
8.64534512
 20
2.45620293
  0
SEQEND
  0
POLYLINE
  8
ACANTHS.PLT
 62
7
 66
1
 70
1
  0
VERTEX
  8
ACANTHS.PLT
 62
7
 10
4.57200000
 20
2.44590000
  0
VERTEX
  8
ACANTHS.PLT
 62
7
 10
4.57534512
 20
2.41264434
  0
VERTEX
  8
ACANTHS.PLT
 62
7
 10
4.58494219
 20
2.38177344
  0
VERTEX
  8
ACANTHS.PLT
 62
7
 10
4.60013379
 20
2.35391895
  0
VERTEX
  8
ACANTHS.PLT
 62
7
 10
4.62026250
 20
2.32971250
  0
VERTEX
  8
ACANTHS.PLT
 62
7
 10
4.64467090
 20
2.30978574
  0
VERTEX
  8
ACANTHS.PLT
 62
7
 10
4.67270156
 20
2.29477031
  0
VERTEX
  8
ACANTHS.PLT
 62
7
 10
4.70369707
 20
2.28529785
  0
VERTEX
  8
ACANTHS.PLT
 62
7
 10
4.73700000
 20
2.28200000
  0
VERTEX
  8
ACANTHS.PLT
 62
7
 10
4.76993984
 20
2.28529785
  0
VERTEX
  8
ACANTHS.PLT
 62
7
 10
4.80066250
 20
2.29477031
  0
VERTEX
  8
ACANTHS.PLT
 62
7
 10
4.82849766
 20
2.30978574
  0
VERTEX
  8
ACANTHS.PLT
 62
7
 10
4.85277500
 20
2.32971250
  0
VERTEX
  8
ACANTHS.PLT
 62
7
 10
4.87282422
 20
2.35391895
  0
VERTEX
  8
ACANTHS.PLT
 62
7
 10
4.88797500
 20
2.38177344
  0
VERTEX
  8
ACANTHS.PLT
 62
7
 10
4.89755703
 20
2.41264434
  0
VERTEX
  8
ACANTHS.PLT
 62
7
 10
4.90090000
 20
2.44590000
  0
VERTEX
  8
ACANTHS.PLT
 62
7
 10
4.89755703
 20
2.47920293
  0
VERTEX
  8
ACANTHS.PLT
 62
7
 10
4.88797500
 20
2.51019844
  0
VERTEX
  8
ACANTHS.PLT
 62
7
 10
4.87282422
 20
2.53822910
  0
VERTEX
  8
ACANTHS.PLT
 62
7
 10
4.85277500
 20
2.56263750
  0
VERTEX
  8
ACANTHS.PLT
 62
7
 10
4.82849766
 20
2.58276621
  0
VERTEX
  8
ACANTHS.PLT
 62
7
 10
4.80066250
 20
2.59795781
  0
VERTEX
  8
ACANTHS.PLT
 62
7
 10
4.76993984
 20
2.60755488
  0
VERTEX
  8
ACANTHS.PLT
 62
7
 10
4.73700000
 20
2.61090000
  0
VERTEX
  8
ACANTHS.PLT
 62
7
 10
4.70369707
 20
2.60755488
  0
VERTEX
  8
ACANTHS.PLT
 62
7
 10
4.67270156
 20
2.59795781
  0
VERTEX
  8
ACANTHS.PLT
 62
7
 10
4.64467090
 20
2.58276621
  0
VERTEX
  8
ACANTHS.PLT
 62
7
 10
4.62026250
 20
2.56263750
  0
VERTEX
  8
ACANTHS.PLT
 62
7
 10
4.60013379
 20
2.53822910
  0
VERTEX
  8
ACANTHS.PLT
 62
7
 10
4.58494219
 20
2.51019844
  0
VERTEX
  8
ACANTHS.PLT
 62
7
 10
4.57534512
 20
2.47920293
  0
SEQEND
  0
POLYLINE
  8
ACANTHS.PLT
 62
7
 66
1
 70
1
  0
VERTEX
  8
ACANTHS.PLT
 62
7
 10
4.12200000
 20
0.55090000
  0
VERTEX
  8
ACANTHS.PLT
 62
7
 10
4.12534512
 20
0.51764434
  0
VERTEX
  8
ACANTHS.PLT
 62
7
 10
4.13494219
 20
0.48677344
  0
VERTEX
  8
ACANTHS.PLT
 62
7
 10
4.15013379
 20
0.45891895
  0
VERTEX
  8
ACANTHS.PLT
 62
7
 10
4.17026250
 20
0.43471250
  0
VERTEX
  8
ACANTHS.PLT
 62
7
 10
4.19467090
 20
0.41478574
  0
VERTEX
  8
ACANTHS.PLT
 62
7
 10
4.22270156
 20
0.39977031
  0
VERTEX
  8
ACANTHS.PLT
 62
7
 10
4.25369707
 20
0.39029785
  0
VERTEX
  8
ACANTHS.PLT
 62
7
 10
4.28700000
 20
0.38700000
  0
VERTEX
  8
ACANTHS.PLT
 62
7
 10
4.31993984
 20
0.39029785
  0
VERTEX
  8
ACANTHS.PLT
 62
7
 10
4.35066250
 20
0.39977031
  0
VERTEX
  8
ACANTHS.PLT
 62
7
 10
4.37849766
 20
0.41478574
  0
VERTEX
  8
ACANTHS.PLT
 62
7
 10
4.40277500
 20
0.43471250
  0
VERTEX
  8
ACANTHS.PLT
 62
7
 10
4.42282422
 20
0.45891895
  0
VERTEX
  8
ACANTHS.PLT
 62
7
 10
4.43797500
 20
0.48677344
  0
VERTEX
  8
ACANTHS.PLT
 62
7
 10
4.44755703
 20
0.51764434
  0
VERTEX
  8
ACANTHS.PLT
 62
7
 10
4.45090000
 20
0.55090000
  0
VERTEX
  8
ACANTHS.PLT
 62
7
 10
4.44755703
 20
0.58420293
  0
VERTEX
  8
ACANTHS.PLT
 62
7
 10
4.43797500
 20
0.61519844
  0
VERTEX
  8
ACANTHS.PLT
 62
7
 10
4.42282422
 20
0.64322910
  0
VERTEX
  8
ACANTHS.PLT
 62
7
 10
4.40277500
 20
0.66763750
  0
VERTEX
  8
ACANTHS.PLT
 62
7
 10
4.37849766
 20
0.68776621
  0
VERTEX
  8
ACANTHS.PLT
 62
7
 10
4.35066250
 20
0.70295781
  0
VERTEX
  8
ACANTHS.PLT
 62
7
 10
4.31993984
 20
0.71255488
  0
VERTEX
  8
ACANTHS.PLT
 62
7
 10
4.28700000
 20
0.71590000
  0
VERTEX
  8
ACANTHS.PLT
 62
7
 10
4.25369707
 20
0.71255488
  0
VERTEX
  8
ACANTHS.PLT
 62
7
 10
4.22270156
 20
0.70295781
  0
VERTEX
  8
ACANTHS.PLT
 62
7
 10
4.19467090
 20
0.68776621
  0
VERTEX
  8
ACANTHS.PLT
 62
7
 10
4.17026250
 20
0.66763750
  0
VERTEX
  8
ACANTHS.PLT
 62
7
 10
4.15013379
 20
0.64322910
  0
VERTEX
  8
ACANTHS.PLT
 62
7
 10
4.13494219
 20
0.61519844
  0
VERTEX
  8
ACANTHS.PLT
 62
7
 10
4.12534512
 20
0.58420293
  0
SEQEND
  0
ENDSEC
  0
EOF
