<svg width="287" height="296" viewBox="0 0 287 296" fill="none" xmlns="http://www.w3.org/2000/svg">
<g clip-path="url(#clip0_175_747)">
<path d="M123.385 147.187C129.385 149.487 136.285 149.987 142.585 151.287C149.485 152.687 156.485 154.387 162.685 157.887C175.085 164.887 183.385 177.787 191.285 189.187C191.985 187.887 192.785 186.687 193.485 185.387C175.785 183.687 157.785 188.587 140.985 180.887C134.285 177.787 128.385 173.287 123.385 167.987C120.785 165.287 118.485 162.187 116.485 159.087C114.585 156.287 113.385 152.987 111.185 150.387C110.385 149.487 108.985 150.287 108.985 151.287C108.585 158.287 114.085 166.087 118.285 171.287C123.385 177.587 129.985 182.687 137.285 186.187C144.585 189.687 152.285 191.587 160.285 191.787C171.485 191.987 182.485 189.487 193.685 190.587C195.585 190.787 196.885 188.287 195.885 186.787C187.585 174.887 178.885 161.887 165.985 154.487C159.685 150.887 152.685 148.987 145.585 147.787C138.485 146.587 131.185 145.187 124.085 144.787C122.185 144.487 122.085 146.687 123.385 147.187Z" fill="black"/>
<path d="M171.485 176.387C165.485 167.787 153.185 162.587 143.785 158.787C132.785 154.387 121.185 153.087 110.285 148.487C108.585 147.787 106.985 150.187 107.885 151.587C110.685 155.887 115.285 156.987 120.185 157.987C125.985 159.187 131.785 160.287 137.485 162.087C143.585 163.987 149.585 166.487 155.285 169.287C160.485 171.787 165.385 175.387 170.785 177.187C171.285 177.387 171.785 176.787 171.485 176.387Z" fill="black"/>
<path d="M49.9852 229.587C49.7852 208.287 50.7853 187.787 65.1853 170.887C71.1853 163.787 78.2853 157.087 86.6853 152.887C96.7853 147.887 106.185 148.387 116.585 152.087C120.085 153.287 121.685 148.287 118.985 146.387C110.285 140.187 97.3852 141.287 87.8852 145.087C77.8852 149.087 69.2852 156.387 62.3852 164.487C55.1852 172.887 49.3852 182.787 47.4852 193.887C45.4852 205.787 46.7852 217.787 48.3852 229.687C48.5852 230.487 49.9852 230.587 49.9852 229.587Z" fill="black"/>
<path d="M49.8852 234.287C50.7852 227.787 58.7853 228.687 63.6853 227.587C68.1853 226.587 72.4853 224.987 76.5853 223.087C85.2853 219.087 93.1853 212.687 99.0853 205.187C105.085 197.587 109.585 188.687 111.785 179.187C113.785 170.587 115.485 158.587 110.585 150.687C109.785 149.287 107.385 149.387 106.985 151.187C105.985 156.087 106.585 161.287 106.285 166.187C105.985 171.787 104.785 177.387 103.085 182.687C99.7853 192.887 93.6853 201.887 85.6853 208.987C77.9853 215.887 68.4853 220.787 58.4853 223.387C54.9853 224.287 50.6852 224.787 48.2852 227.987C46.6852 230.087 46.1853 233.087 48.1853 234.987C48.8853 235.587 49.7852 234.987 49.8852 234.287Z" fill="black"/>
<path d="M60.3852 213.087C64.9852 207.787 67.8852 200.787 71.6852 194.887C76.0852 188.087 80.8852 181.687 85.9852 175.487C90.5852 169.987 95.3852 164.187 101.285 160.087C103.985 158.187 106.785 156.887 109.885 155.887C112.785 154.987 115.985 154.987 118.185 152.787C119.285 151.687 119.185 150.087 118.185 148.987C113.685 143.987 104.385 148.387 99.7852 151.287C93.0852 155.487 87.8852 161.487 83.1852 167.787C77.8852 174.887 73.2852 182.587 69.0852 190.387C65.4852 197.187 60.5852 205.087 59.5852 212.887C59.5852 213.087 60.1852 213.287 60.3852 213.087Z" fill="black"/>
<path d="M50.0852 109.887C57.6852 106.687 64.7852 104.587 73.0852 105.487C80.9852 106.287 88.5852 109.587 94.6852 114.687C100.285 119.387 104.885 125.287 108.285 131.687C110.085 134.987 111.485 138.487 112.585 142.087C113.685 145.687 114.185 149.487 116.385 152.487C117.285 153.687 119.285 153.687 119.685 152.087C121.785 144.787 116.785 134.987 113.385 128.587C109.385 120.987 103.785 114.287 96.7852 109.187C83.5852 99.4869 62.6852 97.3869 48.9852 107.587C48.1852 108.387 48.6852 110.487 50.0852 109.887Z" fill="black"/>
<path d="M30.5852 115.687C38.5852 113.487 45.7852 111.187 54.2852 111.487C61.9852 111.787 69.8852 113.787 76.6852 117.387C83.5852 121.087 89.4852 126.487 94.3852 132.587C96.9852 135.887 99.2852 139.387 101.385 142.887C102.985 145.587 107.185 150.787 107.285 153.987C107.685 153.187 108.185 152.487 108.585 151.687C108.785 151.687 108.985 151.587 109.185 151.587C109.685 152.287 110.185 152.887 110.685 153.587C110.685 153.387 110.685 153.287 110.585 153.087C110.485 151.887 109.085 150.587 107.885 151.587C107.785 151.687 107.685 151.787 107.485 151.887C106.785 152.387 106.185 153.287 106.585 154.187C107.185 155.587 107.585 156.287 109.185 156.587C110.285 156.787 111.585 156.487 112.185 155.387C114.085 151.787 111.885 148.887 110.085 145.587C107.585 140.987 104.885 136.387 101.785 132.187C96.1852 124.487 89.4852 117.587 81.0852 113.187C66.3852 105.387 43.9852 103.487 29.8852 113.887C28.9852 114.487 29.4852 115.987 30.5852 115.687Z" fill="black"/>
<path d="M29.8852 115.887C39.0852 120.587 44.9852 126.787 51.1852 134.887C55.6852 140.787 60.7852 145.187 67.7852 147.787C80.2852 152.387 98.7852 150.987 108.885 141.487C110.185 140.287 108.785 138.387 107.285 138.687C93.1852 141.187 79.5852 147.287 65.6852 139.987C58.3852 136.187 54.3852 129.387 48.6852 123.687C43.6852 118.687 37.7852 115.087 30.9852 113.087C29.4852 112.687 28.3852 115.087 29.8852 115.887Z" fill="black"/>
<path d="M233.185 92.7869C226.885 89.7869 223.585 81.9869 223.585 75.3869C223.585 65.9869 230.285 58.9869 238.885 55.9869C247.985 52.7869 259.485 52.4869 268.385 56.4869C277.485 60.6869 281.785 69.7869 281.285 79.5869C280.085 101.887 257.585 111.887 238.185 113.987C226.285 115.287 214.385 114.287 202.485 113.887C191.585 113.487 180.885 114.687 170.185 116.887C158.985 119.187 147.785 122.887 137.785 128.587C132.585 131.487 127.485 134.987 122.685 138.587C117.785 142.287 113.585 145.787 111.985 151.887C111.185 155.187 114.085 157.887 117.285 157.187C123.285 155.987 127.485 151.987 132.185 148.187C137.285 144.087 143.085 140.887 148.885 137.887C160.085 131.887 171.685 126.987 184.185 124.787C209.685 120.187 237.585 125.087 261.485 113.387C278.985 104.787 292.185 84.6869 283.585 65.0869C274.985 45.6869 245.985 44.2869 229.485 53.3869C219.985 58.5869 213.085 67.2869 214.185 78.6869C215.185 88.9869 220.985 96.9869 231.785 97.5869C234.385 97.8869 235.585 93.8869 233.185 92.7869Z" fill="black"/>
<path d="M238.185 162.187C250.585 154.987 245.385 137.487 236.185 130.287C224.285 120.887 204.085 118.087 189.585 120.987C188.685 121.187 188.885 122.487 189.785 122.587C202.985 123.087 216.585 123.587 228.385 130.487C238.185 136.187 243.385 148.187 233.885 156.687C230.885 159.387 234.785 164.187 238.185 162.187Z" fill="black"/>
<path d="M68.9853 57.7869C62.5853 57.3869 54.8853 55.4869 50.8853 50.0869C45.7853 43.1869 50.0853 33.2869 54.5853 27.2869C65.5853 12.3869 86.7853 2.88687 105.185 4.38687C147.885 7.98687 156.885 60.0869 144.485 93.3869C140.585 103.887 134.485 113.287 127.485 121.987C123.985 126.287 120.385 130.587 116.785 134.887C113.385 138.987 109.385 142.487 108.685 147.987C108.485 149.387 110.185 150.487 111.385 150.087C116.985 148.187 120.285 142.387 123.885 137.987C127.785 133.287 131.685 128.587 135.385 123.687C142.385 114.587 147.685 104.587 150.785 93.4869C156.585 72.7869 155.285 49.4869 146.585 29.7869C137.985 10.1869 118.785 -1.11313 97.3853 0.0868702C86.2853 0.78687 75.3853 4.18687 65.7853 9.78687C56.6853 14.9869 47.3853 22.0869 41.7853 31.1869C36.0853 40.4869 36.4853 53.3869 45.5853 60.4869C52.8853 66.2869 64.0853 68.2869 70.0853 59.7869C70.7853 58.8869 69.8853 57.7869 68.9853 57.7869Z" fill="black"/>
<path d="M112.985 45.7868C112.085 47.0868 112.085 47.6868 112.985 47.6868C113.385 47.7868 113.885 47.7868 114.285 47.5868C115.385 47.7868 116.985 47.5868 118.085 47.7868C120.785 48.1868 123.285 49.1868 125.785 50.2868C131.385 52.6868 135.985 56.6868 138.985 61.9868C146.685 75.1868 142.985 89.5868 142.085 103.787C142.085 104.487 142.985 104.487 143.185 103.887C148.085 89.7868 148.485 71.4868 141.485 58.0868C136.385 48.3868 123.985 35.6868 111.785 41.6868C110.885 42.1868 110.085 43.4868 110.185 44.4868C110.485 47.3868 113.885 49.7868 115.285 46.1868C115.485 45.6868 115.185 45.0868 114.785 44.8868C114.685 44.7868 114.585 44.7868 114.385 44.6868C113.785 44.2868 112.685 44.9868 112.985 45.7868Z" fill="black"/>
<path d="M87.3852 148.987C76.7852 143.787 62.6852 148.587 52.7852 153.387C40.9852 159.187 30.7852 167.887 22.6852 178.187C6.68523 198.687 -3.61477 223.687 1.18523 249.987C3.38523 262.187 8.98521 275.187 18.3852 283.487C26.8852 290.887 38.0852 294.587 49.1852 295.487C58.8852 296.287 70.0852 295.187 78.4852 289.687C85.6852 284.987 91.5852 277.987 95.4852 270.287C99.2852 262.687 101.185 252.687 93.3852 246.687C83.4852 239.187 64.4852 240.587 61.1852 254.487C60.2852 258.387 65.0852 261.587 68.0852 258.487C71.4852 254.987 75.0852 251.187 80.2852 251.087C83.8852 250.987 88.6852 252.687 91.1852 255.387C95.8852 260.487 92.4852 268.787 89.2852 273.687C85.2852 279.687 79.5852 285.687 72.8852 288.587C63.9852 292.487 53.0852 292.687 43.6852 290.987C34.0852 289.287 24.3852 285.187 18.0852 277.587C10.4852 268.587 6.28521 256.187 5.38521 244.587C3.58521 222.887 13.2852 201.987 27.6852 186.187C35.7852 177.287 45.1852 169.487 55.5852 163.487C60.5852 160.587 65.8852 158.387 71.3852 156.687C76.5852 154.987 82.0852 154.587 87.1852 152.687C88.3852 152.187 89.1852 149.887 87.3852 148.987Z" fill="black"/>
<path d="M30.8852 239.287C26.4852 235.987 22.1852 231.887 20.3852 226.587C18.0852 219.887 19.3852 212.387 21.0852 205.687C22.8852 198.987 25.6852 192.587 29.4852 186.687C33.4852 180.487 38.8852 175.987 43.5852 170.387C44.2852 169.587 43.3852 168.487 42.4852 168.887C35.2852 172.287 29.7852 179.587 25.5852 186.187C20.9852 193.387 17.7852 201.487 16.0852 209.887C14.6852 217.287 14.1852 224.887 15.1852 232.387C16.0852 239.287 21.4852 246.387 29.1852 245.687C32.6852 245.287 33.6852 241.387 30.8852 239.287Z" fill="black"/>
<path d="M24.5852 134.587C20.9852 128.887 12.8852 133.387 9.88523 137.587C6.08523 143.087 6.48523 151.387 10.4852 156.787C19.8852 169.587 36.8852 171.487 50.5852 164.087C51.0852 163.787 50.7852 162.987 50.1852 163.187C39.6852 165.987 27.1852 168.187 18.9852 158.887C16.1852 155.687 14.8852 150.987 15.0852 146.887C15.1852 144.687 15.6852 142.287 17.2852 140.587C18.9852 138.787 21.0852 138.987 23.1852 138.187C24.5852 137.687 25.4852 136.087 24.5852 134.587Z" fill="black"/>
<path d="M167.485 16.9868C169.785 6.38685 155.185 2.78685 148.285 8.18685C137.485 16.5868 143.585 31.5868 148.785 41.0868C149.185 41.6868 150.185 41.2868 149.985 40.5868C147.485 33.1868 144.185 23.8868 148.885 16.6868C152.985 10.2868 160.785 10.1869 163.985 17.3869C164.685 18.9869 167.185 18.4868 167.485 16.9868Z" fill="black"/>
</g>
<defs>
<clipPath id="clip0_175_747">
<rect width="286.283" height="295.72" fill="white"/>
</clipPath>
</defs>
</svg>
