<svg width="229" height="878" viewBox="0 0 229 878" fill="none" xmlns="http://www.w3.org/2000/svg">
<g clip-path="url(#clip0_175_658)">
<path d="M9.26982 278.661C19.6698 256.461 26.8698 228.661 49.4698 215.561C71.4698 202.761 97.7698 207.361 118.97 219.461C120.47 220.361 122.27 218.161 120.87 216.961C101.07 199.261 72.0698 195.461 48.6698 208.061C36.9698 214.461 28.4698 224.561 22.3698 236.261C15.5698 249.161 9.56982 263.561 7.56982 278.061C7.56982 278.861 8.86982 279.661 9.26982 278.661Z" fill="black"/>
<path d="M144.37 222.661C125.47 209.861 98.3699 212.761 78.3699 221.261C59.0699 229.461 40.1699 243.461 27.7699 260.661C27.1699 261.561 28.4699 262.361 29.1699 261.761C45.3699 248.361 60.8699 235.261 81.1699 228.261C91.3699 224.761 101.67 222.361 112.57 221.861C123.17 221.461 133.57 222.561 144.07 223.861C144.67 223.861 144.77 222.961 144.37 222.661Z" fill="black"/>
<path d="M7.06981 276.661C30.7698 267.961 57.0698 269.161 80.5698 259.661C89.7698 255.961 98.5698 250.661 105.57 243.361C111.47 237.161 118.37 227.461 117.07 218.361C116.77 216.161 113.37 215.961 112.47 217.761C110.27 221.861 109.47 226.461 107.17 230.461C104.77 234.661 101.47 238.361 97.8698 241.661C90.5698 248.261 81.3698 253.061 72.1698 256.361C50.5698 264.061 27.3698 264.961 6.56981 275.261C5.86981 275.761 6.36981 276.961 7.06981 276.661Z" fill="black"/>
<path d="M39.3698 154.661C37.4698 154.661 35.5698 154.661 33.7698 154.561C33.8698 154.961 33.8698 155.461 33.9698 155.861C46.1698 151.661 58.8698 151.261 71.5698 153.361C83.2698 155.261 96.0698 158.161 106.67 163.561C116.77 168.661 123.67 177.261 128.87 187.161C131.17 191.561 133.47 196.461 133.37 201.661C133.27 207.461 129.97 210.561 127.87 215.461C127.37 216.561 127.97 217.961 129.37 217.961C134.77 218.061 138.07 212.461 139.47 207.861C141.07 202.561 140.37 196.861 138.57 191.661C134.37 180.261 126.57 168.361 116.37 161.461C104.57 153.561 89.4698 151.161 75.6698 149.461C61.4698 147.661 46.4698 147.761 33.5698 154.661C32.8698 155.061 33.3698 155.961 34.0698 155.861C35.8698 155.561 37.7698 155.261 39.5698 154.961C39.6698 154.961 39.5698 154.661 39.3698 154.661Z" fill="black"/>
<path d="M35.8699 156.661C55.6699 159.561 74.9699 164.061 91.6699 175.861C99.1699 181.161 105.97 187.761 111.17 195.261C116.37 202.661 118.47 211.261 122.97 218.961C123.87 220.561 126.27 219.761 126.37 218.061C126.77 209.061 120.97 199.561 116.07 192.461C110.67 184.761 103.97 178.061 96.2699 172.461C79.2699 160.161 56.9699 153.861 36.0699 154.961C35.1699 154.961 34.8699 156.561 35.8699 156.661Z" fill="black"/>
<path d="M36.2699 157.361C52.5699 163.061 65.4699 171.361 73.8699 186.861C77.4699 193.461 80.6699 200.561 86.7699 205.161C91.7699 208.961 99.2699 211.761 104.87 207.761C106.47 206.561 105.97 203.961 103.87 203.961C94.5699 203.761 88.8699 200.461 83.6699 192.561C79.5699 186.261 76.4699 179.561 71.4699 173.861C62.7699 164.061 49.6699 156.361 36.4699 156.161C35.6699 156.061 35.5699 157.161 36.2699 157.361Z" fill="black"/>
<path d="M126.67 323.861C118.67 302.161 107.97 278.761 112.57 255.061C114.37 245.761 118.27 236.761 124.37 229.561C130.57 222.261 138.77 217.961 147.67 214.661C150.17 213.761 149.77 210.161 147.07 209.961C125.87 208.761 110.57 232.061 106.97 250.561C101.97 276.161 113.07 302.561 125.57 324.361C125.77 325.061 126.87 324.561 126.67 323.861Z" fill="black"/>
<path d="M129.27 327.261C128.67 307.261 135.67 289.261 141.57 270.461C144.57 260.961 146.47 251.561 146.87 241.661C147.07 236.561 146.87 231.361 146.37 226.361C146.07 224.061 145.87 221.761 145.17 219.461C144.37 216.861 143.27 216.161 141.97 213.761C140.77 211.661 137.97 212.861 137.77 214.861C137.47 216.961 136.77 218.261 136.77 220.561C136.77 223.161 137.07 225.661 137.27 228.161C137.67 233.261 137.77 238.361 137.57 243.561C137.07 253.761 135.47 263.861 132.97 273.761C128.57 291.061 121.97 309.761 127.77 327.461C127.97 328.361 129.37 328.261 129.27 327.261Z" fill="black"/>
<path d="M130.47 323.761C130.77 308.561 139.97 297.661 149.57 286.761C157.87 277.261 165.67 267.161 168.57 254.561C171.07 243.861 169.57 232.361 162.97 223.361C158.77 217.561 147.37 208.161 139.57 211.761C138.67 212.161 138.47 213.661 139.27 214.261C142.67 217.061 147.27 217.461 150.77 220.461C154.47 223.661 157.27 228.061 159.07 232.561C163.27 243.461 160.97 255.761 155.97 265.961C146.87 284.761 124.37 300.761 128.27 323.961C128.47 325.261 130.37 324.861 130.47 323.761Z" fill="black"/>
<path d="M222.27 188.261C205.87 181.961 187.57 181.461 170.87 186.761C162.57 189.361 154.97 193.761 147.97 198.861C144.07 201.761 140.37 204.761 136.37 207.661C132.87 210.161 128.47 211.961 125.87 215.561C124.77 217.061 126.27 219.061 127.87 219.061C135.27 219.161 142.97 210.861 148.47 206.561C155.47 201.161 162.67 196.561 170.97 193.361C187.17 186.961 204.87 185.561 221.87 189.461C222.77 189.761 223.07 188.561 222.27 188.261Z" fill="black"/>
<path d="M228.17 192.361C224.97 182.661 216.87 176.261 207.57 172.661C195.87 168.061 181.17 166.361 168.67 167.261C157.57 168.061 147.77 172.961 141.07 181.761C135.57 188.861 130.47 200.861 135.27 209.561C136.17 211.161 138.67 210.761 139.17 209.061C140.27 205.261 140.47 201.261 141.57 197.461C142.77 193.261 144.57 189.261 147.37 185.861C153.57 177.961 162.77 174.761 172.47 174.161C191.07 173.061 215.97 175.061 226.07 193.261C226.57 194.561 228.67 193.761 228.17 192.361Z" fill="black"/>
<path d="M224.87 193.261C211.07 182.761 194.17 193.761 182.67 202.361C176.17 207.261 169.27 212.761 161.07 214.161C153.87 215.361 146.17 213.361 141.67 207.261C139.97 204.861 135.67 206.161 136.57 209.361C141.07 224.361 160.77 224.061 172.17 217.961C187.97 209.561 203.17 185.861 223.77 194.861C225.07 195.461 225.87 194.061 224.87 193.261Z" fill="black"/>
<path d="M222.77 276.661C219.17 261.661 207.37 248.461 195.97 238.561C189.87 233.261 183.17 228.461 176.27 224.161C169.37 219.761 161.87 214.561 154.07 212.161C150.57 211.061 147.27 216.061 150.37 218.561C156.37 223.461 164.07 226.761 170.87 230.561C177.47 234.261 183.97 238.261 190.17 242.561C196.37 246.961 202.47 251.661 207.67 257.261C213.17 263.261 217.37 270.161 221.57 277.161C221.87 277.861 222.97 277.461 222.77 276.661Z" fill="black"/>
<path d="M218.87 274.461C213.67 264.961 203.37 261.661 193.67 258.461C188.47 256.661 183.17 254.761 178.67 251.461C173.97 248.061 171.17 243.161 169.07 237.861C168.77 237.061 167.27 236.461 166.87 237.561C162.37 248.061 173.87 256.461 182.37 260.261C194.17 265.561 208.67 264.961 217.77 275.461C218.17 276.061 219.27 275.161 218.87 274.461Z" fill="black"/>
<path d="M220.57 276.361C226.17 260.661 220.17 241.961 209.27 229.961C203.67 223.761 196.47 219.061 188.77 216.061C182.27 213.561 171.27 210.461 164.97 214.761C164.07 215.361 163.87 216.861 164.97 217.361C167.77 218.661 170.47 218.861 173.47 219.161C177.37 219.561 181.07 220.361 184.77 221.661C192.17 224.061 199.07 228.061 204.57 233.661C215.97 245.261 219.17 260.461 219.17 276.261C219.07 277.061 220.27 277.161 220.57 276.361Z" fill="black"/>
<path d="M147.77 31.8607C147.57 47.7607 146.97 63.3607 144.87 79.1607C143.87 86.8607 142.87 94.5607 141.07 102.161C139.17 110.061 136.47 117.561 133.97 125.261C131.57 132.761 129.37 140.161 128.37 147.961C127.37 156.061 127.47 164.061 127.77 172.261C128.37 188.861 129.17 205.661 132.67 221.961C133.27 224.761 137.07 223.761 137.37 221.361C139.17 204.761 139.27 188.061 140.17 171.361C140.67 163.261 141.07 155.061 142.47 147.061C143.97 139.061 146.47 131.461 149.07 123.761C153.87 109.161 158.27 93.7607 158.77 78.3607C159.37 62.7607 156.77 46.0607 150.87 31.5607C150.27 29.8607 147.77 29.8607 147.77 31.8607Z" fill="black"/>
<path d="M143.87 30.1607C138.67 44.8607 133.47 60.6607 130.77 76.0607C128.27 89.9607 128.37 104.261 134.47 117.161C140.17 129.161 149.57 140.261 144.87 154.261C142.87 160.361 139.37 165.761 137.07 171.761C135.17 176.861 132.67 183.061 134.07 188.461C134.47 189.861 136.37 190.061 137.07 188.861C138.77 186.061 139.87 182.861 141.47 179.961C142.87 177.361 144.67 174.961 146.27 172.361C149.47 166.961 152.87 161.561 154.57 155.461C158.47 141.661 151.57 131.761 144.57 120.461C135.97 106.561 133.87 91.8607 136.47 75.8607C138.87 60.7607 145.17 45.8607 145.67 30.4607C145.57 29.3607 144.17 29.2607 143.87 30.1607Z" fill="black"/>
<path d="M155.87 48.5607C154.87 40.2607 152.77 32.7607 154.37 24.2607C155.17 20.3607 156.27 16.5607 158.27 13.0607C160.57 9.0607 162.57 6.9607 161.67 2.1607C161.47 0.760697 160.07 0.160698 158.87 0.0606983C148.67 -1.1393 144.27 15.7607 143.47 23.5607C142.47 32.7607 144.87 44.6607 152.87 50.2607C154.07 51.0607 156.07 49.9607 155.87 48.5607Z" fill="black"/>
<path d="M101.47 238.561C101.97 278.561 78.1699 311.761 70.1699 349.861C62.6699 385.661 70.1699 423.161 79.6699 457.861C84.4699 475.561 90.0699 492.961 95.2699 510.461C100.77 528.961 106.67 547.661 110.27 566.661C114.37 587.861 113.07 608.261 109.97 629.561C107.07 649.061 101.77 668.261 102.47 688.161C102.87 698.661 104.77 709.061 108.87 718.761C113.07 728.561 120.07 736.761 125.07 746.061C136.57 767.461 130.77 792.761 125.37 815.061C125.07 816.261 126.87 816.761 127.17 815.561C132.47 797.361 137.87 778.161 134.07 759.161C130.07 739.561 113.97 725.761 109.77 706.161C100.67 663.761 127.87 625.361 127.07 583.461C126.67 562.861 121.37 542.461 116.17 522.561C111.47 504.761 104.97 487.261 99.3699 469.761C88.3699 435.261 77.2699 398.461 81.1699 361.861C85.5699 319.961 112.67 281.061 105.27 237.861C104.67 236.061 101.37 236.561 101.47 238.561Z" fill="black"/>
<path d="M122.97 614.161C122.97 614.661 122.97 615.261 122.97 615.761C122.97 615.861 123.17 615.861 123.17 615.761C123.07 615.161 123.07 614.661 122.97 614.161C123.07 614.061 122.97 614.061 122.97 614.161Z" fill="black"/>
<path d="M144.77 876.861C153.47 863.761 156.17 849.161 152.77 833.861C149.57 819.161 142.57 805.561 138.87 790.961C136.97 783.661 136.17 776.061 136.87 768.561C137.87 758.861 140.97 749.361 140.17 739.461C139.37 729.361 135.07 720.661 129.77 712.161C124.07 703.161 119.17 694.361 116.77 683.861C111.87 663.061 117.47 642.561 121.77 622.261C125.27 606.061 119.97 592.661 111.17 579.261C107.17 573.161 102.97 567.161 100.07 560.561C95.8698 550.961 94.0698 540.061 93.1698 529.661C91.3698 507.861 93.7698 485.961 95.7698 464.361C98.0698 440.161 100.17 415.661 96.4698 391.461C94.5698 379.261 90.8698 367.461 88.1698 355.461C85.2698 342.661 84.7698 330.561 87.3698 317.661C87.5698 316.461 85.8698 315.561 85.2698 316.761C77.0698 334.761 84.0698 356.261 88.3698 374.461C93.5698 396.761 93.8698 418.761 91.4698 441.461C89.1698 463.561 85.1698 485.461 84.0698 507.661C83.1698 527.361 83.8698 548.461 91.9698 566.661C97.7698 579.661 108.77 590.861 111.37 605.161C112.97 614.161 109.87 622.761 107.87 631.461C105.57 641.461 103.77 651.561 103.37 661.761C102.97 671.961 103.97 682.361 107.07 692.161C110.17 702.061 115.37 710.561 120.77 719.361C126.27 728.261 129.67 736.961 128.67 747.561C127.77 756.761 125.17 765.761 125.57 775.161C126.17 792.461 134.77 807.161 141.17 822.761C148.47 840.461 151.07 857.761 142.37 875.461C141.57 877.061 143.77 878.361 144.77 876.861Z" fill="black"/>
<path d="M82.9699 352.461C80.9699 334.861 80.2699 317.261 83.6699 299.761C85.2699 291.561 87.5699 283.461 90.6699 275.661C94.0699 266.961 99.0699 259.161 103.07 250.761C104.07 248.661 101.37 246.061 99.5699 248.061C94.0699 254.561 90.2699 263.361 87.1699 271.261C83.6699 280.061 81.0699 289.261 79.4699 298.661C76.3699 316.561 76.1699 335.261 81.5699 352.661C81.7699 353.361 82.9699 353.261 82.9699 352.461Z" fill="black"/>
<path d="M80.2699 347.461C83.0699 336.461 87.2698 325.761 93.1698 316.161C99.1698 306.361 106.97 298.561 115.67 291.261C119.77 287.861 113.77 281.561 109.67 285.261C92.4698 300.861 80.7698 324.161 78.4698 347.161C78.4698 348.261 80.0699 348.461 80.2699 347.461Z" fill="black"/>
<path d="M100.47 510.661C85.0699 491.461 56.6699 492.961 38.1699 506.461C14.9699 523.361 7.16986 551.761 0.0698629 578.061C-0.430137 579.861 1.86986 581.261 3.26986 579.861C7.56986 575.361 14.2699 574.861 20.1699 574.361C25.5699 573.961 30.8699 573.561 36.0699 572.161C46.6699 569.461 56.3699 564.161 64.8699 557.161C82.1699 542.761 95.4699 519.861 97.6699 497.461C97.8699 495.061 94.1699 494.061 93.1699 496.261C88.2699 506.761 84.2699 517.661 78.3699 527.761C72.5699 537.561 65.1699 546.161 56.1699 553.261C47.5699 560.061 37.4699 565.061 26.7699 567.461C17.3699 569.561 7.86986 569.961 0.769864 577.261C1.86986 577.861 2.86986 578.461 3.96986 579.061C10.8699 555.361 18.7699 530.161 38.3699 513.661C54.9699 499.661 81.8699 496.261 97.2699 514.161C99.0699 516.761 102.47 513.161 100.47 510.661Z" fill="black"/>
<path d="M21.4698 557.161C32.7698 546.061 44.5698 534.861 57.7698 526.061C63.8698 521.961 70.4698 518.361 77.1698 515.361C80.6698 513.761 84.3699 512.461 88.0699 511.361C91.8699 510.261 96.0698 510.061 99.4698 507.961C101.57 506.661 101.37 503.161 98.7699 502.461C91.8699 500.661 82.6698 504.961 76.3698 507.661C68.5698 510.961 61.3698 515.461 54.6698 520.661C41.4698 530.861 30.4698 543.061 20.5698 556.461C20.0698 557.061 20.9698 557.661 21.4698 557.161Z" fill="black"/>
<path d="M100.57 510.461C119.97 515.461 137.37 522.961 150.67 538.661C157.37 546.561 162.27 555.961 165.27 565.961C168.37 576.161 168.47 586.261 169.17 596.761C169.27 598.661 172.07 599.261 172.67 597.261C178.47 576.661 168.57 551.861 155.47 536.061C142.57 520.561 121.47 508.261 100.77 508.861C99.8698 508.761 99.6698 510.161 100.57 510.461Z" fill="black"/>
<path d="M169.77 590.261C162.07 585.261 153.77 581.761 146.57 575.961C139.37 570.161 132.77 563.161 127.47 555.561C122.27 548.061 118.07 539.961 115.27 531.261C112.37 522.561 111.17 513.661 108.77 504.861C108.37 503.561 106.27 503.461 105.97 504.861C101.87 523.561 112.07 545.061 122.87 559.861C128.67 567.661 135.37 574.561 143.17 580.361C150.57 585.861 159.77 591.561 169.07 592.761C170.47 592.961 170.77 590.861 169.77 590.261Z" fill="black"/>
<path d="M150.97 559.861C147.47 553.561 142.77 547.761 138.67 541.861C134.97 536.561 131.37 531.261 127.47 526.161C122.27 519.461 113.07 509.761 103.57 512.261C101.37 512.861 101.17 515.761 102.97 516.961C106.77 519.461 111.17 520.661 114.87 523.561C118.67 526.461 121.97 530.061 125.17 533.661C133.27 542.761 140.57 552.961 149.47 561.261C150.17 561.961 151.57 560.861 150.97 559.861Z" fill="black"/>
<path d="M171.27 498.661C163.07 485.061 146.47 477.661 130.87 478.061C122.27 478.261 113.67 481.061 106.07 484.961C100.57 487.861 89.0698 493.561 90.1698 500.961C90.2698 501.661 91.0698 502.461 91.7698 502.561C95.0698 503.261 96.9698 501.561 99.4698 499.661C102.57 497.361 105.67 495.161 109.07 493.361C115.47 489.761 122.27 487.461 129.57 486.461C144.77 484.361 159.17 488.961 170.17 499.561C170.77 500.061 171.67 499.361 171.27 498.661Z" fill="black"/>
<path d="M171.37 500.161C168.97 489.161 151.57 498.861 146.47 501.561C140.27 504.861 133.97 508.461 127.17 510.061C120.07 511.761 114.27 509.661 107.27 509.061C105.47 508.861 104.37 511.161 105.17 512.661C110.97 522.261 126.17 519.361 134.67 515.761C140.57 513.261 145.87 509.661 151.27 506.261C155.57 503.561 164.77 496.061 169.57 501.161C170.37 501.961 171.57 501.161 171.37 500.161Z" fill="black"/>
<path d="M161.07 493.761C150.27 489.461 138.37 489.161 127.17 491.961C116.77 494.561 104.37 500.761 98.6699 510.261C96.7699 513.461 100.97 516.061 103.57 513.961C107.47 510.761 110.87 507.061 115.07 504.161C119.47 501.161 124.27 498.761 129.37 496.961C139.47 493.361 150.27 492.861 160.87 494.761C161.47 494.961 161.67 493.961 161.07 493.761Z" fill="black"/>
<path d="M43.7698 479.361C55.7698 477.061 67.8698 477.561 79.4698 481.661C85.2698 483.761 110.77 495.961 104.57 504.161C103.67 505.361 104.67 506.761 105.77 507.161C108.57 508.261 111.17 506.661 112.37 503.961C113.87 500.561 112.27 497.161 110.17 494.461C105.17 487.861 97.4698 482.561 89.9698 479.261C75.2698 472.761 58.0698 471.461 43.0698 477.861C42.1698 478.161 42.8698 479.561 43.7698 479.361Z" fill="black"/>
<path d="M47.5699 480.661C48.2699 484.061 50.9699 486.761 53.1699 489.261C55.9699 492.561 59.1699 495.661 62.4699 498.361C67.8699 502.861 74.2699 506.661 81.1699 508.161C91.5699 510.361 109.27 507.861 111.67 495.061C111.87 493.861 110.57 492.461 109.37 493.361C105.17 496.461 101.67 499.461 96.5699 501.061C91.1699 502.761 85.1699 502.661 79.6699 501.061C73.0699 499.161 67.1699 495.161 61.8699 490.961C57.6699 487.561 53.4699 481.661 48.1699 480.061C47.7699 479.761 47.4699 480.261 47.5699 480.661Z" fill="black"/>
<path d="M60.8699 483.761C67.4699 486.161 73.3699 489.961 78.0699 495.261C80.1699 497.661 81.9699 500.261 83.4699 503.061C84.8699 505.661 85.6699 508.961 87.8699 510.961C88.7699 511.761 90.5699 511.561 90.7699 510.161C91.8699 503.861 85.0699 496.461 80.7699 492.461C75.2699 487.261 68.6699 483.661 61.3699 481.761C60.1699 481.361 59.6699 483.261 60.8699 483.761Z" fill="black"/>
<path d="M100.27 794.061C101.47 781.361 103.47 769.261 108.77 757.461C113.77 746.361 121.97 737.861 128.07 727.561C128.87 726.161 127.27 724.861 125.97 725.461C114.47 730.861 106.97 744.361 102.47 755.661C97.7699 767.661 95.3699 781.561 98.0699 794.361C98.2699 795.661 100.17 795.261 100.27 794.061Z" fill="black"/>
<path d="M102.57 804.361C95.7699 792.561 88.8699 779.861 89.0699 765.961C89.3699 752.661 98.2699 741.361 111.97 740.061C114.67 739.861 115.07 736.461 112.57 735.461C97.4699 729.761 83.6699 744.261 81.6699 758.561C79.1699 776.761 89.9699 791.961 100.17 805.761C101.27 807.061 103.47 805.861 102.57 804.361Z" fill="black"/>
<path d="M100.57 803.661C100.87 787.861 114.27 778.661 119.27 764.661C120.97 759.861 121.47 754.361 119.97 749.461C118.87 745.761 115.87 740.061 111.37 740.361C109.97 740.461 109.17 741.561 109.37 742.961C109.77 745.261 111.47 746.561 112.47 748.561C113.57 750.961 114.07 753.661 114.07 756.261C114.07 762.361 110.87 767.761 107.87 772.861C102.27 782.061 94.5699 792.561 97.8699 803.961C98.2699 805.561 100.57 805.261 100.57 803.661Z" fill="black"/>
<path d="M129.07 411.961C126.37 402.561 117.67 395.361 110.17 389.661C101.37 382.961 93.4698 376.461 87.2698 367.261C86.6698 366.361 85.2698 366.661 85.2698 367.761C85.0698 377.961 93.8698 385.561 101.57 390.961C111.17 397.561 120.57 402.761 127.17 412.761C127.77 413.661 129.37 413.161 129.07 411.961Z" fill="black"/>
<path d="M136.17 431.461C124.97 426.061 114.27 419.061 106.87 408.761C103.17 403.761 100.17 398.261 98.8698 392.061C97.5698 385.661 98.7698 380.261 100.67 374.161C101.07 372.861 99.3698 371.361 98.1698 372.261C85.7698 380.961 92.6698 400.461 99.6698 410.361C108.07 422.261 121.27 431.261 135.87 432.661C136.47 432.761 136.67 431.761 136.17 431.461Z" fill="black"/>
<path d="M132.57 434.561C136.77 426.061 136.07 413.961 134.87 404.861C133.57 394.861 130.17 384.361 124.17 376.161C119.47 369.661 111.87 364.361 103.67 367.561C98.1698 369.661 91.3698 377.861 96.9698 383.161C97.8698 384.061 99.8698 383.761 100.07 382.361C100.57 379.461 100.77 376.961 103.27 375.061C106.07 372.961 109.37 372.961 112.47 374.561C118.57 377.661 121.97 385.161 124.57 391.161C127.37 397.761 129.37 404.961 130.37 412.061C131.47 419.461 130.17 426.761 130.67 434.061C130.77 434.961 132.07 435.461 132.57 434.561Z" fill="black"/>
<path d="M79.2699 113.261C91.4699 109.461 103.87 102.761 113.97 94.9607C123.37 87.6607 134.47 78.4607 139.07 67.0607C139.57 65.7607 137.77 64.2607 136.57 65.1607C131.87 68.6607 128.07 73.2607 124.07 77.4607C119.77 81.9607 115.17 86.2607 110.37 90.2607C100.37 98.7607 90.0699 105.761 78.9699 112.561C78.5699 112.761 78.7699 113.361 79.2699 113.261Z" fill="black"/>
<path d="M61.9699 126.361C74.9699 118.761 82.1699 102.961 91.4699 91.6607C101.37 79.5607 117.57 69.2607 132.67 79.0607C135.77 81.0607 139.57 76.2607 136.67 73.8607C123.27 63.2607 104.97 69.0607 93.7699 80.0607C87.5699 86.1607 82.7699 93.5607 78.3699 101.061C73.1699 109.761 67.6699 117.561 61.2699 125.261C60.5699 125.861 61.1699 126.761 61.9699 126.361Z" fill="black"/>
<path d="M62.5699 129.261C79.9699 133.361 99.8699 127.961 113.67 116.961C120.17 111.761 125.77 105.161 129.57 97.6607C132.47 92.0607 137.97 80.6607 133.77 74.6607C133.07 73.6607 131.67 73.2607 130.77 74.2607C128.47 76.6607 128.27 79.7607 127.57 82.8607C126.57 86.6607 125.27 90.4607 123.47 93.9607C120.17 100.461 115.57 106.261 109.97 110.961C96.4699 122.261 79.8699 125.361 62.8699 127.061C61.6699 127.261 61.2699 128.961 62.5699 129.261Z" fill="black"/>
</g>
<defs>
<clipPath id="clip0_175_658">
<rect width="228.246" height="877.523" fill="white"/>
</clipPath>
</defs>
</svg>
