<svg width="765" height="672" viewBox="0 0 765 672" fill="none" xmlns="http://www.w3.org/2000/svg">
<path d="M533.662 559.19C529.362 547.59 519.962 537.29 511.162 528.79C501.762 519.69 491.162 511.99 479.962 505.29C480.462 506.09 480.862 506.89 481.362 507.69C481.562 503.29 487.962 501.39 491.162 499.89C495.262 497.99 499.262 496.09 503.362 494.09C511.362 490.29 519.362 486.29 527.462 482.69C531.462 480.89 535.862 478.99 540.362 479.29C544.262 479.59 547.862 481.39 551.362 482.89C558.362 485.79 564.162 485.69 571.662 485.39C576.862 485.19 579.662 486.39 583.662 489.69C586.062 491.69 588.362 492.69 591.562 493.19C593.062 493.39 594.762 493.39 596.162 493.69C599.062 493.99 600.062 495.89 599.262 499.39C598.562 500.09 597.862 500.79 597.162 501.49C594.462 504.29 591.862 507.19 589.362 510.19C584.662 515.89 580.362 521.89 576.562 528.29C572.862 534.39 568.762 541.19 567.162 548.19C566.762 549.79 568.962 550.69 569.862 549.29C573.862 542.99 576.462 535.89 580.362 529.49C584.462 522.79 589.162 516.39 594.362 510.49C597.462 506.99 604.662 502.29 604.662 496.99C604.562 491.99 599.362 489.79 595.162 489.19C592.562 488.79 590.462 488.79 588.162 487.49C586.662 486.59 585.562 485.39 584.162 484.29C581.862 482.39 579.362 481.39 576.462 480.99C569.262 479.99 562.562 481.99 555.562 479.29C549.362 476.79 543.762 473.49 536.762 474.29C529.562 475.09 522.762 479.09 516.262 482.09C507.262 486.29 498.262 490.49 489.262 494.69C483.362 497.49 476.162 500.19 475.762 507.69C475.662 508.69 476.362 509.59 477.162 510.09C487.962 516.59 498.362 523.69 507.662 532.29C516.862 540.79 523.362 550.99 531.262 560.49C532.162 561.69 534.162 560.49 533.662 559.19Z" fill="black"/>
<path d="M488.162 510.79C484.162 506.59 478.362 506.29 473.562 509.39C468.362 512.79 466.362 518.99 466.862 524.99C467.062 527.59 467.662 529.99 466.262 532.39C465.462 533.79 464.162 534.89 463.062 536.09C460.362 538.69 457.862 541.39 455.762 544.59C452.062 550.09 449.462 556.69 449.462 563.39C449.462 571.29 454.662 577.29 455.362 584.99C455.962 591.59 458.662 597.79 464.162 602.09C470.062 606.69 477.162 598.89 481.962 595.89C489.262 591.19 497.262 588.09 504.662 583.59C506.062 582.69 505.162 580.59 503.562 580.89C497.862 582.09 492.362 584.99 487.262 587.69C484.462 589.19 481.762 590.79 479.062 592.49C476.862 593.89 473.762 596.99 471.262 597.69C466.562 598.99 463.662 594.99 461.762 591.39C460.062 588.09 460.562 584.79 459.962 581.19C458.962 575.39 454.762 570.79 454.262 564.69C453.862 558.79 455.862 552.99 458.962 547.99C461.862 543.29 466.362 540.09 469.462 535.59C472.662 531.09 471.062 526.99 471.262 521.89C471.562 513.39 479.762 508.19 487.562 511.69C487.962 512.09 488.662 511.29 488.162 510.79Z" fill="black"/>
<path d="M503.762 580.79C491.562 584.59 479.062 592.89 472.062 603.69C469.362 607.89 467.262 613.39 468.562 618.39C469.962 623.59 474.362 625.59 478.962 627.19C482.962 628.59 484.362 629.89 486.662 633.49C487.962 635.49 489.462 636.89 491.762 637.49C494.862 638.29 498.162 637.69 501.262 638.89C504.462 640.09 507.262 642.39 509.962 644.39C514.962 648.09 520.062 650.89 526.362 651.19C533.362 651.49 540.262 649.19 546.562 646.39C553.262 643.39 557.662 641.29 557.162 633.39C556.562 623.89 556.062 614.39 554.362 605.09C554.062 603.59 551.962 604.09 551.862 605.39C551.362 613.79 551.962 622.09 552.362 630.49C552.462 631.99 552.862 634.39 552.562 635.79C551.862 638.89 549.462 639.59 547.162 640.59C543.462 642.29 539.562 643.89 535.662 644.89C527.762 647.09 520.962 645.99 514.262 641.39C509.462 637.99 504.862 634.09 498.862 633.29C497.662 633.09 496.562 633.19 495.362 633.09C492.462 632.89 491.362 631.49 489.762 629.19C488.362 627.19 487.162 625.69 484.862 624.49C479.262 621.49 471.062 621.29 472.962 612.49C474.462 605.49 480.462 599.59 485.562 594.99C491.162 589.89 497.662 585.69 504.262 582.09C505.062 581.79 504.562 580.59 503.762 580.79Z" fill="black"/>
<path d="M575.562 535.39C582.862 525.59 591.562 517.99 603.762 514.99C606.862 514.19 610.162 513.69 613.362 513.79C617.762 513.99 619.362 517.59 621.162 520.99C624.362 526.99 627.562 533.09 630.262 539.39C632.962 545.69 635.262 552.19 636.762 558.79C637.862 563.69 640.762 575.79 636.462 579.29C633.762 581.49 629.262 580.39 625.862 580.29C622.362 580.19 618.762 580.09 615.262 579.99C607.862 579.79 600.362 579.09 593.062 579.99C591.762 580.19 591.162 582.29 592.762 582.59C602.362 584.49 612.362 584.29 622.062 584.69C627.262 584.89 637.962 587.59 641.562 582.39C645.062 577.39 643.162 567.39 642.262 561.79C640.862 553.19 637.862 544.99 634.262 537.09C632.362 532.99 630.362 529.09 628.262 525.19C626.162 521.39 624.262 516.79 621.462 513.39C617.562 508.79 611.062 509.79 605.762 510.89C592.862 513.49 579.662 522.59 574.562 534.89C574.162 535.59 575.262 535.89 575.562 535.39Z" fill="black"/>
<path d="M567.462 572.99C581.962 578.79 597.662 583.79 610.862 592.39C613.862 594.29 616.662 596.39 619.162 598.89C621.162 600.79 622.862 602.49 620.662 605.49C619.662 606.79 618.162 607.79 617.062 609.09C615.562 610.99 614.362 612.99 613.362 615.19C612.562 617.09 612.262 620.19 611.162 621.69C609.862 623.39 607.162 623.49 605.362 623.49C599.462 623.49 594.962 624.79 590.162 628.39C584.662 632.49 576.362 641.89 569.062 635.99C566.162 633.59 564.162 629.09 562.462 625.89C560.862 622.79 559.262 619.59 557.862 616.39C554.362 608.49 551.862 600.19 549.162 592.09C548.762 590.89 546.662 590.99 546.862 592.39C548.662 606.89 554.162 621.69 561.462 634.29C564.362 639.19 568.562 643.19 574.662 642.89C580.862 642.59 585.762 638.69 590.362 634.89C593.062 632.69 595.862 630.19 599.262 629.09C602.362 628.09 605.562 628.79 608.762 628.29C615.562 627.29 615.862 621.99 618.162 616.59C619.662 613.09 622.062 610.79 624.662 608.09C626.262 606.49 627.462 604.79 627.262 602.49C626.762 597.19 619.262 592.49 615.162 589.79C601.162 580.39 583.762 576.59 567.962 571.49C566.962 571.39 566.662 572.69 567.462 572.99Z" fill="black"/>
<path d="M483.862 550.29C493.962 551.59 503.962 553.99 513.462 557.39C518.262 559.09 522.962 560.89 527.462 563.19C531.162 564.99 534.762 567.89 538.962 567.89C540.262 567.89 541.062 566.39 540.462 565.29C538.162 561.39 533.362 559.79 529.462 558.09C524.662 555.99 519.762 554.09 514.762 552.79C504.662 550.09 494.362 549.09 483.862 549.39C483.262 549.39 483.362 550.19 483.862 550.29Z" fill="black"/>
<path d="M517.662 501.99C525.462 510.59 532.162 522.39 532.462 534.19C532.562 539.99 531.662 545.99 531.362 551.79C531.062 557.69 530.262 564.89 532.362 570.59C534.862 577.39 543.762 573.79 542.262 567.09C541.862 565.49 539.562 565.29 538.862 566.69C538.462 567.39 539.262 569.69 538.662 567.49C538.362 566.49 538.262 565.49 538.162 564.49C537.862 561.69 537.862 558.79 537.662 555.99C537.462 550.09 537.462 544.09 537.362 538.19C537.162 523.69 529.362 510.09 517.962 501.39C517.762 501.19 517.462 501.69 517.662 501.99Z" fill="black"/>
<path d="M562.462 497.19C553.162 506.79 547.662 518.99 544.162 531.89C542.462 538.19 541.262 544.59 540.362 551.09C539.362 558.19 538.162 565.69 538.562 572.79C538.662 574.99 541.562 576.59 543.262 574.69C543.862 573.99 544.362 573.39 544.862 572.59C545.862 570.99 544.162 569.39 542.562 569.59C541.862 569.69 541.162 569.79 540.562 570.09C541.662 571.19 542.862 572.39 543.962 573.49C546.462 560.69 545.762 547.49 548.262 534.59C550.862 521.39 555.762 509.09 563.462 497.99C564.062 497.39 562.962 496.69 562.462 497.19Z" fill="black"/>
<path d="M604.862 545.79C584.462 554.19 562.762 559.39 540.762 560.99C536.362 561.29 534.762 568.09 539.662 569.19C543.362 569.99 546.462 568.89 547.562 565.09C548.062 563.39 546.462 562.09 544.862 562.39C544.062 562.59 543.462 562.29 542.862 561.59C542.562 564.09 542.162 566.69 541.862 569.19C564.262 565.79 585.662 558.29 605.362 547.09C606.062 546.69 605.562 545.49 604.862 545.79Z" fill="black"/>
<path d="M558.662 567.89C551.662 568.89 544.862 568.79 537.862 568.99C534.762 569.09 534.762 573.59 537.862 573.79C545.162 574.19 552.562 572.09 559.162 569.09C559.762 568.69 559.262 567.79 558.662 567.89Z" fill="black"/>
<path d="M501.162 622.69C507.462 613.09 512.162 603.09 519.962 594.39C523.562 590.39 527.462 586.69 531.562 583.29C534.762 580.59 540.962 578.19 540.962 573.39C540.962 572.39 540.262 571.49 539.262 571.19C534.662 569.79 530.562 575.39 527.562 578.19C523.362 582.29 519.562 586.79 516.062 591.39C509.362 600.29 502.162 611.09 500.162 622.19C500.162 622.79 500.862 623.09 501.162 622.69Z" fill="black"/>
<path d="M520.562 621.29C525.462 614.69 528.662 606.39 532.062 598.89C535.562 591.29 539.062 583.59 542.662 575.99C544.362 572.39 541.562 569.09 537.762 569.69C535.762 569.99 529.962 568.99 533.262 565.89C534.962 564.29 533.662 561.49 531.362 561.39C525.962 561.29 522.862 566.89 524.662 571.79C526.962 578.09 534.262 579.49 540.062 577.99C538.262 576.19 536.562 574.49 534.762 572.69C531.962 580.99 529.062 589.19 526.062 597.39C523.362 604.99 520.062 612.79 518.962 620.79C518.962 621.79 520.162 621.79 520.562 621.29Z" fill="black"/>
<path d="M572.862 607.79C569.662 598.89 565.162 590.59 559.362 583.09C555.162 577.69 545.662 564.29 537.462 568.49C536.462 568.99 535.762 570.29 535.862 571.39C536.262 575.59 539.362 576.99 542.662 579.09C546.562 581.59 550.662 583.79 554.362 586.59C561.862 592.29 567.762 599.89 572.062 608.19C572.262 608.69 573.062 608.29 572.862 607.79Z" fill="black"/>
<path d="M560.262 578.49C559.462 574.69 555.662 572.09 552.162 570.79C550.162 569.99 547.862 569.59 545.762 569.59C544.962 569.59 539.062 570.39 538.962 570.99C539.562 566.39 532.962 566.29 531.462 569.99C529.362 575.39 534.862 579.39 539.762 578.69C543.162 578.19 545.962 576.09 549.562 576.29C553.062 576.39 555.662 578.49 558.662 579.79C559.462 580.09 560.462 579.49 560.262 578.49Z" fill="black"/>
<path d="M498.262 568.59C505.662 568.79 512.862 568.79 520.262 570.29C527.062 571.69 533.662 574.09 540.062 576.69C545.462 578.89 548.462 569.09 542.562 567.79C528.462 564.79 512.262 564.09 498.262 567.49C497.462 567.59 497.662 568.59 498.262 568.59Z" fill="black"/>
<path d="M573.562 518.79C570.662 517.79 568.062 518.59 565.862 520.69C564.362 522.09 564.962 524.39 566.462 525.49C570.362 528.19 578.162 524.89 575.762 519.49C573.262 513.99 566.462 517.79 564.062 521.09C558.762 528.19 555.062 537.49 551.362 545.49C547.762 553.29 542.562 562.39 541.362 570.89C541.262 571.79 542.362 572.39 542.862 571.59C545.362 567.59 546.762 562.79 548.662 558.49C550.662 554.09 552.762 549.89 555.162 545.69C557.462 541.49 559.962 537.39 562.662 533.39C563.962 531.39 565.462 529.49 566.862 527.49C567.862 526.09 572.662 522.09 569.562 520.19C570.062 521.39 570.462 522.49 570.962 523.69C571.862 522.79 572.662 521.89 573.562 521.09C574.762 520.69 574.762 519.09 573.562 518.79Z" fill="black"/>
<path d="M467.462 476.59C467.262 476.09 467.162 475.59 466.962 475.09C467.662 474.69 468.262 474.39 468.962 473.99C469.062 473.99 469.162 474.09 469.262 474.09C468.362 474.09 467.562 474.09 466.662 474.09C475.362 480.09 483.362 487.39 490.162 495.49C497.562 504.29 502.762 514.29 508.362 524.29C518.962 543.19 531.662 562.69 547.362 577.79C547.962 578.29 548.962 577.59 548.462 576.89C541.462 567.49 533.962 558.49 527.462 548.69C520.962 538.89 515.162 528.69 509.762 518.29C499.662 498.69 487.862 481.99 469.262 469.69C468.462 469.19 467.462 469.29 466.662 469.69C462.462 471.99 464.162 478.59 468.962 478.49C469.762 478.49 470.562 478.09 470.962 477.39C472.462 474.39 470.162 469.39 466.162 471.09C463.162 472.39 463.562 476.69 466.662 477.49C467.062 477.59 467.562 477.09 467.462 476.59Z" fill="black"/>
<path d="M626.662 444.59C645.762 460.89 673.562 449.89 694.562 461.59C706.062 467.99 714.062 479.19 721.262 489.89C728.162 500.09 735.062 512.59 745.762 519.39C746.462 519.89 747.462 518.89 746.962 518.19C742.962 512.59 738.562 507.29 734.762 501.49C731.162 495.79 727.862 489.89 724.262 484.29C717.662 474.09 710.062 464.09 699.562 457.69C677.762 444.39 649.862 456.09 628.662 442.09C627.162 441.19 625.362 443.49 626.662 444.59Z" fill="black"/>
<path d="M739.862 515.89C733.362 505.69 720.162 512.19 712.362 516.89C700.062 524.29 685.962 526.69 672.462 520.39C666.262 517.49 661.662 512.69 656.362 508.59C651.262 504.69 645.362 502.29 639.162 500.49C632.862 498.69 626.462 497.49 620.362 495.09C614.162 492.59 609.362 488.49 604.962 483.59C596.762 474.39 590.062 463.49 577.862 459.29C578.062 461.09 578.362 462.89 578.562 464.79C586.262 459.79 594.462 455.79 603.262 453.09C611.662 450.49 620.362 449.49 629.062 448.09C631.162 447.79 630.362 444.89 628.562 444.69C610.362 442.69 590.762 450.09 575.562 459.59C573.262 460.99 573.862 464.19 576.262 465.09C590.062 470.19 596.362 485.49 607.362 494.39C620.162 504.79 637.762 503.19 651.062 512.19C657.862 516.79 663.062 522.89 670.862 526.19C677.762 529.09 685.462 530.29 692.862 529.59C700.662 528.79 707.662 526.09 714.262 521.69C721.562 516.79 730.162 511.09 738.662 517.19C739.362 517.69 740.362 516.69 739.862 515.89Z" fill="black"/>
<path d="M658.762 486.89C660.962 477.29 659.162 467.09 653.862 458.79C649.562 451.99 640.062 441.29 631.062 442.39C629.662 442.59 628.662 444.19 629.862 445.39C632.662 447.99 636.562 449.29 639.762 451.39C643.662 454.09 646.962 457.39 649.662 461.29C654.862 468.89 657.662 477.59 657.462 486.69C657.362 487.49 658.662 487.69 658.762 486.89Z" fill="black"/>
<path d="M678.962 482.69C678.362 475.79 675.562 469.49 671.562 463.89C667.962 458.79 663.162 452.99 657.062 450.99C655.462 450.49 654.762 452.49 655.562 453.49C659.662 458.39 664.962 461.99 668.762 467.29C672.262 472.19 674.862 477.69 677.462 483.09C677.762 483.79 678.962 483.49 678.962 482.69Z" fill="black"/>
<path d="M590.962 455.79C587.962 453.89 583.762 451.49 582.062 448.19C580.262 444.89 580.962 441.09 581.262 437.59C581.862 429.69 577.462 423.39 573.362 416.99C571.262 413.69 568.962 410.19 568.262 406.29C567.362 400.79 570.562 396.39 574.362 392.89C580.962 386.69 590.062 380.59 588.662 370.29C587.562 371.09 586.462 371.89 585.462 372.79C600.362 376.29 613.462 385.49 621.862 398.39C626.362 405.29 629.162 412.99 630.562 421.19C632.162 430.09 631.562 439.19 633.062 448.09C633.362 449.79 636.262 449.79 636.462 448.09C642.262 412.89 622.162 376.59 586.762 367.89C585.362 367.49 583.362 368.59 583.562 370.39C585.162 382.79 568.562 387.59 564.262 397.69C560.762 405.89 564.962 413.59 569.462 420.29C571.962 423.99 574.762 427.79 576.162 432.09C577.462 436.29 576.362 440.39 576.862 444.69C577.862 452.29 583.262 455.89 590.262 457.59C591.262 457.59 591.762 456.29 590.962 455.79Z" fill="black"/>
<path d="M585.762 406.09C595.862 407.69 605.062 410.69 612.862 417.69C616.462 420.99 619.562 424.79 621.862 429.09C623.662 432.59 624.262 437.79 627.662 440.09C628.462 440.59 629.462 440.19 629.862 439.49C632.462 435.39 628.862 429.09 626.662 425.39C623.762 420.59 620.062 416.29 615.662 412.79C607.462 406.29 596.262 401.89 585.762 403.89C584.762 404.19 584.662 405.89 585.762 406.09Z" fill="black"/>
<path d="M595.462 424.99C600.762 424.89 605.962 425.79 610.862 427.69C615.962 429.59 619.662 433.09 624.262 435.59C625.262 436.09 626.562 434.99 625.862 433.99C619.862 424.89 605.462 422.09 595.462 423.19C594.362 423.29 594.262 424.99 595.462 424.99Z" fill="black"/>
<path d="M597.162 371.99C604.262 370.89 611.062 372.79 617.962 374.19C623.562 375.29 629.162 375.79 634.762 376.29C645.662 377.29 659.462 379.09 665.962 389.29C672.662 399.79 666.662 412.69 660.462 421.89C653.762 431.69 645.662 439.69 636.162 446.79C634.762 447.79 635.462 450.59 637.462 449.89C649.662 445.39 658.762 434.69 665.562 423.89C671.962 413.69 677.062 400.39 671.062 388.79C665.662 378.19 653.162 373.99 642.062 372.79C633.762 371.89 625.362 371.89 617.062 370.49C610.062 369.29 603.562 367.79 596.662 370.29C595.662 370.69 596.062 372.19 597.162 371.99Z" fill="black"/>
<path d="M644.862 401.39C652.162 415.59 643.862 429.99 636.462 442.19C634.562 445.29 639.462 448.19 641.362 444.99C649.062 431.69 657.562 414.09 646.662 400.09C645.762 399.09 644.262 400.39 644.862 401.39Z" fill="black"/>
<path d="M668.562 391.99C687.162 405.29 700.962 424.49 706.862 446.69C707.562 445.69 708.262 444.79 709.062 443.79C698.562 443.69 688.162 444.19 677.662 445.19C673.062 445.59 668.462 446.19 663.862 446.89C659.362 447.49 653.462 447.49 649.762 450.29C648.862 450.89 648.862 452.39 650.062 452.69C653.962 453.79 658.362 452.29 662.262 451.69C667.662 450.89 673.162 450.19 678.662 449.69C688.762 448.79 698.962 448.29 709.062 448.29C710.562 448.29 711.662 446.89 711.262 445.39C704.962 422.29 690.462 402.09 669.962 389.59C668.462 388.69 667.162 390.99 668.562 391.99Z" fill="black"/>
<path d="M704.662 444.29C708.562 448.29 712.662 451.49 715.962 456.19C719.062 460.49 721.462 465.19 723.362 470.19C725.262 475.49 726.562 480.99 727.662 486.59C728.762 492.49 729.062 498.59 730.662 504.29C731.262 506.49 734.562 505.99 734.662 503.79C735.062 491.49 731.562 477.49 726.662 466.29C722.662 457.39 715.562 446.09 705.562 442.99C704.662 442.59 704.162 443.69 704.662 444.29Z" fill="black"/>
<path d="M684.762 419.99C677.262 423.49 670.562 428.59 663.062 432.29C659.262 434.19 655.362 435.79 651.362 437.19C647.962 438.39 643.662 438.59 641.162 441.39C640.162 442.49 640.562 444.09 641.962 444.49C645.762 445.79 649.962 443.39 653.562 442.09C657.662 440.49 661.662 438.69 665.562 436.69C672.862 432.89 680.862 427.89 685.662 420.99C686.262 420.39 685.362 419.79 684.762 419.99Z" fill="black"/>
<path d="M763.262 413.89C767.362 405.79 756.162 402.69 750.262 403.19C738.162 404.29 725.962 407.89 714.662 412.09C691.962 420.59 669.562 433.29 650.462 448.19C649.662 448.89 650.662 449.99 651.562 449.59C670.362 440.09 687.662 428.29 707.162 420.19C716.362 416.39 725.962 413.19 735.762 411.59C739.662 410.99 759.762 406.79 760.662 413.49C760.862 414.79 762.762 414.89 763.262 413.89Z" fill="black"/>
<path d="M715.762 359.19C716.062 359.29 717.562 359.39 717.562 359.69C717.762 358.79 718.062 357.99 718.262 357.09C715.262 360.49 713.762 364.29 711.762 368.39C709.762 372.59 707.262 376.69 704.762 380.69C699.762 388.69 694.562 396.49 689.162 404.29C683.562 412.39 677.562 420.29 671.262 427.79C668.262 431.39 665.162 434.89 661.962 438.39C659.162 441.39 655.562 444.19 653.662 447.79C653.362 448.39 653.962 449.09 654.662 448.79C659.662 446.29 663.662 440.59 667.362 436.39C671.262 431.99 675.062 427.49 678.662 422.89C686.162 413.39 693.262 403.39 699.962 393.29C703.362 388.19 706.562 382.79 710.162 377.79C713.662 372.79 718.362 368.19 721.162 362.79C722.662 359.99 723.262 356.69 719.662 355.39C717.562 354.59 714.462 355.39 714.762 358.09C714.962 358.49 715.162 359.09 715.762 359.19Z" fill="black"/>
<path d="M661.462 512.39C648.662 512.29 637.462 517.39 626.762 524.09C623.762 525.99 626.662 530.89 629.562 528.89C639.262 521.99 649.862 516.29 661.662 514.19C662.662 513.99 662.462 512.39 661.462 512.39Z" fill="black"/>
<path d="M588.762 469.69C588.162 472.09 588.262 474.49 587.262 476.89C586.162 479.39 584.562 481.49 582.862 483.49C580.862 485.89 584.562 488.79 586.362 486.19C589.462 481.59 592.562 475.49 590.362 469.79C590.062 468.99 588.962 468.79 588.762 469.69Z" fill="black"/>
<path d="M597.562 492.29C598.462 490.39 599.462 488.59 600.362 486.69C600.962 485.39 602.062 483.19 600.362 482.19C598.762 481.29 597.562 483.09 596.962 484.29C596.062 486.29 595.162 488.29 594.162 490.19C593.062 492.59 596.462 494.59 597.562 492.29Z" fill="black"/>
<path d="M593.262 516.79C596.562 512.19 600.262 507.89 604.262 503.89C607.462 500.69 612.462 497.89 614.562 493.99C615.062 493.19 614.262 492.19 613.362 492.39C608.662 493.49 604.562 498.89 601.562 502.39C597.862 506.59 594.962 511.39 592.362 516.39C592.062 516.89 592.862 517.29 593.262 516.79Z" fill="black"/>
<path d="M622.462 518.89C631.562 514.09 640.562 509.49 649.962 505.19C652.662 503.99 650.762 499.69 647.962 500.49C637.962 503.29 628.862 509.59 620.062 514.89C617.562 516.49 619.862 520.29 622.462 518.89Z" fill="black"/>
<path d="M455.962 498.89C458.562 487.59 461.062 476.29 466.362 465.89C471.762 455.39 479.562 446.89 489.462 440.49C498.662 434.49 508.962 430.29 519.262 426.49C521.662 425.59 524.262 424.29 526.762 423.69C531.262 422.69 532.962 425.09 535.562 428.09C538.962 431.79 543.362 434.09 548.162 435.19C547.762 433.89 547.462 432.49 547.062 431.19C543.862 434.99 537.962 434.29 533.562 436.09C529.762 437.59 526.762 440.39 524.262 443.59C521.462 447.39 519.462 451.69 517.462 455.89C516.562 457.79 515.762 460.29 514.362 461.89C511.662 465.29 506.262 465.19 502.462 465.59C492.262 466.69 484.062 469.79 476.762 477.09C473.462 480.39 470.562 484.29 467.962 488.19C466.462 490.49 465.062 492.79 463.562 495.09C462.762 496.29 462.062 497.49 460.962 498.49C460.462 498.89 459.862 499.29 459.362 499.79C456.362 500.29 455.162 499.39 455.762 497.19C457.262 495.69 455.262 492.89 453.462 494.19C450.062 496.49 450.362 500.89 453.362 503.49C456.862 506.49 461.462 504.99 464.462 501.99C468.762 497.79 471.362 491.79 474.962 486.99C479.362 481.19 484.562 475.69 491.362 472.79C498.562 469.79 506.962 471.29 513.962 467.99C518.862 465.69 520.362 459.99 522.562 455.49C525.262 449.89 528.562 443.49 534.462 440.69C539.862 438.19 546.262 439.49 550.462 434.49C551.562 433.19 551.262 430.89 549.362 430.49C545.562 429.59 542.162 427.99 539.462 425.09C537.662 423.19 536.362 420.79 534.262 419.29C529.562 416.09 524.062 419.19 519.362 420.89C507.962 425.09 496.462 429.79 486.362 436.59C465.462 450.79 455.762 473.79 453.262 498.29C453.062 500.09 455.562 500.39 455.962 498.89Z" fill="black"/>
<path d="M481.162 439.89C475.862 440.89 470.662 442.39 465.262 443.29C459.962 444.19 454.562 444.49 449.162 445.29C439.362 446.79 434.162 452.19 428.562 459.89C425.162 464.49 421.762 469.09 418.462 473.69C416.162 476.79 413.662 480.19 415.262 484.29C418.662 493.19 429.262 489.99 435.462 486.79C434.462 486.69 433.362 486.49 432.362 486.39C436.162 490.59 441.262 493.19 446.862 493.89C451.762 494.49 458.062 493.99 461.062 489.49C461.662 488.59 460.862 487.19 459.762 487.19C455.762 487.39 452.262 489.19 448.262 488.89C443.462 488.49 439.162 486.29 436.062 482.69C435.262 481.79 433.962 481.79 432.962 482.29C431.062 483.29 429.162 484.49 427.062 484.89C422.862 485.69 420.062 483.89 420.862 479.29C421.162 477.89 423.262 475.99 424.062 474.79C425.162 473.29 426.362 471.69 427.462 470.19C431.762 464.39 435.862 456.29 442.262 452.59C448.162 449.19 455.562 449.69 462.062 448.39C468.962 446.99 475.862 445.09 481.862 441.49C482.662 440.89 482.062 439.69 481.162 439.89Z" fill="black"/>
<path d="M439.762 450.79C444.162 441.89 445.962 430.09 453.062 422.89C460.062 415.89 468.262 408.79 477.262 404.39C481.862 402.19 486.762 400.79 491.862 399.89C494.962 399.39 498.862 398.29 500.062 401.89C500.762 403.79 499.362 406.89 499.062 408.89C497.962 415.09 498.462 421.49 503.762 425.59C505.962 427.19 508.062 423.59 505.862 421.99C497.262 415.49 509.062 403.69 502.362 396.89C499.762 394.19 495.662 395.09 492.362 395.59C486.962 396.39 481.562 397.79 476.562 399.99C466.862 404.39 458.262 412.09 450.762 419.49C442.962 427.19 440.262 439.69 437.962 450.09C438.062 450.99 439.362 451.69 439.762 450.79Z" fill="black"/>
<path d="M502.562 421.69C501.662 410.59 507.162 399.19 516.262 392.69C521.562 388.99 527.262 387.19 533.562 388.49C538.562 389.49 549.162 387.99 550.862 394.19C551.362 393.29 551.862 392.39 552.462 391.39C543.162 393.79 531.062 401.09 529.162 411.39C528.862 412.79 530.662 414.19 531.762 412.89C534.762 409.49 536.762 405.59 540.162 402.59C544.062 399.19 548.662 396.89 553.662 395.69C554.862 395.39 555.562 394.09 555.262 392.89C553.362 385.79 546.162 385.29 539.962 384.99C535.662 384.79 531.762 383.19 527.462 383.79C523.962 384.29 520.462 385.69 517.362 387.39C505.362 394.29 498.762 408.09 501.362 421.69C501.262 422.69 502.562 422.49 502.562 421.69Z" fill="black"/>
<path d="M523.862 423.39C530.162 412.09 543.862 405.19 556.562 405.69C558.362 405.79 560.162 405.99 561.962 406.39C564.062 406.89 564.762 406.39 563.862 408.89C562.662 412.09 558.562 415.49 556.462 418.19C554.462 420.79 552.462 423.49 550.162 425.79C547.462 428.59 544.262 429.09 541.362 431.29C540.762 431.69 540.362 432.69 541.062 433.29C548.162 438.79 556.762 425.29 560.262 420.79C563.762 416.29 575.562 405.89 565.062 402.69C547.962 397.39 529.762 406.99 522.362 422.59C521.962 423.49 523.262 424.39 523.862 423.39Z" fill="black"/>
<path d="M467.262 425.39C470.562 428.19 473.862 431.09 477.262 433.79C479.862 435.79 482.862 439.29 486.262 439.09C487.362 438.99 488.262 437.99 487.962 436.89C486.862 433.39 482.862 432.09 479.962 430.29C476.162 427.99 472.262 425.99 468.462 423.89C467.562 423.29 466.462 424.59 467.262 425.39Z" fill="black"/>
<path d="M485.362 421.99C484.562 424.79 484.662 427.39 485.762 430.09C486.762 432.39 488.562 435.29 491.262 435.49C492.562 435.59 492.962 434.19 492.562 433.19C491.762 431.39 489.762 430.29 488.762 428.49C487.662 426.59 487.062 424.29 487.062 422.09C487.062 421.29 485.662 420.99 485.362 421.99Z" fill="black"/>
<path d="M495.862 460.39C494.862 455.89 494.362 451.19 495.162 446.59C495.762 443.19 497.462 440.09 497.562 436.69C497.562 435.29 495.862 434.69 494.962 435.59C488.962 441.49 491.262 454.29 494.462 460.99C494.762 461.89 496.062 461.29 495.862 460.39Z" fill="black"/>
<path d="M522.662 401.69C513.162 403.69 502.662 413.79 503.862 424.29C504.162 426.89 507.862 427.79 508.662 424.89C509.862 420.49 510.362 416.49 512.862 412.49C515.462 408.59 519.162 405.49 523.362 403.39C524.362 402.89 523.662 401.49 522.662 401.69Z" fill="black"/>
<path d="M444.862 473.29C447.362 465.29 452.062 460.39 459.462 456.49C464.462 453.89 474.262 451.59 476.662 446.09C477.062 445.19 476.662 443.99 475.462 444.09C471.662 444.29 468.162 447.19 464.862 448.89C460.762 450.99 456.462 452.99 452.762 455.79C447.462 459.69 441.962 465.99 442.862 472.99C442.862 474.19 444.462 474.59 444.862 473.29Z" fill="black"/>
<path d="M496.862 351.99C497.362 350.19 497.862 348.29 498.362 346.49C498.862 344.59 497.162 343.19 495.362 343.49C480.362 345.89 482.362 369.59 483.362 379.99C484.162 388.99 485.862 397.99 488.562 406.59C490.962 414.29 493.762 423.39 499.062 429.69C499.762 430.49 500.962 429.59 500.662 428.69C498.962 421.59 495.462 414.99 493.462 407.89C491.362 400.49 489.862 392.79 488.962 385.09C488.262 378.09 488.062 370.99 488.462 363.89C488.762 357.69 490.062 350.39 496.662 347.99C495.662 347.19 494.562 346.39 493.562 345.59C493.562 347.49 493.562 349.39 493.562 351.29C493.462 353.49 496.262 353.89 496.862 351.99Z" fill="black"/>
<path d="M417.962 388.69C417.962 384.39 436.662 394.79 438.462 395.99C444.862 399.99 450.962 404.59 456.962 409.09C469.562 418.49 481.862 428.19 494.162 438.09C494.862 438.69 495.862 437.69 495.162 437.09C479.562 423.69 463.262 411.09 446.562 398.99C439.362 393.79 431.562 385.29 422.562 383.59C419.062 382.89 412.362 384.89 415.162 389.49C415.962 390.69 417.962 390.19 417.962 388.69Z" fill="black"/>
<path d="M547.062 430.69C545.662 440.39 548.362 451.69 551.862 460.79C553.562 465.39 555.662 469.79 558.162 473.99C560.562 478.09 563.262 482.99 567.362 485.79C568.662 486.69 569.762 484.99 569.262 483.89C567.362 479.69 563.862 476.09 561.462 472.09C558.862 467.69 556.662 463.09 554.862 458.29C551.562 449.19 550.762 440.19 549.062 430.79C548.862 429.79 547.162 429.69 547.062 430.69Z" fill="black"/>
<path d="M493.762 472.59C498.862 474.19 503.962 476.19 508.662 478.69C512.062 480.49 515.462 483.89 519.362 484.19C520.062 484.29 520.362 483.39 520.162 482.89C518.362 478.89 512.562 476.89 508.862 475.29C504.062 473.19 499.362 471.89 494.262 471.19C493.162 470.99 492.762 472.29 493.762 472.59Z" fill="black"/>
<path d="M544.662 477.89C535.562 469.49 530.762 458.69 529.462 446.59C529.162 443.79 524.762 443.69 524.962 446.59C525.962 459.69 533.262 471.49 543.762 479.09C544.462 479.49 545.162 478.49 544.662 477.89Z" fill="black"/>
<path d="M525.362 473.09C524.162 470.89 522.762 468.99 521.062 467.29C519.562 465.79 517.762 463.59 515.362 463.69C514.562 463.69 513.862 464.49 514.162 465.29C514.962 467.39 517.062 468.29 518.762 469.59C520.562 471.09 522.262 472.69 523.962 474.19C524.662 474.79 525.862 473.99 525.362 473.09Z" fill="black"/>
<path d="M635.362 549.79C647.362 545.09 659.362 546.79 671.462 550.59C683.962 554.59 695.862 560.09 704.462 570.39C712.362 579.79 716.862 591.79 719.262 603.79C720.562 610.69 721.362 617.59 721.662 624.59C722.062 631.39 721.762 638.39 723.362 645.09C723.862 647.09 726.962 647.09 727.462 645.09C729.062 637.49 728.462 629.39 727.862 621.69C727.362 613.89 726.362 605.99 724.462 598.39C721.262 585.79 715.462 573.49 706.362 564.09C696.562 554.09 682.962 548.89 669.662 545.39C658.262 542.49 644.662 540.69 634.762 548.49C633.962 548.99 634.662 550.09 635.362 549.79Z" fill="black"/>
<path d="M723.362 643.39C719.262 624.79 709.762 607.79 696.062 594.49C688.862 587.49 680.362 581.89 671.362 577.49C666.562 575.19 661.662 573.09 656.662 571.29C651.562 569.39 645.962 567.19 640.462 566.79C637.762 566.59 636.762 570.59 639.062 571.89C643.162 574.09 647.962 575.09 652.362 576.49C657.462 578.19 662.462 580.09 667.362 582.29C676.362 586.39 684.662 591.69 692.162 598.19C706.062 610.19 716.362 626.19 721.762 643.79C722.262 644.59 723.562 644.29 723.362 643.39Z" fill="black"/>
<path d="M724.762 646.59C722.862 642.69 717.762 640.39 714.162 638.29C709.962 635.89 705.562 633.69 701.062 631.79C691.562 627.69 681.762 624.49 672.062 620.89C662.362 617.19 652.662 613.09 644.062 607.19C639.662 604.19 635.462 600.59 632.062 596.49C630.162 594.19 628.462 591.49 627.362 588.69C626.462 586.29 626.462 584.19 624.762 582.19C623.962 581.19 622.062 581.49 621.562 582.59C619.362 586.69 622.162 591.99 624.462 595.69C627.362 600.39 631.262 604.39 635.562 607.79C643.662 614.39 652.862 619.09 662.562 622.79C672.862 626.79 683.562 629.89 694.062 633.59C699.462 635.49 704.762 637.49 709.962 639.99C714.462 642.19 719.462 646.49 724.362 647.29C724.662 647.39 724.962 646.99 724.762 646.59Z" fill="black"/>
<path d="M740.862 567.49C728.762 551.39 710.562 540.99 691.362 535.69C679.962 532.59 668.262 531.09 656.562 530.19C650.762 529.69 633.162 526.19 630.862 534.29C630.462 535.69 631.562 536.59 632.762 536.79C634.662 536.99 635.462 536.29 637.362 535.69C639.662 534.99 642.162 535.09 644.562 535.09C649.462 535.19 654.362 535.49 659.362 535.89C670.262 536.69 681.262 538.09 691.862 540.89C710.162 545.59 727.262 553.89 740.062 568.09C740.462 568.39 741.162 567.89 740.862 567.49Z" fill="black"/>
<path d="M740.962 566.89C741.162 561.69 738.962 555.79 737.462 550.89C735.862 545.79 733.962 540.79 731.262 536.09C726.562 528.09 719.662 521.79 710.962 518.59C708.262 517.59 707.162 521.89 709.762 522.79C718.362 525.89 724.862 532.79 729.362 540.69C731.962 545.29 733.862 550.19 735.562 555.09C736.862 559.09 737.462 563.59 739.662 567.29C739.962 567.89 740.862 567.59 740.962 566.89Z" fill="black"/>
<path d="M738.462 567.49C736.862 561.49 730.762 560.19 725.262 559.49C720.262 558.89 715.262 558.29 710.262 557.89C707.862 557.69 694.062 557.99 693.362 555.39C693.062 554.19 691.362 553.59 690.462 554.59C690.262 554.79 690.062 554.99 689.962 555.19C689.262 555.99 689.162 556.89 689.662 557.79C690.762 560.19 692.862 560.79 695.262 561.29C700.162 562.09 705.362 561.99 710.262 562.29C715.262 562.59 720.262 562.69 725.262 562.89C729.562 563.09 734.962 563.59 737.062 567.99C737.462 568.79 738.662 568.29 738.462 567.49Z" fill="black"/>
<path d="M357.262 613.99C369.262 591.89 384.862 571.99 404.062 555.79C413.562 547.79 423.862 540.89 434.662 534.79C439.962 531.79 445.262 528.99 450.762 526.49C456.662 523.79 463.162 522.09 468.562 518.49C470.162 517.49 469.662 514.59 467.562 514.69C461.462 514.99 455.962 517.49 450.462 519.89C444.462 522.49 438.562 525.29 432.862 528.59C421.762 534.89 411.262 542.69 401.762 551.19C382.462 568.39 366.362 589.39 356.062 613.19C355.662 614.09 356.862 614.89 357.262 613.99Z" fill="black"/>
<path d="M351.562 621.29C354.262 613.39 355.262 604.89 357.562 596.79C359.962 588.39 362.762 579.99 366.462 572.09C372.962 557.79 381.762 544.49 393.162 533.59C414.962 512.79 445.462 499.09 475.162 510.29C477.262 511.09 478.462 507.89 476.662 506.79C471.062 503.39 466.362 501.19 459.762 500.29C454.162 499.59 448.562 499.69 442.962 500.49C430.362 502.29 418.262 507.49 407.562 514.39C385.562 528.49 369.962 549.89 360.462 574.09C357.462 581.69 355.062 589.49 353.362 597.39C351.662 605.09 349.762 613.19 350.262 621.09C350.262 621.89 351.362 622.09 351.562 621.29Z" fill="black"/>
<path d="M350.862 621.99C357.462 614.79 364.062 608.59 373.162 604.49C383.262 599.89 394.462 597.99 405.362 596.29C415.662 594.69 426.462 593.89 436.162 589.69C443.362 586.59 452.062 580.29 451.562 571.49C451.462 570.59 450.262 569.79 449.562 570.69C446.862 574.09 444.462 577.69 440.962 580.49C436.562 584.09 431.062 585.99 425.562 587.29C414.562 589.99 403.062 590.79 392.062 593.19C376.462 596.69 355.462 604.69 349.562 621.19C349.362 621.99 350.362 622.49 350.862 621.99Z" fill="black"/>
<path d="M662.262 311.79C653.862 320.69 646.062 330.19 639.162 340.29C632.362 350.19 625.662 361.39 621.562 372.69C620.562 375.49 624.962 377.29 626.362 374.69C632.062 364.39 637.062 353.79 643.262 343.69C649.662 333.29 656.762 323.49 664.662 314.19C666.062 312.59 663.862 310.19 662.262 311.79Z" fill="black"/>
<path d="M652.562 302.39C634.862 308.79 617.262 316.49 603.262 329.39C596.962 335.19 591.262 342.19 587.862 350.09C584.962 356.79 582.862 366.59 588.162 372.59C589.262 373.89 591.762 372.89 591.562 371.19C591.262 367.69 590.262 364.29 590.662 360.69C591.162 356.49 592.762 352.39 594.762 348.69C598.562 341.69 603.862 335.69 609.862 330.49C622.562 319.39 638.062 312.49 653.662 306.59C656.362 305.69 655.262 301.39 652.562 302.39Z" fill="black"/>
<path d="M669.462 316.89C666.762 326.29 665.462 336.09 664.262 345.79C663.562 350.79 662.862 355.79 661.562 360.69C660.962 363.19 660.162 365.79 659.262 368.19C659.062 368.69 656.062 374.49 656.162 374.69C655.062 372.89 652.662 373.79 652.362 375.69C651.862 379.79 656.562 381.09 659.462 378.99C663.762 375.99 665.262 367.59 666.362 362.89C669.962 347.99 669.262 332.59 672.462 317.69C673.062 315.69 670.062 314.89 669.462 316.89Z" fill="black"/>
<path d="M412.562 653.89C423.562 642.09 434.262 629.99 443.162 616.39C447.462 609.79 450.962 602.89 453.662 595.49C455.962 589.29 459.762 580.29 457.662 573.79C457.062 572.09 454.862 571.79 453.862 573.29C452.062 576.29 451.862 579.79 451.062 583.09C450.262 586.79 449.162 590.39 447.862 593.89C445.262 601.29 441.662 608.39 437.862 615.29C430.362 628.69 420.962 640.99 411.662 653.29C411.462 653.79 412.162 654.39 412.562 653.89Z" fill="black"/>
<path d="M401.462 668.59C403.462 653.39 405.662 638.59 411.662 624.29C414.562 617.49 418.162 611.09 422.362 604.99C426.662 598.79 432.262 593.89 436.662 587.89C438.062 585.99 435.362 583.49 433.462 584.69C427.062 588.89 422.062 596.09 417.762 602.39C413.362 608.79 409.762 615.59 406.762 622.69C400.862 636.99 397.262 653.49 400.062 668.89C400.262 669.59 401.362 669.29 401.462 668.59Z" fill="black"/>
<path d="M401.162 670.99C411.562 655.99 433.262 653.89 447.362 643.39C454.662 637.99 461.062 631.29 465.862 623.69C470.462 616.39 474.562 605.69 468.662 597.89C467.462 596.39 465.262 597.29 465.562 599.19C468.462 618.69 449.862 635.89 434.262 644.49C421.462 651.49 405.962 655.59 399.662 670.09C399.162 671.09 400.462 671.89 401.162 670.99Z" fill="black"/>
<path d="M369.462 472.39C377.462 473.39 379.862 462.19 374.362 457.79C368.062 452.69 359.062 456.89 356.062 463.59C353.162 470.19 355.462 477.69 361.062 482.09C366.762 486.49 375.462 486.39 378.662 479.19C379.062 478.19 378.762 477.09 377.662 476.79C372.362 475.09 369.462 481.79 368.162 485.79C366.362 491.09 366.562 497.59 370.562 501.89C374.662 506.29 380.762 506.89 386.162 504.79C390.062 503.29 397.262 499.89 397.962 495.19C398.462 491.49 394.662 488.29 391.362 490.49C387.562 493.09 386.362 500.19 386.762 504.39C387.662 515.59 400.462 524.69 410.362 517.89C411.862 516.89 411.362 514.39 409.462 514.39C405.062 514.39 399.262 513.79 395.862 510.79C393.762 508.89 392.362 506.49 391.762 503.69C391.462 502.09 391.462 500.39 391.862 498.69C392.162 497.29 393.762 495.49 392.262 495.19C391.862 495.09 390.162 496.29 389.862 496.49C388.362 497.19 386.962 497.79 385.362 498.29C382.762 499.09 379.462 499.79 376.962 498.19C374.362 496.49 373.262 492.99 373.162 490.09C373.162 488.79 374.262 479.29 376.862 480.09C376.462 479.39 376.062 478.69 375.662 478.09C371.662 488.19 358.962 479.49 357.962 472.09C357.462 468.49 358.662 465.09 362.062 463.19C363.262 462.49 364.962 461.99 366.262 462.29C366.762 462.39 371.662 464.59 368.662 465.69C364.562 466.79 365.562 471.89 369.462 472.39Z" fill="black"/>
<path d="M538.362 346.69C535.962 346.39 536.062 344.49 537.462 342.99C538.362 341.99 540.162 341.59 541.462 341.09C544.562 339.79 547.762 338.39 551.162 338.29C555.862 338.19 559.562 340.69 560.162 345.59C560.562 348.99 559.262 358.39 553.962 357.89C554.462 358.59 555.062 359.29 555.562 359.99C557.662 353.69 565.262 356.69 566.062 361.99C566.762 366.69 563.262 370.39 559.562 372.59C560.862 373.89 562.062 375.09 563.362 376.39C562.662 377.99 563.762 380.59 563.962 382.29C564.162 384.29 564.162 386.29 563.962 388.19C563.662 391.79 562.562 395.29 562.262 398.79C562.162 399.99 563.962 400.79 564.762 399.79C569.662 394.09 569.862 384.39 568.462 377.29C567.962 374.69 566.962 371.89 564.162 371.09C561.862 370.39 559.462 371.39 558.462 373.59C557.462 375.89 559.662 378.89 562.262 377.39C569.662 372.99 574.962 363.29 568.462 355.59C563.562 349.89 553.762 351.29 552.162 359.19C551.962 360.19 552.662 361.29 553.762 361.29C560.462 361.19 563.362 350.89 562.962 345.49C562.362 337.59 555.662 333.29 548.162 333.49C541.762 333.59 530.962 336.19 529.662 343.69C528.762 348.99 537.162 354.89 539.162 348.59C539.562 347.79 539.062 346.79 538.362 346.69Z" fill="black"/>
<path d="M657.462 641.49C659.162 645.79 659.362 650.89 654.562 653.19C651.262 654.79 647.362 653.99 644.862 651.29C642.762 648.89 641.962 645.49 641.862 642.39C641.862 640.89 642.462 639.29 642.362 637.89C643.662 638.59 643.462 639.29 641.962 640.19C641.262 640.89 640.562 641.39 639.762 641.89C636.862 643.79 631.262 646.79 627.762 645.09C623.662 643.09 623.462 637.59 624.862 633.89C625.562 631.99 626.662 630.19 627.862 628.59C630.862 624.39 627.262 628.39 625.762 629.19C623.462 630.39 619.962 631.39 617.462 630.09C614.662 628.59 614.862 626.19 614.762 623.49C614.762 622.19 613.162 621.59 612.262 622.49C608.262 626.39 612.462 632.69 616.762 634.29C621.662 636.09 631.662 633.69 633.362 627.99C634.962 622.59 628.862 620.19 625.362 623.79C620.662 628.59 617.262 636.99 620.262 643.39C623.462 650.19 629.762 650.49 636.062 647.99C640.862 645.99 647.862 642.39 647.562 636.09C647.362 630.49 641.562 631.69 639.362 635.29C636.362 640.29 637.862 648.29 640.562 653.09C643.962 658.89 650.862 661.59 656.962 658.29C663.862 654.59 665.962 645.49 660.762 639.49C659.562 637.99 656.662 639.59 657.462 641.49Z" fill="black"/>
<path d="M366.162 622.09C376.462 623.49 388.762 619.79 398.062 615.89C408.662 611.49 418.162 605.09 426.162 596.79C427.962 594.89 426.162 591.69 423.662 592.39C422.062 592.79 420.562 593.49 419.062 594.19C417.162 595.19 418.062 598.39 420.162 598.19C421.862 598.09 423.362 597.89 425.062 597.39C424.262 595.89 423.362 594.49 422.562 592.99C415.162 600.79 406.562 607.39 396.962 612.19C392.062 614.59 386.962 616.59 381.662 617.99C376.462 619.39 371.162 619.69 366.062 620.89C365.262 621.19 365.562 622.09 366.162 622.09Z" fill="black"/>
<path d="M422.862 589.19C413.662 594.89 404.762 600.89 394.962 605.59C385.262 610.29 375.262 614.09 364.862 616.99C343.762 622.89 321.662 624.69 299.962 621.99C274.762 618.89 249.962 611.39 225.362 605.39C200.762 599.39 175.962 593.59 151.062 588.89C113.862 581.79 71.2622 579.09 35.4622 594.09C21.7622 599.79 9.36216 608.39 4.86216 623.19C2.36216 631.29 4.46216 639.19 6.86216 646.99C9.06216 654.09 12.3622 660.59 18.3622 665.29C24.5622 670.09 32.3621 672.19 40.1621 671.99C49.7621 671.69 61.5622 668.59 68.9622 662.19C76.6622 655.49 81.3622 642.39 72.9622 634.09C65.0622 626.29 49.7622 626.99 44.7622 637.69C40.1622 647.49 53.0622 655.09 59.2622 646.19C57.9622 647.99 58.1622 646.29 58.9622 646.59C59.7622 646.79 60.3622 646.69 60.8622 646.99C62.9622 648.09 62.2621 647.69 62.6621 649.19C63.0621 650.69 63.3622 652.79 63.0622 654.39C61.1622 663.39 47.0622 665.49 39.5622 665.59C26.0622 665.79 14.0622 655.79 14.4622 641.59C14.8622 628.69 18.4621 618.19 29.1621 610.29C39.5621 602.59 52.3622 599.19 64.7622 596.49C82.2622 592.69 99.5622 591.39 117.462 592.79C139.862 594.59 161.762 599.49 183.462 605.29C205.462 611.09 227.462 616.89 249.562 622.49C270.262 627.79 291.062 633.29 312.462 634.39C332.962 635.39 353.762 631.99 372.962 624.89C391.762 617.89 411.262 606.79 424.562 591.39C425.462 590.19 424.162 588.29 422.862 589.19Z" fill="black"/>
<path d="M311.862 632.99C320.862 633.89 330.762 632.59 339.762 631.89C348.662 631.19 357.562 630.39 366.462 628.89C375.262 627.49 383.962 625.49 392.362 622.49C396.462 620.99 400.462 619.29 404.362 617.39C407.862 615.69 411.862 614.09 413.962 610.69C414.562 609.69 413.762 608.09 412.562 608.19C408.862 608.59 405.862 610.89 402.562 612.49C398.362 614.59 393.962 616.39 389.462 617.99C381.362 620.79 372.962 622.99 364.462 624.59C355.462 626.29 346.362 627.49 337.262 628.49C328.962 629.39 319.862 629.49 311.662 631.69C310.962 631.89 311.162 632.89 311.862 632.99Z" fill="black"/>
<path d="M217.062 554.79C225.562 552.89 233.762 550.09 235.762 540.39C237.362 532.49 233.962 524.09 227.762 519.09C214.062 507.79 192.862 515.79 180.862 525.99C174.562 531.39 169.762 538.69 168.862 547.09C167.962 556.49 172.262 565.09 177.662 572.49C183.762 580.79 191.662 587.69 199.662 594.09C208.162 600.79 217.062 606.69 227.462 610.29C233.662 612.39 240.062 612.89 246.362 614.09C252.962 615.29 259.462 616.79 265.962 618.29C279.462 621.39 293.062 624.49 306.662 627.49C307.862 627.79 308.362 625.99 307.162 625.59C289.162 619.49 270.762 614.19 252.962 607.59C244.562 604.49 236.562 600.39 228.362 596.89C220.262 593.49 212.162 589.49 204.662 584.89C191.962 577.09 174.262 565.69 174.262 548.79C174.162 532.39 193.562 518.89 208.662 518.19C215.962 517.89 230.562 522.99 227.062 532.89C224.262 540.79 214.862 537.39 210.062 543.09C205.662 548.29 209.862 556.39 217.062 554.79Z" fill="black"/>
<path d="M213.262 645.79C220.562 638.99 228.162 632.49 236.962 627.69C241.262 625.39 245.662 623.49 250.362 621.99C253.762 620.89 258.262 620.89 259.562 617.19C259.762 616.69 259.562 615.89 259.162 615.59C255.962 612.99 252.362 615.39 248.962 616.79C243.862 618.99 238.862 621.59 234.162 624.59C225.662 629.99 217.862 636.79 212.262 645.09C211.962 645.69 212.762 646.29 213.262 645.79Z" fill="black"/>
<path d="M184.662 669.09C189.662 656.69 191.362 643.29 201.462 633.39C205.662 629.29 211.362 625.99 217.362 625.49C224.962 624.89 231.262 629.49 238.562 629.49C240.062 629.49 240.762 627.59 239.762 626.59C234.462 621.39 224.662 619.29 217.362 619.79C210.762 620.29 204.762 623.19 199.862 627.59C188.762 637.59 184.162 654.49 184.262 668.89C184.262 669.19 184.562 669.29 184.662 669.09Z" fill="black"/>
<path d="M186.862 666.39C199.962 659.59 215.262 662.59 228.362 656.49C234.362 653.69 239.162 648.69 241.062 642.29C242.662 637.09 243.262 627.59 237.162 625.19C236.362 624.89 235.562 625.49 235.362 626.19C234.462 629.19 235.962 631.89 236.062 634.99C236.262 639.09 234.962 643.19 232.362 646.39C228.562 650.89 222.662 652.89 217.062 654.19C206.562 656.59 193.662 656.49 185.862 665.19C185.362 665.79 186.062 666.79 186.862 666.39Z" fill="black"/>
<path d="M289.162 570.89C293.162 585.19 301.062 598.29 311.462 608.89C315.262 612.79 337.762 633.89 341.262 622.19C341.762 620.69 339.762 618.89 338.362 619.99C335.562 622.09 325.962 614.49 323.562 612.79C318.562 609.29 313.962 605.39 309.762 600.99C301.362 592.19 294.962 581.79 290.462 570.59C290.162 569.79 288.962 570.09 289.162 570.89Z" fill="black"/>
<path d="M276.562 556.39C280.062 572.09 279.462 590.49 289.462 603.89C295.962 612.59 313.762 620.69 321.562 609.19C322.562 607.69 320.962 605.99 319.362 606.39C313.462 607.79 308.362 609.09 302.462 606.69C296.462 604.19 292.262 598.79 289.362 593.09C283.462 581.39 283.362 567.69 277.662 555.89C277.362 555.19 276.362 555.69 276.562 556.39Z" fill="black"/>
<path d="M275.962 557.89C287.462 562.19 297.962 567.29 306.662 576.19C310.662 580.29 314.162 584.79 316.962 589.89C318.862 593.29 320.762 597.39 319.862 601.39C319.162 604.99 316.362 606.29 313.962 608.59C313.062 609.39 313.562 610.69 314.662 611.09C320.962 613.29 325.162 604.99 325.262 599.89C325.462 592.19 320.262 584.59 315.662 578.79C306.362 566.99 291.462 557.29 276.262 556.09C275.062 555.99 275.062 557.59 275.962 557.89Z" fill="black"/>
<path d="M99.2622 609.39C98.7622 605.49 102.362 604.39 105.162 602.59C109.662 599.69 114.262 597.39 119.462 595.99C124.362 594.59 129.362 593.69 134.362 593.09C139.162 592.59 144.162 592.99 148.762 591.69C149.562 591.49 149.862 590.09 149.062 589.69C142.562 586.89 134.262 587.89 127.362 588.69C119.462 589.59 111.862 591.69 104.162 593.49C98.3622 594.89 90.7622 597.29 89.6622 604.19C88.8622 609.29 92.8622 614.39 98.0622 612.09C99.2622 611.79 99.4622 610.39 99.2622 609.39Z" fill="black"/>
<path d="M683.762 404.49C705.962 379.69 714.362 343.79 713.462 311.29C712.862 290.39 707.662 269.99 702.562 249.89C697.062 228.39 691.762 206.79 685.962 185.39C675.562 146.79 666.162 106.49 674.062 66.4903C678.362 44.8903 685.962 14.6903 712.062 11.7903C719.762 10.9903 727.562 10.7903 734.262 15.0903C740.062 18.7903 743.662 24.8903 744.362 31.7903C745.262 40.0903 743.562 53.6903 735.962 58.4903C733.362 60.0903 728.862 60.6903 726.562 58.2903C726.162 57.8903 725.662 56.6903 725.562 56.4903C725.262 54.8903 726.862 54.4903 725.162 55.6903C734.062 49.4903 726.462 36.6903 716.662 41.1903C707.462 45.4903 705.562 57.4903 710.362 65.7903C715.362 74.4903 727.762 75.6903 735.562 69.9903C748.662 60.3903 754.062 39.8903 749.362 24.5903C745.062 10.5903 730.962 2.49032 717.062 0.390317C701.962 -1.90968 688.462 6.19032 680.162 18.4903C671.962 30.5903 667.762 45.3903 665.562 59.6903C662.462 79.5903 661.662 99.6903 663.762 119.69C666.262 143.99 671.762 167.99 677.162 191.79C682.762 216.59 689.162 241.19 695.062 265.89C700.962 290.99 704.362 316.39 701.262 342.19C699.962 352.99 697.462 363.49 693.962 373.79C690.562 383.89 685.862 393.19 681.562 402.89C681.062 404.09 682.662 405.69 683.762 404.49Z" fill="black"/>
<path d="M710.762 308.09C708.562 316.19 708.462 325.29 707.562 333.69C706.562 342.79 705.462 351.89 703.662 360.89C702.062 369.39 699.862 377.79 697.062 385.89C695.462 390.39 693.662 394.79 691.562 398.99C689.862 402.29 687.562 405.29 687.262 408.99C687.162 410.29 688.762 410.99 689.762 410.39C692.962 408.39 694.462 404.89 696.062 401.59C698.062 397.69 699.762 393.69 701.262 389.59C704.462 380.99 706.562 371.99 707.962 362.89C709.362 354.29 710.162 345.69 710.862 337.09C711.562 327.79 712.962 317.59 711.962 308.29C711.962 307.59 710.962 307.39 710.762 308.09Z" fill="black"/>
<path d="M621.962 206.69C618.962 209.19 618.162 212.29 617.562 215.99C617.162 218.79 616.362 220.79 613.962 222.49C606.662 227.79 599.562 219.09 597.762 212.49C593.562 197.29 606.362 176.39 621.262 171.79C638.362 166.59 651.462 182.99 659.862 195.39C669.762 209.89 676.162 226.29 683.462 242.09C687.862 251.79 690.762 262.29 694.062 272.49C697.462 282.99 700.862 293.39 704.362 303.79C704.762 304.99 706.562 304.49 706.262 303.29C703.662 291.29 700.962 279.29 698.162 267.39C695.462 255.69 693.562 243.89 691.262 232.09C687.162 211.59 672.462 192.59 657.062 178.89C643.662 166.89 625.762 159.59 610.162 172.39C597.662 182.59 587.462 203.99 595.062 219.69C598.862 227.49 607.262 232.99 616.062 232.69C620.862 232.49 625.362 230.49 628.562 226.89C632.062 222.99 632.662 218.49 633.762 213.59C635.462 206.39 627.362 202.09 621.962 206.69Z" fill="black"/>
<path d="M724.162 208.79C715.762 214.39 709.062 222.19 703.662 230.69C700.762 235.19 698.262 239.89 696.162 244.79C694.662 248.29 691.862 252.39 694.662 255.69C694.962 256.09 695.762 256.29 696.262 256.09C699.862 254.79 699.762 250.89 700.862 247.59C702.362 242.69 704.362 237.99 706.862 233.49C711.662 224.59 718.162 217.09 724.962 209.79C725.362 209.29 724.762 208.39 724.162 208.79Z" fill="black"/>
<path d="M748.062 180.69C733.562 180.59 716.662 185.19 706.762 196.29C702.362 201.19 699.462 207.19 698.962 213.79C698.462 221.09 700.462 230.89 705.762 236.19C706.762 237.19 708.662 236.49 708.662 234.99C708.662 227.99 704.262 221.89 704.562 214.69C704.862 208.29 708.162 202.39 712.562 197.79C722.362 187.69 735.862 185.99 748.262 180.99C748.262 180.99 748.262 180.69 748.062 180.69Z" fill="black"/>
<path d="M744.162 182.39C735.562 190.19 735.662 202.99 733.162 213.59C731.862 219.19 729.962 225.09 725.362 228.89C722.162 231.49 718.062 232.79 713.962 232.59C710.962 232.49 708.162 230.99 705.162 231.89C704.462 232.09 703.862 232.99 704.162 233.69C706.462 239.59 715.462 239.09 720.562 237.79C727.262 235.99 732.562 231.09 735.462 224.89C741.562 211.79 738.562 196.39 745.362 183.39C745.862 182.59 744.862 181.79 744.162 182.39Z" fill="black"/>
<path d="M649.562 286.89C660.762 291.39 671.262 297.79 679.962 306.19C684.162 310.19 687.962 314.69 691.362 319.39C693.062 321.79 701.162 331.89 698.962 334.79C697.862 336.19 699.662 338.09 701.162 337.69C712.862 334.19 691.662 311.59 687.862 307.89C677.262 297.49 664.262 289.59 649.862 285.59C649.062 285.39 648.862 286.59 649.562 286.89Z" fill="black"/>
<path d="M634.962 274.19C646.762 279.89 660.362 280.09 672.162 285.89C677.562 288.59 682.662 292.59 685.362 298.09C688.362 304.19 686.962 309.69 685.462 315.89C685.062 317.39 686.862 319.09 688.262 318.09C699.762 310.29 691.662 292.39 682.962 285.99C669.562 275.99 651.062 276.59 635.462 273.09C634.762 272.89 634.262 273.89 634.962 274.19Z" fill="black"/>
<path d="M635.162 272.69C636.362 287.89 646.062 302.79 657.862 312.09C663.462 316.59 670.662 321.49 678.162 321.69C683.462 321.79 692.462 317.69 690.162 311.09C689.762 310.09 688.462 309.59 687.662 310.39C685.362 312.79 684.062 315.49 680.462 316.29C676.762 317.09 672.862 315.39 669.662 313.69C664.362 310.89 659.562 307.19 655.262 302.99C646.362 294.39 641.262 283.79 636.962 272.29C636.662 271.49 635.062 271.59 635.162 272.69Z" fill="black"/>
<path d="M691.262 94.5903C693.562 89.3903 688.362 85.2903 683.362 86.1903C676.462 87.3903 674.062 94.8903 672.662 100.69C670.762 108.39 668.762 115.99 667.862 123.89C667.062 130.79 666.062 139.09 668.862 145.59C669.262 146.49 670.562 146.19 670.862 145.29C672.062 140.89 671.762 136.19 672.162 131.79C672.662 126.49 673.662 121.19 675.062 115.99C676.362 111.19 678.462 106.59 681.162 102.39C683.062 99.4903 684.362 95.1903 688.462 95.7903C689.462 95.8903 690.862 95.6903 691.262 94.5903Z" fill="black"/>
<path d="M696.262 378.39C694.362 382.79 692.462 387.29 689.762 391.29C687.262 394.99 684.862 397.69 684.362 402.19C683.862 406.19 689.162 407.29 691.662 405.19C695.362 401.99 696.062 396.99 696.862 392.49C697.662 387.89 698.362 383.39 698.462 378.69C698.562 377.29 696.762 377.29 696.262 378.39Z" fill="black"/>
<path d="M3.16216 514.79C28.9622 521.49 52.4622 535.29 70.8622 554.49C73.3622 557.09 77.2622 553.19 74.7622 550.59C55.7622 530.69 30.6622 517.79 3.36217 513.99C2.86217 513.99 2.56216 514.69 3.16216 514.79Z" fill="black"/>
<path d="M0.862174 516.39C11.0622 522.59 14.6622 535.39 24.7622 541.49C34.3622 547.19 47.3622 546.39 55.9622 539.19C58.0622 537.39 55.2622 533.69 52.9622 535.29C42.6622 542.29 30.1622 541.49 21.4622 532.39C15.2622 525.79 10.9622 516.89 1.7622 514.19C0.462198 513.79 -0.237826 515.69 0.862174 516.39Z" fill="black"/>
<path d="M1.46221 519.09C12.6622 515.39 24.6622 512.59 36.4622 514.79C41.4622 515.79 46.8622 517.99 49.4622 522.69C51.8622 527.19 51.4622 532.69 47.4622 535.99C45.1622 537.89 48.2622 541.89 50.6622 540.09C61.0622 532.29 55.7622 517.39 45.4622 512.49C32.0622 505.99 13.0622 509.99 0.662166 516.89C-0.637834 517.49 0.162215 519.59 1.46221 519.09Z" fill="black"/>
<path d="M345.062 384.09C347.862 382.79 348.762 379.59 350.262 376.89C352.162 373.39 354.162 369.99 356.262 366.59C360.662 359.49 365.562 352.69 370.862 346.29C375.762 340.29 381.062 334.29 386.962 329.19C393.662 323.49 400.262 320.69 409.062 322.39C410.162 322.59 411.062 321.29 410.162 320.39C405.262 315.29 397.362 317.19 391.762 320.19C383.762 324.49 377.362 331.79 371.462 338.49C365.362 345.49 359.762 352.89 354.762 360.79C352.162 364.89 349.762 369.09 347.562 373.39C345.962 376.49 343.262 380.19 344.162 383.69C344.262 384.09 344.662 384.19 345.062 384.09Z" fill="black"/>
<path d="M341.462 382.19C343.662 367.19 344.762 351.89 353.962 339.09C358.062 333.39 363.862 328.79 370.462 326.09C377.562 323.29 383.862 323.89 391.162 325.29C393.862 325.89 395.862 322.09 393.162 320.59C379.762 313.19 361.662 321.89 352.562 332.39C341.262 345.39 337.562 364.99 339.162 381.79C339.262 382.99 341.262 383.59 341.462 382.19Z" fill="black"/>
<path d="M338.462 384.99C349.562 381.39 360.262 374.89 370.462 369.39C379.462 364.59 388.362 359.19 395.162 351.39C400.462 345.19 406.762 335.39 402.662 326.99C399.762 321.19 390.562 318.29 386.862 324.79C385.862 326.59 387.962 329.09 389.862 327.79C393.762 325.19 397.962 327.99 398.162 332.39C398.362 336.39 396.062 340.49 393.862 343.79C389.762 349.99 383.862 354.69 377.762 358.89C364.862 367.79 349.762 373.69 337.562 383.69C337.062 384.19 337.762 385.29 338.462 384.99Z" fill="black"/>
</svg>
