<svg width="386" height="338" viewBox="0 0 386 338" fill="none" xmlns="http://www.w3.org/2000/svg">
<path d="M166.365 228.43C165.565 219.13 160.065 209.63 155.065 201.93C149.565 193.53 142.865 185.83 135.565 178.93C135.765 179.83 136.065 180.73 136.265 181.63C137.065 178.73 141.865 178.33 144.265 177.83C147.665 177.03 151.065 176.33 154.465 175.53C161.165 174.03 167.965 172.33 174.765 170.93C178.665 170.13 182.465 169.63 186.165 171.53C188.665 172.73 190.765 174.53 193.065 176.13C197.565 179.03 201.965 179.53 207.065 180.53C212.765 181.63 214.165 186.93 219.165 189.13C219.965 189.53 221.865 189.73 222.365 190.23C222.865 191.83 223.365 193.43 223.765 194.93C223.065 195.33 222.365 195.83 221.665 196.33C219.465 197.83 217.265 199.33 215.165 201.03C210.365 204.73 205.865 208.93 201.765 213.33C198.265 217.13 194.365 221.23 192.365 225.93C191.765 227.33 193.865 228.23 194.765 227.33C200.465 222.23 204.665 215.43 210.365 210.23C213.465 207.33 216.765 204.63 220.265 202.23C222.765 200.43 226.265 199.03 228.265 196.63C231.665 192.83 228.565 188.43 224.665 186.63C222.565 185.63 220.565 185.33 218.765 183.73C217.465 182.53 216.765 181.03 215.565 179.83C213.765 177.93 211.365 176.93 208.865 176.23C205.465 175.33 201.865 175.33 198.665 173.83C195.465 172.33 192.965 169.73 189.965 167.93C183.465 163.93 176.665 165.23 169.665 166.73C160.965 168.63 152.365 170.53 143.665 172.43C138.465 173.53 132.565 174.43 130.865 180.23C130.565 181.13 130.865 182.23 131.565 182.93C138.465 189.63 145.165 196.53 150.665 204.53C156.065 212.33 158.965 221.13 163.665 229.23C164.265 230.33 166.465 229.93 166.365 228.43Z" fill="black"/>
<path d="M140.365 184.73C135.665 176.03 124.365 181.33 121.965 189.03C121.665 190.13 121.565 191.23 121.365 192.43C120.965 195.33 119.765 197.03 117.365 198.63C115.165 200.23 112.865 201.43 110.865 203.23C106.965 206.63 103.665 211.13 102.265 216.23C100.465 222.73 103.565 228.63 102.665 235.03C101.965 239.63 103.365 245.33 106.565 248.93C110.165 253.03 115.165 249.83 119.265 248.23C126.065 245.53 133.365 244.43 140.265 241.93C141.765 241.43 141.565 239.13 139.865 239.03C135.565 238.93 131.365 239.93 127.265 241.03C124.765 241.73 122.165 242.53 119.765 243.33C117.765 244.03 115.365 245.53 113.265 245.83C106.565 246.73 107.365 237.33 107.665 233.13C108.065 228.23 105.465 223.73 106.365 218.83C107.165 214.43 109.765 210.53 112.965 207.43C115.865 204.63 119.565 203.13 122.465 200.43C125.265 197.83 125.165 194.83 125.965 191.23C127.365 184.63 133.665 181.93 139.465 185.53C140.065 186.03 140.665 185.33 140.365 184.73Z" fill="black"/>
<path d="M140.165 239.33C128.965 239.93 111.665 246.03 107.765 257.93C106.065 263.23 108.765 267.13 113.065 270.03C114.765 271.13 116.165 271.83 117.265 273.63C118.065 275.03 118.165 276.73 119.065 278.03C120.565 280.23 122.765 280.53 124.965 281.33C131.365 283.53 133.965 289.93 139.265 293.63C144.565 297.23 151.065 297.53 157.265 296.73C162.565 296.03 169.565 295.53 171.265 289.63C173.265 282.43 173.865 273.53 173.965 266.03C173.965 264.53 171.865 264.33 171.465 265.73C169.565 271.63 168.565 277.63 167.565 283.63C166.965 286.93 167.065 289.23 163.665 290.43C161.065 291.33 157.765 291.63 155.065 291.83C149.465 292.33 144.065 291.63 139.765 287.53C136.765 284.63 134.465 281.03 130.865 278.73C129.365 277.73 127.765 277.43 126.165 276.73C123.065 275.23 122.665 273.13 120.965 270.53C118.665 267.03 111.765 265.83 111.665 261.13C111.565 255.23 119.665 250.33 123.965 247.83C129.065 244.83 134.765 242.73 140.365 240.83C141.165 240.53 141.065 239.23 140.165 239.33Z" fill="black"/>
<path d="M201.265 217.83C208.765 211.93 216.265 207.63 226.165 207.63C228.165 207.63 231.265 207.43 232.965 208.43C236.265 210.23 236.865 214.23 237.765 217.43C239.165 222.53 240.365 227.63 241.165 232.93C241.965 238.13 242.465 243.43 242.065 248.73C241.865 251.53 241.465 254.33 240.765 257.03C239.965 260.23 239.265 261.03 236.065 260.33C226.265 258.13 216.465 254.13 206.465 253.53C205.165 253.43 204.665 255.43 205.765 255.93C212.265 259.13 219.465 260.53 226.365 262.43C230.465 263.53 238.065 267.33 242.165 264.53C246.065 261.83 246.365 253.93 246.665 249.63C247.265 242.73 246.365 235.83 244.865 229.03C243.465 222.63 242.065 214.93 239.165 209.03C236.965 204.63 231.765 204.23 227.465 204.13C217.465 203.93 205.765 208.53 200.065 217.13C199.865 217.63 200.765 218.23 201.265 217.83Z" fill="black"/>
<path d="M188.765 244.43C198.065 250.93 208.265 257.13 216.465 265.13C218.265 266.93 219.965 268.73 221.465 270.73C223.465 273.43 225.165 275.33 221.765 277.33C217.765 279.73 216.465 283.03 213.565 286.33C211.365 288.83 208.865 287.33 205.965 286.93C203.865 286.63 201.665 286.83 199.565 287.43C194.465 288.93 188.265 294.83 182.765 292.93C177.365 291.13 176.165 280.23 175.165 275.53C173.765 268.93 173.165 262.13 172.365 255.43C172.165 253.93 170.165 253.93 170.065 255.43C169.065 263.83 169.965 272.23 171.665 280.43C172.665 285.63 173.565 292.83 178.265 296.23C182.965 299.63 189.065 297.93 193.865 295.73C198.765 293.43 202.065 291.43 207.665 292.43C210.065 292.83 212.265 293.33 214.565 292.13C216.765 291.03 217.565 289.13 218.665 287.23C220.765 283.63 223.365 282.43 226.565 279.93C231.265 276.33 227.765 271.43 224.865 267.73C215.965 256.33 201.765 250.13 189.565 243.13C188.665 242.73 187.965 243.93 188.765 244.43Z" fill="black"/>
<path d="M130.465 213.53C137.765 216.33 144.665 220.03 151.265 224.23C154.565 226.33 157.765 228.53 160.765 230.93C163.165 232.93 165.265 235.53 168.465 236.03C169.765 236.23 170.865 235.33 170.565 233.93C169.865 230.53 166.765 228.63 164.065 226.63C160.765 224.23 157.365 221.93 153.765 220.03C146.465 216.23 138.765 213.93 130.765 212.63C130.065 212.53 129.865 213.33 130.465 213.53Z" fill="black"/>
<path d="M163.565 183.23C167.765 191.23 170.665 201.23 168.465 210.33C167.265 215.43 165.265 220.33 163.965 225.33C162.965 229.03 161.065 234.83 162.765 238.53C164.865 243.43 172.165 240.83 171.465 235.83C171.265 234.23 169.565 233.33 168.265 234.53C168.065 234.73 168.465 236.23 169.065 235.23C169.265 234.93 169.165 233.43 169.165 233.13C169.365 230.93 169.865 228.73 170.265 226.53C170.965 222.23 171.965 218.03 172.765 213.73C174.965 202.63 171.365 191.23 163.965 182.83C163.865 182.53 163.365 182.83 163.565 183.23Z" fill="black"/>
<path d="M197.665 186.93C188.765 192.43 182.565 200.83 177.665 210.03C172.965 219.03 168.065 229.73 166.765 239.83C166.465 242.23 169.965 243.33 171.465 241.73C171.765 241.33 172.165 241.03 172.465 240.63C173.765 239.33 172.765 237.33 171.065 237.23C170.565 237.23 170.065 237.13 169.465 237.13C170.265 238.53 171.065 239.93 171.865 241.23C175.965 232.53 177.465 222.53 181.265 213.53C185.265 203.93 190.965 195.33 198.565 188.03C199.065 187.53 198.365 186.53 197.665 186.93Z" fill="black"/>
<path d="M220.965 230.13C204.565 232.53 187.765 232.63 171.365 230.03C166.065 229.23 164.065 236.13 169.165 238.03C172.165 239.23 175.065 237.83 175.965 234.83C176.365 233.73 175.565 232.43 174.465 232.13C173.765 231.73 173.565 231.63 173.865 231.93C172.665 234.03 171.465 236.13 170.265 238.23C187.665 239.13 204.865 236.93 221.365 231.53C222.265 231.23 221.865 230.03 220.965 230.13Z" fill="black"/>
<path d="M183.165 238.83C177.865 238.23 172.865 236.73 167.765 235.73C164.765 235.13 163.465 239.43 166.465 240.33C171.965 241.93 177.965 241.43 183.365 240.03C183.965 239.83 183.765 238.93 183.165 238.83Z" fill="black"/>
<path d="M131.365 270.23C138.065 264.23 143.365 257.43 150.865 252.33C154.365 249.93 158.065 247.83 161.965 246.03C165.165 244.53 168.865 244.13 169.765 240.33C169.965 239.33 169.665 238.23 168.665 237.73C164.965 235.63 161.865 238.43 158.665 240.43C154.665 242.93 150.865 245.83 147.265 248.93C140.865 254.53 133.665 261.63 130.565 269.63C130.365 270.33 130.965 270.53 131.365 270.23Z" fill="black"/>
<path d="M146.065 272.53C151.065 268.63 154.765 263.23 158.665 258.23C162.565 253.23 166.565 248.23 170.565 243.23C172.965 240.33 171.365 236.23 167.565 235.93C166.265 235.83 163.365 235.33 165.465 233.53C167.065 232.13 166.065 229.73 164.265 229.13C159.665 227.63 155.765 231.83 156.265 236.33C156.865 241.93 162.465 244.63 167.565 244.53C166.365 242.33 165.065 240.23 163.865 238.03C160.465 243.83 156.965 249.63 153.465 255.33C150.265 260.53 146.665 265.83 144.865 271.73C144.465 272.63 145.465 272.93 146.065 272.53Z" fill="black"/>
<path d="M187.165 271.03C186.365 263.83 184.565 256.93 181.765 250.23C179.665 245.33 174.765 232.63 167.465 234.93C159.265 237.53 169.165 246.33 172.065 248.83C178.965 254.83 183.565 262.43 186.165 271.13C186.365 271.73 187.265 271.63 187.165 271.03Z" fill="black"/>
<path d="M182.765 247.53C183.565 244.13 180.265 240.73 177.565 239.13C175.765 238.03 173.765 237.23 171.665 237.13C170.865 237.03 169.565 236.93 168.865 237.23C167.565 237.03 167.565 237.43 168.765 238.53C168.765 238.13 168.865 237.83 168.865 237.43C169.065 234.53 165.765 233.13 163.465 234.33C157.965 237.13 162.165 244.43 167.065 244.93C169.565 245.13 171.965 244.03 174.465 244.43C177.365 244.83 178.865 247.13 181.265 248.23C181.765 248.43 182.565 248.23 182.765 247.53Z" fill="black"/>
<path d="M138.065 229.63C143.465 231.23 148.665 232.43 153.765 234.93C158.365 237.13 162.665 240.13 166.765 243.23C171.665 246.83 176.965 237.53 170.265 234.83C160.565 230.83 148.665 228.03 138.065 228.53C137.565 228.53 137.465 229.43 138.065 229.63Z" fill="black"/>
<path d="M202.565 204.73C200.665 203.43 198.865 203.23 196.765 204.13C194.665 204.93 193.665 207.43 195.465 209.23C198.165 211.93 204.765 211.53 204.765 206.53C204.765 201.73 198.965 201.53 195.965 203.33C193.265 204.93 191.465 207.73 189.465 210.13C187.065 213.03 184.765 215.93 182.465 218.93C177.965 224.83 172.065 231.33 169.565 238.33C169.265 239.13 170.365 239.73 170.965 239.13C175.965 234.23 179.465 227.73 184.165 222.43C186.565 219.83 189.065 217.23 191.665 214.83C193.065 213.53 202.165 206.93 199.765 204.83C199.965 206.03 200.065 207.33 200.265 208.53C200.965 207.93 201.665 207.33 202.365 206.83C203.365 206.63 203.365 205.33 202.565 204.73Z" fill="black"/>
<path d="M130.665 155.93C130.465 155.33 130.265 154.83 130.065 154.23C130.965 154.13 131.865 154.03 132.765 153.83C132.565 154.13 132.465 154.53 132.265 154.83C131.465 154.63 130.665 154.43 129.765 154.13C135.065 159.93 139.765 166.53 143.465 173.53C147.565 181.23 149.765 189.53 152.365 197.83C157.165 213.73 163.565 230.43 172.865 244.33C173.365 245.13 174.465 244.43 174.065 243.63C170.165 234.73 165.865 226.13 162.465 216.93C159.465 208.63 157.065 200.23 154.865 191.73C150.865 176.13 144.665 162.33 133.365 150.53C132.765 149.93 131.665 149.53 130.865 149.83C127.065 151.23 126.665 156.73 130.965 157.83C131.665 158.03 132.665 157.83 133.165 157.23C134.965 154.93 134.165 150.23 130.265 150.93C127.265 151.43 126.865 155.43 129.565 156.43C130.265 156.83 130.565 156.33 130.665 155.93Z" fill="black"/>
<path d="M253.865 158.83C264.465 173.43 284.765 171.33 298.665 180.93C307.265 186.93 311.965 197.33 315.765 206.73C319.465 215.83 322.565 227.43 330.065 234.23C330.665 234.83 331.865 234.23 331.565 233.33C329.765 228.13 327.165 223.23 325.365 218.03C323.565 212.73 322.065 207.43 320.065 202.23C316.765 193.43 312.465 184.83 305.165 178.63C291.065 166.53 269.665 169.93 256.365 156.83C255.165 155.63 252.765 157.33 253.865 158.83Z" fill="black"/>
<path d="M326.765 230.53C322.965 218.43 307.065 226.53 299.365 227.93C292.565 229.13 285.465 227.73 279.465 224.33C272.765 220.43 269.665 214.03 264.365 208.73C255.665 200.03 241.965 198.23 234.765 187.83C228.365 178.73 225.865 167.13 215.865 160.93C215.665 162.73 215.365 164.53 215.165 166.43C221.765 164.03 228.465 162.33 235.465 161.73C242.065 161.13 248.665 162.03 255.265 162.13C257.365 162.13 257.465 159.43 255.765 158.73C242.765 153.73 226.465 156.23 213.565 160.63C211.065 161.53 210.665 164.63 212.865 166.13C222.265 172.33 224.365 184.73 231.165 193.23C238.865 202.83 251.765 204.53 260.065 213.13C264.565 217.73 267.465 223.33 272.665 227.23C277.265 230.53 282.665 232.73 288.265 233.53C293.665 234.33 299.265 233.93 304.365 232.13C311.365 229.73 318.665 225.43 325.165 231.53C325.865 232.03 327.065 231.43 326.765 230.53Z" fill="black"/>
<path d="M271.265 195.63C274.865 188.53 275.265 180.33 272.465 172.93C270.165 166.93 264.865 157.73 257.665 157.33C256.365 157.23 255.565 158.83 256.165 159.93C257.565 162.33 260.065 163.93 262.065 165.93C264.365 168.33 266.365 171.13 267.665 174.23C270.565 180.83 271.465 188.03 269.965 195.03C269.765 195.83 270.865 196.33 271.265 195.63Z" fill="black"/>
<path d="M286.965 195.73C288.565 186.73 284.365 172.93 275.965 168.13C274.565 167.33 273.265 168.83 273.865 170.23C275.865 174.53 279.065 178.03 281.065 182.33C282.965 186.63 284.065 191.23 285.365 195.73C285.565 196.43 286.765 196.53 286.965 195.73Z" fill="black"/>
<path d="M225.965 160.93C223.765 158.43 220.765 155.53 220.665 152.03C220.665 148.93 222.365 146.23 222.765 143.13C223.465 137.23 220.465 131.83 218.865 126.43C217.865 123.13 217.165 119.53 219.165 116.43C221.365 113.13 225.465 111.53 228.865 109.63C234.065 106.73 238.465 102.93 239.065 96.63C237.765 97.33 236.465 98.1299 235.265 98.8299C245.565 103.93 253.765 112.63 257.765 123.43C259.865 129.13 260.665 135.13 260.565 141.13C260.365 148.23 258.365 155.03 258.065 162.13C257.965 163.83 260.665 164.73 261.365 163.03C272.265 137.73 262.665 106.93 237.865 94.43C236.065 93.53 234.265 94.63 234.065 96.63C233.265 104.83 220.665 106.53 215.965 112.03C211.565 117.23 212.565 123.73 214.765 129.63C215.965 132.93 217.465 136.13 218.165 139.53C218.865 143.33 217.265 146.53 216.865 150.23C216.265 156.33 219.765 160.03 225.065 162.33C225.765 162.63 226.665 161.63 225.965 160.93Z" fill="black"/>
<path d="M230.065 123.43C237.365 126.93 243.965 130.63 248.465 137.63C250.665 140.93 252.065 144.63 252.865 148.53C253.465 151.43 253.165 154.23 255.665 156.03C256.065 156.33 256.865 156.33 257.365 156.03C263.665 151.43 255.865 138.13 252.465 133.73C247.465 127.13 239.165 121.33 230.565 121.53C229.565 121.43 229.065 122.93 230.065 123.43Z" fill="black"/>
<path d="M234.165 139.03C238.265 139.93 242.165 141.63 245.565 144.03C248.765 146.23 250.865 149.63 253.965 151.93C254.765 152.53 255.965 151.53 255.665 150.63C254.565 146.73 250.465 143.63 247.065 141.53C243.165 139.03 238.965 137.83 234.365 137.43C233.465 137.23 233.265 138.83 234.165 139.03Z" fill="black"/>
<path d="M244.365 99.93C252.965 100.83 260.965 106.13 269.165 108.83C277.565 111.63 288.165 114.73 291.965 123.73C295.865 133.03 288.265 142.03 281.765 147.83C275.265 153.63 268.165 157.73 260.465 161.63C259.065 162.33 259.665 164.93 261.365 164.73C271.465 163.73 280.365 157.03 287.265 149.93C293.965 143.13 299.965 133.43 296.865 123.53C293.965 114.33 284.665 109.43 276.065 106.73C270.265 104.93 264.465 103.53 258.865 101.23C253.865 99.23 249.565 97.43 244.165 98.13C243.065 98.33 243.465 99.83 244.365 99.93Z" fill="black"/>
<path d="M274.665 129.63C277.165 141.33 269.065 150.23 261.465 158.03C258.965 160.63 262.965 164.63 265.465 162.03C273.565 153.23 282.765 141.33 276.665 128.83C276.065 127.63 274.465 128.43 274.665 129.63Z" fill="black"/>
<path d="M293.865 126.73C305.165 139.83 312.265 156.13 312.965 173.53C313.965 172.83 314.865 172.13 315.865 171.33C308.065 169.53 300.165 168.13 292.265 167.13C288.265 166.63 284.165 166.23 280.165 165.93C276.665 165.63 273.365 165.13 270.165 166.63C269.265 167.03 269.365 168.43 270.165 168.93C272.765 170.43 275.365 170.23 278.265 170.43C282.365 170.73 286.365 171.03 290.365 171.53C298.565 172.53 306.665 173.93 314.665 175.73C316.065 176.03 317.565 175.13 317.565 173.53C316.665 155.13 309.265 137.63 295.865 124.83C294.565 123.53 292.765 125.43 293.865 126.73Z" fill="black"/>
<path d="M312.165 171.53C316.265 178.63 320.065 184.63 321.265 193.03C321.965 197.43 321.965 201.83 321.765 206.33C321.665 210.93 320.665 215.73 321.165 220.23C321.365 222.43 324.465 223.03 325.165 220.73C327.965 211.63 327.365 199.83 325.365 190.53C323.765 183.23 320.165 174.13 313.365 170.23C312.565 169.93 311.665 170.73 312.165 171.53Z" fill="black"/>
<path d="M301.665 149.83C295.665 150.63 289.765 153.33 283.865 154.83C280.365 155.73 276.865 156.33 273.365 156.73C270.465 157.03 267.865 156.63 265.465 158.33C264.365 159.13 264.165 160.83 265.465 161.53C270.365 164.33 279.265 161.33 284.465 159.93C290.565 158.23 297.865 155.83 302.265 151.13C302.565 150.73 302.365 149.73 301.665 149.83Z" fill="black"/>
<path d="M361.165 158.83C365.165 154.33 360.565 149.53 355.865 148.13C347.065 145.63 335.865 147.13 326.965 148.33C308.165 150.73 288.165 156.43 271.265 165.13C270.365 165.63 270.965 166.93 271.965 166.73C286.965 163.43 301.365 157.53 316.565 154.83C324.265 153.43 332.165 152.53 339.865 152.93C342.565 153.13 358.465 153.43 358.765 157.83C358.765 158.93 360.265 159.83 361.165 158.83Z" fill="black"/>
<path d="M334.065 109.73C334.265 110.03 335.365 111.23 335.265 110.53C335.665 109.73 336.165 109.03 336.565 108.23C330.965 111.83 327.765 118.53 323.165 123.33C318.065 128.63 312.665 133.73 307.265 138.63C301.865 143.53 296.365 148.33 290.665 152.73C287.665 155.03 284.665 157.23 281.565 159.43C278.865 161.23 275.665 162.83 273.665 165.33C273.265 165.83 273.665 166.63 274.365 166.53C278.365 165.73 281.865 162.53 285.165 160.23C288.565 157.83 291.965 155.23 295.265 152.63C302.165 147.13 308.765 141.33 315.165 135.23C321.965 128.83 328.365 122.53 335.665 116.83C337.565 115.33 340.965 112.73 340.465 109.83C340.065 107.63 337.965 106.73 335.965 106.63C334.565 106.53 333.565 108.03 333.965 109.33C333.965 109.53 333.965 109.63 334.065 109.73Z" fill="black"/>
<path d="M268.865 214.63C259.265 212.13 250.165 213.93 240.965 217.03C237.265 218.33 239.365 223.63 243.065 222.13C251.165 218.73 259.765 216.33 268.565 216.33C269.665 216.43 269.865 214.93 268.865 214.63Z" fill="black"/>
<path d="M221.665 170.93C220.565 172.43 220.365 174.33 219.265 175.93C218.065 177.43 216.565 178.73 214.965 179.83C212.365 181.73 215.365 185.53 217.665 183.33C219.365 181.63 221.165 179.83 222.165 177.63C222.965 175.83 223.865 173.13 223.265 171.23C222.965 170.33 222.065 170.33 221.665 170.93Z" fill="black"/>
<path d="M224.965 189.63C225.765 188.63 226.565 187.73 227.365 186.73C228.265 185.63 229.165 184.73 229.365 183.33C229.465 182.23 228.065 181.13 227.065 181.53C225.765 182.03 225.165 183.03 224.365 184.13C223.665 185.03 222.965 185.93 222.265 186.83C221.565 187.63 221.465 188.83 222.265 189.63C222.865 190.33 224.265 190.43 224.965 189.63Z" fill="black"/>
<path d="M217.465 206.83C220.865 203.93 224.665 201.33 228.465 198.93C231.265 197.13 235.465 196.03 237.365 193.23C237.865 192.53 237.165 191.73 236.465 191.63C232.765 191.23 228.665 194.93 225.865 196.93C222.365 199.53 219.465 202.63 216.765 206.03C216.365 206.63 216.965 207.33 217.465 206.83Z" fill="black"/>
<path d="M238.765 213.73C246.365 211.73 253.865 209.93 261.565 208.23C264.365 207.63 263.765 203.03 260.865 203.13C252.865 203.53 245.065 206.73 237.565 209.33C234.865 210.23 235.965 214.53 238.765 213.73Z" fill="black"/>
<path d="M118.465 170.83C126.665 154.43 135.265 139.73 153.465 133.13C161.165 130.33 169.365 129.03 177.465 127.83C179.465 127.53 182.465 126.53 184.565 126.93C187.565 127.53 187.865 130.13 189.265 132.23C191.265 135.23 193.965 137.43 197.165 139.03C197.165 137.63 197.165 136.23 197.165 134.93C193.965 137.23 189.665 135.63 185.965 136.43C182.965 137.03 180.365 138.63 178.065 140.53C175.565 142.63 173.565 145.23 171.565 147.73C170.465 149.13 169.465 150.83 168.165 152.03C165.765 154.13 163.265 153.63 160.365 153.33C152.165 152.63 145.565 152.53 138.365 156.73C135.065 158.73 132.065 161.23 129.265 163.83C127.765 165.23 126.365 166.83 124.765 168.23C123.965 169.13 123.065 169.93 122.065 170.63C119.865 171.43 118.765 171.13 118.865 169.73C120.465 168.53 119.565 165.33 117.365 166.23C111.365 168.63 114.965 176.83 120.765 176.23C125.365 175.73 128.565 171.33 131.565 168.43C135.865 164.33 140.665 160.23 146.365 158.43C152.765 156.33 158.865 158.73 165.265 158.13C169.365 157.73 171.365 155.23 173.665 152.13C176.865 148.03 180.565 142.73 185.865 141.23C190.565 139.83 195.265 142.13 199.565 139.13C200.965 138.13 201.265 135.83 199.565 135.03C196.465 133.53 194.365 131.53 192.665 128.53C191.865 127.03 191.265 125.43 190.065 124.13C187.465 121.43 184.265 122.03 180.865 122.43C170.865 123.63 160.865 125.13 151.465 128.83C133.265 135.93 121.765 151.53 116.065 169.73C115.565 171.23 117.765 172.13 118.465 170.83Z" fill="black"/>
<path d="M146.865 130.73C141.765 130.23 136.565 130.63 131.465 130.13C127.465 129.73 123.365 128.83 119.365 129.03C111.765 129.23 106.765 134.13 101.265 138.93C97.2651 142.43 87.8651 147.53 89.9651 154.23C92.0651 160.83 99.7651 160.23 104.965 158.83C103.965 158.43 103.065 158.03 102.065 157.63C105.565 163.63 117.365 171.43 123.665 164.73C124.465 163.93 124.165 162.53 122.965 162.23C120.265 161.53 117.465 162.13 114.665 161.43C111.065 160.53 108.265 158.23 106.465 155.03C105.865 154.03 104.665 153.53 103.565 153.83C102.265 154.23 100.765 154.63 99.4651 154.73C96.7651 154.83 94.9651 152.53 96.0651 150.23C96.8651 148.53 100.365 146.43 101.765 145.23C105.765 141.73 110.265 136.43 115.465 134.73C120.565 133.03 126.165 134.63 131.365 134.73C136.565 134.83 142.065 134.53 146.965 132.53C147.965 132.03 147.765 130.83 146.865 130.73Z" fill="black"/>
<path d="M114.365 132.23C119.165 126.73 122.365 118.53 128.465 114.33C134.365 110.23 141.665 106.63 148.565 104.73C152.565 103.63 156.765 103.23 160.965 103.43C163.065 103.53 166.765 103.03 166.665 106.63C166.665 107.83 165.465 109.33 165.065 110.43C163.165 115.33 162.365 120.03 165.765 124.33C167.465 126.43 170.465 123.43 168.765 121.33C163.665 114.93 175.665 106.83 169.465 101.13C167.765 99.53 165.065 99.53 162.865 99.33C158.265 99.03 153.565 99.13 149.065 100.23C141.365 102.03 133.665 106.23 127.165 110.63C120.265 115.13 116.165 123.93 113.065 131.23C112.665 132.03 113.665 133.03 114.365 132.23Z" fill="black"/>
<path d="M165.865 121.03C167.165 112.93 172.865 105.73 180.365 102.33C184.465 100.53 189.165 99.73 193.465 101.53C196.665 102.93 205.265 104.23 205.665 108.43C206.365 107.73 207.165 106.93 207.865 106.23C200.165 106.53 189.565 110.03 186.665 117.93C186.165 119.23 187.865 120.33 188.965 119.63C191.765 117.93 193.865 115.43 196.665 113.73C200.165 111.73 203.865 110.83 207.865 110.63C208.965 110.63 210.165 109.63 210.065 108.43C209.565 102.33 204.665 100.93 199.565 99.43C193.465 97.63 189.465 95.4299 182.965 97.3299C172.265 100.33 164.765 109.73 164.465 120.83C164.465 121.63 165.765 121.83 165.865 121.03Z" fill="black"/>
<path d="M181.365 125.93C187.865 118.93 199.065 116.13 208.165 118.53C209.065 118.73 209.865 119.03 210.765 119.33C211.565 119.73 212.365 120.13 213.265 120.43C214.065 120.53 213.965 120.83 213.065 121.23C212.265 123.13 208.265 125.13 206.565 126.43C204.165 128.33 201.765 130.63 199.165 132.03C197.065 133.23 194.765 133.23 192.665 134.33C191.865 134.73 191.865 135.73 192.365 136.33C196.965 141.93 205.465 133.33 209.065 130.33C212.465 127.53 223.065 121.63 216.065 117.03C204.165 109.33 188.165 114.33 180.065 124.73C179.565 125.53 180.665 126.73 181.365 125.93Z" fill="black"/>
<path d="M138.665 117.93C141.865 122.43 144.965 126.83 148.565 131.03C149.165 131.63 150.265 132.03 151.065 131.73C151.765 131.43 152.265 131.23 152.665 130.53C153.165 129.43 153.165 128.23 152.265 127.33C148.465 123.53 144.365 120.13 140.165 116.73C139.465 116.03 138.065 116.93 138.665 117.93Z" fill="black"/>
<path d="M152.765 118.23C151.565 120.23 151.165 122.13 151.465 124.53C151.765 126.43 152.665 129.43 154.865 129.73C155.765 129.83 156.765 129.33 156.765 128.33C156.665 126.73 155.465 125.63 154.865 124.23C154.265 122.63 154.065 120.63 154.265 118.93C154.465 117.93 153.265 117.23 152.765 118.23Z" fill="black"/>
<path d="M154.565 148.63C154.665 145.23 155.165 141.73 156.465 138.53C157.565 135.93 159.765 133.83 159.865 131.03C159.865 130.13 158.865 129.23 157.865 129.53C154.665 130.73 153.465 134.73 152.765 137.83C151.865 141.53 151.865 145.13 152.865 148.83C153.165 149.83 154.565 149.53 154.565 148.63Z" fill="black"/>
<path d="M184.065 109.23C176.365 108.73 165.965 115.03 165.665 123.53C165.565 126.03 168.965 126.73 170.165 124.73C171.965 121.83 172.765 118.83 175.265 116.23C177.665 113.73 180.965 112.03 184.265 111.03C185.365 110.73 185.065 109.23 184.065 109.23Z" fill="black"/>
<path d="M114.465 149.93C118.365 144.23 122.665 141.53 129.365 139.93C133.765 138.83 139.965 138.83 142.865 134.83C143.365 134.13 142.865 133.03 142.065 132.83C138.965 132.23 136.165 133.63 133.165 134.43C129.565 135.33 126.065 136.23 122.665 137.73C117.965 139.83 112.765 143.83 112.565 149.33C112.365 150.53 113.865 150.73 114.465 149.93Z" fill="black"/>
<path d="M173.365 68.43C174.065 67.23 174.865 65.93 175.565 64.73C176.565 63.03 175.265 61.13 173.465 61.03C161.765 60.23 158.965 77.53 157.865 85.73C156.865 92.83 156.665 99.93 157.265 107.03C157.865 113.43 158.365 120.83 161.565 126.43C162.065 127.33 163.365 126.93 163.365 125.93C163.565 120.53 161.965 115.13 161.765 109.73C161.465 104.23 161.565 98.73 162.165 93.33C162.765 87.83 163.865 82.33 165.265 76.93C166.665 71.93 168.465 66.83 174.165 65.73C173.165 64.73 172.165 63.73 171.165 62.73C170.865 64.13 170.565 65.63 170.365 67.03C169.965 68.93 172.365 70.13 173.365 68.43Z" fill="black"/>
<path d="M108.665 82.43C109.465 80.33 121.065 90.23 122.165 91.33C126.465 95.53 130.365 100.13 134.365 104.73C142.065 113.63 149.465 122.73 156.765 131.93C157.265 132.53 158.365 131.73 157.865 131.03C147.965 117.63 136.965 105.33 126.365 92.53C122.465 87.83 118.565 80.83 112.465 78.63C109.465 77.53 104.665 78.33 105.765 82.43C106.265 83.93 108.265 83.83 108.665 82.43Z" fill="black"/>
<path d="M197.065 135.23C194.365 142.13 194.465 150.83 195.465 158.13C196.365 164.83 197.965 174.83 202.965 179.73C204.065 180.83 205.465 179.63 205.365 178.33C204.865 174.93 202.965 172.03 201.865 168.73C200.565 165.03 199.665 161.23 199.165 157.33C198.065 149.93 198.965 142.93 199.165 135.53C199.065 134.23 197.465 134.13 197.065 135.23Z" fill="black"/>
<path d="M150.565 157.43C154.065 159.63 157.665 162.03 160.765 164.83C162.865 166.63 164.965 170.43 167.965 170.43C168.465 170.43 168.765 170.03 168.865 169.53C169.265 166.33 164.565 163.63 162.265 161.93C158.765 159.33 155.265 157.43 151.165 156.03C150.365 155.83 149.865 157.03 150.565 157.43Z" fill="black"/>
<path d="M187.865 169.73C182.565 161.63 181.265 153.03 182.265 143.63C182.565 141.13 178.165 140.53 177.865 143.03C176.365 153.13 179.965 163.23 186.865 170.63C187.265 171.13 188.265 170.33 187.865 169.73Z" fill="black"/>
<path d="M174.365 162.93C173.965 160.93 173.165 159.23 172.065 157.43C171.165 155.83 170.065 153.93 168.065 153.93C167.365 153.93 166.865 154.53 166.765 155.23C166.665 157.13 168.365 158.23 169.465 159.53C170.665 160.93 171.665 162.43 172.865 163.83C173.465 164.53 174.565 163.73 174.365 162.93Z" fill="black"/>
<path d="M216.065 181.53C214.565 156.33 213.965 131.63 220.665 107.03C227.165 83.03 238.565 60.0301 255.365 41.6301C271.665 23.8301 293.265 9.93006 317.465 6.43006C339.665 3.23006 366.965 10.23 377.265 32.23C382.765 43.83 379.765 57.1301 369.665 65.1301C364.765 69.0301 358.865 71.13 352.665 71.03C348.865 71.03 337.265 68.7301 338.665 63.1301C337.865 64.1301 337.165 65.1301 336.365 66.1301C338.465 65.1301 340.365 65.0301 342.565 65.1301C348.965 65.5301 348.565 56.23 342.565 55.33C335.865 54.43 327.665 56.7301 328.365 64.9301C328.965 71.5301 335.065 76.3301 341.165 77.9301C352.865 81.0301 365.965 76.1301 374.665 68.1301C383.465 60.0301 387.365 47.93 384.465 36.23C381.365 23.83 371.565 14.0301 360.665 7.93006C335.465 -6.06994 304.465 0.130067 280.465 13.6301C253.865 28.6301 233.365 53.03 221.265 80.83C207.965 111.23 201.565 149.83 213.765 181.63C214.265 182.93 216.165 182.83 216.065 181.53Z" fill="black"/>
<path d="M142.165 170.93C127.265 167.03 112.965 175.93 99.9651 182.33C86.2651 189.03 71.6651 195.73 56.1651 195.43C42.0651 195.23 27.4651 190.03 18.2651 179.03C9.96507 169.13 6.26506 154.63 9.96506 142.13C11.8651 135.73 16.8651 126.83 24.6651 127.93C30.3651 128.73 36.0651 132.63 38.7651 137.63C42.6651 145.03 53.3651 138.53 49.8651 131.13C43.2651 117.33 26.4651 115.03 14.3651 122.93C1.36507 131.53 -2.13492 150.23 1.16508 164.53C9.16508 199.53 49.0651 212.33 80.1651 200.63C90.3651 196.83 99.4651 190.63 108.765 185.13C118.665 179.23 129.865 172.23 141.865 173.43C143.265 173.53 143.465 171.33 142.165 170.93Z" fill="black"/>
<path d="M241.765 223.83C247.965 226.83 254.665 228.53 260.765 231.73C267.065 235.03 273.065 238.93 278.065 244.03C289.765 255.93 291.565 271.83 290.165 287.83C288.865 303.03 283.265 319.93 267.865 326.13C262.165 328.43 250.765 329.43 247.865 322.23C245.165 315.33 253.365 312.43 257.465 309.13C259.765 307.23 258.865 303.33 256.565 302.03C249.765 298.13 242.265 302.53 238.365 308.63C234.365 314.93 235.565 323.53 239.865 329.33C249.365 342.13 269.265 337.63 279.965 329.23C292.765 319.13 297.565 302.73 297.665 287.03C297.865 271.23 294.965 255.13 283.865 243.23C278.465 237.43 271.765 232.83 264.665 229.33C257.765 225.93 249.865 222.43 242.265 221.63C241.165 221.43 240.665 223.33 241.765 223.83Z" fill="black"/>
<path d="M320.165 30.03C307.665 21.23 286.865 26.03 273.865 31.03C260.365 36.23 244.265 45.83 237.765 59.43C237.265 60.43 238.465 61.53 239.365 60.63C244.665 55.33 249.165 49.73 255.265 45.33C261.465 40.83 268.365 37.43 275.665 35.23C282.665 33.03 289.965 32.13 297.365 32.33C304.565 32.53 311.865 34.43 319.065 34.13C321.365 34.03 321.965 31.33 320.165 30.03Z" fill="black"/>
<path d="M268.065 298.53C272.665 296.23 275.465 289.83 277.765 285.43C280.665 279.93 282.665 274.13 283.665 267.93C285.065 258.73 282.765 246.33 275.865 239.53C275.265 238.93 274.365 239.73 274.665 240.43C277.165 245.63 279.065 249.63 278.765 255.53C278.565 260.43 278.065 265.43 276.665 270.13C275.265 275.03 273.165 279.73 270.865 284.33C268.965 288.23 265.665 292.63 265.665 297.13C265.665 298.43 266.965 299.13 268.065 298.53Z" fill="black"/>
<path d="M56.3651 164.73C57.3651 167.23 57.1651 168.93 59.1651 171.13C60.9651 173.03 63.2651 174.63 65.4651 176.13C70.0651 179.23 75.4651 180.83 80.7651 182.33C90.6651 185.03 103.965 187.73 114.065 184.73C115.565 184.33 115.765 181.83 114.065 181.43C109.365 180.53 104.365 180.93 99.5651 180.53C94.1651 180.03 88.7651 179.03 83.5651 177.43C78.7651 175.93 74.4651 173.33 70.2651 170.63C67.9651 169.13 65.9651 167.43 63.8651 165.73C62.0651 164.43 60.2651 164.13 58.4651 163.03C57.5651 162.43 55.8651 163.53 56.3651 164.73Z" fill="black"/>
<path d="M216.065 31.83C223.465 30.53 225.365 47.93 226.065 52.33C227.565 62.13 226.965 71.63 226.965 81.43C226.965 82.33 228.165 82.43 228.465 81.63C232.165 69.33 231.565 55.23 229.765 42.63C228.565 34.53 224.465 24.13 214.465 25.83C210.565 26.73 212.265 32.53 216.065 31.83Z" fill="black"/>
<path d="M34.0651 227.23C32.7651 220.73 42.8651 215.13 47.4651 212.33C53.3651 208.63 59.7651 206.03 65.8651 202.73C66.7651 202.23 66.0651 201.13 65.2651 201.23C55.4651 202.73 45.6651 207.63 37.0651 212.43C30.9651 215.83 24.1651 222.23 28.2651 229.73C30.0651 233.13 34.7651 230.73 34.0651 227.23Z" fill="black"/>
<path d="M318.365 282.73C313.965 278.63 307.665 276.23 302.865 272.43C296.965 267.93 293.065 261.43 288.665 255.53C288.065 254.73 286.465 255.13 286.865 256.33C289.765 264.03 293.865 271.43 298.965 277.83C303.065 282.93 311.365 288.33 318.065 284.53C318.765 284.23 318.865 283.23 318.365 282.73Z" fill="black"/>
</svg>
