<?xml version="1.0" encoding="UTF-8"?>
<svg id="Layer_1" xmlns="http://www.w3.org/2000/svg" xmlns:xlink="http://www.w3.org/1999/xlink" version="1.1" viewBox="0 0 578.9 274">
  <!-- Generator: Adobe Illustrator 30.0.0, SVG Export Plug-In . SVG Version: 2.1.1 Build 123)  -->
  <defs>
    <style>
      .st0 {
        fill: url(#radial-gradient);
      }

      .st1, .st2 {
        fill: none;
        stroke: #e6e6e6;
        stroke-miterlimit: 10;
      }

      .st3 {
        fill: url(#radial-gradient1);
      }

      .st2 {
        stroke-width: 2px;
      }
    </style>
    <radialGradient id="radial-gradient" cx="-27.6" cy="15.9" fx="-27.6" fy="15.9" r="24.1" gradientTransform="translate(43.1 204.4) rotate(14.1) scale(1 -1)" gradientUnits="userSpaceOnUse">
      <stop offset="0" stop-color="#fff"/>
      <stop offset=".1" stop-color="#fff" stop-opacity=".8"/>
      <stop offset=".2" stop-color="#fff" stop-opacity=".6"/>
      <stop offset=".4" stop-color="#fff" stop-opacity=".4"/>
      <stop offset=".5" stop-color="#fff" stop-opacity=".3"/>
      <stop offset=".6" stop-color="#fff" stop-opacity=".2"/>
      <stop offset=".8" stop-color="#fff" stop-opacity="0"/>
      <stop offset=".9" stop-color="#fff" stop-opacity="0"/>
      <stop offset="1" stop-color="#fff" stop-opacity="0"/>
    </radialGradient>
    <radialGradient id="radial-gradient1" cx="460.5" cy="-35.6" fx="460.5" fy="-35.6" r="24.1" gradientTransform="translate(73.1 35.6) rotate(14.1) scale(1 -1)" gradientUnits="userSpaceOnUse">
      <stop offset="0" stop-color="#fff"/>
      <stop offset=".1" stop-color="#fff" stop-opacity=".8"/>
      <stop offset=".2" stop-color="#fff" stop-opacity=".6"/>
      <stop offset=".4" stop-color="#fff" stop-opacity=".4"/>
      <stop offset=".5" stop-color="#fff" stop-opacity=".3"/>
      <stop offset=".6" stop-color="#fff" stop-opacity=".2"/>
      <stop offset=".8" stop-color="#fff" stop-opacity="0"/>
      <stop offset=".9" stop-color="#fff" stop-opacity="0"/>
      <stop offset="1" stop-color="#fff" stop-opacity="0"/>
    </radialGradient>
  </defs>
  <rect class="st1" y="249.7" width="578.4" height="23.8"/>
  <ellipse class="st0" cx="29.6" cy="189.6" rx="13.9" ry="20.5" transform="translate(-63.4 21.7) rotate(-20.1)"/>
  <path class="st1" d="M68.4,241.4c-1.9-.9-3.2-1.8-3.5-3-.3-1.1-.5-3.3-1.3-3.8s-2.8-1.3-3.4-2.3c-.6-1-1.5-4.3-.5-5.8,1-1.5,2.1-2.6,2.1-2.6v-3.4s6.1-10.9,8.9-20.2c2.7-9.3,3.1-21.4.8-25.8-1.8-3.5-2.1-3.9-2.1-3.9v-2c0,0-2.5-2.9-2.5-4.5,0-1.6,0-3.7,2.6-6,0,0,.4-2.1,0-3.1s-.8-1.6-.8-1.6H19.1s-.4.6-.8,1.6c-.4,1,0,3.1,0,3.1,2.5,2.3,2.5,4.4,2.6,6s-2.5,4.5-2.5,4.5v2c0,0-.2.4-2.1,3.9-2.3,4.4-1.9,16.5.8,25.8s8.8,20.2,8.8,20.2v3.4s1.1,1.1,2.1,2.6c1,1.5,0,4.8-.5,5.8s-2.7,1.8-3.4,2.3c-.8.5-1,2.6-1.3,3.8s-1.6,2.1-3.5,3-3.1,1.8-3.6,3.4.6,4.9.6,4.9h55.2s1.1-3.2.6-4.9-1.7-2.6-3.6-3.4h0Z"/>
  <line class="st2" x1="18.2" y1="158.2" x2="69.3" y2="158.2"/>
  <line class="st2" x1="18.4" y1="170.7" x2="69.2" y2="170.7"/>
  <line class="st2" x1="22.7" y1="238.4" x2="64.9" y2="238.4"/>
  <ellipse class="st3" cx="520.4" cy="189.6" rx="13.9" ry="20.5" transform="translate(-33.5 190.5) rotate(-20.1)"/>
  <path class="st1" d="M559.2,241.4c-1.9-.9-3.2-1.8-3.5-3-.3-1.1-.5-3.3-1.3-3.8s-2.8-1.3-3.4-2.3c-.6-1-1.5-4.3-.5-5.8,1-1.5,2-2.6,2-2.6v-3.4s6.1-10.9,8.8-20.2c2.7-9.3,3.1-21.4.8-25.8-1.8-3.5-2.1-3.9-2.1-3.9v-2c0,0-2.5-2.9-2.5-4.5,0-1.6,0-3.7,2.6-6,0,0,.4-2.1,0-3.1s-.8-1.6-.8-1.6h-49.4s-.4.6-.8,1.6c-.4,1,0,3.1,0,3.1,2.5,2.3,2.5,4.4,2.6,6s-2.5,4.5-2.5,4.5v2c0,0-.2.4-2,3.9-2.3,4.4-1.9,16.5.8,25.8s8.8,20.2,8.8,20.2v3.4s1.1,1.1,2,2.6c1,1.5,0,4.8-.5,5.8s-2.7,1.8-3.4,2.3c-.8.5-1,2.6-1.3,3.8s-1.6,2.1-3.5,3c-1.9.9-3.1,1.8-3.6,3.4s.6,4.9.6,4.9h55.2s1.1-3.2.6-4.9c-.5-1.6-1.7-2.6-3.6-3.4h0Z"/>
  <line class="st2" x1="509.1" y1="158.2" x2="560.2" y2="158.2"/>
  <line class="st2" x1="509.2" y1="170.7" x2="560.1" y2="170.7"/>
  <line class="st2" x1="513.6" y1="238.4" x2="555.7" y2="238.4"/>
  <path class="st1" d="M491,81.2c.4-22.8-.5-39-15.5-55.4-11.3-12.4-27.7-24.3-50.8-25.3-30.5-1.3-46.2,18.4-46.2,18.4,0,0-15.5-18.4-42.5-18.4s-46.8,18.4-46.8,18.4c0,0-17.4-18.4-46.8-18.4s-42.5,18.4-42.5,18.4c0,0-15.7-19.7-46.2-18.4-23.1,1-39.5,12.9-50.8,25.3-15,16.4-15.9,32.6-15.5,55.4.5,30.2,36.3,65,36.3,65,0,0-3,13.2-12.5,24.4s-23.7,17.1-23.7,17.1v61.9h403.6v-61.9s-14.2-5.8-23.7-17.1c-9.6-11.3-12.5-24.4-12.5-24.4,0,0,35.8-34.8,36.3-65h0Z"/>
</svg>